<svg xmlns="http://www.w3.org/2000/svg" xmlns:xlink="http://www.w3.org/1999/xlink" viewBox="0 0 400 300"><defs><style>.cls-1{isolation:isolate;}.cls-2{fill:#f5f7fa;}.cls-3{fill:#26274f;}.cls-4{fill:url(#linear-gradient);}.cls-5{fill:url(#linear-gradient-2);}.cls-18,.cls-6,.cls-7{fill:#fff;}.cls-7{opacity:0.48;}.cls-17,.cls-18,.cls-7{mix-blend-mode:soft-light;}.cls-8{fill:url(#linear-gradient-3);}.cls-9{fill:url(#linear-gradient-4);}.cls-10{fill:url(#linear-gradient-5);}.cls-11,.cls-12{fill:#d8dee8;}.cls-12{opacity:0.3;mix-blend-mode:multiply;}.cls-13{fill:url(#linear-gradient-6);}.cls-14{fill:url(#linear-gradient-7);}.cls-15{fill:url(#linear-gradient-8);}.cls-16{fill:url(#linear-gradient-9);}.cls-17,.cls-18{opacity:0.5;}.cls-19{fill:url(#linear-gradient-10);}.cls-20{fill:url(#linear-gradient-11);}</style><linearGradient id="linear-gradient" x1="51.55" y1="182" x2="252.05" y2="182" gradientUnits="userSpaceOnUse"><stop offset="0" stop-color="#444c8d"/><stop offset="1" stop-color="#26274f"/></linearGradient><linearGradient id="linear-gradient-2" x1="59.79" y1="180.68" x2="245.27" y2="180.68" gradientUnits="userSpaceOnUse"><stop offset="0" stop-color="#cc90bf"/><stop offset="1" stop-color="#7c6fb1"/></linearGradient><linearGradient id="linear-gradient-3" x1="51.55" y1="259.09" x2="353.6" y2="259.09" xlink:href="#linear-gradient"/><linearGradient id="linear-gradient-4" x1="71.18" y1="132.79" x2="300.35" y2="132.79" gradientUnits="userSpaceOnUse"><stop offset="0" stop-color="#ac336e"/><stop offset="1" stop-color="#7a2e3e"/></linearGradient><linearGradient id="linear-gradient-5" x1="206.24" y1="34.48" x2="110.6" y2="190.84" gradientUnits="userSpaceOnUse"><stop offset="0" stop-color="#f28e86"/><stop offset="1" stop-color="#e874aa"/></linearGradient><linearGradient id="linear-gradient-6" x1="141.48" y1="72.41" x2="107.78" y2="358.82" gradientUnits="userSpaceOnUse"><stop offset="0" stop-color="#ee7058"/><stop offset="1" stop-color="#fcc345"/></linearGradient><linearGradient id="linear-gradient-7" x1="133.89" y1="107.68" x2="110.56" y2="305.94" gradientUnits="userSpaceOnUse"><stop offset="0" stop-color="#fcc345"/><stop offset="1" stop-color="#ee7058"/></linearGradient><linearGradient id="linear-gradient-8" x1="147.55" y1="116.88" x2="123.9" y2="317.94" xlink:href="#linear-gradient-7"/><linearGradient id="linear-gradient-9" x1="174.69" y1="77.99" x2="234.32" y2="23.88" gradientUnits="userSpaceOnUse"><stop offset="0" stop-color="#9080ba"/><stop offset="1" stop-color="#5961a9"/></linearGradient><linearGradient id="linear-gradient-10" x1="269.38" y1="76.77" x2="324.72" y2="26.54" xlink:href="#linear-gradient-9"/><linearGradient id="linear-gradient-11" x1="68.64" y1="78.25" x2="133.25" y2="19.62" xlink:href="#linear-gradient-9"/></defs><g class="cls-1"><g id="Layer_1" data-name="Layer 1"><path class="cls-2" d="M344.3,125.52c-5.92-39.18-10.67-66.26-32.05-81.1-36.06-25-76.33,15.6-127.41-11.66-25.15-13.42-26.09-29-47.39-31C99.76-1.95,68.9,43.53,66.23,47.43a100,100,0,0,0-15.09,80.12c4.28,17.89,7.17,36.41,6.37,54.79-1.38,32-.58,61.86,30.13,80.94,27.41,17,61.92,32.06,94.84,34.7,22.37,1.78,47.46-1.11,69-7C361.39,261,352.44,179.39,344.3,125.52Z"/><path class="cls-3" d="M353.6,256.89l-302-2.57v7.62a4.05,4.05,0,0,0,3.1,4.13l85.41,15a12.63,12.63,0,0,0,3.07.14l207.18-17.11a3.87,3.87,0,0,0,3.29-4Z"/><path class="cls-3" d="M244,244.68,54.67,258.62a5.74,5.74,0,0,1-6.14-5.92v-141a6.26,6.26,0,0,1,6.14-6.37H244c2.8,0,5.05,2.57,5.05,5.76V238.55C249,241.73,246.78,244.48,244,244.68Z"/><path class="cls-4" d="M247,244.68,57.69,258.62a5.73,5.73,0,0,1-6.14-5.92v-141a6.26,6.26,0,0,1,6.14-6.37H247c2.79,0,5.05,2.57,5.05,5.76V238.55C252.05,241.73,249.79,244.48,247,244.68Z"/><path class="cls-5" d="M241.11,235.7,64.78,247.81a4.71,4.71,0,0,1-5-4.86V119.52a5.13,5.13,0,0,1,5-5.22l176.33-.76a4.45,4.45,0,0,1,4.16,4.72V230.68A4.87,4.87,0,0,1,241.11,235.7Z"/><path class="cls-6" d="M159,109.21a2.19,2.19,0,1,1-2.17-2.37A2.28,2.28,0,0,1,159,109.21Z"/><path class="cls-7" d="M57.69,258.62,246,244.76l1-.08a5.07,5.07,0,0,0,3.34-1.68c-13.56-.74-22-5.55-27.41-10.52-10.9-10-9-19.83-20.77-26.39-14.67-8.19-26.2,2.19-37.34-8.05-6.74-6.2-3.43-10.83-11.73-20.1-9.2-10.27-15.19-6.82-24.43-16.06-11.69-11.68-5.84-20.78-15.91-29.17-12.21-10.17-25.38-.75-37-10.51-5-4.21-7.77-10.33-9.2-16.84H57.69a6.26,6.26,0,0,0-6.14,6.37v141A5.73,5.73,0,0,0,57.69,258.62Z"/><path class="cls-8" d="M254.55,243.91l-203,14.67,88.51,15.55a12.63,12.63,0,0,0,3.07.14L353.6,256.89,257.78,244A15.85,15.85,0,0,0,254.55,243.91Z"/><polygon class="cls-3" points="81.17 258.71 250.17 246.31 302.48 253.29 134.93 266.54 81.17 258.71"/><path class="cls-9" d="M300.35,63.45V200.61c0,3.68-2.4,3.95-5.48,4.11l-76.28,4.82L80.23,218.28l-1.85.12a7,7,0,0,1-7.2-7.25l.1-144.84V54.46a7,7,0,0,1,7.19-7.29l.25,0,51.5,2.23,164.67,7.14C298,56.69,300.35,59.78,300.35,63.45Z"/><path class="cls-6" d="M303.27,74.44v126c0,3.69-2.4,6.8-5.48,7l-78.79,4L81.23,218.31a8.46,8.46,0,0,1-1,0A7.07,7.07,0,0,1,74,211l.07-144V65.93l61.53,2.28,164.64,6.12Z"/><path class="cls-10" d="M303.27,63.08V74.44l-3-.1L135.63,69l-61.54-2V65.93l0-11.86a7.23,7.23,0,0,1,4.57-6.88,6.7,6.7,0,0,1,2.66-.42l48.56,2.11,167.87,7.29C300.86,56.3,303.27,59.39,303.27,63.08Z"/><path class="cls-6" d="M90.83,57a3.11,3.11,0,0,1-3.16,3.24,3.42,3.42,0,0,1-3.17-3.48,3.12,3.12,0,0,1,3.18-3.24A3.41,3.41,0,0,1,90.83,57Z"/><polygon class="cls-11" points="288.09 126.08 93.98 125.66 93.98 83.7 288.09 88.75 288.09 126.08"/><polygon class="cls-11" points="177.05 199.96 93.98 203.46 93.98 142.27 177.05 141.66 177.05 199.96"/><polygon class="cls-11" points="288.09 195.29 194.17 199.24 194.17 141.54 288.09 140.86 288.09 195.29"/><path class="cls-12" d="M219,211.39,81.25,218.31a8.63,8.63,0,0,1-1,0l-1.85.12a7,7,0,0,1-7.2-7.25l.1-144.84V54.46a7,7,0,0,1,7.19-7.29l.25,0a6.71,6.71,0,0,1,2.65-.42l48.56,2.11c.1.17.2.35.29.54a48.81,48.81,0,0,1,5.44,18.79c0,.28,0,.55,0,.83.56,8.21-.72,17.94-5.28,29.21-12.6,31.16,1.41,62.11,20.43,74.41.59.38,1.18.75,1.78,1.09,5.85,3.37,12.1,5,18.14,4.32a46.12,46.12,0,0,1,31,7.36c1.14.77,2.24,1.6,3.3,2.48a41.6,41.6,0,0,1,13.55,21.63C218.76,210.15,218.91,210.76,219,211.39Z"/><path class="cls-13" d="M164.77,122.19a1.83,1.83,0,0,0-1.81-.33L121.5,137a1.82,1.82,0,0,0-.54,3.11l7,5.82,0,0-.7.58-12.49,11L100.52,170a1.81,1.81,0,0,0-.62,1.39,1.78,1.78,0,0,0,.65,1.37l23.78,20,.2.15h0s2.66,2.35,5.32-1.12c-.74-.2-1.52-.44-2.08-.61q3.57-5.65,7.16-11.29,5.59-8.82,11.24-17.62c.16-.24.31-.49.45-.74l7.37,6.14a1,1,0,0,0,.16.12,1.68,1.68,0,0,0,.47.22,4.28,4.28,0,0,0,2.95-.21c2.49-.91,2.48-2,2.57-2.5.06-.27-1.49-.52-2.81-.68l8-40.62A1.85,1.85,0,0,0,164.77,122.19Z"/><path class="cls-14" d="M148.73,143.21c-4.13-3.44-11.85-2.6-17.69,1.77-.23.18-.46.38-.69.58l-12.49,11L103.65,169a1.83,1.83,0,0,0,0,2.76l23.78,20a1.83,1.83,0,0,0,2.71-.42q3.93-6.24,7.88-12.45,5.61-8.84,11.25-17.62c.16-.25.31-.5.46-.76C153.18,154.15,152.84,146.63,148.73,143.21Z"/><path class="cls-15" d="M167.9,121.25a1.81,1.81,0,0,0-1.8-.33L124.63,136a1.81,1.81,0,0,0-1.16,1.4,1.77,1.77,0,0,0,.62,1.7l33,27.52a1.82,1.82,0,0,0,2.95-1L168.5,123A1.8,1.8,0,0,0,167.9,121.25Z"/><path class="cls-3" d="M160.8,59.56c0-18.78,17-33.59,37-33.11,19,.46,33.79,14.73,33.79,31.89S216.79,90.28,197.76,91.4C177.77,92.57,160.8,78.34,160.8,59.56Z"/><path class="cls-16" d="M163,58.08c0-18.75,16.45-33.55,35.83-33.07,18.47.45,32.8,14.72,32.8,31.89s-14.33,31.92-32.8,33C179.46,91.07,163,76.84,163,58.08Z"/><g class="cls-17"><path class="cls-6" d="M168.67,58c0-15.71,13.76-28.14,30-27.78,15.53.34,27.62,12.33,27.62,26.79S214.23,83.86,198.7,84.74C182.43,85.66,168.67,73.7,168.67,58Z"/></g><path class="cls-18" d="M197.58,32.55c15.56.33,27.66,12.31,27.66,26.78a26,26,0,0,1-1.93,9.82,26.18,26.18,0,0,0,3-12.16c0-14.46-12.09-26.45-27.62-26.79-12.53-.28-23.56,7-28,17.61A29.76,29.76,0,0,1,197.58,32.55Z"/><path class="cls-6" d="M201.76,58.25A4.81,4.81,0,0,1,196.85,63a4.9,4.9,0,0,1-4.94-4.83,4.81,4.81,0,0,1,4.94-4.76A4.91,4.91,0,0,1,201.76,58.25Z"/><path class="cls-6" d="M196.85,47.66A25,25,0,0,0,176,58a25.4,25.4,0,0,0,20.9,10.71,24.54,24.54,0,0,0,20.46-10.38A25,25,0,0,0,196.85,47.66Zm0,19a8.61,8.61,0,0,1-8.67-8.48,8.44,8.44,0,0,1,8.67-8.34,8.6,8.6,0,0,1,8.59,8.47A8.45,8.45,0,0,1,196.85,66.62Z"/><path class="cls-6" d="M201.76,58.25A4.81,4.81,0,0,1,196.85,63a4.9,4.9,0,0,1-4.94-4.83,4.81,4.81,0,0,1,4.94-4.76A4.91,4.91,0,0,1,201.76,58.25Z"/><path class="cls-3" d="M257.19,59.72c0-17.89,15.4-32,33.57-31.57,17.3.42,30.74,14,30.74,30.4S308.06,89,290.76,90.07C272.59,91.17,257.19,77.61,257.19,59.72Z"/><path class="cls-19" d="M259.2,58.31a31.71,31.71,0,0,1,32.54-31.54,30.46,30.46,0,0,1,29.84,30.4,31.84,31.84,0,0,1-29.84,31.49A30.36,30.36,0,0,1,259.2,58.31Z"/><g class="cls-17"><path class="cls-6" d="M264.33,58.21a26.65,26.65,0,0,1,27.28-26.49,25.57,25.57,0,0,1,25.13,25.54,26.76,26.76,0,0,1-25.13,26.46A25.52,25.52,0,0,1,264.33,58.21Z"/></g><path class="cls-18" d="M290.6,34a25.57,25.57,0,0,1,25.16,25.53A26,26,0,0,1,314,68.86a26,26,0,0,0,2.74-11.6,25.57,25.57,0,0,0-25.13-25.54,26.77,26.77,0,0,0-25.42,16.81A26.86,26.86,0,0,1,290.6,34Z"/><path class="cls-6" d="M308.32,62.24a1,1,0,0,1-1,1l-4.75,0a1,1,0,0,1-1-1h0a1,1,0,0,1,1-1.05l4.75,0a1.05,1.05,0,0,1,1,1.06Z"/><path class="cls-6" d="M305.62,55.35a1.1,1.1,0,0,1-.56,1.41L303,57.83a1,1,0,0,1-1.45-.38v0a1.18,1.18,0,0,1,.52-1.5l2.07-1.06a1.12,1.12,0,0,1,1.49.45Z"/><path class="cls-6" d="M304.94,69.38a1.11,1.11,0,0,0-.56-1.42l-2.07-1.1a1,1,0,0,0-1.45.36v0a1.17,1.17,0,0,0,.52,1.5l2.07,1.09a1.11,1.11,0,0,0,1.49-.43Z"/><path class="cls-6" d="M289.89,40.37a10.17,10.17,0,0,0-10.25,9.7l0,0v.61a10.9,10.9,0,0,0,.15,1.82v.16l1.08,15.69h0a9.22,9.22,0,0,0,.14,1.31,8.78,8.78,0,0,0,.37,1.47c.95,3,3.39,5.09,6.23,5.08a5.79,5.79,0,0,0,3.93-1.55,7.67,7.67,0,0,0,2.38-3.89,9.58,9.58,0,0,0,.22-1.92,7.62,7.62,0,0,1,.14-1.43,32.24,32.24,0,0,1,2.34-6.11C298,58,300,54.71,300,51A10.52,10.52,0,0,0,289.89,40.37Zm4.23,12.89a1,1,0,0,1-1.12-.74c0-.17-.95-4.12-4.66-4.17a3.3,3.3,0,0,0-3.15,2.14,5.11,5.11,0,0,0,.59,5.15l.6.65c2,2.22,5.09,5.56,4.8,9.06a6.21,6.21,0,0,1-2.7,4.45.86.86,0,0,1-.56.19,1,1,0,0,1-.76-.38,1,1,0,0,1,.19-1.35,4.37,4.37,0,0,0,2-3.08c.22-2.65-2.5-5.61-4.31-7.58l-.61-.67a7.08,7.08,0,0,1-.94-7.23,5.11,5.11,0,0,1,4.89-3.27c4.19.06,6.08,3.75,6.49,5.69A1,1,0,0,1,294.12,53.26Z"/><path class="cls-3" d="M52.72,58.2c0-19.78,18.82-35.35,41-34.82,21.06.52,37.38,15.54,37.38,33.58S114.74,90.54,93.68,91.72C71.54,93,52.72,78,52.72,58.2Z"/><path class="cls-20" d="M55.17,56.64c0-19.75,18.24-35.31,39.71-34.77,20.43.51,36.27,15.53,36.27,33.57S115.31,89,94.88,90.16C73.41,91.38,55.17,76.39,55.17,56.64Z"/><g class="cls-17"><path class="cls-6" d="M61.45,56.54C61.45,40,76.7,26.92,94.72,27.33c17.19.38,30.56,13,30.56,28.21S111.91,83.78,94.72,84.71C76.7,85.68,61.45,73.09,61.45,56.54Z"/></g><path class="cls-18" d="M93.49,29.8c17.21.37,30.59,13,30.59,28.19A26.42,26.42,0,0,1,122,68.33a26.55,26.55,0,0,0,3.33-12.79c0-15.21-13.37-27.83-30.56-28.21-13.87-.32-26.1,7.37-31,18.5C69.27,36.06,80.68,29.53,93.49,29.8Z"/><path class="cls-6" d="M97.36,46.7a25.18,25.18,0,0,0-4.7-6,2.27,2.27,0,0,1-.12-3.24l.11-.1a2.71,2.71,0,0,1,3.78,0A30,30,0,0,1,101.72,44Z"/><path class="cls-6" d="M99.48,75.61a2.72,2.72,0,0,1-3.76.41l-.11-.09a2.27,2.27,0,0,1-.4-3.21,23.1,23.1,0,0,0,5.13-16.37l0-.2,4.86-3.08a26.2,26.2,0,0,1,.4,3A27.74,27.74,0,0,1,99.48,75.61Z"/><path class="cls-6" d="M90.12,51.26a16.23,16.23,0,0,0-3.21-4.47,2.28,2.28,0,0,1-.09-3.23v0a2.72,2.72,0,0,1,3.83,0,21.73,21.73,0,0,1,3.78,5Z"/><path class="cls-6" d="M96.89,58.33A20.06,20.06,0,0,1,92.8,70.22a2.72,2.72,0,0,1-3.8.43l0,0a2.27,2.27,0,0,1-.41-3.2,16,16,0,0,0,2.66-5.51Z"/><path class="cls-6" d="M87.05,53.2l-4.59,2.89A7.93,7.93,0,0,0,80.89,53,2.42,2.42,0,0,1,81,49.76v0a2.77,2.77,0,0,1,4,.13A13.21,13.21,0,0,1,87.05,53.2Z"/><path class="cls-6" d="M113.13,43.88l-1.48-2a1.24,1.24,0,0,0-1.63-.3L71.89,65.61a1,1,0,0,0-.31,1.54l1.54,2a1.28,1.28,0,0,0,1.68.29l38-24.09A1,1,0,0,0,113.13,43.88Z"/></g></g></svg>