<svg xmlns="http://www.w3.org/2000/svg" xmlns:xlink="http://www.w3.org/1999/xlink" viewBox="0 0 2000 400"><defs><style>.cls-1{fill:none;}.cls-2{isolation:isolate;}.cls-3{fill:url(#Áåçûìÿííûé_ãðàäèåíò_40);}.cls-4{fill:#fff;}.cls-228,.cls-240,.cls-5{opacity:0.5;}.cls-5{mix-blend-mode:multiply;}.cls-6{clip-path:url(#clip-path);}.cls-7{fill:#feffff;}.cls-8{fill:#fdfeff;}.cls-9{fill:#fcfeff;}.cls-10{fill:#fcfdff;}.cls-11{fill:#fbfdff;}.cls-12{fill:#fbfdfd;}.cls-13{fill:#fbfdfe;}.cls-14{fill:#fafcfe;}.cls-15{fill:#f9fcfe;}.cls-16{fill:#f9fbfe;}.cls-17{fill:#f8fbfc;}.cls-18{fill:#f7fbfd;}.cls-19{fill:#f7fafc;}.cls-20{fill:#f6fafd;}.cls-21{fill:#f5f9fc;}.cls-22{fill:#f4f8fb;}.cls-23{fill:#f2f7fb;}.cls-24{fill:#f0f7fc;}.cls-25{fill:#f0f6fa;}.cls-26{fill:#eff5fa;}.cls-27{fill:#eef5fa;}.cls-28{fill:#edf4f9;}.cls-29{fill:#ecf3f9;}.cls-30{fill:#eaf3f9;}.cls-31{fill:#eaf2f8;}.cls-32{fill:#e9f2f9;}.cls-33{fill:#e8f1f8;}.cls-34{fill:#e7f0f8;}.cls-35{fill:#e6f0f7;}.cls-36{fill:#e6eff7;}.cls-37{fill:#e5eff8;}.cls-38{fill:#e4eff7;}.cls-39{fill:#e4eef6;}.cls-40{fill:#e3eef7;}.cls-41{fill:#e2edf7;}.cls-42{fill:#e1eef7;}.cls-43{fill:#e1ecf6;}.cls-44{fill:#dfecf6;}.cls-45{fill:#e0ecf6;}.cls-46{fill:#deebf5;}.cls-47{fill:#ddeaf4;}.cls-48{fill:#dcebf4;}.cls-49{fill:#ddeaf5;}.cls-50{fill:#dbeaf3;}.cls-51{fill:#dae9f4;}.cls-52{fill:#dae8f3;}.cls-53{fill:#d8e7f3;}.cls-54{fill:#d8e7f2;}.cls-55{fill:#d7e6f2;}.cls-56{fill:#d6e6f2;}.cls-57{fill:#d4e4f2;}.cls-58{fill:#d3e4f1;}.cls-59{fill:#d2e4f1;}.cls-60{fill:#d2e3f0;}.cls-61{fill:#d1e3f0;}.cls-62{fill:#d0e2f0;}.cls-63{fill:#cfe2f0;}.cls-64{fill:#cde1f0;}.cls-65{fill:#cde0ef;}.cls-66{fill:#cce0ef;}.cls-67{fill:#cce0ee;}.cls-68{fill:#cadfef;}.cls-69{fill:#c9deee;}.cls-70{fill:#c8dfee;}.cls-71{fill:#c7ddee;}.cls-72{fill:#c6dced;}.cls-73{fill:#c5dbec;}.cls-74{fill:#c5dcec;}.cls-75{fill:#c4dbed;}.cls-76{fill:#c3dbec;}.cls-77{fill:#c2daeb;}.cls-78{fill:#c1d9eb;}.cls-79{fill:#c0d8ea;}.cls-80{fill:#bed7e9;}.cls-81{fill:#bdd7e9;}.cls-82{fill:#bcd6e8;}.cls-83{fill:#bbd5e8;}.cls-84{fill:#bad4e8;}.cls-85{fill:#b9d4e8;}.cls-86{fill:#b8d4e8;}.cls-87{fill:#b7d3e8;}.cls-88{fill:#b6d2e8;}.cls-89{fill:#b5d2e7;}.cls-90{fill:#b4d1e7;}.cls-91{fill:#b3d1e7;}.cls-92{fill:#b2d0e6;}.cls-93{fill:#b1cfe6;}.cls-94{fill:#b0cfe6;}.cls-95{fill:#afcee5;}.cls-96{fill:#aecde5;}.cls-97{fill:#adcde5;}.cls-98{fill:#accde5;}.cls-99{fill:#abcce5;}.cls-100{fill:#aacbe5;}.cls-101{fill:#a9cae4;}.cls-102{fill:#a8cae4;}.cls-103{fill:#a7c9e4;}.cls-104{fill:#a6c8e3;}.cls-105{fill:#a4c8e2;}.cls-106{fill:#a3c7e2;}.cls-107{fill:#a3c6e1;}.cls-108{fill:#a1c6e1;}.cls-109{fill:#a0c5df;}.cls-110{fill:#9fc3df;}.cls-111{fill:#9ec3df;}.cls-112{fill:#9dc2de;}.cls-113{fill:#9cc2df;}.cls-114{fill:#9bc2de;}.cls-115{fill:#9ac1de;}.cls-116{fill:#99c0de;}.cls-117{fill:#98bfde;}.cls-118{fill:#97bfdd;}.cls-119{fill:#95bedd;}.cls-120{fill:#95bddc;}.cls-121{fill:#92bddc;}.cls-122{fill:#91bcdc;}.cls-123{fill:#90bcdb;}.cls-124{fill:#8fbadb;}.cls-125{fill:#8ebadc;}.cls-126{fill:#8db9da;}.cls-127{fill:#8bb8da;}.cls-128{fill:#8ab8da;}.cls-129{fill:#89b7d9;}.cls-130{fill:#89b7da;}.cls-131{fill:#88b6d8;}.cls-132{fill:#86b5d9;}.cls-133{fill:#85b5d8;}.cls-134{fill:#84b4d8;}.cls-135{fill:#83b2d7;}.cls-136{fill:#82b2d6;}.cls-137{fill:#7fb1d6;}.cls-138{fill:#7eb0d6;}.cls-139{fill:#7dafd5;}.cls-140{fill:#7cafd6;}.cls-141{fill:#79aed4;}.cls-142{fill:#7aadd5;}.cls-143{fill:#78acd5;}.cls-144{fill:#77acd3;}.cls-145{fill:#75abd3;}.cls-146{fill:#73abd3;}.cls-147{fill:#74a9d3;}.cls-148{fill:#73a9d3;}.cls-149{fill:#71a8d2;}.cls-150{fill:#70a7d2;}.cls-151{fill:#6fa7d1;}.cls-152{fill:#6da6d1;}.cls-153{fill:#6da6d0;}.cls-154{fill:#6ba5d0;}.cls-155{fill:#69a3cf;}.cls-156{fill:#69a3ce;}.cls-157{fill:#68a2cf;}.cls-158{fill:#67a2ce;}.cls-159{fill:#65a0cd;}.cls-160{fill:#63a0cd;}.cls-161{fill:#629fcd;}.cls-162{fill:#619ece;}.cls-163{fill:#5e9ccc;}.cls-164{fill:#5e9ccb;}.cls-165{fill:#5b9aca;}.cls-166{fill:#5a9aca;}.cls-167{fill:#5899c9;}.cls-168{fill:#5897c8;}.cls-169{fill:#5697c9;}.cls-170{fill:#5597c8;}.cls-171{fill:#5396c8;}.cls-172{fill:#5295c7;}.cls-173{fill:#5194c6;}.cls-174{fill:#4e93c6;}.cls-175{fill:#4f92c6;}.cls-176{fill:#4d92c5;}.cls-177{fill:#4c91c5;}.cls-178{fill:#4990c5;}.cls-179{fill:#488fc4;}.cls-180{fill:#478ec4;}.cls-181{fill:#468dc3;}.cls-182{fill:#458cc4;}.cls-183{fill:#438cc2;}.cls-184{fill:#428bc2;}.cls-185{fill:#418bc2;}.cls-186{fill:#3f8ac2;}.cls-187{fill:#3e89c1;}.cls-188{fill:#3b87c1;}.cls-189{fill:#3a87c1;}.cls-190{fill:#3986c0;}.cls-191{fill:#3785c0;}.cls-192{fill:#3585bf;}.cls-193{fill:#3484bf;}.cls-194{fill:#3283be;}.cls-195{fill:#3382be;}.cls-196{fill:#3081bd;}.cls-197{fill:#2f80bd;}.cls-198{fill:#2e7fbc;}.cls-199{fill:#2c7ebd;}.cls-200{fill:#2b7cbb;}.cls-201{fill:#2a7cbc;}.cls-202{fill:#287bba;}.cls-203{fill:#267bbb;}.cls-204{fill:#257ab9;}.cls-205{fill:#2379ba;}.cls-206{fill:#2278b9;}.cls-207{fill:#2177b8;}.cls-208{fill:#2176b7;}.cls-209{fill:#1f75b7;}.cls-210{fill:#1d74b7;}.cls-211{fill:#1c73b6;}.cls-212{fill:#1a72b6;}.cls-213{fill:#1871b5;}.cls-214{fill:#1770b5;}.cls-215{fill:#176fb4;}.cls-216{fill:#116fb4;}.cls-217{fill:#116eb3;}.cls-218{fill:#146db3;}.cls-219{fill:#116cb2;}.cls-220{fill:#0f6bb2;}.cls-221{fill:#0f6ab1;}.cls-222{fill:#0e69b1;}.cls-223{fill:#0c68b0;}.cls-224{fill:#1067af;}.cls-225{fill:#0b66ae;}.cls-226{fill:#0865ae;}.cls-227{fill:#0d64ad;}.cls-229,.cls-240{fill:#84d0f5;}.cls-230{fill:url(#Áåçûìÿííûé_ãðàäèåíò_17);}.cls-231{fill:url(#Áåçûìÿííûé_ãðàäèåíò_5);}.cls-232{fill:url(#Áåçûìÿííûé_ãðàäèåíò_5-2);}.cls-233{fill:url(#Áåçûìÿííûé_ãðàäèåíò_24);}.cls-234{fill:url(#Áåçûìÿííûé_ãðàäèåíò_17-2);}.cls-235{fill:url(#Áåçûìÿííûé_ãðàäèåíò_17-3);}.cls-236{fill:url(#Áåçûìÿííûé_ãðàäèåíò_5-3);}.cls-237{fill:url(#Áåçûìÿííûé_ãðàäèåíò_5-4);}.cls-238{fill:url(#Áåçûìÿííûé_ãðàäèåíò_24-2);}.cls-239{fill:url(#Áåçûìÿííûé_ãðàäèåíò_17-4);}</style><radialGradient id="Áåçûìÿííûé_ãðàäèåíò_40" cx="861.16" cy="182.57" r="442.97" gradientTransform="translate(-2328.3 0.07) scale(3.33 0.89)" gradientUnits="userSpaceOnUse"><stop offset="0" stop-color="#3c9bd5"/><stop offset="1" stop-color="#0d64ad"/></radialGradient><clipPath id="clip-path"><ellipse id="SVGID" class="cls-1" cx="1494.95" cy="354.89" rx="175.12" ry="22.86"/></clipPath><linearGradient id="Áåçûìÿííûé_ãðàäèåíò_17" x1="-6478.39" y1="1557.13" x2="-6327.66" y2="1557.13" gradientTransform="matrix(0.78, 0.45, -0.2, 1.04, 7018.37, 1379.96)" gradientUnits="userSpaceOnUse"><stop offset="0" stop-color="#84d0f5"/><stop offset="1" stop-color="#5ebdec"/></linearGradient><linearGradient id="Áåçûìÿííûé_ãðàäèåíò_5" x1="-6300.05" y1="1627.87" x2="-6374.19" y2="1547.47" gradientTransform="matrix(0.78, 0.45, -0.2, 1.04, 7018.37, 1379.96)" gradientUnits="userSpaceOnUse"><stop offset="0.77" stop-color="#5ebdec"/><stop offset="0.85" stop-color="#59b8e9"/><stop offset="0.93" stop-color="#4cabe0"/><stop offset="1" stop-color="#3c9bd5"/></linearGradient><linearGradient id="Áåçûìÿííûé_ãðàäèåíò_5-2" x1="299.71" y1="1636.62" x2="219.95" y2="1550.12" gradientTransform="matrix(-0.78, -0.45, -0.2, 1.04, 2167.24, -1422.17)" xlink:href="#Áåçûìÿííûé_ãðàäèåíò_5"/><linearGradient id="Áåçûìÿííûé_ãðàäèåíò_24" x1="-6404.06" y1="1680.39" x2="-6404.06" y2="1559.36" gradientTransform="matrix(0.78, 0.45, -0.2, 1.04, 7018.37, 1379.96)" gradientUnits="userSpaceOnUse"><stop offset="0.77" stop-color="#3c9bd5"/><stop offset="0.84" stop-color="#3996d2"/><stop offset="0.92" stop-color="#3289c9"/><stop offset="1" stop-color="#2673ba"/></linearGradient><linearGradient id="Áåçûìÿííûé_ãðàäèåíò_17-2" x1="-6449.16" y1="1498.13" x2="-6324.12" y2="1564.41" xlink:href="#Áåçûìÿííûé_ãðàäèåíò_17"/><linearGradient id="Áåçûìÿííûé_ãðàäèåíò_17-3" x1="-2849.15" y1="7.49" x2="-2468.4" y2="7.49" gradientTransform="matrix(-0.78, 0.45, 0.2, 1.04, -603.25, 1379.96)" xlink:href="#Áåçûìÿííûé_ãðàäèåíò_17"/><linearGradient id="Áåçûìÿííûé_ãðàäèåíò_5-3" x1="-2398.63" y1="186.18" x2="-2585.94" y2="-16.94" gradientTransform="matrix(-0.78, 0.45, 0.2, 1.04, -603.25, 1379.96)" xlink:href="#Áåçûìÿííûé_ãðàäèåíò_5"/><linearGradient id="Áåçûìÿííûé_ãðàäèåíò_5-4" x1="-3279.46" y1="208.08" x2="-3480.97" y2="-10.44" gradientTransform="matrix(0.78, -0.45, 0.2, 1.04, 4247.89, -1422.17)" xlink:href="#Áåçûìÿííûé_ãðàäèåíò_5"/><linearGradient id="Áåçûìÿííûé_ãðàäèåíò_24-2" x1="-2661.4" y1="318.85" x2="-2661.4" y2="13.11" gradientTransform="matrix(-0.78, 0.45, 0.2, 1.04, -603.25, 1379.96)" xlink:href="#Áåçûìÿííûé_ãðàäèåíò_24"/><linearGradient id="Áåçûìÿííûé_ãðàäèåíò_17-4" x1="-2775.32" y1="-141.57" x2="-2459.44" y2="25.86" gradientTransform="matrix(-0.78, 0.45, 0.2, 1.04, -603.25, 1379.96)" xlink:href="#Áåçûìÿííûé_ãðàäèåíò_17"/></defs><g class="cls-2"><g id="Layer_1" data-name="Layer 1"><rect class="cls-3" y="-0.31" width="2000" height="399.38"/><path class="cls-4" d="M1367,223.38l6.12-3.13,6.09,3.12-6.12,3.13Z"/><path class="cls-4" d="M1380,230l6.12-3.13,6.09,3.12-6.11,3.14Z"/><path class="cls-4" d="M1393,236.71l6.11-3.14,6.09,3.13-6.11,3.13Z"/><path class="cls-4" d="M1406,243.37l6.11-3.13,6.1,3.12-6.12,3.13Z"/><path class="cls-4" d="M1419,250l6.12-3.13,6.09,3.12-6.12,3.14Z"/><g class="cls-5"><g class="cls-6"><rect class="cls-4" x="1319.83" y="332.03" width="350.24" height="45.72"/><ellipse class="cls-4" cx="1494.54" cy="355.85" rx="156.8" ry="18.68" transform="translate(-1.76 7.46) rotate(-0.29)"/><ellipse class="cls-4" cx="1494" cy="355.85" rx="156.18" ry="18.61" transform="translate(-1.76 7.46) rotate(-0.29)"/><ellipse class="cls-4" cx="1493.46" cy="355.86" rx="155.57" ry="18.54" transform="translate(-1.76 7.45) rotate(-0.29)"/><ellipse class="cls-4" cx="1492.93" cy="355.86" rx="154.95" ry="18.46" transform="translate(-1.76 7.45) rotate(-0.29)"/><ellipse class="cls-4" cx="1492.39" cy="355.86" rx="154.34" ry="18.39" transform="translate(-1.76 7.45) rotate(-0.29)"/><ellipse class="cls-4" cx="1491.85" cy="355.86" rx="153.72" ry="18.32" transform="translate(-1.76 7.45) rotate(-0.29)"/><ellipse class="cls-4" cx="1491.32" cy="355.87" rx="153.11" ry="18.24" transform="translate(-1.76 7.44) rotate(-0.29)"/><ellipse class="cls-4" cx="1490.78" cy="355.87" rx="152.49" ry="18.17" transform="translate(-1.76 7.44) rotate(-0.29)"/><ellipse class="cls-4" cx="1490.24" cy="355.87" rx="151.88" ry="18.1" transform="translate(-1.76 7.44) rotate(-0.29)"/><ellipse class="cls-4" cx="1489.71" cy="355.87" rx="151.26" ry="18.02" transform="translate(-1.76 7.43) rotate(-0.29)"/><ellipse class="cls-7" cx="1489.17" cy="355.88" rx="150.65" ry="17.95" transform="translate(-1.76 7.43) rotate(-0.29)"/><ellipse class="cls-7" cx="1488.63" cy="355.88" rx="150.03" ry="17.88" transform="translate(-1.76 7.43) rotate(-0.29)"/><ellipse class="cls-7" cx="1488.09" cy="355.88" rx="149.42" ry="17.8" transform="translate(-1.76 7.43) rotate(-0.29)"/><ellipse class="cls-7" cx="1487.56" cy="355.88" rx="148.8" ry="17.73" transform="translate(-1.76 7.42) rotate(-0.29)"/><ellipse class="cls-8" cx="1487.02" cy="355.89" rx="148.19" ry="17.66" transform="translate(-1.76 7.42) rotate(-0.29)"/><ellipse class="cls-8" cx="1486.48" cy="355.89" rx="147.57" ry="17.58" transform="translate(-1.76 7.42) rotate(-0.29)"/><ellipse class="cls-8" cx="1485.95" cy="355.89" rx="146.96" ry="17.51" transform="translate(-1.76 7.42) rotate(-0.29)"/><ellipse class="cls-9" cx="1485.41" cy="355.89" rx="146.34" ry="17.44" transform="translate(-1.76 7.41) rotate(-0.29)"/><path class="cls-9" d="M1630.6,355.17c.06,9.58-65.13,17.69-145.62,18.09s-145.77-7.05-145.83-16.64,65.13-17.69,145.61-18.09S1630.54,345.58,1630.6,355.17Z"/><ellipse class="cls-10" cx="1484.34" cy="355.9" rx="145.11" ry="17.29" transform="translate(-1.76 7.41) rotate(-0.29)"/><ellipse class="cls-11" cx="1483.8" cy="355.9" rx="144.5" ry="17.22" transform="translate(-1.76 7.4) rotate(-0.29)"/><ellipse class="cls-12" cx="1483.26" cy="355.9" rx="143.88" ry="17.14" transform="translate(-1.76 7.4) rotate(-0.29)"/><ellipse class="cls-12" cx="1482.73" cy="355.9" rx="143.27" ry="17.07" transform="translate(-1.76 7.4) rotate(-0.29)"/><ellipse class="cls-13" cx="1482.19" cy="355.91" rx="142.65" ry="17" transform="translate(-1.76 7.4) rotate(-0.29)"/><ellipse class="cls-14" cx="1481.65" cy="355.91" rx="142.04" ry="16.92" transform="translate(-1.76 7.39) rotate(-0.29)"/><ellipse class="cls-15" cx="1481.11" cy="355.91" rx="141.42" ry="16.85" transform="translate(-1.76 7.39) rotate(-0.29)"/><ellipse class="cls-15" cx="1480.58" cy="355.91" rx="140.81" ry="16.78" transform="translate(-1.76 7.39) rotate(-0.29)"/><ellipse class="cls-16" cx="1480.04" cy="355.92" rx="140.19" ry="16.7" transform="translate(-1.76 7.39) rotate(-0.29)"/><path class="cls-17" d="M1619.08,355.22c.06,9.19-62.38,16.94-139.47,17.33S1340,365.8,1339.93,356.62s62.38-16.95,139.47-17.33S1619,346,1619.08,355.22Z"/><ellipse class="cls-17" cx="1478.97" cy="355.92" rx="138.96" ry="16.56" transform="translate(-1.76 7.38) rotate(-0.29)"/><ellipse class="cls-18" cx="1478.43" cy="355.92" rx="138.35" ry="16.48" transform="translate(-1.76 7.38) rotate(-0.29)"/><path class="cls-19" d="M1615.63,355.24c0,9.06-61.56,16.72-137.63,17.1s-137.78-6.66-137.84-15.72,61.56-16.72,137.63-17.1S1615.57,346.17,1615.63,355.24Z"/><ellipse class="cls-20" cx="1477.36" cy="355.93" rx="137.12" ry="16.34" transform="translate(-1.76 7.37) rotate(-0.29)"/><ellipse class="cls-20" cx="1476.82" cy="355.93" rx="136.51" ry="16.26" transform="translate(-1.76 7.37) rotate(-0.29)"/><ellipse class="cls-21" cx="1476.28" cy="355.93" rx="135.89" ry="16.19" transform="translate(-1.76 7.37) rotate(-0.29)"/><ellipse class="cls-21" cx="1475.75" cy="355.94" rx="135.28" ry="16.12" transform="translate(-1.76 7.36) rotate(-0.29)"/><ellipse class="cls-22" cx="1475.21" cy="355.94" rx="134.66" ry="16.04" transform="translate(-1.76 7.36) rotate(-0.29)"/><ellipse class="cls-22" cx="1474.67" cy="355.94" rx="134.05" ry="15.97" transform="translate(-1.76 7.36) rotate(-0.29)"/><ellipse class="cls-23" cx="1474.14" cy="355.94" rx="133.43" ry="15.9" transform="translate(-1.76 7.36) rotate(-0.29)"/><ellipse class="cls-23" cx="1473.6" cy="355.95" rx="132.82" ry="15.83" transform="translate(-1.76 7.35) rotate(-0.29)"/><path class="cls-24" d="M1605.26,355.29c.06,8.7-59.09,16-132.1,16.41s-132.24-6.39-132.3-15.09S1400,340.56,1473,340.2,1605.21,346.59,1605.26,355.29Z"/><ellipse class="cls-25" cx="1472.52" cy="355.95" rx="131.59" ry="15.68" transform="translate(-1.76 7.35) rotate(-0.29)"/><ellipse class="cls-25" cx="1471.99" cy="355.95" rx="130.97" ry="15.61" transform="translate(-1.76 7.35) rotate(-0.29)"/><path class="cls-25" d="M1601.81,355.3c0,8.58-58.27,15.83-130.26,16.19s-130.4-6.3-130.45-14.88,58.26-15.83,130.25-16.19S1601.75,346.73,1601.81,355.3Z"/><path class="cls-26" d="M1600.65,355.31c.06,8.54-58,15.75-129.64,16.11s-129.78-6.27-129.84-14.81,58-15.75,129.65-16.11S1600.6,346.77,1600.65,355.31Z"/><path class="cls-27" d="M1599.5,355.31c.06,8.5-57.71,15.68-129,16s-129.16-6.25-129.22-14.74,57.72-15.68,129-16S1599.45,346.82,1599.5,355.31Z"/><path class="cls-27" d="M1598.35,355.32c.05,8.46-57.44,15.6-128.41,15.95s-128.56-6.21-128.61-14.66,57.44-15.6,128.41-16S1598.3,346.86,1598.35,355.32Z"/><ellipse class="cls-28" cx="1469.3" cy="355.97" rx="127.9" ry="15.24" transform="translate(-1.76 7.33) rotate(-0.29)"/><path class="cls-28" d="M1596.05,355.33c0,8.38-56.89,15.45-127.19,15.8s-127.32-6.15-127.37-14.52,56.88-15.46,127.18-15.81S1596,347,1596.05,355.33Z"/><ellipse class="cls-29" cx="1468.23" cy="355.97" rx="126.67" ry="15.09" transform="translate(-1.76 7.33) rotate(-0.29)"/><ellipse class="cls-30" cx="1467.69" cy="355.97" rx="126.05" ry="15.02" transform="translate(-1.76 7.32) rotate(-0.29)"/><path class="cls-30" d="M1592.59,355.35c.05,8.25-56.06,15.22-125.34,15.57s-125.48-6.06-125.53-14.32,56.06-15.22,125.34-15.57S1592.54,347.09,1592.59,355.35Z"/><path class="cls-31" d="M1591.44,355.35c0,8.22-55.79,15.15-124.73,15.5s-124.86-6-124.91-14.25,55.79-15.15,124.72-15.49S1591.39,347.14,1591.44,355.35Z"/><ellipse class="cls-31" cx="1466.08" cy="355.98" rx="124.21" ry="14.8" transform="translate(-1.76 7.32) rotate(-0.29)"/><ellipse class="cls-32" cx="1465.54" cy="355.98" rx="123.59" ry="14.73" transform="translate(-1.76 7.31) rotate(-0.29)"/><path class="cls-33" d="M1588,355.37c.06,8.09-55,14.93-122.88,15.27s-123-5.95-123.07-14,55-14.93,122.88-15.27S1587.93,347.28,1588,355.37Z"/><path class="cls-33" d="M1586.83,355.37c.05,8.06-54.69,14.86-122.27,15.2s-122.4-5.92-122.45-14,54.69-14.85,122.27-15.19S1586.78,347.32,1586.83,355.37Z"/><ellipse class="cls-34" cx="1463.93" cy="355.99" rx="121.75" ry="14.51" transform="translate(-1.76 7.3) rotate(-0.29)"/><ellipse class="cls-35" cx="1463.4" cy="355.99" rx="121.13" ry="14.43" transform="translate(-1.76 7.3) rotate(-0.29)"/><ellipse class="cls-36" cx="1462.86" cy="355.99" rx="120.52" ry="14.36" transform="translate(-1.76 7.3) rotate(-0.29)"/><ellipse class="cls-37" cx="1462.32" cy="356" rx="119.9" ry="14.29" transform="translate(-1.76 7.3) rotate(-0.29)"/><ellipse class="cls-38" cx="1461.79" cy="356" rx="119.29" ry="14.21" transform="matrix(1, 0, 0, 1, -1.76, 7.29)"/><ellipse class="cls-39" cx="1461.25" cy="356" rx="118.67" ry="14.14" transform="translate(-1.76 7.29) rotate(-0.29)"/><path class="cls-40" d="M1578.77,355.41c0,7.77-52.77,14.33-118,14.66s-118.09-5.71-118.14-13.47,52.76-14.34,118-14.66S1578.72,347.64,1578.77,355.41Z"/><path class="cls-41" d="M1577.62,355.42c.05,7.73-52.49,14.26-117.36,14.58s-117.48-5.68-117.53-13.41,52.5-14.25,117.36-14.58S1577.57,347.69,1577.62,355.42Z"/><ellipse class="cls-42" cx="1459.64" cy="356.01" rx="116.83" ry="13.92" transform="translate(-1.76 7.28) rotate(-0.29)"/><path class="cls-43" d="M1575.31,355.43c0,7.65-51.94,14.11-116.12,14.43s-116.25-5.62-116.3-13.27,51.94-14.1,116.12-14.43S1575.27,347.78,1575.31,355.43Z"/><path class="cls-43" d="M1574.16,355.44c0,7.6-51.66,14-115.51,14.35S1343,364.2,1343,356.59s51.66-14,115.51-14.35S1574.11,347.83,1574.16,355.44Z"/><path class="cls-44" d="M1573,355.44c0,7.57-51.39,14-114.89,14.28s-115-5.56-115.07-13.13,51.39-14,114.89-14.27S1573,347.87,1573,355.44Z"/><path class="cls-45" d="M1571.86,355.45c.05,7.52-51.12,13.88-114.28,14.2s-114.41-5.53-114.46-13.06,51.12-13.88,114.28-14.2S1571.81,347.92,1571.86,355.45Z"/><ellipse class="cls-46" cx="1456.95" cy="356.02" rx="113.75" ry="13.55" transform="translate(-1.76 7.27) rotate(-0.29)"/><ellipse class="cls-47" cx="1456.42" cy="356.02" rx="113.14" ry="13.48" transform="translate(-1.76 7.27) rotate(-0.29)"/><path class="cls-48" d="M1568.4,355.46c0,7.41-50.29,13.66-112.43,14S1343.4,364,1343.36,356.59s50.29-13.66,112.44-14S1568.36,348.06,1568.4,355.46Z"/><ellipse class="cls-49" cx="1455.34" cy="356.03" rx="111.91" ry="13.33" transform="translate(-1.76 7.26) rotate(-0.29)"/><ellipse class="cls-50" cx="1454.81" cy="356.03" rx="111.29" ry="13.26" transform="translate(-1.76 7.26) rotate(-0.29)"/><path class="cls-51" d="M1565,355.48c0,7.28-49.47,13.43-110.6,13.74s-110.71-5.35-110.76-12.63,49.47-13.44,110.6-13.74S1564.9,348.2,1565,355.48Z"/><path class="cls-52" d="M1563.8,355.48c0,7.25-49.2,13.37-110,13.67s-110.1-5.32-110.15-12.56,49.19-13.36,110-13.67S1563.75,348.24,1563.8,355.48Z"/><ellipse class="cls-53" cx="1453.2" cy="356.04" rx="109.45" ry="13.04" transform="translate(-1.76 7.25) rotate(-0.29)"/><ellipse class="cls-54" cx="1452.66" cy="356.04" rx="108.84" ry="12.97" transform="translate(-1.76 7.25) rotate(-0.29)"/><path class="cls-55" d="M1560.34,355.5c.05,7.12-48.37,13.14-108.14,13.44s-108.25-5.23-108.3-12.36,48.37-13.13,108.14-13.43S1560.3,348.38,1560.34,355.5Z"/><path class="cls-56" d="M1559.19,355.51c0,7.08-48.09,13.06-107.52,13.36S1344,363.67,1344,356.58s48.1-13.06,107.52-13.36S1559.14,348.43,1559.19,355.51Z"/><ellipse class="cls-57" cx="1451.05" cy="356.05" rx="106.99" ry="12.75" transform="translate(-1.76 7.24) rotate(-0.29)"/><path class="cls-58" d="M1556.89,355.52c0,7-47.55,12.91-106.3,13.2s-106.41-5.14-106.45-12.14,47.54-12.91,106.29-13.2S1556.84,348.52,1556.89,355.52Z"/><path class="cls-58" d="M1555.73,355.52c0,7-47.27,12.84-105.68,13.13s-105.79-5.11-105.83-12.07,47.27-12.84,105.67-13.13S1555.69,348.56,1555.73,355.52Z"/><ellipse class="cls-59" cx="1449.44" cy="356.06" rx="105.15" ry="12.53" transform="translate(-1.76 7.23) rotate(-0.29)"/><ellipse class="cls-60" cx="1448.9" cy="356.06" rx="104.53" ry="12.45" transform="translate(-1.76 7.23) rotate(-0.29)"/><ellipse class="cls-61" cx="1448.36" cy="356.06" rx="103.92" ry="12.38" transform="translate(-1.76 7.23) rotate(-0.29)"/><ellipse class="cls-62" cx="1447.83" cy="356.06" rx="103.3" ry="12.31" transform="translate(-1.76 7.23) rotate(-0.29)"/><path class="cls-63" d="M1550,355.55c0,6.76-45.9,12.47-102.61,12.75s-102.72-5-102.76-11.72,45.89-12.47,102.6-12.75S1549.93,348.79,1550,355.55Z"/><ellipse class="cls-64" cx="1446.75" cy="356.07" rx="102.07" ry="12.16" transform="translate(-1.76 7.22) rotate(-0.29)"/><path class="cls-64" d="M1547.67,355.56c0,6.68-45.34,12.32-101.38,12.6s-101.49-4.91-101.53-11.58,45.35-12.32,101.38-12.6S1547.63,348.89,1547.67,355.56Z"/><ellipse class="cls-65" cx="1445.68" cy="356.07" rx="100.84" ry="12.02" transform="translate(-1.76 7.21) rotate(-0.29)"/><ellipse class="cls-66" cx="1445.14" cy="356.07" rx="100.23" ry="11.94" transform="translate(-1.76 7.21) rotate(-0.29)"/><ellipse class="cls-67" cx="1444.61" cy="356.08" rx="99.61" ry="11.87" transform="translate(-1.76 7.21) rotate(-0.29)"/><ellipse class="cls-68" cx="1444.07" cy="356.08" rx="99" ry="11.8" transform="matrix(1, 0, 0, 1, -1.76, 7.21)"/><path class="cls-69" d="M1541.91,355.59c0,6.47-44,11.94-98.3,12.21s-98.42-4.75-98.46-11.23,44-11.94,98.31-12.21S1541.87,349.12,1541.91,355.59Z"/><path class="cls-70" d="M1540.76,355.59c0,6.44-43.7,11.87-97.69,12.14s-97.8-4.72-97.84-11.16,43.7-11.86,97.69-12.13S1540.72,349.16,1540.76,355.59Z"/><ellipse class="cls-71" cx="1442.46" cy="356.09" rx="97.15" ry="11.58" transform="matrix(1, 0, 0, 1, -1.76, 7.2)"/><ellipse class="cls-72" cx="1441.92" cy="356.09" rx="96.54" ry="11.5" transform="translate(-1.76 7.2) rotate(-0.29)"/><path class="cls-72" d="M1537.31,355.61c0,6.31-42.88,11.65-95.85,11.91s-96-4.64-96-10.95,42.88-11.64,95.85-11.91S1537.27,349.3,1537.31,355.61Z"/><path class="cls-73" d="M1536.15,355.62c0,6.27-42.59,11.57-95.23,11.83s-95.34-4.61-95.38-10.88,42.6-11.57,95.24-11.83S1536.11,349.35,1536.15,355.62Z"/><ellipse class="cls-74" cx="1440.31" cy="356.1" rx="94.69" ry="11.28" transform="translate(-1.76 7.19) rotate(-0.29)"/><path class="cls-75" d="M1533.85,355.63c0,6.19-42,11.42-94,11.68s-94.1-4.55-94.14-10.74,42-11.42,94-11.68S1533.81,349.44,1533.85,355.63Z"/><path class="cls-76" d="M1532.7,355.63c0,6.15-41.77,11.35-93.39,11.61s-93.5-4.52-93.53-10.67,41.77-11.35,93.39-11.6S1532.66,349.48,1532.7,355.63Z"/><ellipse class="cls-77" cx="1438.7" cy="356.1" rx="92.85" ry="11.06" transform="translate(-1.76 7.18) rotate(-0.29)"/><ellipse class="cls-78" cx="1438.16" cy="356.11" rx="92.23" ry="10.99" transform="translate(-1.76 7.18) rotate(-0.29)"/><path class="cls-79" d="M1529.24,355.65c0,6-41,11.12-91.54,11.37s-91.65-4.42-91.69-10.45,41-11.12,91.55-11.38S1529.21,349.62,1529.24,355.65Z"/><ellipse class="cls-80" cx="1437.09" cy="356.11" rx="91" ry="10.84" transform="translate(-1.76 7.17) rotate(-0.29)"/><path class="cls-81" d="M1526.94,355.66c0,5.95-40.4,11-90.32,11.22s-90.42-4.37-90.46-10.31,40.4-11,90.32-11.23S1526.9,349.71,1526.94,355.66Z"/><ellipse class="cls-82" cx="1436.02" cy="356.12" rx="89.77" ry="10.7" transform="translate(-1.76 7.17) rotate(-0.29)"/><path class="cls-83" d="M1524.64,355.67c0,5.87-39.85,10.82-89.09,11.07s-89.19-4.31-89.23-10.18,39.85-10.82,89.09-11.06S1524.6,349.8,1524.64,355.67Z"/><path class="cls-84" d="M1523.48,355.68c0,5.82-39.57,10.75-88.47,11s-88.57-4.28-88.61-10.11,39.57-10.74,88.47-11S1523.45,349.85,1523.48,355.68Z"/><ellipse class="cls-85" cx="1434.4" cy="356.12" rx="87.93" ry="10.48" transform="translate(-1.76 7.16) rotate(-0.29)"/><ellipse class="cls-86" cx="1433.87" cy="356.13" rx="87.31" ry="10.4" transform="translate(-1.76 7.15) rotate(-0.29)"/><path class="cls-87" d="M1520,355.69c0,5.71-38.75,10.53-86.63,10.77s-86.73-4.19-86.77-9.9,38.75-10.52,86.64-10.76S1520,350,1520,355.69Z"/><path class="cls-88" d="M1518.88,355.7c0,5.66-38.48,10.45-86,10.69s-86.11-4.16-86.15-9.83,38.48-10.45,86-10.69S1518.84,350,1518.88,355.7Z"/><ellipse class="cls-89" cx="1432.26" cy="356.13" rx="85.47" ry="10.18" transform="translate(-1.76 7.15) rotate(-0.29)"/><path class="cls-90" d="M1516.57,355.71c0,5.58-37.92,10.3-84.79,10.54s-84.88-4.11-84.91-9.69,37.92-10.3,84.79-10.54S1516.54,350.13,1516.57,355.71Z"/><ellipse class="cls-91" cx="1431.18" cy="356.14" rx="84.24" ry="10.04" transform="matrix(1, 0, 0, 1, -1.76, 7.14)"/><path class="cls-92" d="M1514.27,355.72c0,5.5-37.38,10.15-83.56,10.38s-83.65-4-83.69-9.54,37.38-10.15,83.56-10.38S1514.24,350.22,1514.27,355.72Z"/><path class="cls-93" d="M1513.12,355.73c0,5.46-37.1,10.07-82.95,10.3s-83-4-83.07-9.47,37.1-10.08,83-10.31S1513.08,350.26,1513.12,355.73Z"/><path class="cls-94" d="M1512,355.73c0,5.42-36.83,10-82.33,10.23s-82.43-4-82.46-9.4,36.83-10,82.33-10.23S1511.93,350.31,1512,355.73Z"/><path class="cls-95" d="M1510.81,355.74c0,5.38-36.55,9.93-81.71,10.15s-81.81-3.95-81.84-9.33,36.55-9.93,81.71-10.16S1510.78,350.36,1510.81,355.74Z"/><path class="cls-96" d="M1509.66,355.74c0,5.34-36.27,9.86-81.1,10.08s-81.19-3.92-81.23-9.26,36.28-9.86,81.11-10.08S1509.63,350.4,1509.66,355.74Z"/><path class="cls-97" d="M1508.51,355.75c0,5.3-36,9.78-80.49,10s-80.57-3.89-80.61-9.19,36-9.78,80.49-10S1508.48,350.45,1508.51,355.75Z"/><ellipse class="cls-98" cx="1427.43" cy="356.15" rx="79.94" ry="9.52" transform="translate(-1.76 7.12) rotate(-0.29)"/><path class="cls-99" d="M1506.21,355.76c0,5.22-35.45,9.63-79.26,9.85s-79.35-3.84-79.38-9.06,35.45-9.62,79.26-9.84S1506.17,350.54,1506.21,355.76Z"/><path class="cls-100" d="M1505.06,355.77c0,5.17-35.18,9.55-78.65,9.77s-78.73-3.81-78.76-9,35.17-9.55,78.64-9.77S1505,350.59,1505.06,355.77Z"/><path class="cls-101" d="M1503.9,355.77c0,5.14-34.9,9.48-78,9.7s-78.11-3.78-78.15-8.92,34.91-9.48,78-9.69S1503.87,350.63,1503.9,355.77Z"/><ellipse class="cls-102" cx="1425.28" cy="356.16" rx="77.48" ry="9.23" transform="translate(-1.76 7.11) rotate(-0.29)"/><path class="cls-103" d="M1501.6,355.78c0,5.06-34.35,9.33-76.8,9.54s-76.89-3.71-76.92-8.77,34.35-9.33,76.8-9.54S1501.57,350.72,1501.6,355.78Z"/><path class="cls-104" d="M1500.45,355.79c0,5-34.08,9.25-76.19,9.46s-76.27-3.68-76.3-8.7,34.08-9.25,76.19-9.47S1500.42,350.77,1500.45,355.79Z"/><path class="cls-105" d="M1499.3,355.79c0,5-33.81,9.18-75.58,9.39s-75.65-3.65-75.68-8.63,33.8-9.18,75.57-9.39S1499.27,350.82,1499.3,355.79Z"/><path class="cls-106" d="M1498.15,355.8c0,4.93-33.53,9.1-75,9.31s-75-3.62-75.08-8.56,33.53-9.11,75-9.31S1498.11,350.86,1498.15,355.8Z"/><path class="cls-107" d="M1497,355.8c0,4.9-33.25,9-74.34,9.24s-74.43-3.6-74.46-8.49,33.26-9,74.35-9.24S1497,350.91,1497,355.8Z"/><path class="cls-108" d="M1495.84,355.81c0,4.85-33,9-73.73,9.16s-73.81-3.57-73.84-8.42,33-9,73.73-9.16S1495.81,351,1495.84,355.81Z"/><ellipse class="cls-109" cx="1421.52" cy="356.18" rx="73.17" ry="8.72" transform="translate(-1.76 7.09) rotate(-0.29)"/><path class="cls-110" d="M1493.54,355.82c0,4.77-32.43,8.81-72.5,9s-72.58-3.51-72.61-8.28,32.43-8.81,72.5-9S1493.51,351.05,1493.54,355.82Z"/><path class="cls-111" d="M1492.39,355.83c0,4.73-32.16,8.73-71.89,8.93s-72-3.48-72-8.21,32.16-8.74,71.89-8.94S1492.36,351.09,1492.39,355.83Z"/><path class="cls-112" d="M1491.23,355.83c0,4.7-31.87,8.66-71.27,8.86s-71.35-3.45-71.38-8.14,31.88-8.66,71.27-8.86S1491.2,351.14,1491.23,355.83Z"/><path class="cls-113" d="M1490.08,355.84c0,4.65-31.6,8.58-70.65,8.78s-70.74-3.42-70.77-8.08,31.61-8.58,70.66-8.77S1490.05,351.18,1490.08,355.84Z"/><ellipse class="cls-114" cx="1418.83" cy="356.19" rx="70.1" ry="8.35" transform="translate(-1.76 7.08) rotate(-0.29)"/><path class="cls-115" d="M1487.78,355.85c0,4.57-31.06,8.43-69.43,8.62s-69.5-3.35-69.53-7.93,31-8.43,69.43-8.62S1487.75,351.28,1487.78,355.85Z"/><path class="cls-116" d="M1486.63,355.85c0,4.54-30.78,8.36-68.82,8.55s-68.89-3.33-68.92-7.86,30.78-8.36,68.82-8.55S1486.6,351.32,1486.63,355.85Z"/><path class="cls-117" d="M1485.48,355.86c0,4.49-30.51,8.28-68.2,8.47S1349,361,1349,356.54s30.51-8.28,68.2-8.47S1485.45,351.37,1485.48,355.86Z"/><ellipse class="cls-118" cx="1416.69" cy="356.2" rx="67.64" ry="8.06" transform="translate(-1.76 7.07) rotate(-0.29)"/><path class="cls-119" d="M1483.17,355.87c0,4.41-30,8.14-67,8.32s-67-3.24-67.07-7.65,29.95-8.13,67-8.32S1483.14,351.46,1483.17,355.87Z"/><path class="cls-120" d="M1482,355.88c0,4.37-29.68,8.06-66.36,8.24s-66.43-3.21-66.45-7.58,29.68-8.06,66.35-8.24S1482,351.51,1482,355.88Z"/><path class="cls-121" d="M1480.87,355.88c0,4.33-29.41,8-65.74,8.17s-65.82-3.18-65.85-7.51,29.41-8,65.75-8.17S1480.84,351.55,1480.87,355.88Z"/><path class="cls-122" d="M1479.72,355.89c0,4.29-29.13,7.91-65.13,8.09s-65.2-3.15-65.23-7.44,29.13-7.91,65.13-8.09S1479.69,351.6,1479.72,355.89Z"/><path class="cls-123" d="M1478.57,355.89c0,4.25-28.86,7.84-64.52,8s-64.58-3.12-64.61-7.37,28.86-7.84,64.51-8S1478.54,351.64,1478.57,355.89Z"/><path class="cls-124" d="M1477.41,355.9c0,4.21-28.58,7.76-63.9,7.94s-64-3.09-64-7.3,28.58-7.76,63.9-7.94S1477.39,351.69,1477.41,355.9Z"/><path class="cls-125" d="M1476.26,355.9c0,4.17-28.31,7.69-63.28,7.87s-63.36-3.07-63.38-7.23,28.3-7.69,63.28-7.87S1476.24,351.74,1476.26,355.9Z"/><path class="cls-126" d="M1475.11,355.91c0,4.13-28,7.61-62.67,7.79s-62.74-3-62.77-7.16,28-7.62,62.67-7.79S1475.08,351.78,1475.11,355.91Z"/><path class="cls-127" d="M1474,355.91c0,4.09-27.76,7.54-62.06,7.71s-62.12-3-62.15-7.08,27.76-7.54,62.06-7.71S1473.93,351.83,1474,355.91Z"/><path class="cls-128" d="M1472.81,355.92c0,4.05-27.49,7.46-61.45,7.63s-61.5-3-61.53-7,27.48-7.47,61.44-7.64S1472.78,351.87,1472.81,355.92Z"/><ellipse class="cls-129" cx="1410.78" cy="356.23" rx="60.87" ry="7.25" transform="matrix(1, 0, 0, 1, -1.76, 7.04)"/><path class="cls-130" d="M1470.5,355.93c0,4-26.93,7.32-60.21,7.48s-60.28-2.91-60.3-6.88,26.93-7.31,60.21-7.48S1470.48,352,1470.5,355.93Z"/><ellipse class="cls-131" cx="1409.71" cy="356.23" rx="59.64" ry="7.11" transform="translate(-1.76 7.04) rotate(-0.29)"/><path class="cls-132" d="M1468.2,355.94c0,3.89-26.38,7.17-59,7.33s-59-2.85-59.08-6.74,26.39-7.16,59-7.33S1468.17,352.06,1468.2,355.94Z"/><path class="cls-133" d="M1467.05,356c0,3.84-26.11,7.09-58.37,7.25s-58.44-2.82-58.46-6.67,26.11-7.09,58.37-7.25S1467,352.1,1467.05,356Z"/><path class="cls-134" d="M1465.9,356c0,3.81-25.84,7-57.76,7.18s-57.82-2.8-57.84-6.6,25.83-7,57.75-7.17S1465.87,352.15,1465.9,356Z"/><path class="cls-135" d="M1464.74,356c0,3.76-25.55,6.94-57.14,7.1s-57.2-2.77-57.22-6.53,25.55-6.94,57.14-7.1S1464.72,352.2,1464.74,356Z"/><path class="cls-136" d="M1463.59,356c0,3.73-25.28,6.87-56.52,7s-56.59-2.74-56.62-6.46,25.29-6.87,56.53-7S1463.57,352.24,1463.59,356Z"/><path class="cls-137" d="M1462.44,356c0,3.68-25,6.79-55.91,6.95s-56-2.71-56-6.39,25-6.79,55.91-6.95S1462.42,352.29,1462.44,356Z"/><path class="cls-138" d="M1461.29,356c0,3.65-24.74,6.72-55.3,6.88s-55.36-2.68-55.38-6.32,24.73-6.72,55.3-6.87S1461.27,352.33,1461.29,356Z"/><path class="cls-139" d="M1460.14,356c0,3.6-24.46,6.64-54.69,6.79s-54.74-2.64-54.76-6.24,24.46-6.65,54.68-6.8S1460.11,352.38,1460.14,356Z"/><path class="cls-140" d="M1459,356c0,3.56-24.18,6.56-54.06,6.71s-54.13-2.61-54.15-6.17,24.18-6.57,54.06-6.72S1459,352.42,1459,356Z"/><path class="cls-141" d="M1457.83,356c0,3.52-23.91,6.49-53.45,6.64s-53.51-2.58-53.54-6.1,23.91-6.5,53.46-6.65S1457.81,352.47,1457.83,356Z"/><ellipse class="cls-142" cx="1403.8" cy="356.26" rx="52.88" ry="6.3" transform="translate(-1.76 7.01) rotate(-0.29)"/><path class="cls-143" d="M1455.53,356c0,3.44-23.36,6.35-52.23,6.49s-52.28-2.53-52.3-6,23.36-6.35,52.23-6.49S1455.51,352.56,1455.53,356Z"/><path class="cls-144" d="M1454.38,356c0,3.4-23.09,6.27-51.61,6.41s-51.67-2.5-51.69-5.9,23.08-6.27,51.61-6.41S1454.36,352.61,1454.38,356Z"/><ellipse class="cls-145" cx="1402.19" cy="356.27" rx="51.04" ry="6.08" transform="translate(-1.76 7) rotate(-0.29)"/><path class="cls-146" d="M1452.07,356c0,3.32-22.53,6.12-50.38,6.26s-50.44-2.44-50.46-5.76,22.54-6.12,50.39-6.26S1452.05,352.7,1452.07,356Z"/><path class="cls-147" d="M1450.92,356c0,3.28-22.26,6.05-49.77,6.19s-49.82-2.41-49.84-5.69,22.26-6,49.77-6.18S1450.9,352.75,1450.92,356Z"/><path class="cls-148" d="M1449.77,356c0,3.24-22,6-49.15,6.11s-49.21-2.38-49.23-5.62,22-6,49.15-6.11S1449.75,352.79,1449.77,356Z"/><path class="cls-149" d="M1448.62,356c0,3.2-21.71,5.9-48.54,6s-48.59-2.35-48.61-5.55,21.71-5.9,48.54-6S1448.6,352.84,1448.62,356Z"/><path class="cls-150" d="M1447.47,356c0,3.16-21.44,5.82-47.93,6s-48-2.32-48-5.48,21.43-5.82,47.92-5.95S1447.45,352.88,1447.47,356Z"/><ellipse class="cls-151" cx="1398.97" cy="356.28" rx="47.35" ry="5.64" transform="translate(-1.76 6.98) rotate(-0.29)"/><path class="cls-152" d="M1445.16,356.05c0,3.08-20.88,5.67-46.69,5.8s-46.75-2.26-46.77-5.33,20.89-5.67,46.7-5.8S1445.14,353,1445.16,356.05Z"/><path class="cls-153" d="M1444,356.06c0,3-20.61,5.6-46.08,5.72s-46.13-2.23-46.15-5.26,20.61-5.6,46.08-5.73S1444,353,1444,356.06Z"/><path class="cls-154" d="M1442.86,356.06c0,3-20.34,5.53-45.47,5.65s-45.51-2.2-45.53-5.19,20.33-5.53,45.46-5.65S1442.84,353.07,1442.86,356.06Z"/><path class="cls-155" d="M1441.71,356.07c0,2.95-20.06,5.45-44.85,5.57s-44.91-2.17-44.92-5.12,20.06-5.45,44.85-5.58S1441.69,353.11,1441.71,356.07Z"/><path class="cls-156" d="M1440.56,356.07c0,2.92-19.79,5.38-44.24,5.5s-44.29-2.14-44.31-5.05,19.79-5.38,44.24-5.5S1440.54,353.16,1440.56,356.07Z"/><path class="cls-157" d="M1439.4,356.08c0,2.87-19.51,5.3-43.62,5.42s-43.67-2.11-43.69-5,19.51-5.3,43.63-5.42S1439.39,353.21,1439.4,356.08Z"/><path class="cls-158" d="M1438.25,356.08c0,2.84-19.23,5.23-43,5.35s-43-2.08-43.07-4.91,19.24-5.23,43-5.35S1438.24,353.25,1438.25,356.08Z"/><path class="cls-159" d="M1437.1,356.09c0,2.79-19,5.15-42.39,5.27s-42.44-2.05-42.46-4.85,19-5.15,42.39-5.26S1437.08,353.3,1437.1,356.09Z"/><path class="cls-160" d="M1436,356.1c0,2.75-18.69,5.07-41.78,5.19s-41.83-2-41.84-4.78,18.68-5.07,41.78-5.19S1435.93,353.34,1436,356.1Z"/><path class="cls-161" d="M1434.8,356.1c0,2.71-18.42,5-41.17,5.12s-41.21-2-41.23-4.71,18.42-5,41.17-5.11S1434.78,353.39,1434.8,356.1Z"/><ellipse class="cls-162" cx="1393.06" cy="356.31" rx="40.58" ry="4.84" transform="translate(-1.76 6.95) rotate(-0.29)"/><path class="cls-163" d="M1432.49,356.11c0,2.63-17.86,4.85-39.93,5s-40-1.93-40-4.56,17.86-4.85,39.94-5S1432.48,353.48,1432.49,356.11Z"/><path class="cls-164" d="M1431.34,356.12c0,2.59-17.59,4.77-39.32,4.88s-39.37-1.9-39.38-4.49,17.59-4.78,39.32-4.88S1431.33,353.53,1431.34,356.12Z"/><path class="cls-165" d="M1430.19,356.12c0,2.55-17.31,4.71-38.71,4.81s-38.75-1.87-38.76-4.42,17.31-4.7,38.7-4.81S1430.17,353.57,1430.19,356.12Z"/><path class="cls-166" d="M1429,356.13c0,2.51-17,4.63-38.1,4.73s-38.13-1.84-38.15-4.35,17-4.63,38.1-4.73S1429,353.62,1429,356.13Z"/><path class="cls-167" d="M1427.89,356.13c0,2.47-16.77,4.56-37.48,4.66s-37.52-1.81-37.54-4.28,16.77-4.55,37.48-4.66S1427.87,353.67,1427.89,356.13Z"/><path class="cls-168" d="M1426.74,356.14c0,2.43-16.49,4.48-36.87,4.58s-36.91-1.78-36.92-4.21,16.49-4.48,36.86-4.58S1426.72,353.71,1426.74,356.14Z"/><ellipse class="cls-169" cx="1389.31" cy="356.33" rx="36.28" ry="4.32" transform="translate(-1.76 6.93) rotate(-0.29)"/><path class="cls-170" d="M1424.43,356.15c0,2.35-15.94,4.33-35.63,4.43s-35.68-1.73-35.69-4.07,15.94-4.33,35.63-4.43S1424.42,353.8,1424.43,356.15Z"/><path class="cls-171" d="M1423.28,356.16c0,2.3-15.67,4.25-35,4.35s-35.06-1.7-35.08-4,15.67-4.26,35-4.35S1423.27,353.85,1423.28,356.16Z"/><path class="cls-172" d="M1422.13,356.16c0,2.27-15.39,4.18-34.41,4.28s-34.44-1.67-34.46-3.93,15.39-4.18,34.41-4.28S1422.11,353.9,1422.13,356.16Z"/><path class="cls-173" d="M1421,356.17c0,2.22-15.12,4.1-33.8,4.2s-33.83-1.64-33.84-3.86,15.11-4.11,33.79-4.2S1421,353.94,1421,356.17Z"/><path class="cls-174" d="M1419.82,356.17c0,2.19-14.84,4-33.17,4.12s-33.22-1.6-33.23-3.79,14.84-4,33.18-4.12S1419.81,354,1419.82,356.17Z"/><path class="cls-175" d="M1418.67,356.18c0,2.14-14.56,3.95-32.56,4s-32.6-1.57-32.61-3.72,14.56-3.95,32.56-4S1418.66,354,1418.67,356.18Z"/><path class="cls-176" d="M1417.52,356.18c0,2.11-14.29,3.88-32,4s-32-1.54-32-3.65,14.29-3.88,32-4S1417.51,354.08,1417.52,356.18Z"/><path class="cls-177" d="M1416.37,356.19c0,2.06-14,3.81-31.34,3.89s-31.37-1.51-31.38-3.58,14-3.8,31.34-3.89S1416.36,354.13,1416.37,356.19Z"/><path class="cls-178" d="M1415.22,356.19c0,2-13.74,3.74-30.72,3.82s-30.76-1.48-30.77-3.51,13.74-3.73,30.72-3.81S1415.2,354.17,1415.22,356.19Z"/><path class="cls-179" d="M1414.07,356.2c0,2-13.47,3.66-30.11,3.74s-30.14-1.46-30.15-3.44,13.46-3.66,30.1-3.74S1414.05,354.22,1414.07,356.2Z"/><ellipse class="cls-180" cx="1383.4" cy="356.35" rx="29.51" ry="3.52" transform="translate(-1.76 6.9) rotate(-0.29)"/><path class="cls-181" d="M1411.76,356.21c0,1.9-12.91,3.51-28.88,3.59s-28.9-1.4-28.92-3.3,12.92-3.51,28.88-3.59S1411.75,354.31,1411.76,356.21Z"/><path class="cls-182" d="M1410.61,356.22c0,1.86-12.64,3.43-28.26,3.51s-28.3-1.37-28.31-3.23,12.64-3.43,28.26-3.51S1410.6,354.36,1410.61,356.22Z"/><path class="cls-183" d="M1409.46,356.22c0,1.82-12.37,3.36-27.65,3.44s-27.68-1.34-27.69-3.16,12.37-3.36,27.65-3.44S1409.45,354.4,1409.46,356.22Z"/><path class="cls-184" d="M1408.31,356.23c0,1.78-12.1,3.28-27,3.36s-27.06-1.31-27.07-3.09,12.09-3.29,27-3.36S1408.3,354.45,1408.31,356.23Z"/><path class="cls-185" d="M1407.15,356.23c0,1.74-11.81,3.21-26.42,3.29s-26.44-1.28-26.45-3,11.81-3.21,26.41-3.28S1407.14,354.49,1407.15,356.23Z"/><path class="cls-186" d="M1406,356.24c0,1.7-11.54,3.13-25.8,3.2s-25.84-1.24-25.85-2.94,11.55-3.14,25.81-3.21S1406,354.54,1406,356.24Z"/><path class="cls-187" d="M1404.85,356.24c0,1.66-11.27,3.06-25.19,3.13s-25.22-1.21-25.23-2.87,11.27-3.06,25.19-3.13S1404.84,354.59,1404.85,356.24Z"/><path class="cls-188" d="M1403.7,356.25c0,1.62-11,3-24.58,3.05s-24.6-1.19-24.61-2.8,11-3,24.58-3.06S1403.69,354.63,1403.7,356.25Z"/><ellipse class="cls-189" cx="1378.57" cy="356.38" rx="23.98" ry="2.86" transform="translate(-1.76 6.88) rotate(-0.29)"/><path class="cls-190" d="M1401.4,356.26c0,1.54-10.45,2.84-23.35,2.9s-23.38-1.13-23.38-2.67,10.44-2.83,23.34-2.9S1401.39,354.72,1401.4,356.26Z"/><ellipse class="cls-191" cx="1377.49" cy="356.38" rx="22.75" ry="2.71" transform="translate(-1.76 6.87) rotate(-0.29)"/><ellipse class="cls-192" cx="1376.96" cy="356.38" rx="22.14" ry="2.64" transform="translate(-1.76 6.87) rotate(-0.29)"/><path class="cls-193" d="M1397.94,356.28c0,1.41-9.62,2.61-21.5,2.67s-21.53-1-21.54-2.46,9.62-2.61,21.5-2.67S1397.93,354.86,1397.94,356.28Z"/><path class="cls-194" d="M1396.79,356.28c0,1.38-9.35,2.54-20.89,2.6s-20.91-1-20.92-2.39,9.34-2.54,20.89-2.59S1396.78,354.91,1396.79,356.28Z"/><path class="cls-195" d="M1395.64,356.29c0,1.33-9.07,2.46-20.28,2.52s-20.3-1-20.3-2.32,9.06-2.46,20.27-2.52S1395.63,355,1395.64,356.29Z"/><path class="cls-196" d="M1394.49,356.29c0,1.3-8.8,2.39-19.67,2.45s-19.68-.95-19.69-2.25,8.8-2.39,19.66-2.44S1394.48,355,1394.49,356.29Z"/><path class="cls-197" d="M1393.33,356.3c0,1.25-8.52,2.31-19,2.37s-19.07-.93-19.08-2.18,8.52-2.31,19-2.37S1393.33,355,1393.33,356.3Z"/><path class="cls-198" d="M1392.18,356.3c0,1.22-8.24,2.24-18.43,2.29s-18.45-.89-18.46-2.1,8.24-2.24,18.43-2.29S1392.17,355.09,1392.18,356.3Z"/><path class="cls-199" d="M1391,356.31c0,1.17-8,2.16-17.82,2.21s-17.84-.86-17.84-2,8-2.17,17.82-2.22S1391,355.14,1391,356.31Z"/><ellipse class="cls-200" cx="1372.66" cy="356.4" rx="17.22" ry="2.05" transform="translate(-1.76 6.85) rotate(-0.29)"/><path class="cls-201" d="M1388.73,356.32c0,1.09-7.42,2-16.59,2.06s-16.61-.8-16.62-1.89,7.42-2,16.59-2.06S1388.72,355.23,1388.73,356.32Z"/><path class="cls-202" d="M1387.57,356.33c0,1.05-7.14,1.94-16,2s-16-.77-16-1.82,7.15-1.94,16-2S1387.57,355.27,1387.57,356.33Z"/><path class="cls-203" d="M1386.42,356.33c0,1-6.87,1.87-15.36,1.91s-15.37-.74-15.38-1.75,6.87-1.87,15.36-1.91S1386.42,355.32,1386.42,356.33Z"/><path class="cls-204" d="M1385.27,356.34c0,1-6.59,1.79-14.74,1.83s-14.77-.71-14.77-1.68,6.59-1.8,14.74-1.84S1385.27,355.37,1385.27,356.34Z"/><path class="cls-205" d="M1384.12,356.34c0,.93-6.32,1.72-14.13,1.76s-14.15-.68-14.16-1.62,6.33-1.71,14.14-1.75S1384.11,355.41,1384.12,356.34Z"/><path class="cls-206" d="M1383,356.35c0,.89-6,1.64-13.52,1.68s-13.53-.66-13.54-1.55,6-1.64,13.52-1.68S1383,355.46,1383,356.35Z"/><path class="cls-207" d="M1381.82,356.35c0,.85-5.78,1.57-12.91,1.61s-12.91-.63-12.92-1.48,5.77-1.56,12.9-1.6S1381.81,355.5,1381.82,356.35Z"/><path class="cls-208" d="M1380.66,356.36c0,.81-5.49,1.49-12.28,1.53s-12.31-.6-12.31-1.41,5.5-1.49,12.29-1.52S1380.66,355.55,1380.66,356.36Z"/><path class="cls-209" d="M1379.51,356.37c0,.76-5.22,1.41-11.67,1.45s-11.69-.57-11.69-1.34,5.22-1.42,11.67-1.45S1379.51,355.6,1379.51,356.37Z"/><path class="cls-210" d="M1378.36,356.37c0,.73-4.95,1.34-11.06,1.37s-11.07-.53-11.08-1.26,5-1.34,11.06-1.37S1378.36,355.64,1378.36,356.37Z"/><path class="cls-211" d="M1377.21,356.38c0,.68-4.67,1.27-10.45,1.29s-10.45-.5-10.46-1.19,4.67-1.27,10.45-1.3S1377.2,355.69,1377.21,356.38Z"/><path class="cls-212" d="M1376.06,356.38c0,.65-4.4,1.2-9.83,1.22s-9.85-.47-9.85-1.12,4.4-1.19,9.83-1.22S1376.05,355.73,1376.06,356.38Z"/><path class="cls-213" d="M1374.91,356.39c0,.6-4.13,1.12-9.22,1.14s-9.23-.44-9.23-1,4.12-1.12,9.21-1.15S1374.9,355.78,1374.91,356.39Z"/><path class="cls-214" d="M1373.75,356.39c0,.57-3.84,1.05-8.6,1.07s-8.61-.41-8.61-1,3.84-1.05,8.6-1.07S1373.75,355.83,1373.75,356.39Z"/><path class="cls-215" d="M1372.6,356.4c0,.52-3.57,1-8,1s-8-.39-8-.91,3.58-1,8-1S1372.6,355.87,1372.6,356.4Z"/><path class="cls-216" d="M1371.45,356.4c0,.49-3.3.9-7.37.92s-7.38-.36-7.39-.84,3.3-.9,7.38-.92S1371.45,355.92,1371.45,356.4Z"/><path class="cls-217" d="M1370.3,356.41c0,.44-3,.82-6.76.84s-6.77-.33-6.77-.77,3-.82,6.76-.84S1370.3,356,1370.3,356.41Z"/><path class="cls-218" d="M1369.15,356.41c0,.41-2.75.75-6.15.77s-6.15-.3-6.15-.7,2.75-.75,6.14-.77S1369.14,356,1369.15,356.41Z"/><path class="cls-219" d="M1368,356.42c0,.36-2.47.67-5.53.69s-5.53-.27-5.53-.63,2.47-.68,5.53-.69S1368,356.06,1368,356.42Z"/><path class="cls-220" d="M1366.84,356.43c0,.32-2.2.59-4.91.61s-4.92-.24-4.93-.57,2.2-.59,4.92-.61S1366.84,356.1,1366.84,356.43Z"/><path class="cls-221" d="M1365.69,356.43c0,.28-1.92.52-4.3.54s-4.31-.21-4.31-.5,1.93-.52,4.3-.53S1365.69,356.15,1365.69,356.43Z"/><path class="cls-222" d="M1364.54,356.44c0,.24-1.65.44-3.69.45s-3.69-.17-3.69-.42,1.65-.44,3.69-.45S1364.54,356.19,1364.54,356.44Z"/><path class="cls-223" d="M1363.39,356.44c0,.2-1.38.38-3.07.38s-3.08-.14-3.08-.35,1.37-.37,3.07-.38S1363.39,356.24,1363.39,356.44Z"/><path class="cls-224" d="M1362.24,356.45a10.58,10.58,0,0,1-4.92,0,5.36,5.36,0,0,1,2.45-.3A5.48,5.48,0,0,1,1362.24,356.45Z"/><path class="cls-225" d="M1361.08,356.45a4,4,0,0,1-1.84.23,4.06,4.06,0,0,1-1.85-.21,4.19,4.19,0,0,1,1.85-.23A4.13,4.13,0,0,1,1361.08,356.45Z"/><path class="cls-226" d="M1359.93,356.46a2.69,2.69,0,0,1-1.23.15,2.77,2.77,0,0,1-1.23-.14,2.69,2.69,0,0,1,1.23-.15A2.62,2.62,0,0,1,1359.93,356.46Z"/><path class="cls-227" d="M1358.78,356.46a1.28,1.28,0,0,1-.61.08,1.42,1.42,0,0,1-.62-.07,1.49,1.49,0,0,1,.61-.08A1.42,1.42,0,0,1,1358.78,356.46Z"/></g></g><g class="cls-228"><polygon class="cls-229" points="1297.97 179.81 1277.73 169.72 1267.69 172.22 1287.94 182.31 1297.97 179.81"/><polygon class="cls-229" points="1293.12 123.75 1296.06 133.03 1316.3 143.12 1313.37 133.84 1293.12 123.75"/><polygon class="cls-229" points="1186.65 131.84 1206.89 141.93 1204.07 133.02 1183.83 122.93 1186.65 131.84"/><polygon class="cls-229" points="1299.69 144.5 1305.48 162.81 1290.66 166.5 1310.9 176.59 1325.73 172.89 1319.93 154.59 1299.69 144.5"/><polygon class="cls-229" points="1200.44 121.55 1196.28 108.39 1263.67 91.59 1243.42 81.5 1176.03 98.3 1180.2 111.46 1200.44 121.55"/><polygon class="cls-229" points="1248.05 177.12 1220.22 184.06 1212.41 159.36 1192.16 149.27 1208.86 202.03 1268.3 187.21 1248.05 177.12"/><polygon class="cls-229" points="1256.35 78.28 1276.6 88.37 1282.92 91.52 1303.17 101.61 1292.9 69.17 1256.35 78.28"/><polygon class="cls-229" points="1286.55 103 1289.49 112.28 1309.74 122.36 1306.8 113.08 1286.55 103"/></g><path class="cls-4" d="M1378.66,180.77H1339.5l14.08-12.5h39.17Zm-31.93-2.66h30.7l8.09-7.18h-30.7Z"/><path class="cls-4" d="M1386.34,110.81h-39.17L1332.63,97.9h39.16Zm-37.93-2.65h30.7l-8.56-7.6h-30.7Z"/><path class="cls-4" d="M1241.82,180.77h-39.17l-14.08-12.5h39.16Zm-37.93-2.66h30.7l-8.1-7.18H1195.8Z"/><path class="cls-4" d="M1404,158.25h-39.17l17.88-15.86-24.28-21.56h39.16l24.28,21.56Zm-31.94-2.65h30.7l14.88-13.21-21.29-18.9H1365.7l21.28,18.9Z"/><path class="cls-4" d="M1216.44,158.25h-39.16l-17.88-15.86,76-67.42h39.17l-76,67.42Zm-37.92-2.65h30.69l-14.88-13.21,73-64.77h-30.7l-73,64.77Z"/><path class="cls-4" d="M1290.66,258.88l-69.3-61.5h39.17l30.13,26.74,30.13-26.74H1360ZM1228.59,200l62.07,55.08L1352.72,200H1322l-31.37,27.83L1259.29,200Z"/><path class="cls-4" d="M1334.66,64.94h-88l44-39Zm-80.78-2.65h73.55l-36.77-32.64Z"/><path class="cls-4" d="M1360.5,87.88h-39.17L1306.79,75H1346Zm-37.93-2.66h30.7l-8.56-7.6H1314Z"/><g class="cls-228"><path class="cls-4" d="M1783.68,101.8h0c0-.07,0-.13-.08-.19l-.07-.14-.06-.13a8.27,8.27,0,0,0-3.56-3.88l-.44-.22h0L1726.91,70.3l-52.56-26.95h0l-.43-.22a4.8,4.8,0,0,0-4.35-.17l-.1,0-.1.06-6.94,3.55,4,1.5-13.88,65.32a8.25,8.25,0,0,0,.75,5.21l.07.14.06.14a8.25,8.25,0,0,0,3.56,3.87l104.83,53.74-1,4.1,6.57-3.38.1-.05a4.84,4.84,0,0,0,2.61-3.5l14.21-66.87A8.13,8.13,0,0,0,1783.68,101.8Z"/><path class="cls-230" d="M1756.16,180.62l-106-54.32c-3.2-1.65-5.15-6.06-4.34-9.85l14-65.92c.81-3.8,4.06-5.54,7.26-3.9l106,54.33c3.2,1.64,5.15,6.05,4.34,9.84l-14,65.93C1762.62,180.52,1759.36,182.27,1756.16,180.62Z"/><path class="cls-231" d="M1772.66,100.74,1720.1,73.8l-16.47,77.49,52.1,29.11c3.44,1.77,6.84.34,7.59-3.2l14.21-66.87C1778.28,106.8,1776.1,102.5,1772.66,100.74Z"/><path class="cls-232" d="M1667.54,46.85,1720.1,73.8l-16.37,77-53.12-24.29c-3.45-1.77-5.63-6.06-4.88-9.59l14.21-66.88C1660.69,46.52,1664.09,45.09,1667.54,46.85Z"/><path class="cls-233" d="M1646.4,122a9.57,9.57,0,0,0,4.21,4.56l105.12,53.88a5.55,5.55,0,0,0,5.13.23l-47.1-77Z"/><path class="cls-234" d="M1776.87,105.3a9.57,9.57,0,0,0-4.21-4.56L1667.54,46.85a5.55,5.55,0,0,0-5.13-.22l47.09,77Z"/></g><path class="cls-4" d="M1292.71,158.51h0c.08-.16.15-.32.22-.48s.11-.22.16-.34.11-.23.17-.35a20.9,20.9,0,0,1,9-9.79l1.1-.56h0l132.77-68.06L1568.9,10.87h0l1.09-.56a12.13,12.13,0,0,1,11-.45l.27.12.26.13,17.53,9-10.11,3.8,35.07,165a21,21,0,0,1-1.91,13.17l-.16.36c-.06.11-.11.22-.16.33a20.89,20.89,0,0,1-9,9.8L1347.94,347.3l2.44,10.35-16.61-8.54-.25-.13a12.19,12.19,0,0,1-6.59-8.82l-35.9-169A20.78,20.78,0,0,1,1292.71,158.51Z"/><path class="cls-235" d="M1362.25,357.63,1630,220.39c8.1-4.15,13-15.28,11-24.87L1605.56,29c-2-9.59-10.25-14-18.34-9.84L1319.48,156.39c-8.1,4.15-13,15.29-11,24.87l35.39,166.53C1345.94,357.38,1354.15,361.78,1362.25,357.63Z"/><path class="cls-236" d="M1320.57,155.83l132.78-68.06L1495,283.54l-131.61,73.53c-8.7,4.46-17.29.85-19.19-8.07l-35.9-168.95C1306.35,171.14,1311.87,160.29,1320.57,155.83Z"/><path class="cls-237" d="M1586.12,19.71,1453.35,87.77l41.34,194.54L1628.89,221c8.7-4.46,14.22-15.3,12.32-24.22l-35.9-168.95C1603.41,18.87,1594.82,15.25,1586.12,19.71Z"/><path class="cls-238" d="M1639.52,209.43A24.05,24.05,0,0,1,1628.89,221L1363.34,357.07c-4.7,2.41-9.36,2.45-13,.58l119-194.55Z"/><path class="cls-239" d="M1309.94,167.35a24.05,24.05,0,0,1,10.63-11.52L1586.12,19.71c4.7-2.41,9.36-2.44,13-.57l-119,194.54Z"/><polygon class="cls-4" points="1763.01 211.02 1760.49 208.79 1763.01 206.55 1765.52 208.79 1763.01 211.02"/><polygon class="cls-4" points="1772.1 210.99 1769.58 208.76 1772.1 206.53 1774.61 208.76 1772.1 210.99"/><polygon class="cls-4" points="1767.57 206.97 1765.05 204.74 1767.57 202.5 1770.08 204.74 1767.57 206.97"/><polygon class="cls-4" points="1767.54 215.04 1765.02 212.81 1767.54 210.57 1770.05 212.81 1767.54 215.04"/><path class="cls-4" d="M1967.65,191.58l-4.18-3.71,10.74-9.53-10.74-9.53,4.18-3.71,14.92,13.24Zm-3-3.71,3,2.64,13.72-12.17-13.72-12.17-3,2.64,10.74,9.53Z"/><polygon class="cls-240" points="1951.01 165.63 1947.43 168.81 1958.17 178.34 1947.43 187.87 1951.01 191.04 1961.75 181.51 1965.33 178.34 1951.01 165.63"/><path class="cls-4" d="M1028.43,191.58l-14.92-13.24,14.92-13.24,4.18,3.71-10.74,9.53,10.74,9.53Zm-13.71-13.24,13.71,12.17,3-2.64-10.74-9.53,10.74-9.53-3-2.64Z"/><polygon class="cls-240" points="1045.07 191.04 1048.65 187.87 1037.91 178.34 1048.65 168.81 1045.07 165.63 1034.34 175.16 1030.76 178.34 1045.07 191.04"/><rect class="cls-4" x="1677.93" y="277.7" width="37.81" height="5.44"/><rect class="cls-4" x="1724.45" y="277.7" width="37.81" height="5.44"/><path class="cls-4" d="M1711,296.82h-33.16V289.7H1711Zm-31.26-1.69h29.36v-3.75h-29.36Z"/><rect class="cls-4" x="1677.93" y="303.08" width="10.24" height="5.44"/><path class="cls-4" d="M428.32,185.9c0-26.16,18-41,37.68-41a34.42,34.42,0,0,1,24.24,10.32l-10.8,13.2c-3.84-3.36-7.68-5.76-13-5.76-9.12,0-17,8.4-17,22.56,0,14.64,6.72,22.8,16.8,22.8,6,0,10.8-3.12,14.16-6.72l10.8,13a32.9,32.9,0,0,1-25.68,11.52C445.6,225.74,428.32,212.54,428.32,185.9Z"/><path class="cls-4" d="M497.2,194.3c0-19.92,14.4-31.44,29.76-31.44s29.76,11.52,29.76,31.44-14.4,31.44-29.76,31.44S497.2,214.22,497.2,194.3Zm38.4,0c0-9.12-2.4-14.88-8.64-14.88s-8.64,5.76-8.64,14.88,2.4,14.88,8.64,14.88S535.6,203.42,535.6,194.3Z"/><path class="cls-4" d="M567.52,164.3h16.8l1.44,7.2h.48c4.8-4.56,10.8-8.64,19-8.64,13.2,0,18.72,9.6,18.72,24.48v37H603.28V190c0-7.68-1.92-9.6-6-9.6-3.84,0-6,1.68-9.12,4.56V224.3H567.52Z"/><path class="cls-4" d="M640,201.26V180.38h-7.92V165l9.12-.72,2.4-15.6h17v15.6h13.68v16.08H660.64V200.9c0,6.6,3.36,8.76,7.2,8.76a17.26,17.26,0,0,0,5.28-1l3.12,14.88a45.32,45.32,0,0,1-14.16,2.16C646.48,225.74,640,215.9,640,201.26Z"/><path class="cls-4" d="M680.56,207.26c0-12.48,9.6-19.44,32.64-21.84-.48-4.32-3.12-6.24-8.4-6.24-4.32,0-8.88,1.68-15.12,5l-7.2-13.44c8.4-5,17-7.92,26.4-7.92,15.6,0,25,8.4,25,28.08V224.3H717l-1.44-5.76h-.48c-4.8,4.32-10.08,7.2-16.56,7.2C687.28,225.74,680.56,217.1,680.56,207.26Zm32.64-1.44v-8.16c-9.84,1.44-13,4.56-13,7.92,0,2.76,1.92,4.32,5.52,4.32C709.12,209.9,711,208.22,713.2,205.82Z"/><path class="cls-4" d="M744.16,194.3c0-19.92,15.12-31.44,32.16-31.44a26.39,26.39,0,0,1,17.52,6.24l-9.6,13.2c-2.64-2.16-4.56-2.88-6.72-2.88-7.68,0-12.24,5.76-12.24,14.88s5,14.88,11.52,14.88c3.36,0,6.72-1.68,9.6-3.84l7.92,13.44c-6,5.28-13.68,7-19.92,7C757.36,225.74,744.16,214.22,744.16,194.3Z"/><path class="cls-4" d="M805.36,201.26V180.38h-7.92V165l9.12-.72,2.4-15.6h17v15.6h13.68v16.08H826V200.9c0,6.6,3.36,8.76,7.2,8.76a17.26,17.26,0,0,0,5.28-1l3.12,14.88a45.32,45.32,0,0,1-14.16,2.16C811.84,225.74,805.36,215.9,805.36,201.26Z"/><path class="cls-4" d="M875.92,186.62V146.3h20.64V189c0,13.92,3.6,19,11.76,19s12-5,12-19V146.3h19.91v40.32c0,26.64-10.07,39.12-31.91,39.12S875.92,213.26,875.92,186.62Z"/><path class="cls-4" d="M949.36,217.34l9.12-12.72c5.52,4.08,10.44,6,14.64,6s6-1.2,6-3.6c0-3.12-5.52-4.56-11.52-7-7-2.76-15.12-7.92-15.12-17.76,0-11.76,9.6-19.44,23.76-19.44,9.84,0,16.8,4,22.08,7.92L989.2,183c-4.32-3.12-8.52-5-12.24-5-3.48,0-5.28,1-5.28,3.36,0,3.12,5.28,4.32,11.28,6.48,7.2,2.64,15.36,7.2,15.36,18,0,11.28-8.88,19.92-25.68,19.92A40,40,0,0,1,949.36,217.34Z"/></g></g></svg>