<svg xmlns="http://www.w3.org/2000/svg" xmlns:xlink="http://www.w3.org/1999/xlink" viewBox="0 0 400 300"><defs><style>.cls-1{fill:#cfdbf1;}.cls-2{fill:#d5e1f4;}.cls-3{fill:#3a4648;}.cls-4{fill:#458fcd;}.cls-5{isolation:isolate;}.cls-6{mix-blend-mode:overlay;}.cls-7{fill:#7f8080;opacity:0;}.cls-8{fill:#909191;opacity:0.17;}.cls-9{fill:#a1a2a5;opacity:0.33;}.cls-10{fill:#b4b6b9;}.cls-10,.cls-72{opacity:0.5;}.cls-11{fill:#c7cace;opacity:0.67;}.cls-12{fill:#dbdfe5;opacity:0.83;}.cls-13,.cls-71,.cls-72,.cls-73{fill:#eff6fd;}.cls-14{mix-blend-mode:screen;}.cls-15{fill:#5ec5ec;}.cls-16{clip-path:url(#clip-path);}.cls-17{clip-path:url(#clip-path-2);}.cls-18{clip-path:url(#clip-path-3);}.cls-19{clip-path:url(#clip-path-4);}.cls-20{fill:#e6f1fb;}.cls-21{fill:#dce8f8;}.cls-22{fill:#58c3e8;}.cls-23{clip-path:url(#clip-path-5);}.cls-24{fill:#bfcdea;}.cls-25{clip-path:url(#clip-path-6);}.cls-26{fill:#42b1e6;}.cls-27{clip-path:url(#clip-path-7);}.cls-28{clip-path:url(#clip-path-8);}.cls-29{clip-path:url(#clip-path-9);}.cls-30{clip-path:url(#clip-path-10);}.cls-31{clip-path:url(#clip-path-11);}.cls-32{fill:#99a3d3;}.cls-33{fill:#11191c;}.cls-34{fill:#1b76bc;}.cls-35{fill:#38404a;}.cls-36{fill:#252a31;}.cls-37{fill:#ffd53d;}.cls-38{fill:#fab612;}.cls-39{fill:#fbc70e;}.cls-40{fill:#ecf5fd;}.cls-41{fill:#b6b4c5;}.cls-42{fill:#f3ac0d;}.cls-43{fill:#c8d4ee;}.cls-44{fill:#f1f1f1;}.cls-45{fill:#fff;}.cls-46{fill:#f3aa84;}.cls-47{fill:#f4f3f4;}.cls-48{fill:#293132;}.cls-49{fill:#f5a783;}.cls-50{fill:#ee9d77;}.cls-51{fill:#f8bda3;}.cls-52{fill:#f7b596;}.cls-53{fill:#c99c83;}.cls-54{fill:#ba8d75;}.cls-55{fill:#253064;}.cls-56{fill:#30383a;}.cls-57{fill:#0d1315;}.cls-58{clip-path:url(#clip-path-12);}.cls-59{clip-path:url(#clip-path-13);}.cls-60{fill:#363f41;}.cls-61{fill:#8a877e;opacity:0.09;}.cls-62{fill:#958e7c;opacity:0.18;}.cls-63{fill:#a09579;opacity:0.27;}.cls-64{fill:#ac9c75;opacity:0.36;}.cls-65{fill:#b7a471;opacity:0.45;}.cls-66{fill:#c3ab6c;opacity:0.55;}.cls-67{fill:#ceb365;opacity:0.64;}.cls-68{fill:#dabb5e;opacity:0.73;}.cls-69{fill:#e6c355;opacity:0.82;}.cls-70{fill:#f3cc4a;opacity:0.91;}.cls-71{opacity:0.4;}.cls-73{opacity:0.2;}</style><clipPath id="clip-path"><path id="SVGID" class="cls-1" d="M191.43,59l11,6.37c-3.66-2.13-8.72-1.83-14.32,1.4a30.79,30.79,0,0,0-3.5,2.37l-10.95-6.37a31.11,31.11,0,0,1,3.49-2.37C182.71,57.18,187.77,56.88,191.43,59Z"/></clipPath><clipPath id="clip-path-2"><path id="SVGID-2" data-name="SVGID" class="cls-1" d="M165.74,51.37l11,6.37c-5.49-3.19-13.09-2.74-21.47,2.1l-11-6.37C152.66,48.63,160.25,48.18,165.74,51.37Z"/></clipPath><clipPath id="clip-path-3"><path id="SVGID-3" data-name="SVGID" class="cls-1" d="M126,103l-11-6.37c3.25-17,15.08-34.95,29.2-43.11l11,6.37C141.1,68,129.28,86,126,103Z"/></clipPath><clipPath id="clip-path-4"><path id="SVGID-4" data-name="SVGID" class="cls-1" d="M108.34,152.27l-11-6.37c-3.61-2.1-5.85-6.56-5.87-12.91,0-12.77,8.95-28.32,20.06-34.74a24,24,0,0,1,3.5-1.67L126,103a23.54,23.54,0,0,0-3.5,1.67c-11.11,6.42-20.09,22-20.06,34.74C102.49,145.71,104.73,150.17,108.34,152.27Z"/></clipPath><clipPath id="clip-path-5"><path id="SVGID-5" data-name="SVGID" class="cls-2" d="M192.87,218.55v7.14c0,4.65-3.07,9.29-9.18,12.84-12.29,7.14-32.27,7.14-44.64,0-6.23-3.59-9.34-8.31-9.32-13v-7.14c0,4.71,3.09,9.43,9.32,13,12.37,7.15,32.35,7.15,44.64,0C189.8,227.85,192.85,223.2,192.87,218.55Z"/></clipPath><clipPath id="clip-path-6"><path id="SVGID-6" data-name="SVGID" class="cls-4" d="M192,206.21l0,10.29c0,4.52-3,9-8.92,12.49-11.95,6.94-31.38,6.94-43.41,0-6-3.5-9.07-8.08-9.06-12.66l0-10.3c0,4.58,3,9.17,9.06,12.66,12,6.95,31.46,6.95,43.41,0C189,215.24,192,210.73,192,206.21Z"/></clipPath><clipPath id="clip-path-7"><path id="SVGID-7" data-name="SVGID" class="cls-2" d="M192.87,198.57v7.13c0,4.65-3.07,9.3-9.18,12.84-12.29,7.15-32.27,7.15-44.64,0-6.23-3.59-9.34-8.31-9.32-13v-7.13c0,4.71,3.09,9.42,9.32,13,12.37,7.14,32.35,7.14,44.64,0C189.8,207.86,192.85,203.22,192.87,198.57Z"/></clipPath><clipPath id="clip-path-8"><path id="SVGID-8" data-name="SVGID" class="cls-4" d="M192,186.29l0,10.29c0,4.52-3,9-8.92,12.49-11.95,6.94-31.38,6.94-43.41,0-6-3.49-9.07-8.08-9.06-12.66l0-10.3c0,4.58,3,9.17,9.06,12.66,12,6.95,31.46,6.95,43.41,0C189,195.32,192,190.81,192,186.29Z"/></clipPath><clipPath id="clip-path-9"><path id="SVGID-9" data-name="SVGID" class="cls-2" d="M192.87,178.65v7.13c0,4.65-3.07,9.3-9.18,12.84-12.29,7.15-32.27,7.15-44.64,0-6.23-3.6-9.34-8.32-9.32-13v-7.13c0,4.71,3.09,9.42,9.32,13,12.37,7.14,32.35,7.14,44.64,0C189.8,187.94,192.85,183.3,192.87,178.65Z"/></clipPath><clipPath id="clip-path-10"><path id="SVGID-10" data-name="SVGID" class="cls-4" d="M192,165.93l0,10.3c0,4.52-3,9-8.92,12.49-11.95,6.94-31.38,6.94-43.41,0-6-3.5-9.07-8.08-9.06-12.66l0-10.3c0,4.58,3,9.17,9.06,12.66,12,6.94,31.46,6.94,43.41,0C189,175,192,170.46,192,165.93Z"/></clipPath><clipPath id="clip-path-11"><path id="SVGID-11" data-name="SVGID" class="cls-2" d="M192.87,158.29v7.14c0,4.65-3.07,9.29-9.18,12.84-12.29,7.14-32.27,7.14-44.64,0-6.23-3.59-9.34-8.31-9.32-13v-7.14c0,4.71,3.09,9.43,9.32,13,12.37,7.14,32.35,7.14,44.64,0C189.8,167.59,192.85,162.94,192.87,158.29Z"/></clipPath><clipPath id="clip-path-12"><path class="cls-3" d="M193.4,159.9l.94.55a.25.25,0,0,0-.26,0l-.93-.54A.26.26,0,0,1,193.4,159.9Z"/></clipPath><clipPath id="clip-path-13"><path class="cls-3" d="M182,167.92l-.93-.54a.79.79,0,0,1,.36-.62l.93.55A.76.76,0,0,0,182,167.92Z"/></clipPath></defs><g class="cls-5"><g id="Layer_1" data-name="Layer 1"><g id="_4" data-name="4"><g class="cls-6"><ellipse class="cls-7" cx="189.68" cy="228.53" rx="119.05" ry="68.73"/><ellipse class="cls-8" cx="189.68" cy="228.53" rx="102.45" ry="59.15"/><ellipse class="cls-9" cx="189.68" cy="228.53" rx="85.85" ry="49.57"/><ellipse class="cls-10" cx="189.68" cy="228.53" rx="69.25" ry="39.98"/><ellipse class="cls-11" cx="189.68" cy="228.53" rx="52.65" ry="30.4"/><ellipse class="cls-12" cx="189.68" cy="228.53" rx="36.05" ry="20.81"/><ellipse class="cls-13" cx="189.68" cy="228.53" rx="19.45" ry="11.23"/></g><g class="cls-6"><circle class="cls-7" cx="283.62" cy="187.07" r="63.26" transform="translate(-41.99 90.06) rotate(-16.82)"/><circle class="cls-8" cx="283.62" cy="187.07" r="52.98" transform="translate(-42.49 91.75) rotate(-17.12)"/><circle class="cls-9" cx="283.62" cy="187.07" r="42.69" transform="translate(-43.26 94.4) rotate(-17.58)"/><circle class="cls-10" cx="283.62" cy="187.07" r="32.4" transform="translate(-44.56 99.12) rotate(-18.41)"/><circle class="cls-11" cx="283.62" cy="187.07" r="22.12" transform="translate(-47.25 109.85) rotate(-20.27)"/><circle class="cls-12" cx="283.62" cy="187.07" r="11.83" transform="translate(-54.7 155.8) rotate(-28.13)"/><path class="cls-13" d="M285.16,187.07a1.55,1.55,0,1,1-1.54-1.54A1.55,1.55,0,0,1,285.16,187.07Z"/></g><g class="cls-14"><polygon class="cls-15" points="108.64 262.24 108.64 155.59 108.91 155.44 145.31 133.95 145.31 109.68 146.37 109.68 146.37 134.55 146.11 134.7 109.7 156.19 109.7 260.42 148.43 238.29 148.95 239.2 108.64 262.24"/><rect class="cls-15" x="156.13" y="97.28" width="1.06" height="1.85"/><path class="cls-15" d="M157.19,115.83h-1.06v-4.18h1.06Zm0-8.35h-1.06v-4.17h1.06Z"/><polygon class="cls-15" points="155.33 123.24 154.8 122.33 156.13 121.55 156.13 120 157.19 120 157.19 122.16 155.33 123.24"/><path class="cls-15" d="M107.74,151l-.54-.92,3.4-2,.54.91Zm6.8-4-.54-.91,3.4-2,.53.91Zm6.79-4-.53-.91,3.4-2,.53.92Zm6.8-4-.53-.91,3.4-2,.53.91Zm6.8-4-.53-.91,3.4-2,.53.91Zm6.8-4-.53-.92,3.4-2,.53.91Zm6.8-4-.53-.91,3.4-2,.53.91Z"/><polygon class="cls-15" points="103 155.33 101.94 155.33 101.94 153.17 103.81 152.09 104.34 153 103 153.78 103 155.33"/><path class="cls-15" d="M103,253.3h-1.06v-3.77H103Zm0-7.54h-1.06V242H103Zm0-7.54h-1.06v-3.76H103Zm0-7.53h-1.06v-3.77H103Zm0-7.54h-1.06v-3.77H103Zm0-7.53h-1.06v-3.77H103Zm0-7.54h-1.06v-3.77H103Zm0-7.54h-1.06v-3.76H103Zm0-7.53h-1.06v-3.77H103Zm0-7.54h-1.06V181.7H103Zm0-7.53h-1.06v-3.77H103Zm0-7.54h-1.06v-3.77H103Zm0-7.54h-1.06v-3.77H103Z"/><polygon class="cls-15" points="101.94 259.82 101.94 257.06 103 257.06 103 258 103.82 257.54 104.34 258.45 101.94 259.82"/><path class="cls-15" d="M107.64,256.57l-.52-.92,3.3-1.88.52.91Zm6.6-3.77-.52-.92L117,250l.52.92Zm6.6-3.77-.52-.92,3.3-1.89.52.92Zm6.6-3.78-.52-.91,3.3-1.89.52.92Zm6.6-3.77-.52-.92,3.3-1.88.52.92Z"/><rect class="cls-15" x="140.26" y="236.26" width="1.85" height="1.06" transform="matrix(0.87, -0.5, 0.5, 0.87, -98.84, 101.17)"/><polygon class="cls-15" points="240.13 104.7 239.07 104.7 239.07 48.01 202.66 69.03 202.13 68.11 240.13 46.17 240.13 104.7"/><rect class="cls-15" x="191.11" y="80.09" width="1.85" height="1.06" transform="translate(-14.58 106.79) rotate(-29.99)"/><path class="cls-15" d="M196.19,78.81l-.53-.91,3.1-1.8.53.91Zm6.21-3.6-.54-.91L205,72.5l.53.91Zm6.2-3.59-.54-.92,3.1-1.8.54.92Zm6.2-3.6-.53-.92,3.1-1.8.53.92Zm6.2-3.6-.53-.92,3.1-1.8.53.92Zm6.2-3.6-.53-.92,3.1-1.8.53.92Zm6.2-3.6-.53-.92,3.1-1.79.53.91Zm6.2-3.6-.53-.91,3.1-1.8.53.91Z"/><polygon class="cls-15" points="247.59 50.52 246.54 50.52 246.54 49.59 245.73 50.06 245.2 49.14 247.59 47.76 247.59 50.52"/><path class="cls-15" d="M247.59,100.84h-1.05v-3.6h1.05Zm0-7.19h-1.05v-3.6h1.05Zm0-7.19h-1.05V82.87h1.05Zm0-7.19h-1.05V75.68h1.05Zm0-7.18h-1.05v-3.6h1.05Zm0-7.19h-1.05V61.31h1.05Zm0-7.19h-1.05V54.12h1.05Z"/><rect class="cls-15" x="246.54" y="104.43" width="1.06" height="1.85"/><polygon class="cls-15" points="223.55 262.73 223.29 262.58 168.59 231 169.12 230.09 223.55 261.51 269.89 234.43 226.67 209.53 227.19 208.62 272 234.43 223.55 262.73"/><path class="cls-15" d="M160.58,237.08c-1.22-.68-1.48-.81-1.53-.83l.17-.42-.09-.6c.21,0,.24,0,2,.93Z"/><path class="cls-15" d="M215.32,268.74l-3-1.77.53-.92,3,1.77Zm-6.08-3.54-3-1.77.53-.91,3,1.77Zm-6.07-3.53-3-1.77.53-.91,3,1.76Zm-6.08-3.53-3-1.77.53-.91,3,1.76ZM191,254.61l-3-1.77.53-.91,3,1.76Zm-6.07-3.53-3-1.76.53-.91,3,1.76Zm-6.08-3.52-3.05-1.76.53-.91,3,1.76Zm-6.09-3.51-3-1.76.52-.91,3.05,1.75Zm-6.09-3.51-3.05-1.74.52-.92,3.06,1.75Z"/><polygon class="cls-15" points="220.14 271.55 218.28 270.46 218.81 269.55 220.14 270.32 221.47 269.54 222 270.45 220.14 271.55"/><path class="cls-15" d="M225.38,268.45l-.53-.91,3.38-2,.54.91Zm6.77-4-.54-.91,3.38-2,.54.91Zm6.76-4-.54-.91,3.38-2,.54.91Zm6.76-4-.54-.91,3.38-2,.54.91Zm6.76-4-.53-.91,3.38-2,.54.91Zm6.77-4-.54-.91,3.38-2,.54.91Z"/><polygon class="cls-15" points="265.96 244.45 265.42 243.54 266.25 243.06 265.42 242.57 265.96 241.66 268.32 243.06 265.96 244.45"/><path class="cls-15" d="M262.23,240.67l-3.2-1.9.54-.91,3.2,1.9Zm-6.39-3.79-3.19-1.9.54-.91,3.19,1.9Zm-6.39-3.79-3.19-1.9.54-.91,3.19,1.9Zm-6.38-3.8-3.2-1.89.54-.91,3.2,1.89Zm-6.39-3.79-3.2-1.9.54-.91,3.2,1.9Zm-6.39-3.79-3.19-1.9.54-.91,3.19,1.9Zm-6.39-3.8L220.71,216l.54-.91,3.19,1.9Z"/><rect class="cls-15" x="216.46" y="212.27" width="1.06" height="1.85" transform="translate(-77.1 290.96) rotate(-59.31)"/><rect class="cls-15" x="180.14" y="226.26" width="1.06" height="1.85" transform="translate(-106.92 266.57) rotate(-59.3)"/><path class="cls-15" d="M238.15,261.91,235,260l.54-.9,3.17,1.87Zm-6.33-3.75-3.17-1.88.54-.91,3.17,1.88Zm-6.33-3.76-3.16-1.88.53-.9,3.17,1.87Zm-6.33-3.75L216,248.77l.54-.91,3.16,1.88Zm-6.33-3.76L209.67,245l.54-.9,3.16,1.87Zm-6.33-3.75-3.16-1.88.54-.91,3.16,1.88Zm-6.32-3.76L197,237.5l.54-.91,3.17,1.88Zm-6.33-3.75-3.17-1.88.54-.91,3.17,1.88Zm-6.33-3.76L184.35,230l.54-.91,3.17,1.88Z"/><polygon class="cls-15" points="243.17 264.89 241.31 263.79 241.85 262.88 243.17 263.67 244.5 262.89 245.04 263.81 243.17 264.89"/><path class="cls-15" d="M248,262.1l-.53-.91,2.93-1.71.53.92Zm5.87-3.41-.53-.91,2.93-1.71.53.92Zm5.86-3.41-.53-.91,2.94-1.7.53.91Zm5.87-3.4L265,251l2.93-1.7.53.91Zm5.87-3.41-.53-.92,2.93-1.7.53.91Z"/><polygon class="cls-15" points="277.31 245.06 276.77 244.14 277.58 243.68 276.77 243.22 277.29 242.3 279.7 243.67 277.31 245.06"/><path class="cls-15" d="M273.49,241.35l-3.29-1.87.53-.92,3.28,1.87Zm-6.57-3.74-3.29-1.87.53-.92,3.28,1.87Zm-6.57-3.74L257.07,232l.52-.92,3.28,1.87Zm-6.57-3.74-3.28-1.87.52-.92,3.29,1.87Zm-6.56-3.74-3.29-1.87.53-.92,3.28,1.87Zm-6.57-3.74-3.28-1.87.52-.92,3.28,1.87Z"/><rect class="cls-15" x="233.01" y="217.07" width="1.06" height="1.85" transform="translate(-71.45 313.11) rotate(-60.35)"/></g><g class="cls-5"><path id="SVGID-12" data-name="SVGID" class="cls-1" d="M191.43,59l11,6.37c-3.66-2.13-8.72-1.83-14.32,1.4a30.79,30.79,0,0,0-3.5,2.37l-10.95-6.37a31.11,31.11,0,0,1,3.49-2.37C182.71,57.18,187.77,56.88,191.43,59Z"/><g class="cls-16"><g class="cls-5"><path class="cls-1" d="M184.57,69.15l-10.95-6.37a31.11,31.11,0,0,1,3.49-2.37A21,21,0,0,1,183.24,58l11,6.37a20.88,20.88,0,0,0-6.13,2.44A30.79,30.79,0,0,0,184.57,69.15Z"/><path class="cls-1" d="M194.2,64.34l-11-6.37a11.51,11.51,0,0,1,7.84.84l11,6.37A11.51,11.51,0,0,0,194.2,64.34Z"/><path class="cls-1" d="M202,65.18l-11-6.37.35.2,11,6.37Z"/></g></g><path id="SVGID-13" data-name="SVGID" class="cls-1" d="M165.74,51.37l11,6.37c-5.49-3.19-13.09-2.74-21.47,2.1l-11-6.37C152.66,48.63,160.25,48.18,165.74,51.37Z"/><g class="cls-17"><g class="cls-5"><path class="cls-1" d="M155.23,59.84l-11-6.37a31.66,31.66,0,0,1,9.18-3.66l11,6.37A31.44,31.44,0,0,0,155.23,59.84Z"/><path class="cls-1" d="M164.4,56.18l-11-6.37a17.26,17.26,0,0,1,11.76,1.26l11,6.37A17.28,17.28,0,0,0,164.4,56.18Z"/><path class="cls-1" d="M176.17,57.44l-11-6.37.53.3,11,6.37Z"/></g></g><path id="SVGID-14" data-name="SVGID" class="cls-1" d="M126,103l-11-6.37c3.25-17,15.08-34.95,29.2-43.11l11,6.37C141.1,68,129.28,86,126,103Z"/><g class="cls-18"><g class="cls-5"><path class="cls-1" d="M126,103l-11-6.37a64.84,64.84,0,0,1,4.43-13.86l11,6.37A63.57,63.57,0,0,0,126,103Z"/><path class="cls-1" d="M130.46,89.09l-11-6.37a73.33,73.33,0,0,1,10.15-16.46l11,6.37A73.33,73.33,0,0,0,130.46,89.09Z"/><path class="cls-1" d="M140.61,72.63l-11-6.37a55.05,55.05,0,0,1,14.62-12.79l11,6.37A54.87,54.87,0,0,0,140.61,72.63Z"/></g></g><path id="SVGID-15" data-name="SVGID" class="cls-1" d="M108.34,152.27l-11-6.37c-3.61-2.1-5.85-6.56-5.87-12.91,0-12.77,8.95-28.32,20.06-34.74a24,24,0,0,1,3.5-1.67L126,103a23.54,23.54,0,0,0-3.5,1.67c-11.11,6.42-20.09,22-20.06,34.74C102.49,145.71,104.73,150.17,108.34,152.27Z"/><g class="cls-19"><g class="cls-5"><path class="cls-1" d="M108.34,152.27l-11-6.37c-3.61-2.1-5.85-6.56-5.87-12.91a38,38,0,0,1,3.55-15.23l11,6.37a38.14,38.14,0,0,0-3.54,15.23C102.49,145.71,104.73,150.17,108.34,152.27Z"/><path class="cls-1" d="M106,124.13l-11-6.37a48.32,48.32,0,0,1,6.77-11l11,6.36A48.64,48.64,0,0,0,106,124.13Z"/><path class="cls-1" d="M112.79,113.14l-11-6.36a36.71,36.71,0,0,1,9.74-8.53,24,24,0,0,1,3.5-1.67L126,103a23.54,23.54,0,0,0-3.5,1.67A36.49,36.49,0,0,0,112.79,113.14Z"/></g></g><path class="cls-20" d="M155.23,59.84c14.12-8.15,26-3.85,29.34,9.31a30.79,30.79,0,0,1,3.5-2.37c11.12-6.42,20.16-1.26,20.19,11.51,0,12-7.85,26.37-18,33.42l-67.62,39.16c-11.11,6.41-20.15,1.26-20.19-11.51s9-28.32,20.06-34.74A23.54,23.54,0,0,1,126,103C129.28,86,141.1,68,155.23,59.84Z"/></g><g class="cls-5"><polygon class="cls-1" points="269.1 111.38 268.81 210.19 218.58 239.39 218.86 140.57 269.1 111.38"/><path class="cls-21" d="M220.44,236.17l.26-94.53,46.54-27L267,209.12Zm1.85-93.62L222,233.41l43.35-25.2.26-90.85Z"/><polygon class="cls-21" points="218.86 140.57 218.58 239.39 168.01 210.19 168.29 111.38 218.86 140.57"/><polygon class="cls-13" points="269.1 111.38 218.86 140.57 168.29 111.38 218.53 82.18 269.1 111.38"/><polygon class="cls-21" points="203.41 106.61 202.3 107.25 185.86 116.71 177.83 111.96 176.72 111.3 194.27 101.2 203.41 106.61"/><polygon class="cls-22" points="202.3 107.25 185.86 116.71 177.83 111.96 194.27 102.49 202.3 107.25"/></g><path class="cls-22" d="M226.88,144a2.79,2.79,0,0,1-1.25,2.18c-.7.4-1.26.07-1.26-.73a2.79,2.79,0,0,1,1.26-2.18C226.32,142.91,226.88,143.24,226.88,144Z"/><path class="cls-22" d="M232.39,140.86a2.79,2.79,0,0,1-1.25,2.18c-.7.4-1.26.07-1.26-.73a2.77,2.77,0,0,1,1.26-2.18C231.83,139.73,232.39,140.06,232.39,140.86Z"/><path class="cls-22" d="M237.9,137.68a2.8,2.8,0,0,1-1.25,2.18c-.7.4-1.26.07-1.26-.73a2.77,2.77,0,0,1,1.26-2.18C237.34,136.55,237.9,136.88,237.9,137.68Z"/><g class="cls-5"><path id="SVGID-16" data-name="SVGID" class="cls-2" d="M192.87,218.55v7.14c0,4.65-3.07,9.29-9.18,12.84-12.29,7.14-32.27,7.14-44.64,0-6.23-3.59-9.34-8.31-9.32-13v-7.14c0,4.71,3.09,9.43,9.32,13,12.37,7.15,32.35,7.15,44.64,0C189.8,227.85,192.85,223.2,192.87,218.55Z"/><g class="cls-23"><g class="cls-5"><path class="cls-24" d="M192.87,218.55v7.14c0,4.65-3.07,9.29-9.18,12.84a36.24,36.24,0,0,1-8,3.39v-7.14a36.24,36.24,0,0,0,8-3.39C189.8,227.85,192.85,223.2,192.87,218.55Z"/><path class="cls-1" d="M175.65,234.78v7.14a50.62,50.62,0,0,1-13.54,2v-7.13A51,51,0,0,0,175.65,234.78Z"/><path class="cls-21" d="M162.11,236.75v7.13c-8.31.11-16.7-1.67-23.06-5.35-.31-.18-.62-.36-.91-.55v-7.13l.91.54C145.41,235.07,153.8,236.85,162.11,236.75Z"/><path class="cls-1" d="M138.14,230.85V238a19.26,19.26,0,0,1-7-7v-7.14A19.2,19.2,0,0,0,138.14,230.85Z"/><path class="cls-1" d="M131.15,223.84V231a11.33,11.33,0,0,1-1.42-5.47v-7.14A11.3,11.3,0,0,0,131.15,223.84Z"/></g></g><path class="cls-20" d="M183.55,205.53c12.37,7.14,12.43,18.72.14,25.86s-32.27,7.15-44.64,0-12.44-18.72-.15-25.86S171.18,198.39,183.55,205.53Z"/></g><g class="cls-5"><path id="SVGID-17" data-name="SVGID" class="cls-4" d="M192,206.21l0,10.29c0,4.52-3,9-8.92,12.49-11.95,6.94-31.38,6.94-43.41,0-6-3.5-9.07-8.08-9.06-12.66l0-10.3c0,4.58,3,9.17,9.06,12.66,12,6.95,31.46,6.95,43.41,0C189,215.24,192,210.73,192,206.21Z"/><g class="cls-25"><g class="cls-5"><path class="cls-4" d="M192,206.21l0,10.29c0,4.52-3,9-8.92,12.49a35.52,35.52,0,0,1-7.81,3.29l0-10.29a35.42,35.42,0,0,0,7.82-3.3C189,215.24,192,210.73,192,206.21Z"/><path class="cls-26" d="M175.25,222l0,10.29a49.19,49.19,0,0,1-13.17,1.91l0-10.29A49.46,49.46,0,0,0,175.25,222Z"/><path class="cls-22" d="M162.09,223.9l0,10.29c-8.09.11-16.24-1.63-22.43-5.2l-.88-.53,0-10.3c.29.18.58.36.88.53C145.85,222.27,154,224,162.09,223.9Z"/><path class="cls-26" d="M138.78,218.16l0,10.3a18.79,18.79,0,0,1-6.8-6.82l0-10.29A18.85,18.85,0,0,0,138.78,218.16Z"/><path class="cls-26" d="M132,211.35l0,10.29a11.24,11.24,0,0,1-1.38-5.31l0-10.3A11.05,11.05,0,0,0,132,211.35Z"/></g></g><path class="cls-22" d="M182.93,193.55c12,6.94,12.09,18.2.14,25.14s-31.38,6.95-43.41,0-12.09-18.2-.14-25.14S170.9,186.6,182.93,193.55Z"/></g><g class="cls-5"><path id="SVGID-18" data-name="SVGID" class="cls-2" d="M192.87,198.57v7.13c0,4.65-3.07,9.3-9.18,12.84-12.29,7.15-32.27,7.15-44.64,0-6.23-3.59-9.34-8.31-9.32-13v-7.13c0,4.71,3.09,9.42,9.32,13,12.37,7.14,32.35,7.14,44.64,0C189.8,207.86,192.85,203.22,192.87,198.57Z"/><g class="cls-27"><g class="cls-5"><path class="cls-24" d="M192.87,198.57v7.13c0,4.65-3.07,9.3-9.18,12.84a36.24,36.24,0,0,1-8,3.39v-7.14a36.7,36.7,0,0,0,8-3.38C189.8,207.86,192.85,203.22,192.87,198.57Z"/><path class="cls-1" d="M175.65,214.79v7.14a50.63,50.63,0,0,1-13.54,2v-7.14A50.63,50.63,0,0,0,175.65,214.79Z"/><path class="cls-21" d="M162.11,216.76v7.14c-8.31.1-16.7-1.68-23.06-5.36l-.91-.54v-7.14c.29.19.6.37.91.55C145.41,215.08,153.8,216.87,162.11,216.76Z"/><path class="cls-1" d="M138.14,210.86V218a19.2,19.2,0,0,1-7-7v-7.14A19.2,19.2,0,0,0,138.14,210.86Z"/><path class="cls-1" d="M131.15,203.85V211a11.3,11.3,0,0,1-1.42-5.47v-7.13A11.29,11.29,0,0,0,131.15,203.85Z"/></g></g><path class="cls-20" d="M183.55,185.55c12.37,7.14,12.43,18.72.14,25.86s-32.27,7.14-44.64,0-12.44-18.72-.15-25.86S171.18,178.4,183.55,185.55Z"/></g><g class="cls-5"><path id="SVGID-19" data-name="SVGID" class="cls-4" d="M192,186.29l0,10.29c0,4.52-3,9-8.92,12.49-11.95,6.94-31.38,6.94-43.41,0-6-3.49-9.07-8.08-9.06-12.66l0-10.3c0,4.58,3,9.17,9.06,12.66,12,6.95,31.46,6.95,43.41,0C189,195.32,192,190.81,192,186.29Z"/><g class="cls-28"><g class="cls-5"><path class="cls-4" d="M192,186.29l0,10.29c0,4.52-3,9-8.92,12.49a35.52,35.52,0,0,1-7.81,3.29l0-10.29a35.42,35.42,0,0,0,7.82-3.3C189,195.32,192,190.81,192,186.29Z"/><path class="cls-26" d="M175.25,202.07l0,10.29a49.19,49.19,0,0,1-13.17,1.91l0-10.29A49.46,49.46,0,0,0,175.25,202.07Z"/><path class="cls-22" d="M162.09,204l0,10.29c-8.09.11-16.24-1.63-22.43-5.2l-.88-.53,0-10.3c.29.18.58.36.88.53C145.85,202.35,154,204.08,162.09,204Z"/><path class="cls-26" d="M138.78,198.24l0,10.3a18.79,18.79,0,0,1-6.8-6.82l0-10.29A18.77,18.77,0,0,0,138.78,198.24Z"/><path class="cls-26" d="M132,191.43l0,10.29a11.21,11.21,0,0,1-1.38-5.31l0-10.3A11.05,11.05,0,0,0,132,191.43Z"/></g></g><path class="cls-22" d="M182.93,173.63c12,6.94,12.09,18.2.14,25.14s-31.38,6.95-43.41,0-12.09-18.2-.14-25.14S170.9,166.69,182.93,173.63Z"/></g><g class="cls-5"><path id="SVGID-20" data-name="SVGID" class="cls-2" d="M192.87,178.65v7.13c0,4.65-3.07,9.3-9.18,12.84-12.29,7.15-32.27,7.15-44.64,0-6.23-3.6-9.34-8.32-9.32-13v-7.13c0,4.71,3.09,9.42,9.32,13,12.37,7.14,32.35,7.14,44.64,0C189.8,187.94,192.85,183.3,192.87,178.65Z"/><g class="cls-29"><g class="cls-5"><path class="cls-24" d="M192.87,178.65v7.13c0,4.65-3.07,9.3-9.18,12.84a36.24,36.24,0,0,1-8,3.39v-7.13a37.21,37.21,0,0,0,8-3.39C189.8,187.94,192.85,183.3,192.87,178.65Z"/><path class="cls-1" d="M175.65,194.88V202a50.63,50.63,0,0,1-13.54,2v-7.14A51,51,0,0,0,175.65,194.88Z"/><path class="cls-21" d="M162.11,196.84V204c-8.31.1-16.7-1.68-23.06-5.35l-.91-.55v-7.14c.29.19.6.37.91.55C145.41,195.16,153.8,197,162.11,196.84Z"/><path class="cls-1" d="M138.14,190.94v7.14a19.2,19.2,0,0,1-7-7v-7.14A19.2,19.2,0,0,0,138.14,190.94Z"/><path class="cls-1" d="M131.15,183.93v7.14a11.3,11.3,0,0,1-1.42-5.47v-7.13A11.29,11.29,0,0,0,131.15,183.93Z"/></g></g><path class="cls-20" d="M183.55,165.63c12.37,7.14,12.43,18.72.14,25.86s-32.27,7.14-44.64,0-12.44-18.72-.15-25.86S171.18,158.49,183.55,165.63Z"/></g><g class="cls-5"><path id="SVGID-21" data-name="SVGID" class="cls-4" d="M192,165.93l0,10.3c0,4.52-3,9-8.92,12.49-11.95,6.94-31.38,6.94-43.41,0-6-3.5-9.07-8.08-9.06-12.66l0-10.3c0,4.58,3,9.17,9.06,12.66,12,6.94,31.46,6.94,43.41,0C189,175,192,170.46,192,165.93Z"/><g class="cls-30"><g class="cls-5"><path class="cls-4" d="M192,165.93l0,10.3c0,4.52-3,9-8.92,12.49a36,36,0,0,1-7.81,3.29l0-10.3a34.93,34.93,0,0,0,7.82-3.29C189,175,192,170.46,192,165.93Z"/><path class="cls-26" d="M175.25,181.71l0,10.3a49.19,49.19,0,0,1-13.17,1.91l0-10.3A48.66,48.66,0,0,0,175.25,181.71Z"/><path class="cls-22" d="M162.09,183.62l0,10.3c-8.09.1-16.24-1.63-22.43-5.2l-.88-.53,0-10.3c.29.18.58.36.88.53C145.85,182,154,183.73,162.09,183.62Z"/><path class="cls-26" d="M138.78,177.89l0,10.3a18.87,18.87,0,0,1-6.8-6.82l0-10.29A18.85,18.85,0,0,0,138.78,177.89Z"/><path class="cls-26" d="M132,171.08l0,10.29a11.24,11.24,0,0,1-1.38-5.31l0-10.3A11.05,11.05,0,0,0,132,171.08Z"/></g></g><path class="cls-22" d="M182.93,153.28c12,6.94,12.09,18.2.14,25.14s-31.38,6.94-43.41,0-12.09-18.2-.14-25.14S170.9,146.33,182.93,153.28Z"/></g><g class="cls-5"><path id="SVGID-22" data-name="SVGID" class="cls-2" d="M192.87,158.29v7.14c0,4.65-3.07,9.29-9.18,12.84-12.29,7.14-32.27,7.14-44.64,0-6.23-3.59-9.34-8.31-9.32-13v-7.14c0,4.71,3.09,9.43,9.32,13,12.37,7.14,32.35,7.14,44.64,0C189.8,167.59,192.85,162.94,192.87,158.29Z"/><g class="cls-31"><g class="cls-5"><path class="cls-24" d="M192.87,158.29v7.14c0,4.65-3.07,9.29-9.18,12.84a36.24,36.24,0,0,1-8,3.39v-7.14a36.7,36.7,0,0,0,8-3.38C189.8,167.59,192.85,162.94,192.87,158.29Z"/><path class="cls-1" d="M175.65,174.52v7.14a50.62,50.62,0,0,1-13.54,2v-7.13A50.63,50.63,0,0,0,175.65,174.52Z"/><path class="cls-21" d="M162.11,176.49v7.13c-8.31.11-16.7-1.67-23.06-5.35l-.91-.54v-7.14l.91.55C145.41,174.81,153.8,176.59,162.11,176.49Z"/><path class="cls-1" d="M138.14,170.59v7.14a19.2,19.2,0,0,1-7-7v-7.14A19.2,19.2,0,0,0,138.14,170.59Z"/><path class="cls-1" d="M131.15,163.58v7.14a11.33,11.33,0,0,1-1.42-5.47v-7.14A11.3,11.3,0,0,0,131.15,163.58Z"/></g></g><path class="cls-20" d="M183.55,145.27c12.37,7.15,12.43,18.72.14,25.87s-32.27,7.14-44.64,0-12.44-18.72-.15-25.87S171.18,138.13,183.55,145.27Z"/><path class="cls-21" d="M180.75,148.28c10.81,5.48,10.87,14.37.12,19.85s-28.21,5.48-39,0-10.87-14.37-.13-19.85S169.94,142.8,180.75,148.28Z"/><path class="cls-32" d="M182,148c-5.51-3.19-12.89-4.94-20.77-4.94s-15.31,1.8-20.69,4.93c-4.83,2.8-7.59,6.5-7.59,10.12a4.58,4.58,0,0,0,0,.53c.25,3.5,3,7,7.7,9.7,5.51,3.17,12.88,4.92,20.76,4.92s15.31-1.79,20.69-4.92c4.59-2.66,7.32-6.14,7.57-9.59a4.87,4.87,0,0,0,0-.54C189.68,154.59,186.86,150.86,182,148Zm5.27,11.28c0,2.73-2.32,5.65-6.37,8-5,2.92-12.12,4.6-19.46,4.6s-14.39-1.64-19.54-4.61c-4.12-2.38-6.49-5.33-6.5-8.1a4.53,4.53,0,0,1,0-.52,4.89,4.89,0,0,1,0-.54c0-2.73,2.32-5.65,6.37-8,5-2.92,12.12-4.59,19.46-4.59s14.4,1.63,19.54,4.6c4.13,2.38,6.5,5.33,6.5,8.1a4.67,4.67,0,0,1,0,.52A4.89,4.89,0,0,1,187.23,159.32Z"/><path class="cls-22" d="M182,149.09c-5.51-3.17-12.89-4.92-20.77-4.92s-15.31,1.79-20.69,4.92c-4.59,2.67-7.32,6.14-7.56,9.59.25,3.5,3,7,7.7,9.7,5.51,3.17,12.88,4.92,20.76,4.92s15.31-1.79,20.69-4.92c4.59-2.66,7.32-6.14,7.57-9.59C189.4,155.3,186.62,151.79,182,149.09Zm-1.1,18.23c-5,2.92-12.12,4.6-19.46,4.6s-14.39-1.64-19.54-4.61c-4.12-2.38-6.49-5.33-6.5-8.1a4.53,4.53,0,0,1,0-.52,4.89,4.89,0,0,1,0-.54c0-2.73,2.32-5.65,6.37-8,5-2.92,12.12-4.59,19.46-4.59s14.4,1.63,19.54,4.6c4.13,2.38,6.5,5.33,6.5,8.1a4.67,4.67,0,0,1,0,.52,4.89,4.89,0,0,1,0,.54C187.23,162.05,184.91,165,180.86,167.32Z"/></g><path class="cls-1" d="M145.38,101.85a2,2,0,0,1-.68.26c-1.11.21-1.7-.83-1.33-2.33a37.06,37.06,0,0,1,11-18.24c7.59-6.67,15.37-6.8,18.5-.32.47,1,0,2.69-1.1,3.85s-2.32,1.32-2.79.35c-2.29-4.74-8-4.64-13.54.24A27.21,27.21,0,0,0,147.39,99,4.75,4.75,0,0,1,145.38,101.85Z"/><polygon class="cls-1" points="140.55 100.47 145.97 107.82 151.13 94.18 140.55 100.47"/><path class="cls-1" d="M158.87,116.82c-5.83,3.36-11.4,2.84-14.14-1.74-.53-.9-.12-2.61.92-3.83s2.32-1.49,2.86-.59c2.45,4.1,8,3.76,13.23-.82a27.11,27.11,0,0,0,8.12-13.58,4.26,4.26,0,0,1,2.67-3.13c1.11-.24,1.73.79,1.37,2.28A37,37,0,0,1,162.81,114,25.06,25.06,0,0,1,158.87,116.82Z"/><polygon class="cls-1" points="176.7 95.25 172.08 86.92 166.15 100.46 176.7 95.25"/><polygon class="cls-33" points="222.01 162.66 222.09 201.92 266.92 176.04 266.84 136.78 222.01 162.66"/><g class="cls-5"><polygon class="cls-34" points="295.72 177.22 297.15 176.39 297.07 196.41 295.64 197.24 295.72 177.22"/><polygon class="cls-35" points="261.98 157.72 263.41 156.89 297.15 176.39 295.72 177.22 261.98 157.72"/><polygon class="cls-36" points="295.72 177.22 295.64 197.24 261.89 177.74 261.98 157.72 295.72 177.22"/></g><g class="cls-5"><polygon class="cls-37" points="242.7 163.44 241.56 162.78 266.53 148.36 267.67 149.03 242.7 163.44"/><polygon class="cls-38" points="227.14 199.28 226 198.62 225.89 168.06 227.04 168.73 227.14 199.28"/><polygon class="cls-37" points="227.04 168.73 225.89 168.06 239.91 159.97 241.06 160.64 227.04 168.73"/><polygon class="cls-39" points="241.06 160.64 242.7 163.44 267.67 149.03 267.76 175.83 227.14 199.28 227.04 168.73 241.06 160.64"/></g><g class="cls-5"><polygon class="cls-2" points="230.97 199.82 227.92 198.05 227.83 174.05 230.89 175.82 230.97 199.82"/><polygon class="cls-40" points="230.89 175.82 227.83 174.05 266.66 151.63 269.72 153.41 230.89 175.82"/><polygon class="cls-41" points="269.72 153.41 269.8 177.41 230.97 199.82 230.89 175.82 269.72 153.41"/></g><polygon class="cls-39" points="227.13 195.35 227.13 196.52 227.12 197 226 197 226 197.72 230.92 200.56 230.93 197.63 227.13 195.35"/><g class="cls-5"><polygon class="cls-38" points="230.92 201.46 229.78 200.79 229.69 176.31 230.83 176.97 230.92 201.46"/><polygon class="cls-37" points="230.83 176.97 229.69 176.31 270.31 152.86 271.45 153.52 230.83 176.97"/><polygon class="cls-39" points="271.45 153.52 271.54 178.01 230.92 201.46 230.83 176.97 271.45 153.52"/></g><polygon class="cls-38" points="230.92 201.46 226 198.62 226 195.57 230.93 198.52 230.92 201.46"/><g class="cls-5"><polygon class="cls-37" points="249.16 167.15 248.02 166.49 272.99 152.07 274.13 152.74 249.16 167.15"/><polygon class="cls-38" points="233.6 202.99 232.46 202.33 232.35 171.78 233.5 172.44 233.6 202.99"/><polygon class="cls-37" points="233.5 172.44 232.35 171.78 246.37 163.68 247.52 164.35 233.5 172.44"/><polygon class="cls-39" points="247.52 164.35 249.16 167.15 274.13 152.74 274.23 179.54 233.6 202.99 233.5 172.44 247.52 164.35"/></g><g class="cls-5"><polygon class="cls-2" points="237.43 203.53 234.38 201.76 234.29 177.76 237.35 179.53 237.43 203.53"/><polygon class="cls-40" points="237.35 179.53 234.29 177.76 273.12 155.34 276.18 157.12 237.35 179.53"/><polygon class="cls-41" points="276.18 157.12 276.26 181.12 237.43 203.53 237.35 179.53 276.18 157.12"/></g><polygon class="cls-39" points="233.59 199.06 233.59 200.23 233.58 200.71 232.46 200.71 232.46 201.43 237.38 204.27 237.39 201.34 233.59 199.06"/><g class="cls-5"><polygon class="cls-38" points="237.38 205.17 236.24 204.5 236.15 180.02 237.29 180.69 237.38 205.17"/><polygon class="cls-37" points="237.29 180.69 236.15 180.02 276.77 156.57 277.92 157.23 237.29 180.69"/><polygon class="cls-42" points="277.92 157.23 278 181.72 237.38 205.17 237.29 180.69 277.92 157.23"/></g><polygon class="cls-38" points="237.38 205.17 232.46 202.33 232.46 199.28 237.39 202.23 237.38 205.17"/><g class="cls-5"><polygon class="cls-37" points="256.33 134.33 255.18 133.66 280.15 119.25 281.3 119.91 256.33 134.33"/><polygon class="cls-38" points="240.77 177.2 239.62 176.53 239.52 138.95 240.66 139.62 240.77 177.2"/><polygon class="cls-37" points="240.66 139.62 239.52 138.95 253.54 130.86 254.68 131.52 240.66 139.62"/><polygon class="cls-39" points="254.68 131.52 256.33 134.33 281.3 119.91 281.39 153.75 240.77 177.2 240.66 139.62 254.68 131.52"/></g><g class="cls-5"><polygon class="cls-2" points="244.6 177.74 241.54 175.97 241.46 144.93 244.51 146.71 244.6 177.74"/><polygon class="cls-40" points="244.51 146.71 241.46 144.93 280.29 122.52 283.34 124.29 244.51 146.71"/><polygon class="cls-41" points="283.34 124.29 283.43 155.33 244.6 177.74 244.51 146.71 283.34 124.29"/></g><polygon class="cls-39" points="240.76 173.27 240.76 174.44 240.74 174.92 239.62 174.92 239.62 175.64 244.55 178.48 244.55 175.54 240.76 173.27"/><g class="cls-5"><polygon class="cls-38" points="244.55 179.38 243.4 178.71 243.31 147.2 244.46 147.86 244.55 179.38"/><polygon class="cls-37" points="244.46 147.86 243.31 147.2 283.94 123.74 285.08 124.41 244.46 147.86"/><polygon class="cls-39" points="285.08 124.41 285.17 155.92 244.55 179.38 244.46 147.86 285.08 124.41"/></g><polygon class="cls-38" points="244.55 179.38 239.62 176.53 239.62 173.48 244.55 176.44 244.55 179.38"/><g class="cls-5"><polygon class="cls-37" points="263.24 175.47 262.09 174.8 287.06 160.39 288.2 161.05 263.24 175.47"/><polygon class="cls-38" points="247.68 211.31 246.53 210.64 246.43 180.09 247.57 180.75 247.68 211.31"/><polygon class="cls-37" points="247.57 180.75 246.43 180.09 260.45 172 261.59 172.66 247.57 180.75"/><polygon class="cls-39" points="261.59 172.66 263.24 175.47 288.2 161.05 288.3 187.85 247.68 211.31 247.57 180.75 261.59 172.66"/></g><g class="cls-5"><polygon class="cls-2" points="251.51 211.85 248.45 210.07 248.37 186.07 251.42 187.85 251.51 211.85"/><polygon class="cls-40" points="251.42 187.85 248.37 186.07 287.2 163.66 290.25 165.43 251.42 187.85"/><polygon class="cls-41" points="290.25 165.43 290.34 189.44 251.51 211.85 251.42 187.85 290.25 165.43"/></g><polygon class="cls-39" points="247.67 207.38 247.67 208.55 247.65 209.03 246.53 209.03 246.53 209.75 251.46 212.59 251.46 209.65 247.67 207.38"/><g class="cls-5"><polygon class="cls-38" points="251.46 213.48 250.31 212.82 250.22 188.34 251.37 189 251.46 213.48"/><polygon class="cls-37" points="251.37 189 250.22 188.34 290.84 164.88 291.99 165.55 251.37 189"/><polygon class="cls-39" points="291.99 165.55 292.08 190.03 251.46 213.48 251.37 189 291.99 165.55"/></g><polygon class="cls-38" points="251.46 213.48 246.53 210.64 246.53 207.59 251.46 210.55 251.46 213.48"/><g class="cls-5"><polygon class="cls-34" points="257.7 199.18 259.13 198.34 259.05 218.36 257.62 219.19 257.7 199.18"/><polygon class="cls-35" points="223.95 179.67 225.39 178.84 259.13 198.34 257.7 199.18 223.95 179.67"/><polygon class="cls-36" points="257.7 199.18 257.62 219.19 223.87 199.69 223.95 179.67 257.7 199.18"/></g><g class="cls-5"><polygon class="cls-21" points="258.21 194.62 256.86 193.84 256.93 219.66 258.28 220.45 258.21 194.62"/><polygon class="cls-13" points="297.27 172.09 295.92 171.3 256.86 193.84 258.21 194.62 297.27 172.09"/><polygon class="cls-43" points="258.21 194.62 258.28 220.45 297.35 197.91 297.27 172.09 258.21 194.62"/></g><polygon class="cls-2" points="283.12 183.09 278.19 185.94 284.22 188.83 284.22 182.46 283.12 183.09"/><polygon class="cls-44" points="274.91 187.83 274.91 194.22 284.22 188.83 278.19 185.94 274.91 187.83"/><polygon class="cls-33" points="283.12 183.09 283.12 188.31 274.91 193.05 274.91 187.83 283.12 183.09"/><path class="cls-45" d="M233.51,93.67c.68-1.59,1.32-3.68,2.22-6.29a7.11,7.11,0,0,0,.39-2.19,4.25,4.25,0,0,0-.58-2.07,1.22,1.22,0,0,0-.73-.71,1.1,1.1,0,0,0-.87.3,7.81,7.81,0,0,0-2.67,4.81c-.32,1.66-.87,3.28-1.18,5a5.51,5.51,0,0,0-.14,1c0,1.56,1.06,2.51,2.11,2A3.63,3.63,0,0,0,233.51,93.67Z"/><path class="cls-36" d="M240.44,128.68a46.51,46.51,0,0,0-3.24,3.9,7.58,7.58,0,0,0-.88,1,2.22,2.22,0,0,0-.27,1.4c.15.52,1.31.52,1.75.5a3.72,3.72,0,0,0,1.69-.49,2.21,2.21,0,0,0,1-1.25,3,3,0,0,1,.76-1.37c.38-.33.95-.46,1.16-.9a1.37,1.37,0,0,0,.07-.75c-.05-.48-.24-.94-.29-1.4a3.72,3.72,0,0,0-.15-1.06.85.85,0,0,0-.8-.39,1.26,1.26,0,0,0-.84.44Z"/><path class="cls-33" d="M240.22,128.36a45.49,45.49,0,0,0-3.2,3.86,9.48,9.48,0,0,0-.81,1.18,1.75,1.75,0,0,0-.33,1.2c.15.51,1.3.52,1.73.49a3.63,3.63,0,0,0,1.67-.48,2.14,2.14,0,0,0,1-1.23A3.18,3.18,0,0,1,241,132c.38-.32.94-.45,1.15-.89a1.33,1.33,0,0,0,.07-.74c-.05-.47-.23-.92-.28-1.39a3.32,3.32,0,0,0-.16-1,.83.83,0,0,0-.79-.38,1.27,1.27,0,0,0-.82.43Z"/><path class="cls-36" d="M236.6,126.41a48.54,48.54,0,0,0-3.9,3.24,7.73,7.73,0,0,0-1,.84,2.25,2.25,0,0,0-.52,1.32c.05.54,1.19.76,1.63.82a3.66,3.66,0,0,0,1.74-.18,2.12,2.12,0,0,0,1.2-1,3.32,3.32,0,0,1,1-1.22c.44-.24,1-.27,1.31-.67a1.38,1.38,0,0,0,.21-.72c0-.48-.06-1,0-1.43a3.21,3.21,0,0,0,0-1.07.83.83,0,0,0-.71-.53,1.33,1.33,0,0,0-.9.28Z"/><path class="cls-33" d="M236.44,126.06a45.46,45.46,0,0,0-3.85,3.21,8.84,8.84,0,0,0-1,1,1.76,1.76,0,0,0-.53,1.12c.05.53,1.18.75,1.61.8a3.59,3.59,0,0,0,1.72-.17,2.13,2.13,0,0,0,1.18-1,3.15,3.15,0,0,1,1-1.2c.43-.24,1-.27,1.29-.66a1.4,1.4,0,0,0,.21-.72c0-.47-.07-.95,0-1.41a3.76,3.76,0,0,0,0-1.06.82.82,0,0,0-.71-.52,1.29,1.29,0,0,0-.88.28Z"/><path class="cls-36" d="M232.76,107c.48,2.79.42,11,3.13,10.19a4.38,4.38,0,0,0,2.35-3.7c0-1-.07-2.45-.05-3.46,0-2.09,1.82-8.88-2.49-10-.64-.17-1.68-1.39-2.2-.93a3.28,3.28,0,0,0-.68,1.52,18.78,18.78,0,0,0-.25,2.12A15.83,15.83,0,0,0,232.76,107Z"/><path class="cls-36" d="M235.06,127.33c.12.59.51,1.23,2.53,1.07.55,0,.8-1.65.87-2.08.32-1.86-.09-4,0-5.92a19,19,0,0,0-.61-5.24,3.51,3.51,0,0,0-.35-1.66c-.82-1.12-2.76-.13-3.25,1.24a2.07,2.07,0,0,0,0,1.39C234.75,118.58,235.05,127.31,235.06,127.33Z"/><path class="cls-35" d="M237.56,114.93c0,.64,0,1.27.05,1.91,0,1,.1,2.06.15,3.09.32,5.76.26,8.7.71,9.91.38,1,1.69.95,2.55.69a1.88,1.88,0,0,0,1-.65,2.92,2.92,0,0,0,.35-1.08,28.91,28.91,0,0,0-.31-10.93,7.47,7.47,0,0,0-.89-2.47c-.17-.26-1.24,1.46-1.51,1.3s.39-.66,0-.65a2.6,2.6,0,0,0-1.69.79Z"/><path class="cls-35" d="M242.5,100.33s-.25-.35-.26-.35a9.41,9.41,0,0,1-3.19.43c-2.38.24-2.57.65-4.12-.43a11.87,11.87,0,0,0,0,3.55c-.1,1.88,1.64,2.07,1.69,3.06.11,2.3.32,6.85.62,9.13a6.85,6.85,0,0,0,.72,2.57,2.69,2.69,0,0,0,2.53,1.32,1.23,1.23,0,0,0,.74-.28c.47-.41,1-.29.91-.91a22.15,22.15,0,0,1,.57-6.12A21.1,21.1,0,0,0,242.5,100.33Z"/><path class="cls-46" d="M242.6,96.48c-.08.6-.13,1.21-.15,1.81C242.47,97.68,242.53,97.08,242.6,96.48Z"/><path class="cls-46" d="M242.45,98.29c0,.37,0,.73,0,1.1h0C242.43,99,242.43,98.65,242.45,98.29Z"/><path class="cls-47" d="M242.45,98.29c0-.61.08-1.21.15-1.81A21.76,21.76,0,0,1,243,94.2c.3-1.34.66-2.41,1-3.73a24.55,24.55,0,0,0,.71-2.39c.14-1.22-.56-2.16-2.14-3.22a22.57,22.57,0,0,0-5.27-2.33c-2.92-.91-3.33.15-4.17,2.48-.78,2.16-.55,5.73-.2,8a32.86,32.86,0,0,1,.34,3.69,14.74,14.74,0,0,1-.26,3.11c2.55,1.81,6,1.35,8.94.64a2.38,2.38,0,0,0,.52-.15A15.44,15.44,0,0,1,242.45,98.29Z"/><path class="cls-2" d="M239.6,89.65c-.57,1.63.29,3.26.29,4.88a62.27,62.27,0,0,1-.14,6.4,22.55,22.55,0,0,0,2.23-.45,2.38,2.38,0,0,0,.52-.15,15.44,15.44,0,0,1-.05-2c0-.61.08-1.21.15-1.81A21.76,21.76,0,0,1,243,94.2c.3-1.34.66-2.41,1-3.73a24.55,24.55,0,0,0,.71-2.39,2.41,2.41,0,0,0-.66-2C242.34,87.09,240.36,87.67,239.6,89.65Z"/><path class="cls-35" d="M237.28,98.36l-1,.86c-.45-.71-.46-.77-.88-1.48a48.73,48.73,0,0,1,1.18-12.2c.38.28.58.41,1,.69A45.27,45.27,0,0,0,237.28,98.36Z"/><path class="cls-48" d="M236.15,85.44a.13.13,0,0,0,0,.06,1.29,1.29,0,0,0,.12.38,3.72,3.72,0,0,0,.33.7.61.61,0,0,0,.28.29.51.51,0,0,0,.45-.06c.16-.09.45-.22.41-.41a4.84,4.84,0,0,0-.14-.51,1.84,1.84,0,0,0-.58-1c-.35-.24-.6.11-.78.37A.38.38,0,0,0,236.15,85.44Z"/><path class="cls-49" d="M240.55,83.74c.07,2.35-4.34,2.39-4.28.18.09-3.09.28-3.44,1.73-3.92a4.4,4.4,0,0,1,1.24-.24c1.53,0,.94.75.88,1.29C240,82.67,240.52,82.89,240.55,83.74Z"/><path class="cls-50" d="M240.55,83.74c0-.85-.6-1.07-.43-2.69.06-.54.65-1.32-.88-1.29A4.4,4.4,0,0,0,238,80c-1.43.47-1.63.82-1.72,3.79,1.22-.12,2.3-1.46,3.54-.66a2.13,2.13,0,0,1,.71.92A1.62,1.62,0,0,0,240.55,83.74Z"/><path class="cls-49" d="M239.82,83.13c-1.24-.8-2.32.54-3.54.66a.53.53,0,0,0,0,.13c-.06,2.11,3.95,2.17,4.26.13A2.13,2.13,0,0,0,239.82,83.13Z"/><path class="cls-45" d="M237,85.19c-.08.25-.42.34-.63.48s-.27.19-.39.17-.21-.2-.25-.31a6.61,6.61,0,0,1-.5-2.41,1,1,0,0,1,.24-.73.71.71,0,0,1,.73-.1c.24.1.3.58.21.8A1.88,1.88,0,0,0,237,85.19Z"/><path class="cls-45" d="M237,85.2a5.61,5.61,0,0,0,.85,1c.12.1.21.23.37.18A6,6,0,0,0,240.85,84a1.14,1.14,0,0,0-.28-.93,4.12,4.12,0,0,0-.33-.4,5.13,5.13,0,0,1-.46,1A4,4,0,0,1,237,85.2Z"/><path class="cls-51" d="M235.79,98.25a6,6,0,0,0-1.12,0c-.23,0,.41.33.27.52s-.6.48-.56.83a3.25,3.25,0,0,0,.18.82,1.32,1.32,0,0,0,.52.64.73.73,0,0,0,.31.09.78.78,0,0,0,.22,0l1.21-.32a.86.86,0,0,0,.54-.33,1.48,1.48,0,0,0,.21-1.23,1.42,1.42,0,0,0-.28-.61c-.12-.12-.35-.13-.51-.18C236.45,98.38,236.12,98.3,235.79,98.25Z"/><path class="cls-51" d="M236.72,98.38l-1.1-.82a1.79,1.79,0,0,0-.46-.27,2.79,2.79,0,0,0-.39-.1c-.13,0-.24-.07-.37-.09a1.82,1.82,0,0,0-1.08.25,1.11,1.11,0,0,0-.39.24.23.23,0,0,0-.07.26.32.32,0,0,0,.12.08,1,1,0,0,0,.39.1,4.12,4.12,0,0,0,.47-.13.84.84,0,0,1,.72.36c.17.22.28.49.43.72a1,1,0,0,0,.65.5,1.51,1.51,0,0,0,.3,0,1.47,1.47,0,0,0,.65-.21.84.84,0,0,0,.37-.44C237,98.6,236.88,98.5,236.72,98.38Z"/><path class="cls-45" d="M236.77,100.61a2.14,2.14,0,0,0,1.68.26c1.65-.23,8.37-.76,7.38-3.61-.15-.43-.88-.57-1.37-.65a24.91,24.91,0,0,0-7.41,1.82,1.55,1.55,0,0,0-.7.58A1.63,1.63,0,0,0,236.77,100.61Z"/><polygon class="cls-35" points="232.92 93.56 227.07 90.17 227.35 89.98 233.2 93.37 232.92 93.56"/><polygon class="cls-36" points="233.2 93.37 235.67 100.92 235.2 100.61 232.92 93.56 233.2 93.37"/><polygon class="cls-33" points="235.39 101.11 229.54 97.72 227.07 90.17 232.92 93.56 235.39 101.11"/><path class="cls-51" d="M235.07,99.82c.24-.14.07-.89,0-1-.24-.29-.2.18-1.06.17a2.07,2.07,0,0,1-.74-.1c-.17-.06-.37-.17-.52-.07a.31.31,0,0,0-.09.37c-.23-.1-.27.33-.1.53.33.4-.25.46.43,1l-.13.09c.08.74,1.91.51,2.65.37C236.79,100.92,235.66,99.91,235.07,99.82Z"/><path class="cls-51" d="M228.94,95.11c-.41.2-.63-.29-.45-.46s.83-.23,1,.11S229.21,95,228.94,95.11Z"/><path class="cls-51" d="M227.83,92.8c-.25.18-.06.65.07.66a.54.54,0,0,0,.22-.09.94.94,0,0,1,.53,0l.22,0a.21.21,0,0,0,.17-.13c.12-.32-.38-.5-.53-.54A.71.71,0,0,0,227.83,92.8Z"/><path class="cls-51" d="M228,94c.2.2.27-.16.82-.07l.23,0a.21.21,0,0,0,.17-.13c.11-.33-.4-.5-.54-.53C228,93.15,227.62,93.68,228,94Z"/><path class="cls-51" d="M228.23,94.59c.23.09.26,0,.69-.06.66-.08.42-.68-.37-.56l-.32.06A.31.31,0,0,0,228.23,94.59Z"/><path class="cls-45" d="M246.16,96.72c.05-1.72-.13-3.9-.26-6.65a6.84,6.84,0,0,0-.45-2.19,4.25,4.25,0,0,0-1.3-1.71,1.2,1.2,0,0,0-.94-.39,1.15,1.15,0,0,0-.7.6,7.86,7.86,0,0,0-.7,5.45c.31,1.67.4,3.38.73,5a4.59,4.59,0,0,0,.24,1c.61,1.43,1.9,1.94,2.7,1.11A3.64,3.64,0,0,0,246.16,96.72Z"/><path class="cls-51" d="M234.75,76.34a3.05,3.05,0,0,0-.47,1.65,2.17,2.17,0,0,0,.13.76,2.5,2.5,0,0,1,.23.7,3.11,3.11,0,0,1-.31.9,1.11,1.11,0,0,0,0,.78,3.14,3.14,0,0,0,.24.39c.39.61,0,1.51.7,2a1.13,1.13,0,0,0,.58.14,7.68,7.68,0,0,0,1.82-.49,4.78,4.78,0,0,0,1.3-1.16,5.79,5.79,0,0,0,.91-1.09c0-.11-.08-.13,0-.19s.16-.49.24-.49a.85.85,0,0,0,.29-.17c.16-.1.23.27.28.09a7.51,7.51,0,0,0,.45-2.29,2.7,2.7,0,0,0-1.86-2.95,3.84,3.84,0,0,0-2.59-.05A3.76,3.76,0,0,0,234.75,76.34Z"/><path class="cls-52" d="M241.14,77.82a2.7,2.7,0,0,0-1.86-2.95,3.71,3.71,0,0,0-1.55-.24c-.79,1.57.35,3.58-.51,5.21-.28.38-.86.67-.86,1.15-.19.85.67,1.62.2,2.48.39-.11.83-.25,1.07-.35a4.78,4.78,0,0,0,1.3-1.16,5.79,5.79,0,0,0,.91-1.09c0-.11-.08-.13,0-.19s.16-.49.24-.49a1,1,0,0,0,.3-.17c.15-.1.22.27.27.09A7.51,7.51,0,0,0,241.14,77.82Z"/><path class="cls-53" d="M237.49,77a1.08,1.08,0,0,1,.59.06,1,1,0,0,1,.55.83,11.47,11.47,0,0,1-.17,2.26.75.75,0,0,0,.06.33c.15.26.44.12.6,0s.18-.24.28-.35a.71.71,0,0,1,.37-.24.4.4,0,0,1,.45.36,1.31,1.31,0,0,1-.06.59s-.11.39,0,.39a4.51,4.51,0,0,0,1.45-3.47,2.28,2.28,0,0,0-1.4-2.5,2.51,2.51,0,0,0-2.33-1,5.2,5.2,0,0,0-2.51.8l-.09.06a3.08,3.08,0,0,0-.95.88c-.65,1,.23,1.81,1.28,1.64a9.08,9.08,0,0,0,1.42-.47A3,3,0,0,1,237.49,77Z"/><path class="cls-54" d="M237.49,77a1.08,1.08,0,0,1,.59.06,1,1,0,0,1,.55.83,11.47,11.47,0,0,1-.17,2.26.75.75,0,0,0,.06.33c.15.26.44.12.6,0s.18-.24.28-.35a.71.71,0,0,1,.37-.24.4.4,0,0,1,.45.36,1.31,1.31,0,0,1-.06.59s-.11.39,0,.39a4.51,4.51,0,0,0,1.45-3.47,2.28,2.28,0,0,0-1.4-2.5,9.27,9.27,0,0,0-1.47.72A9,9,0,0,0,237.49,77Z"/><path class="cls-52" d="M240,79.27c.62,0,.78.73.35,1.33a2.88,2.88,0,0,1-.51.47c-1.11,1-1.39-.08-1-.41C239.61,79.91,239.2,79.32,240,79.27Z"/><path class="cls-46" d="M239.61,80.74c.07-.06.78-.48.3-.77-.13-.08-.28,0-.3.18s0,.15,0,.23a.61.61,0,0,1-.05.12c-.06.1-.28.2-.24.35S239.57,80.78,239.61,80.74Z"/><g class="cls-6"><ellipse class="cls-7" cx="161.3" cy="53.42" rx="88.61" ry="51.16"/><ellipse class="cls-8" cx="161.3" cy="70.84" rx="78.77" ry="45.48"/><ellipse class="cls-9" cx="161.3" cy="88.25" rx="68.93" ry="39.8"/><ellipse class="cls-10" cx="161.3" cy="105.66" rx="59.09" ry="34.12"/><ellipse class="cls-11" cx="161.3" cy="123.07" rx="49.25" ry="28.44"/><path class="cls-12" d="M189.17,124.4c15.39,8.88,15.39,23.29,0,32.18s-40.35,8.89-55.74,0-15.4-23.3,0-32.18S173.77,115.51,189.17,124.4Z"/><path class="cls-13" d="M182.21,145.83c11.55,6.66,11.55,17.48,0,24.14s-30.28,6.67-41.83,0-11.55-17.48,0-24.14S170.66,139.16,182.21,145.83Z"/></g><path class="cls-20" d="M183.55,145.27c12.37,7.15,12.43,18.72.14,25.87s-32.27,7.14-44.64,0-12.44-18.72-.15-25.87S171.18,138.13,183.55,145.27Z"/><path class="cls-21" d="M180.75,148.28c10.81,5.48,10.87,14.37.12,19.85s-28.21,5.48-39,0-10.87-14.37-.13-19.85S169.94,142.8,180.75,148.28Z"/><path class="cls-1" d="M182,148c-5.51-3.19-12.89-4.94-20.77-4.94s-15.31,1.8-20.69,4.93c-4.83,2.8-7.59,6.5-7.59,10.12a4.58,4.58,0,0,0,0,.53c.25,3.5,3,7,7.7,9.7,5.51,3.17,12.88,4.92,20.76,4.92s15.31-1.79,20.69-4.92c4.59-2.66,7.32-6.14,7.57-9.59a4.87,4.87,0,0,0,0-.54C189.68,154.59,186.86,150.86,182,148Z"/><path class="cls-22" d="M182,149.09c-5.51-3.17-12.89-4.92-20.77-4.92s-15.31,1.79-20.69,4.92c-4.59,2.67-7.32,6.14-7.56,9.59.25,3.5,3,7,7.7,9.7,5.51,3.17,12.88,4.92,20.76,4.92s15.31-1.79,20.69-4.92c4.59-2.66,7.32-6.14,7.57-9.59C189.4,155.3,186.62,151.79,182,149.09Zm-1.1,18.23c-5,2.92-12.12,4.6-19.46,4.6s-14.39-1.64-19.54-4.61c-4.12-2.38-6.49-5.33-6.5-8.1a4.53,4.53,0,0,1,0-.52,4.89,4.89,0,0,1,0-.54c0-2.73,2.32-5.65,6.37-8,5-2.92,12.12-4.59,19.46-4.59s14.4,1.63,19.54,4.6c4.13,2.38,6.5,5.33,6.5,8.1a4.67,4.67,0,0,1,0,.52,4.89,4.89,0,0,1,0,.54C187.23,162.05,184.91,165,180.86,167.32Z"/><path class="cls-36" d="M164.51,138.57a25,25,0,0,0,0,3.35,20.28,20.28,0,0,1-.4,3.64,32.13,32.13,0,0,0-.68,3.21,4.83,4.83,0,0,0,.6,3.17,1.81,1.81,0,0,0,.59.58,1.7,1.7,0,0,0,1.09.14,3.48,3.48,0,0,0,2.49-2.19,6.78,6.78,0,0,0,.32-3.41c-.14-1.14-.43-2.26-.58-3.41a20.6,20.6,0,0,1,.05-4.08c0-.45,0-.72.3-1.07a2.45,2.45,0,0,1,1.37-.7,6.46,6.46,0,0,0,1.39-.19,1.45,1.45,0,0,0,.86-1.54,2.36,2.36,0,0,0-.67-1.16,4,4,0,0,0-2.55-1.42,3.29,3.29,0,0,0-2.65,1.24,6.53,6.53,0,0,0-1.27,2.73Q164.6,138,164.51,138.57Z"/><path class="cls-51" d="M185.08,172.89c.76.62,1.42,4.47-1.66,4.38-1.59,0-3-1.12-4.34-2-.79-.49-.39-1.35-1.2-1.76-3.76-1.92-8.56-3-7.87-7.5.07-.51.21-2.66.6-2.9s1.87.38,2.23.44c3.43.57,3.88.59,4.44,1,.1,2.58.51,3,1.92,3.88C179.85,168.8,184.51,172.42,185.08,172.89Z"/><path class="cls-48" d="M185.94,188.59v-2.81h.78l-.2,2.84A.4.4,0,0,1,185.94,188.59Z"/><path class="cls-48" d="M191.08,188.14a18.7,18.7,0,0,1,1.2,1.71.73.73,0,0,1,.15.47.55.55,0,0,1-.29.39,1.41,1.41,0,0,1-.48.15,5,5,0,0,1-2-.11,2.11,2.11,0,0,1-1-.5,3.07,3.07,0,0,1-.63-1.41,1.93,1.93,0,0,0-.82-1.28c-.13-.07-.27-.11-.4-.17a1.77,1.77,0,0,1-.62-2.55c.29-.45.67-.42,1.13-.23a4.33,4.33,0,0,1,1.25,1.09l.18.16c.43.35-.19-1.6.06-1.07A18,18,0,0,0,191.08,188.14Z"/><path class="cls-50" d="M188.32,168.71a2,2,0,0,1,.61,1.2,36,36,0,0,1,.14,5.4c0,1.61-.35,3.19-.36,4.8a35.58,35.58,0,0,0,.35,4.84c.12.53-.85.9-1.33.66s-1-.59-1-1c-.22-2.11-1.33-4-1.85-6.08a12.67,12.67,0,0,1-.14-5.31c.27-1.44.36-3.25,1.4-4.38A1.53,1.53,0,0,1,188.32,168.71Z"/><path class="cls-50" d="M189,184.31a6.1,6.1,0,0,0,.21,1.05,3.59,3.59,0,0,0,.12.47,3.17,3.17,0,0,0,.24.49c.17.29.35.56.54.83a6.13,6.13,0,0,1,.57.77c.1.19.22.6,0,.75a.58.58,0,0,1-.45,0A2.38,2.38,0,0,1,189,188a8.32,8.32,0,0,0-1-1c-.25-.17-.53-.29-.78-.47a1.75,1.75,0,0,1-.85-1.51c0-.33.24-.6.26-.92a2.08,2.08,0,0,1,.17-1Z"/><path class="cls-3" d="M188.53,191.41a1.24,1.24,0,0,1,0,.27,1,1,0,0,1-.33.83,1,1,0,0,1-.69.22,2.7,2.7,0,0,1-2-1.43c-.51-.85-.69-2-1.4-2.66-.16-.17-.36-.3-.51-.47a1.78,1.78,0,0,1-.39-1,1.43,1.43,0,0,1,.18-.91A1.24,1.24,0,0,1,185,186c.37.19.93.07,1.21.41a3.48,3.48,0,0,1,.5.85,24.18,24.18,0,0,1,1.67,3.57A2.74,2.74,0,0,1,188.53,191.41Z"/><path class="cls-52" d="M184.36,168.31c.59,4,.3,9,.85,13a64.82,64.82,0,0,0,1.52,6.59c.21.55-1.28.88-1.85.68-.39-.13-1.07-1.64-1.17-2-.56-2.26-2.06-4.16-2.94-6.32a15.37,15.37,0,0,1-.76-7.89,1.55,1.55,0,0,1,.72-1.21Z"/><path class="cls-52" d="M185.77,186.11c.12.25.5.22.58.49s.35,1.07.49,1.35a4.05,4.05,0,0,1,.36,1.23.84.84,0,0,1-1.32.78,4.37,4.37,0,0,1-.88-.89,6,6,0,0,1-.62-.95,7.6,7.6,0,0,1-.78-2.15,5,5,0,0,1,0-1,2.65,2.65,0,0,1,.41.21c.54.28,1.07.57,1.6.86C185.85,186.11,185.66,185.88,185.77,186.11Z"/><path class="cls-4" d="M177.34,157.16c-.73-1.7-1.42-3.94-2.37-6.73a7.5,7.5,0,0,1-.42-2.35,4.53,4.53,0,0,1,.62-2.22,1.3,1.3,0,0,1,.78-.76,1.2,1.2,0,0,1,.93.32c1.61,1.22,1.88,2.87,2.25,4.79a55.35,55.35,0,0,1,.44,5.92c0,.35.45,3.48-.67,3A3.92,3.92,0,0,1,177.34,157.16Z"/><path class="cls-4" d="M177.71,155.46c.38-.3.84-2,1.08-1.62s2.05,3.21,2.83,4.3a20.07,20.07,0,0,0-2.83,2.45c-1.17-1.42-2.23-3-2.21-4C176.58,156.11,177.19,155.85,177.71,155.46Z"/><path class="cls-46" d="M166.34,158.9c.09.69.15,1.39.18,2.08C166.48,160.28,166.42,159.59,166.34,158.9Z"/><path class="cls-46" d="M166.52,161q0,.63,0,1.26h0C166.53,161.82,166.53,161.4,166.52,161Z"/><path class="cls-55" d="M186.63,173.73a17.18,17.18,0,0,1-2,1.2,8.68,8.68,0,0,1-4.3,1.12c-1.19-.12-2.08-1.4-3.16-1.83-3.38-1.34-4.81-1.64-7-3.38s-2.3-4.3-1.95-6.88c.08-.56.13-1.12.24-1.67.06-.3.12-.89.41-1.07s2.25.46,2.68.53c4.13.69,5.67-.84,6.35-.38,1.77,1.21,3.61,2.3,5.46,3.37,1.45.83,2.83,1.71,4.24,2.6a4.68,4.68,0,0,1,1.56,2,2.8,2.8,0,0,1,.06,2.38,3.49,3.49,0,0,1-.86.81C187.77,172.93,187.21,173.34,186.63,173.73Z"/><path class="cls-46" d="M168.63,145.94a16.38,16.38,0,0,1,3-.94l.49-.1a6.13,6.13,0,0,1,3.67.29l0,0v7.52h-7.2Z"/><path class="cls-26" d="M165.38,149.22c.16-1.73,2.12-2.69,3.56-3.56a3.62,3.62,0,0,0,2.27,3.21,1.86,1.86,0,0,0,2.18-.66,4.86,4.86,0,0,0,.55-3.54,7.11,7.11,0,0,1,1.86.52,3.55,3.55,0,0,1,1.4,1.18,4.28,4.28,0,0,1,.32,1.4,11.07,11.07,0,0,0,.52,1.6c.26.62.69,1.2.92,1.84a4,4,0,0,1-.12,2.19,6.75,6.75,0,0,1-.43.95c-.25.49-.48,1-.7,1.49a5.13,5.13,0,0,0-.43,1.43,5.32,5.32,0,0,0,.06,1.32c.19,1.19,1,2.78,0,3.79a7.12,7.12,0,0,1-2.27,1.44,6.37,6.37,0,0,1-1.2.36,6.55,6.55,0,0,1-5-1.21c-.15-.12-.24-.18-.27-.34a3.08,3.08,0,0,1,0-.43,11.87,11.87,0,0,1,.08-1.33,13,13,0,0,0-.1-2.79c-.47-2.77-2.3-5.14-3-7.85A3.06,3.06,0,0,1,165.38,149.22Z"/><path class="cls-4" d="M165.93,147.87c2.13.45,1.81,4.38,2.93,6.1.83,1.34,2.59,1,4,1.14a2.71,2.71,0,0,0-1.55,2.37,26.52,26.52,0,0,0,.5,6.68,6.14,6.14,0,0,1-3-1.19c-.15-.12-.24-.18-.27-.34a3.08,3.08,0,0,1,0-.43,11.87,11.87,0,0,1,.08-1.33,13,13,0,0,0-.1-2.79c-.47-2.77-2.3-5.14-3-7.85a3.06,3.06,0,0,1-.11-1A2.61,2.61,0,0,1,165.93,147.87Z"/><path class="cls-4" d="M172.61,148.84c.09.29,1.31.5,1.45.47s.23-.22.28-.34a7.43,7.43,0,0,0,.57-2.75,1.12,1.12,0,0,0-.28-.84.83.83,0,0,0-.82-.11c-.28.12-.18.14-.08.39C174.08,146.56,173.23,148.38,172.61,148.84Z"/><path class="cls-46" d="M169.27,146.15c-.08,2.65,4.54,2.7,4.48.21-.1-3.48-.29-3.88-1.82-4.41a4.07,4.07,0,0,0-1.29-.27c-1.61,0-1,.84-.92,1.45C169.9,145,169.3,145.2,169.27,146.15Z"/><path class="cls-50" d="M171.93,142a4.07,4.07,0,0,0-1.29-.27c-1.61,0-1,.84-.92,1.45a4.6,4.6,0,0,1,0,1.19,6.81,6.81,0,0,0,4,2.54,2,2,0,0,0,.06-.5C173.65,142.88,173.46,142.48,171.93,142Z"/><path class="cls-51" d="M171.2,144.42l-.4-.35a7,7,0,0,1-1.25-1.41,4.49,4.49,0,0,1,.37-5.37,4.09,4.09,0,0,1,4-1.07,6.32,6.32,0,0,1,1.08.45,2.88,2.88,0,0,1,.82.57,2.65,2.65,0,0,1,.37.55,2.71,2.71,0,0,1,.28.68c.27,1.08-.45,2.19,0,3.26.09.23.23.44.31.68a.86.86,0,0,1,0,.72c-.13.2-.29.3-.36.52s-.17.63-.25.93a4.58,4.58,0,0,1-.36,1c-.41.74-1,.79-1.75.5A10.23,10.23,0,0,1,171.2,144.42Z"/><path class="cls-35" d="M167.87,139.33c.08-2.1.7-2.46,1.5-3.13a4.21,4.21,0,0,1,2.82-.91,5.91,5.91,0,0,1,2.91.92l.11.07a2.77,2.77,0,0,1,1.08,1.12,3.06,3.06,0,0,1,.28.82c.08.54-.38.77-.85.91a6,6,0,0,1-2.18-.14,2.78,2.78,0,0,0-.91,0,.87.87,0,0,0-.64.59,2.19,2.19,0,0,0,.17.93,1.62,1.62,0,0,1-.69,1.62.76.76,0,0,1-.85.07c-.29-.14-.6-.37-.92-.16s-.19.57-.12.85c0,.06.32.5.16.5A4.77,4.77,0,0,1,167.87,139.33Z"/><path class="cls-36" d="M172,139.59a2.19,2.19,0,0,0,.17.93,1.62,1.62,0,0,1-.69,1.62.76.76,0,0,1-.85.07c-.29-.14-.6-.37-.92-.16s-.08.53,0,.81c0,.06.21.54.05.54a4.77,4.77,0,0,1-1.87-4.07,3.87,3.87,0,0,1,.62-2.31,9.46,9.46,0,0,1,1.82,1A11.27,11.27,0,0,1,172,139.59Z"/><path class="cls-51" d="M169.88,141.26c-.72,0-.9.84-.41,1.53a3.38,3.38,0,0,0,.59.54c1.28,1.09,1.61-.09,1.2-.46C170.31,142,170.78,141.32,169.88,141.26Z"/><g class="cls-5"><polygon class="cls-35" points="191.61 167.36 191.6 168.44 179.13 175.68 179.14 174.6 191.61 167.36"/><polygon class="cls-56" points="179.14 174.6 179.13 175.68 171.4 171.22 171.4 170.14 179.14 174.6"/><polygon class="cls-35" points="191.61 167.36 179.14 174.6 171.4 170.14 183.87 162.89 191.61 167.36"/><polygon class="cls-57" points="181.87 166.67 178.48 168.62 176.64 167.56 180.02 165.6 181.87 166.67"/><polygon class="cls-57" points="174.79 171.34 186.18 164.72 190.25 167.07 178.86 173.69 174.79 171.34"/></g><path class="cls-22" d="M164.9,160.18c-.35-1.86-.55-4.24-.9-7.22a8,8,0,0,1,.1-2.44,4.73,4.73,0,0,1,1.1-2.07,1.36,1.36,0,0,1,1-.59,1.24,1.24,0,0,1,.85.53,8.53,8.53,0,0,1,1.73,5.75c0,1.85.16,3.7.1,5.56a4.93,4.93,0,0,1-.09,1.08c-.4,1.65-1.71,2.43-2.72,1.68A4,4,0,0,1,164.9,160.18Z"/><path class="cls-52" d="M182.6,164.55a5,5,0,0,0,.62.9c.16.16.05-.51.28-.5s.71.23,1,0a3.61,3.61,0,0,0,.57-.6,1.27,1.27,0,0,0,.23-.77.56.56,0,0,0-.09-.31,1.06,1.06,0,0,0-.15-.15l-.92-.82a1.46,1.46,0,0,0-.21-.16.86.86,0,0,0-.35-.09,1.47,1.47,0,0,0-1.12.5,1.22,1.22,0,0,0-.34.55c0,.17.08.36.13.52A8,8,0,0,0,182.6,164.55Z"/><path class="cls-52" d="M182.19,163.73l-.06,1.34a1.82,1.82,0,0,0,0,.52,2.35,2.35,0,0,0,.14.37,3.59,3.59,0,0,0,.12.35,1.88,1.88,0,0,0,.8.75,1.23,1.23,0,0,0,.4.19c.1,0,.22,0,.25-.1a.19.19,0,0,0,0-.13.78.78,0,0,0-.13-.37c-.09-.13-.25-.2-.36-.32a.83.83,0,0,1-.1-.78c.09-.26.25-.5.36-.75a1,1,0,0,0,0-.8,1.25,1.25,0,0,0-.16-.24,1.67,1.67,0,0,0-.53-.42.83.83,0,0,0-.56-.05C182.21,163.35,182.2,163.53,182.19,163.73Z"/><path class="cls-52" d="M184.27,164.28c-.25-.11-.76.43-.81.58-.11.35.25.06.71.77a2,2,0,0,1,.33.65c0,.18.06.4.22.47a.29.29,0,0,0,.35-.14c0,.25.42,0,.49-.2.14-.48.51,0,.57-.89l.14.06c.57-.47-.62-1.83-1.13-2.36C184.22,162.28,184,163.75,184.27,164.28Z"/><path class="cls-4" d="M178.79,160.59a20.07,20.07,0,0,1,2.83-2.45,23.54,23.54,0,0,1,2.29,3.81c.47,1-1.52,2-2,1.47A30.68,30.68,0,0,1,178.79,160.59Z"/><path class="cls-51" d="M176.61,168.4a5.8,5.8,0,0,1,1,.73c.17.18-.57,0-.57.29s.23.81,0,1.09a4,4,0,0,1-.69.61,1.35,1.35,0,0,1-.87.23.62.62,0,0,1-.33-.11,1,1,0,0,1-.17-.18l-.87-1.05a1.38,1.38,0,0,1-.17-.25.86.86,0,0,1-.09-.39,1.61,1.61,0,0,1,.59-1.22,1.46,1.46,0,0,1,.64-.36c.19,0,.4.1.57.17A10,10,0,0,1,176.61,168.4Z"/><path class="cls-51" d="M175.71,167.92l1.5,0a1.83,1.83,0,0,1,.57,0c.14,0,.28.12.42.17l.38.15a2.22,2.22,0,0,1,.8.91,1.37,1.37,0,0,1,.19.47c0,.1,0,.24-.11.27a.2.2,0,0,1-.15,0,.82.82,0,0,1-.41-.16,4.62,4.62,0,0,1-.34-.41.92.92,0,0,0-.87-.14c-.29.09-.56.25-.84.36a1.07,1.07,0,0,1-.89,0,1,1,0,0,1-.26-.2,1.76,1.76,0,0,1-.45-.6,1,1,0,0,1,0-.63C175.29,167.92,175.49,167.92,175.71,167.92Z"/><path class="cls-22" d="M174.14,169.38a2.35,2.35,0,0,1-1.74-.64c-1.17-.86-6.85-5.58-7.23-7.77-.1-.55.53-.85,1-1.29s2.31.06,2.66.47a91.65,91.65,0,0,1,6.17,7,1.72,1.72,0,0,1,.37.92C175.38,168.61,174.62,169.28,174.14,169.38Z"/><path class="cls-51" d="M176.24,170.25c-.12-.28.52-.83.68-.88.4-.1.05.29.83.83a2.43,2.43,0,0,0,.71.38c.2.06.44.09.51.27a.34.34,0,0,1-.16.39c.27,0,0,.46-.24.53-.55.14-.07.57-1,.6l.06.16c-.54.61-2-.76-2.58-1.36C174,170.12,175.67,170,176.24,170.25Z"/><g class="cls-5"><path class="cls-3" d="M193.4,159.9l.94.55a.25.25,0,0,0-.26,0l-.93-.54A.26.26,0,0,1,193.4,159.9Z"/><g class="cls-58"><g class="cls-5"><path class="cls-3" d="M194.08,160.47l-.93-.54.11-.05.93.55A.3.3,0,0,0,194.08,160.47Z"/><path class="cls-3" d="M194.19,160.43l-.93-.55a.22.22,0,0,1,.14,0l.93.54A.22.22,0,0,0,194.19,160.43Z"/><path class="cls-3" d="M194.34,160.45l-.94-.55Z"/></g></g><polygon class="cls-3" points="182.32 167.31 181.39 166.76 193.15 159.93 194.08 160.47 182.32 167.31"/><path class="cls-3" d="M182,167.92l-.93-.54a.79.79,0,0,1,.36-.62l.93.55A.76.76,0,0,0,182,167.92Z"/><g class="cls-59"><path class="cls-60" d="M182.15,167.46l-.94-.54a.67.67,0,0,1,.18-.16l.93.55A.59.59,0,0,0,182.15,167.46Z"/><path class="cls-60" d="M182,167.65l-.94-.54a1.57,1.57,0,0,1,.12-.19l.94.54A.76.76,0,0,0,182,167.65Z"/></g><path class="cls-35" d="M194.08,160.47c.2-.11.36,0,.36.2l-2.83,6.69-12.48,7.24,2.79-6.69a1,1,0,0,1,.4-.6Z"/><polygon class="cls-56" points="179.13 174.6 178.2 174.06 181.09 167.11 182.03 167.65 179.13 174.6"/></g><path class="cls-4" d="M172.61,148.84a6.61,6.61,0,0,1-1.28,1.13c-.16.09-.29.21-.45.12a6.78,6.78,0,0,1-2.44-3.31,1.37,1.37,0,0,1,.37-1.09s.54-.24.6-.27a5.82,5.82,0,0,0,.28,1.28A4.51,4.51,0,0,0,172.61,148.84Z"/><g class="cls-6"><path class="cls-7" d="M265,141.13a22,22,0,1,1-22-22A22,22,0,0,1,265,141.13Z"/><path class="cls-61" d="M263.24,141.13A20.21,20.21,0,1,1,243,120.92,20.21,20.21,0,0,1,263.24,141.13Z"/><path class="cls-62" d="M261.47,141.13A18.45,18.45,0,1,1,243,122.69,18.44,18.44,0,0,1,261.47,141.13Z"/><path class="cls-63" d="M259.71,141.13A16.68,16.68,0,1,1,243,124.45,16.68,16.68,0,0,1,259.71,141.13Z"/><path class="cls-64" d="M257.94,141.13A14.91,14.91,0,1,1,243,126.22,14.91,14.91,0,0,1,257.94,141.13Z"/><path class="cls-65" d="M256.17,141.13A13.15,13.15,0,1,1,243,128,13.14,13.14,0,0,1,256.17,141.13Z"/><path class="cls-66" d="M254.41,141.13A11.38,11.38,0,1,1,243,129.75,11.38,11.38,0,0,1,254.41,141.13Z"/><path class="cls-67" d="M252.64,141.13a9.62,9.62,0,1,1-9.61-9.61A9.61,9.61,0,0,1,252.64,141.13Z"/><path class="cls-68" d="M250.88,141.13a7.85,7.85,0,1,1-7.85-7.85A7.85,7.85,0,0,1,250.88,141.13Z"/><path class="cls-69" d="M249.11,141.13a6.08,6.08,0,1,1-6.08-6.08A6.08,6.08,0,0,1,249.11,141.13Z"/><path class="cls-70" d="M247.34,141.13a4.32,4.32,0,1,1-4.31-4.31A4.32,4.32,0,0,1,247.34,141.13Z"/><path class="cls-37" d="M245.58,141.13a2.55,2.55,0,1,1-2.55-2.55A2.55,2.55,0,0,1,245.58,141.13Z"/></g><g class="cls-6"><polygon class="cls-71" points="287.62 91.67 290.14 90.21 290.14 87.3 287.62 88.76 287.62 91.67"/><polygon class="cls-13" points="115.07 191.64 117.59 190.19 117.59 187.28 115.07 188.73 115.07 191.64"/><polygon class="cls-13" points="122.53 236.42 125.05 234.97 125.05 232.06 122.53 233.51 122.53 236.42"/><polygon class="cls-13" points="140.55 252.52 143.07 251.06 143.07 248.15 140.55 249.61 140.55 252.52"/><polygon class="cls-13" points="304.89 181.86 307.41 180.4 307.41 177.49 304.89 178.95 304.89 181.86"/><polygon class="cls-72" points="283.7 115.22 286.22 113.77 286.22 110.86 283.7 112.31 283.7 115.22"/><polygon class="cls-72" points="201.1 236.49 203.62 235.03 203.62 232.12 201.1 233.57 201.1 236.49"/><polygon class="cls-73" points="216.51 77.4 219.03 75.94 219.03 73.03 216.51 74.49 216.51 77.4"/></g><g class="cls-6"><path class="cls-7" d="M149.4,162.29a1.12,1.12,0,1,1-1.12-1.11A1.12,1.12,0,0,1,149.4,162.29Z"/><path class="cls-8" d="M149.41,176.61a1.14,1.14,0,1,1-1.13-1.14A1.13,1.13,0,0,1,149.41,176.61Z"/><path class="cls-9" d="M149.43,190.92a1.15,1.15,0,1,1-1.15-1.15A1.16,1.16,0,0,1,149.43,190.92Z"/><path class="cls-10" d="M149.45,205.24a1.17,1.17,0,0,1-2.34,0,1.17,1.17,0,1,1,2.34,0Z"/><path class="cls-11" d="M149.46,219.55a1.19,1.19,0,1,1-1.18-1.18A1.18,1.18,0,0,1,149.46,219.55Z"/><path class="cls-12" d="M149.48,233.87a1.21,1.21,0,1,1-1.2-1.21A1.2,1.2,0,0,1,149.48,233.87Z"/><path class="cls-13" d="M149.5,248.18a1.22,1.22,0,1,1-1.22-1.22A1.22,1.22,0,0,1,149.5,248.18Z"/></g><g class="cls-6"><path class="cls-7" d="M295.44,64.36a1.12,1.12,0,1,1-1.11-1.12A1.12,1.12,0,0,1,295.44,64.36Z"/><path class="cls-8" d="M295.46,78.68a1.14,1.14,0,1,1-1.13-1.14A1.14,1.14,0,0,1,295.46,78.68Z"/><path class="cls-9" d="M295.48,93a1.15,1.15,0,1,1-1.15-1.15A1.15,1.15,0,0,1,295.48,93Z"/><path class="cls-10" d="M295.5,107.3a1.17,1.17,0,1,1-1.17-1.17A1.17,1.17,0,0,1,295.5,107.3Z"/><path class="cls-11" d="M295.51,121.62a1.19,1.19,0,1,1-1.18-1.19A1.18,1.18,0,0,1,295.51,121.62Z"/><path class="cls-12" d="M295.53,135.93a1.21,1.21,0,1,1-1.2-1.2A1.21,1.21,0,0,1,295.53,135.93Z"/><path class="cls-13" d="M295.55,150.25a1.22,1.22,0,0,1-2.44,0,1.22,1.22,0,0,1,2.44,0Z"/></g><g class="cls-6"><path class="cls-7" d="M101.81,44.54a1.12,1.12,0,1,1-1.12-1.11A1.12,1.12,0,0,1,101.81,44.54Z"/><path class="cls-8" d="M101.82,58.86a1.14,1.14,0,1,1-1.13-1.14A1.13,1.13,0,0,1,101.82,58.86Z"/><path class="cls-9" d="M101.84,73.17A1.15,1.15,0,1,1,100.69,72,1.14,1.14,0,0,1,101.84,73.17Z"/><path class="cls-10" d="M101.86,87.49a1.17,1.17,0,0,1-2.34,0,1.17,1.17,0,0,1,2.34,0Z"/><path class="cls-11" d="M101.88,101.8a1.19,1.19,0,1,1-1.19-1.19A1.19,1.19,0,0,1,101.88,101.8Z"/><path class="cls-12" d="M101.89,116.11a1.2,1.2,0,1,1-1.2-1.2A1.21,1.21,0,0,1,101.89,116.11Z"/><path class="cls-13" d="M101.91,130.43a1.22,1.22,0,1,1-1.22-1.22A1.22,1.22,0,0,1,101.91,130.43Z"/></g></g></g></g></svg>