<svg xmlns="http://www.w3.org/2000/svg" xmlns:xlink="http://www.w3.org/1999/xlink" viewBox="0 0 400 300"><defs><clipPath id="clip-path"><rect x="66.39" y="32.23" width="136.6" height="82.26" style="fill:none"/></clipPath></defs><g style="isolation:isolate"><g id="Layer_1" data-name="Layer 1"><path d="M114,272a75.79,75.79,0,0,1-36.58,0A75.46,75.46,0,0,1,114,272Z" style="fill:#e7e8e9;mix-blend-mode:multiply"/><path d="M117.66,196.39c6.4-7,7.44-14.21,1-18.72s0-24-12.26-26.06c-12.4,1-8,21-15,25s-6.63,11.27-1,18.72-8.19,11.6-7,22.92,18.66,14.88,18.66,14.88,17.79-2.14,20.15-13.33S111.26,203.36,117.66,196.39Z" style="fill:#037363"/><path d="M105.43,162.63c.43,8.32.46,16.65.35,25s-.53,16.66-1.08,25c-.7,8.31-1.48,16.62-2.73,24.89a196.13,196.13,0,0,1-5.22,24.58L98,255.92c.46-2,.71-4.11,1.07-6.17l.54-3.08.44-3.1c.27-2.06.6-4.12.83-6.19,1-8.27,1.81-16.56,2.4-24.86s1-16.61,1.41-24.93q.28-6.24.43-12.48C105.28,171,105.34,166.79,105.43,162.63Z" style="fill:#018d7c"/><path d="M95,179.66c1,.64,1.88,1.33,2.82,2s1.82,1.38,2.72,2.09q2.67,2.15,5.22,4.38l-.89-.07a110.65,110.65,0,0,1,10.74-5.5,107.27,107.27,0,0,1-10,6.52l-.47.27-.41-.35c-1.73-1.47-3.41-3-5-4.53-.82-.78-1.62-1.56-2.42-2.36S95.68,180.5,95,179.66Z" style="fill:#018d7c"/><path d="M92.37,209.16c1,.72,2,1.51,3,2.26s2,1.57,2.93,2.37c1.92,1.59,3.8,3.23,5.64,4.89l-.92-.07c1.93-1.23,3.87-2.44,5.85-3.6,1-.58,2-1.15,3-1.71s2-1.12,3.07-1.63c-.87.73-1.79,1.4-2.68,2.09s-1.82,1.35-2.75,2c-1.86,1.32-3.75,2.58-5.66,3.83l-.49.32-.44-.38c-1.85-1.66-3.68-3.34-5.45-5.06-.89-.86-1.76-1.73-2.63-2.62S93.17,210.09,92.37,209.16Z" style="fill:#018d7c"/><path d="M98.85,200.91c4.48-6.9,4.22-13.38-2.18-16.54s-3.92-21.07-15-21.34C71,165.47,78,182.42,72.63,186.77s-4,10.7,2.18,16.54-5.3,11.18-2.44,21S91.15,235,91.15,235s15.26-4.07,15.51-14.17S94.37,207.81,98.85,200.91Z" style="fill:#018d7c"/><path d="M82.64,172.81c1.73,7.24,3.11,14.55,4.36,21.87s2.25,14.68,3.11,22,1.41,14.76,1.65,22.17a173.19,173.19,0,0,1-.58,22.2l.09-5.55c.07-1.85,0-3.7-.06-5.54l0-2.77-.12-2.77c-.09-1.85-.13-3.69-.27-5.54q-.66-11.05-1.94-22.09c-.75-7.36-1.78-14.7-2.81-22-.5-3.67-1.06-7.33-1.64-11S83.24,176.47,82.64,172.81Z" style="fill:#037363"/><path d="M76.21,189c1,.43,1.87.93,2.8,1.4s1.83,1,2.73,1.51c1.79,1,3.55,2.09,5.29,3.19l-.79,0A92.74,92.74,0,0,1,94.76,189,90.41,90.41,0,0,1,87.09,196l-.37.3L86.3,196c-1.75-1.08-3.47-2.19-5.16-3.35-.85-.58-1.68-1.16-2.51-1.77S77,189.69,76.21,189Z" style="fill:#037363"/><path d="M78.74,215.22c1,.51,2,1.08,3,1.62s2,1.13,3,1.71c2,1.16,3.86,2.36,5.75,3.59l-.83.06c1.49-1.32,3-2.62,4.55-3.88.77-.64,1.56-1.26,2.36-1.87s1.59-1.23,2.43-1.81c-.64.74-1.34,1.44-2,2.17s-1.38,1.4-2.09,2.09c-1.41,1.39-2.87,2.73-4.34,4.06l-.38.34-.44-.28q-2.85-1.83-5.61-3.76c-.92-.65-1.82-1.31-2.72-2S79.6,215.94,78.74,215.22Z" style="fill:#037363"/><polygon points="111.16 243.86 110.54 247.67 109.95 251.24 109.42 254.54 108.83 258.11 106.51 272.35 83.92 272.35 81.6 258.11 81.01 254.54 80.48 251.24 79.89 247.67 79.27 243.86 111.16 243.86" style="fill:#a97d50"/><polygon points="110.54 247.67 109.95 251.24 80.48 251.24 79.89 247.67 110.54 247.67" style="fill:#fff"/><polygon points="109.42 254.54 108.83 258.11 81.6 258.11 81.01 254.54 109.42 254.54" style="fill:#fff"/><path d="M350.63,275a922.85,922.85,0,0,1-125.12,8.57A922.92,922.92,0,0,1,100.38,275a917.72,917.72,0,0,1,250.25,0Z" style="fill:#e7e8e9;mix-blend-mode:multiply"/><polygon points="119.4 274.7 115.78 274.7 144.05 182.35 152.22 182.35 119.4 274.7" style="fill:#8c5f3d"/><polygon points="214.18 274.7 217.79 274.7 198.95 182.35 190.78 182.35 214.18 274.7" style="fill:#8c5f3d"/><polygon points="314.36 263.72 303.29 263.72 303.43 261.01 305.39 222.56 305.87 213.19 310.12 213.19 314.13 260.96 314.36 263.72" style="fill:#d1d2d4"/><polygon points="279.5 273.96 308.83 258.09 308.83 273.24 279.5 273.96" style="fill:#d1d2d4"/><polygon points="338.15 273.96 314.58 273.37 308.82 273.23 308.82 258.09 310.65 259.07 314.13 260.96 338.15 273.96" style="fill:#d1d2d4"/><path d="M334.34,182,288.9,216l-20.73-2.59S291,154.78,298.55,136c1-2.37,1.68-4.1,2.07-5,2.4-7.93,12.51-7.59,28.12-7.1l.69,7.1Z" style="fill:#3e2e59"/><path d="M263.86,156.08l-2.18,8.17-22.85,11v3.05h7.82s22.27-4.84,22.91-6.3,3.88-12.11,3.88-12.11Z" style="fill:#ef7b71"/><polygon points="256.96 225.08 264.46 253.98 261.92 254.34 254.99 255.31 241.72 224.02 250.63 224.64 256.96 225.08" style="fill:#f49e81"/><polygon points="256.96 225.08 264.46 253.98 261.92 254.34 250.63 224.64 256.96 225.08" style="fill:#ef7b71"/><path d="M266.08,251.73a118.53,118.53,0,0,1,5.29,11.07l.23.71.74,2.33-4.07,1.32-1.59-2.28-.7-1-.39,1.31-.94,3.15-20.88,6.76-1-3a2.54,2.54,0,0,1-.05-.49,1.73,1.73,0,0,1,.49-1.28c1.54-1.52,7.34-6.59,8.63-8.78,1-1.69,1.34-4.74,1.44-6Z" style="fill:#995652"/><path d="M256.08,259.91l.09.09c.23.22.45.6.17.87a.9.9,0,0,1-.54.2,6.15,6.15,0,0,1-2-.18,4.77,4.77,0,0,1-2.06-.84.76.76,0,0,1,.48-1.36A5.38,5.38,0,0,1,256.08,259.91Z" style="fill:#773332"/><path d="M254.46,262.24l.09.09c.22.22.44.6.16.87a.85.85,0,0,1-.54.2,6.15,6.15,0,0,1-2-.18,4.8,4.8,0,0,1-2-.84.76.76,0,0,1,.48-1.36A5.32,5.32,0,0,1,254.46,262.24Z" style="fill:#773332"/><path d="M252.15,264.18l.1.08c.22.22.44.61.16.87a.88.88,0,0,1-.54.2,5.89,5.89,0,0,1-2-.18,4.77,4.77,0,0,1-2.06-.84.76.76,0,0,1,.49-1.36A5.33,5.33,0,0,1,252.15,264.18Z" style="fill:#773332"/><path d="M242.75,271.56l22.84-6.38-.94,3.15-20.88,6.76-1-3A2.54,2.54,0,0,1,242.75,271.56Z" style="fill:#773332"/><polygon points="271.6 263.51 272.34 265.84 268.27 267.16 266.68 264.88 271.6 263.51" style="fill:#773332"/><path d="M271.33,188.4s-29.77,4.46-35.13,10.84c-3.27,6.09,13.64,47.77,13.64,47.77l12.93-3.36L255,211.35l26.52-5.11,3.61-17.84Z" style="fill:#af98a7"/><polygon points="251.12 233.1 240.48 260.99 238.21 259.81 232 256.59 239.32 223.39 246.22 229.07 251.12 233.1" style="fill:#f49e81"/><polygon points="251.12 233.1 240.48 260.99 238.21 259.81 246.22 229.07 251.12 233.1" style="fill:#ef7b71"/><path d="M241.81,260a117.06,117.06,0,0,1-2.89,11.92l-.28.7-.9,2.27-4-1.55.21-2.77.09-1.23-1.13.77L230.21,272l-20.45-8,1.17-3c.08-.13.17-.27.27-.41a1.76,1.76,0,0,1,1.19-.67c2.15-.21,9.85-.47,12.24-1.35,1.84-.68,4-2.82,4.92-3.74Z" style="fill:#995652"/><path d="M228.89,260a.5.5,0,0,1,0,.12c0,.32,0,.75-.42.78a.88.88,0,0,1-.55-.19,5.76,5.76,0,0,1-1.43-1.4,4.71,4.71,0,0,1-1.06-2,.75.75,0,0,1,1.23-.75A5.33,5.33,0,0,1,228.89,260Z" style="fill:#773332"/><path d="M226.16,260.81c0,.05,0,.09,0,.13,0,.31,0,.75-.42.78a1,1,0,0,1-.55-.19,6,6,0,0,1-1.43-1.41,4.59,4.59,0,0,1-1.06-1.95c-.15-.78.62-1.15,1.23-.75A5.33,5.33,0,0,1,226.16,260.81Z" style="fill:#773332"/><path d="M223.16,260.85s0,.09,0,.13c0,.31,0,.75-.42.78a.83.83,0,0,1-.54-.19,6,6,0,0,1-1.44-1.4,4.8,4.8,0,0,1-1.06-2,.75.75,0,0,1,1.23-.74A5.32,5.32,0,0,1,223.16,260.85Z" style="fill:#773332"/><path d="M211.2,260.62l21.73,9.51L230.21,272l-20.45-8,1.17-3C211,260.9,211.1,260.76,211.2,260.62Z" style="fill:#773332"/><polygon points="238.64 272.63 237.74 274.91 233.76 273.36 233.97 270.59 238.64 272.63" style="fill:#773332"/><path d="M310.71,209.09c-1,3.69-48.24,4.47-48.24,4.47L246.65,246l-12.89-4.92s11.62-41,16.7-43.69,31.24-3,31.24-3l6.32-9.6,17.76-.53S311.76,205.39,310.71,209.09Z" style="fill:#c3aebb"/><path d="M310.71,209.09c-1,3.69-48.24,4.47-48.24,4.47L246.65,246l-3.42-1.31c4.43-7.14,16.13-35,17.62-35.63,2.06-.93,39,0,41.36-1.38,2.15-1.22-1.15-19.52-1.78-22.87l5.35-.53S311.76,205.39,310.71,209.09Z" style="fill:#af98a7"/><path d="M268.71,131a18.24,18.24,0,0,0-3,3.06c-1.34,1.79-6.12,21.42-6.12,21.42l10.83,5.05Z" style="fill:#fcc155"/><path d="M264.28,154.18a37.29,37.29,0,0,0,6.18,6.38l4,13.44-3.69,14c23.07,5.88,40.07,4.79,40.07,4.79L303.68,171s-5.44-43.21-5.53-43.35-7.72-.88-7.72-.88-2.79,7.93-7.87,8.09-8.12-5.86-8.33-6.08L268.71,131S262.17,150.92,264.28,154.18Z" style="fill:#fcc155"/><path d="M298.15,127.62s-4.34,2.58-5.56,7.06-8.5,19.72-8.5,19.72l18.11,7.48s4.69-22,3.79-26.57S298.15,127.62,298.15,127.62Z" style="fill:#fcc155"/><polygon points="291.39 136.03 283.92 155.96 301.83 161.72 287.03 154.1 291.39 136.03" style="fill:#f2b152"/><path d="M300.29,161.23s-3.48,12-5.19,13.1-40.25,2.91-40.25,2.91v-6.72l30.13-6.6,2.32-6.87Z" style="fill:#f49e81"/><path d="M254.85,170.52s-4.78-2.68-6.79-2.09-9.85,3.59-9.85,3.59-4.64,5.65-4.12,6.26h5.16s3.06-1.33,3.73-1,5.82,1,5.82,1l6-1Z" style="fill:#f49e81"/><path d="M268.89,134.38S265.08,148,265.38,151s5.08,9.52,5.08,9.52-2.94-9.3-2.93-9.9S268.89,134.38,268.89,134.38Z" style="fill:#f2b152"/><path d="M224.93,141.51H183.37a2.18,2.18,0,0,0-2.18,2.18l9.42,32.86a2.76,2.76,0,0,0,2.53,2.18h43.65l-9.43-35A2.76,2.76,0,0,0,224.93,141.51Z" style="fill:#252727"/><path d="M223.51,141.51H182a2.19,2.19,0,0,0-2.19,2.18l9.43,32.86a2.74,2.74,0,0,0,2.53,2.18h43.64l-9.42-35A2.77,2.77,0,0,0,223.51,141.51Z" style="fill:#434342"/><rect x="235.37" y="177.16" width="26.07" height="1.57" style="fill:#252727"/><path d="M209,160.27a3.8,3.8,0,1,1-4.07-4l.31,4.22Z" style="fill:#939599"/><path d="M141.07,162.7a4,4,0,0,0,0,8h23.56v-1.48h-.74v-5.07h.74V162.7Z" style="fill:#bb3353"/><path d="M178.09,163.44h0v.74H155.27a2.54,2.54,0,0,0,0,5.07h22.82V170h0Z" style="fill:#fff"/><path d="M155.27,169.25a2.54,2.54,0,0,1,0-5.07h23.56V162.7H155.27a4,4,0,0,0,0,8h23.56v-1.48Z" style="fill:#d94663"/><path d="M155.4,166.71a4.08,4.08,0,0,1,1.66,3.94l2-1.05,1.55,1.05s-.24-3.41-1.53-3.94Z" style="fill:#8e3089"/><path d="M287.43,213.21c1.44-6.92,5.34-24.56,8.68-29.58,1.89-4.6,21.95-5.6,24.35-7.78,4.67-3.61,2-48.14,5.9-51.11s7.19,2.92,7.93,4.51,10.39,46.39,9.41,55.73c-1,9.08-6.85,31-52.78,31.08C289.6,216.06,286.68,216.45,287.43,213.21Z" style="fill:#493564"/><path d="M305.26,115.05A39.7,39.7,0,0,1,293.08,122a41.06,41.06,0,0,1-35.4-3.8A11,11,0,0,0,262.1,111a43.17,43.17,0,0,0,.41-8.43A19.43,19.43,0,0,1,264,94.3c.08-.17.17-.35.26-.52,3.17-5.84,11.14-7.78,17.62-6.66a16.85,16.85,0,0,1,9,4.32,20.2,20.2,0,0,1,4.56,8.18,62.5,62.5,0,0,0,3.17,8.81A13.32,13.32,0,0,0,305.26,115.05Z" style="fill:#161818"/><path d="M291.05,126.69c-2.21,2.21-7.55,7.15-10.79,7.16s-4.44-4.26-4.85-6.29l3.76-1.71h0l7.82-.27a34.6,34.6,0,0,1,3.38.87Z" style="fill:#f49e81"/><path d="M280.25,133.1l6.77-7.53c0-1.17-.17-1.6-.37-4.49-.23-3.2-.45-6.21-.45-6.21l-8.93,3.9a21.62,21.62,0,0,1,1.87,7.25A38.26,38.26,0,0,0,280.25,133.1Z" style="fill:#f49e81"/><path d="M277.27,118.77a21.62,21.62,0,0,1,1.87,7.25c.29.11.57.21.84.29,1.06.33,4.34-2.79,6.67-5.23-.23-3.2-.45-6.21-.45-6.21Z" style="fill:#ef7b71"/><path d="M267.39,108.33c.21.83.48,1.7.8,2.61,0,0-.25,4.55.26,5.55s3.78,7.24,7,6.74c2.66-.42,9.07-4.57,11.27-7a2.67,2.67,0,0,0,.75-1.19c.25-1.81,1.05-9.79,1.13-10.46.21-1.81.49-15.47-15.86-11.11a8,8,0,0,0-5.78,6.16A20,20,0,0,0,267.39,108.33Z" style="fill:#f49e81"/><path d="M272.92,117.4l6.8-1.61s0,3.34-3.06,3.84A3.12,3.12,0,0,1,272.92,117.4Z" style="fill:#feedde"/><path d="M272.42,113.65a3.74,3.74,0,0,0,2.46-1.44,1.62,1.62,0,0,1-.1,1.2,4.88,4.88,0,0,1-.69,1,2.16,2.16,0,0,1-1.22.91C272.76,114.81,272.53,114.17,272.42,113.65Z" style="fill:#ef7b71"/><path d="M274.5,113.34a7.55,7.55,0,0,0-1.61,1.38c-.64-2.44-.34-4.56-.12-7.1,0-.18-.26-.22-.34-.08-1.23,2.35-.86,5.54,0,8a.35.35,0,0,0,.58.13,10,10,0,0,0,1.79-2C274.86,113.42,274.66,113.25,274.5,113.34Z" style="fill:#eb5d6a"/><path d="M268.19,110.94s-.25,4.55.26,5.55,3.78,7.24,7,6.74c2.66-.42,9.07-4.57,11.27-7-2.72,2-10,7.22-12.19,6.54-2.73-.85-6-6.72-5.95-7.31s.08-4.47.08-4.47-.58-1.21-1.25-2.68C267.6,109.16,267.87,110,268.19,110.94Z" style="fill:#f9be91"/><path d="M286.7,114.85a6.26,6.26,0,0,0,4.3-2.57,4.74,4.74,0,0,0,.42-.66c.55-1.09.59-4.82-1-5.63-1.09-.57-1.83.34-2.18.93h0a4.49,4.49,0,0,0-.23.45Z" style="fill:#f9be91"/><path d="M286.7,114.85a6.26,6.26,0,0,0,4.3-2.57,1.52,1.52,0,0,0,.17-.3c.56-1.09.6-4.82-.95-5.63a1.46,1.46,0,0,0-1.94.57h0a4.49,4.49,0,0,0-.23.45Z" style="fill:#f49e81"/><path d="M291,108.93a1.54,1.54,0,0,1,0,.9c-.37,1.26-1.58,2.26-2.75,3.18a3.16,3.16,0,0,0,.36-2,5.22,5.22,0,0,1-.11-.69C288.46,109.42,290.53,107.19,291,108.93Z" style="fill:#ef7b71"/><path d="M287.67,113.39l.06,0,.19-.12a2.67,2.67,0,0,0,.57-.56,2.3,2.3,0,0,0,.45-1,2.06,2.06,0,0,0-.19-1.31,1.4,1.4,0,0,0-.1-.16l0,0h0s0,0,0,0l0,0,0-.07a1,1,0,0,0,.08-.14c.11-.19.23-.36.35-.53a5.46,5.46,0,0,1,.36-.45,3.07,3.07,0,0,1,.37-.36.8.8,0,0,1,.38-.19.56.56,0,0,1,.33,0,.32.32,0,0,1,.15.12.17.17,0,0,1,0,.07.14.14,0,0,0,0-.07.35.35,0,0,0-.13-.17.75.75,0,0,0-.38-.1,1.09,1.09,0,0,0-.51.16,3.64,3.64,0,0,0-.45.35,4.77,4.77,0,0,0-.45.45,3.78,3.78,0,0,0-.4.54l-.09.15-.05.07-.05.11,0,.08a.43.43,0,0,1,0,.07l.07.1a1,1,0,0,0,.08.14,2.24,2.24,0,0,1-.06,2.11,2.57,2.57,0,0,1-.43.59l-.15.15Z" style="fill:#cf4b57"/><path d="M277.27,105.61a2.49,2.49,0,0,0,1.29,1,1,1,0,0,1,.78-.44c.76,0,1.4.94,1.44,2.15s-.53,2.22-1.29,2.25-1.4-.94-1.44-2.15a3.19,3.19,0,0,1,.12-1A4.12,4.12,0,0,1,277.27,105.61Z" style="fill:#161818"/><path d="M282.05,107.08a2.82,2.82,0,0,1-3,1.33,2.82,2.82,0,0,1,3-1.33Z" style="fill:#feedde"/><path d="M268.05,107.1a1.72,1.72,0,0,0,.88.71.77.77,0,0,1,.53-.26c.57,0,1.06.7,1.09,1.62s-.41,1.67-1,1.69-1.06-.7-1.09-1.62a2.54,2.54,0,0,1,.15-.94A3,3,0,0,1,268.05,107.1Z" style="fill:#161818"/><path d="M267.57,108.47a2.5,2.5,0,0,0,1,.69,2.48,2.48,0,0,0,1.2.1,2.5,2.5,0,0,0-1-.69A2.48,2.48,0,0,0,267.57,108.47Z" style="fill:#feedde"/><path d="M270.12,114.27c-.16.48-1.2.58-2.32.2s-1.89-1.07-1.72-1.56,1.2-.58,2.31-.2S270.28,113.78,270.12,114.27Z" style="fill:#ef7b71"/><path d="M283.91,111.54c.21.72-1,1.7-2.6,2.19s-3.16.3-3.37-.42.95-1.7,2.6-2.19S283.69,110.82,283.91,111.54Z" style="fill:#ef7b71"/><path d="M265.78,105.12s2-2.89,3.22-1.82.69,1.21.69,1.21Z" style="fill:#434342"/><path d="M282.45,105s-4-4.33-5.57-2.69c-.89,1-.23,1.57-.23,1.57Z" style="fill:#434342"/><path d="M275.41,127.56l1.86-3s3.74-1.79,11-1.32l2.14,3.18,2.52.54s-7.77,15.72-9.68,17.19c-1.48,1.13-3.47,1.85-5.59-.17s-4-15.38-4-15.38Z" style="fill:#fff"/><path d="M288.61,127.34l-.43.11a.69.69,0,0,0,0-.1l-.6-.91c-.19-.3-.67,0-.48.28l.58.87-1.07.32-.13-.25-.45-1c-.11-.22-.51-.06-.41.18s.29.68.43,1l.06.14c-.54.17-1.09.33-1.65.45a5,5,0,0,0-.22-.65,8,8,0,0,0-.5-1.22c-.09-.14-.36-.09-.34.1a6.17,6.17,0,0,0,.3,1.27c.06.19.1.42.18.62-.24,0-.49.07-.74.09s-.77.05-1.15.06a4.34,4.34,0,0,0,0-.8c0-.55-.08-1.11-.13-1.66a.21.21,0,0,0-.41,0c0,.55,0,1.11,0,1.66a3.53,3.53,0,0,0,0,.8,17.83,17.83,0,0,1-2.42-.21.32.32,0,0,0,.11-.23,15.11,15.11,0,0,0-.11-2,.19.19,0,0,0-.37,0,15.1,15.1,0,0,0-.1,2,.33.33,0,0,0,.05.16c-.39-.07-.77-.14-1.15-.24a.18.18,0,0,0-.09.34,16.85,16.85,0,0,0,9.19.1.17.17,0,0,0,.15,0,8.07,8.07,0,0,0,2.05-1A.15.15,0,0,0,288.61,127.34Z" style="fill:#d1d2d4"/><path d="M298.1,113.84a31.54,31.54,0,0,0-14.85-14.68l2.46,3.31-13.9-4.65,1,2.29a15.93,15.93,0,0,1-8.34-6,2.83,2.83,0,0,1-.2-.28c.12-.23.26-.44.4-.66a11.94,11.94,0,0,1,4.07-3.86,19.77,19.77,0,0,1,13.15-2.14,19,19,0,0,1,4.68,1.42,14.75,14.75,0,0,1,4.29,2.9,20.2,20.2,0,0,1,4.56,8.18,62.5,62.5,0,0,0,3.17,8.81,14.64,14.64,0,0,0,4.46,5.4h0a9.93,9.93,0,0,0,2.22,1.21A39.7,39.7,0,0,1,293.08,122,17.3,17.3,0,0,0,298.1,113.84Z" style="fill:#f07f3d"/><path d="M303,113.83a19.43,19.43,0,0,1-4.81-3.75c-2.95-3.1-5.09-6.86-7.75-10.21s-6.08-6.4-10.29-7.21c.41,1.12.82,2.25,1.22,3.37L273,90.81c0,1,0,2,0,3l-4.26-4.5a19.77,19.77,0,0,1,13.15-2.14,19,19,0,0,1,4.68,1.42,14.75,14.75,0,0,1,4.29,2.9,20.2,20.2,0,0,1,4.56,8.18,62.5,62.5,0,0,0,3.17,8.81A14.64,14.64,0,0,0,303,113.83Z" style="fill:#f59e4e"/><path d="M292.66,103.53c-.09.27-.19.53-.29.8s-.25.63-.39,1c-.32.78-.71,1.6-1.15,2.48,0,0-1.47-3-3.39-1.31,0,0-8.26-.62-10.29-4.93,0,0,.57,3,2.12,3.52-.84-.12-14.38-2.18-14.88-10.06a4.8,4.8,0,0,1,0-.93,4.13,4.13,0,0,1,.2-.94c3.39-5.32,11-7.08,17.22-6a19,19,0,0,1,4.68,1.42,12.49,12.49,0,0,1,3.55,3.19C293.41,96.16,294.15,99.11,292.66,103.53Z" style="fill:#161818"/><path d="M298.1,113.84a31.54,31.54,0,0,0-14.85-14.68l2.46,3.31-13.9-4.65,1,2.29a15.93,15.93,0,0,1-8.34-6,2.83,2.83,0,0,1-.2-.28c.12-.23.26-.44.4-.66a11.94,11.94,0,0,1,4.07-3.86,19.77,19.77,0,0,1,13.15-2.14,19,19,0,0,1,4.68,1.42,14.75,14.75,0,0,1,4.29,2.9,20.2,20.2,0,0,1,4.56,8.18,62.5,62.5,0,0,0,3.17,8.81,14.64,14.64,0,0,0,4.46,5.4h0a9.93,9.93,0,0,0,2.22,1.21A39.7,39.7,0,0,1,293.08,122,17.3,17.3,0,0,0,298.1,113.84Z" style="fill:#434342"/><polygon points="309.49 99.21 318.06 88.28 322.46 94.64 309.49 99.21" style="fill:#fff"/><polygon points="304.99 98.89 302.57 90.5 307.38 90.34 304.99 98.89" style="fill:#fff"/><polygon points="310.91 105.13 320.06 103.64 320.36 108.04 310.91 105.13" style="fill:#fff"/><path d="M303,113.83a19.43,19.43,0,0,1-4.81-3.75c-2.95-3.1-5.09-6.86-7.75-10.21s-6.08-6.4-10.29-7.21c.41,1.12.82,2.25,1.22,3.37L273,90.81c0,1,0,2,0,3l-4.26-4.5a19.77,19.77,0,0,1,13.15-2.14,19,19,0,0,1,4.68,1.42,14.75,14.75,0,0,1,4.29,2.9,20.2,20.2,0,0,1,4.56,8.18,62.5,62.5,0,0,0,3.17,8.81A14.64,14.64,0,0,0,303,113.83Z" style="fill:#5b5a5a"/><polygon points="200.35 274.7 196.74 274.7 225.01 182.35 233.18 182.35 200.35 274.7" style="fill:#a97d50"/><polygon points="291.03 274.7 294.64 274.7 275.8 182.35 267.63 182.35 291.03 274.7" style="fill:#a97d50"/><rect x="138.09" y="178.73" width="81.49" height="6.44" style="fill:#a97d50"/><rect x="219.58" y="178.73" width="68.5" height="6.44" style="fill:#8c5f3d"/><path d="M320.46,154.53c0,10.29-3.4,18.62-7.6,18.62s-7.6-8.33-7.6-18.62,3.4-18.62,7.6-18.62S320.46,144.25,320.46,154.53Z" style="fill:#493564"/><polygon points="338.15 273.96 314.58 273.37 311.12 263.72 310.83 262.93 310.65 259.07 308.82 220.84 305.39 222.56 305.87 213.19 310.12 213.19 314.13 260.96 338.15 273.96" style="fill:#e7e8e9;mix-blend-mode:multiply"/><path d="M144.47,154.68a4,4,0,0,0,0,8H168v-1.47h-.74v-5.08H168v-1.48Z" style="fill:#449bcc"/><path d="M181.49,155.42h0v.74H158.68a2.54,2.54,0,1,0,0,5.08h22.81V162h0Z" style="fill:#fff"/><path d="M158.68,161.24a2.54,2.54,0,1,1,0-5.08h23.55v-1.48H158.68a4,4,0,1,0,0,8h23.55v-1.47Z" style="fill:#63c6ec"/><path d="M162.79,160a4,4,0,0,1,1.66,3.93l2-1,1.55,1s-.24-3.41-1.52-3.93Z" style="fill:#ee7525"/><path d="M145.21,170.73a4,4,0,0,0,0,8h23.56v-1.48H168v-5.07h.74v-1.48Z" style="fill:#037363"/><path d="M182.23,171.47h0v.74H159.41a2.54,2.54,0,1,0,0,5.07h22.82V178h0Z" style="fill:#fff"/><path d="M159.41,177.28a2.54,2.54,0,1,1,0-5.07H183v-1.48H159.41a4,4,0,0,0,0,8H183v-1.48Z" style="fill:#018d7c"/><path d="M163.53,176.05a4.08,4.08,0,0,1,1.66,3.94l2-1.05,1.55,1.05s-.24-3.41-1.53-3.94Z" style="fill:#ee7525"/><rect x="60.66" y="0.51" width="191.13" height="129.7" style="fill:#fff"/><rect x="66.39" y="32.23" width="136.6" height="82.26" style="fill:#63c6ec"/><g style="clip-path:url(#clip-path)"><path d="M186.53,69.64c-6.7.32-12.44,0-18.59-2.7.84-4.29,2.63-11.76,5-14.81,4,0,9.08.65,12.63,2.47C186.17,58.11,186,66.13,186.53,69.64Z" style="fill:#161818"/><path d="M187.32,154.72c0,.71-1.73,2.89-2.62,2.81s-3.88-2.42-4.16-3.84a9.23,9.23,0,0,1,.09-2.12l.06-.49c.32-2.29.91-5.12.91-5.12l4,.33s.92,3.3,1.41,5.88A11.29,11.29,0,0,1,187.32,154.72Z" style="fill:#f49e81"/><path d="M187.32,154.72c0,.71-1.73,2.89-2.62,2.81s-3.88-2.42-4.16-3.84a9.23,9.23,0,0,1,.09-2.12l.06-.49a22.55,22.55,0,0,0,3.24,2.51,2.75,2.75,0,0,0,1.21-1.37c.11-.45-.36-6-.36-6l.85.07s.92,3.3,1.41,5.88A11.29,11.29,0,0,1,187.32,154.72Z" style="fill:#ef7b71"/><path d="M187.32,154.72c0,.71-1.73,2.89-2.62,2.81s-3.88-2.42-4.16-3.84a9.23,9.23,0,0,1,.09-2.12c.86,1.25,2.51,3.38,3.78,3.27,1.08-.09,2-1.54,2.63-2.67A11.29,11.29,0,0,1,187.32,154.72Z" style="fill:#fff"/><path d="M184.33,110.4c-.11,1.34-.23,2.71-.34,4-.33,3.76-.62,6.89-.62,6.89s2.71,6.47,2.7,9c0,1.31-.44,16-.44,16l-4-.33s-2.38-18.86-3.2-21.13a84.89,84.89,0,0,1-1.49-10c-.2-1.75-.4-3.51-.57-5.11Z" style="fill:#f49e81"/><path d="M184.33,110.4c-.11,1.34-.23,2.71-.34,4-.33,3.76-.62,6.89-.62,6.89s2.71,6.47,2.7,9c0,1.31-.44,16-.44,16l-.86-.07c0-4.22-.14-13.81-.3-15.91-.2-2.71-2.63-9.44-2.63-9.44s.5-5.72.91-10.6Z" style="fill:#ef7b71"/><path d="M177.05,154.49l-1.82.69-.92-2.84s-.66,3.46-1.19,3.78a34.45,34.45,0,0,1-8.2,1.65c-2.22,0-2.27-.67-2.27-.67a8,8,0,0,1,2.92-2.77,5.25,5.25,0,0,0,1-.92,44,44,0,0,0,3.46-4.66l4-.88C176.22,149.58,177.05,154.49,177.05,154.49Z" style="fill:#f49e81"/><path d="M177.05,154.49l-1.82.69-.92-2.84s-.66,3.46-1.19,3.78a34.45,34.45,0,0,1-8.2,1.65c-2.22,0-2.27-.67-2.27-.67a8,8,0,0,1,2.92-2.77,5.25,5.25,0,0,0,1-.92,20.13,20.13,0,0,0,1.76,1.28c.37.17,2.73-2.51,3.16-2.93s1-3.55,1-3.55l1.55-.34C176.22,149.58,177.05,154.49,177.05,154.49Z" style="fill:#ef7b71"/><path d="M177.05,154.49l-1.82.69-.92-2.84s-.66,3.46-1.19,3.78a34.45,34.45,0,0,1-8.2,1.65c-2.22,0-2.27-.67-2.27-.67a8,8,0,0,1,2.92-2.77s1.18,1.92,2.66,1.55,4.64-3.91,4.88-5.34a8.73,8.73,0,0,1,1-2.67C176.22,149.58,177.05,154.49,177.05,154.49Z" style="fill:#fff"/><path d="M169.91,125.84c.57,1,1.14,2.13,1.5,2.95.66,1.53,2.69,19.08,2.69,19.08l-4,.88s-5.84-20.91-6.85-22.91Z" style="fill:#f49e81"/><path d="M169.91,125.84c.57,1,1.14,2.13,1.5,2.95.66,1.53,2.69,19.08,2.69,19.08l-1.55.34-.15-2.83s-1.06-14.65-2-15.83a34.42,34.42,0,0,1-2.2-3.71Z" style="fill:#ef7b71"/><path d="M166.49,93.21l14.72-.47,1.84-.06-.28-6,1.91-4.22h0l.83-1.82-.6-12.17-1.19-1.15-.95-.38-.68-.06-.32,0-1.11-.1-3.86-.22a5.73,5.73,0,0,1-2.24-.06l-1.1-.15-1.2-.19-.39-.07-.24,0c-.76-.13-1.3-.24-1.3-.24S167.39,89.25,166.49,93.21Z" style="fill:#d94663"/><polygon points="183.05 92.68 182.77 86.65 184.68 82.43 184.68 82.43 183.44 78.53 181.23 85.91 181.21 92.73 183.05 92.68" style="fill:#bb3353"/><path d="M173.23,69.59c1.16,1.83,3.57-.82,3.57-.82A2.72,2.72,0,0,0,179.36,71c1.67.1,2.89-2.66,3.41-4.09l-.68-.06-.32,0-1.11-.1-3.86-.22a5.73,5.73,0,0,1-2.24-.06l-1.1-.15A3.06,3.06,0,0,0,173.23,69.59Z" style="fill:#fff"/><path d="M177,65.68a17.41,17.41,0,0,0-.16-2.43l3.36-.73s0,.93.09,1.92a9.76,9.76,0,0,0,.32,2.17.31.31,0,0,0,.07.12l-3.86-.22A1.43,1.43,0,0,0,177,65.68Z" style="fill:#f49e81"/><path d="M180.27,64.44a14.53,14.53,0,0,1-2.48,1.32,1.83,1.83,0,0,1-.81-.08,17.41,17.41,0,0,0-.16-2.43l3.36-.73S180.21,63.45,180.27,64.44Z" style="fill:#ef7b71"/><path d="M181.77,66.83c-.79.67-2.63,2-4.48,1.94a3,3,0,0,1-2.73-2.32,5.72,5.72,0,0,0,2.24.06l3.86.22Z" style="fill:#f49e81"/><path d="M162,122.13c.28,1.92,4.95,22.09,4.95,22.09h8.25s-1.11-14.93-1.15-15.94-2.29-7.39-2.29-7.39L175,103.78c.29,5.8.77,15.67.77,16.56,0,1.27,2.41,23.88,2.41,23.88H188s-.31-11.58-.63-13.26-2.44-10.62-2.44-10.62S186,102,186.07,100.71c.08-1.14-2.31-7.06-2.91-8.52H166.68C165.68,97.85,161.72,120.46,162,122.13Z" style="fill:#434342"/><path d="M172.83,131.35c.21,1.79.12,8.91,0,12.87h2.28s-1.11-14.93-1.15-15.94-2.29-7.39-2.29-7.39L175,103.78l-4.38-2.89,2.23,4.45-3,16.79S172.55,128.82,172.83,131.35Z" style="fill:#252727"/><path d="M183.05,120.34s1.3,8.9,1.86,10.73c.42,1.37.62,9.32.69,13.15H188s-.31-11.58-.63-13.26-2.44-10.62-2.44-10.62S186,102,186.07,100.71c.08-1.14-2.31-7.06-2.91-8.52,0,0,1.33,8.56,1.18,10.21S183.05,120.34,183.05,120.34Z" style="fill:#252727"/><path d="M175.08,100.46c.18.48,3.29-1.1,3.29-1.1l.72.65-1.24.78-1,1.86s.25.34.57.73h0l.07.09,0,0,0,0a.69.69,0,0,0,.11.13,5.31,5.31,0,0,0,.5.54l.06.06a2.64,2.64,0,0,0,.29.23.5.5,0,0,0,.27.11l1.11-1.24a15.42,15.42,0,0,0,2.6,0,5.5,5.5,0,0,0,.78-1.18c.12-.22.23-.44.35-.65h0c0-.08.38-1.46.42-1.54L181,98l-.42.57-.5-.09a6.61,6.61,0,0,0-1.85-.11,1.8,1.8,0,0,0-.59.16C176.57,99.11,174.91,100,175.08,100.46Z" style="fill:#f49e81"/><path d="M177.37,103.38l.12.15,0,0c.14-.21.33-.48.55-.77a6.06,6.06,0,0,1,.61-.71l.12-.11a.59.59,0,0,1,.11-.08l.09-.07-.12,0-.13,0-.17.07a2.07,2.07,0,0,0-.8.66A2.53,2.53,0,0,0,177.37,103.38Z" style="fill:#cf4b57"/><path d="M178.11,104.2l.06.06.15-.23c.14-.2.33-.48.55-.77a6.06,6.06,0,0,1,.61-.71l.13-.11.1-.08.09-.07-.12,0-.13,0-.17.07a2.16,2.16,0,0,0-.8.66,2.5,2.5,0,0,0-.42.89A1.39,1.39,0,0,0,178.11,104.2Z" style="fill:#cf4b57"/><path d="M183.72,67.29a9.49,9.49,0,0,1,3.22,1.48c.78.82,6,18.65,6.11,19.56s-8.79,12.16-8.79,12.16l-3.6-2.76L186.38,87l-3.33-10Z" style="fill:#d94663"/><path d="M149.5,67c-.23.27,2.72,4.75,3.21,5l.74.29.48,1,2-1.11.59-.33c-.08-.16-.15-.28-.16-.31h0l0-.06s.07-.07.12-.13l0,0c0-.06.1-.12.15-.2s0,0,0,0l.11-.15.1-.13a3.18,3.18,0,0,0,.48-1h0a1.45,1.45,0,0,0,0-.29h0a1,1,0,0,0,0-.29c0-.14-.07-.29-.1-.44s0-.3-.07-.45a3.39,3.39,0,0,1,0-.9c0-.12.05-.23.08-.35s0-.15,0-.23a2.23,2.23,0,0,0,0-.23.49.49,0,0,0,0-.12v-.12a1.12,1.12,0,0,0-.05-.36.92.92,0,0,0-.16-.31l-.08-.09s0,0-.06,0H157l-.06,0-.09.08h0s0,0,0,0a3.94,3.94,0,0,0-1,2.43c-.11-.12-3.53-4.34-3.83-4.19a.82.82,0,0,0-.26.21.76.76,0,0,0-.13.25s2,3.31,2,3.48a19.73,19.73,0,0,1-2.11-1.81,2.13,2.13,0,0,0-.7-.51.41.41,0,0,0-.28.18,1.74,1.74,0,0,0-.22.35,2.8,2.8,0,0,0-.19.38l-.1.07-.31.26A2.28,2.28,0,0,0,149.5,67Z" style="fill:#f49e81"/><path d="M150.32,66.11l.19.23a8.18,8.18,0,0,0,1.12,1.07c.3.24.5.37.52.39s-.15-.23-.37-.53-.57-.75-1-1.2l-.27-.31A1.41,1.41,0,0,0,150.32,66.11Z" style="fill:#cf4b57"/><path d="M149.72,66.82A9.3,9.3,0,0,0,151,68.08a9.13,9.13,0,0,0-1-1.52Z" style="fill:#cf4b57"/><path d="M156.85,65.7l.06.19a5,5,0,0,1,0,1.58,11.45,11.45,0,0,1,0,2.19,4.91,4.91,0,0,1-.91,1.6,1,1,0,0,0-.22.52.78.78,0,0,0,0,.21,1.63,1.63,0,0,0,.11.23,0,0,0,0,0,0,0l.59-.33c-.08-.16-.15-.28-.16-.31h0l0-.06.12-.13,0,0c0-.06.1-.12.15-.2s0,0,0,0l.11-.15.1-.13a3.18,3.18,0,0,0,.48-1h0c0-.1,0-.2,0-.29h0a2.83,2.83,0,0,0,0-.29c0-.15-.07-.29-.1-.44s0-.3-.07-.45a3.39,3.39,0,0,1,0-.9c0-.12.05-.23.08-.35s0-.15,0-.23a2.23,2.23,0,0,0,0-.23s0-.08,0-.12v-.12a1.12,1.12,0,0,0-.05-.36.77.77,0,0,0-.16-.31l-.08-.09s0,0-.06,0H157l-.06,0Z" style="fill:#f9be91"/><path d="M153.92,71.26a2.21,2.21,0,0,1,.71-2.5,1.11,1.11,0,0,1,.59-.25,1.83,1.83,0,0,0-1.65.93A1.74,1.74,0,0,0,153.92,71.26Z" style="fill:#ef7b71"/><path d="M170.33,65.76a13.53,13.53,0,0,0-2.76,0c-.76.19-6.37,11.61-6.37,11.61l-4.44-5.9-3.57,2.12S158.24,84.75,160.7,85s6.87-6.43,6.87-6.43l.85,1.91Z" style="fill:#d94663"/><path d="M169.85,68.65s-2.62,5.23-2.62,6.21a52.28,52.28,0,0,0,1.19,5.58s-2.11-4.45-1.93-5.89S169.85,68.65,169.85,68.65Z" style="fill:#bb3353"/><path d="M180.47,50.16c-.13,0-5,.23-6.06,1.7s-3.16,7.2-2.4,10.23,2.75,3,3.47,2.88,4.16-.91,5.08-1.84,3.39-6.1,3.27-7.57S180.47,50.16,180.47,50.16Z" style="fill:#f9be91"/><path d="M180.76,49.77c-.13,0-5,.23-6.06,1.7s-3.16,7.2-2.4,10.23,2.75,3,3.47,2.88,4.16-.91,5.08-1.84,3.39-6.1,3.27-7.57S180.76,49.77,180.76,49.77Z" style="fill:#f49e81"/><path d="M175.81,59.51a1.07,1.07,0,0,1,.44,0,1.42,1.42,0,0,1-1,.44.14.14,0,0,1-.09,0s0,0-.08-.06a2,2,0,0,1-.31-.59.68.68,0,0,1,0-.14c0-.15.1-.08.17,0a1.85,1.85,0,0,0,.27.19A1.45,1.45,0,0,0,175.81,59.51Z" style="fill:#ef7b71"/><path d="M175.25,59.91c-.06-.11-.13-.21-.19-.31a3,3,0,0,1-.18-.41c.56-.14.73-.61.9-1.14a1.59,1.59,0,0,0,.06-.75,1.25,1.25,0,0,0-.11-.39.76.76,0,0,0-.09-.18.41.41,0,0,0-.12-.14s0,.08,0,.12a3.18,3.18,0,0,1,.09.33c0,.11,0,.22,0,.34a2.22,2.22,0,0,1-.1.67,1.68,1.68,0,0,1-.33.58,1.28,1.28,0,0,1-.66.41s.18.47.2.51a2.75,2.75,0,0,0,.17.29.58.58,0,0,0,.26.23.21.21,0,0,0,.11,0,.21.21,0,0,1,0-.06v0A.59.59,0,0,0,175.25,59.91Z" style="fill:#eb5d6a"/><path d="M181.35,60.25c.18-.06,1.24-1,1.73-.26a2,2,0,0,1-.21,2.51,2.28,2.28,0,0,1-2.31.63Z" style="fill:#f49e81"/><path d="M182.92,60.86a.86.86,0,0,1-.12.46,3.69,3.69,0,0,1-1.65,1.33,1.68,1.68,0,0,0,.38-1c0-.12,0-.25,0-.37C181.64,60.85,182.86,59.92,182.92,60.86Z" style="fill:#ef7b71"/><path d="M180.83,62.78l0,0,.1,0a1.25,1.25,0,0,0,.33-.22,1.22,1.22,0,0,0,.32-.46,1.14,1.14,0,0,0,0-.69l0-.09v0s0,0,0,0h0l0,0,.06-.07a2.39,2.39,0,0,1,.22-.23,1.86,1.86,0,0,1,.22-.19l.21-.15a.31.31,0,0,1,.2,0,.25.25,0,0,1,.16,0,.33.33,0,0,1,.06.08v0a.19.19,0,0,0,0-.1.38.38,0,0,0-.17-.09.6.6,0,0,0-.26,0l-.25.13a2,2,0,0,0-.26.18,1.88,1.88,0,0,0-.25.24l-.06.06,0,0,0,.05,0,0s0,0,0,0l0,.06a.24.24,0,0,1,0,.08,1.25,1.25,0,0,1,0,.61,1.28,1.28,0,0,1-.24.45,1.07,1.07,0,0,1-.27.26l-.09.06Z" style="fill:#cf4b57"/><path d="M173.41,54.71a2.94,2.94,0,0,1,1.48-.38c.52.14.6.66.38.72A11.8,11.8,0,0,1,173.41,54.71Z" style="fill:#434342"/><path d="M180.78,56.78a6.28,6.28,0,0,0-1.85-1.57c-.79-.3-1.18.14-.9.38A26.3,26.3,0,0,0,180.78,56.78Z" style="fill:#434342"/><path d="M180.78,57.3a1.2,1.2,0,0,1-.65.36.51.51,0,0,0-.32-.26c-.34-.07-.7.32-.81.86s.07,1,.41,1.1.7-.31.81-.85a1.57,1.57,0,0,0,0-.48A1.76,1.76,0,0,0,180.78,57.3Z" style="fill:#161818"/><path d="M179.56,58.48a1.31,1.31,0,0,0,1.48-.1,1.26,1.26,0,0,0-1.48.1Z" style="fill:#feefe7"/><path d="M174.2,56a.93.93,0,0,0,.34.51.41.41,0,0,1,.33-.07c.27.08.39.49.27.93s-.43.73-.71.65-.39-.48-.27-.92a1.19,1.19,0,0,1,.16-.36A1.48,1.48,0,0,1,174.2,56Z" style="fill:#161818"/><path d="M174.65,57.35a1.16,1.16,0,0,1-.62-.14,1.18,1.18,0,0,1-.42-.48,1.16,1.16,0,0,1,.62.14A1.18,1.18,0,0,1,174.65,57.35Z" style="fill:#feefe7"/><path d="M178,60.18c0,.26.54.49,1.22.51s1.24-.17,1.25-.42-.54-.49-1.22-.51S178,59.93,178,60.18Z" style="fill:#ef7b71"/><path d="M171.71,57.81c-.11.16.19.57.68.9s1,.48,1.07.32-.19-.57-.67-.9S171.82,57.65,171.71,57.81Z" style="fill:#ef7b71"/><path d="M173.55,61a5.49,5.49,0,0,1,4.52.59s-1.25,1.69-2.42,1.5C174.24,62.85,173.55,61,173.55,61Z" style="fill:#eb5d6a"/><path d="M173.68,61.06a11.07,11.07,0,0,1,4.25.54,2.37,2.37,0,0,1-2.34,1.1A2.42,2.42,0,0,1,173.68,61.06Z" style="fill:#feefe7"/><path d="M181.29,60.29s1-.73,1.64-.3a2.87,2.87,0,0,1,.49,1.33s.59-1.58,1.23-3.21h0c.12-.3.24-.6.34-.9a7.79,7.79,0,0,0,.62-2.6s0-.06,0-.08,0-.07,0-.1c-.41-1.15-3.32-5.32-5.28-5.76a7.87,7.87,0,0,0-1.65-.15h-.75a18.45,18.45,0,0,0-2.77.32l-.3.06-.15,0-.54.14-.12,0a3.46,3.46,0,0,0-.72.3,4,4,0,0,0-1,1.38,22.15,22.15,0,0,0-1.05,2.5h0a5.73,5.73,0,0,1,3.28.1l1.82.59A29.14,29.14,0,0,1,181,55.79l1.26.65Z" style="fill:#161818"/><path d="M186,59.53a9.2,9.2,0,0,1-2-3.82c-.19-.71-.07-1.52-.56-2.08a2.4,2.4,0,0,0-1.52-.65,5.45,5.45,0,0,1-1.67-.33c-.89-.41-1.35-1.38-2.19-1.87a5.17,5.17,0,0,0-3.48-.12,6.73,6.73,0,0,1-2.23.13,4,4,0,0,1,1-1.38,3.46,3.46,0,0,1,.72-.3l.12,0,.54-.14.15,0,.3-.06a18.45,18.45,0,0,1,2.77-.32h.75a7.87,7.87,0,0,1,1.65.15c2,.44,4.87,4.61,5.28,5.76,0,0,0,.06,0,.1s0,0,0,.08C185.66,55.12,186.1,59.23,186,59.53Z" style="fill:#434342"/><path d="M185.6,54.52a3.07,3.07,0,0,1-1.29-1,4.74,4.74,0,0,0-1.07-1.36c-.58-.35-1.36-.25-2-.53-.88-.4-1.2-1.44-2-2a5,5,0,0,0-2.65-.52,5.13,5.13,0,0,1-1.5-.27,15,15,0,0,1,5.17-.19c2,.44,4.87,4.61,5.28,5.76C185.59,54.45,185.59,54.48,185.6,54.52Z" style="fill:#5b5a5a"/><g style="mix-blend-mode:luminosity"><rect x="147.75" y="45.81" width="19.5" height="12.15" rx="3.83" transform="translate(315.01 103.77) rotate(180)" style="fill:#fff"/><polygon points="157.02 57.29 159.3 63.07 162.54 62.11 165.95 66.28 164.58 59.23 161.7 59.67 161.75 57.05 157.02 57.29" style="fill:#fff"/><path d="M157.93,52.25a3.84,3.84,0,1,0,3.83-3.84h-.2l.47,3.66-4-.59A4.67,4.67,0,0,0,157.93,52.25Z" style="fill:#698cb2"/><path d="M157.28,50.75l4,.59-.47-3.65A3.82,3.82,0,0,0,157.28,50.75Z" style="fill:#d94663"/><rect x="150.63" y="48.09" width="4.88" height="0.6" style="fill:#c3aebb"/><rect x="150.63" y="49.84" width="4.88" height="0.6" style="fill:#c3aebb"/><rect x="150.63" y="51.58" width="4.88" height="0.6" style="fill:#c3aebb"/><rect x="150.63" y="53.33" width="4.88" height="0.6" style="fill:#c3aebb"/><rect x="150.63" y="55.08" width="4.88" height="0.6" style="fill:#c3aebb"/></g></g><rect x="66.39" y="98.22" width="136.6" height="16.27" style="fill:#434343;opacity:0.8;mix-blend-mode:multiply"/><rect x="71.88" y="106.34" width="1.23" height="4.29" style="fill:#fff"/><rect x="74.33" y="106.34" width="1.23" height="4.29" style="fill:#fff"/><polygon points="82.22 106.28 82.22 110.68 79.88 109.33 79.88 107.64 82.22 106.28" style="fill:#fff"/><path d="M84.13,110.36a.15.15,0,0,1-.13-.07.14.14,0,0,1,0-.21,1.88,1.88,0,0,0,0-3.2.14.14,0,0,1,0-.21.16.16,0,0,1,.21,0,2.18,2.18,0,0,1,0,3.72A.13.13,0,0,1,84.13,110.36Z" style="fill:#fff"/><path d="M83.41,109.8a.15.15,0,0,1-.14-.1.14.14,0,0,1,.09-.19,1.1,1.1,0,0,0,.73-1,1.08,1.08,0,0,0-.73-1,.16.16,0,0,1-.09-.2.15.15,0,0,1,.19-.09,1.38,1.38,0,0,1,0,2.62Z" style="fill:#fff"/><path d="M82.94,109.14a.15.15,0,0,1-.14-.1.14.14,0,0,1,.09-.19.4.4,0,0,0,.26-.37.38.38,0,0,0-.26-.36.16.16,0,0,1-.09-.2.14.14,0,0,1,.19-.09.7.7,0,0,1,.47.65.69.69,0,0,1-.47.65Z" style="fill:#fff"/><path d="M148,103.76H72.25a.37.37,0,0,1-.37-.37h0a.37.37,0,0,1,.37-.37H148a.37.37,0,0,1,.37.37h0A.37.37,0,0,1,148,103.76Z" style="fill:#e52629"/><path d="M196.83,103.76H121.08a.37.37,0,0,1-.37-.37h0a.37.37,0,0,1,.37-.37h75.75a.37.37,0,0,1,.37.37h0A.37.37,0,0,1,196.83,103.76Z" style="fill:#fff"/><path d="M122.55,103.13a1.85,1.85,0,1,1-1.84-1.84A1.84,1.84,0,0,1,122.55,103.13Z" style="fill:#fff"/><path d="M187.81,110.6h-5.48a.83.83,0,0,1-.82-.83v-2.58a.83.83,0,0,1,.82-.83h5.48a.83.83,0,0,1,.83.83v2.58A.83.83,0,0,1,187.81,110.6Zm-5.48-3.95a.54.54,0,0,0-.54.54v2.58a.54.54,0,0,0,.54.54h5.48a.54.54,0,0,0,.54-.54v-2.58a.54.54,0,0,0-.54-.54Z" style="fill:#fff"/><path d="M196.38,106.65a.54.54,0,0,1,.54.54v.34h.28v-.34a.83.83,0,0,0-.82-.83h-.65v.29Z" style="fill:#fff"/><path d="M196.92,109.77a.54.54,0,0,1-.54.54h-.65v.29h.65a.83.83,0,0,0,.82-.83v-.34h-.28Z" style="fill:#fff"/><path d="M190.9,110.31a.54.54,0,0,1-.54-.54v-.34h-.29v.34a.83.83,0,0,0,.83.83h.65v-.29Z" style="fill:#fff"/><path d="M190.36,107.19a.54.54,0,0,1,.54-.54h.65v-.29h-.65a.83.83,0,0,0-.83.83v.34h.29Z" style="fill:#fff"/><rect x="209.08" y="32.23" width="36.84" height="25.41" style="fill:#bdbec0"/><circle cx="227.5" cy="44.94" r="8.63" transform="translate(131.2 255.89) rotate(-76.64)" style="fill:#d1d2d4"/><polygon points="224.59 49.34 224.59 40.53 232.51 44.94 224.59 49.34" style="fill:#fff"/><rect x="209.08" y="60.66" width="36.84" height="25.41" style="fill:#bdbec0"/><circle cx="227.5" cy="73.36" r="8.63" transform="translate(103.55 277.75) rotate(-76.64)" style="fill:#d1d2d4"/><polygon points="224.59 77.77 224.59 68.96 232.51 73.36 224.59 77.77" style="fill:#fff"/><rect x="209.08" y="89.08" width="36.84" height="25.41" style="fill:#bdbec0"/><circle cx="227.5" cy="101.79" r="8.63" transform="translate(75.89 299.6) rotate(-76.64)" style="fill:#d1d2d4"/><polygon points="224.59 106.19 224.59 97.38 232.51 101.79 224.59 106.19" style="fill:#fff"/><rect x="209.08" y="117.51" width="36.84" height="12.71" style="fill:#bdbec0"/><path d="M236.12,130.21H218.87a8.63,8.63,0,1,1,17.25,0Z" style="fill:#d1d2d4"/><polygon points="232.5 130.21 224.59 130.21 224.59 125.81 232.5 130.21" style="fill:#fff"/><rect x="66.3" y="5.89" width="136.8" height="22.72" style="fill:#d94663"/><rect x="209.08" y="18.89" width="36.84" height="9.72" style="fill:#ee7525"/><text transform="translate(73.11 21.77)" style="opacity:0.99;font-size:13.078790664672852px;fill:#312783;font-family:MSReferenceSansSerif, MS Reference Sans Serif"><tspan xml:space="preserve">     </tspan><tspan x="22.99" y="0" style="fill:#fff">AIS </tspan><tspan x="50.97" y="0" style="fill:#fff;letter-spacing:-0.09762794599954237em">T</tspan><tspan x="57.76" y="0" style="fill:#fff;letter-spacing:-0.017584230426686217em">r</tspan><tspan x="63.11" y="0" xml:space="preserve" style="fill:#fff;letter-spacing:-0.00003733382256196649em">aining              </tspan></text><text transform="translate(212.18 25.39)" style="font-size:4.5966715812683105px;fill:#fff;font-family:Montserrat-Black, Montserrat Black;font-weight:800"><tspan style="letter-spacing:-0.026981139571815905em">T</tspan><tspan x="2.16" y="0">OP</tspan><tspan x="7.77" y="0" style="letter-spacing:-0.0359040361231251em"> </tspan><tspan x="8.58" y="0">VIDEOS</tspan></text><rect x="209.08" y="5.89" width="36.84" height="9.72" style="fill:#00a79d"/><text transform="translate(216.56 12.39)" style="font-size:4.5966715812683105px;fill:#fff;font-family:Montserrat-Black, Montserrat Black;font-weight:800">STUDIES</text><rect x="167.1" y="117.51" width="35.95" height="7.81" style="fill:#d94663"/><rect x="66.39" y="118.78" width="51.4" height="2.27" style="fill:#d1d2d4"/><rect x="66.39" y="124.07" width="81.58" height="2.27" style="fill:#d1d2d4"/><polygon points="204.42 145.79 190.81 128.01 168.71 128.01 204.42 145.79" style="fill:#009fe3"/><g style="mix-blend-mode:luminosity"><rect x="73.83" y="39.91" width="66.71" height="46.16" style="fill:#f6ded4"/><path d="M130.58,67.74a4.75,4.75,0,1,0,4.75,4.74c0-.08,0-.16,0-.24l-4.53.58.73-5A4.76,4.76,0,0,0,130.58,67.74Z" style="fill:#fab513"/><path d="M132.43,66.93l-.73,5,4.53-.58A4.75,4.75,0,0,0,132.43,66.93Z" style="fill:#f07f3d"/><rect x="93.51" y="66.87" width="5.9" height="5.9" style="fill:#fff"/><rect x="94.53" y="68.04" width="3.86" height="0.54" style="fill:#d1d2d4"/><rect x="94.53" y="69.28" width="3.86" height="0.54" style="fill:#d1d2d4"/><rect x="94.53" y="70.53" width="3.86" height="0.54" style="fill:#d1d2d4"/><rect x="101.29" y="66.87" width="5.9" height="5.9" style="fill:#fff"/><rect x="102.31" y="68.04" width="3.86" height="0.54" style="fill:#d1d2d4"/><rect x="102.31" y="69.28" width="3.86" height="0.54" style="fill:#d1d2d4"/><rect x="102.31" y="70.53" width="3.86" height="0.54" style="fill:#d1d2d4"/><path d="M124.19,44.28h11.7a0,0,0,0,1,0,0v3.15A11.58,11.58,0,0,1,124.31,59h-.12a0,0,0,0,1,0,0V44.28A0,0,0,0,1,124.19,44.28Z" style="fill:#fff"/><rect x="128.15" y="43.62" width="3.79" height="1.19" style="fill:#d94663"/><path d="M131.69,59h0v-4.2h4.2A4.2,4.2,0,0,1,131.69,59Z" style="fill:#c3aebb"/><path d="M79.58,66.93h11.7a0,0,0,0,1,0,0v3.15A11.58,11.58,0,0,1,79.69,81.66h-.12a0,0,0,0,1,0,0V66.93A0,0,0,0,1,79.58,66.93Z" style="fill:#fff"/><rect x="83.53" y="66.28" width="3.79" height="1.19" style="fill:#d94663"/><path d="M87.08,81.66h0V77.47h4.2A4.2,4.2,0,0,1,87.08,81.66Z" style="fill:#c3aebb"/><path d="M111.61,66.93h11.7a0,0,0,0,1,0,0v3.15a11.58,11.58,0,0,1-11.58,11.58h-.12a0,0,0,0,1,0,0V66.93A0,0,0,0,1,111.61,66.93Z" style="fill:#fff"/><rect x="115.57" y="66.28" width="3.79" height="1.19" style="fill:#f07f3d"/><path d="M119.11,81.66h0V77.47h4.2A4.2,4.2,0,0,1,119.11,81.66Z" style="fill:#c3aebb"/><path d="M111.61,44.7h7.58a0,0,0,0,1,0,0v2a7.5,7.5,0,0,1-7.5,7.5h-.08a0,0,0,0,1,0,0V44.7A0,0,0,0,1,111.61,44.7Z" style="fill:#fab513"/><rect x="114.17" y="44.28" width="2.45" height="0.77" style="fill:#476a98"/><path d="M116.47,54.24h0V51.52h2.72A2.72,2.72,0,0,1,116.47,54.24Z" style="fill:#dc9706"/><rect x="78.92" y="46.62" width="26.02" height="1.39" style="fill:#c3aebb"/><rect x="78.92" y="50.95" width="26.02" height="1.39" style="fill:#c3aebb"/><rect x="78.92" y="55.27" width="26.02" height="1.39" style="fill:#c3aebb"/><rect x="78.92" y="59.6" width="13.01" height="1.39" style="fill:#c3aebb"/></g></g></g></svg>