<svg xmlns="http://www.w3.org/2000/svg" xmlns:xlink="http://www.w3.org/1999/xlink" viewBox="0 0 1199 1192"><defs><style>.cls-1{fill:url(#linear-gradient);}.cls-2{isolation:isolate;}.cls-3{fill:#93b5d1;}.cls-4{fill:#2773ad;}.cls-5{fill:#d2ebfb;}.cls-29,.cls-6,.cls-7{fill:#4091cf;}.cls-6{opacity:0.5;}.cls-14,.cls-27,.cls-8,.cls-9{fill:#fff;}.cls-9{opacity:0.3;}.cls-10{fill:#a8ceef;}.cls-11{fill:#76b5e4;}.cls-12{fill:#1c2b4d;}.cls-13{fill:#529fd7;}.cls-14,.cls-29{mix-blend-mode:screen;}.cls-15{fill:#0d4c94;}.cls-16{fill:#1e3867;}.cls-17{fill:#1c2342;}.cls-18{fill:#ffd70d;}.cls-19{fill:#e94880;}.cls-20{fill:#28b5b4;}.cls-21{fill:#ffcc07;}.cls-22{fill:#ffde17;}.cls-23{fill:#d72d69;}.cls-24{fill:#ec6395;}.cls-25{fill:#05a1a0;}.cls-26{fill:#57bec3;}.cls-27{opacity:0.7;}.cls-28{mask:url(#mask);}</style><linearGradient id="linear-gradient" x1="4726.78" y1="354.83" x2="4855.19" y2="575.06" gradientTransform="matrix(1, 0, 0, -1, -3838.9, 901.34)" gradientUnits="userSpaceOnUse"><stop offset="0.56" stop-color="#fff"/><stop offset="0.61" stop-color="#f4f4f5"/><stop offset="0.69" stop-color="#d8d8d8"/><stop offset="0.8" stop-color="#aaaaab"/><stop offset="0.92" stop-color="#6c6c6d"/><stop offset="1" stop-color="#414142"/></linearGradient><mask id="mask" x="683.84" y="185.72" width="519.85" height="529.89" maskUnits="userSpaceOnUse"><rect class="cls-1" x="683.84" y="185.72" width="519.85" height="529.89" transform="translate(1887.52 901.34) rotate(180)"/></mask></defs><g class="cls-2"><g id="Layer_1" data-name="Layer 1"><path class="cls-3" d="M947.39,996.82c-9,0-17.34-1.93-23.38-5.42L587.15,796.92c-6.33-3.65-9.81-8.79-9.81-14.46,0-6.73,4.93-13.43,13.54-18.4L782.05,653.68c8.33-4.8,19.33-7.56,30.2-7.56,9,0,17.34,1.92,23.38,5.41L1172.49,846c6.33,3.65,9.81,8.79,9.81,14.46,0,6.72-4.93,13.43-13.54,18.4L977.58,989.25C969.26,994.06,958.26,996.82,947.39,996.82ZM812.25,649.47c-10.3,0-20.69,2.59-28.52,7.11L592.55,767c-7.54,4.35-11.87,10-11.87,15.5,0,4.42,2.9,8.53,8.15,11.56L925.69,988.51c5.54,3.2,13.24,5,21.7,5,10.3,0,20.69-2.59,28.52-7.11L1167.09,876c7.54-4.35,11.86-10,11.86-15.5,0-4.42-2.89-8.53-8.14-11.56L834,654.43C828.41,651.23,820.7,649.47,812.25,649.47Z"/><path class="cls-4" d="M925.28,970,613.48,790c-5.49-3.17-8.22-7.39-8.31-11.83V762.71c.1-5.39,4.08,4,11.76-.47l177-102.16c14.22-8.21,35.73-9.1,48-2l311.8,180c4.11,2.37,7.09-7.7,8.16-4.5.35,1.07.13,15.2.15,16.3.12,5.53-3.87,11.38-11.76,15.93L973.32,968C959.1,976.21,937.59,977.1,925.28,970Z"/><path class="cls-5" d="M925.28,954.84l-311.8-180c-12.31-7.11-10.77-19.53,3.45-27.74l177-102.16c14.22-8.21,35.73-9.1,48-2l311.8,180c12.31,7.11,10.77,19.52-3.45,27.73L973.32,952.85C959.1,961.05,937.59,962,925.28,954.84Z"/><path class="cls-6" d="M925.28,970c12.31,7.11,33.82,6.21,48-2V952.85c-14.22,8.2-35.73,9.1-48,2Z"/><path class="cls-7" d="M925.28,954.84l-311.8-180c-6-3.44-8.64-8.12-8.24-13a6.18,6.18,0,0,0-.07.85v15.44c.09,4.44,2.82,8.66,8.31,11.83l311.8,180Z"/><path class="cls-8" d="M1150.27,848.11,973.32,950.27c-14.22,8.21-35.73,9.1-48,2l-311.8-180c-5.11-3-7.79-6.81-8.22-10.91-.64,5,2,9.93,8.22,13.49l311.8,180c12.31,7.11,33.82,6.21,48-2l176.95-102.17c8.32-4.8,12.27-11,11.67-16.82C1161.3,838.87,1157.37,844,1150.27,848.11Z"/><path class="cls-9" d="M854.31,892l-111-64.07c-2.22-1.28-2-3.52.62-5l41.66-24.06c2.57-1.48,6.45-1.64,8.67-.36l111,64.07c2.22,1.28,1.94,3.53-.62,5L863,891.59C860.41,893.07,856.53,893.23,854.31,892Z"/><path class="cls-10" d="M744,825.51l41.66-24.06c2.57-1.48,6.45-1.64,8.67-.36l111,64.07a3.25,3.25,0,0,1,1,.9c.84-1.25.54-2.63-1-3.53l-111-64.07c-2.22-1.28-6.1-1.12-8.67.36L744,822.88c-2,1.18-2.61,2.83-1.65,4.1A5,5,0,0,1,744,825.51Z"/><path class="cls-11" d="M821.62,666.06l19.13,11a9.67,9.67,0,0,0,8.78,0c2.41-1.4,2.4-3.66,0-5.07l-19.12-11a9.73,9.73,0,0,0-8.78,0C819.18,662.39,819.19,664.66,821.62,666.06ZM854.37,685l9.06,5.23a9.7,9.7,0,0,0,8.78,0c2.41-1.39,2.4-3.66,0-5.07l-9.06-5.23a9.7,9.7,0,0,0-8.78,0C851.92,681.29,851.93,683.56,854.37,685Zm22.68,13.09,9.05,5.23a9.7,9.7,0,0,0,8.78,0c2.42-1.4,2.41-3.67,0-5.07L885.8,693a9.7,9.7,0,0,0-8.78,0C874.6,694.39,874.61,696.66,877.05,698.06Zm22.67,13.09,9.06,5.23a9.67,9.67,0,0,0,8.78,0c2.42-1.4,2.41-3.66,0-5.07l-9-5.23a9.7,9.7,0,0,0-8.78,0C897.28,707.48,897.29,709.75,899.72,711.15Zm22.68,13.1,9.06,5.23a9.7,9.7,0,0,0,8.78,0c2.42-1.39,2.4-3.66,0-5.07l-9.06-5.23a9.7,9.7,0,0,0-8.78,0C920,720.57,920,722.84,922.4,724.25Zm22.68,13.09,9.06,5.23a9.7,9.7,0,0,0,8.78,0c2.42-1.4,2.4-3.67,0-5.07l-9.06-5.23a9.7,9.7,0,0,0-8.78,0C942.64,733.67,942.65,735.94,945.08,737.34Zm22.68,13.09,9.06,5.23a9.67,9.67,0,0,0,8.78,0c2.41-1.4,2.4-3.66,0-5.07l-9.06-5.23a9.7,9.7,0,0,0-8.78,0C965.31,746.76,965.33,749,967.76,750.43Zm22.68,13.1,9.06,5.23a9.7,9.7,0,0,0,8.78,0c2.41-1.39,2.4-3.66,0-5.07l-9.06-5.23a9.7,9.7,0,0,0-8.78,0C988,759.85,988,762.12,990.44,763.53Zm22.68,13.09,9,5.23a9.7,9.7,0,0,0,8.78,0c2.42-1.4,2.41-3.67,0-5.07l-9.06-5.23a9.7,9.7,0,0,0-8.78,0C1010.67,773,1010.68,775.22,1013.12,776.62Zm22.67,13.09,9.06,5.23a9.67,9.67,0,0,0,8.78,0c2.42-1.4,2.41-3.66,0-5.07l-9-5.23a9.7,9.7,0,0,0-8.78,0C1033.35,786,1033.36,788.31,1035.79,789.71Zm22.68,13.1,9.06,5.23a9.7,9.7,0,0,0,8.78,0c2.42-1.39,2.41-3.66,0-5.07l-9.06-5.23a9.7,9.7,0,0,0-8.78,0C1056,799.13,1056,801.4,1058.47,802.81Zm22.68,13.09,9.06,5.23a9.7,9.7,0,0,0,8.78,0c2.42-1.4,2.4-3.67,0-5.07l-9.06-5.23a9.7,9.7,0,0,0-8.78,0C1078.71,812.23,1078.72,814.5,1081.15,815.9Zm23.15,13.37,9.06,5.23a9.7,9.7,0,0,0,8.78,0c2.42-1.39,2.4-3.66,0-5.07l-9.06-5.23a9.7,9.7,0,0,0-8.78,0C1101.86,825.59,1101.87,827.86,1104.3,829.27ZM801.23,678.54l7.84,4.53a11,11,0,0,0,10,0l7.79-4.5c2.75-1.59,2.74-4.17,0-5.77L819,668.29a11,11,0,0,0-10,0l-7.8,4.5C798.44,674.36,798.46,676.94,801.23,678.54Zm40.51,17.64,7.79-4.5c2.75-1.59,2.74-4.17,0-5.77l-7.84-4.53a11.06,11.06,0,0,0-10,0l-7.8,4.5c-2.75,1.58-2.73,4.17,0,5.76l7.85,4.53A11,11,0,0,0,841.74,696.18Zm4.84,8.55,7.85,4.53a11.06,11.06,0,0,0,10,0l7.79-4.5c2.75-1.58,2.74-4.17,0-5.76l-7.84-4.53a11,11,0,0,0-10,0l-7.79,4.5C843.8,700.55,843.81,703.13,846.58,704.73Zm22.68,13.09,7.84,4.53a11,11,0,0,0,10,0l7.79-4.5c2.75-1.59,2.74-4.17,0-5.77L887,707.57a11,11,0,0,0-10,0l-7.79,4.5C866.48,713.64,866.49,716.22,869.26,717.82Zm48.28,7.37-7.85-4.53a11.06,11.06,0,0,0-10,0l-7.79,4.5c-2.75,1.58-2.74,4.17,0,5.76l7.84,4.53a11,11,0,0,0,10,0l7.8-4.5C920.32,729.37,920.3,726.79,917.54,725.19Zm22.67,13.1-7.84-4.53a11,11,0,0,0-10,0l-7.79,4.5c-2.75,1.59-2.74,4.17,0,5.77l7.84,4.53a11.06,11.06,0,0,0,10,0l7.8-4.5C943,742.47,943,739.88,940.21,738.29Zm22.68,13.09-7.84-4.53a11,11,0,0,0-10,0l-7.8,4.5c-2.75,1.59-2.73,4.17,0,5.77l7.84,4.53a11,11,0,0,0,10,0l7.79-4.5C965.68,755.56,965.66,753,962.89,751.38Zm22.68,13.09-7.84-4.53a11.06,11.06,0,0,0-10,0l-7.8,4.5c-2.75,1.58-2.73,4.17,0,5.76l7.85,4.53a11,11,0,0,0,10,0l7.79-4.5C988.35,768.65,988.34,766.07,985.57,764.47Zm22.68,13.1-7.84-4.53a11,11,0,0,0-10,0l-7.8,4.5c-2.75,1.59-2.74,4.17,0,5.77l7.85,4.53a11.06,11.06,0,0,0,10,0l7.79-4.5C1011,781.75,1011,779.16,1008.25,777.57Zm22.68,13.09-7.84-4.53a11.08,11.08,0,0,0-10,0l-7.79,4.5c-2.75,1.59-2.74,4.17,0,5.77l7.84,4.53a11,11,0,0,0,10,0l7.79-4.5C1033.71,794.84,1033.7,792.26,1030.93,790.66ZM1028,809.47l7.84,4.53a11,11,0,0,0,10,0l7.8-4.5c2.75-1.59,2.73-4.17,0-5.77l-7.85-4.53a11.06,11.06,0,0,0-10,0l-7.79,4.5C1025.23,805.29,1025.24,807.88,1028,809.47Zm48.28,7.38-7.85-4.53a11,11,0,0,0-10,0l-7.79,4.5c-2.75,1.59-2.74,4.17,0,5.77l7.84,4.53a11.06,11.06,0,0,0,10,0l7.8-4.5C1079.07,821,1079.05,818.44,1076.29,816.85ZM1109.5,836l-17.91-10.34a11.06,11.06,0,0,0-10,0l-7.79,4.5c-2.75,1.58-2.74,4.17,0,5.76l17.91,10.34a11,11,0,0,0,10,0l7.79-4.5C1112.28,840.2,1112.27,837.62,1109.5,836ZM780.22,690.67,798.13,701a11.06,11.06,0,0,0,10,0l7.79-4.5c2.75-1.59,2.74-4.17,0-5.77L798,680.42a11,11,0,0,0-10,0l-7.79,4.5C777.44,686.49,777.45,689.07,780.22,690.67ZM813,709.57l7.85,4.53a11,11,0,0,0,10,0l7.79-4.5c2.75-1.59,2.74-4.17,0-5.77l-7.84-4.53a11.06,11.06,0,0,0-10,0l-7.8,4.5C810.18,705.39,810.2,708,813,709.57Zm30.53,17.62a11,11,0,0,0,10,0l7.79-4.5c2.75-1.59,2.74-4.17,0-5.77l-7.84-4.52a11,11,0,0,0-10,0l-7.8,4.5c-2.75,1.59-2.74,4.17,0,5.77Zm22.67,13.1a11.08,11.08,0,0,0,10,0l7.79-4.5c2.75-1.59,2.74-4.17,0-5.77l-7.84-4.53a11,11,0,0,0-10,0l-7.79,4.5c-2.75,1.59-2.74,4.17,0,5.77Zm22.6-1.71-7.79,4.5c-2.75,1.59-2.74,4.18,0,5.77l7.84,4.53a11,11,0,0,0,10,0l7.8-4.5c2.75-1.59,2.73-4.17,0-5.77l-7.85-4.53A11.06,11.06,0,0,0,888.76,738.58Zm23.16,12.82-8.75,5.05c-2.49,1.44-2.48,3.77,0,5.22l8.8,5.08a10,10,0,0,0,9,0l8.76-5c2.48-1.44,2.47-3.77,0-5.22L921,751.42A10,10,0,0,0,911.92,751.4Zm22.68,13.09-8.75,5.06c-2.49,1.43-2.48,3.77,0,5.21l8.81,5.09a10,10,0,0,0,9,0l8.75-5.05c2.49-1.44,2.48-3.77,0-5.21l-8.81-5.09A10,10,0,0,0,934.6,764.49Zm22.68,13.1-8.76,5c-2.48,1.44-2.47,3.77,0,5.21l8.81,5.09a10,10,0,0,0,9,0l8.75-5.06c2.49-1.43,2.48-3.77,0-5.21l-8.8-5.09A10,10,0,0,0,957.28,777.59ZM980,790.68l-8.75,5.05c-2.48,1.44-2.47,3.77,0,5.22L980,806a10,10,0,0,0,9,0l8.75-5c2.49-1.44,2.47-3.77,0-5.22L989,790.7A10,10,0,0,0,980,790.68Zm22.68,13.09-8.75,5.06c-2.49,1.43-2.47,3.77,0,5.21l8.81,5.09a10,10,0,0,0,9,0l8.75-5c2.48-1.44,2.47-3.77,0-5.21l-8.81-5.09A10,10,0,0,0,1002.63,803.77Zm31.8,28.47,8.75-5.06c2.48-1.43,2.47-3.77,0-5.21l-8.81-5.09a10,10,0,0,0-9,0l-8.75,5c-2.49,1.44-2.47,3.77,0,5.21l8.8,5.09A10,10,0,0,0,1034.43,832.24Zm22.67,13.09,8.76-5.05c2.48-1.44,2.47-3.77,0-5.22L1057,830a10,10,0,0,0-9,0l-8.75,5c-2.49,1.44-2.48,3.77,0,5.22l8.8,5.08A10,10,0,0,0,1057.1,845.33Zm31.88,3.1-8.81-5.09a10,10,0,0,0-9,0l-8.75,5c-2.49,1.44-2.48,3.77,0,5.21l8.8,5.09a10,10,0,0,0,9,0l8.76-5.06C1091.49,852.21,1091.48,849.87,1089,848.43ZM758.73,702.52l28.44,16.41a10,10,0,0,0,9,0L805,713.9c2.49-1.44,2.47-3.77,0-5.22l-28.43-16.41a10,10,0,0,0-9,0l-8.76,5C756.22,698.74,756.23,701.07,758.73,702.52ZM801,726.94l8.81,5.09a10,10,0,0,0,9,0l8.75-5c2.48-1.43,2.47-3.77,0-5.21l-8.81-5.09a10,10,0,0,0-9,0L801,721.73C798.52,723.16,798.54,725.5,801,726.94ZM823.72,740l8.8,5.08a10,10,0,0,0,9,0l8.75-5.06c2.48-1.43,2.47-3.77,0-5.21l-8.81-5.08a10,10,0,0,0-9,0l-8.75,5.05C821.2,736.26,821.22,738.59,823.72,740Zm22.68,13.09,8.8,5.08a10,10,0,0,0,9,0l8.76-5.05c2.48-1.44,2.47-3.77,0-5.22l-8.81-5.08a10,10,0,0,0-9,0l-8.75,5.06C843.88,749.35,843.89,751.68,846.4,753.13Zm40.51,18.19,8.75-5.05c2.49-1.43,2.48-3.77,0-5.21L886.83,756a10,10,0,0,0-9,0l-8.75,5c-2.49,1.43-2.48,3.77,0,5.21l8.81,5.09A10,10,0,0,0,886.91,771.32Zm22.68,13.1,8.75-5.06c2.49-1.43,2.48-3.77,0-5.21l-8.8-5.08a10,10,0,0,0-9,0l-8.76,5.05c-2.48,1.44-2.47,3.77,0,5.22l8.81,5.08A10,10,0,0,0,909.59,784.42Zm22.68,13.09,8.75-5c2.49-1.44,2.47-3.77,0-5.22l-8.8-5.08a10,10,0,0,0-9,0l-8.75,5.06c-2.48,1.43-2.47,3.77,0,5.21l8.81,5.08A10,10,0,0,0,932.27,797.51ZM955,810.6l8.75-5.05c2.48-1.43,2.47-3.77,0-5.21l-8.81-5.09a10,10,0,0,0-9,0l-8.75,5c-2.48,1.43-2.47,3.77,0,5.21l8.81,5.09A10,10,0,0,0,955,810.6Zm22.68,13.1,8.75-5.06c2.48-1.43,2.47-3.77,0-5.21l-8.81-5.08a10,10,0,0,0-9,0l-8.75,5c-2.49,1.44-2.47,3.77,0,5.22l8.8,5.08A10,10,0,0,0,977.63,823.7Zm22.67,13.09,8.76-5c2.48-1.44,2.47-3.77,0-5.22l-8.81-5.08a10,10,0,0,0-9,0l-8.75,5.06c-2.49,1.43-2.48,3.77,0,5.21l8.8,5.08A10,10,0,0,0,1000.3,836.79Zm4.84,8,8.81,5.09a10,10,0,0,0,9,0l8.75-5c2.49-1.43,2.48-3.77,0-5.21l-8.81-5.09a10,10,0,0,0-9,0l-8.75,5.05C1002.63,841,1002.64,843.34,1005.14,844.78ZM1068,860.56l-22.39-12.93a10,10,0,0,0-9,0l-8.76,5c-2.48,1.44-2.47,3.77,0,5.22l22.4,12.93a10,10,0,0,0,9,0l8.75-5.05C1070.49,864.33,1070.47,862,1068,860.56ZM737.82,715.27l40.34,23.3a11.25,11.25,0,0,0,10.2,0l7.59-4.37c2.8-1.63,2.79-4.26,0-5.89L755.57,705a11.28,11.28,0,0,0-10.2,0l-7.59,4.38C735,711,735,713.64,737.82,715.27Zm55.39,32,7.63,4.41a11.28,11.28,0,0,0,10.2,0l7.58-4.38c2.81-1.62,2.8-4.26,0-5.89L811,737a11.28,11.28,0,0,0-10.2,0l-7.59,4.38C790.37,743,790.38,745.62,793.21,747.25Zm22.67,13.1,7.64,4.4a11.28,11.28,0,0,0,10.2,0l7.58-4.38c2.81-1.62,2.8-4.26,0-5.89l-7.63-4.4a11.25,11.25,0,0,0-10.2,0l-7.59,4.38C813,756.08,813.06,758.71,815.88,760.35Zm22.68,13.09,7.64,4.41a11.25,11.25,0,0,0,10.2,0l7.58-4.37c2.81-1.63,2.8-4.26,0-5.89l-7.63-4.41a11.28,11.28,0,0,0-10.2,0l-7.59,4.38C835.72,769.17,835.74,771.81,838.56,773.44Zm22.68,13.09,7.63,4.41a11.28,11.28,0,0,0,10.2,0l7.59-4.38c2.81-1.62,2.79-4.26,0-5.89L879,776.28a11.3,11.3,0,0,0-10.21,0l-7.58,4.38C858.4,782.26,858.41,784.9,861.24,786.53Zm22.68,13.1,7.63,4.4a11.28,11.28,0,0,0,10.2,0l7.59-4.38c2.81-1.62,2.79-4.26,0-5.89l-7.64-4.4a11.25,11.25,0,0,0-10.2,0l-7.58,4.38C881.08,795.36,881.09,798,883.92,799.63Zm22.68,13.09,7.63,4.41a11.25,11.25,0,0,0,10.2,0l7.59-4.37c2.8-1.63,2.79-4.26,0-5.89l-7.63-4.41a11.28,11.28,0,0,0-10.2,0l-7.58,4.38C903.76,808.45,903.77,811.09,906.6,812.72Zm22.68,13.09,7.63,4.41a11.28,11.28,0,0,0,10.2,0l7.59-4.38c2.8-1.62,2.79-4.26,0-5.89L947,815.56a11.28,11.28,0,0,0-10.2,0l-7.59,4.38C926.44,821.54,926.45,824.18,929.28,825.81ZM952,838.91l7.64,4.4a11.28,11.28,0,0,0,10.2,0l7.58-4.38c2.81-1.62,2.8-4.26,0-5.89l-7.63-4.4a11.25,11.25,0,0,0-10.2,0L951.92,833C949.11,834.64,949.13,837.27,952,838.91ZM974.63,852l7.64,4.41a11.25,11.25,0,0,0,10.2,0l7.58-4.37c2.81-1.63,2.8-4.26,0-5.89l-7.63-4.41a11.28,11.28,0,0,0-10.2,0l-7.59,4.38C971.79,847.73,971.81,850.37,974.63,852Zm22.68,13.09,7.63,4.41a11.28,11.28,0,0,0,10.2,0l7.59-4.38c2.81-1.62,2.79-4.26,0-5.89l-7.63-4.41a11.3,11.3,0,0,0-10.21,0l-7.58,4.38C994.47,860.82,994.49,863.46,997.31,865.09Zm48.57,7.54-7.63-4.4a11.25,11.25,0,0,0-10.2,0l-7.59,4.38c-2.81,1.62-2.79,4.26,0,5.89l7.64,4.4a11.28,11.28,0,0,0,10.2,0l7.58-4.38C1048.72,876.9,1048.71,874.26,1045.88,872.63ZM752.26,727.37l-17.7-10.22a11.28,11.28,0,0,0-10.2,0l-7.58,4.38c-2.81,1.62-2.8,4.26,0,5.89l17.7,10.22a11.28,11.28,0,0,0,10.2,0l7.58-4.38C755.1,731.64,755.09,729,752.26,727.37Zm22.68,13.09-7.63-4.41a11.25,11.25,0,0,0-10.2,0l-7.59,4.37c-2.81,1.63-2.79,4.26,0,5.89l7.64,4.41a11.28,11.28,0,0,0,10.2,0l7.58-4.38C777.78,744.73,777.77,742.09,774.94,740.46Zm22.68,13.09-7.63-4.4a11.28,11.28,0,0,0-10.2,0l-7.59,4.38c-2.81,1.62-2.79,4.26,0,5.89l7.63,4.4a11.27,11.27,0,0,0,10.21,0l7.58-4.38C800.46,757.82,800.45,755.19,797.62,753.55Zm158.75,91.66-143.71-83a11.28,11.28,0,0,0-10.2,0l-7.58,4.38c-2.81,1.62-2.8,4.26,0,5.89l143.7,83a11.28,11.28,0,0,0,10.2,0l7.59-4.38C959.21,849.48,959.19,846.84,956.37,845.21Zm22.68,13.09-7.64-4.41a11.25,11.25,0,0,0-10.2,0l-7.58,4.38c-2.81,1.62-2.8,4.25,0,5.88l7.63,4.41a11.28,11.28,0,0,0,10.2,0l7.59-4.38C981.89,862.57,981.87,859.93,979.05,858.3Zm22.67,13.09-7.63-4.4a11.28,11.28,0,0,0-10.2,0l-7.58,4.38c-2.81,1.62-2.8,4.26,0,5.89l7.63,4.41a11.28,11.28,0,0,0,10.2,0l7.59-4.38C1004.56,875.66,1004.55,873,1001.72,871.39Zm23.15,13.37-7.63-4.41a11.28,11.28,0,0,0-10.2,0l-7.58,4.38c-2.81,1.63-2.8,4.26,0,5.89l7.63,4.41a11.28,11.28,0,0,0,10.2,0l7.59-4.38C1027.71,889,1027.7,886.39,1024.87,884.76Z"/><path class="cls-10" d="M821.62,664l19.13,11a9.7,9.7,0,0,0,8.78,0c2.41-1.4,2.4-3.67,0-5.07l-19.12-11a9.7,9.7,0,0,0-8.78,0C819.18,660.28,819.19,662.55,821.62,664Zm32.75,18.91,9.06,5.23a9.7,9.7,0,0,0,8.78,0c2.41-1.39,2.4-3.66,0-5.07l-9.06-5.23a9.7,9.7,0,0,0-8.78,0C851.92,679.18,851.93,681.45,854.37,682.86ZM877.05,696l9.05,5.23a9.7,9.7,0,0,0,8.78,0c2.42-1.39,2.41-3.66,0-5.06l-9.06-5.23a9.67,9.67,0,0,0-8.78,0C874.6,692.27,874.61,694.54,877.05,696ZM899.72,709l9.06,5.23a9.7,9.7,0,0,0,8.78,0c2.42-1.4,2.41-3.67,0-5.07l-9-5.23a9.7,9.7,0,0,0-8.78,0C897.28,705.37,897.29,707.64,899.72,709Zm22.68,13.1,9.06,5.23a9.7,9.7,0,0,0,8.78,0c2.42-1.39,2.4-3.66,0-5.07l-9.06-5.23a9.7,9.7,0,0,0-8.78,0C920,718.46,920,720.73,922.4,722.14Zm22.68,13.09,9.06,5.23a9.7,9.7,0,0,0,8.78,0c2.42-1.39,2.4-3.66,0-5.06l-9.06-5.23a9.67,9.67,0,0,0-8.78,0C942.64,731.55,942.65,733.82,945.08,735.23Zm22.68,13.09,9.06,5.23a9.7,9.7,0,0,0,8.78,0c2.41-1.4,2.4-3.67,0-5.07l-9.06-5.23a9.7,9.7,0,0,0-8.78,0C965.31,744.65,965.33,746.92,967.76,748.32Zm22.68,13.1,9.06,5.23a9.7,9.7,0,0,0,8.78,0c2.41-1.39,2.4-3.66,0-5.07l-9.06-5.23a9.7,9.7,0,0,0-8.78,0C988,757.74,988,760,990.44,761.42Zm22.68,13.09,9,5.23a9.7,9.7,0,0,0,8.78,0c2.42-1.39,2.41-3.66,0-5.06l-9.06-5.23a9.67,9.67,0,0,0-8.78,0C1010.67,770.83,1010.68,773.1,1013.12,774.51Zm22.67,13.09,9.06,5.23a9.7,9.7,0,0,0,8.78,0c2.42-1.4,2.41-3.67,0-5.07l-9-5.23a9.7,9.7,0,0,0-8.78,0C1033.35,783.93,1033.36,786.2,1035.79,787.6Zm22.68,13.1,9.06,5.23a9.7,9.7,0,0,0,8.78,0c2.42-1.39,2.41-3.66,0-5.07l-9.06-5.23a9.7,9.7,0,0,0-8.78,0C1056,797,1056,799.29,1058.47,800.7Zm22.68,13.09,9.06,5.23a9.7,9.7,0,0,0,8.78,0c2.42-1.39,2.4-3.66,0-5.06l-9.06-5.23a9.67,9.67,0,0,0-8.78,0C1078.71,810.11,1078.72,812.38,1081.15,813.79Zm23.15,13.36,9.06,5.23a9.67,9.67,0,0,0,8.78,0c2.42-1.4,2.4-3.66,0-5.07l-9.06-5.23a9.7,9.7,0,0,0-8.78,0C1101.86,823.48,1101.87,825.75,1104.3,827.15ZM801.23,676.43l7.84,4.53a11.06,11.06,0,0,0,10,0l7.79-4.49c2.75-1.59,2.74-4.18,0-5.77L819,666.18a11,11,0,0,0-10,0l-7.8,4.5C798.44,672.25,798.46,674.83,801.23,676.43Zm40.51,17.64,7.79-4.5c2.75-1.59,2.74-4.17,0-5.77l-7.84-4.53a11.06,11.06,0,0,0-10,0l-7.8,4.5c-2.75,1.59-2.73,4.17,0,5.77l7.85,4.53A11,11,0,0,0,841.74,694.07Zm4.84,8.55,7.85,4.52a11,11,0,0,0,10,0l7.79-4.5c2.75-1.59,2.74-4.17,0-5.77l-7.84-4.52a11,11,0,0,0-10,0l-7.79,4.5C843.8,698.43,843.81,701,846.58,702.62Zm22.68,13.09,7.84,4.53a11.11,11.11,0,0,0,10,0l7.79-4.5c2.75-1.59,2.74-4.18,0-5.77L887,705.46a11,11,0,0,0-10,0l-7.79,4.5C866.48,711.53,866.49,714.11,869.26,715.71Zm48.28,7.37-7.85-4.53a11.06,11.06,0,0,0-10,0l-7.79,4.5c-2.75,1.59-2.74,4.17,0,5.77l7.84,4.53a11,11,0,0,0,10,0l7.8-4.5C920.32,727.26,920.3,724.68,917.54,723.08Zm22.67,13.09-7.84-4.52a11,11,0,0,0-10,0l-7.79,4.5c-2.75,1.58-2.74,4.17,0,5.77l7.84,4.52a11,11,0,0,0,10,0l7.8-4.5C943,740.35,943,737.77,940.21,736.17Zm22.68,13.1-7.84-4.53a11,11,0,0,0-10,0l-7.8,4.5c-2.75,1.59-2.73,4.17,0,5.77l7.84,4.53a11.09,11.09,0,0,0,10,0l7.79-4.5C965.68,753.45,965.66,750.86,962.89,749.27Zm22.68,13.09-7.84-4.53a11.06,11.06,0,0,0-10,0l-7.8,4.5c-2.75,1.59-2.73,4.17,0,5.77l7.85,4.53a11,11,0,0,0,10,0l7.79-4.5C988.35,766.54,988.34,764,985.57,762.36Zm22.68,13.09-7.84-4.52a11,11,0,0,0-10,0l-7.8,4.5c-2.75,1.58-2.74,4.17,0,5.77l7.85,4.52a11,11,0,0,0,10,0l7.79-4.5C1011,779.63,1011,777.05,1008.25,775.45Zm22.68,13.1-7.84-4.53a11,11,0,0,0-10,0l-7.79,4.5c-2.75,1.59-2.74,4.17,0,5.77l7.84,4.53a11.08,11.08,0,0,0,10,0l7.79-4.5C1033.71,792.73,1033.7,790.14,1030.93,788.55ZM1028,807.36l7.84,4.53a11,11,0,0,0,10,0l7.8-4.5c2.75-1.59,2.73-4.17,0-5.77l-7.85-4.53a11.06,11.06,0,0,0-10,0l-7.79,4.5C1025.23,803.18,1025.24,805.76,1028,807.36Zm48.28,7.37-7.85-4.52a11,11,0,0,0-10,0l-7.79,4.5c-2.75,1.59-2.74,4.17,0,5.77l7.84,4.52a11,11,0,0,0,10,0l7.8-4.5C1079.07,818.91,1079.05,816.33,1076.29,814.73Zm33.21,19.18-17.91-10.34a11.06,11.06,0,0,0-10,0l-7.79,4.5c-2.75,1.59-2.74,4.17,0,5.77l17.91,10.34a11,11,0,0,0,10,0l7.79-4.5C1112.28,838.09,1112.27,835.51,1109.5,833.91ZM780.22,688.56l17.91,10.34a11.06,11.06,0,0,0,10,0l7.79-4.5c2.75-1.58,2.74-4.17,0-5.77L798,678.31a11,11,0,0,0-10,0l-7.79,4.5C777.44,684.38,777.45,687,780.22,688.56ZM813,707.46l7.85,4.53a11.06,11.06,0,0,0,10,0l7.79-4.5c2.75-1.59,2.74-4.17,0-5.77l-7.84-4.53a11,11,0,0,0-10,0l-7.8,4.5C810.18,703.28,810.2,705.86,813,707.46Zm30.53,17.62a11,11,0,0,0,10,0l7.79-4.5c2.75-1.59,2.74-4.17,0-5.77l-7.84-4.53a11.06,11.06,0,0,0-10,0l-7.8,4.5c-2.75,1.58-2.74,4.17,0,5.76Zm22.67,13.1a11.08,11.08,0,0,0,10,0l7.79-4.5c2.75-1.58,2.74-4.17,0-5.77l-7.84-4.52a11,11,0,0,0-10,0l-7.79,4.5c-2.75,1.59-2.74,4.17,0,5.77Zm22.6-1.71L881,741c-2.75,1.59-2.74,4.17,0,5.77l7.84,4.53a11,11,0,0,0,10,0l7.8-4.5c2.75-1.59,2.73-4.17,0-5.77l-7.85-4.53A11,11,0,0,0,888.76,736.47Zm23.16,12.82-8.75,5.05c-2.49,1.44-2.48,3.77,0,5.22l8.8,5.08a10,10,0,0,0,9,0l8.76-5.06c2.48-1.43,2.47-3.77,0-5.21L921,749.31A10,10,0,0,0,911.92,749.29Zm22.68,13.09-8.75,5.06c-2.49,1.43-2.48,3.76,0,5.21l8.81,5.08a10,10,0,0,0,9,0l8.75-5c2.49-1.44,2.48-3.77,0-5.22l-8.81-5.08A10,10,0,0,0,934.6,762.38Zm22.68,13.1-8.76,5c-2.48,1.43-2.47,3.77,0,5.21l8.81,5.09a10,10,0,0,0,9,0l8.75-5.05c2.49-1.43,2.48-3.77,0-5.21l-8.8-5.09A10,10,0,0,0,957.28,775.48ZM980,788.57l-8.75,5c-2.48,1.44-2.47,3.77,0,5.22l8.81,5.08a10,10,0,0,0,9,0l8.75-5.06c2.49-1.43,2.47-3.77,0-5.21l-8.8-5.08A10,10,0,0,0,980,788.57Zm22.68,13.09-8.75,5.06c-2.49,1.43-2.47,3.76,0,5.21l8.81,5.08a10,10,0,0,0,9,0l8.75-5c2.48-1.44,2.47-3.77,0-5.22l-8.81-5.08A10,10,0,0,0,1002.63,801.66Zm31.8,28.46,8.75-5c2.48-1.43,2.47-3.77,0-5.21l-8.81-5.09a10,10,0,0,0-9,0l-8.75,5c-2.49,1.43-2.47,3.77,0,5.21l8.8,5.09A10,10,0,0,0,1034.43,830.12Zm22.67,13.1,8.76-5.06c2.48-1.43,2.47-3.77,0-5.21l-8.81-5.08a10,10,0,0,0-9,0l-8.75,5c-2.49,1.44-2.48,3.77,0,5.22l8.8,5.08A10,10,0,0,0,1057.1,843.22Zm31.88,3.1-8.81-5.09a10,10,0,0,0-9,0l-8.75,5c-2.49,1.43-2.48,3.77,0,5.21l8.8,5.09a10,10,0,0,0,9,0l8.76-5.05C1091.49,850.09,1091.48,847.76,1089,846.32ZM758.73,700.41l28.44,16.41a10,10,0,0,0,9,0l8.75-5.05c2.49-1.44,2.47-3.77,0-5.22l-28.43-16.42a10,10,0,0,0-9,0l-8.76,5.05C756.22,696.63,756.23,699,758.73,700.41ZM801,724.83l8.81,5.08a10,10,0,0,0,9,0l8.75-5c2.48-1.44,2.47-3.77,0-5.22l-8.81-5.08a10,10,0,0,0-9,0L801,719.62C798.52,721.05,798.54,723.39,801,724.83Zm22.68,13.09,8.8,5.09a10,10,0,0,0,9,0l8.75-5c2.48-1.43,2.47-3.77,0-5.21l-8.81-5.09a10,10,0,0,0-9,0l-8.75,5.05C821.2,734.15,821.22,736.48,823.72,737.92ZM846.4,751l8.8,5.08a10,10,0,0,0,9,0l8.76-5c2.48-1.44,2.47-3.77,0-5.22l-8.81-5.08a10,10,0,0,0-9,0l-8.75,5C843.88,747.24,843.89,749.57,846.4,751Zm40.51,18.19,8.75-5.05c2.49-1.44,2.48-3.77,0-5.22l-8.81-5.08a10,10,0,0,0-9,0l-8.75,5.06c-2.49,1.43-2.48,3.77,0,5.21l8.81,5.09A10,10,0,0,0,886.91,769.21Zm22.68,13.09,8.75-5c2.49-1.43,2.48-3.77,0-5.21l-8.8-5.09a10,10,0,0,0-9,0l-8.76,5c-2.48,1.44-2.47,3.77,0,5.21l8.81,5.09A10,10,0,0,0,909.59,782.3Zm22.68,13.1,8.75-5c2.49-1.44,2.47-3.77,0-5.22l-8.8-5.08a10,10,0,0,0-9,0l-8.75,5.05c-2.48,1.44-2.47,3.77,0,5.22l8.81,5.08A10,10,0,0,0,932.27,795.4ZM955,808.49l8.75-5c2.48-1.44,2.47-3.77,0-5.22l-8.81-5.08a10,10,0,0,0-9,0l-8.75,5.06c-2.48,1.43-2.47,3.77,0,5.21l8.81,5.09A10,10,0,0,0,955,808.49Zm22.68,13.1,8.75-5.06c2.48-1.43,2.47-3.77,0-5.21l-8.81-5.09a10,10,0,0,0-9,0l-8.75,5c-2.49,1.44-2.47,3.77,0,5.21l8.8,5.09A10,10,0,0,0,977.63,821.59Zm22.67,13.09,8.76-5c2.48-1.44,2.47-3.77,0-5.22l-8.81-5.08a10,10,0,0,0-9,0l-8.75,5.05c-2.49,1.44-2.48,3.77,0,5.22l8.8,5.08A10,10,0,0,0,1000.3,834.68Zm4.84,8,8.81,5.09a10,10,0,0,0,9,0l8.75-5c2.49-1.44,2.48-3.77,0-5.21l-8.81-5.09a10,10,0,0,0-9,0l-8.75,5.06C1002.63,838.89,1002.64,841.23,1005.14,842.67ZM1068,858.44l-22.39-12.93a10,10,0,0,0-9,0l-8.76,5c-2.48,1.44-2.47,3.77,0,5.21l22.4,12.93a10,10,0,0,0,9,0l8.75-5.05C1070.49,862.22,1070.47,859.89,1068,858.44ZM737.82,713.16l40.34,23.29a11.28,11.28,0,0,0,10.2,0l7.59-4.38c2.8-1.62,2.79-4.26,0-5.89l-40.34-23.29a11.28,11.28,0,0,0-10.2,0l-7.59,4.38C735,708.89,735,711.53,737.82,713.16Zm55.39,32,7.63,4.41a11.28,11.28,0,0,0,10.2,0l7.58-4.38c2.81-1.63,2.8-4.26,0-5.89L811,734.89a11.28,11.28,0,0,0-10.2,0l-7.59,4.38C790.37,740.87,790.38,743.51,793.21,745.14Zm22.67,13.09,7.64,4.41a11.28,11.28,0,0,0,10.2,0l7.58-4.38c2.81-1.62,2.8-4.26,0-5.89L833.64,748a11.28,11.28,0,0,0-10.2,0l-7.59,4.38C813,754,813.06,756.6,815.88,758.23Zm22.68,13.1,7.64,4.4a11.25,11.25,0,0,0,10.2,0l7.58-4.38c2.81-1.62,2.8-4.26,0-5.89l-7.63-4.4a11.25,11.25,0,0,0-10.2,0l-7.59,4.38C835.72,767.06,835.74,769.7,838.56,771.33Zm22.68,13.09,7.63,4.41a11.28,11.28,0,0,0,10.2,0l7.59-4.38c2.81-1.63,2.79-4.26,0-5.89L879,774.17a11.3,11.3,0,0,0-10.21,0l-7.58,4.38C858.4,780.15,858.41,782.79,861.24,784.42Zm22.68,13.09,7.63,4.41a11.28,11.28,0,0,0,10.2,0l7.59-4.38c2.81-1.62,2.79-4.26,0-5.89l-7.64-4.41a11.28,11.28,0,0,0-10.2,0l-7.58,4.38C881.08,793.25,881.09,795.88,883.92,797.51Zm22.68,13.1,7.63,4.4a11.25,11.25,0,0,0,10.2,0l7.59-4.38c2.8-1.62,2.79-4.26,0-5.89l-7.63-4.4a11.25,11.25,0,0,0-10.2,0l-7.58,4.38C903.76,806.34,903.77,809,906.6,810.61Zm22.68,13.09,7.63,4.41a11.28,11.28,0,0,0,10.2,0l7.59-4.38c2.8-1.63,2.79-4.26,0-5.89L947,813.45a11.28,11.28,0,0,0-10.2,0l-7.59,4.38C926.44,819.43,926.45,822.07,929.28,823.7ZM952,836.79l7.64,4.41a11.28,11.28,0,0,0,10.2,0l7.58-4.38c2.81-1.62,2.8-4.26,0-5.89l-7.63-4.41a11.28,11.28,0,0,0-10.2,0l-7.59,4.38C949.11,832.53,949.13,835.16,952,836.79Zm22.68,13.1,7.64,4.4a11.25,11.25,0,0,0,10.2,0l7.58-4.38c2.81-1.62,2.8-4.26,0-5.89l-7.63-4.4a11.25,11.25,0,0,0-10.2,0L974.6,844C971.79,845.62,971.81,848.26,974.63,849.89ZM997.31,863l7.63,4.41a11.28,11.28,0,0,0,10.2,0l7.59-4.38c2.81-1.63,2.79-4.26,0-5.89l-7.63-4.41a11.3,11.3,0,0,0-10.21,0l-7.58,4.38C994.47,858.71,994.49,861.35,997.31,863Zm48.57,7.54-7.63-4.41a11.25,11.25,0,0,0-10.2,0l-7.59,4.37c-2.81,1.63-2.79,4.26,0,5.89l7.64,4.41a11.28,11.28,0,0,0,10.2,0l7.58-4.38C1048.72,874.79,1048.71,872.15,1045.88,870.52ZM752.26,725.25,734.56,715a11.28,11.28,0,0,0-10.2,0l-7.58,4.38c-2.81,1.62-2.8,4.26,0,5.89l17.7,10.22a11.25,11.25,0,0,0,10.2,0l7.58-4.38C755.1,729.52,755.09,726.89,752.26,725.25Zm22.68,13.1-7.63-4.41a11.28,11.28,0,0,0-10.2,0l-7.59,4.38c-2.81,1.62-2.79,4.26,0,5.89l7.64,4.41a11.28,11.28,0,0,0,10.2,0l7.58-4.38C777.78,742.62,777.77,740,774.94,738.35Zm22.68,13.09L790,747a11.28,11.28,0,0,0-10.2,0l-7.59,4.38c-2.81,1.62-2.79,4.25,0,5.89l7.63,4.4a11.3,11.3,0,0,0,10.21,0l7.58-4.38C800.46,755.71,800.45,753.07,797.62,751.44ZM956.37,843.1l-143.71-83a11.28,11.28,0,0,0-10.2,0l-7.58,4.38c-2.81,1.62-2.8,4.26,0,5.89l143.7,83a11.25,11.25,0,0,0,10.2,0L956.4,849C959.21,847.36,959.19,844.73,956.37,843.1Zm22.68,13.09-7.64-4.41a11.28,11.28,0,0,0-10.2,0l-7.58,4.38c-2.81,1.62-2.8,4.26,0,5.89l7.63,4.41a11.28,11.28,0,0,0,10.2,0l7.59-4.38C981.89,860.46,981.87,857.82,979.05,856.19Zm22.67,13.09-7.63-4.4a11.25,11.25,0,0,0-10.2,0l-7.58,4.38c-2.81,1.62-2.8,4.25,0,5.89l7.63,4.4a11.28,11.28,0,0,0,10.2,0l7.59-4.38C1004.56,873.55,1004.55,870.91,1001.72,869.28Zm23.15,13.37-7.63-4.41a11.28,11.28,0,0,0-10.2,0l-7.58,4.38c-2.81,1.62-2.8,4.26,0,5.89l7.63,4.41a11.28,11.28,0,0,0,10.2,0l7.59-4.38C1027.71,886.92,1027.7,884.28,1024.87,882.65Z"/><path class="cls-10" d="M1148.78,820.56,848.36,647c-11.63-6.71-21.06-24.73-21.06-40.23V371.09c0-15.51,9.43-22.63,21.06-15.92l300.42,173.55c11.63,6.72,21.06,24.73,21.06,40.24V804.63C1169.84,820.14,1160.41,827.27,1148.78,820.56Z"/><path class="cls-8" d="M1151.49,808.44,854.28,636.76c-9.36-6-15.15-17.83-15.15-30V370a3.74,3.74,0,0,1,5.62-3.22l.66.39L1142.86,539C1154,545.39,1158,556.8,1158,569V805.23a4,4,0,0,1-6,3.49Z"/><path class="cls-12" d="M1142.86,539,845.41,367.12l-.66-.39a3.74,3.74,0,0,0-5.62,3.22V606.77c0,12.16,5.79,24,15.15,30l297.21,171.68.5.28a4,4,0,0,0,6-3.49V569C1158,556.8,1154,545.39,1142.86,539Zm12.79,266.27a1.67,1.67,0,0,1-1.68,1.66,1.59,1.59,0,0,1-.81-.22l-297.7-172c-8.45-5.37-14-16.36-14-27.94V370a1.38,1.38,0,0,1,1.38-1.37,1.4,1.4,0,0,1,.68.19L1141.68,541c11.54,6.65,14,18.87,14,28Z"/><path class="cls-7" d="M1154.75,525.55,854.33,352c-4.6-2.66-8.86-3.15-12.33-1.81-.44.17-6.31,3.29-6.72,3.52h0c3.59-1.74,8.14-1.41,13.1,1.45l300.42,173.55c11.63,6.72,21.06,24.73,21.06,40.24V804.63c0,9.68-3.67,16.1-9.26,17.92a3.5,3.5,0,0,0,1.84-.63c.27-.15,6.64-3.75,6.9-3.93,4-2.8,6.49-8.56,6.49-16.53V565.79C1175.81,550.28,1166.38,532.27,1154.75,525.55Z"/><path class="cls-13" d="M1154.75,525.55,854.33,352c-4.6-2.66-8.86-3.15-12.33-1.81-.44.17-6.31,3.29-6.72,3.52h0c3.59-1.74,8.14-1.41,13.1,1.45l300.42,173.55Z"/><path class="cls-14" d="M1149.79,528.22,849.37,354.67c-4.77-2.76-9.15-3.15-12.68-1.63,3-.47,6.47.26,10.15,2.38L1147.26,529c11.64,6.72,21.06,24.73,21.06,40.24V804.89c0,9.15-3.29,15.34-8.37,17.54,6.5-1,10.9-7.71,10.9-18.3V568.45C1170.85,553,1161.42,534.93,1149.79,528.22Z"/><path class="cls-3" d="M194.07,928.3h0a51.17,51.17,0,0,1-24.85-6.22L12.91,831.83c-7.13-4.12-11.22-9.7-11.22-15.3,0-4.75,2.9-9,8.18-12.1L401.43,576.28c5-2.89,11.83-4.47,19.27-4.47A51.14,51.14,0,0,1,445.54,578l156.31,90.25c7.14,4.12,11.23,9.7,11.23,15.31,0,4.75-2.9,9-8.18,12.09L213.34,923.83C208.35,926.72,201.5,928.3,194.07,928.3ZM420.7,575.16c-6.86,0-13.11,1.42-17.59,4L11.55,807.33C7.34,809.75,5,813,5,816.53c0,4.38,3.48,8.9,9.56,12.41L170.9,919.18A47.64,47.64,0,0,0,194.07,925c6.86,0,13.1-1.43,17.59-4L603.22,692.78c4.2-2.42,6.51-5.69,6.51-9.19,0-4.38-3.48-8.91-9.55-12.41L443.87,580.93A47.67,47.67,0,0,0,420.7,575.16Z"/><polygon class="cls-10" points="471.34 729.09 471.34 752.58 304.69 656.08 304.69 632.59 471.34 729.09"/><polygon class="cls-11" points="471.28 729.09 471.28 752.58 584.69 686.46 584.69 663.05 471.28 729.09"/><polygon class="cls-5" points="584.69 663.05 471.28 729.09 304.69 632.59 469.86 596.85 584.69 663.05"/><polygon class="cls-4" points="471.3 688.03 471.3 725.41 310.74 632.41 310.74 595.04 471.3 688.03"/><polygon class="cls-15" points="471.24 688.03 471.24 725.41 578.64 662.8 578.64 625.49 471.24 688.03"/><polygon class="cls-10" points="471.34 629.98 471.34 717.69 304.69 621.19 304.69 533.48 471.34 629.98"/><polygon class="cls-11" points="471.28 629.98 471.28 717.69 584.69 651.58 584.69 563.94 471.28 629.98"/><polygon class="cls-5" points="584.69 563.94 471.28 629.98 304.69 533.48 418.23 467.37 584.69 563.94"/><polygon class="cls-4" points="471.3 588.93 471.3 626.3 310.74 533.31 310.74 495.93 471.3 588.93"/><polygon class="cls-15" points="471.24 588.93 471.24 626.3 578.64 563.69 578.64 526.38 471.24 588.93"/><polygon class="cls-10" points="471.34 629.84 471.34 717.55 304.69 621.05 304.69 533.34 471.34 629.84"/><polygon class="cls-11" points="471.28 629.84 471.28 717.55 584.69 651.44 584.69 563.8 471.28 629.84"/><polygon class="cls-5" points="584.69 563.8 471.28 629.84 304.69 533.34 418.23 467.23 584.69 563.8"/><polygon class="cls-4" points="471.3 588.79 471.3 626.16 310.74 533.17 310.74 495.79 471.3 588.79"/><polygon class="cls-15" points="471.24 588.79 471.24 626.16 578.64 563.55 578.64 526.24 471.24 588.79"/><polygon class="cls-5" points="478.8 638.87 478.8 698.76 577.62 641.15 577.62 581.32 478.8 638.87"/><polygon class="cls-7" points="479.84 639.71 479.84 699.59 578.67 641.98 578.67 582.16 479.84 639.71"/><polygon class="cls-11" points="575.47 640.15 575.47 587.72 483.04 641.55 483.04 694.03 575.47 640.15"/><polygon class="cls-16" points="569.22 619.68 569.22 599.92 489.79 645.53 489.79 665.33 569.22 619.68"/><polygon class="cls-17" points="566.71 601.36 566.71 618.21 489.8 662.42 489.8 665.33 569.22 619.68 569.22 599.92 566.71 601.36"/><polygon class="cls-18" points="502.29 651.64 496.9 654.75 496.9 648.57 502.29 645.45 502.29 651.64"/><polygon class="cls-18" points="512.42 645.79 507.03 648.91 507.03 642.72 512.42 639.61 512.42 645.79"/><polygon class="cls-18" points="522.54 639.95 517.15 643.06 517.15 636.87 522.54 633.76 522.54 639.95"/><polygon class="cls-19" points="532.67 634.1 527.28 637.21 527.28 631.03 532.67 627.92 532.67 634.1"/><polygon class="cls-19" points="542.79 628.25 537.4 631.37 537.4 625.18 542.79 622.07 542.79 628.25"/><polygon class="cls-20" points="552.92 622.41 547.53 625.52 547.53 619.34 552.92 616.22 552.92 622.41"/><polygon class="cls-20" points="563.05 616.56 557.66 619.67 557.66 613.49 563.05 610.38 563.05 616.56"/><polygon class="cls-10" points="471.34 530.64 471.34 618.36 304.69 521.86 304.69 434.15 471.34 530.64"/><polygon class="cls-11" points="471.28 530.64 471.28 618.36 584.69 552.24 584.69 464.6 471.28 530.64"/><polygon class="cls-5" points="584.69 464.6 471.28 530.64 304.69 434.15 418.23 368.03 584.69 464.6"/><polygon class="cls-4" points="471.3 489.59 471.3 526.97 310.74 433.97 310.74 396.59 471.3 489.59"/><polygon class="cls-15" points="471.24 489.59 471.24 526.97 578.64 464.35 578.64 427.04 471.24 489.59"/><polygon class="cls-10" points="471.34 530.37 471.34 618.08 304.69 521.58 304.69 433.87 471.34 530.37"/><polygon class="cls-11" points="471.28 530.37 471.28 618.08 584.69 551.96 584.69 464.32 471.28 530.37"/><polygon class="cls-5" points="584.69 464.32 471.28 530.37 304.69 433.87 418.23 367.75 584.69 464.32"/><polygon class="cls-4" points="471.3 489.31 471.3 526.68 310.74 433.69 310.74 396.31 471.3 489.31"/><polygon class="cls-15" points="471.24 489.31 471.24 526.68 578.64 464.07 578.64 426.76 471.24 489.31"/><polygon class="cls-10" points="471.34 431.03 471.34 518.74 304.69 422.24 304.69 334.53 471.34 431.03"/><polygon class="cls-11" points="471.28 431.03 471.28 518.74 584.69 452.63 584.69 364.99 471.28 431.03"/><polygon class="cls-5" points="584.69 364.99 471.28 431.03 304.69 334.53 418.23 268.42 584.69 364.99"/><polygon class="cls-4" points="471.3 389.97 471.3 427.35 310.74 334.35 310.74 296.98 471.3 389.97"/><polygon class="cls-15" points="471.24 389.97 471.24 427.35 578.64 364.74 578.64 327.43 471.24 389.97"/><polygon class="cls-5" points="478.8 440.06 478.8 499.94 577.62 442.33 577.62 382.51 478.8 440.06"/><polygon class="cls-7" points="479.84 440.89 479.84 500.78 578.67 443.17 578.67 383.34 479.84 440.89"/><polygon class="cls-11" points="575.47 441.33 575.47 388.9 483.04 442.73 483.04 495.22 575.47 441.33"/><polygon class="cls-16" points="569.22 420.86 569.22 401.11 489.79 446.71 489.79 466.51 569.22 420.86"/><polygon class="cls-17" points="566.71 402.55 566.71 419.4 489.8 463.6 489.8 466.51 569.22 420.86 569.22 401.11 566.71 402.55"/><polygon class="cls-18" points="502.29 452.82 496.9 455.94 496.9 449.75 502.29 446.64 502.29 452.82"/><polygon class="cls-18" points="512.42 446.98 507.03 450.09 507.03 443.9 512.42 440.79 512.42 446.98"/><polygon class="cls-18" points="522.54 441.13 517.15 444.25 517.15 438.06 522.54 434.95 522.54 441.13"/><polygon class="cls-19" points="532.67 435.29 527.28 438.4 527.28 432.21 532.67 429.1 532.67 435.29"/><polygon class="cls-19" points="542.79 429.44 537.4 432.55 537.4 426.37 542.79 423.25 542.79 429.44"/><polygon class="cls-20" points="552.92 423.59 547.53 426.71 547.53 420.52 552.92 417.41 552.92 423.59"/><polygon class="cls-20" points="563.05 417.75 557.66 420.86 557.66 414.67 563.05 411.56 563.05 417.75"/><polygon class="cls-5" points="478.8 539.67 478.8 599.56 577.62 541.95 577.62 482.12 478.8 539.67"/><polygon class="cls-7" points="479.84 540.51 479.84 600.4 578.67 542.78 578.67 482.96 479.84 540.51"/><polygon class="cls-11" points="575.47 540.95 575.47 488.52 483.04 542.35 483.04 594.83 575.47 540.95"/><polygon class="cls-16" points="569.22 520.48 569.22 500.72 489.79 546.33 489.79 566.13 569.22 520.48"/><polygon class="cls-17" points="566.71 502.16 566.71 519.01 489.8 563.22 489.8 566.13 569.22 520.48 569.22 500.72 566.71 502.16"/><polygon class="cls-18" points="502.29 552.44 496.9 555.55 496.9 549.37 502.29 546.26 502.29 552.44"/><polygon class="cls-18" points="512.42 546.6 507.03 549.71 507.03 543.52 512.42 540.41 512.42 546.6"/><polygon class="cls-18" points="522.54 540.75 517.15 543.86 517.15 537.68 522.54 534.56 522.54 540.75"/><polygon class="cls-19" points="532.67 534.9 527.28 538.01 527.28 531.83 532.67 528.72 532.67 534.9"/><polygon class="cls-19" points="542.79 529.06 537.4 532.17 537.4 525.98 542.79 522.87 542.79 529.06"/><polygon class="cls-20" points="552.92 523.21 547.53 526.32 547.53 520.14 552.92 517.02 552.92 523.21"/><polygon class="cls-20" points="563.05 517.36 557.66 520.48 557.66 514.29 563.05 511.18 563.05 517.36"/><polygon class="cls-10" points="471.34 331.69 471.34 419.4 304.69 322.9 304.69 235.19 471.34 331.69"/><polygon class="cls-11" points="471.28 331.69 471.28 419.4 584.69 353.29 584.69 265.65 471.28 331.69"/><polygon class="cls-5" points="584.69 265.65 471.28 331.69 304.69 235.19 418.23 169.08 584.69 265.65"/><polygon class="cls-8" points="584.69 265.65 471.28 331.69 304.69 235.19 471.38 329.25 584.69 265.65"/><polygon class="cls-5" points="478.59 340.51 478.59 400.39 577.41 342.78 577.41 282.96 478.59 340.51"/><polygon class="cls-7" points="479.84 341.56 479.84 401.44 578.67 343.83 578.67 284 479.84 341.56"/><polygon class="cls-11" points="575.47 342 575.47 289.56 483.04 343.39 483.04 395.88 575.47 342"/><polygon class="cls-16" points="569.22 321.52 569.22 301.77 489.79 347.37 489.79 367.17 569.22 321.52"/><polygon class="cls-17" points="566.92 303.09 566.92 320.27 489.8 364.59 489.8 367.17 569.22 321.52 569.22 301.77 566.92 303.09"/><polygon class="cls-18" points="502.29 353.49 496.9 356.6 496.9 350.41 502.29 347.3 502.29 353.49"/><polygon class="cls-19" points="512.42 347.64 507.03 350.75 507.03 344.57 512.42 341.45 512.42 347.64"/><polygon class="cls-19" points="522.54 341.8 517.15 344.91 517.15 338.72 522.54 335.61 522.54 341.8"/><polygon class="cls-19" points="532.67 335.95 527.28 339.06 527.28 332.88 532.67 329.76 532.67 335.95"/><polygon class="cls-20" points="542.79 330.1 537.4 333.21 537.4 327.03 542.79 323.92 542.79 330.1"/><polygon class="cls-20" points="552.92 324.26 547.53 327.37 547.53 321.18 552.92 318.07 552.92 324.26"/><polygon class="cls-20" points="563.05 318.41 557.66 321.52 557.66 315.34 563.05 312.22 563.05 318.41"/><polygon class="cls-10" points="332.38 809.45 332.38 832.94 165.73 736.44 165.73 712.95 332.38 809.45"/><polygon class="cls-11" points="332.32 809.45 332.32 832.94 445.73 766.83 445.73 743.41 332.32 809.45"/><polygon class="cls-5" points="445.73 743.41 332.32 809.45 165.73 712.95 330.9 677.21 445.73 743.41"/><polygon class="cls-4" points="332.34 768.4 332.34 805.77 171.78 712.78 171.78 675.4 332.34 768.4"/><polygon class="cls-15" points="332.28 768.4 332.28 805.77 439.68 743.16 439.68 705.85 332.28 768.4"/><polygon class="cls-10" points="332.38 710.35 332.38 798.06 165.73 701.56 165.73 613.85 332.38 710.35"/><polygon class="cls-11" points="332.32 710.35 332.32 798.06 445.73 731.94 445.73 644.3 332.32 710.35"/><polygon class="cls-5" points="445.73 644.3 332.32 710.35 165.73 613.85 279.26 547.73 445.73 644.3"/><polygon class="cls-4" points="332.34 669.29 332.34 706.66 171.78 613.67 171.78 576.29 332.34 669.29"/><polygon class="cls-15" points="332.28 669.29 332.28 706.66 439.68 644.05 439.68 606.74 332.28 669.29"/><polygon class="cls-4" points="344.6 715.85 344.6 773.1 432.64 723.31 432.64 666.11 344.6 715.85"/><path class="cls-7" d="M343.41,715.15l90.43-51.09v60l-90.43,51.14Zm88-47L345.8,716.55V771l85.64-48.43Z"/><polygon class="cls-10" points="542.67 753.94 542.67 801.21 370.17 703.39 412.11 679.74 542.67 753.94"/><polygon class="cls-5" points="547.46 751.15 542.6 753.94 412.11 679.74 417.1 676.87 547.46 751.15"/><path class="cls-21" d="M393.67,694.49v5.23l35.14-20.29a1.87,1.87,0,0,1,2.8,1.62v55.3l-67.05,39a5,5,0,0,1-5.07-.07l-1.43-.89a4.48,4.48,0,0,1-2.12-3.81V716a5.08,5.08,0,0,1,2.54-4.39l32.4-18.71A1.86,1.86,0,0,1,393.67,694.49Z"/><path class="cls-22" d="M429.58,680.08l-35.14,20.28v-1.08l34.37-19.85a1.87,1.87,0,0,1,2.47.58A1.8,1.8,0,0,0,429.58,680.08Z"/><path class="cls-22" d="M358.48,711.58l32.4-18.71a1.87,1.87,0,0,1,2.46.57,1.82,1.82,0,0,0-1.69.08l-32.41,18.7a5.09,5.09,0,0,0-2.53,4.39v54.58a4.47,4.47,0,0,0,1.23,3.08,4.46,4.46,0,0,1-2-3.72V716A5.08,5.08,0,0,1,358.48,711.58Z"/><polygon class="cls-8" points="435.06 730.59 359.39 774.27 359.39 726.2 435.06 682.52 435.06 730.59"/><path class="cls-21" d="M434.47,734.83l-70,40.44a4.87,4.87,0,0,1-4.74.07l-.45-.25.47.19a1.75,1.75,0,0,0,2.37-1.63V734.92a5.05,5.05,0,0,1,2.54-4.39L435,689.92a1.86,1.86,0,0,1,2.79,1.61v37.63A6.54,6.54,0,0,1,434.47,734.83Z"/><path class="cls-22" d="M359.71,775.28a1.75,1.75,0,0,0,2.37-1.63V734.92a5.08,5.08,0,0,1,2.54-4.4L435,689.92a1.83,1.83,0,0,1,2.32.39,1.79,1.79,0,0,0-1.65.09L365.29,731a5,5,0,0,0-2.53,4.39v38.73a1.76,1.76,0,0,1-1.51,1.73,5,5,0,0,1-1.56-.52l-.45-.25Z"/><path class="cls-21" d="M408.68,703.45v5.24l35.14-20.29a1.86,1.86,0,0,1,2.79,1.61v55.3l-67.05,39a4.89,4.89,0,0,1-5.06-.07l-1.43-.89a4.48,4.48,0,0,1-2.13-3.81V724.94a5.07,5.07,0,0,1,2.54-4.39l32.4-18.71A1.87,1.87,0,0,1,408.68,703.45Z"/><path class="cls-22" d="M444.59,689l-35.15,20.29v-1.09l34.38-19.84a1.85,1.85,0,0,1,2.46.57A1.81,1.81,0,0,0,444.59,689Z"/><path class="cls-22" d="M373.48,720.55l32.4-18.71a1.86,1.86,0,0,1,2.47.57,1.8,1.8,0,0,0-1.7.07l-32.4,18.71a5.07,5.07,0,0,0-2.54,4.39v54.57a4.47,4.47,0,0,0,1.23,3.08,4.48,4.48,0,0,1-2-3.72V724.94A5.07,5.07,0,0,1,373.48,720.55Z"/><polygon class="cls-8" points="450.06 739.55 374.4 783.24 374.4 735.17 450.06 691.48 450.06 739.55"/><path class="cls-21" d="M449.48,743.8l-70,40.44a4.87,4.87,0,0,1-4.74.06l-.46-.24.48.18a1.75,1.75,0,0,0,2.37-1.63V743.88a5.06,5.06,0,0,1,2.53-4.39L450,698.88a1.86,1.86,0,0,1,2.79,1.61v37.63A6.57,6.57,0,0,1,449.48,743.8Z"/><path class="cls-22" d="M374.72,784.24a1.75,1.75,0,0,0,2.37-1.63V743.88a5.06,5.06,0,0,1,2.53-4.39L450,698.88a1.83,1.83,0,0,1,2.32.39,1.8,1.8,0,0,0-1.65.09L380.3,740a5.07,5.07,0,0,0-2.54,4.39v38.73a1.75,1.75,0,0,1-1.5,1.73,4.63,4.63,0,0,1-1.56-.52l-.46-.24Z"/><path class="cls-23" d="M423.87,712.22v5.24L459,697.17a1.86,1.86,0,0,1,2.79,1.61v55.3l-67.05,39a4.91,4.91,0,0,1-5.06-.07l-1.43-.89a4.49,4.49,0,0,1-2.13-3.81V733.71a5.08,5.08,0,0,1,2.54-4.4l32.4-18.7A1.86,1.86,0,0,1,423.87,712.22Z"/><path class="cls-24" d="M459.79,697.81,424.64,718.1V717L459,697.17a1.85,1.85,0,0,1,2.46.57A1.78,1.78,0,0,0,459.79,697.81Z"/><path class="cls-24" d="M388.68,729.31l32.4-18.7a1.86,1.86,0,0,1,2.47.57,1.8,1.8,0,0,0-1.7.07L389.45,730a5.07,5.07,0,0,0-2.54,4.39v54.57a4.47,4.47,0,0,0,1.23,3.08,4.48,4.48,0,0,1-2-3.72V733.71A5.08,5.08,0,0,1,388.68,729.31Z"/><polygon class="cls-8" points="465.26 748.32 389.6 792.01 389.6 743.94 465.26 700.25 465.26 748.32"/><path class="cls-23" d="M464.68,752.57l-70,40.43a4.85,4.85,0,0,1-4.74.07l-.46-.24.48.18a1.75,1.75,0,0,0,2.37-1.63V752.65a5.06,5.06,0,0,1,2.53-4.39l70.34-40.61a1.86,1.86,0,0,1,2.79,1.61v37.63A6.57,6.57,0,0,1,464.68,752.57Z"/><path class="cls-24" d="M389.92,793a1.75,1.75,0,0,0,2.37-1.63V752.65a5.06,5.06,0,0,1,2.53-4.39l70.34-40.61a1.83,1.83,0,0,1,2.32.39,1.8,1.8,0,0,0-1.65.09l-70.34,40.61a5.08,5.08,0,0,0-2.53,4.39v38.73a1.75,1.75,0,0,1-1.51,1.73,4.89,4.89,0,0,1-1.55-.52l-.46-.24Z"/><path class="cls-23" d="M438.88,721.18v5.24L474,706.13a1.86,1.86,0,0,1,2.79,1.61V763l-67,39a4.91,4.91,0,0,1-5.07-.07l-1.43-.88a4.49,4.49,0,0,1-2.12-3.82V742.67a5.06,5.06,0,0,1,2.53-4.39l32.41-18.71A1.86,1.86,0,0,1,438.88,721.18Z"/><path class="cls-24" d="M474.79,706.77l-35.14,20.29V726L474,706.13a1.86,1.86,0,0,1,2.47.57A1.86,1.86,0,0,0,474.79,706.77Z"/><path class="cls-24" d="M403.68,738.28l32.41-18.71a1.85,1.85,0,0,1,2.46.57,1.86,1.86,0,0,0-1.7.07l-32.4,18.71a5.06,5.06,0,0,0-2.53,4.39v54.57a4.51,4.51,0,0,0,1.22,3.08,4.47,4.47,0,0,1-2-3.72V742.67A5.06,5.06,0,0,1,403.68,738.28Z"/><polygon class="cls-8" points="480.27 757.28 404.6 800.97 404.6 752.9 480.27 709.21 480.27 757.28"/><path class="cls-23" d="M479.68,761.53l-70,40.44a4.87,4.87,0,0,1-4.74.07l-.46-.25.48.18a1.74,1.74,0,0,0,2.37-1.63V761.61a5.08,5.08,0,0,1,2.54-4.39l70.33-40.61a1.86,1.86,0,0,1,2.8,1.61v37.63A6.56,6.56,0,0,1,479.68,761.53Z"/><path class="cls-24" d="M404.92,802a1.74,1.74,0,0,0,2.37-1.63V761.61a5.08,5.08,0,0,1,2.54-4.39l70.33-40.61a1.87,1.87,0,0,1,2.33.39,1.85,1.85,0,0,0-1.65.09L410.5,757.7a5.08,5.08,0,0,0-2.54,4.39v38.73a1.73,1.73,0,0,1-1.5,1.73,4.85,4.85,0,0,1-1.56-.51l-.46-.25Z"/><path class="cls-23" d="M453.88,730.15v5.23L489,715.09a1.86,1.86,0,0,1,2.79,1.62V772l-67.05,39a4.94,4.94,0,0,1-5.06-.07l-1.44-.89a4.51,4.51,0,0,1-2.12-3.81V751.63a5.08,5.08,0,0,1,2.54-4.39l32.4-18.71A1.86,1.86,0,0,1,453.88,730.15Z"/><path class="cls-24" d="M489.79,715.73,454.65,736v-1.08L489,715.09a1.87,1.87,0,0,1,2.46.57A1.86,1.86,0,0,0,489.79,715.73Z"/><path class="cls-24" d="M418.69,747.24l32.4-18.71a1.86,1.86,0,0,1,2.46.57,1.84,1.84,0,0,0-1.69.07l-32.4,18.71a5.08,5.08,0,0,0-2.54,4.39v54.58a4.47,4.47,0,0,0,1.23,3.08,4.48,4.48,0,0,1-2-3.72V751.63A5.08,5.08,0,0,1,418.69,747.24Z"/><polygon class="cls-8" points="495.27 766.25 419.61 809.93 419.61 761.86 495.27 718.18 495.27 766.25"/><path class="cls-23" d="M494.68,770.49l-70,40.44a4.88,4.88,0,0,1-4.74.07l-.46-.25.48.19a1.75,1.75,0,0,0,2.37-1.63V770.58a5.07,5.07,0,0,1,2.53-4.4l70.34-40.61a1.86,1.86,0,0,1,2.79,1.62v37.63A6.54,6.54,0,0,1,494.68,770.49Z"/><path class="cls-24" d="M419.93,810.94a1.75,1.75,0,0,0,2.37-1.63V770.58a5.07,5.07,0,0,1,2.53-4.4l70.34-40.61a1.85,1.85,0,0,1,2.32.4,1.82,1.82,0,0,0-1.65.08L425.5,766.66a5.07,5.07,0,0,0-2.53,4.4v38.73a1.76,1.76,0,0,1-1.51,1.73,4.89,4.89,0,0,1-1.55-.52l-.46-.25Z"/><path class="cls-25" d="M469.08,738.92v5.23l35.14-20.29a1.87,1.87,0,0,1,2.8,1.62v52.18l-67,39a4.93,4.93,0,0,1-5.07-.07l-1.43-.89a4.48,4.48,0,0,1-2.12-3.81V760.4a5.08,5.08,0,0,1,2.54-4.39l32.4-18.71A1.86,1.86,0,0,1,469.08,738.92Z"/><path class="cls-26" d="M505,724.5l-35.14,20.29v-1.08l34.37-19.85a1.88,1.88,0,0,1,2.47.57A1.86,1.86,0,0,0,505,724.5Z"/><path class="cls-26" d="M433.89,756l32.4-18.71a1.87,1.87,0,0,1,2.46.57,1.84,1.84,0,0,0-1.69.07l-32.41,18.71a5.09,5.09,0,0,0-2.53,4.39V812.5a4.47,4.47,0,0,0,1.23,3.08,4.48,4.48,0,0,1-2-3.72V760.4A5.08,5.08,0,0,1,433.89,756Z"/><polygon class="cls-8" points="510.47 771.9 434.8 815.59 434.8 770.63 510.47 726.95 510.47 771.9"/><path class="cls-25" d="M509.88,776.14l-70,40.44a4.83,4.83,0,0,1-4.73.07l-.46-.24.47.18a1.75,1.75,0,0,0,2.37-1.63V779.34A5.08,5.08,0,0,1,440,775l70.34-40.61a1.86,1.86,0,0,1,2.79,1.62v34.51A6.54,6.54,0,0,1,509.88,776.14Z"/><path class="cls-26" d="M435.12,816.59a1.75,1.75,0,0,0,2.37-1.63V779.34A5.08,5.08,0,0,1,440,775l70.34-40.61a1.86,1.86,0,0,1,2.32.39,1.85,1.85,0,0,0-1.65.09L440.7,775.43a5.07,5.07,0,0,0-2.53,4.39v35.62a1.76,1.76,0,0,1-1.51,1.73,4.81,4.81,0,0,1-1.55-.52l-.46-.24Z"/><path class="cls-25" d="M484.09,747.88v5.24l35.14-20.29a1.86,1.86,0,0,1,2.79,1.61v52.18l-67,39a4.89,4.89,0,0,1-5.06-.07l-1.43-.89a4.47,4.47,0,0,1-2.12-3.81V769.37a5.07,5.07,0,0,1,2.53-4.4l32.4-18.7A1.87,1.87,0,0,1,484.09,747.88Z"/><path class="cls-26" d="M520,733.47l-35.14,20.29v-1.09l34.37-19.84a1.85,1.85,0,0,1,2.46.57A1.79,1.79,0,0,0,520,733.47Z"/><path class="cls-26" d="M448.89,765l32.4-18.7a1.86,1.86,0,0,1,2.47.57,1.8,1.8,0,0,0-1.7.07l-32.4,18.7a5.08,5.08,0,0,0-2.54,4.4v51.45a4.47,4.47,0,0,0,1.23,3.08,4.47,4.47,0,0,1-2-3.72V769.37A5.07,5.07,0,0,1,448.89,765Z"/><polygon class="cls-8" points="525.48 780.86 449.81 824.55 449.81 779.6 525.48 735.91 525.48 780.86"/><path class="cls-25" d="M524.89,785.11l-70,40.44a4.87,4.87,0,0,1-4.74.07l-.46-.25.48.18a1.75,1.75,0,0,0,2.37-1.63V788.31a5.06,5.06,0,0,1,2.53-4.39l70.34-40.61a1.87,1.87,0,0,1,2.8,1.61v34.51A6.56,6.56,0,0,1,524.89,785.11Z"/><path class="cls-26" d="M450.13,825.55a1.75,1.75,0,0,0,2.37-1.63V788.31a5.06,5.06,0,0,1,2.53-4.39l70.34-40.61a1.83,1.83,0,0,1,2.32.39,1.8,1.8,0,0,0-1.65.09L455.71,784.4a5.07,5.07,0,0,0-2.54,4.39V824.4a1.75,1.75,0,0,1-1.5,1.73,4.85,4.85,0,0,1-1.56-.51l-.46-.25Z"/><polygon class="cls-10" points="463.99 802.1 463.99 837.65 345.94 770.45 345.94 734.91 463.99 802.1"/><polygon class="cls-5" points="468.79 799.32 463.92 802.1 345.94 734.91 345.93 729.05 468.79 799.32"/><polygon class="cls-10" points="462.88 790.81 462.88 850.69 457.44 847.59 457.44 787.71 462.88 790.81"/><polygon class="cls-7" points="462.82 790.81 462.82 850.69 561.65 793.08 561.65 733.26 462.82 790.81"/><polygon class="cls-11" points="558.45 791.25 558.45 738.82 466.02 792.64 466.02 845.13 558.45 791.25"/><polygon class="cls-5" points="561.65 733.26 462.82 790.81 457.44 787.71 556.38 730.09 561.65 733.26"/><polygon class="cls-8" points="560.85 732.86 560.85 734.41 463.32 791.21 463.32 849.54 462.02 850.29 462.02 790.41 560.85 732.86"/><polygon class="cls-16" points="551.92 771.34 551.92 751.58 472.49 797.18 472.49 816.98 551.92 771.34"/><polygon class="cls-17" points="549.2 753.14 549.2 770.5 472.49 814.58 472.49 816.98 551.92 771.34 551.92 751.58 549.2 753.14"/><polygon class="cls-18" points="484.99 803.3 479.6 806.41 479.6 800.22 484.99 797.11 484.99 803.3"/><polygon class="cls-18" points="495.12 797.45 489.73 800.56 489.73 794.38 495.12 791.26 495.12 797.45"/><polygon class="cls-19" points="505.24 791.6 499.85 794.72 499.85 788.53 505.24 785.42 505.24 791.6"/><polygon class="cls-19" points="515.37 785.76 509.98 788.87 509.98 782.68 515.37 779.57 515.37 785.76"/><polygon class="cls-19" points="525.49 779.91 520.1 783.02 520.1 776.84 525.49 773.73 525.49 779.91"/><polygon class="cls-20" points="535.62 774.07 530.23 777.18 530.23 770.99 535.62 767.88 535.62 774.07"/><polygon class="cls-20" points="545.75 768.22 540.36 771.33 540.36 765.15 545.75 762.03 545.75 768.22"/><polygon class="cls-10" points="332.38 610.73 332.38 698.44 165.73 601.94 165.73 514.23 332.38 610.73"/><polygon class="cls-11" points="332.32 610.73 332.32 698.44 445.73 632.33 445.73 544.69 332.32 610.73"/><polygon class="cls-5" points="445.73 544.69 332.32 610.73 165.73 514.23 279.26 448.12 445.73 544.69"/><polygon class="cls-4" points="332.34 569.67 332.34 607.05 171.78 514.05 171.78 476.68 332.34 569.67"/><polygon class="cls-15" points="332.28 569.67 332.28 607.05 439.68 544.44 439.68 507.13 332.28 569.67"/><polygon class="cls-4" points="344.6 616.24 344.6 673.48 432.64 623.69 432.64 566.5 344.6 616.24"/><path class="cls-7" d="M343.41,615.54l90.43-51.1v59.95l-90.43,51.14Zm88-47L345.8,616.93v54.49L431.44,623Z"/><polygon class="cls-10" points="497.3 630.54 497.3 677.81 370.17 603.77 412.11 580.12 497.3 630.54"/><polygon class="cls-5" points="502.1 627.75 497.23 630.54 412.11 580.12 417.1 577.25 502.1 627.75"/><path class="cls-23" d="M395.67,598.58v5.23l35.14-20.29a1.86,1.86,0,0,1,2.79,1.62v55.3l-67,39a5,5,0,0,1-5.07-.07l-1.43-.89a4.48,4.48,0,0,1-2.12-3.81V620.06a5.07,5.07,0,0,1,2.53-4.39L392.88,597A1.86,1.86,0,0,1,395.67,598.58Z"/><path class="cls-24" d="M431.58,584.17l-35.14,20.28v-1.08l34.37-19.85a1.86,1.86,0,0,1,2.46.57A1.82,1.82,0,0,0,431.58,584.17Z"/><path class="cls-24" d="M360.47,615.67,392.88,597a1.87,1.87,0,0,1,2.46.57,1.86,1.86,0,0,0-1.7.07l-32.4,18.71a5.07,5.07,0,0,0-2.53,4.39v54.58a4.46,4.46,0,0,0,1.22,3.08,4.47,4.47,0,0,1-2-3.72V620.06A5.07,5.07,0,0,1,360.47,615.67Z"/><polygon class="cls-8" points="437.06 634.68 361.39 678.36 361.39 630.29 437.06 586.61 437.06 634.68"/><path class="cls-23" d="M436.47,638.92l-70,40.44a4.87,4.87,0,0,1-4.74.07l-.46-.25.48.19a1.75,1.75,0,0,0,2.37-1.63V639a5.08,5.08,0,0,1,2.54-4.4L437,594a1.87,1.87,0,0,1,2.8,1.62v37.63A6.54,6.54,0,0,1,436.47,638.92Z"/><path class="cls-24" d="M361.71,679.37a1.75,1.75,0,0,0,2.37-1.63V639a5.08,5.08,0,0,1,2.54-4.4L437,594a1.86,1.86,0,0,1,2.33.4,1.79,1.79,0,0,0-1.65.09l-70.34,40.6a5.08,5.08,0,0,0-2.54,4.4v38.73a1.75,1.75,0,0,1-1.5,1.73,4.87,4.87,0,0,1-1.56-.52l-.46-.25Z"/><path class="cls-23" d="M410.87,607.35v5.23L446,592.29a1.86,1.86,0,0,1,2.79,1.62v55.3l-67.05,39a4.94,4.94,0,0,1-5.06-.07l-1.43-.89a4.48,4.48,0,0,1-2.12-3.81V628.83a5.07,5.07,0,0,1,2.53-4.39l32.4-18.71A1.87,1.87,0,0,1,410.87,607.35Z"/><path class="cls-24" d="M446.78,592.93l-35.14,20.29v-1.08L446,592.29a1.86,1.86,0,0,1,2.46.57A1.84,1.84,0,0,0,446.78,592.93Z"/><path class="cls-24" d="M375.67,624.44l32.4-18.71a1.88,1.88,0,0,1,2.47.57,1.86,1.86,0,0,0-1.7.07l-32.4,18.71a5.07,5.07,0,0,0-2.53,4.39v54.58a4.46,4.46,0,0,0,1.22,3.08,4.47,4.47,0,0,1-2-3.72V628.83A5.07,5.07,0,0,1,375.67,624.44Z"/><polygon class="cls-8" points="452.26 643.45 376.59 687.13 376.59 639.06 452.26 595.38 452.26 643.45"/><path class="cls-23" d="M451.67,647.69l-70,40.44a4.87,4.87,0,0,1-4.74.07l-.46-.25.48.19a1.75,1.75,0,0,0,2.37-1.64V647.77a5.09,5.09,0,0,1,2.53-4.39l70.34-40.61a1.87,1.87,0,0,1,2.8,1.62V642A6.54,6.54,0,0,1,451.67,647.69Z"/><path class="cls-24" d="M376.91,688.14a1.75,1.75,0,0,0,2.37-1.64V647.77a5.09,5.09,0,0,1,2.53-4.39l70.34-40.61a1.86,1.86,0,0,1,2.32.39,1.83,1.83,0,0,0-1.64.09l-70.34,40.61a5.08,5.08,0,0,0-2.54,4.39V687a1.73,1.73,0,0,1-1.5,1.73,4.61,4.61,0,0,1-1.56-.51l-.46-.25Z"/><path class="cls-23" d="M425.87,616.31v5.24L461,601.26a1.86,1.86,0,0,1,2.8,1.61v55.3l-67.05,39a4.93,4.93,0,0,1-5.07-.07l-1.43-.89a4.48,4.48,0,0,1-2.12-3.81V637.8a5.08,5.08,0,0,1,2.54-4.4l32.4-18.7A1.86,1.86,0,0,1,425.87,616.31Z"/><path class="cls-24" d="M461.78,601.9l-35.14,20.29V621.1L461,601.26a1.86,1.86,0,0,1,2.47.57A1.8,1.8,0,0,0,461.78,601.9Z"/><path class="cls-24" d="M390.68,633.4l32.4-18.7a1.85,1.85,0,0,1,2.46.57,1.79,1.79,0,0,0-1.69.07l-32.41,18.71a5.06,5.06,0,0,0-2.53,4.39V693a4.47,4.47,0,0,0,1.23,3.08,4.48,4.48,0,0,1-2-3.72V637.8A5.08,5.08,0,0,1,390.68,633.4Z"/><polygon class="cls-8" points="467.26 652.41 391.59 696.1 391.59 648.03 467.26 604.34 467.26 652.41"/><path class="cls-23" d="M466.67,656.66l-70,40.43a4.85,4.85,0,0,1-4.74.07l-.45-.24.47.18a1.74,1.74,0,0,0,2.37-1.63V656.74a5.07,5.07,0,0,1,2.54-4.39l70.34-40.61a1.86,1.86,0,0,1,2.79,1.61V651A6.56,6.56,0,0,1,466.67,656.66Z"/><path class="cls-24" d="M391.91,697.1a1.74,1.74,0,0,0,2.37-1.63V656.74a5.07,5.07,0,0,1,2.54-4.39l70.34-40.61a1.83,1.83,0,0,1,2.32.39,1.79,1.79,0,0,0-1.65.09l-70.34,40.61a5.06,5.06,0,0,0-2.53,4.39V696a1.76,1.76,0,0,1-1.51,1.73,5,5,0,0,1-1.56-.52l-.45-.24Z"/><path class="cls-25" d="M440.88,625.27v5.24L476,610.22a1.86,1.86,0,0,1,2.79,1.61v55.3l-67.05,39a4.89,4.89,0,0,1-5.06-.07l-1.43-.88a4.5,4.5,0,0,1-2.13-3.82V646.76a5.07,5.07,0,0,1,2.54-4.39l32.4-18.71A1.87,1.87,0,0,1,440.88,625.27Z"/><path class="cls-26" d="M476.79,610.86l-35.15,20.29v-1.08L476,610.22a1.85,1.85,0,0,1,2.46.57A1.84,1.84,0,0,0,476.79,610.86Z"/><path class="cls-26" d="M405.68,642.37l32.4-18.71a1.86,1.86,0,0,1,2.47.57,1.83,1.83,0,0,0-1.7.07L406.45,643a5.07,5.07,0,0,0-2.54,4.39V702a4.47,4.47,0,0,0,1.23,3.08,4.48,4.48,0,0,1-2-3.72V646.76A5.07,5.07,0,0,1,405.68,642.37Z"/><polygon class="cls-8" points="482.26 661.37 406.6 705.06 406.6 656.99 482.26 613.3 482.26 661.37"/><path class="cls-25" d="M481.68,665.62l-70,40.44a4.87,4.87,0,0,1-4.74.07l-.46-.25.48.18a1.74,1.74,0,0,0,2.37-1.63V665.7a5.07,5.07,0,0,1,2.53-4.39l70.34-40.61a1.86,1.86,0,0,1,2.79,1.61v37.63A6.55,6.55,0,0,1,481.68,665.62Z"/><path class="cls-26" d="M406.92,706.06a1.74,1.74,0,0,0,2.37-1.63V665.7a5.07,5.07,0,0,1,2.53-4.39l70.34-40.61a1.86,1.86,0,0,1,2.32.39,1.86,1.86,0,0,0-1.65.09L412.5,661.79a5.08,5.08,0,0,0-2.54,4.39v38.73a1.73,1.73,0,0,1-1.5,1.73,4.85,4.85,0,0,1-1.56-.51l-.46-.25Z"/><polygon class="cls-10" points="428.66 684.51 428.66 720.05 345.94 670.84 345.94 635.29 428.66 684.51"/><polygon class="cls-5" points="455.78 694.44 450.91 697.23 345.94 635.29 345.93 629.44 455.78 694.44"/><polygon class="cls-10" points="419.45 669.47 419.45 729.36 414.02 726.25 414.02 666.37 419.45 669.47"/><polygon class="cls-7" points="419.4 669.47 419.4 729.36 518.22 671.75 518.22 611.92 419.4 669.47"/><polygon class="cls-11" points="515.03 669.91 515.03 617.48 422.6 671.31 422.6 723.79 515.03 669.91"/><polygon class="cls-5" points="518.22 611.92 419.4 669.47 414.02 666.37 512.95 608.76 518.22 611.92"/><polygon class="cls-8" points="517.42 611.52 517.42 613.08 419.9 669.87 419.9 728.2 418.6 728.96 418.6 669.07 517.42 611.52"/><polygon class="cls-16" points="508.78 649.44 508.78 629.68 429.35 675.29 429.35 695.09 508.78 649.44"/><polygon class="cls-17" points="506.48 631 506.48 648.39 429.35 692.72 429.35 695.09 508.78 649.44 508.78 629.68 506.48 631"/><polygon class="cls-18" points="441.85 681.4 436.46 684.51 436.46 678.33 441.85 675.22 441.85 681.4"/><polygon class="cls-18" points="451.97 675.55 446.58 678.67 446.58 672.48 451.97 669.37 451.97 675.55"/><polygon class="cls-18" points="462.1 669.71 456.71 672.82 456.71 666.64 462.1 663.52 462.1 669.71"/><polygon class="cls-19" points="472.22 663.86 466.83 666.98 466.83 660.79 472.22 657.68 472.22 663.86"/><polygon class="cls-19" points="482.35 658.02 476.96 661.13 476.96 654.94 482.35 651.83 482.35 658.02"/><polygon class="cls-19" points="492.48 652.17 487.09 655.28 487.09 649.1 492.48 645.99 492.48 652.17"/><polygon class="cls-20" points="502.6 646.32 497.21 649.44 497.21 643.25 502.6 640.14 502.6 646.32"/><polygon class="cls-10" points="332.38 511.39 332.38 599.1 165.73 502.6 165.73 414.89 332.38 511.39"/><polygon class="cls-11" points="332.32 511.39 332.32 599.1 445.73 532.99 445.73 445.35 332.32 511.39"/><polygon class="cls-5" points="445.73 445.35 332.32 511.39 165.73 414.89 279.26 348.78 445.73 445.35"/><polygon class="cls-4" points="332.34 470.33 332.34 507.71 171.78 414.71 171.78 377.34 332.34 470.33"/><polygon class="cls-15" points="332.28 470.33 332.28 507.71 439.68 445.1 439.68 407.79 332.28 470.33"/><polygon class="cls-10" points="332.38 412.05 332.38 499.76 165.73 403.26 165.73 315.55 332.38 412.05"/><polygon class="cls-11" points="332.32 412.05 332.32 499.76 445.73 433.65 445.73 346.01 332.32 412.05"/><polygon class="cls-5" points="445.73 346.01 332.32 412.05 165.73 315.55 279.26 249.44 445.73 346.01"/><polygon class="cls-8" points="445.73 346.01 332.32 412.05 165.73 315.55 332.42 409.61 445.73 346.01"/><polygon class="cls-5" points="339.63 420.87 339.63 480.76 438.45 423.15 438.45 363.32 339.63 420.87"/><polygon class="cls-7" points="340.88 421.92 340.88 481.81 439.71 424.19 439.71 364.37 340.88 421.92"/><polygon class="cls-11" points="436.51 422.36 436.51 369.93 344.08 423.76 344.08 476.24 436.51 422.36"/><polygon class="cls-16" points="430.26 401.89 430.26 382.13 350.83 427.74 350.83 447.54 430.26 401.89"/><polygon class="cls-17" points="427.96 383.45 427.96 400.63 350.83 444.96 350.83 447.54 430.26 401.89 430.26 382.13 427.96 383.45"/><polygon class="cls-18" points="363.33 433.85 357.94 436.96 357.94 430.78 363.33 427.67 363.33 433.85"/><polygon class="cls-19" points="373.45 428 368.06 431.12 368.06 424.93 373.45 421.82 373.45 428"/><polygon class="cls-19" points="383.58 422.16 378.19 425.27 378.19 419.08 383.58 415.97 383.58 422.16"/><polygon class="cls-19" points="393.71 416.31 388.32 419.42 388.32 413.24 393.71 410.13 393.71 416.31"/><polygon class="cls-20" points="403.83 410.46 398.44 413.58 398.44 407.39 403.83 404.28 403.83 410.46"/><polygon class="cls-20" points="413.96 404.62 408.57 407.73 408.57 401.55 413.96 398.43 413.96 404.62"/><polygon class="cls-20" points="424.08 398.77 418.69 401.88 418.69 395.7 424.08 392.59 424.08 398.77"/><polygon class="cls-4" points="344.6 516.9 344.6 574.14 432.64 524.36 432.64 467.16 344.6 516.9"/><path class="cls-7" d="M343.41,516.2l90.43-51.09v59.94l-90.43,51.14Zm88-47L345.8,517.6v54.49l85.64-48.43Z"/><polygon class="cls-10" points="464.48 510.3 464.48 557.57 370.17 504.44 412.11 480.78 464.48 510.3"/><polygon class="cls-5" points="469.27 507.51 464.41 510.3 412.11 480.78 417.1 477.92 469.27 507.51"/><path class="cls-23" d="M393.05,496.07v5.24L428.19,481a1.86,1.86,0,0,1,2.79,1.61v55.3l-67.05,39a4.91,4.91,0,0,1-5.06-.07l-1.43-.89a4.48,4.48,0,0,1-2.12-3.81V517.56a5.07,5.07,0,0,1,2.53-4.4l32.4-18.7A1.86,1.86,0,0,1,393.05,496.07Z"/><path class="cls-24" d="M429,481.66,393.82,502v-1.09L428.19,481a1.85,1.85,0,0,1,2.46.57A1.79,1.79,0,0,0,429,481.66Z"/><path class="cls-24" d="M357.85,513.16l32.4-18.7a1.86,1.86,0,0,1,2.47.57,1.8,1.8,0,0,0-1.7.07l-32.4,18.7a5.08,5.08,0,0,0-2.54,4.4v54.57a4.47,4.47,0,0,0,1.23,3.08,4.47,4.47,0,0,1-2-3.72V517.56A5.07,5.07,0,0,1,357.85,513.16Z"/><polygon class="cls-8" points="434.44 532.17 358.77 575.86 358.77 527.79 434.44 484.1 434.44 532.17"/><path class="cls-23" d="M433.85,536.42l-70,40.43a4.85,4.85,0,0,1-4.74.07l-.46-.24.48.18a1.75,1.75,0,0,0,2.37-1.63V536.5a5.08,5.08,0,0,1,2.53-4.39l70.34-40.61a1.87,1.87,0,0,1,2.8,1.61v37.63A6.57,6.57,0,0,1,433.85,536.42Z"/><path class="cls-24" d="M359.09,576.86a1.75,1.75,0,0,0,2.37-1.63V536.5a5.08,5.08,0,0,1,2.53-4.39l70.34-40.61a1.83,1.83,0,0,1,2.32.39A1.8,1.8,0,0,0,435,492l-70.33,40.61a5.07,5.07,0,0,0-2.54,4.39v38.73a1.75,1.75,0,0,1-1.5,1.73,4.87,4.87,0,0,1-1.56-.52l-.46-.24Z"/><path class="cls-25" d="M408.05,505v5.24L443.19,490a1.87,1.87,0,0,1,2.8,1.61v55.3l-67.05,39a4.91,4.91,0,0,1-5.07-.07l-1.43-.89a4.46,4.46,0,0,1-2.12-3.81V526.52a5.07,5.07,0,0,1,2.54-4.39l32.4-18.71A1.86,1.86,0,0,1,408.05,505Z"/><path class="cls-26" d="M444,490.62l-35.14,20.29v-1.08L443.19,490a1.86,1.86,0,0,1,2.47.57A1.83,1.83,0,0,0,444,490.62Z"/><path class="cls-26" d="M372.86,522.13l32.4-18.71a1.85,1.85,0,0,1,2.46.57,1.81,1.81,0,0,0-1.69.07l-32.41,18.71a5.08,5.08,0,0,0-2.53,4.39v54.57a4.47,4.47,0,0,0,1.23,3.08,4.46,4.46,0,0,1-2-3.72V526.52A5.07,5.07,0,0,1,372.86,522.13Z"/><polygon class="cls-8" points="449.44 541.13 373.77 584.82 373.77 536.75 449.44 493.06 449.44 541.13"/><path class="cls-25" d="M448.85,545.38l-70,40.44a4.87,4.87,0,0,1-4.74.07l-.45-.25.47.18a1.74,1.74,0,0,0,2.37-1.63V545.46a5.08,5.08,0,0,1,2.54-4.39l70.34-40.61a1.86,1.86,0,0,1,2.79,1.61V539.7A6.56,6.56,0,0,1,448.85,545.38Z"/><path class="cls-26" d="M374.09,585.82a1.74,1.74,0,0,0,2.37-1.63V545.46a5.08,5.08,0,0,1,2.54-4.39l70.34-40.61a1.86,1.86,0,0,1,2.32.39,1.85,1.85,0,0,0-1.65.09l-70.34,40.61a5.07,5.07,0,0,0-2.53,4.39v38.73a1.75,1.75,0,0,1-1.51,1.73,4.93,4.93,0,0,1-1.56-.51l-.45-.25Z"/><polygon class="cls-10" points="395.83 564.26 395.83 599.81 345.94 571.5 345.94 535.95 395.83 564.26"/><polygon class="cls-5" points="422.95 574.2 418.09 576.99 345.94 535.95 345.93 530.1 422.95 574.2"/><polygon class="cls-10" points="386.63 549.23 386.63 609.12 381.2 606.01 381.2 546.13 386.63 549.23"/><polygon class="cls-7" points="386.57 549.23 386.57 609.12 485.4 551.5 485.4 491.68 386.57 549.23"/><polygon class="cls-11" points="482.2 549.67 482.2 497.24 389.77 551.07 389.77 603.55 482.2 549.67"/><polygon class="cls-5" points="485.4 491.68 386.57 549.23 381.2 546.13 480.13 488.52 485.4 491.68"/><polygon class="cls-8" points="484.6 491.28 484.6 492.83 387.07 549.63 387.07 607.96 385.78 608.72 385.78 548.83 484.6 491.28"/><polygon class="cls-16" points="475.95 529.2 475.95 509.44 396.53 555.05 396.53 574.85 475.95 529.2"/><polygon class="cls-17" points="473.65 510.76 473.65 528.15 396.53 572.48 396.53 574.85 475.95 529.2 475.95 509.44 473.65 510.76"/><polygon class="cls-18" points="409.02 561.16 403.63 564.27 403.63 558.09 409.02 554.98 409.02 561.16"/><polygon class="cls-18" points="419.15 555.32 413.76 558.43 413.76 552.24 419.15 549.13 419.15 555.32"/><polygon class="cls-18" points="429.27 549.47 423.88 552.58 423.88 546.4 429.27 543.28 429.27 549.47"/><polygon class="cls-19" points="439.4 543.62 434.01 546.74 434.01 540.55 439.4 537.44 439.4 543.62"/><polygon class="cls-19" points="449.52 537.78 444.13 540.89 444.13 534.7 449.52 531.59 449.52 537.78"/><polygon class="cls-19" points="459.65 531.93 454.26 535.04 454.26 528.86 459.65 525.75 459.65 531.93"/><polygon class="cls-20" points="469.78 526.08 464.39 529.2 464.39 523.01 469.78 519.9 469.78 526.08"/><polygon class="cls-10" points="191.75 891.49 191.75 914.98 25.1 818.48 25.1 794.99 191.75 891.49"/><polygon class="cls-11" points="191.68 891.49 191.68 914.98 305.09 848.86 305.09 825.45 191.68 891.49"/><polygon class="cls-5" points="305.09 825.45 191.68 891.49 25.1 794.99 190.26 759.25 305.09 825.45"/><polygon class="cls-4" points="191.7 850.43 191.7 887.81 31.14 794.81 31.14 757.44 191.7 850.43"/><polygon class="cls-15" points="191.64 850.43 191.64 887.81 299.05 825.2 299.05 787.89 191.64 850.43"/><polygon class="cls-10" points="191.75 792.38 191.75 880.09 25.1 783.59 25.1 695.88 191.75 792.38"/><polygon class="cls-11" points="191.68 792.38 191.68 880.09 305.09 813.98 305.09 726.34 191.68 792.38"/><polygon class="cls-5" points="305.09 726.34 191.68 792.38 25.1 695.88 138.63 629.77 305.09 726.34"/><polygon class="cls-4" points="191.7 751.33 191.7 788.7 31.14 695.71 31.14 658.33 191.7 751.33"/><polygon class="cls-15" points="191.64 751.33 191.64 788.7 299.05 726.09 299.05 688.78 191.64 751.33"/><polygon class="cls-10" points="191.75 792.24 191.75 879.95 25.1 783.46 25.1 695.74 191.75 792.24"/><polygon class="cls-11" points="191.68 792.24 191.68 879.95 305.09 813.84 305.09 726.2 191.68 792.24"/><polygon class="cls-5" points="305.09 726.2 191.68 792.24 25.1 695.74 138.63 629.63 305.09 726.2"/><polygon class="cls-4" points="191.7 751.19 191.7 788.56 31.14 695.57 31.14 658.19 191.7 751.19"/><polygon class="cls-15" points="191.64 751.19 191.64 788.56 299.05 725.95 299.05 688.64 191.64 751.19"/><polygon class="cls-5" points="199.2 801.27 199.2 861.16 298.02 803.55 298.02 743.72 199.2 801.27"/><polygon class="cls-7" points="200.25 802.11 200.25 861.99 299.07 804.38 299.07 744.56 200.25 802.11"/><polygon class="cls-11" points="295.88 802.55 295.88 750.12 203.44 803.95 203.44 856.43 295.88 802.55"/><polygon class="cls-16" points="289.63 782.08 289.63 762.32 210.2 807.93 210.2 827.73 289.63 782.08"/><polygon class="cls-17" points="287.11 763.76 287.11 780.61 210.2 824.82 210.2 827.73 289.63 782.08 289.63 762.32 287.11 763.76"/><polygon class="cls-18" points="222.69 814.04 217.3 817.15 217.3 810.97 222.69 807.85 222.69 814.04"/><polygon class="cls-18" points="232.82 808.19 227.43 811.31 227.43 805.12 232.82 802.01 232.82 808.19"/><polygon class="cls-18" points="242.95 802.35 237.56 805.46 237.56 799.27 242.95 796.16 242.95 802.35"/><polygon class="cls-19" points="253.07 796.5 247.68 799.61 247.68 793.43 253.07 790.32 253.07 796.5"/><polygon class="cls-19" points="263.2 790.65 257.81 793.77 257.81 787.58 263.2 784.47 263.2 790.65"/><polygon class="cls-20" points="273.32 784.81 267.93 787.92 267.93 781.74 273.32 778.62 273.32 784.81"/><polygon class="cls-20" points="283.45 778.96 278.06 782.08 278.06 775.89 283.45 772.78 283.45 778.96"/><polygon class="cls-10" points="191.75 693.04 191.75 780.76 25.1 684.26 25.1 596.55 191.75 693.04"/><polygon class="cls-11" points="191.68 693.04 191.68 780.76 305.09 714.64 305.09 627 191.68 693.04"/><polygon class="cls-5" points="305.09 627 191.68 693.04 25.1 596.55 138.63 530.43 305.09 627"/><polygon class="cls-4" points="191.7 651.99 191.7 689.37 31.14 596.37 31.14 558.99 191.7 651.99"/><polygon class="cls-15" points="191.64 651.99 191.64 689.37 299.05 626.75 299.05 589.44 191.64 651.99"/><polygon class="cls-10" points="191.75 692.77 191.75 780.48 25.1 683.98 25.1 596.27 191.75 692.77"/><polygon class="cls-11" points="191.68 692.77 191.68 780.48 305.09 714.36 305.09 626.72 191.68 692.77"/><polygon class="cls-5" points="305.09 626.72 191.68 692.77 25.1 596.27 138.63 530.15 305.09 626.72"/><polygon class="cls-4" points="191.7 651.71 191.7 689.09 31.14 596.09 31.14 558.71 191.7 651.71"/><polygon class="cls-15" points="191.64 651.71 191.64 689.09 299.05 626.47 299.05 589.16 191.64 651.71"/><polygon class="cls-10" points="191.75 593.43 191.75 681.14 25.1 584.64 25.1 496.93 191.75 593.43"/><polygon class="cls-11" points="191.68 593.43 191.68 681.14 305.09 615.03 305.09 527.38 191.68 593.43"/><polygon class="cls-5" points="305.09 527.38 191.68 593.43 25.1 496.93 138.63 430.82 305.09 527.38"/><polygon class="cls-4" points="191.7 552.37 191.7 589.75 31.14 496.75 31.14 459.38 191.7 552.37"/><polygon class="cls-15" points="191.64 552.37 191.64 589.75 299.05 527.14 299.05 489.83 191.64 552.37"/><polygon class="cls-5" points="199.2 602.46 199.2 662.34 298.02 604.73 298.02 544.91 199.2 602.46"/><polygon class="cls-7" points="200.25 603.29 200.25 663.18 299.07 605.57 299.07 545.74 200.25 603.29"/><polygon class="cls-11" points="295.88 603.73 295.88 551.3 203.44 605.13 203.44 657.62 295.88 603.73"/><polygon class="cls-16" points="289.63 583.26 289.63 563.51 210.2 609.11 210.2 628.91 289.63 583.26"/><polygon class="cls-17" points="287.11 564.95 287.11 581.8 210.2 626 210.2 628.91 289.63 583.26 289.63 563.51 287.11 564.95"/><polygon class="cls-18" points="222.69 615.23 217.3 618.34 217.3 612.15 222.69 609.04 222.69 615.23"/><polygon class="cls-18" points="232.82 609.38 227.43 612.49 227.43 606.31 232.82 603.19 232.82 609.38"/><polygon class="cls-18" points="242.95 603.53 237.56 606.64 237.56 600.46 242.95 597.35 242.95 603.53"/><polygon class="cls-19" points="253.07 597.69 247.68 600.8 247.68 594.61 253.07 591.5 253.07 597.69"/><polygon class="cls-19" points="263.2 591.84 257.81 594.95 257.81 588.77 263.2 585.65 263.2 591.84"/><polygon class="cls-20" points="273.32 585.99 267.93 589.11 267.93 582.92 273.32 579.81 273.32 585.99"/><polygon class="cls-20" points="283.45 580.15 278.06 583.26 278.06 577.07 283.45 573.96 283.45 580.15"/><polygon class="cls-5" points="199.2 702.07 199.2 761.96 298.02 704.35 298.02 644.52 199.2 702.07"/><polygon class="cls-7" points="200.25 702.91 200.25 762.8 299.07 705.18 299.07 645.36 200.25 702.91"/><polygon class="cls-11" points="295.88 703.35 295.88 650.92 203.44 704.75 203.44 757.23 295.88 703.35"/><polygon class="cls-16" points="289.63 682.88 289.63 663.12 210.2 708.73 210.2 728.53 289.63 682.88"/><polygon class="cls-17" points="287.11 664.57 287.11 681.41 210.2 725.62 210.2 728.53 289.63 682.88 289.63 663.12 287.11 664.57"/><polygon class="cls-18" points="222.69 714.84 217.3 717.95 217.3 711.77 222.69 708.66 222.69 714.84"/><polygon class="cls-18" points="232.82 709 227.43 712.11 227.43 705.92 232.82 702.81 232.82 709"/><polygon class="cls-18" points="242.95 703.15 237.56 706.26 237.56 700.08 242.95 696.96 242.95 703.15"/><polygon class="cls-19" points="253.07 697.3 247.68 700.41 247.68 694.23 253.07 691.12 253.07 697.3"/><polygon class="cls-19" points="263.2 691.46 257.81 694.57 257.81 688.38 263.2 685.27 263.2 691.46"/><polygon class="cls-20" points="273.32 685.61 267.93 688.72 267.93 682.54 273.32 679.42 273.32 685.61"/><polygon class="cls-20" points="283.45 679.76 278.06 682.88 278.06 676.69 283.45 673.58 283.45 679.76"/><polygon class="cls-10" points="191.75 494.09 191.75 581.8 25.1 485.3 25.1 397.59 191.75 494.09"/><polygon class="cls-11" points="191.68 494.09 191.68 581.8 305.09 515.69 305.09 428.05 191.68 494.09"/><polygon class="cls-5" points="305.09 428.05 191.68 494.09 25.1 397.59 138.63 331.48 305.09 428.05"/><polygon class="cls-8" points="305.09 428.05 191.68 494.09 25.1 397.59 191.79 491.65 305.09 428.05"/><polygon class="cls-5" points="198.99 502.91 198.99 562.8 297.82 505.18 297.82 445.36 198.99 502.91"/><polygon class="cls-7" points="200.25 503.95 200.25 563.84 299.07 506.23 299.07 446.4 200.25 503.95"/><polygon class="cls-11" points="295.88 504.4 295.88 451.96 203.44 505.79 203.44 558.28 295.88 504.4"/><polygon class="cls-16" points="289.63 483.93 289.63 464.17 210.2 509.77 210.2 529.57 289.63 483.93"/><polygon class="cls-17" points="287.32 465.49 287.32 482.67 210.2 526.99 210.2 529.57 289.63 483.93 289.63 464.17 287.32 465.49"/><polygon class="cls-18" points="222.69 515.89 217.3 519 217.3 512.81 222.69 509.7 222.69 515.89"/><polygon class="cls-19" points="232.82 510.04 227.43 513.15 227.43 506.97 232.82 503.86 232.82 510.04"/><polygon class="cls-19" points="242.95 504.19 237.56 507.31 237.56 501.12 242.95 498.01 242.95 504.19"/><polygon class="cls-19" points="253.07 498.35 247.68 501.46 247.68 495.27 253.07 492.16 253.07 498.35"/><polygon class="cls-20" points="263.2 492.5 257.81 495.62 257.81 489.43 263.2 486.32 263.2 492.5"/><polygon class="cls-20" points="273.32 486.66 267.93 489.77 267.93 483.58 273.32 480.47 273.32 486.66"/><polygon class="cls-20" points="283.45 480.81 278.06 483.92 278.06 477.74 283.45 474.62 283.45 480.81"/><path class="cls-3" d="M682.76,943.35a1.64,1.64,0,0,1-1.45-.85,1.67,1.67,0,0,1,.62-2.28l78.26-44.37a1.67,1.67,0,1,1,1.65,2.91l-78.25,44.37A1.66,1.66,0,0,1,682.76,943.35Z"/><path class="cls-3" d="M544.34,1022.08l-89.75-52.55a1.68,1.68,0,0,1,1.7-2.89l88.07,51.57,79.85-45.27a1.68,1.68,0,1,1,1.66,2.91Z"/><path class="cls-3" d="M356.71,911.94a1.61,1.61,0,0,1-.84-.23l-60.15-35.22a1.67,1.67,0,1,1,1.69-2.89l60.15,35.22a1.67,1.67,0,0,1-.85,3.12Z"/><path class="cls-3" d="M699.12,1015.78a20.41,20.41,0,0,1-10.06-2.35L551.24,933.87c-2.91-1.68-4.51-4.09-4.51-6.78,0-3.11,2.2-6.17,6-8.38l33.29-19.15c6.51-3.76,17.16-4.2,22.9-.88l137.82,79.57c2.91,1.68,4.51,4.09,4.51,6.78,0,3.11-2.19,6.17-6,8.38L712,1012.56A26.37,26.37,0,0,1,699.12,1015.78ZM598.9,899.69a23,23,0,0,0-11.17,2.77l-33.29,19.15c-2.77,1.6-4.36,3.59-4.36,5.48s1.54,3.13,2.84,3.88l137.82,79.57c4.72,2.72,14,2.31,19.55-.88l33.3-19.15c2.76-1.6,4.35-3.6,4.35-5.48s-1.54-3.13-2.83-3.88L607.29,901.58A17.21,17.21,0,0,0,598.9,899.69Z"/><path class="cls-3" d="M398.13,987c-38.93,0-70.6-18.76-70.6-41.81s31.67-41.82,70.6-41.82,70.61,18.76,70.61,41.82S437.07,987,398.13,987Zm0-80.28c-37.08,0-67.26,17.26-67.26,38.47s30.18,38.47,67.26,38.47,67.26-17.26,67.26-38.47S435.22,906.67,398.13,906.67Z"/><polygon class="cls-22" points="599.86 848.73 569.43 866.32 599.87 883.9 630.3 866.31 599.86 848.73"/><polygon class="cls-18" points="569.4 932.15 599.86 949.73 599.86 883.89 569.4 866.31 569.4 932.15"/><polygon class="cls-21" points="599.85 949.73 630.3 932.15 630.3 866.31 599.85 883.89 599.85 949.73"/><polygon class="cls-8" points="599.86 882.25 569.43 866.32 599.87 883.9 630.3 866.31 599.86 882.25"/><polygon class="cls-24" points="649.98 825.08 619.55 842.67 649.99 860.25 680.42 842.66 649.98 825.08"/><polygon class="cls-19" points="619.52 958.85 649.98 976.43 649.98 860.24 619.52 842.66 619.52 958.85"/><polygon class="cls-23" points="649.97 976.43 680.42 958.85 680.42 842.66 649.97 860.24 649.97 976.43"/><polygon class="cls-26" points="700.02 806.77 669.59 824.36 700.03 841.94 730.46 824.35 700.02 806.77"/><polygon class="cls-8" points="649.98 858.6 619.55 842.67 649.99 860.25 680.42 842.66 649.98 858.6"/><polygon class="cls-8" points="700.02 840.29 669.59 824.36 700.03 841.94 730.46 824.35 700.02 840.29"/><polygon class="cls-20" points="669.56 986.33 700.02 1003.92 700.02 841.93 669.56 824.35 669.56 986.33"/><polygon class="cls-25" points="700.01 1003.92 730.47 986.33 730.47 824.35 700.01 841.93 700.01 1003.92"/><path class="cls-26" d="M398,897.57l-58.83-.1c-.1-18.76,26.16-33.92,58.65-33.86s58.91,15.31,59,34.07q.07,14.07-17.1,24Z"/><polygon class="cls-25" points="339.19 897.47 339.19 941.67 398.02 941.67 398.02 897.57 339.19 897.47"/><polygon class="cls-20" points="439.75 921.67 439.75 965.87 398.02 941.67 398.02 897.57 439.75 921.67"/><path class="cls-25" d="M439.75,921.67v44.2q17.17-9.92,17.1-24V897.68Q456.92,911.75,439.75,921.67Z"/><path class="cls-8" d="M456.49,894.59a19.34,19.34,0,0,1,.22,2.74q.07,14.07-17.1,24l-41.73-24.09-58.66-.1c0,.3,0,.6,0,.91l58.83.11,41.73,24.09q17.17-9.91,17.1-24A19.38,19.38,0,0,0,456.49,894.59Z"/><path class="cls-23" d="M413.09,956.1,398,925.71l.19,50q24.36,0,41.54-9.87V949.76Z"/><path class="cls-24" d="M398,925.67l41.73,24.09q-17.17,9.91-41.54,9.88Z"/><path class="cls-27" d="M398.21,959.36,398,926.23h0l.19,34q24.36,0,41.54-9.88l-.75-.43Q422.05,959.39,398.21,959.36Z"/><path class="cls-18" d="M398.09,947.21,398,935l-21.08,0-37.75-21.8v28.47c.1,18.76,26.52,34,59,34.07V947.27Z"/><path class="cls-22" d="M398,913.31l.19,34c-32.5-.06-58.92-15.31-59-34.07h0Z"/><path class="cls-27" d="M398,913.87h-.27l.17,33c-29-.05-53.21-12.25-58.1-28.23,4.17,16.46,28.75,29.16,58.39,29.22Z"/><g class="cls-28"><path class="cls-20" d="M1090.77,613.55a13.08,13.08,0,0,0,5.94,10.24c3.28,1.89,5.93.38,5.93-3.39a13.05,13.05,0,0,0-5.93-10.23C1093.43,608.27,1090.77,609.79,1090.77,613.55Z"/><path class="cls-20" d="M1038.31,594a13.1,13.1,0,0,0,5.94,10.24c3.28,1.89,5.93.37,5.93-3.39a13.09,13.09,0,0,0-5.93-10.24C1041,588.74,1038.31,590.26,1038.31,594Z"/><path class="cls-20" d="M1071.1,586.34a13.08,13.08,0,0,0,5.93,10.24c3.28,1.9,5.94.38,5.94-3.38A13.08,13.08,0,0,0,1077,583C1073.76,581.07,1071.1,582.58,1071.1,586.34Z"/><path class="cls-20" d="M1044.73,572.11a13.07,13.07,0,0,0,5.94,10.24c3.27,1.89,5.93.38,5.93-3.38a13.1,13.1,0,0,0-5.93-10.24C1047.39,566.84,1044.73,568.35,1044.73,572.11Z"/><path class="cls-20" d="M871.45,376.65a13.09,13.09,0,0,0,5.93,10.24c3.28,1.89,5.94.37,5.94-3.39a13.1,13.1,0,0,0-5.94-10.24C874.1,371.37,871.45,372.89,871.45,376.65Z"/><path class="cls-20" d="M920.84,482.54a13.07,13.07,0,0,0,5.93,10.24c3.28,1.89,5.94.38,5.94-3.38a13.07,13.07,0,0,0-5.94-10.24C923.49,477.27,920.84,478.78,920.84,482.54Z"/><path class="cls-20" d="M1066.36,535.56a13.07,13.07,0,0,0,5.93,10.24c3.28,1.89,5.94.38,5.94-3.39a13.06,13.06,0,0,0-5.94-10.23C1069,530.28,1066.36,531.8,1066.36,535.56Z"/><path class="cls-20" d="M1117.14,414.62a13.08,13.08,0,0,0,5.94,10.24c3.27,1.89,5.93.38,5.93-3.38a13.08,13.08,0,0,0-5.93-10.24C1119.8,409.34,1117.14,410.86,1117.14,414.62Z"/><path class="cls-20" d="M991.29,451.85a13.1,13.1,0,0,0,5.94,10.24c3.28,1.89,5.94.37,5.94-3.39a13.1,13.1,0,0,0-5.94-10.24C994,446.57,991.29,448.09,991.29,451.85Z"/><path class="cls-20" d="M1107.93,655a13.1,13.1,0,0,0,5.94,10.24c3.28,1.89,5.93.37,5.93-3.39a13.09,13.09,0,0,0-5.93-10.24C1110.59,649.71,1107.93,651.23,1107.93,655Z"/><path class="cls-20" d="M1015,539.47A13.06,13.06,0,0,0,1021,549.7c3.28,1.9,5.93.38,5.93-3.38a13.07,13.07,0,0,0-5.93-10.24C1017.67,534.19,1015,535.7,1015,539.47Z"/><path class="cls-20" d="M986.55,536.12a13.1,13.1,0,0,0,5.94,10.24c3.27,1.89,5.93.37,5.93-3.39a13.11,13.11,0,0,0-5.93-10.24C989.21,530.84,986.55,532.36,986.55,536.12Z"/><path class="cls-20" d="M981.11,562.49a13.06,13.06,0,0,0,5.94,10.23c3.27,1.9,5.93.38,5.93-3.38a13.11,13.11,0,0,0-5.93-10.24C983.77,557.21,981.11,558.72,981.11,562.49Z"/><path class="cls-20" d="M985.71,471.24a13.08,13.08,0,0,0,5.94,10.24c3.28,1.89,5.93.38,5.93-3.38a13.05,13.05,0,0,0-5.93-10.24C988.37,466,985.71,467.48,985.71,471.24Z"/><path class="cls-20" d="M945.53,435.11a13.06,13.06,0,0,0,5.94,10.23c3.28,1.9,5.93.38,5.93-3.38a13.07,13.07,0,0,0-5.93-10.24C948.19,429.83,945.53,431.34,945.53,435.11Z"/><path class="cls-20" d="M938.28,398.27a13.07,13.07,0,0,0,5.93,10.24c3.28,1.89,5.94.38,5.94-3.38a13.08,13.08,0,0,0-5.94-10.24C940.93,393,938.28,394.51,938.28,398.27Z"/><path class="cls-20" d="M946.65,472.5a13.11,13.11,0,0,0,5.93,10.24c3.28,1.89,5.94.37,5.94-3.39a13.1,13.1,0,0,0-5.94-10.24C949.31,467.22,946.65,468.74,946.65,472.5Z"/><path class="cls-20" d="M943.86,498.17a13.11,13.11,0,0,0,5.93,10.24c3.28,1.89,5.94.37,5.94-3.39a13.1,13.1,0,0,0-5.94-10.24C946.52,492.89,943.86,494.41,943.86,498.17Z"/><path class="cls-20" d="M1096.21,459a13.1,13.1,0,0,0,5.94,10.24c3.28,1.89,5.93.37,5.93-3.39a13.09,13.09,0,0,0-5.93-10.24C1098.87,453.71,1096.21,455.23,1096.21,459Z"/><path class="cls-20" d="M850.94,410.13a13.1,13.1,0,0,0,5.93,10.24c3.28,1.89,5.94.38,5.94-3.38a13.07,13.07,0,0,0-5.94-10.24C853.6,404.85,850.94,406.37,850.94,410.13Z"/><path class="cls-20" d="M1102.91,532.21a13.08,13.08,0,0,0,5.94,10.24c3.27,1.89,5.93.38,5.93-3.38a13.08,13.08,0,0,0-5.93-10.24C1105.57,526.93,1102.91,528.45,1102.91,532.21Z"/><path class="cls-20" d="M1019.76,566.81a13.07,13.07,0,0,0,5.93,10.24c3.28,1.89,5.94.38,5.94-3.38a13.07,13.07,0,0,0-5.94-10.24C1022.41,561.54,1019.76,563.05,1019.76,566.81Z"/><path class="cls-20" d="M1042.08,539.47A13.08,13.08,0,0,0,1048,549.7c3.28,1.9,5.94.38,5.94-3.38a13.08,13.08,0,0,0-5.94-10.24C1044.74,534.19,1042.08,535.7,1042.08,539.47Z"/><path class="cls-20" d="M1041,499.17a13.08,13.08,0,0,0,5.94,10.24c3.28,1.89,5.93.38,5.93-3.39a13.05,13.05,0,0,0-5.93-10.23C1043.62,493.89,1041,495.41,1041,499.17Z"/><path class="cls-20" d="M1067.75,622.62a13.1,13.1,0,0,0,5.94,10.24c3.27,1.89,5.93.38,5.93-3.39a13.08,13.08,0,0,0-5.93-10.23C1070.41,617.34,1067.75,618.86,1067.75,622.62Z"/><path class="cls-20" d="M1011.25,450.73a13.07,13.07,0,0,0,5.93,10.24c3.28,1.89,5.94.38,5.94-3.38a13.07,13.07,0,0,0-5.94-10.24C1013.9,445.45,1011.25,447,1011.25,450.73Z"/><path class="cls-20" d="M914.28,456.87a13.08,13.08,0,0,0,5.94,10.24c3.27,1.89,5.93.38,5.93-3.39a13.08,13.08,0,0,0-5.93-10.23C916.94,451.59,914.28,453.11,914.28,456.87Z"/><path class="cls-20" d="M894.47,429.8A13.08,13.08,0,0,0,900.4,440c3.28,1.9,5.94.38,5.94-3.38a13.08,13.08,0,0,0-5.94-10.24C897.13,424.53,894.47,426,894.47,429.8Z"/><path class="cls-20" d="M875.49,406.36a13.07,13.07,0,0,0,5.94,10.24c3.28,1.9,5.93.38,5.93-3.38A13.07,13.07,0,0,0,881.43,403C878.15,401.09,875.49,402.6,875.49,406.36Z"/><path class="cls-20" d="M964.51,520.49a13.07,13.07,0,0,0,5.93,10.24c3.28,1.89,5.94.38,5.94-3.38a13.07,13.07,0,0,0-5.94-10.24C967.16,515.21,964.51,516.73,964.51,520.49Z"/><path class="cls-20" d="M907,427.29A13.08,13.08,0,0,0,913,437.53c3.28,1.89,5.94.38,5.94-3.38A13.07,13.07,0,0,0,913,423.91C909.68,422,907,423.53,907,427.29Z"/><path class="cls-20" d="M964.79,383.76A13.07,13.07,0,0,0,970.72,394c3.28,1.89,5.94.38,5.94-3.38a13.07,13.07,0,0,0-5.94-10.24C967.44,378.49,964.79,380,964.79,383.76Z"/><path class="cls-20" d="M933.81,339.28a13.08,13.08,0,0,0,5.94,10.24c3.28,1.89,5.93.38,5.93-3.38a13.05,13.05,0,0,0-5.93-10.24C936.47,334,933.81,335.52,933.81,339.28Z"/><path class="cls-20" d="M973.44,445.71A13.09,13.09,0,0,0,979.37,456c3.28,1.89,5.94.38,5.94-3.39a13.06,13.06,0,0,0-5.94-10.23C976.09,440.43,973.44,442,973.44,445.71Z"/><path class="cls-20" d="M927.53,441.94a13.08,13.08,0,0,0,5.94,10.24c3.28,1.89,5.94.38,5.94-3.38a13.07,13.07,0,0,0-5.94-10.24C930.19,436.67,927.53,438.18,927.53,441.94Z"/><path class="cls-20" d="M901.72,501.12a13.07,13.07,0,0,0,5.94,10.24c3.28,1.89,5.93.38,5.93-3.38a13.07,13.07,0,0,0-5.93-10.24C904.38,495.85,901.72,497.36,901.72,501.12Z"/><path class="cls-20" d="M1000.78,385.32a13.08,13.08,0,0,0,5.94,10.24c3.28,1.89,5.93.38,5.93-3.38a13.05,13.05,0,0,0-5.93-10.24C1003.44,380.05,1000.78,381.56,1000.78,385.32Z"/><path class="cls-20" d="M1062.45,413.34a13.1,13.1,0,0,0,5.93,10.24c3.28,1.89,5.94.38,5.94-3.39a13.06,13.06,0,0,0-5.94-10.23C1065.11,408.06,1062.45,409.58,1062.45,413.34Z"/><path class="cls-20" d="M1000.78,489.12a13.07,13.07,0,0,0,5.94,10.24c3.28,1.9,5.93.38,5.93-3.38a13.07,13.07,0,0,0-5.93-10.24C1003.44,483.85,1000.78,485.36,1000.78,489.12Z"/><path class="cls-20" d="M976.23,493.7a13.05,13.05,0,0,0,5.93,10.24c3.28,1.89,5.94.38,5.94-3.38a13.08,13.08,0,0,0-5.94-10.24C978.88,488.43,976.23,489.94,976.23,493.7Z"/><path class="cls-20" d="M1029.24,432.87a13.07,13.07,0,0,0,5.94,10.24c3.28,1.89,5.93.38,5.93-3.38a13.07,13.07,0,0,0-5.93-10.24C1031.9,427.6,1029.24,429.11,1029.24,432.87Z"/><path class="cls-20" d="M908.28,370a13.08,13.08,0,0,0,5.94,10.24c3.27,1.89,5.93.38,5.93-3.39a13.08,13.08,0,0,0-5.93-10.23C910.94,364.67,908.28,366.19,908.28,370Z"/><path class="cls-20" d="M922.51,410.55a13.08,13.08,0,0,0,5.94,10.24c3.28,1.89,5.93.38,5.93-3.39a13.05,13.05,0,0,0-5.93-10.23C925.17,405.27,922.51,406.79,922.51,410.55Z"/><path class="cls-20" d="M811.59,402a13.08,13.08,0,0,0,5.94,10.24c3.28,1.89,5.93.38,5.93-3.39a13.05,13.05,0,0,0-5.93-10.23C814.25,396.67,811.59,398.19,811.59,402Z"/><path class="cls-20" d="M942.6,526.49a13.08,13.08,0,0,0,5.94,10.24c3.28,1.89,5.93.38,5.93-3.39a13.05,13.05,0,0,0-5.93-10.23C945.26,521.21,942.6,522.73,942.6,526.49Z"/><path class="cls-20" d="M1015.85,506.82a13.1,13.1,0,0,0,5.94,10.24c3.27,1.89,5.93.37,5.93-3.39a13.11,13.11,0,0,0-5.93-10.24C1018.51,501.54,1015.85,503.06,1015.85,506.82Z"/><path class="cls-20" d="M1061.05,481.15a13.1,13.1,0,0,0,5.94,10.24c3.28,1.89,5.93.37,5.93-3.39a13.09,13.09,0,0,0-5.93-10.24C1063.71,475.87,1061.05,477.39,1061.05,481.15Z"/><path class="cls-20" d="M959.34,456.17a13.07,13.07,0,0,0,5.94,10.24c3.28,1.89,5.94.38,5.94-3.38a13.08,13.08,0,0,0-5.94-10.24C962,450.9,959.34,452.41,959.34,456.17Z"/><path class="cls-20" d="M943,374.14A13.06,13.06,0,0,0,949,384.37c3.27,1.9,5.93.38,5.93-3.38A13.1,13.1,0,0,0,949,370.75C945.68,368.86,943,370.37,943,374.14Z"/><path class="cls-20" d="M886.52,446.55a13.05,13.05,0,0,0,5.93,10.23c3.28,1.9,5.94.38,5.94-3.38a13.08,13.08,0,0,0-5.94-10.24C889.17,441.27,886.52,442.78,886.52,446.55Z"/><path class="cls-20" d="M824.57,362a13.11,13.11,0,0,0,5.93,10.24c3.28,1.89,5.94.37,5.94-3.39a13.1,13.1,0,0,0-5.94-10.24C827.23,356.72,824.57,358.24,824.57,362Z"/><path class="cls-20" d="M877.73,477.94a13.09,13.09,0,0,0,5.93,10.24c3.28,1.89,5.94.37,5.94-3.39a13.1,13.1,0,0,0-5.94-10.24C880.38,472.66,877.73,474.18,877.73,477.94Z"/><path class="cls-20" d="M1034.27,474.89a13.05,13.05,0,0,0,5.93,10.24c3.28,1.89,5.94.38,5.94-3.38a13.08,13.08,0,0,0-5.94-10.24C1036.92,469.62,1034.27,471.13,1034.27,474.89Z"/><path class="cls-20" d="M985.29,510.17a13.1,13.1,0,0,0,5.94,10.24c3.28,1.89,5.94.37,5.94-3.39a13.1,13.1,0,0,0-5.94-10.24C988,504.89,985.29,506.41,985.29,510.17Z"/><path class="cls-20" d="M989.48,419.76A13.1,13.1,0,0,0,995.42,430c3.27,1.89,5.93.37,5.93-3.39a13.11,13.11,0,0,0-5.93-10.24C992.14,414.48,989.48,416,989.48,419.76Z"/><path class="cls-20" d="M958.93,424.78A13.07,13.07,0,0,0,964.86,435c3.28,1.89,5.94.38,5.94-3.38a13.07,13.07,0,0,0-5.94-10.24C961.58,419.5,958.93,421,958.93,424.78Z"/><path class="cls-20" d="M894.89,404.69a13.07,13.07,0,0,0,5.93,10.24c3.28,1.89,5.94.38,5.94-3.39a13.06,13.06,0,0,0-5.94-10.23C897.54,399.41,894.89,400.93,894.89,404.69Z"/><path class="cls-20" d="M852.33,446.55a13.06,13.06,0,0,0,5.94,10.23c3.28,1.9,5.93.38,5.93-3.38a13.07,13.07,0,0,0-5.93-10.24C855,441.27,852.33,442.78,852.33,446.55Z"/><path class="cls-20" d="M873.54,346.09a13.08,13.08,0,0,0,5.94,10.24c3.27,1.89,5.93.38,5.93-3.38a13.08,13.08,0,0,0-5.93-10.24C876.2,340.82,873.54,342.33,873.54,346.09Z"/></g><path class="cls-7" d="M1174.28,853.27l-245.89-142c-9.52-5.5-17.24-20.24-17.24-32.94V485.39c0-12.7,7.72-18.53,17.24-13l245.89,142c9.52,5.5,17.23,20.25,17.23,32.94V840.23C1191.51,852.93,1183.8,858.76,1174.28,853.27Z"/><path class="cls-4" d="M1179.16,611.81l-245.89-142c-3.76-2.17-7.25-2.57-10.08-1.48-.36.14-5.17,2.69-5.51,2.88h0c2.94-1.42,6.67-1.16,10.73,1.19l245.89,142c9.52,5.49,17.23,20.24,17.23,32.93V840.23c0,7.93-3,13.17-7.58,14.67a2.85,2.85,0,0,0,1.51-.52c.22-.12,5.44-3.07,5.65-3.21,3.27-2.29,5.31-7,5.31-13.53V644.74C1196.4,632.05,1188.68,617.31,1179.16,611.81Z"/><path class="cls-29" d="M1175.1,614l-245.89-142c-3.9-2.25-7.49-2.57-10.38-1.32a12.75,12.75,0,0,1,8.32,1.94L1173,614.61c9.52,5.5,17.23,20.24,17.23,32.94V840.44c0,7.49-2.69,12.56-6.85,14.36,5.32-.84,8.92-6.31,8.92-15V646.93C1192.34,634.23,1184.62,619.49,1175.1,614Z"/><path class="cls-16" d="M917.15,488.12V679c0,10.21,4.86,20.19,12.72,25.19l249.58,144.16.41.23a3.38,3.38,0,0,0,5.06-2.93V647.24a42.28,42.28,0,0,0-.28-4.67Z"/><path class="cls-10" d="M1182.6,847.79l-.41-.24L932.61,703.39c-7.86-5-12.72-15-12.72-25.19V489.7l-2.74-1.58V679c0,10.21,4.86,20.19,12.72,25.19l249.58,144.16.41.23a3.34,3.34,0,0,0,3.89-.4A3.32,3.32,0,0,1,1182.6,847.79Z"/><polygon class="cls-18" points="1039.65 601.04 1026.63 593.52 1026.63 740.29 1039.65 747.81 1039.65 601.04"/><polygon class="cls-18" points="1058.41 593.68 1045.39 586.16 1045.39 750.96 1058.41 758.47 1058.41 593.68"/><polygon class="cls-18" points="1077.72 626.84 1064.69 619.32 1064.69 761.99 1077.72 769.51 1077.72 626.84"/><polygon class="cls-18" points="988.01 637.17 988.01 717.58 1001.04 725.1 1001.04 644.69 988.01 637.17"/><polygon class="cls-18" points="1020.35 614.82 1007.32 607.3 1007.32 728.61 1020.35 736.13 1020.35 614.82"/><polygon class="cls-18" points="1096.66 667.58 1083.63 660.06 1083.63 773.02 1096.66 780.54 1096.66 667.58"/><polygon class="cls-18" points="1115.23 687.95 1102.21 680.43 1102.21 783.87 1115.23 791.39 1115.23 687.95"/><polygon class="cls-18" points="981.73 623.23 968.7 615.72 968.7 705.94 981.73 713.46 981.73 623.23"/><polygon class="cls-18" points="930.09 628.56 930.09 683.23 943.11 690.75 943.11 636.08 930.09 628.56"/><polygon class="cls-18" points="962.42 607.12 949.39 599.6 949.39 694.26 962.42 701.78 962.42 607.12"/><polygon class="cls-19" points="1039.65 658.65 1026.63 651.13 1026.63 740.29 1039.65 747.81 1039.65 658.65"/><polygon class="cls-19" points="1058.41 618.12 1045.39 610.6 1045.39 750.96 1058.41 758.47 1058.41 618.12"/><polygon class="cls-19" points="1077.72 652.89 1064.69 645.37 1064.69 761.99 1077.72 769.51 1077.72 652.89"/><polygon class="cls-19" points="988.01 656.71 988.01 717.58 1001.04 725.1 1001.04 664.23 988.01 656.71"/><polygon class="cls-19" points="1020.35 654.32 1007.32 646.8 1007.32 728.61 1020.35 736.13 1020.35 654.32"/><polygon class="cls-19" points="981.73 630.62 968.7 623.1 968.7 705.94 981.73 713.46 981.73 630.62"/><polygon class="cls-19" points="930.09 667.39 930.09 683.23 943.11 690.75 943.11 674.91 930.09 667.39"/><polygon class="cls-19" points="962.42 667.43 949.39 659.91 949.39 694.26 962.42 701.78 962.42 667.43"/><polygon class="cls-19" points="1096.66 688.61 1083.63 681.09 1083.63 773.02 1096.66 780.54 1096.66 688.61"/><polygon class="cls-19" points="1115.23 725.62 1102.21 718.1 1102.21 783.87 1115.23 791.39 1115.23 725.62"/><polygon class="cls-18" points="1133.56 679.96 1120.54 672.44 1120.54 794.36 1133.56 801.88 1133.56 679.96"/><polygon class="cls-18" points="1152.32 650.88 1139.3 643.37 1139.3 805.02 1152.32 812.54 1152.32 650.88"/><polygon class="cls-18" points="1171.63 680.9 1158.61 673.38 1158.61 816.06 1171.63 823.58 1171.63 680.9"/><polygon class="cls-19" points="1133.56 712.72 1120.54 705.2 1120.54 794.36 1133.56 801.88 1133.56 712.72"/><polygon class="cls-19" points="1152.32 672.18 1139.3 664.66 1139.3 805.02 1152.32 812.54 1152.32 672.18"/><polygon class="cls-19" points="1171.63 706.96 1158.61 699.44 1158.61 816.06 1171.63 823.58 1171.63 706.96"/><polygon class="cls-19" points="1171.63 706.96 1158.61 699.44 1158.61 816.06 1171.63 823.58 1171.63 706.96"/><path class="cls-7" d="M958.16,786.76l-245.89-142c-9.52-5.5-17.23-20.24-17.23-32.93V418.88c0-12.69,7.71-18.53,17.23-13l245.89,142c9.52,5.49,17.24,20.24,17.24,32.93v192.9C975.4,786.42,967.68,792.26,958.16,786.76Z"/><path class="cls-4" d="M963.05,545.3l-245.89-142c-3.77-2.18-7.25-2.58-10.09-1.49-.36.14-5.17,2.7-5.5,2.89h0c2.94-1.43,6.66-1.16,10.72,1.18l245.89,142c9.52,5.49,17.24,20.24,17.24,32.93v192.9c0,7.92-3,13.17-7.58,14.66a2.84,2.84,0,0,0,1.51-.51c.22-.13,5.43-3.07,5.64-3.22,3.28-2.29,5.31-7,5.31-13.53V578.24C980.28,565.54,972.57,550.8,963.05,545.3Z"/><path class="cls-29" d="M959,547.49l-245.89-142c-3.9-2.26-7.49-2.58-10.38-1.33a12.74,12.74,0,0,1,8.31,1.95L956.92,548.11c9.52,5.49,17.24,20.24,17.24,32.93v192.9c0,7.48-2.7,12.56-6.86,14.35,5.32-.84,8.93-6.3,8.93-15V580.42C976.23,567.73,968.51,553,959,547.49Z"/><path class="cls-16" d="M701,421.61V612.48c0,10.21,4.86,20.2,12.72,25.19L963.33,781.83c.09,0,.24.13.41.24a3.39,3.39,0,0,0,5.06-2.94V580.74a42.46,42.46,0,0,0-.28-4.68Z"/><path class="cls-10" d="M966.48,781.28l-.41-.23L716.5,636.89c-7.86-5-12.72-15-12.72-25.19V423.2L701,421.61V612.48c0,10.21,4.86,20.2,12.72,25.19L963.33,781.83c.09,0,.24.13.41.24a3.37,3.37,0,0,0,3.89-.4A3.41,3.41,0,0,1,966.48,781.28Z"/><path class="cls-20" d="M962.91,702.55a3.35,3.35,0,0,1-3-1.93c-6.24-13.4-12.13-26.06-22.32-32.09A62.22,62.22,0,0,0,912,659.67c-6.58-1-12.25-1.82-19.05-8.4-.53-.51-1-.95-1.46-1.36-4-3.65-5.45-5.53-6.8-17.82-.31-2.9-.59-5.86-.86-8.82-1.93-20.71-3.76-40.28-19.23-43.42-13.43-2.73-16.77-12.32-20.65-23.42a134.12,134.12,0,0,0-5.16-13.18c-6.71-14.32-16.19-26.48-23.6-30.25-10.59-5.4-24,3-29.89,14.27S771.9,552.88,758,554.55c-22.19,2.63-31.7-10.26-39.38-20.63-4.12-5.55-7.67-10.33-12.22-11.43A3.35,3.35,0,0,1,708,516c6.92,1.67,11.34,7.63,16,13.95,7.35,9.91,14.91,20.16,33.21,18,10.36-1.25,16.6-13.2,22.1-23.73,7.33-14,24.29-24.59,38.87-17.14,10.65,5.43,21,21.37,26.63,33.37a143,143,0,0,1,5.42,13.82c3.71,10.66,6,17.1,15.65,19.06,20.35,4.14,22.49,27.13,24.57,49.37.27,2.92.54,5.84.85,8.71,1.14,10.4,1.95,11.14,4.66,13.61.48.44,1,.93,1.6,1.49,5.25,5.08,9,5.65,15.35,6.58a68,68,0,0,1,28,9.73c12,7.08,18.29,20.65,25,35a3.34,3.34,0,0,1-1.62,4.45A3.39,3.39,0,0,1,962.91,702.55Z"/><path class="cls-4" d="M892.36,731.52a1.34,1.34,0,0,1-1.34-1.34v-3.35a1.34,1.34,0,0,1,2.68,0v3.35A1.34,1.34,0,0,1,892.36,731.52Zm0-10a1.34,1.34,0,0,1-1.34-1.34v-3.34a1.34,1.34,0,1,1,2.68,0v3.34A1.34,1.34,0,0,1,892.36,721.47Zm0-10a1.34,1.34,0,0,1-1.34-1.34v-3.35a1.34,1.34,0,1,1,2.68,0v3.35A1.34,1.34,0,0,1,892.36,711.43Zm0-10A1.34,1.34,0,0,1,891,700v-3.35a1.34,1.34,0,1,1,2.68,0V700A1.34,1.34,0,0,1,892.36,701.38Zm0-10A1.34,1.34,0,0,1,891,690v-3.35a1.34,1.34,0,0,1,2.68,0V690A1.34,1.34,0,0,1,892.36,691.34Zm0-10.05A1.34,1.34,0,0,1,891,680V676.6a1.34,1.34,0,0,1,2.68,0V680A1.34,1.34,0,0,1,892.36,681.29Zm0-10a1.34,1.34,0,0,1-1.34-1.34v-3.35a1.34,1.34,0,0,1,2.68,0v3.35A1.34,1.34,0,0,1,892.36,671.25Zm0-10a1.34,1.34,0,0,1-1.34-1.34V659a1.34,1.34,0,1,1,2.68,0v.84A1.34,1.34,0,0,1,892.36,661.2Z"/><path class="cls-4" d="M931.45,753.25a1.35,1.35,0,0,1-1.35-1.34v-3.35a1.35,1.35,0,0,1,2.69,0v3.35A1.35,1.35,0,0,1,931.45,753.25Zm0-10a1.35,1.35,0,0,1-1.35-1.34v-3.35a1.35,1.35,0,0,1,2.69,0v3.35A1.35,1.35,0,0,1,931.45,743.2Zm0-10a1.35,1.35,0,0,1-1.35-1.34v-3.35a1.35,1.35,0,0,1,2.69,0v3.35A1.35,1.35,0,0,1,931.45,733.16Zm0-10a1.35,1.35,0,0,1-1.35-1.34v-3.35a1.35,1.35,0,0,1,2.69,0v3.35A1.35,1.35,0,0,1,931.45,723.11Zm0-10a1.35,1.35,0,0,1-1.35-1.34v-3.35a1.35,1.35,0,0,1,2.69,0v3.35A1.35,1.35,0,0,1,931.45,713.07Zm0-10.05a1.35,1.35,0,0,1-1.35-1.34v-3.35a1.35,1.35,0,0,1,2.69,0v3.35A1.35,1.35,0,0,1,931.45,703Zm0-10a1.35,1.35,0,0,1-1.35-1.34v-3.35a1.35,1.35,0,0,1,2.69,0v3.35A1.35,1.35,0,0,1,931.45,693Zm0-10.05a1.35,1.35,0,0,1-1.35-1.34v-3.35a1.35,1.35,0,0,1,2.69,0v3.35A1.35,1.35,0,0,1,931.45,682.93Z"/><path class="cls-4" d="M853.5,709.43a1.34,1.34,0,0,1-1.34-1.34v-3.35a1.34,1.34,0,0,1,2.68,0v3.35A1.34,1.34,0,0,1,853.5,709.43Zm0-10a1.34,1.34,0,0,1-1.34-1.34v-3.35a1.34,1.34,0,0,1,2.68,0V698A1.34,1.34,0,0,1,853.5,699.38Zm0-10a1.34,1.34,0,0,1-1.34-1.34v-3.35a1.34,1.34,0,0,1,2.68,0V688A1.34,1.34,0,0,1,853.5,689.34Zm0-10.05a1.34,1.34,0,0,1-1.34-1.34V674.6a1.34,1.34,0,0,1,2.68,0V678A1.34,1.34,0,0,1,853.5,679.29Zm0-10a1.35,1.35,0,0,1-1.34-1.34v-3.35a1.34,1.34,0,0,1,2.68,0v3.35A1.35,1.35,0,0,1,853.5,669.25Zm0-10a1.34,1.34,0,0,1-1.34-1.34v-3.35a1.34,1.34,0,0,1,2.68,0v3.35A1.34,1.34,0,0,1,853.5,659.2Zm0-10a1.35,1.35,0,0,1-1.34-1.34v-3.35a1.34,1.34,0,0,1,2.68,0v3.35A1.35,1.35,0,0,1,853.5,649.16Zm0-10a1.34,1.34,0,0,1-1.34-1.34v-3.35a1.34,1.34,0,0,1,2.68,0v3.35A1.34,1.34,0,0,1,853.5,639.11Zm0-10a1.35,1.35,0,0,1-1.34-1.35v-3.34a1.34,1.34,0,0,1,2.68,0v3.34A1.35,1.35,0,0,1,853.5,629.07Zm0-10.05a1.34,1.34,0,0,1-1.34-1.34v-3.35a1.34,1.34,0,0,1,2.68,0v3.35A1.34,1.34,0,0,1,853.5,619Zm0-10a1.34,1.34,0,0,1-1.34-1.34v-3.34a1.34,1.34,0,1,1,2.68,0v3.34A1.34,1.34,0,0,1,853.5,609Zm0-10a1.34,1.34,0,0,1-1.34-1.34v-3.35a1.34,1.34,0,0,1,2.68,0v3.35A1.34,1.34,0,0,1,853.5,598.93Zm0-10a1.34,1.34,0,0,1-1.34-1.34v-3.35a1.34,1.34,0,0,1,2.68,0v3.35A1.34,1.34,0,0,1,853.5,588.88Z"/><path class="cls-4" d="M814.65,686.91a1.34,1.34,0,0,1-1.34-1.34v-3.35a1.34,1.34,0,1,1,2.68,0v3.35A1.34,1.34,0,0,1,814.65,686.91Zm0-10a1.35,1.35,0,0,1-1.34-1.35v-3.34a1.34,1.34,0,0,1,2.68,0v3.34A1.35,1.35,0,0,1,814.65,676.87Zm0-10a1.34,1.34,0,0,1-1.34-1.34v-3.35a1.34,1.34,0,0,1,2.68,0v3.35A1.34,1.34,0,0,1,814.65,666.82Zm0-10.05a1.34,1.34,0,0,1-1.34-1.34v-3.34a1.34,1.34,0,0,1,2.68,0v3.34A1.34,1.34,0,0,1,814.65,656.77Zm0-10a1.34,1.34,0,0,1-1.34-1.34V642a1.34,1.34,0,0,1,2.68,0v3.35A1.34,1.34,0,0,1,814.65,646.73Zm0-10.05a1.34,1.34,0,0,1-1.34-1.34V632a1.34,1.34,0,1,1,2.68,0v3.35A1.34,1.34,0,0,1,814.65,636.68Zm0-10a1.34,1.34,0,0,1-1.34-1.34V622a1.34,1.34,0,1,1,2.68,0v3.35A1.34,1.34,0,0,1,814.65,626.64Zm0-10a1.34,1.34,0,0,1-1.34-1.34V611.9a1.34,1.34,0,0,1,2.68,0v3.35A1.34,1.34,0,0,1,814.65,616.59Zm0-10a1.34,1.34,0,0,1-1.34-1.34v-3.35a1.34,1.34,0,0,1,2.68,0v3.35A1.34,1.34,0,0,1,814.65,606.55Zm0-10a1.34,1.34,0,0,1-1.34-1.34v-3.35a1.34,1.34,0,0,1,2.68,0v3.35A1.34,1.34,0,0,1,814.65,596.5Zm0-10a1.34,1.34,0,0,1-1.34-1.34v-3.35a1.34,1.34,0,1,1,2.68,0v3.35A1.34,1.34,0,0,1,814.65,586.46Zm0-10.05a1.34,1.34,0,0,1-1.34-1.34v-3.35a1.34,1.34,0,1,1,2.68,0v3.35A1.34,1.34,0,0,1,814.65,576.41Zm0-10a1.34,1.34,0,0,1-1.34-1.33v-3.35a1.34,1.34,0,0,1,2.68,0V565A1.34,1.34,0,0,1,814.65,566.36Zm0-10a1.34,1.34,0,0,1-1.34-1.34v-3.35a1.34,1.34,0,0,1,2.68,0V555A1.34,1.34,0,0,1,814.65,556.32Zm0-10.05a1.34,1.34,0,0,1-1.34-1.33v-3.35a1.34,1.34,0,0,1,2.68,0v3.35A1.34,1.34,0,0,1,814.65,546.27Zm0-10a1.34,1.34,0,0,1-1.34-1.34v-3.35a1.34,1.34,0,0,1,2.68,0v3.35A1.34,1.34,0,0,1,814.65,536.23Z"/><path class="cls-4" d="M775.8,663.43a1.35,1.35,0,0,1-1.34-1.34v-3.35a1.34,1.34,0,1,1,2.68,0v3.35A1.35,1.35,0,0,1,775.8,663.43Zm0-10a1.34,1.34,0,0,1-1.34-1.34v-3.35a1.34,1.34,0,1,1,2.68,0V652A1.34,1.34,0,0,1,775.8,653.38Zm0-10a1.35,1.35,0,0,1-1.34-1.35v-3.34a1.34,1.34,0,1,1,2.68,0V642A1.35,1.35,0,0,1,775.8,643.34Zm0-10.05a1.34,1.34,0,0,1-1.34-1.34V628.6a1.34,1.34,0,1,1,2.68,0V632A1.34,1.34,0,0,1,775.8,633.29Zm0-10a1.34,1.34,0,0,1-1.34-1.34v-3.34a1.34,1.34,0,1,1,2.68,0v3.34A1.34,1.34,0,0,1,775.8,623.24Zm0-10a1.34,1.34,0,0,1-1.34-1.34v-3.35a1.34,1.34,0,1,1,2.68,0v3.35A1.34,1.34,0,0,1,775.8,613.2Zm0-10.05a1.34,1.34,0,0,1-1.34-1.34v-3.35a1.34,1.34,0,1,1,2.68,0v3.35A1.34,1.34,0,0,1,775.8,603.15Zm0-10a1.34,1.34,0,0,1-1.34-1.34v-3.35a1.34,1.34,0,0,1,2.68,0v3.35A1.34,1.34,0,0,1,775.8,593.11Zm0-10.05a1.34,1.34,0,0,1-1.34-1.34v-3.35a1.34,1.34,0,1,1,2.68,0v3.35A1.34,1.34,0,0,1,775.8,583.06Zm0-10a1.34,1.34,0,0,1-1.34-1.34v-3.35a1.34,1.34,0,1,1,2.68,0v3.35A1.34,1.34,0,0,1,775.8,573Zm0-10a1.34,1.34,0,0,1-1.34-1.34v-3.35a1.34,1.34,0,0,1,2.68,0v3.35A1.34,1.34,0,0,1,775.8,563Z"/><path class="cls-4" d="M736.94,641.35A1.34,1.34,0,0,1,735.6,640v-3.35a1.34,1.34,0,0,1,2.68,0V640A1.34,1.34,0,0,1,736.94,641.35Zm0-10.05A1.34,1.34,0,0,1,735.6,630v-3.35a1.34,1.34,0,1,1,2.68,0V630A1.34,1.34,0,0,1,736.94,631.3Zm0-10a1.35,1.35,0,0,1-1.34-1.34v-3.35a1.34,1.34,0,1,1,2.68,0v3.35A1.35,1.35,0,0,1,736.94,621.26Zm0-10a1.34,1.34,0,0,1-1.34-1.34v-3.35a1.34,1.34,0,1,1,2.68,0v3.35A1.34,1.34,0,0,1,736.94,611.21Zm0-10a1.35,1.35,0,0,1-1.34-1.35v-3.34a1.34,1.34,0,1,1,2.68,0v3.34A1.35,1.35,0,0,1,736.94,601.17Zm0-10a1.34,1.34,0,0,1-1.34-1.34v-3.35a1.34,1.34,0,0,1,2.68,0v3.35A1.34,1.34,0,0,1,736.94,591.12Zm0-10a1.34,1.34,0,0,1-1.34-1.34v-3.34a1.34,1.34,0,1,1,2.68,0v3.34A1.34,1.34,0,0,1,736.94,581.07Zm0-10a1.34,1.34,0,0,1-1.34-1.34v-3.35a1.34,1.34,0,1,1,2.68,0v3.35A1.34,1.34,0,0,1,736.94,571Zm0-10a1.34,1.34,0,0,1-1.34-1.34v-3.17a1.34,1.34,0,0,1,2.68,0v3.17A1.34,1.34,0,0,1,736.94,561Z"/><path class="cls-5" d="M807.53,507.35c0,5.31,3.75,11.77,8.38,14.45s8.37.53,8.37-4.78-3.75-11.78-8.37-14.45S807.53,502,807.53,507.35Z"/><path class="cls-4" d="M819.67,524.62h0a9.26,9.26,0,0,1-4.6-1.37c-5.17-3-9.21-10-9.21-15.9,0-4.55,2.52-7.6,6.29-7.6a9.23,9.23,0,0,1,4.59,1.37c5.17,3,9.22,10,9.22,15.9a8.56,8.56,0,0,1-1.65,5.42A5.82,5.82,0,0,1,819.67,524.62Zm-7.52-21.52c-2.66,0-2.95,3-2.95,4.25,0,4.68,3.46,10.64,7.54,13,2.09,1.21,4,1.24,5,0a5.34,5.34,0,0,0,.91-3.32c0-4.69-3.45-10.64-7.54-13A6,6,0,0,0,812.15,503.1Z"/><path class="cls-19" d="M960.12,661.11a3.34,3.34,0,0,1-2.67-1.32l-14.35-18.9a28.22,28.22,0,0,0-20.19-11L874.74,626a34.87,34.87,0,0,1-25.17-13.92L829.2,584.71a28.36,28.36,0,0,0-34.26-8.81,34.74,34.74,0,0,1-30-.55l-1.9-1a28.22,28.22,0,0,0-22.9-1l-31,12.17a3.35,3.35,0,1,1-2.45-6.23l31-12.18A35,35,0,0,1,766,568.41l1.89,1a28.13,28.13,0,0,0,24.27.44,35.09,35.09,0,0,1,42.4,10.91l20.36,27.34a28.16,28.16,0,0,0,20.35,11.24l48.16,3.87a34.88,34.88,0,0,1,25,13.68l14.36,18.9a3.35,3.35,0,0,1-.65,4.69A3.3,3.3,0,0,1,960.12,661.11Z"/><path class="cls-18" d="M960.67,731.43a3.31,3.31,0,0,1-1.33-.28l-33.62-14.67a140.75,140.75,0,0,1-49-35.71L866,668.53a14.68,14.68,0,0,0-19.22-2.45,21.36,21.36,0,0,1-33-14.1l-7.88-46.14a14.65,14.65,0,0,0-19.38-11.34c-49.81,17.87-75.52,27.08-76.42,27.37a3.35,3.35,0,0,1-2.12-6.35c.7-.23,14.49-5.16,76.28-27.33a21.34,21.34,0,0,1,28.24,16.52l7.88,46.15A14.66,14.66,0,0,0,843,660.53a21.39,21.39,0,0,1,28,3.57l10.78,12.24a134,134,0,0,0,46.64,34L962,725a3.35,3.35,0,0,1-1.35,6.42Z"/><polygon class="cls-21" points="749.82 438.68 806.21 472.06 816.58 498.06 820.42 496.57 820.42 440.11 749.82 398.53 745.82 400.21 749.82 438.68"/><polygon class="cls-8" points="815.77 442.29 747.78 402.22 746.91 399.51 817.51 441.09 817.51 497.55 815.77 492.7 815.77 442.29"/><polygon class="cls-22" points="745.82 440.09 802.21 473.47 816.42 497.98 816.42 441.53 745.82 399.95 745.82 440.09"/><polygon class="cls-8" points="753.15 436.65 753.15 412.06 809.31 444.77 809.31 469.39 753.15 436.65"/></g></g></svg>