<svg id="Layer_1" data-name="Layer 1" xmlns="http://www.w3.org/2000/svg" xmlns:xlink="http://www.w3.org/1999/xlink" viewBox="0 0 1199 1192"><defs><style>.cls-1{fill:none;}.cls-2{fill:#e7f3fd;}.cls-3{fill:#cde0f5;}.cls-28,.cls-4{fill:#a3c5e9;}.cls-26,.cls-4{opacity:0.5;}.cls-26,.cls-5{fill:#fff;}.cls-6{fill:#313c60;}.cls-7{fill:#4577bb;}.cls-8{fill:#3f6cac;}.cls-9{fill:#f19a5a;}.cls-10{fill:#a5daee;}.cls-11{fill:#97d0e0;}.cls-12{fill:#e38540;}.cls-13{fill:#f5dd95;}.cls-14{fill:#abcced;}.cls-15{fill:#95bae3;}.cls-16{fill:#77a0d5;}.cls-17{fill:#2f5c9b;}.cls-18{fill:#6791c9;}.cls-19{fill:#ee726a;}.cls-20{fill:#d54b41;}.cls-21{fill:#f2e5de;}.cls-22{fill:#a86b49;}.cls-23{fill:#7b4f35;}.cls-24{fill:#74b570;}.cls-25{fill:#9ecd98;}.cls-27{fill:#96bbe4;}.cls-29{fill:#f39993;}.cls-30{font-size:12.91px;fill:#1d1d1b;font-family:MyriadPro-Regular, Myriad Pro;}.cls-31{clip-path:url(#clip-path);}.cls-32{fill:#f6b6b4;}</style><clipPath id="clip-path"><path id="SVGID" class="cls-1" d="M63.11,340.87c-27.38,0-49.57,21.93-49.57,49s22.19,49,49.57,49,49.56-21.92,49.56-49S90.48,340.87,63.11,340.87Zm0,74.91a25.94,25.94,0,1,1,26.25-25.94A26.1,26.1,0,0,1,63.11,415.78Z"/></clipPath></defs><path class="cls-2" d="M136.87,335c179.68-65.9,362.3-7.64,486.15,119.26s383.79-87.59,521.64,39.11c94.08,86.46,51,308.76-78,405-175.34,130.87-828.55,134.8-936.93,89.89-185.21-76.74-1.18-218.85-87.64-355.08C-59.91,472.46,57.46,364.07,136.87,335Z"/><path class="cls-3" d="M1148.27,950.41c-89.94-4.34-395.91,3-489,5.89s-201.07-3.79-257.18-13.57-380.43.83-365.71,27.14,144.5,11.77,291.67,22.35,478.18-1.33,552.85,0,143.13-2.65,239.35-7.94S1200.4,952.93,1148.27,950.41Z"/><path class="cls-4" d="M953.2,371.28a83.9,83.9,0,0,0,.55-9.56c0-1.71-.06-3.4-.16-5.08l-16-5.12a68.8,68.8,0,0,0-5.66-18.93l10.61-12.9a85.56,85.56,0,0,0-8.41-12.06l-16,5.15a71.42,71.42,0,0,0-15.84-12l.91-16.61a86.5,86.5,0,0,0-14-4.89l-9.88,13.47a72,72,0,0,0-20-.52l-9.15-14a86.59,86.59,0,0,0-14.2,4.15l0,16.63a71.06,71.06,0,0,0-16.46,11.19l-15.7-6a86.23,86.23,0,0,0-9,11.61l9.91,13.43a69,69,0,0,0-6.68,18.61l-16.25,4.27a86.59,86.59,0,0,0-.54,9.57c0,1.71.06,3.4.16,5.08l16,5.11a68.78,68.78,0,0,0,5.67,18.94l-10.61,12.9a85.49,85.49,0,0,0,8.4,12.06l16-5.16a70.7,70.7,0,0,0,15.84,12l-.91,16.61a86.06,86.06,0,0,0,14,4.89l9.88-13.47a72,72,0,0,0,20,.52l9.15,14A86.68,86.68,0,0,0,899,441.05l0-16.64a70.92,70.92,0,0,0,16.46-11.18l15.7,6a85.36,85.36,0,0,0,9-11.61l-9.9-13.43A68.94,68.94,0,0,0,937,375.55Zm-85.68,23.85a33.41,33.41,0,1,1,33.82-33.41A33.62,33.62,0,0,1,867.52,395.13Z"/><path class="cls-5" d="M913.65,400.3a1.72,1.72,0,0,1-1.11-.4,1.7,1.7,0,0,1-.23-2.42,55.52,55.52,0,0,0,10-54,1.71,1.71,0,0,1,1.08-2.19,1.75,1.75,0,0,1,2.21,1.07A58.94,58.94,0,0,1,915,399.68,1.75,1.75,0,0,1,913.65,400.3Z"/><path class="cls-5" d="M908.75,321.44a1.74,1.74,0,0,1-1.19-.47,56.55,56.55,0,0,0-19.5-11.87,1.71,1.71,0,0,1-1-2.21,1.75,1.75,0,0,1,2.23-1,60,60,0,0,1,20.7,12.6,1.71,1.71,0,0,1,.07,2.44A1.73,1.73,0,0,1,908.75,321.44Z"/><path class="cls-5" d="M854.4,307.51a1.74,1.74,0,0,1-1.68-1.3,1.72,1.72,0,0,1,1.26-2.09,60.87,60.87,0,0,1,14.76-1.8,1.72,1.72,0,1,1,0,3.44,57.4,57.4,0,0,0-13.91,1.7A1.54,1.54,0,0,1,854.4,307.51Z"/><rect class="cls-4" x="276.48" y="278.49" width="538.89" height="319.79"/><rect class="cls-5" x="302.74" y="286.29" width="506.99" height="293.58"/><path class="cls-6" d="M735.06,438c24.16-22.72,65.45-22.2,64.58,12.4s2,37.85,12,56c34.49,63-41.12,59.27-72.66,61.34S710,511.11,715.6,478.58,728,444.66,735.06,438Z"/><path class="cls-7" d="M746.32,636.4c-7.74,64.26-21.82,111.77-23.39,142.24s-7.84,150.43-7.84,150.43,17.25-1.19,18.82-3.78,32.41-70.23,30.84-112,30.8-105.43,30.8-105.43l-7.8-62.4Z"/><path class="cls-8" d="M753.76,664.38l-12.11,5c-3.3,20.38-6.95,38.7-10.16,55,19.28,12.31,29.24,53.33,33.51,78.41,2.17-28.06,15.57-62,23.89-80.73Z"/><path class="cls-7" d="M809.7,629.92s26.11,32.9,25.29,70.23c-1.25,56.82-7.52,73,3.39,132.62,4.26,23.27-9.41,99.4-9.41,99.4s-11.67.9-18-2.19c.53-5.59-7.54-96.57-23.26-138.4-7.61-20.25-18.31-77-24.06-109.51s-6.79-39.24-4.7-39.24S809.7,629.92,809.7,629.92Z"/><path class="cls-9" d="M661,538.54s1.16-17-.69-22.28-17.89-9.85-17.89-9.85-.7,24.33.93,27.31,11.15,11.48,11.15,11.48Z"/><path class="cls-10" d="M751.09,526.14c-36.71,39-48.68,55.45-51.47,55.45C690.91,566.4,662,534.26,662,534.26l-12.34,7.84s28.51,73.6,46.63,74.36,55-25.38,55.42-28.38S751.09,526.14,751.09,526.14Z"/><path class="cls-11" d="M712.81,612.64c18-7.22,38.52-22.33,38.87-24.56.47-3-.59-61.94-.59-61.94-8,8.51-15,16.05-21.05,22.65C723.46,573,723.89,599.32,712.81,612.64Z"/><path class="cls-10" d="M788.37,500.44s35.13,17.4,42.79,48.18-15,68.83-17.8,89.13-66.91,23.87-66.91,2.14c0-20.83-16.06-65-15.15-76.31,2.12-26.43,41.22-58.8,41.22-58.8Z"/><path class="cls-9" d="M778.17,460.56l15.08,45.93s-16.1,12.28-43.66,41.81c1.07-19.65,17.74-41.07,17.74-41.07l-11.41-43.38Z"/><path class="cls-12" d="M785.2,482l-7-21.42-22.25,3.29,11.41,43.38s-1.12,1.75-2.76,4.51A52.9,52.9,0,0,0,785.2,482Z"/><path class="cls-9" d="M769.86,470.93c-4.07,14.61-19.81,22.66-31,19.62s-13.59-16-9.52-30.63,16.43-24,27.62-21S773.93,456.31,769.86,470.93Z"/><path class="cls-10" d="M743.65,619.29c4.88,30.57-13.25,96-13.25,96s10.82,2.43,43.22-.67,46.7-35.05,51.58-35.94,7.38,29.73,9.79,32.16,2.77-38.69-3.52-54.84c-11.15-28.64-9-40.79-4.8-58.15C834.08,567,743.65,619.29,743.65,619.29Z"/><path class="cls-7" d="M715.88,914c2.92,11.72-2.84,21-10.56,27.79-6.27,5.5-25.55,7.84-24.62,10.6s23.69,3.63,31.36,2.48,9.76-4.82,19.3-4.82c6.25,0,7.42-5,4.63-11.23s-3.76-9.65-1.24-15.22S715.88,914,715.88,914Z"/><path class="cls-7" d="M829.65,914c-.47,12.17-1.9,21.23,1.12,26.87,11.67,9.64,21.36,20.59,17.66,21.34-17.66,3.6-24.4-6.85-34.38-9.82-12.26-3.65,1.16-18.87-3.65-38.39-2.67-10.85,18.51-8.25,18.51-8.25Z"/><path class="cls-11" d="M834.1,665.93a56.21,56.21,0,0,0-2.63-10c-11.15-28.64-9-40.79-4.8-58.15a13.38,13.38,0,0,0,.42-3.62c.94-3.09,1.82-6.23,2.59-9.39l-3.79-33.75L798.6,519c-20.45,29.61-6.64,66.45-9.71,86.76S751.55,652,751.55,652l1.12,7.21a18.49,18.49,0,0,0,20.83,15.38c14.12-1.94,32.65-5.83,40.89-13.39C822.37,653.89,829.44,659.55,834.1,665.93Z"/><path class="cls-9" d="M759.56,650.84S744.44,655,742.63,656s-2.81,5.87-2.81,5.87-8.66,7.43-5.34,10.06,9.24,9.29,17.07,6.19c4.81-1.9,8.53-19.35,11.69-19.49S759.56,650.84,759.56,650.84Z"/><path class="cls-10" d="M802.41,515.13c16.19.45,30.87,29.26,36,54.26s10.5,60.53,10.5,60.53-26.83,20.92-53.34,27c-23.13,5.34-34.94,7.43-34.94,7.43l-4.69-13,55.34-32.11s-20.35-37.87-22.37-66.45S790.1,514.79,802.41,515.13Z"/><polygon class="cls-13" points="651.8 526 611.44 534 606.3 508.68 646.66 500.68 651.8 526"/><path class="cls-9" d="M651.24,536.48c.56-10.48-4.69-24.76-7.71-24.74s.93,9.36-.7,15.56C642,530.65,651.24,536.48,651.24,536.48Z"/><path class="cls-6" d="M732.3,443.52c.9,28.69,34.82,26.49,44.11,24.72s-11.31,60.53,6.39,64.12c13,2.64,10.07-17.44,24.51-16.1,6.39.59,12.81,10.35,12.81,10.35a19.39,19.39,0,0,0-5.84-10.35c-4.88-4.34-17.67-31-21-50s-26.13-31.37-32.87-31.75-23.23,7.2-23.23,7.2Z"/><path class="cls-6" d="M782.5,538.86a6.81,6.81,0,0,1-1.4-.15c-5.66-1.19-8.41-7.07-8.65-18.51-.19-9.81,1.45-22.39,3.18-35.71.7-5.38,1.43-10.95,2-16.34a.85.85,0,0,1,1.69.18c-.6,5.41-1.33,11-2,16.37-3.36,25.78-6.54,50.12,4.13,52.37a4.92,4.92,0,0,0,1,.1c6.13,0,11.65-11.8,14.86-23.3a.86.86,0,0,1,1.05-.58.83.83,0,0,1,.59,1C796.83,521.91,791.11,538.86,782.5,538.86Z"/><path class="cls-6" d="M780.23,545.53a6.74,6.74,0,0,1-5-2.21c-11.56-12.07-.13-72.66.37-75.23a.84.84,0,0,1,1-.67.83.83,0,0,1,.67,1c-.11.62-11.76,62.31-.79,73.77a5.09,5.09,0,0,0,4.61,1.62c6-.78,9.47-8.83,12.53-15.93,3-6.89,5.76-13.39,10.73-13.22a.84.84,0,1,1-.06,1.67h-.12c-3.73,0-6.28,5.93-9,12.21-3.23,7.51-6.9,16-13.87,16.94A9.41,9.41,0,0,1,780.23,545.53Z"/><path class="cls-9" d="M777.67,473.75c-2.39,3.05-6.14,4.13-8.37,2.42s-2.1-5.56.29-8.61,6.14-4.12,8.37-2.41S780.06,470.71,777.67,473.75Z"/><path class="cls-6" d="M514.13,580c8.28,16.36,1.43,35.2-14.86,41.86s-34.31,2.89-42.6-13.47-2.13-36,13.74-43.81S505.85,563.63,514.13,580Z"/><path class="cls-6" d="M469.5,623.81c-1.83,0-5.43-.64-10-4.65a25.21,25.21,0,0,1-7.6-14.22c-1.44-7.42-.5-16,2.79-25.35a.85.85,0,0,1,1.08-.52.84.84,0,0,1,.52,1.07c-3.19,9.12-4.11,17.36-2.72,24.48a23.48,23.48,0,0,0,7.05,13.28c5.81,5.09,9.71,4.17,9.75,4.16a.84.84,0,0,1,1,.59.82.82,0,0,1-.58,1A5,5,0,0,1,469.5,623.81Z"/><path class="cls-14" d="M494.82,643.65c9.42,2.09,21.32,28,27.15,44.54s15.84,37.45,22.36,43.9,49.38,21.38,49.38,21.38-105.9.2-103.73,0S494.82,643.65,494.82,643.65Z"/><path class="cls-15" d="M551,745.16c-5.8-.82-26.71,1.84-17.81-1.84s7.66-8.39,7.66-8.39-12.63,10.43-14.91,1.31c-2-7.87-2.71-35.64-10.17-63.48-6.15-13.8-14.21-27.61-21-29.11,0,0-.24,9.8-.63,23.55,2.6,30.41,7,75.09,8.13,86.35,14,0,37.53,0,57.18,0l13.07-.61S556.84,746,551,745.16Z"/><path class="cls-14" d="M460.17,637.92s-30,16.55-37,20.07,19.58,106.82,25.49,111.24,57.92.76,63.85-4.81-4.55-22.7.58-57-15.64-63.87-18.3-63.8-20.07-5.73-20.07-5.73Z"/><path class="cls-15" d="M448.69,769.23c5.91,4.43,43.13,4.53,59-.34,1.79-.55,9.91-3.75,10.1-6.75-1.91-.36-9.5.54-12.59-.16-10.71-2.43-16.61-15.54-16.61-15.54s-5.9-2.1-19.1-7.62-7.77-22.25-8.08-29.61-13-31.46-37-49.71l-2.19,1C420.52,677.25,443.22,765.14,448.69,769.23Z"/><path class="cls-16" d="M654.65,688.19H582.46l-32.87,69.12H629.1l29.76-62.57A4.6,4.6,0,0,0,654.65,688.19Z"/><path class="cls-8" d="M553.89,758.29H510.45a4.82,4.82,0,1,1,0-9.64h40.33l27.26-58a4.9,4.9,0,0,1,6.48-2.34,4.8,4.8,0,0,1,2.37,6.4L558.31,755.5A4.88,4.88,0,0,1,553.89,758.29Z"/><path class="cls-9" d="M478.57,743.52c18.84,3.48,23.47,7.75,33.74,9.39,11.65,1.85,10.26,4.4,1.62,4.4s-30.38.33-37.84-1.31S478.57,743.52,478.57,743.52Z"/><path class="cls-14" d="M420.85,659.92c-14.44,45.62-34.91,97.39-31.65,97.39s86.18,3.31,89.44.55,2.33-13.35,1.87-14.73-47.15-9.56-47.15-9.56,6.15-11.84,8.48-35S423.59,651.27,420.85,659.92Z"/><path class="cls-9" d="M471.15,598.28l-11.63,42s19.65,30.31,25.06,27.62-3-24.64-3-27.62S490,606.53,490,606.53Z"/><path class="cls-12" d="M482,642.42a11.13,11.13,0,0,1-.4-2.14c0-3,8.42-33.75,8.42-33.75l-18.83-8.25-3.85,13.9A72.12,72.12,0,0,0,482,642.42Z"/><path class="cls-9" d="M514.68,597.58c2.21,12.18.75,28.36-10.19,32.47s-24.13-3.76-29.45-17.57-.76-28.36,10.19-32.47S512,583,514.68,597.58Z"/><path class="cls-9" d="M477.63,604.44c1.54,4.25.2,8.61-3,9.73s-7-1.43-8.53-5.68-.2-8.62,3-9.74S476.1,600.18,477.63,604.44Z"/><path class="cls-6" d="M514.81,582.28c-3.73,28.58-38.88,24.9-38.88,24.9s-7.24-9.41-10.51-4.48,4.53-29,24.69-30C496.74,572.31,514.81,582.28,514.81,582.28Z"/><ellipse class="cls-6" cx="460.05" cy="570.2" rx="19.04" ry="17.64"/><polygon class="cls-17" points="422.14 964.96 426.49 964.96 454.6 836.3 445.02 836.3 422.14 964.96"/><polygon class="cls-17" points="557.46 964.96 553.11 964.96 520.4 831.75 529.98 831.75 557.46 964.96"/><path class="cls-17" d="M471.8,841.12c-17.44,0-28.48-3.09-35.53-9.88-8.74-8.41-10.55-21.43-10.58-38.41,0-13.36-.34-22.06-1.07-29.09a4.87,4.87,0,0,1,9.7-1c.77,7.37,1.11,16.36,1.13,30.06,0,17.2,2.24,26.33,7.63,31.52s15.52,7.51,32.4,7.1A194.31,194.31,0,0,0,512,827c11.85-2.38,20.42-4.1,30.58.69a4.8,4.8,0,0,1,2.3,6.43,4.91,4.91,0,0,1-6.51,2.27c-7.21-3.4-13.33-2.18-24.43,0a201.53,201.53,0,0,1-38.23,4.65C474.38,841.11,473.07,841.12,471.8,841.12Z"/><path class="cls-17" d="M432.19,757.86l26.69,1.1-7.11,72.8s-19.89-12.55-19.58-26S432.19,757.86,432.19,757.86Z"/><path class="cls-9" d="M563.94,764.64c22.57-3.38,30.24-2.32,44,23.08s32.2,71.12,42.77,77c15.92,8.89,21.2,30.69,27.73,29.71s10.75,1.88,3.63,7.72S663.52,913,659.59,912s-7-17.81-17.23-23.25-7.18-9.92-6.5-14.74-30-27-53-54.56c-14.11-16.85-21.37-28-22.45-38.06A26.15,26.15,0,0,1,563.94,764.64Z"/><path class="cls-12" d="M619.89,856.73c-5.24-13.14-10.5-34.82-15.44-54.7-7-28.27-14.4-35-19.06-38-5.65-1.4-12.33-.76-21.45.61a26.15,26.15,0,0,0-3.56,16.71c1.08,10.09,8.34,21.21,22.45,38.06C595,833.93,609.22,847,619.89,856.73Z"/><path class="cls-17" d="M570.81,787s-6,44.77-11.59,49.31c-4,3.26-6.84,3.48-9.63-9.87s4.35-63.18,4.35-63.18Z"/><polygon class="cls-9" points="566.03 811.21 510.45 820.44 541.83 775.99 565.71 771.19 580.03 774.44 566.03 811.21"/><path class="cls-17" d="M635.86,874c-1.8,7.18-1.59,12.48,1.54,15.14s15,22.4,15,22.4l3.69-.55-8.53-18.07Z"/><path class="cls-17" d="M659.59,912c3.93,1,15.42-3.94,22.53-9.78s2.91-8.7-3.63-7.72a2.67,2.67,0,0,1-1.09-.05c-3.27,7.21-14,12.61-17.47,5s-18.15-22.56-24.08-25.77a1.24,1.24,0,0,1,0,.33c-.68,4.82-3.76,9.29,6.5,14.74S655.67,910.92,659.59,912Z"/><path class="cls-12" d="M450.51,766.43c-19.72,35-6.25,57.18,17.72,59.44s61.79-2.06,83.84-20.16,40.16-37.25,37.63-40.1S450.51,766.43,450.51,766.43Z"/><path class="cls-9" d="M562.32,792.52c4-12,8.69-21.15,17.71-21.32,9.47-.17,15.3,4.7,15.7,20,.49,18.24,1.14,78.63.28,105.48-.64,20.33,5.35,26.84,4.85,48-.38,16,16.84,7.9,10.19,16.17-4.58,5.7-18.2,3.84-26.56,2.78-7.45-.93,3.86-23-6.46-28.9-8.85-5.06-9-13.28-3.43-19.51s.62-24.63-3.11-37.52-9.51-26.83-13.3-57.3C557.1,811.75,559.86,799.83,562.32,792.52Z"/><path class="cls-17" d="M605.15,954.38a39.38,39.38,0,0,1-9.43,1.91c-6.22.2-8.08-6.55-8.49-15.72-.36-8-6.25-20.61-12.29-25.73a4.78,4.78,0,0,1-.34.42c-5.59,6.23-5.42,14.45,3.43,19.51,10.32,5.9-1,28,6.46,28.9,8.36,1.06,22,2.92,26.56-2.78C615.37,955.52,610,955.09,605.15,954.38Z"/><path class="cls-17" d="M576,913s-9,9.35-8.23,13.24,3.63,13.7,4.09,21.27.88,16.26.88,16.26,3.26,0,3.52-.91,2.07-30.77,2.07-30.77Z"/><path class="cls-16" d="M441,763.25s-11.7,49,3.08,62.62,76.13,1.37,90.58.56c9.78-.56,19.26,11.24,19.26,11.24s-6.84-27.36-2.18-49.45,12.18-23.58,12.18-23.58l-10-1.39Z"/><path class="cls-14" d="M438.37,750.43c5,10.48-5.39,28.58-1.75,33.8s24.48.73,38.13-10.13,39.49-13.24,39.49-13.24Z"/><path class="cls-17" d="M459.52,839.77c41.31,1.54,84.79.81,84.79-5.27s-1.86-10.38-33.86-7.92-53.73,5.83-63.36,3.68S459.52,839.77,459.52,839.77Z"/><rect class="cls-17" x="313.52" y="757.31" width="591.01" height="11.11" rx="5.16"/><path class="cls-9" d="M977.36,608.41c4,13.93-5.77,28.3-16.53,31.32s-18.45-6.46-22.46-20.4,1.49-27.68,12.25-30.7S973.36,594.47,977.36,608.41Z"/><path class="cls-9" d="M917,878.51s27.59,42.34,31.32,44.18,13,2.3,9.55,9.21S953,966,949.72,967.34s-31.22,4.6-27,0,6.77-2.3,8.88-10.59,5.09-23.93,1.13-27.15-28.18-32.22-28.18-32.22Z"/><path class="cls-9" d="M778.11,896.69s-33.54,54.62-39.75,59.53-26.71,12.28-9.94,13.5,24.85-5.52,35.41-8.59,23.6-4.91,18.63-12.89-2.9-25.39,7.81-36.44S778.11,896.69,778.11,896.69Z"/><path class="cls-18" d="M949.29,770s-83-2.15-116,24.54c-19.26,28.85-65.84,113.95-69.46,123.33,2.48,2.46,16.46,6.89,22.67,6.27,18.33-21.58,42.55-40.25,52.18-57.18,11.87-20.86,15.53-31.3,34.79-33.14s62.73-8,75.78-8S949.29,770,949.29,770Z"/><polygon class="cls-17" points="1021.7 969.87 1017.35 969.87 986.14 841.21 995.71 841.21 1021.7 969.87"/><polygon class="cls-17" points="891.31 969.87 895.67 969.87 931.48 836.66 921.91 836.66 891.31 969.87"/><path class="cls-16" d="M996.6,764.42l-48.28,8.23s-64.16.58-93.48,6c-26.68,4.91-30.61,34.86,0,76.1,17.39,23.42,32.09,42.11,62.16,63.18,7.64-5.54,10.57-7.64,12.68-21-2.17-2.95-7.8-21.4-9.55-25C903.5,837.57,881.3,825.08,881,821.7c3.73-6,98.72,31.19,117.61,9.32C1016.63,810.14,996.6,764.42,996.6,764.42Z"/><path class="cls-19" d="M998.6,656.44a51,51,0,0,0-37.77,9.28C950.24,676.38,938.27,694,939,723c.93,36.82-5.77,39.18,1.22,49.31,29.15,11.89,79,63,67.26,8.21-8.5-39.66,18.64-69.22-3.26-113.21C1002.44,663.68,1000.21,660.21,998.6,656.44Z"/><path class="cls-20" d="M939,736.81c-.56,19.19-3.31,24.85-1.21,30.86,11.88,1.2,33.62,5.9,39.05,13.41,6.21,8.59,12.42,9.82,9.52,3.48s-10.56-15.34,1.25-46.23,17.39-51.76,5.79-73.24Z"/><path class="cls-9" d="M998.6,656.44c-7.83-18.32-9.75-38.89-9.75-38.89l-20.5,6s11.65,25.78.47,35a106.62,106.62,0,0,0-8,7.21A51,51,0,0,1,998.6,656.44Z"/><path class="cls-12" d="M989.47,622.43l-4.33-3.8-16.72,4.88,0,.09c.41.92,4.66,10.73,5.23,20.18,5-3,10.43-7.86,16.67-16.36C989.94,625.53,989.67,623.85,989.47,622.43Z"/><path class="cls-9" d="M984.19,662.2c-21.11,7.29-18.77,29.26-38.2,61.67-10.06,16.77-19.4,16.52-19.4,16.52a454.13,454.13,0,0,1-52.1-3.26c-17.86-2.16-19,3.1-6.57,7.49,25.05,8.85,51.05,18.37,72,16.07s56.82-55.15,58.67-68.9C1001.16,672.76,994.82,658.52,984.19,662.2Z"/><path class="cls-17" d="M973.32,846c-1.31,0-2.65,0-4,0a202.37,202.37,0,0,1-38.24-4.65c-11.1-2.23-17.22-3.45-24.43-.05a4.9,4.9,0,0,1-6.5-2.27,4.79,4.79,0,0,1,2.29-6.43c10.16-4.79,18.73-3.07,30.59-.69a194.08,194.08,0,0,0,36.53,4.46c18.35.45,29.58-2.27,35.31-8.56,5.13-5.61,6.63-15,4.75-29.44-.64-4.9-1.28-9-1.84-12.58-1.58-10.09-2.62-16.75-1.33-27,1.2-9.58,4.42-22.36,11.87-47.16a4.89,4.89,0,0,1,6.06-3.25,4.81,4.81,0,0,1,3.29,6c-13.94,46.38-13.23,50.91-10.25,70,.58,3.65,1.22,7.8,1.88,12.82,2.27,17.47,0,29.27-7.18,37.13C1004.71,842.34,992.66,846,973.32,846Z"/><path class="cls-20" d="M780.39,942.73c-22.25,10.75-34.23,16.91-41.37,16.33-1.68-.14-3.08-.31-4.25-.49-7.94,4.63-20.61,10.11-6.35,11.15,16.77,1.23,24.85-5.52,35.41-8.59s23.6-4.91,18.63-12.89A16.73,16.73,0,0,1,780.39,942.73Z"/><path class="cls-20" d="M950.75,923.59c-.55,17.41-3,34.66-13.75,37.92a18.27,18.27,0,0,1-7.76.69c-1.7,2.07-3.77,2.09-6.54,5.14-4.2,4.6,23.76,1.38,27,0s4.66-28.54,8.15-35.44C960.74,926.23,955,924.9,950.75,923.59Z"/><path class="cls-16" d="M865,758.29h-70.7a4.89,4.89,0,0,1-4.43-2.79l-28.57-60.76a4.79,4.79,0,0,1,2.37-6.4,4.9,4.9,0,0,1,6.48,2.34l27.26,58H865a4.82,4.82,0,1,1,0,9.64Z"/><path class="cls-9" d="M879.81,737.74c-14.29-.2-28.46-8.62-35.5-7.39s-30,17-27.12,17.59,21.12-8.71,21.74-8.86,4.55,6.47,14.28,8.89.07-7.2,30.24,1.8C903.06,755.62,879.81,737.74,879.81,737.74Z"/><path class="cls-21" d="M996.5,639.73l2.1,16.71s-18.49,1.08-27.69,6.2-22.77,19.89-22.77,19.89l11.09-18.87,1.6-12.07Z"/><path class="cls-21" d="M988.63,660.18c-13.73-2.54-20.08,9.62-29,29.46s-24.1,43.94-27.12,47.05-50.94,0-50.94,0-1.45,13.71,0,15.34,9.73,1.44,9.73,1.44,3.32,2.61,6.42,4.68,29.4,6,41.62,5.34,23.4-1.64,25-3.48,35-52.57,37.07-70.78S995.64,661.48,988.63,660.18Z"/><path class="cls-6" d="M948.14,576.72c-26,1.23-21.9,39.83-21.9,39.83s6.74,2.05,20.88-.25c-1.09-4.14-.63-14.73-.63-14.73a96.19,96.19,0,0,0,3.73,13.81c3,1.36,6.37.16,12.11-1.22,2.95,12.27,11.29,17.45,17,19.22,6.31,2,13,4.3,20.44.62s3.35-41.32-.6-48.89c-5.94-11.37-15.82-21.53-32.9-16.16A127.2,127.2,0,0,0,948.14,576.72Z"/><path class="cls-6" d="M993.3,622.56l10.62,15.32s-11.77,29,22.46,42.21c26.8,10.31,23.64,28.47,11.53,46.74s7.25,34.21,7.25,34.21,2.95-20.23,29-24c35.51-5.21,45.57-52.31,19-75.86-21.94-19.49-28.62-3.35-43.48-20.84s-42.9-5.68-42.9-5.68L996.53,619.8Z"/><path class="cls-6" d="M1105.41,708.48a.86.86,0,0,1-.41-.1.83.83,0,0,1-.33-1.14c8.95-16.16,1.64-35.74-2-41-.39-.56-.76-1.13-1.15-1.73-3.61-5.57-8.1-12.5-32-16.76-5.74-1-10.39-4.39-15.32-8-10.21-7.41-21.8-15.81-47-4.37A.84.84,0,0,1,1006,635a.83.83,0,0,1,.41-1.11c26.07-11.85,38.08-3.14,48.68,4.54,4.76,3.46,9.26,6.72,14.61,7.67,24.68,4.39,29.4,11.66,33.18,17.5.39.59.75,1.15,1.12,1.69,2.21,3.2,5,9.82,6.07,17.4,1,6.58,1.07,16.32-3.95,25.4A.88.88,0,0,1,1105.41,708.48Z"/><path class="cls-6" d="M987.63,638.17a37.92,37.92,0,0,1-5.5-.44c-9-1.34-21.2-6.43-22.15-35a.84.84,0,0,1,.82-.87.83.83,0,0,1,.87.81c.4,11.83,2.78,20.59,7.07,26,3.27,4.14,7.6,6.49,13.64,7.38,8.45,1.25,14.06-.3,16.66-4.6a.85.85,0,0,1,1.16-.29.83.83,0,0,1,.3,1.15C998.15,636.21,993.83,638.17,987.63,638.17Z"/><path class="cls-11" d="M177.09,658.45c-30.14,17-72.07,87.81-63.22,99.37S170.24,739,170.24,739Z"/><path class="cls-6" d="M233.41,576.35c-11.51-.3-7.24-8.76-20.48-5.38-7,1.77-1.82,4.6-10.86,3.68s-13.49-1.84-14.63,4-1.69,7.67-6,8.59-6.31,8.59,0,13.81,3.25,7.36,1.85,11.66,3.37,4.6,5.95,8.59-2.38,4.75,1.35,8.2a13.33,13.33,0,0,0,8.95,3.16l15.69-29.73Z"/><path class="cls-17" d="M467.92,933.1s16.77.46,29.82-4.6,21.89-12.89,19.56-3.69-13,25-22.36,26.54S482.36,963,477.24,963s-12.58-11.67-25.62-17.5C439.73,940.21,467.92,933.1,467.92,933.1Z"/><path class="cls-17" d="M335.76,931.55a64.16,64.16,0,0,0,19.32,16.29c12.68,6.9,27.31,10.23,18.24,13.35S351,966.74,338.06,963c-9.08-2.61-19.71-3.15-22.52-7.38s3.31-14.87.76-30.77C314.26,912.15,335.76,931.55,335.76,931.55Z"/><path class="cls-8" d="M257.22,777.08s97.15,35.94,105,46,110,101.57,110,108.32-17.39,19-17.39,19-87.59-53.08-109.33-80.08-74.8-40-103-42.53S257.22,777.08,257.22,777.08Z"/><path class="cls-7" d="M261,777.08s66.47-2.45,80.75,0,45.63,2.43,25.13,59.58c-16.07,44.8-21.37,101.52-21.37,101.52l-31.94,7.75S314.78,844,330,816.79a520,520,0,0,0-59.72,13.31c-52.38,14.8-81.11,7.39-81.11,7.39l-7.8-27Z"/><polygon class="cls-22" points="205.44 607.54 189.2 654.95 209.72 668.29 221.35 627.33 205.44 607.54"/><path class="cls-23" d="M211.56,661.83l9.79-34.5-15.91-19.79-5.94,17.34C201.55,640.54,206.51,653.5,211.56,661.83Z"/><path class="cls-22" d="M246.87,615.57c.53,14.41-6.64,26.89-18,28s-21.79-9.63-23.22-24,6.64-26.89,18-28S246,592.81,246.87,615.57Z"/><path class="cls-10" d="M181.4,653.57c-49.85,33.26-18.84,87-7.89,126.28,9.32,33.46,9,53.68,10.41,53.68s35.69-5.07,55.25-22.56A296.93,296.93,0,0,0,272,776.54s-25.06-4.41-33.25-36.45c-4.16-16.26-2.27-25.09-11.75-50.87S181.4,653.57,181.4,653.57Z"/><path class="cls-10" d="M181.4,653.57l5.34-12.91s16.93,11.05,23.69,16.26,10.92,6.45,10.92,6.45,2.44,18.5.85,16.82C202.22,659,181.4,653.57,181.4,653.57Z"/><polygon class="cls-17" points="159.31 969.87 163.66 969.87 194.88 841.21 185.3 841.21 159.31 969.87"/><polygon class="cls-17" points="289.7 969.87 285.35 969.87 249.53 836.66 259.11 836.66 289.7 969.87"/><path class="cls-17" d="M207.8,846c-17.44,0-28.48-3.09-35.53-9.88-8.74-8.41-10.55-21.43-10.58-38.41-.05-35.68-2.05-43.06-12.22-64.85a4.79,4.79,0,0,1,2.39-6.39,4.89,4.89,0,0,1,6.47,2.36c10.75,23,13.06,31.49,13.12,68.87,0,17.2,2.24,26.33,7.63,31.52s15.52,7.51,32.4,7.1A194.31,194.31,0,0,0,248,831.89c11.85-2.38,20.42-4.1,30.58.69a4.8,4.8,0,0,1,2.3,6.43,4.91,4.91,0,0,1-6.51,2.27c-7.21-3.4-13.33-2.18-24.43.05A202.36,202.36,0,0,1,211.72,846C210.38,846,209.07,846,207.8,846Z"/><path class="cls-8" d="M423.2,757.73H352.49a4.82,4.82,0,1,1,0-9.64h67.59l27.27-58a4.91,4.91,0,0,1,6.48-2.34,4.79,4.79,0,0,1,2.36,6.4l-28.57,60.76A4.89,4.89,0,0,1,423.2,757.73Z"/><path class="cls-11" d="M183.25,702s12.42,37.44,27.8,52.94,46.31,20.7,56,20.09c-7.72-3.07-22.43-11.8-28.34-34.93-4.16-16.26-2.27-25.09-11.75-50.87-7-19.13-28.73-29.5-39.44-33.58,13.37,9.49,30.08,25.11,35.22,37C228.44,705.83,183.25,702,183.25,702Z"/><path class="cls-22" d="M354.72,734.85s21.43-9.67,23.76-8.75,26.09,15.1,26.09,17.45-21-8.76-21-8.76,2.33,6.14.93,9.08-17.51,3-32.05,2S354.72,734.85,354.72,734.85Z"/><path class="cls-10" d="M183.94,673.07c-19.76,40,48,80.55,88.2,84.16s88-9.4,88-9.4l-5.39-13S274.18,724.46,272.14,723,191.17,658.42,183.94,673.07Z"/><path class="cls-22" d="M209.62,608.89c1.83,4.76.49,9.68-3,11s-7.8-1.49-9.63-6.25-.49-9.67,3-11S207.79,604.13,209.62,608.89Z"/><path class="cls-6" d="M246.9,578.43c5.46-2.25,11.6-4.66,9.7,4.51-.83,4,0,2.86,1.45,6.54s-3.65,6.58-5.31,8.62,2.41,4.27-.9,6.72-7.68-.91-10.77,0c-9.21,2.72-8.07-4.44-13.25-5.93s-7.71-1.26-8.7,2,3.63,14-.31,13-4.82,7.67-5.88,12.58-3.75-3.39-3.58-9c.27-8.61-1.9-12.23-5.11-14.64s-4.58-24.32,10.95-25.14,15.63-2.3,22.26-3.68S244.41,579.46,246.9,578.43Z"/><path class="cls-24" d="M1117.54,828.68c9.9,8.94,5.6,17.87-1.72,34.46s-8.61,77.83-8.61,77.83l6-.85s-.86-63,7.32-80,11.62-25.52,18.94-20S1117.54,828.68,1117.54,828.68Z"/><path class="cls-25" d="M1112.1,817.12c1.21-5.29,8.35-11,17.9-15.88-1.42,7.81-6,20.57-1.26,23.19,6.35,3.53.61-14.29,3.07-24.09a119.18,119.18,0,0,1,29.68-9.62.49.49,0,0,1,0,.11c-5.59,14-12.91,19.56-9.9,21.69,2.27,1.6,9.65-14.61,19.41-22.92,7.32-.39,13.51.59,17.17,3.46,5.66,4.42,9.46,8.35,3.77,21.84a25.81,25.81,0,0,1-12.36,4.43c-12.92,1.27-19,1.7-9.91,5.95,4.43,2.08,11.85-.12,17.87-1.46-2,3.56-4.35,7.58-7.27,12.16a45.2,45.2,0,0,1-6,7.61c-4.16.78-7.79.79-9.71,0-6-2.55-21.53-10.63-25.4-7.23s28.7,5.44,26.45,13.9c-15.75,9-33.78,4.7-37-3.53C1124.28,835.65,1108.48,833.05,1112.1,817.12Z"/><path class="cls-24" d="M1144.66,877.6c-17.22-12.76-34.87-.85-43.91,12.76s-2.58,44.23-2.58,44.23,3.44,0,3.44-1.27-9.47-36.16,12.92-51.9c14-9.84,24.11-5.1,25.4-.42s-5.6,13.18-5.6,13.18Z"/><path class="cls-25" d="M1105.06,851.37c17.22,0,22.81,26.37,18.08,41.68S1112,936.86,1112,936.86l-4.31-4.25s16.36-40,12.49-57.85-13.35-20.84-15.07-20.84S1105.06,851.37,1105.06,851.37Z"/><path class="cls-24" d="M1119.5,893.17a12.32,12.32,0,0,1,4.53-3.76,33.38,33.38,0,0,1-.89,3.64c-2.16,7-4.67,16.69-6.77,25.2-.19-1.09-.49-2.77-.94-5.36-.11-.61-.19-1.28-.25-2A164.45,164.45,0,0,0,1119.5,893.17Z"/><path class="cls-25" d="M1124.21,893.3c32.72-13.61,15.48-32.29,44.32-20,2,.87,4.51,3.06,7,6.08a21.76,21.76,0,0,1-9.14.73c-8.61-1.28-5.6,5.53,8.61,7.23a31.91,31.91,0,0,1,6.66,1.39c6.77,12.84,9.82,29.74-4.51,35.61a32.76,32.76,0,0,1-10.19,2.07c-4.42-3.47,1.08-23.55-5.73-20.78-6.55,2.66,2,17.21.87,20.88a95.21,95.21,0,0,1-20.44-2.83c-2.7-1.5-4.77-3.5-5.4-6.14-2.16-8.93,12-14.46,12.48-22.12.4-7-5.21,15.49-20,18.8C1115.26,908.07,1108.91,899.66,1124.21,893.3Z"/><path class="cls-25" d="M1100.9,869.23c3.44-7.23-5.6-8.93-5.17-3.4.38,4.9.42,16.81-4.66,20a80.55,80.55,0,0,1-29.73-9.75,3.63,3.63,0,0,1,.38-2.22c3.87-7.66,28.84-14,21.09-16.59-6.17-2-17,10-25.7,16-5.23-3.92-8.74-8.6-8.74-13.82,0-7.07,8.69-15.07,19.93-18.89,5.06.5,9.76,3.24,17.1,7.34,10.84,6.07,8.33-3.74-1.92-9.56a31,31,0,0,1,24.18,13.11s-.62,3.81,3.47,9.71c11.15,16.1-1.72,25.5-17.1,24.88C1094.9,881.86,1098.52,874.23,1100.9,869.23Z"/><path class="cls-24" d="M1143.63,876.88c8.42,6.42,17.77,13.94,29.25,19s9.19,21.74,9.19,21.74,1.72-14.37-7.85-19.28-15.88-10.78-23.15-11.91a104.88,104.88,0,0,1-11.29-2.27s2.29-4.54,1-6.24S1143.63,876.88,1143.63,876.88Z"/><path class="cls-24" d="M1185.13,801.4c-30.81,8.13-53.39,27.6-57.6,32.33s-4.21,6-4.21,6l3.25,6,1.54-.75s-2.49-5.11,4-11.72c11.22-11.41,24.88-20.42,34.25-24.39S1185.13,801.4,1185.13,801.4Z"/><path class="cls-16" d="M1104.26,928.18h3.44A19.32,19.32,0,0,1,1127,947.5v22.37a0,0,0,0,1,0,0h-42.08a0,0,0,0,1,0,0V947.5A19.32,19.32,0,0,1,1104.26,928.18Z" transform="translate(2211.95 1898.05) rotate(-180)"/><rect class="cls-5" x="1084.94" y="932.96" width="42.08" height="2.93"/><rect class="cls-5" x="1084.94" y="938.29" width="42.08" height="1.72"/><path class="cls-13" d="M600.91,370.27c0-31.51-25.65-57.1-57.44-57.5-31.94-.4-58.45,25-59,56.56a56.89,56.89,0,0,0,15.39,39.9,25.91,25.91,0,0,1,7,17.69v25.77A30.58,30.58,0,0,0,537.59,483h10.23a30.59,30.59,0,0,0,30.69-30.32V426.92a26.19,26.19,0,0,1,7.1-17.8A56.92,56.92,0,0,0,600.91,370.27Z"/><path class="cls-26" d="M592.78,374.12c0-27.1-22.07-49.11-49.42-49.46s-50.28,21.51-50.71,48.66a48.93,48.93,0,0,0,13.24,34.33,22.27,22.27,0,0,1,6,15.21V445a26.32,26.32,0,0,0,26.4,26.09h8.8A26.32,26.32,0,0,0,573.51,445V422.86a22.53,22.53,0,0,1,6.11-15.31A49,49,0,0,0,592.78,374.12Z"/><path class="cls-27" d="M551.31,437.25H532.14a1.73,1.73,0,0,1-1.73-1.56c0-.37-3.61-36.92-20.16-47.16a1.71,1.71,0,0,1-.55-2.37,1.76,1.76,0,0,1,2.4-.55c16.14,10,20.73,40.79,21.61,48.2h15.76A55.54,55.54,0,0,1,551,420c2-8.49,6.84-21.3,18.74-34.1a1.76,1.76,0,0,1,2.46-.11,1.72,1.72,0,0,1,.11,2.44C550.6,411.63,553,435.1,553,435.34a1.71,1.71,0,0,1-.43,1.34A1.76,1.76,0,0,1,551.31,437.25Z"/><path class="cls-27" d="M565.66,390.88c-6.47,0-15.29-4.54-24.59-9.46-12,6.31-23.2,12-29.48,8.22-2.94-1.77-4.35-5.22-4.31-10.57.05-5,1.51-8.42,4.34-10.08,6.29-3.67,17.52,2.19,29.46,8.53,12.18-6.42,23.64-12.39,29.91-8.63,2.81,1.69,4.2,5.13,4.13,10.22-.06,5.3-1.61,8.86-4.58,10.59A9.54,9.54,0,0,1,565.66,390.88Zm-20.88-11.41c9.57,5,19.58,9.84,24,7.26,1.84-1.07,2.81-3.65,2.86-7.66.05-3.79-.78-6.22-2.47-7.24C564.9,369.26,554.53,374.36,544.78,379.47Zm-28.45-8.19a5.67,5.67,0,0,0-2.93.68c-1.71,1-2.6,3.4-2.63,7.14,0,4,.85,6.53,2.63,7.6,4.3,2.57,14.34-2.22,24-7.24C529.59,375.36,521.41,371.28,516.33,371.28Z"/><rect class="cls-27" x="530.58" y="476.04" width="25.44" height="15.15" rx="7.04"/><path class="cls-27" d="M505.21,434.15v18.24c0,17.46,14.47,31.75,32.14,31.75h10.72a32,32,0,0,0,32.13-31.75V434.15Z"/><rect class="cls-28" x="502.29" y="431.17" width="81.77" height="8.72" rx="4.05"/><path class="cls-28" d="M580.15,446.43l-72.86,8.89a4.18,4.18,0,0,1-4.66-3.59l-.06-.46a4.15,4.15,0,0,1,3.64-4.6l72.86-8.9a4.19,4.19,0,0,1,4.66,3.6l.06.45A4.16,4.16,0,0,1,580.15,446.43Z"/><path class="cls-28" d="M580.15,459l-72.86,8.89a4.18,4.18,0,0,1-4.66-3.59l-.06-.46a4.16,4.16,0,0,1,3.64-4.61l72.86-8.89a4.18,4.18,0,0,1,4.66,3.6l.06.45A4.16,4.16,0,0,1,580.15,459Z"/><path class="cls-28" d="M575.65,472.51,515,479.91a3.83,3.83,0,0,1-4.28-3.29l-.14-1.13a3.82,3.82,0,0,1,3.34-4.23l60.68-7.41a3.84,3.84,0,0,1,4.28,3.3l.14,1.13A3.81,3.81,0,0,1,575.65,472.51Z"/><path class="cls-28" d="M1101,488.85h39.11c0,21.2-17.66,38.64-39.11,38.64s-39.11-17.44-39.11-38.64,17.65-38.64,39.11-38.64Z"/><path class="cls-29" d="M1146.68,483.44a38.88,38.88,0,0,0-39.11-38.64v38.64Z"/><path class="cls-29" d="M1068.46,483.44a38.88,38.88,0,0,0,39.11,38.64C1086.11,522.08,1068.46,504.64,1068.46,483.44Z"/><path class="cls-29" d="M1107.57,444.8a38.88,38.88,0,0,0-39.11,38.64C1068.46,462.24,1086.11,444.8,1107.57,444.8Z"/><path class="cls-29" d="M1107.57,522.08a38.88,38.88,0,0,0,39.11-38.64C1146.68,504.64,1129,522.08,1107.57,522.08Z"/><rect class="cls-28" x="335.57" y="463.29" width="8.54" height="24.42"/><rect class="cls-28" x="445.05" y="471.24" width="8.54" height="16.47"/><rect class="cls-28" x="371.77" y="430.58" width="8.54" height="57.13"/><rect class="cls-28" x="389.87" y="462.03" width="8.54" height="25.68"/><rect class="cls-28" x="407.97" y="454.76" width="8.54" height="32.95"/><rect class="cls-28" x="353.67" y="447.17" width="8.54" height="40.54"/><text class="cls-30" transform="translate(426.13 446.94) scale(1.01 1)">L<tspan x="0" y="15.49">o</tspan><tspan x="0" y="30.99">r</tspan></text><g class="cls-31"><path class="cls-10" d="M107.9,416.91,63.11,389.84,55,441.1A52.8,52.8,0,0,0,107.9,416.91Z"/><path class="cls-25" d="M108,416.84l.27-.45a51.35,51.35,0,0,0,1.17-51.07c-15.86,8.21-6.42,3.22-46.28,24.52C108,417,101,412.77,108,416.84Z"/><path class="cls-28" d="M13.86,371.91l49.25,17.93,46.19-24.68C87.69,325.68,29.53,330.42,13.86,371.91Z"/><path class="cls-29" d="M55,441.1l8.11-51.26L13.86,371.91C2.15,402.93,22.94,436.1,55,441.1Z"/><path class="cls-5" d="M10.64,380.4a5,5,0,0,1,2.49.64,48.4,48.4,0,0,1,1.79-6.91l26.74,9.74v0a4.67,4.67,0,0,1,1.17-3.22l-2.68-1-24-8.74a50.42,50.42,0,0,1,7.74-12.85,5.21,5.21,0,0,1-2.67-2.22,54,54,0,0,0-8.33,13.88h0l-.61,1.6-.61,1.62h0a51.86,51.86,0,0,0-2,7.56A5,5,0,0,1,10.64,380.4Z"/><path class="cls-2" d="M111.63,365.87h0l-.83-1.52a.41.41,0,0,0,0-.09L110.1,363h0a53.31,53.31,0,0,0-21.65-20.74,55.6,55.6,0,0,0-60.17,6.49,5.33,5.33,0,0,1,2.22,2.66,51.19,51.19,0,0,1,29.33-11.56,50.14,50.14,0,0,1,47.11,24.61l-13.65,7.29L79.93,378.9l-16.35,8.73-.42.23L61.79,387l-.08.47-9.6-3.5a4.68,4.68,0,0,1-1.29,3.2L61.17,391,53.56,439.1a50.81,50.81,0,0,1-34.31-24.16,49.29,49.29,0,0,1-6.92-24.52,4.86,4.86,0,0,1-1.69.31,5.22,5.22,0,0,1-1.79-.32,52.75,52.75,0,0,0,7.39,26.27A54.29,54.29,0,0,0,53,442.5v0l1.72.27,1.73.27v0a55.62,55.62,0,0,0,6.69.41,54.57,54.57,0,0,0,45.36-24.28l0,0,.34-.55s.56-.9.56-.9.19-.31.24-.41l0-.06,0,0,.55-.89,0,0A53.22,53.22,0,0,0,111.63,365.87ZM57,439.64l7.43-47,19.32,11.68,15.06,9.09,6.67,4A50.8,50.8,0,0,1,57,439.64Zm50.33-25.16-.33-.19c-1.83-1.07-2.62-1.54-6.27-3.74L66.6,389.93,94.93,374.8c4.16-2.21,5.87-3.1,10.09-5.28l3.62-1.87A49.83,49.83,0,0,1,107.33,414.48Z"/></g><rect class="cls-28" x="203.06" y="332.29" width="150.16" height="67.04" rx="8.17"/><rect class="cls-5" x="207.17" y="349.9" width="141.94" height="46.28" rx="6.6"/><rect class="cls-5" x="209.25" y="337.22" width="5.88" height="5.23" rx="2.43"/><rect class="cls-5" x="219.95" y="337.22" width="5.88" height="5.23" rx="2.43"/><rect class="cls-5" x="230.64" y="337.22" width="5.88" height="5.23" rx="2.43"/><path class="cls-28" d="M343.34,360H268.26a2.22,2.22,0,1,1,0-4.43h75.08a2.22,2.22,0,1,1,0,4.43Z"/><path class="cls-28" d="M286.87,394.28H211.78a2.22,2.22,0,1,1,0-4.44h75.09a2.22,2.22,0,1,1,0,4.44Z"/><rect class="cls-28" x="292.16" y="389.84" width="9.3" height="4.44" rx="2.06"/><rect class="cls-28" x="303.87" y="389.84" width="9.3" height="4.44" rx="2.06"/><path class="cls-28" d="M344.06,369.71H219.73a1.51,1.51,0,1,1,0-3H344.06a1.51,1.51,0,1,1,0,3Z"/><path class="cls-28" d="M344.06,376.21H219.73a1.51,1.51,0,1,1,0-3H344.06a1.51,1.51,0,1,1,0,3Z"/><path class="cls-32" d="M719.16,356.64H655V319.72h48.22l15.9,15.7Z"/><polygon class="cls-29" points="702.08 319.72 702.08 339.42 719.16 339.42 719.16 335.64 703.15 319.82 702.08 319.72"/><polygon class="cls-32" points="703.26 319.72 703.26 335.64 719.16 335.64 703.26 319.72"/><path class="cls-5" d="M690.84,333.57H662.27a1.12,1.12,0,1,1,0-2.24h28.57a1.12,1.12,0,1,1,0,2.24Z"/><path class="cls-5" d="M690.84,339.3H662.27a1.12,1.12,0,1,1,0-2.24h28.57a1.12,1.12,0,1,1,0,2.24Z"/><path class="cls-5" d="M690.84,345.32H662.27a1.12,1.12,0,1,1,0-2.24h28.57a1.12,1.12,0,1,1,0,2.24Z"/><ellipse class="cls-8" cx="685.18" cy="322.55" rx="1.92" ry="1.89"/><path class="cls-28" d="M435,342.13l-21.22-4.05a1,1,0,1,1,.4-2l21.21,4.05a1,1,0,0,1,.83,1.21A1.05,1.05,0,0,1,435,342.13Z"/><path class="cls-28" d="M434,347.37l-21.21-4.05a1,1,0,1,1,.4-2l21.21,4a1,1,0,0,1,.83,1.21A1.06,1.06,0,0,1,434,347.37Z"/><path class="cls-28" d="M432.91,352.75,411.7,348.7a1,1,0,0,1-.83-1.21,1,1,0,0,1,1.22-.82l21.22,4.05a1,1,0,1,1-.4,2Z"/><path class="cls-8" d="M420.63,320.28a1.75,1.75,0,0,1-2,1.36,1.71,1.71,0,0,1-1.38-2,1.74,1.74,0,0,1,3.42.66Z"/><path class="cls-28" d="M748.75,408.3l-61.92-6.45,4.08-38.34,49.1,5.11,11.48,14Z"/><polygon class="cls-5" points="739.13 371.35 693.04 366.56 689.59 398.91 746.89 404.87 748.91 385.93 737.7 384.76 739.13 371.35"/><path class="cls-28" d="M732.89,383.11,703,380a1.23,1.23,0,0,1-1.11-1.36,1.25,1.25,0,0,1,1.37-1.1l29.86,3.11a1.24,1.24,0,1,1-.26,2.46Z"/><path class="cls-28" d="M732.19,389.61l-29.85-3.11a1.24,1.24,0,1,1,.26-2.46l29.85,3.11a1.24,1.24,0,0,1,1.12,1.36A1.26,1.26,0,0,1,732.19,389.61Z"/><path class="cls-28" d="M731.47,396.39l-29.86-3.1a1.24,1.24,0,1,1,.26-2.46l29.86,3.11a1.23,1.23,0,0,1,1.11,1.35A1.25,1.25,0,0,1,731.47,396.39Z"/><ellipse class="cls-8" cx="714.09" cy="372.36" rx="1.92" ry="1.89"/><path class="cls-25" d="M1056.41,342.45A21.38,21.38,0,1,1,1035,321.33,21.25,21.25,0,0,1,1056.41,342.45Z"/><path class="cls-5" d="M1032.91,349.68h0a1.06,1.06,0,0,1-.74-.35l-5.81-6.52a1,1,0,0,1,.09-1.46,1.06,1.06,0,0,1,1.48.09l5.08,5.71,11.62-11.24a1,1,0,0,1,1.47,0,1,1,0,0,1,0,1.46l-12.41,12A1,1,0,0,1,1032.91,349.68Z"/><rect class="cls-28" x="66.06" y="483.66" width="134.74" height="54.86" rx="16.48" transform="translate(266.86 1022.18) rotate(180)"/><path class="cls-28" d="M184.53,530.24v30.27l-35.3-34.88S183.81,530.24,184.53,530.24Z"/><rect class="cls-5" x="73.03" y="489.1" width="120.8" height="43.98" rx="13.97" transform="translate(266.86 1022.18) rotate(180)"/><path class="cls-28" d="M128.05,500h54.56a2.36,2.36,0,1,0,0-4.72H128.05a2.36,2.36,0,1,0,0,4.72Z"/><rect class="cls-28" x="81.14" y="506.36" width="103.87" height="2.66" rx="1.23" transform="translate(266.14 1015.37) rotate(-180)"/><rect class="cls-28" x="81.14" y="511.51" width="103.87" height="2.66" rx="1.23" transform="translate(266.14 1025.67) rotate(180)"/><rect class="cls-28" x="980.92" y="490.05" width="11.4" height="10.14" rx="4.71" transform="translate(1973.23 990.24) rotate(180)"/><rect class="cls-28" x="960.19" y="490.05" width="11.4" height="10.14" rx="4.71" transform="translate(1931.78 990.24) rotate(-180)"/><rect class="cls-28" x="939.46" y="490.05" width="11.4" height="10.14" rx="4.71" transform="translate(1890.32 990.24) rotate(180)"/></svg>