<svg xmlns="http://www.w3.org/2000/svg" xmlns:xlink="http://www.w3.org/1999/xlink" viewBox="0 0 1920 1080"><defs><style>.cls-1{isolation:isolate;}.cls-2{fill:#7d81bd;mix-blend-mode:lighten;}.cls-10,.cls-11,.cls-12,.cls-13,.cls-14,.cls-15,.cls-16,.cls-23,.cls-24,.cls-3,.cls-31,.cls-4,.cls-46,.cls-5{opacity:0.5;}.cls-3{fill:url(#Áåçûìÿííûé_ãðàäèåíò_209);}.cls-4{fill:url(#Áåçûìÿííûé_ãðàäèåíò_254);}.cls-5{fill:url(#Áåçûìÿííûé_ãðàäèåíò_209-2);}.cls-6{fill:url(#Áåçûìÿííûé_ãðàäèåíò_18);}.cls-7{fill:#bcbcdf;}.cls-8{fill:#fff;}.cls-9{fill:#202045;}.cls-10{fill:url(#Áåçûìÿííûé_ãðàäèåíò_254-2);}.cls-11{fill:url(#Áåçûìÿííûé_ãðàäèåíò_254-3);}.cls-12{fill:url(#Áåçûìÿííûé_ãðàäèåíò_254-4);}.cls-13{fill:url(#Áåçûìÿííûé_ãðàäèåíò_254-5);}.cls-14,.cls-17,.cls-25,.cls-33,.cls-34,.cls-35,.cls-36{fill:#6dc4cb;}.cls-15{fill:url(#Áåçûìÿííûé_ãðàäèåíò_254-6);}.cls-16{fill:url(#Áåçûìÿííûé_ãðàäèåíò_254-7);}.cls-17{opacity:0.8;}.cls-18,.cls-41{opacity:0.11;}.cls-19{fill:url(#Áåçûìÿííûé_ãðàäèåíò_209-3);}.cls-20{fill:url(#Áåçûìÿííûé_ãðàäèåíò_209-4);}.cls-21{fill:url(#Áåçûìÿííûé_ãðàäèåíò_209-5);}.cls-22{fill:url(#Áåçûìÿííûé_ãðàäèåíò_209-6);}.cls-23{fill:url(#Áåçûìÿííûé_ãðàäèåíò_209-7);}.cls-26{fill:url(#Áåçûìÿííûé_ãðàäèåíò_209-9);}.cls-27{fill:url(#Áåçûìÿííûé_ãðàäèåíò_209-10);}.cls-28{fill:url(#Áåçûìÿííûé_ãðàäèåíò_209-11);}.cls-29{fill:url(#Áåçûìÿííûé_ãðàäèåíò_209-12);}.cls-30{fill:url(#Áåçûìÿííûé_ãðàäèåíò_209-13);}.cls-31{fill:url(#Áåçûìÿííûé_ãðàäèåíò_209-14);}.cls-32{fill:url(#Áåçûìÿííûé_ãðàäèåíò_209-16);}.cls-33{opacity:0.5;}.cls-34{opacity:0.75;}.cls-35{opacity:0.88;}.cls-36{opacity:0.97;}.cls-37{fill:url(#Áåçûìÿííûé_ãðàäèåíò_209-17);}.cls-38{fill:url(#Áåçûìÿííûé_ãðàäèåíò_209-18);}.cls-39{fill:url(#Áåçûìÿííûé_ãðàäèåíò_209-19);}.cls-40{fill:url(#Áåçûìÿííûé_ãðàäèåíò_209-20);}.cls-41{fill:url(#Áåçûìÿííûé_ãðàäèåíò_209-21);}.cls-42{fill:url(#Áåçûìÿííûé_ãðàäèåíò_209-22);}.cls-43{fill:url(#Áåçûìÿííûé_ãðàäèåíò_209-23);}.cls-44{fill:url(#Áåçûìÿííûé_ãðàäèåíò_209-24);}.cls-45{fill:url(#Áåçûìÿííûé_ãðàäèåíò_209-25);}.cls-46{fill:url(#Áåçûìÿííûé_ãðàäèåíò_209-26);}.cls-47{fill:url(#Áåçûìÿííûé_ãðàäèåíò_209-28);}.cls-48{fill:#262554;opacity:0.2;}.cls-49{fill:#252553;}.cls-50{fill:#2c2661;}.cls-51{fill:#464193;}.cls-52{fill:url(#Áåçûìÿííûé_ãðàäèåíò_209-29);}.cls-53{fill:url(#Áåçûìÿííûé_ãðàäèåíò_209-30);}.cls-54{fill:#f0f6fd;}.cls-55{fill:#fad1c6;}.cls-56{fill:#494999;}.cls-57{fill:#aa8383;}.cls-58{fill:#c5cdd7;}.cls-59{fill:#e2b2a6;}.cls-60{fill:url(#Áåçûìÿííûé_ãðàäèåíò_209-31);}.cls-61{fill:#936e6d;}</style><linearGradient id="Áåçûìÿííûé_ãðàäèåíò_209" x1="702.1" y1="662.01" x2="843.13" y2="662.01" gradientUnits="userSpaceOnUse"><stop offset="0" stop-color="#515da7"/><stop offset="0.16" stop-color="#5878b0"/><stop offset="0.39" stop-color="#6199bc"/><stop offset="0.62" stop-color="#68b1c4"/><stop offset="0.82" stop-color="#6cbfc9"/><stop offset="1" stop-color="#6dc4cb"/></linearGradient><linearGradient id="Áåçûìÿííûé_ãðàäèåíò_254" x1="1077.63" y1="661.79" x2="1217.89" y2="661.79" gradientUnits="userSpaceOnUse"><stop offset="0" stop-color="#6dc4cb"/><stop offset="0.18" stop-color="#6cbfc9"/><stop offset="0.38" stop-color="#68b1c4"/><stop offset="0.61" stop-color="#6199bc"/><stop offset="0.84" stop-color="#5878b0"/><stop offset="1" stop-color="#515da7"/></linearGradient><linearGradient id="Áåçûìÿííûé_ãðàäèåíò_209-2" x1="694.96" y1="893.19" x2="1223.33" y2="893.19" xlink:href="#Áåçûìÿííûé_ãðàäèåíò_209"/><linearGradient id="Áåçûìÿííûé_ãðàäèåíò_18" x1="613.75" y1="542.1" x2="1206.83" y2="542.1" gradientUnits="userSpaceOnUse"><stop offset="0" stop-color="#515da7"/><stop offset="0.16" stop-color="#5863ab"/><stop offset="0.39" stop-color="#6c75b5"/><stop offset="0.67" stop-color="#8c91c6"/><stop offset="0.97" stop-color="#b8b8dd"/><stop offset="1" stop-color="#bcbcdf"/></linearGradient><linearGradient id="Áåçûìÿííûé_ãðàäèåíò_254-2" x1="781.59" y1="461.96" x2="1137.58" y2="461.96" xlink:href="#Áåçûìÿííûé_ãðàäèåíò_254"/><linearGradient id="Áåçûìÿííûé_ãðàäèåíò_254-3" x1="959.58" y1="397.62" x2="1137.58" y2="397.62" xlink:href="#Áåçûìÿííûé_ãðàäèåíò_254"/><linearGradient id="Áåçûìÿííûé_ãðàäèåíò_254-4" x1="781.59" y1="397.62" x2="959.59" y2="397.62" xlink:href="#Áåçûìÿííûé_ãðàäèåíò_254"/><linearGradient id="Áåçûìÿííûé_ãðàäèåíò_254-5" x1="781.59" y1="436.04" x2="1137.58" y2="436.04" xlink:href="#Áåçûìÿííûé_ãðàäèåíò_254"/><linearGradient id="Áåçûìÿííûé_ãðàäèåíò_254-6" x1="959.59" y1="500.38" x2="1137.58" y2="500.38" xlink:href="#Áåçûìÿííûé_ãðàäèåíò_254"/><linearGradient id="Áåçûìÿííûé_ãðàäèåíò_254-7" x1="781.59" y1="500.38" x2="959.59" y2="500.38" xlink:href="#Áåçûìÿííûé_ãðàäèåíò_254"/><linearGradient id="Áåçûìÿííûé_ãðàäèåíò_209-3" x1="405.52" y1="759.15" x2="798.59" y2="759.15" xlink:href="#Áåçûìÿííûé_ãðàäèåíò_209"/><linearGradient id="Áåçûìÿííûé_ãðàäèåíò_209-4" x1="405.52" y1="728.91" x2="798.59" y2="728.91" xlink:href="#Áåçûìÿííûé_ãðàäèåíò_209"/><linearGradient id="Áåçûìÿííûé_ãðàäèåíò_209-5" x1="405.52" y1="698.67" x2="798.59" y2="698.67" xlink:href="#Áåçûìÿííûé_ãðàäèåíò_209"/><linearGradient id="Áåçûìÿííûé_ãðàäèåíò_209-6" x1="405.52" y1="668.44" x2="798.59" y2="668.44" xlink:href="#Áåçûìÿííûé_ãðàäèåíò_209"/><linearGradient id="Áåçûìÿííûé_ãðàäèåíò_209-7" x1="405.52" y1="698.83" x2="798.58" y2="698.83" xlink:href="#Áåçûìÿííûé_ãðàäèåíò_209"/><linearGradient id="Áåçûìÿííûé_ãðàäèåíò_209-9" x1="405.52" y1="722.93" x2="798.58" y2="722.93" xlink:href="#Áåçûìÿííûé_ãðàäèåíò_209"/><linearGradient id="Áåçûìÿííûé_ãðàäèåíò_209-10" x1="1120.58" y1="759.15" x2="1513.64" y2="759.15" xlink:href="#Áåçûìÿííûé_ãðàäèåíò_209"/><linearGradient id="Áåçûìÿííûé_ãðàäèåíò_209-11" x1="1120.58" y1="728.91" x2="1513.64" y2="728.91" xlink:href="#Áåçûìÿííûé_ãðàäèåíò_209"/><linearGradient id="Áåçûìÿííûé_ãðàäèåíò_209-12" x1="1120.58" y1="698.67" x2="1513.64" y2="698.67" xlink:href="#Áåçûìÿííûé_ãðàäèåíò_209"/><linearGradient id="Áåçûìÿííûé_ãðàäèåíò_209-13" x1="1120.58" y1="668.44" x2="1513.64" y2="668.44" xlink:href="#Áåçûìÿííûé_ãðàäèåíò_209"/><linearGradient id="Áåçûìÿííûé_ãðàäèåíò_209-14" x1="1120.58" y1="698.83" x2="1513.64" y2="698.83" xlink:href="#Áåçûìÿííûé_ãðàäèåíò_209"/><linearGradient id="Áåçûìÿííûé_ãðàäèåíò_209-16" x1="1120.58" y1="722.93" x2="1513.64" y2="722.93" xlink:href="#Áåçûìÿííûé_ãðàäèåíò_209"/><linearGradient id="Áåçûìÿííûé_ãðàäèåíò_209-17" x1="696.08" y1="975.01" x2="1065.62" y2="975.01" gradientTransform="matrix(-1, 0, 0, 1, 1839.67, 0)" xlink:href="#Áåçûìÿííûé_ãðàäèåíò_209"/><linearGradient id="Áåçûìÿííûé_ãðàäèåíò_209-18" x1="696.08" y1="946.58" x2="1065.62" y2="946.58" gradientTransform="matrix(-1, 0, 0, 1, 1839.67, 0)" xlink:href="#Áåçûìÿííûé_ãðàäèåíò_209"/><linearGradient id="Áåçûìÿííûé_ãðàäèåíò_209-19" x1="696.08" y1="918.16" x2="1065.62" y2="918.16" gradientTransform="matrix(-1, 0, 0, 1, 1839.67, 0)" xlink:href="#Áåçûìÿííûé_ãðàäèåíò_209"/><linearGradient id="Áåçûìÿííûé_ãðàäèåíò_209-20" x1="696.08" y1="889.73" x2="1065.62" y2="889.73" gradientTransform="matrix(-1, 0, 0, 1, 1839.67, 0)" xlink:href="#Áåçûìÿííûé_ãðàäèåíò_209"/><linearGradient id="Áåçûìÿííûé_ãðàäèåíò_209-21" x1="696.08" y1="932.37" x2="1065.62" y2="932.37" gradientTransform="matrix(-1, 0, 0, 1, 1839.67, 0)" xlink:href="#Áåçûìÿííûé_ãðàäèåíò_209"/><linearGradient id="Áåçûìÿííûé_ãðàäèåíò_209-22" x1="656.8" y1="841.48" x2="1104.89" y2="841.48" gradientTransform="matrix(-1, 0, 0, 1, 1839.67, 0)" xlink:href="#Áåçûìÿííûé_ãðàäèåíò_209"/><linearGradient id="Áåçûìÿííûé_ãðàäèåíò_209-23" x1="656.8" y1="807.01" x2="1104.89" y2="807.01" gradientTransform="matrix(-1, 0, 0, 1, 1839.67, 0)" xlink:href="#Áåçûìÿííûé_ãðàäèåíò_209"/><linearGradient id="Áåçûìÿííûé_ãðàäèåíò_209-24" x1="656.8" y1="772.54" x2="1104.89" y2="772.54" gradientTransform="matrix(-1, 0, 0, 1, 1839.67, 0)" xlink:href="#Áåçûìÿííûé_ãðàäèåíò_209"/><linearGradient id="Áåçûìÿííûé_ãðàäèåíò_209-25" x1="656.8" y1="738.07" x2="1104.89" y2="738.07" gradientTransform="matrix(-1, 0, 0, 1, 1839.67, 0)" xlink:href="#Áåçûìÿííûé_ãðàäèåíò_209"/><linearGradient id="Áåçûìÿííûé_ãðàäèåíò_209-26" x1="656.8" y1="789.77" x2="1104.89" y2="789.77" gradientTransform="matrix(-1, 0, 0, 1, 1839.67, 0)" xlink:href="#Áåçûìÿííûé_ãðàäèåíò_209"/><linearGradient id="Áåçûìÿííûé_ãðàäèåíò_209-28" x1="656.8" y1="800.19" x2="1104.89" y2="800.19" gradientTransform="matrix(-1, 0, 0, 1, 1839.67, 0)" xlink:href="#Áåçûìÿííûé_ãðàäèåíò_209"/><linearGradient id="Áåçûìÿííûé_ãðàäèåíò_209-29" x1="749.86" y1="535.39" x2="797.15" y2="535.39" gradientTransform="matrix(-1, 0.06, 0.06, 1, 1776.08, -91.41)" xlink:href="#Áåçûìÿííûé_ãðàäèåíò_209"/><linearGradient id="Áåçûìÿííûé_ãðàäèåíò_209-30" x1="816.71" y1="550.72" x2="915.63" y2="550.72" gradientTransform="matrix(-1, 0.06, 0.06, 1, 1776.08, -91.41)" xlink:href="#Áåçûìÿííûé_ãðàäèåíò_209"/><linearGradient id="Áåçûìÿííûé_ãðàäèåíò_209-31" x1="771.25" y1="425.3" x2="932.14" y2="425.3" gradientTransform="matrix(-1, 0.06, 0.06, 1, 1776.08, -91.41)" xlink:href="#Áåçûìÿííûé_ãðàäèåíò_209"/></defs><g class="cls-1"><g id="Layer_1" data-name="Layer 1"><path class="cls-2" d="M959.57,689a19.66,19.66,0,0,1-9.69-2.26L732,560.9c-2.82-1.63-4.37-4-4.36-6.57,0-3,2.12-6,5.81-8.09l215-124.12c6.58-3.8,16.25-4.17,22-.84l217.92,125.81c2.81,1.62,4.36,3.95,4.35,6.56,0,3-2.12,6-5.81,8.09l-215,124.13A25.17,25.17,0,0,1,959.57,689Zm-8-5.19c4.66,2.69,13.2,2.31,18.64-.84l215-124.12c2.59-1.5,4.13-3.43,4.13-5.17s-1.45-2.94-2.67-3.64L968.73,424.2c-4.66-2.68-13.19-2.29-18.63.84l-215,124.13c-2.59,1.49-4.13,3.42-4.13,5.17s1.46,2.93,2.67,3.63Z"/><path class="cls-3" d="M703.79,703.44a1.69,1.69,0,0,1-1.46-.85,1.67,1.67,0,0,1,.62-2.3L840.6,620.81a1.69,1.69,0,1,1,1.69,2.93L704.63,703.21A1.69,1.69,0,0,1,703.79,703.44Z"/><path class="cls-4" d="M1216.2,703a1.59,1.59,0,0,1-.84-.23l-136.88-79a1.69,1.69,0,0,1,1.68-2.93l136.88,79a1.69,1.69,0,0,1-.84,3.15Z"/><path class="cls-5" d="M959.59,968.44a32,32,0,0,1-16.05-4.3C887.43,931.62,700.59,823.6,696.11,821.61a1.62,1.62,0,0,1-1.08-2.07,1.73,1.73,0,0,1,2.16-1.12c2.91.84,245.6,141.38,248,142.8a28.74,28.74,0,0,0,28.73,0l246.82-143.05a1.69,1.69,0,1,1,1.69,2.92L975.66,964.14A32.08,32.08,0,0,1,959.59,968.44Z"/><polygon class="cls-6" points="1191 461.93 1191 488.67 959.59 622.27 728.17 488.66 728.17 461.92 1191 461.93"/><polygon class="cls-7" points="959.59 595.53 728.17 461.92 959.58 328.32 1191 461.93 959.59 595.53"/><polygon class="cls-8" points="959.59 592.41 730.87 460.36 728.17 461.92 959.59 595.53 1191 461.93 1188.29 460.36 959.59 592.41"/><polygon class="cls-9" points="959.59 564.72 781.59 461.95 959.58 359.19 1137.57 461.95 959.59 564.72"/><polygon class="cls-10" points="959.59 564.72 781.59 461.95 959.58 359.19 1137.58 461.96 959.59 564.72"/><polygon class="cls-11" points="959.58 333.28 1137.58 436.04 1137.58 461.95 959.58 359.19 959.58 333.28"/><polygon class="cls-12" points="959.59 359.19 781.59 461.95 781.59 436.04 959.58 333.28 959.59 359.19"/><polygon class="cls-13" points="959.59 538.8 781.59 436.04 959.58 333.28 1137.58 436.04 959.59 538.8"/><polygon class="cls-14" points="959.59 477.1 888.46 436.04 959.58 394.98 1030.7 436.04 959.59 477.1"/><polygon class="cls-14" points="959.58 398.76 1027.43 437.93 1030.7 436.04 959.58 394.98 888.46 436.04 891.73 437.93 959.58 398.76"/><polygon class="cls-15" points="959.59 538.8 959.59 564.72 1137.58 461.95 1137.58 436.04 959.59 538.8"/><polygon class="cls-16" points="781.59 436.04 781.59 461.95 959.59 564.72 959.59 538.8 781.59 436.04"/><polygon class="cls-17" points="959.59 535.98 784.04 434.63 781.59 436.04 959.59 538.8 1137.58 436.04 1135.13 434.63 959.59 535.98"/><g class="cls-18"><path class="cls-19" d="M617.25,651.78a30.15,30.15,0,0,0-30.12,0L407.64,755.16a4.24,4.24,0,0,0,0,7.34L588.63,867a26.55,26.55,0,0,0,26.57,0L796.47,762.6a4.25,4.25,0,0,0,0-7.35Z"/></g><g class="cls-18"><path class="cls-20" d="M617.25,621.54a30.17,30.17,0,0,0-30.12,0L407.64,724.92a4.24,4.24,0,0,0,0,7.34l181,104.49a26.55,26.55,0,0,0,26.57,0L796.47,732.36a4.24,4.24,0,0,0,0-7.34Z"/></g><g class="cls-18"><path class="cls-21" d="M617.25,591.31a30.15,30.15,0,0,0-30.12,0L407.64,694.68a4.24,4.24,0,0,0,0,7.34l181,104.49a26.55,26.55,0,0,0,26.57,0L796.47,702.12a4.24,4.24,0,0,0,0-7.34Z"/></g><g class="cls-18"><path class="cls-22" d="M617.25,561.07a30.15,30.15,0,0,0-30.12,0L407.64,664.44a4.25,4.25,0,0,0,0,7.35l181,104.49a26.6,26.6,0,0,0,26.57,0l181.27-104.4a4.24,4.24,0,0,0,0-7.34Z"/></g><path class="cls-23" d="M796.47,664.54,617.25,561.07a30.15,30.15,0,0,0-30.12,0L407.64,664.44a4.22,4.22,0,0,0-2.12,3.68v60.79a4.21,4.21,0,0,0,2.12,3.67l181,104.49a26.55,26.55,0,0,0,26.57,0L796.47,732.68a4.21,4.21,0,0,0,2.11-3.67v-60.8h0A4.19,4.19,0,0,0,796.47,664.54Z"/><g class="cls-18"><path class="cls-22" d="M617.25,561.07a30.15,30.15,0,0,0-30.12,0L407.64,664.44a4.25,4.25,0,0,0,0,7.35l181,104.49a26.6,26.6,0,0,0,26.57,0l181.27-104.4a4.24,4.24,0,0,0,0-7.34Z"/></g><g class="cls-24"><path class="cls-25" d="M608.5,620.34a12.8,12.8,0,0,0-12.77,0l-80.42,46.32a1.9,1.9,0,0,0,0,3.28l80.75,46.62a11.85,11.85,0,0,0,11.86,0L688.8,670a1.89,1.89,0,0,0,0-3.27Z"/></g><path class="cls-25" d="M515.31,669.56l80.42-46.32a12.78,12.78,0,0,1,12.77,0l80.3,46.36c.08,0,.11.13.18.19a1.86,1.86,0,0,0-.18-3.09l-80.3-46.36a12.8,12.8,0,0,0-12.77,0l-80.42,46.32a1.86,1.86,0,0,0-.18,3.09C515.2,669.69,515.23,669.61,515.31,669.56Z"/><path class="cls-26" d="M796.47,667.71,615.2,772.1a26.55,26.55,0,0,1-26.57,0l-181-104.49a4.17,4.17,0,0,1-1.57-1.58,4.24,4.24,0,0,0,1.57,5.76l181,104.49a26.6,26.6,0,0,0,26.57,0l181.27-104.4a4.23,4.23,0,0,0,1.57-5.75A4.32,4.32,0,0,1,796.47,667.71Z"/><g class="cls-18"><path class="cls-27" d="M1332.31,651.78a30.15,30.15,0,0,0-30.12,0L1122.7,755.16a4.24,4.24,0,0,0,0,7.34l181,104.49a26.55,26.55,0,0,0,26.57,0L1511.52,762.6a4.24,4.24,0,0,0,0-7.35Z"/></g><g class="cls-18"><path class="cls-28" d="M1332.31,621.54a30.17,30.17,0,0,0-30.12,0L1122.7,724.92a4.24,4.24,0,0,0,0,7.34l181,104.49a26.55,26.55,0,0,0,26.57,0l181.26-104.39a4.23,4.23,0,0,0,0-7.34Z"/></g><g class="cls-18"><path class="cls-29" d="M1332.31,591.31a30.15,30.15,0,0,0-30.12,0L1122.7,694.68a4.24,4.24,0,0,0,0,7.34l181,104.49a26.55,26.55,0,0,0,26.57,0l181.26-104.39a4.23,4.23,0,0,0,0-7.34Z"/></g><g class="cls-18"><path class="cls-30" d="M1332.31,561.07a30.15,30.15,0,0,0-30.12,0L1122.7,664.44a4.25,4.25,0,0,0,0,7.35l181,104.49a26.6,26.6,0,0,0,26.57,0l181.26-104.4a4.23,4.23,0,0,0,0-7.34Z"/></g><path class="cls-31" d="M1511.52,664.54,1332.31,561.07a30.15,30.15,0,0,0-30.12,0L1122.7,664.44a4.22,4.22,0,0,0-2.12,3.68v60.79a4.21,4.21,0,0,0,2.12,3.67l181,104.49a26.55,26.55,0,0,0,26.57,0l181.26-104.39a4.2,4.2,0,0,0,2.12-3.67v-60.8h0A4.2,4.2,0,0,0,1511.52,664.54Z"/><g class="cls-18"><path class="cls-30" d="M1332.31,561.07a30.15,30.15,0,0,0-30.12,0L1122.7,664.44a4.25,4.25,0,0,0,0,7.35l181,104.49a26.6,26.6,0,0,0,26.57,0l181.26-104.4a4.23,4.23,0,0,0,0-7.34Z"/></g><g class="cls-24"><path class="cls-25" d="M1323.56,620.34a12.8,12.8,0,0,0-12.77,0l-80.42,46.32a1.9,1.9,0,0,0,0,3.28l80.75,46.62a11.85,11.85,0,0,0,11.86,0L1403.85,670a1.88,1.88,0,0,0,0-3.27Z"/></g><path class="cls-25" d="M1230.37,669.56l80.42-46.32a12.78,12.78,0,0,1,12.77,0l80.29,46.36c.09,0,.12.13.19.19a1.86,1.86,0,0,0-.19-3.09l-80.29-46.36a12.8,12.8,0,0,0-12.77,0l-80.42,46.32a1.86,1.86,0,0,0-.18,3.09C1230.26,669.69,1230.29,669.61,1230.37,669.56Z"/><path class="cls-32" d="M1511.52,667.71,1330.26,772.1a26.55,26.55,0,0,1-26.57,0l-181-104.49a4.17,4.17,0,0,1-1.57-1.58,4.24,4.24,0,0,0,1.57,5.76l181,104.49a26.6,26.6,0,0,0,26.57,0l181.26-104.4a4.24,4.24,0,0,0,1.58-5.75A4.27,4.27,0,0,1,1511.52,667.71Z"/><path class="cls-33" d="M1465,414.81V307.3c-2.49-36.64-17-71.56-41.33-103.49V311.32c24.34,31.92,38.84,66.85,41.33,103.49ZM1411.2,296.22V188.71a307.26,307.26,0,0,0-28.46-28.05V268.17a307.26,307.26,0,0,1,28.46,28.05Zm-46.07-42.38V146.34a414.21,414.21,0,0,0-36.28-24.68v107.5a418.67,418.67,0,0,1,36.28,24.68Zm-60.64-6.75V76c99,52.55,160.86,127.69,160.86,210.83v171c0-83.14-61.82-158.28-160.86-210.82Z"/><path class="cls-33" d="M1123.37,165V134.08q-11.34-2.16-22.91-4v30.88q11.57,1.88,22.91,4Zm-41.21-37.66V100q-11.75-1.62-23.71-2.93v27.34q12,1.31,23.71,2.92ZM1163,142.78V105.51q-10.87-2.7-22-5.1v37.27q11.15,2.4,22,5.1Zm-123.5-20.23v-55q-12.1-1.05-24.4-1.75v55q12.3.7,24.4,1.75ZM951,119.45v-55q-12.45.18-24.74.72v55q12.29-.53,24.74-.72Zm-44,1.77V52q-12.16.79-24.15,1.93v69.2q12-1.14,24.15-1.93Zm88.64-1.32V40.74q-11.12-.39-22.35-.5l-2.66,0v79.15l2.66,0q11.24.12,22.35.51Zm-131.52,5.22v-99q-11.83,1.39-23.47,3.09v99q11.63-1.69,23.47-3.08ZM790.28,17.63C847.2,5.5,909-.85,973.34-.21c86,.86,166.48,14.1,236.5,36.7v171c-70-22.6-150.54-35.83-236.5-36.69-64.38-.65-126.14,5.7-183.06,17.84v-171Z"/><path class="cls-33" d="M499.27,249.63V215.2A208.2,208.2,0,0,0,475,261.08v102a208.26,208.26,0,0,1,24.31-45.89V282.76q4.44-6.4,9.41-12.65v18.57a276.23,276.23,0,0,1,20.57-23.07V247c32.27-32.47,75.24-61,126.11-83.89V130q-13.58,6.12-26.39,12.76-6.4,3.32-12.61,6.76c-32.67,18.14-61.06,38.81-84.2,61.47-1,1-1.95,1.93-2.91,2.89V195.34a277.94,277.94,0,0,0-20.57,23.08V237q-5,6.24-9.41,12.64Zm-31-1.07C487.75,165.09,569.52,93.2,685.51,48.47v171c-116,44.74-197.76,116.62-217.21,200.09v-171Z"/><path class="cls-34" d="M529.25,213.91c1-1,1.93-1.93,2.91-2.89v33.13a369.8,369.8,0,0,1,60.23-47.23q11.57-7.36,24-14.24V149.55q6.2-3.44,12.61-6.76v33.12q12.79-6.63,26.39-12.76v0c-50.87,22.93-93.84,51.42-126.11,83.89V213.91Zm-30,35.72q4.44-6.39,9.41-12.64v33.12q-5,6.24-9.41,12.65V249.63Z"/><path class="cls-35" d="M629,142.79q12.79-6.64,26.39-12.76v33.12q-13.58,6.12-26.39,12.76V142.79Z"/><path class="cls-35" d="M532.16,211a369.76,369.76,0,0,1,60.23-47.22v33.12a369.8,369.8,0,0,0-60.23,47.23V211Z"/><path class="cls-36" d="M592.39,163.8q11.57-7.37,24-14.25v33.13q-12.4,6.87-24,14.24V163.8Z"/><path class="cls-34" d="M475,261.08a208.2,208.2,0,0,1,24.31-45.88v34.43A208.26,208.26,0,0,0,475,295.52v33.12a208.2,208.2,0,0,1,24.31-45.88v34.43A208.26,208.26,0,0,0,475,363.08v-102Z"/><path class="cls-35" d="M475,295.52a208.26,208.26,0,0,1,24.31-45.89v33.13A208.2,208.2,0,0,0,475,328.64V295.52Z"/><path class="cls-34" d="M508.68,270.11A276.23,276.23,0,0,1,529.25,247v18.57a276.23,276.23,0,0,0-20.57,23.07V270.11Zm0-51.69a277.94,277.94,0,0,1,20.57-23.08v18.57A277.94,277.94,0,0,0,508.68,237V218.42Z"/><path class="cls-35" d="M508.68,237a277.94,277.94,0,0,1,20.57-23.08V247a276.23,276.23,0,0,0-20.57,23.07V237Z"/><path class="cls-34" d="M1423.64,203.81c24.34,31.93,38.84,66.85,41.33,103.49V414.81c-2.49-36.64-17-71.57-41.33-103.49V203.81Z"/><path class="cls-25" d="M1382.74,160.66a307.26,307.26,0,0,1,28.46,28.05V296.22a307.26,307.26,0,0,0-28.46-28.05V160.66Z"/><path class="cls-34" d="M1328.85,121.66a414.21,414.21,0,0,1,36.28,24.68v107.5a418.67,418.67,0,0,0-36.28-24.68V121.66Z"/><path class="cls-34" d="M1141,100.41q11.15,2.4,22,5.1v37.27q-10.87-2.7-22-5.1V100.41Z"/><path class="cls-34" d="M1100.46,130.05q11.57,1.86,22.91,4V165q-11.34-2.17-22.91-4V130.05Z"/><path class="cls-34" d="M1058.45,97.05q12,1.31,23.71,2.93v27.33q-11.75-1.62-23.71-2.92V97.05Z"/><path class="cls-34" d="M1015.13,65.78q12.3.7,24.4,1.75v55q-12.1-1-24.4-1.75v-55Z"/><path class="cls-34" d="M970.68,40.22l2.66,0q11.24.1,22.35.5V119.9q-11.12-.39-22.35-.51l-2.66,0V40.22Z"/><path class="cls-25" d="M926.28,65.15q12.29-.53,24.74-.72v55q-12.45.18-24.74.72v-55Z"/><path class="cls-34" d="M882.9,54q12-1.12,24.15-1.93v69.2q-12.16.8-24.15,1.92V54Z"/><path class="cls-25" d="M840.7,29.19q11.63-1.7,23.47-3.09v99q-11.83,1.38-23.47,3.08v-99Z"/><g class="cls-18"><path class="cls-37" d="M944.54,874.07a28.34,28.34,0,0,1,28.32,0l168.75,97.2a4,4,0,0,1,0,6.9L971.45,1076.4a25,25,0,0,1-25,0L776.05,978.25a4,4,0,0,1,0-6.9Z"/></g><g class="cls-18"><path class="cls-38" d="M944.54,845.64a28.36,28.36,0,0,1,28.32,0l168.75,97.2a4,4,0,0,1,0,6.9L971.45,1048a25,25,0,0,1-25,0L776.05,949.83a4,4,0,0,1,0-6.91Z"/></g><g class="cls-18"><path class="cls-39" d="M944.54,817.22a28.34,28.34,0,0,1,28.32,0l168.75,97.2a4,4,0,0,1,0,6.91l-170.16,98.24a25,25,0,0,1-25,0L776.05,921.4a4,4,0,0,1,0-6.9Z"/></g><g class="cls-18"><path class="cls-40" d="M944.54,788.79a28.34,28.34,0,0,1,28.32,0L1141.61,886a4,4,0,0,1,0,6.9L971.45,991.12a25,25,0,0,1-25,0L776.05,893a4,4,0,0,1,0-6.9Z"/></g><path class="cls-41" d="M776.05,886.07l168.49-97.28a28.34,28.34,0,0,1,28.32,0L1141.61,886a3.94,3.94,0,0,1,2,3.45v85.28a4,4,0,0,1-2,3.45L971.45,1076.4a25,25,0,0,1-25,0L776.05,978.25a3.94,3.94,0,0,1-2-3.45V889.52h0A4,4,0,0,1,776.05,886.07Z"/><g class="cls-18"><path class="cls-42" d="M941.51,719.08a34.37,34.37,0,0,1,34.33,0l204.62,117.87a4.83,4.83,0,0,1,0,8.37L974.13,964.42a30.29,30.29,0,0,1-30.29,0l-206.64-119a4.83,4.83,0,0,1,0-8.37Z"/></g><g class="cls-18"><path class="cls-43" d="M941.51,684.61a34.37,34.37,0,0,1,34.33,0l204.62,117.87a4.83,4.83,0,0,1,0,8.37L974.13,930a30.29,30.29,0,0,1-30.29,0l-206.64-119a4.83,4.83,0,0,1,0-8.37Z"/></g><g class="cls-18"><path class="cls-44" d="M941.51,650.14a34.37,34.37,0,0,1,34.33,0L1180.46,768a4.83,4.83,0,0,1,0,8.37L974.13,895.48a30.29,30.29,0,0,1-30.29,0l-206.64-119a4.83,4.83,0,0,1,0-8.37Z"/></g><g class="cls-18"><path class="cls-45" d="M941.51,615.67a34.37,34.37,0,0,1,34.33,0l204.62,117.87a4.83,4.83,0,0,1,0,8.37L974.13,861a30.29,30.29,0,0,1-30.29,0L737.2,742a4.83,4.83,0,0,1,0-8.37Z"/></g><path class="cls-46" d="M737.2,733.63l204.31-118a34.37,34.37,0,0,1,34.33,0l204.62,117.87a4.77,4.77,0,0,1,2.41,4.18V841.11a4.79,4.79,0,0,1-2.41,4.19L974.13,964.42a30.29,30.29,0,0,1-30.29,0l-206.64-119a4.8,4.8,0,0,1-2.42-4.19V737.81h0A4.79,4.79,0,0,1,737.2,733.63Z"/><g class="cls-18"><path class="cls-45" d="M941.51,615.67a34.37,34.37,0,0,1,34.33,0l204.62,117.87a4.83,4.83,0,0,1,0,8.37L974.13,861a30.29,30.29,0,0,1-30.29,0L737.2,742a4.83,4.83,0,0,1,0-8.37Z"/></g><path class="cls-47" d="M737.2,737.24l206.64,119a30.29,30.29,0,0,0,30.29,0l206.33-119.13a4.69,4.69,0,0,0,1.79-1.8,4.84,4.84,0,0,1-1.79,6.57L974.13,861a30.29,30.29,0,0,1-30.29,0L737.2,742a4.84,4.84,0,0,1-1.8-6.57A4.81,4.81,0,0,0,737.2,737.24Z"/><ellipse class="cls-48" cx="958.83" cy="738.07" rx="112.65" ry="65.04"/><path class="cls-49" d="M1001.7,682.92s2.74,2.85,5.58,6.22,10.84,8,14.19,10.13,18.73,13.73,22,25.21-7.78,13-19,11-21.74-12.36-24.8-16.1S985.91,707.14,972.12,700s-5.46-16.74-5.46-16.74Z"/><path class="cls-49" d="M899.3,717a42.87,42.87,0,0,0-2.92,11.8c-.64,6.64-1.57,21-1.92,25.23a35.62,35.62,0,0,0,6.93,24.37c7.41,9.86,11.24,13.76,21.08,9.88s9.62-20.4,7.88-28.9-3.36-27.52-3.18-29.52a5.93,5.93,0,0,0-.56-3.27Z"/><path class="cls-50" d="M1035.68,487.94s-2.07,75.79-19.74,116a292.88,292.88,0,0,0-14.32,77.58s2.92,7.25-1.22,13.15-30.07,11.3-34.35-8.08-2.64-55.64,2.07-70.76-1.68-56.8-1.68-56.8-7.09,4.53-16.38,34.47-16.12,41.37-19.32,49.64-6.13,59-4.11,83.79c0,0-21,3-27.06-7.06s-8.11-62-6.57-78.51,8.47-69.59,7.51-86-4.37-29.74-.61-46.13,114.55-52.8,114.55-52.8Z"/><path class="cls-49" d="M900.51,555.37c-1-16.41-4.37-29.74-.61-46.13,1.41-6.16,18-15.15,38-24,33.91-3.1,76.91-6.69,79.88-6.24,2.67.41,9.68,3.07,15.49,5.4l2.37,3.51s-.13,4.61-.58,12.14c-7.91,2.36-23.12-.08-23.12-.08-2.15,5.32-15.36,24.22-31.79,32.37s-64.53,5.36-67.29,8.46-3.29,44.59-3,49.87-4.53,38.48-9,67.85c-4.4,28.89,2.3,64,2.52,65.14a11.81,11.81,0,0,1-3.86-3.81c-6.08-10-8.11-62-6.57-78.51S901.47,571.78,900.51,555.37Z"/><path class="cls-51" d="M998.59,240.07s24.59,5.61,32.86,7.55a4.24,4.24,0,0,1,3,2.59c2.39,6,8.38,24.83,3.86,52.24-5.54,33.7-3.78,56.38-3.78,56.38L1045.89,418s14.29,56.36,13.06,57.9-32.92,25.65-42.82,22.26-6.65-9-6.65-9-8,40.84-43.52,40.45-64.51-.28-70.53-14.63,1.65-74.68,7.91-98.57,21.14-71.5,21.14-71.5l-52-57.55,44.44-33.94s10.62-19.73,15-22.23,6.64-.39,6.64-.39Z"/><path class="cls-52" d="M1015.52,485.16c0,2,1.17,5.1,7.55,7.29,6.89,2.36,23.78-7.91,34.86-15.64-5.53,4.6-32.74,24.46-41.8,21.36a16.2,16.2,0,0,1-4.45-2.23A72.07,72.07,0,0,0,1015.52,485.16Z"/><path class="cls-53" d="M895.69,510.2c6.36,15.15,37,15,74.44,15.44a40,40,0,0,0,23.29-6.71A37.9,37.9,0,0,1,966,529.62c-35.5-.39-64.51-.28-70.53-14.63-2-4.71-2.48-14.39-2-26.1C893.31,498.4,894,506.09,895.69,510.2Z"/><path class="cls-54" d="M932.86,230.7s-9.08,11,4,25.81c8,9.13,21.87,28.81,33.66,49.25,7.36,12.76,14.16,19.57,18,30.53,0,0,.54-13,1.06-33.14.49-19,.74-38.72-.11-43.69C987.73,249.23,942.9,225.73,932.86,230.7Z"/><path class="cls-55" d="M966.82,263.74s4.65,2.89,6.25,2.65,6.75-5.24,6.75-5.24,12.89-.23,14.3-5.75,2.33-11.09,3.64-14,6.86-16.64,6.9-22.23-.17-15.57,2.25-20.86,5.67-58.18-45.41-56.69-35.21,54.53-35.21,54.53-3.73,1.59-1.47,8.41,2.76,7.54,3.92,10.93,1.72,5.56,5,8.31l.85,6.29a25.23,25.23,0,0,0,3.92,18.94C944.82,258.4,966.82,263.74,966.82,263.74Z"/><path class="cls-50" d="M1032.85,248.23s5.44.81,23.12,45.26c9.86,24.81,25.07,50.49,28.3,68.93s1.43,38.14-2.22,39.53-67,25.09-86.87,32.59a1.87,1.87,0,0,1-2.49-1.43l-5.48-30.66,39.4-15.23s7.5-9.17,14.55-12.61c0,0-7.89-14.55-7.39-18.53s-.7-45.09,3.91-61.82S1032.85,248.23,1032.85,248.23Z"/><path class="cls-55" d="M1009.78,365.71a79.2,79.2,0,0,1,6.76-4.17c1.34-.52,8.6-3,10-3.62,1-.46,5.26-.1,7.38.11a2.31,2.31,0,0,1,1.8,1.2c1.68,3.11,6.35,12.16,5.82,15.61,0,0-13.12,8.29-14.58,12l-2.09.45S1016.06,368.43,1009.78,365.71Z"/><path class="cls-50" d="M903.34,416.42c1.5-5.74,3.51-12.87,5.69-20.37l79.79,34.21s-23.88,29.36-65.75,27.48c-11.44-.52-19.79-4.65-25.92-8.19A315.44,315.44,0,0,1,903.34,416.42Z"/><path class="cls-50" d="M872.48,287.37s21,2.9,38,29.84,29.39,58.13,29.39,58.13l.59,3.51a14.19,14.19,0,0,0,19.78,10.63c18-8,44.54-20.14,49.5-23.77A45.74,45.74,0,0,1,1030,395.26c3.46,16.56,2.58,16.61,2.58,16.61s-70.85,33.07-98.22,32.75-62.08-90.3-65.9-108.9S860.43,292.63,872.48,287.37Z"/><path class="cls-56" d="M872.48,287.37s21,2.9,38,29.84,29.39,58.13,29.39,58.13l.59,3.51a14.19,14.19,0,0,0,19.78,10.63c18-8,44.54-20.14,49.5-23.77A45.74,45.74,0,0,1,1030,395.26c3.46,16.56,2.58,16.61,2.58,16.61s-70.85,33.07-98.22,32.75-62.08-90.3-65.9-108.9S860.43,292.63,872.48,287.37Z"/><path class="cls-51" d="M950.1,393.67s-8.93,8.36-12.82,3.78-2.75-5.08-2.75-5.08-8-.08-9-5.12-4.94-2.37-5.17-8,6.51-4.46,6.51-4.46Z"/><path class="cls-55" d="M960.91,389.2s-2.46-2.29-5.63-5-8.3-13.78-9.16-14.76-11.56-9.18-16.72-9.32-1.32,5.63-.14,6.44,6.22,3.31,6.22,3.31,5.18,4.35,5.77,5-14.4-1-16.77.43-1.83,5.29-.15,6.33a5.85,5.85,0,0,0,3,1,5.21,5.21,0,0,0,2.81,6.6c4.49,2.1,5.53.93,5.53.93s.39,7.79,7.81,6.25Z"/><path class="cls-57" d="M1008.06,171.31s6.67,21.22-10.88,15.18-33.43-16.14-38.94-12.3c-4.19,2.93-4,11.92-3.67,16a6.09,6.09,0,0,1-1.05,4l-5.2,7.56a5.78,5.78,0,0,0-1,2.89l-.37,5.26a2.65,2.65,0,0,1-2.48,2.45l-1.2.06a2.62,2.62,0,0,1-2.75-2.17l-1.36-7.73s-4.13-10.4-12.86-6.31c0,0-5.84-7.85-3.9-24.62s9.46-34.22,42.38-37S1008.06,171.31,1008.06,171.31Z"/><path class="cls-58" d="M957.75,282.43l4.93-3.83s4.56,3.79,6.33,7.8,0,16.78,0,16.78l1.5,2.58,1.84-3.38,1.56-15.08s-1.67-11.15-1.83-11.44-9.5,1-9.5,1A19.4,19.4,0,0,0,957.75,282.43Z"/><path class="cls-58" d="M981.44,267.41s5.26.35,7.63,2.32c0,0-5.52.27-6.4.37S981.44,267.41,981.44,267.41Z"/><path class="cls-50" d="M971.41,268.6l-8.83,8.25s7.75,3.57,9.92,10.5c0,0,9.61,1.8,10.48-1.68s0-12.25,1.13-16.14S971.41,268.6,971.41,268.6Z"/><path class="cls-50" d="M982.63,285.47s1.64,7.23,3.43,10.21S989.7,302,989.7,302l-.22,42.38s-15.59-32.13-19-38.63c0,0,.52-15.48,2-18.41S982.63,285.47,982.63,285.47Z"/><path class="cls-59" d="M940.77,222.84c10.24,29.54,39.05,38.31,39.05,38.31s-5.15,5-6.75,5.24-6.25-2.65-6.25-2.65-22-5.34-28.35-14.67a25.23,25.23,0,0,1-3.92-18.94l-.85-6.29C938.27,225.34,940.77,222.84,940.77,222.84Z"/><path class="cls-50" d="M917.35,257.42s4,13.95,4.56,14.47,10.16-.59,10.16-.59l-4.68,8.87s48.49,52,58.54,80c0,0-22.95-35.45-63.33-77.8l5.71-8.65-9.91,1.94Z"/><path class="cls-50" d="M997,245.11l2.57,2.94-3,2.82,9,8.11s2.74,56.88-8.21,94.56c0,0,14.86-34.56,11.49-96.11l-9.7-6.58,3.17-3.13Z"/><path class="cls-49" d="M966.44,559l-.33.27,12.56-13.37c-5.8,8.17.88,45.62,1.57,54.19s-6.71,26.28-9.48,47,2.91,50.28,2.92,50.37a16,16,0,0,1-7.63-10.92c-4.29-19.38-2.64-55.64,2.07-70.76S966.44,559,966.44,559Z"/><path class="cls-60" d="M934.37,444.62c-27.36-.33-62.08-90.3-65.9-108.9-.64-3.1-1.28-6.37-1.86-9.68.1.27,7.19,19.69,14,36.91s43.46,69.91,62.14,73.34c16.86,3.09,77.47-25.21,89.21-30.8,1.07,6.32.61,6.38.61,6.38S961.74,444.94,934.37,444.62Z"/><path class="cls-61" d="M943.26,212.4a2.62,2.62,0,0,1-2.75-2.17l-1.36-7.73s-4.13-10.4-12.86-6.31c0,0-5.5-7.45-4-23.31,9.71,14.58,31.25,21.3,31.25,21.3l-5.2,7.57a5.71,5.71,0,0,0-1,2.88l-.37,5.26a2.65,2.65,0,0,1-2.48,2.45Z"/><path class="cls-33" d="M622.86,642.57v-28.9q8.68,4.65,17.75,9.07v28.9q-9.06-4.41-17.75-9.07Zm-56.92-36.11V553.2q7.21,5.44,14.87,10.67v53.26q-7.65-5.24-14.87-10.67Zm27.13,18.74V562.39q8,5.05,16.37,9.9v62.82q-8.38-4.85-16.37-9.91Zm-72.78-60V495.53q5.54,6.09,11.57,12v69.69q-6-5.91-11.57-12Zm21.34,21.21v-75.5q6.4,5.77,13.27,11.37v75.51q-6.87-5.59-13.27-11.38Zm-54.39-66.79V437.78q3.67,6.64,7.91,13.16V532.8q-4.23-6.51-7.91-13.16Zm14.86,23.27V436.43q4.63,6.38,9.79,12.62V555.53q-5.16-6.22-9.79-12.62Zm-26.23-47.43V375.22q2.69,6.87,5.93,13.63V509.12q-3.24-6.75-5.93-13.64Zm201.26,26.69c-114.43-46.1-193.49-118.92-210-202.36v171c16.56,83.44,95.62,156.27,210.05,202.37V522.17Z"/><path class="cls-33" d="M1012.66,712.17V673.59q29.53-1.62,58-5.15V707q-28.46,3.53-58,5.15Zm-92.53.18V642q17.68.9,35.73,1.08,12.33.14,24.52-.09v70.32q-12.2.21-24.52.09-18-.18-35.73-1.08Zm-89.19-9.23V595.62q28,4.43,57.21,7V710.14q-29.21-2.57-57.21-7Zm270.22-.45V589.12q27.77-4.5,54.18-10.76V691.9q-26.37,6.24-54.18,10.77ZM1201,540.23c-72.89,22.43-156.51,34.8-245.11,33.91-61.75-.62-120.69-7.62-175-19.89v171c54.26,12.27,113.2,19.28,175,19.89,88.6.89,172.22-11.47,245.11-33.91v-171Z"/><path class="cls-33" d="M1323.85,589.15V556c79.82-47.13,131.78-110,140.27-179.88v33.13c-8.49,69.9-60.45,132.74-140.27,179.87ZM1465.28,463V292c-2.55,83.66-67.21,158.34-168.34,209.83v171c101.13-51.49,165.79-126.17,168.34-209.83Z"/><path class="cls-34" d="M1464.12,376.15c-8.49,69.91-60.45,132.75-140.27,179.88v33.12c79.82-47.13,131.78-110,140.27-179.87V376.15Z"/><path class="cls-25" d="M888.15,602.63q-29.21-2.57-57.21-7v107.5q28,4.44,57.21,7V602.63Z"/><path class="cls-25" d="M1070.68,668.44q-28.46,3.51-58,5.15v38.58q29.53-1.6,58-5.15V668.44Z"/><path class="cls-25" d="M1155.34,578.36q-26.37,6.24-54.18,10.76V702.67q27.77-4.51,54.18-10.77V578.36Z"/><path class="cls-34" d="M980.38,643q-12.2.21-24.52.09-18-.18-35.73-1.08v70.32q17.68.9,35.73,1.08,12.33.12,24.52-.09V643Z"/><path class="cls-25" d="M481.8,388.85q-3.24-6.75-5.93-13.63V495.49q2.69,6.87,5.93,13.63V388.85Z"/><path class="cls-25" d="M495.15,450.94q-4.23-6.51-7.91-13.16v81.86q3.67,6.65,7.91,13.16V450.94Z"/><path class="cls-34" d="M511.89,449.05q-5.16-6.24-9.79-12.62V542.91q4.63,6.39,9.79,12.62V449.05Z"/><path class="cls-25" d="M531.86,507.54q-6-5.93-11.57-12v69.69q5.54,6.09,11.57,12V507.54Z"/><path class="cls-34" d="M554.9,522.3q-6.87-5.58-13.27-11.37v75.5q6.4,5.79,13.27,11.38V522.3Z"/><path class="cls-34" d="M580.81,563.87q-7.65-5.24-14.87-10.67v53.26q7.21,5.43,14.87,10.67V563.87Z"/><path class="cls-34" d="M609.44,572.29q-8.38-4.83-16.37-9.9V625.2q8,5.07,16.37,9.91V572.29Z"/><path class="cls-34" d="M640.61,622.74q-9.06-4.41-17.75-9.07v28.9q8.68,4.65,17.75,9.07v-28.9Z"/></g></g></svg>