<svg id="Layer_1" data-name="Layer 1" xmlns="http://www.w3.org/2000/svg" viewBox="0 0 400 300"><defs><style>.cls-1{fill:#38bbd5;}</style></defs><path class="cls-1" d="M285.4,237.71a12,12,0,0,1,2.5-12.93l.11-.11a9.6,9.6,0,0,1,2.06-1.63,12.3,12.3,0,0,1,1.31-.65v-19H271.71a19.52,19.52,0,0,1-19.46,16.52H240.4v51.73h34.78a6,6,0,0,1,.55-.87,7.05,7.05,0,0,1,1.41-1.63,12.29,12.29,0,0,1,3.91-2.61,12.41,12.41,0,0,1,9.13,0,13.52,13.52,0,0,1,3.91,2.61A12.29,12.29,0,0,1,296.7,273a12.41,12.41,0,0,1,0,9.13,11.94,11.94,0,0,1-6.52,6.52,12.12,12.12,0,0,1-9,0h-.11a13.83,13.83,0,0,1-3.91-2.6,9.42,9.42,0,0,1-1.74-2.29,8.44,8.44,0,0,1-.76-1.41H235.19a5.73,5.73,0,0,1-3.81-1.52,5.32,5.32,0,0,1-1.63-3.8h0V220H203.88v47c.44.21.77.43,1.2.65a9.54,9.54,0,0,1,2,1.52,12,12,0,0,1,2.6,12.93v.11a13.74,13.74,0,0,1-2.6,3.92,11.85,11.85,0,0,1-8.48,3.47,11.8,11.8,0,0,1-8.48-3.47,12.23,12.23,0,0,1-2.61-3.92,12.12,12.12,0,0,1,0-9V273a13.65,13.65,0,0,1,2.61-3.91,12.37,12.37,0,0,1,1.85-1.52l.11-.11a11.6,11.6,0,0,1,1.19-.65h0V219.89H158.78v24.34a5.75,5.75,0,0,1-1.52,3.81,5.1,5.1,0,0,1-3.81,1.52H129c-.22.32-.44.76-.65,1.08a10.47,10.47,0,0,1-1.42,1.74l-.1.11a12.34,12.34,0,0,1-3.92,2.61,12.12,12.12,0,0,1-9,0h-.11a13.65,13.65,0,0,1-3.91-2.61,12.29,12.29,0,0,1-2.61-3.91,12.41,12.41,0,0,1,0-9.13,12.18,12.18,0,0,1,2.61-3.91,13.65,13.65,0,0,1,3.91-2.61h0a12.41,12.41,0,0,1,9.13,0,12.71,12.71,0,0,1,3.81,2.5l.11.11a9.92,9.92,0,0,1,1.63,2.06c.21.44.43.76.65,1.31h19V219.45a20.08,20.08,0,0,1-9.78-5.32,19.1,19.1,0,0,1-5.66-13.48V187.93H76.07v34.78a7.87,7.87,0,0,1,.87.54,10.51,10.51,0,0,1,1.63,1.42,12.52,12.52,0,0,1,2.61,3.91,12.41,12.41,0,0,1,0,9.13,13.93,13.93,0,0,1-2.61,3.91,12.29,12.29,0,0,1-3.91,2.61,12.41,12.41,0,0,1-9.13,0,12.23,12.23,0,0,1-3.92-2.61A12.52,12.52,0,0,1,59,237.71a11,11,0,0,1-.87-4.56,12.55,12.55,0,0,1,.87-4.46v-.11a13.93,13.93,0,0,1,2.61-3.91,9,9,0,0,1,2.29-1.74,8.44,8.44,0,0,1,1.41-.76V182.71a5.72,5.72,0,0,1,1.52-3.8,5.32,5.32,0,0,1,3.8-1.63h62V151.52H80.74c-.22.44-.43.76-.65,1.2a9.55,9.55,0,0,1-1.52,1.95,12.29,12.29,0,0,1-3.91,2.61,12.55,12.55,0,0,1-4.57.87,12.42,12.42,0,0,1-4.46-.87h-.1a13.57,13.57,0,0,1-3.92-2.61A12.52,12.52,0,0,1,59,150.76a12.41,12.41,0,0,1,0-9.13,12.52,12.52,0,0,1,2.61-3.91,12.23,12.23,0,0,1,3.92-2.61,10.69,10.69,0,0,1,4.56-.87,12.64,12.64,0,0,1,4.46.87h.11a13.65,13.65,0,0,1,3.91,2.61,12.48,12.48,0,0,1,1.52,1.85l.11.1a13,13,0,0,1,.65,1.2h51.84V108.81a18.2,18.2,0,0,1,.11-2.39H103.46a5.75,5.75,0,0,1-3.81-1.53,5.26,5.26,0,0,1-1.52-3.8V76.64c-.32-.22-.76-.44-1.09-.66a10.76,10.76,0,0,1-1.73-1.41l-.11-.11a12.18,12.18,0,0,1-2.61-3.91A12.72,12.72,0,0,1,91.72,66a12.54,12.54,0,0,1,.87-4.45v-.11a13.52,13.52,0,0,1,2.61-3.91,12.18,12.18,0,0,1,3.91-2.61,12.41,12.41,0,0,1,9.13,0,12.18,12.18,0,0,1,3.91,2.61,13.52,13.52,0,0,1,2.61,3.91h0a12.41,12.41,0,0,1,0,9.13,11.69,11.69,0,0,1-2.61,3.8l-.11.11a7,7,0,0,1-2,1.63l-1.31.65v19h29v.11a2.68,2.68,0,0,0,.55-.65,19.76,19.76,0,0,1,14-5.76h11.08V27.4H128.78a6,6,0,0,1-.54.87,10.52,10.52,0,0,1-1.41,1.63,12.34,12.34,0,0,1-3.92,2.61,12.41,12.41,0,0,1-9.13,0,13.65,13.65,0,0,1-3.91-2.61A12.29,12.29,0,0,1,107.26,26a12.41,12.41,0,0,1,0-9.13,12,12,0,0,1,6.52-6.52,12.55,12.55,0,0,1,4.57-.87,12.32,12.32,0,0,1,4.45.87h.11A13.7,13.7,0,0,1,126.83,13a8.91,8.91,0,0,1,1.73,2.28,8.11,8.11,0,0,1,.76,1.41h39.46a5.72,5.72,0,0,1,3.8,1.52A5.33,5.33,0,0,1,174.21,22h0V89.35h25.87V32.07c-.43-.21-.76-.43-1.2-.65a9.21,9.21,0,0,1-1.95-1.52A12.29,12.29,0,0,1,194.32,26a12.76,12.76,0,0,1-.87-4.57,12.54,12.54,0,0,1,.87-4.45v-.11A13.52,13.52,0,0,1,196.93,13a12.29,12.29,0,0,1,3.91-2.61,12.41,12.41,0,0,1,9.13,0,12,12,0,0,1,6.52,6.52,12.12,12.12,0,0,1,0,9V26a13.65,13.65,0,0,1-2.61,3.91A12.29,12.29,0,0,1,212,31.42l-.11.11a10.13,10.13,0,0,1-1.2.65h0V89.46h34.46V54.79a5.7,5.7,0,0,1,1.52-3.8,5.24,5.24,0,0,1,3.8-1.53H275c.21-.32.43-.76.65-1.08A10.41,10.41,0,0,1,277,46.64l.11-.11a12.29,12.29,0,0,1,3.91-2.61,12.76,12.76,0,0,1,4.57-.87,12.54,12.54,0,0,1,4.45.87h.11a13.52,13.52,0,0,1,3.91,2.61,12.29,12.29,0,0,1,2.61,3.91,12.41,12.41,0,0,1,0,9.13,12.18,12.18,0,0,1-2.61,3.91,15,15,0,0,1-3.91,2.61h0a12.41,12.41,0,0,1-9.13,0,12.79,12.79,0,0,1-3.8-2.5l-.11-.11a9.6,9.6,0,0,1-1.63-2.06,13.11,13.11,0,0,1-.65-1.3h-19V89.79a19.85,19.85,0,0,1,10.54,5.54A19.07,19.07,0,0,1,272,108.81v2.28H324.2V76.31a7.87,7.87,0,0,1-.87-.54,10.07,10.07,0,0,1-1.63-1.42,12.35,12.35,0,0,1-2.61-3.91,12.41,12.41,0,0,1,0-9.13,13.72,13.72,0,0,1,2.61-3.91,12.29,12.29,0,0,1,3.91-2.61,12.41,12.41,0,0,1,9.13,0,12.23,12.23,0,0,1,3.92,2.61,12,12,0,0,1,2.61,12.93v.11a13.93,13.93,0,0,1-2.61,3.91,9,9,0,0,1-2.29,1.74,7.77,7.77,0,0,1-1.41.76v39.46a5.72,5.72,0,0,1-1.52,3.8,5.32,5.32,0,0,1-3.8,1.63h-57.5v25.87h47.39c.22-.44.43-.76.65-1.2a9.21,9.21,0,0,1,1.52-1.95,12.29,12.29,0,0,1,3.91-2.61,12.55,12.55,0,0,1,4.57-.87,12.42,12.42,0,0,1,4.46.87h.1a13.57,13.57,0,0,1,3.92,2.61,12.52,12.52,0,0,1,2.61,3.91,12.55,12.55,0,0,1,0,9.13,12.52,12.52,0,0,1-2.61,3.91,12.23,12.23,0,0,1-3.92,2.61,12.12,12.12,0,0,1-9,0h-.11a13.65,13.65,0,0,1-3.91-2.61,11.89,11.89,0,0,1-1.52-1.85l-.11-.1a13,13,0,0,1-.65-1.2H272v34.45h24.78a5.75,5.75,0,0,1,3.81,1.53,5.26,5.26,0,0,1,1.52,3.8v24.45c.32.22.76.44,1.08.66a10.41,10.41,0,0,1,1.74,1.41l.11.11a12.18,12.18,0,0,1,2.61,3.91,12.72,12.72,0,0,1,.87,4.57,12.54,12.54,0,0,1-.87,4.45v.11a13.52,13.52,0,0,1-2.61,3.91,12.18,12.18,0,0,1-3.91,2.61,12.41,12.41,0,0,1-9.13,0,12.18,12.18,0,0,1-3.91-2.61,13.21,13.21,0,0,1-2.72-3.91ZM181.71,129.89H222.9a5.84,5.84,0,0,1,5.87,5.87v37.93a5.84,5.84,0,0,1-5.87,5.87H181.71a5.85,5.85,0,0,1-5.87-5.87V135.76a6,6,0,0,1,5.87-5.87Zm70.54-30.1H152.37a8.26,8.26,0,0,0-5.87,2.5,9,9,0,0,0-2.61,6.41v92a9,9,0,0,0,2.61,6.41,8.3,8.3,0,0,0,5.87,2.5h99.88a8.32,8.32,0,0,0,5.87-2.5,9,9,0,0,0,2.61-6.41V108.81a9.05,9.05,0,0,0-2.61-6.42,8,8,0,0,0-5.87-2.6Z"/></svg>