<svg id="Layer_1" data-name="Layer 1" xmlns="http://www.w3.org/2000/svg" xmlns:xlink="http://www.w3.org/1999/xlink" viewBox="0 0 400 300"><defs><style>.cls-1{fill:url(#linear-gradient);}.cls-2{fill:#95b0dd;}.cls-3{fill:#8093ca;}.cls-4{fill:#beceeb;}.cls-5{opacity:0.26;fill:url(#linear-gradient-2);}.cls-6{fill:url(#linear-gradient-3);}.cls-7{fill:url(#linear-gradient-4);}.cls-8{fill:url(#linear-gradient-5);}.cls-9{fill:url(#linear-gradient-6);}.cls-10{fill:url(#linear-gradient-7);}.cls-11{fill:url(#linear-gradient-8);}.cls-12{fill:url(#linear-gradient-9);}.cls-13{fill:url(#linear-gradient-10);}.cls-14{fill:url(#linear-gradient-11);}.cls-15{fill:url(#linear-gradient-12);}.cls-16{fill:url(#linear-gradient-13);}.cls-17{fill:url(#linear-gradient-14);}.cls-18{fill:#e04993;}.cls-19{fill:url(#linear-gradient-15);}.cls-20{fill:url(#linear-gradient-16);}.cls-21{fill:url(#linear-gradient-17);}.cls-22{fill:url(#linear-gradient-18);}.cls-23{fill:url(#linear-gradient-19);}.cls-24{fill:url(#linear-gradient-20);}.cls-25{fill:url(#linear-gradient-21);}.cls-26{fill:url(#linear-gradient-22);}.cls-27,.cls-39{fill:#fff;}.cls-28{fill:url(#linear-gradient-23);}.cls-29{fill:url(#linear-gradient-24);}.cls-30{fill:url(#linear-gradient-25);}.cls-31{fill:url(#linear-gradient-26);}.cls-32{fill:url(#linear-gradient-27);}.cls-33{fill:url(#linear-gradient-28);}.cls-34{fill:url(#linear-gradient-29);}.cls-35{fill:url(#linear-gradient-30);}.cls-36{fill:url(#linear-gradient-31);}.cls-37{fill:url(#linear-gradient-32);}.cls-38{fill:url(#linear-gradient-33);}.cls-39{opacity:0.78;}</style><linearGradient id="linear-gradient" x1="3.22" y1="157.15" x2="398.92" y2="157.15" gradientUnits="userSpaceOnUse"><stop offset="0" stop-color="#dae1f3"/><stop offset="1" stop-color="#e9effa"/></linearGradient><linearGradient id="linear-gradient-2" x1="-273.37" y1="71.06" x2="-264.29" y2="71.06" gradientTransform="matrix(-0.96, 0.27, 0.27, 0.96, -152.16, 131.97)" gradientUnits="userSpaceOnUse"><stop offset="0" stop-color="#937db9"/><stop offset="1" stop-color="#da99c4"/></linearGradient><linearGradient id="linear-gradient-3" x1="-2372.53" y1="240.59" x2="-2317.25" y2="74.74" gradientTransform="matrix(-1, 0, 0, 1, -2154.22, 0)" gradientUnits="userSpaceOnUse"><stop offset="0" stop-color="#232451"/><stop offset="1" stop-color="#2a307b"/></linearGradient><linearGradient id="linear-gradient-4" x1="89.95" y1="249.71" x2="289.28" y2="109.97" gradientUnits="userSpaceOnUse"><stop offset="0" stop-color="#40509e"/><stop offset="1" stop-color="#4857a3"/></linearGradient><linearGradient id="linear-gradient-5" x1="193.88" y1="260.13" x2="198.57" y2="233.03" gradientTransform="translate(389.12 512.37) rotate(-180)" xlink:href="#linear-gradient-3"/><linearGradient id="linear-gradient-6" x1="335.93" y1="267.49" x2="337.74" y2="251.43" xlink:href="#linear-gradient-4"/><linearGradient id="linear-gradient-7" x1="-113.77" y1="233.86" x2="-118.39" y2="265.83" gradientTransform="matrix(-1, 0, 0, 1, 217.75, 0)" xlink:href="#linear-gradient-4"/><linearGradient id="linear-gradient-8" x1="-125.97" y1="261.32" x2="-121.39" y2="261.32" gradientTransform="matrix(-1, 0, 0, 1, 217.75, 0)" gradientUnits="userSpaceOnUse"><stop offset="0" stop-color="#f2908f"/><stop offset="1" stop-color="#f6b2b2"/></linearGradient><linearGradient id="linear-gradient-9" x1="314.67" y1="259.53" x2="330.65" y2="243.55" xlink:href="#linear-gradient-4"/><linearGradient id="linear-gradient-10" x1="-90.84" y1="237.18" x2="-95.47" y2="269.15" gradientTransform="matrix(-1, 0, 0, 1, 217.75, 0)" xlink:href="#linear-gradient-4"/><linearGradient id="linear-gradient-11" x1="336.42" y1="225.03" x2="375.95" y2="266.01" gradientTransform="matrix(1, 0, 0, 1, 0, 0)" xlink:href="#linear-gradient-3"/><linearGradient id="linear-gradient-12" x1="-104.26" y1="261.71" x2="-98.79" y2="261.71" xlink:href="#linear-gradient-8"/><linearGradient id="linear-gradient-13" x1="352.81" y1="208.69" x2="351.55" y2="219.79" gradientTransform="matrix(1, 0, 0, 1, 0, 0)" xlink:href="#linear-gradient-3"/><linearGradient id="linear-gradient-14" x1="-138.89" y1="180.75" x2="-125.26" y2="180.75" xlink:href="#linear-gradient-8"/><linearGradient id="linear-gradient-15" x1="327.41" y1="193.33" x2="325.52" y2="201.37" gradientTransform="matrix(1, 0, 0, 1, 0, 0)" xlink:href="#linear-gradient-8"/><linearGradient id="linear-gradient-16" x1="352.3" y1="168.89" x2="343.91" y2="174.12" gradientTransform="matrix(1, 0, 0, 1, 0, 0)" xlink:href="#linear-gradient-8"/><linearGradient id="linear-gradient-17" x1="-488.65" y1="1861.36" x2="-473.95" y2="1861.36" gradientTransform="matrix(-0.99, -0.14, -0.14, 0.99, 130.37, -1734.84)" xlink:href="#linear-gradient-3"/><linearGradient id="linear-gradient-18" x1="-497.27" y1="1870.32" x2="-487.4" y2="1860.2" gradientTransform="matrix(-0.99, -0.14, -0.14, 0.99, 130.37, -1734.84)" xlink:href="#linear-gradient-8"/><linearGradient id="linear-gradient-19" x1="-4174.2" y1="-2121.71" x2="-4208" y2="-2089.03" gradientTransform="matrix(1.39, -0.07, 0.07, 1.39, 8976.85, -26.87)" xlink:href="#linear-gradient-3"/><linearGradient id="linear-gradient-20" x1="-6714.63" y1="-1573.17" x2="-6748.43" y2="-1540.49" gradientTransform="matrix(-0.65, -1.23, 1.23, -0.65, -5882.12, -10314.3)" xlink:href="#linear-gradient-3"/><linearGradient id="linear-gradient-21" x1="112.27" y1="156.71" x2="355.96" y2="156.71" gradientUnits="userSpaceOnUse"><stop offset="0" stop-color="#ee7065"/><stop offset="1" stop-color="#f2908f"/></linearGradient><linearGradient id="linear-gradient-22" x1="116.6" y1="93.63" x2="110.92" y2="123.14" xlink:href="#linear-gradient-21"/><linearGradient id="linear-gradient-23" x1="114.79" y1="111.88" x2="116.65" y2="201.19" xlink:href="#linear-gradient-21"/><linearGradient id="linear-gradient-24" x1="140.95" y1="27.01" x2="121.99" y2="52.46" xlink:href="#linear-gradient-21"/><linearGradient id="linear-gradient-25" x1="145.51" y1="30.4" x2="126.55" y2="55.86" xlink:href="#linear-gradient-21"/><linearGradient id="linear-gradient-26" x1="150.07" y1="33.8" x2="131.11" y2="59.25" xlink:href="#linear-gradient-21"/><linearGradient id="linear-gradient-27" x1="154.55" y1="37.14" x2="135.6" y2="62.59" xlink:href="#linear-gradient-21"/><linearGradient id="linear-gradient-28" x1="159.04" y1="40.48" x2="140.08" y2="65.93" xlink:href="#linear-gradient-21"/><linearGradient id="linear-gradient-29" x1="120.98" y1="82.2" x2="117.46" y2="113.34" xlink:href="#linear-gradient-21"/><linearGradient id="linear-gradient-30" x1="121.57" y1="82.27" x2="118.05" y2="113.41" xlink:href="#linear-gradient-21"/><linearGradient id="linear-gradient-31" x1="122.6" y1="82.39" x2="119.08" y2="113.53" xlink:href="#linear-gradient-21"/><linearGradient id="linear-gradient-32" x1="178.2" y1="74.41" x2="178.92" y2="74.41" xlink:href="#linear-gradient"/><linearGradient id="linear-gradient-33" x1="180.23" y1="62.63" x2="201.43" y2="62.63" xlink:href="#linear-gradient"/></defs><path class="cls-1" d="M388.61,163.42c-11-6-22.62-4-27.4-17.79C353,122,359.57,96.26,345.44,73.87c-18.37-29.11-61.26-36.52-92.67-30.41-32.7,6.35-60.82,27-94.08,31.46-13.65,1.83-28.18.66-40.71-5.4-16.71-8.08-30.12-20.3-49.75-19.58C36.54,51.11,11.79,61.5,4.74,94.78c-4.9,23.11,2.69,37.54,13.81,57.1C26.38,165.64,27,177.44,23,192.46c-4.47,16.59-8.78,37.77,1.91,52.86A67.3,67.3,0,0,0,65,271.52c20.14,4.4,37-2.73,53.15-14.57,22.17-16.25,60.5-29.5,87.81-22.31,23.86,6.28,41.5,27.21,66.64,31.26,17.35,2.8,43.2-1.65,48.78-21.23,1.47-5.13,1.41-10.72,3.78-15.51,5.48-11.06,19.37-10,29.78-11,11.24-1.08,23-6.45,31.74-13.56,5.79-4.73,10.47-11.15,11.88-18.5C400.18,177.47,396.53,167.73,388.61,163.42Z"/><path class="cls-2" d="M23,125.19a.57.57,0,0,1-.18,0l-3-.94a.61.61,0,0,1-.44-.56l-.07-2.43a11.75,11.75,0,0,1-2.63-2.18l-2.4.37a.61.61,0,0,1-.64-.33l-1.47-2.8a.61.61,0,0,1,.09-.71l1.66-1.76a11.86,11.86,0,0,1-.31-3.41l-2-1.43a.62.62,0,0,1-.22-.68l.94-3a.61.61,0,0,1,.56-.43l2.43-.08a12,12,0,0,1,2.18-2.63l-.36-2.39a.61.61,0,0,1,.32-.64l2.8-1.48a.62.62,0,0,1,.71.1l1.76,1.66a11.86,11.86,0,0,1,3.41-.32l1.44-2a.61.61,0,0,1,.68-.23l3,.94a.62.62,0,0,1,.43.57l.08,2.42A12,12,0,0,1,34.41,103l2.4-.37a.6.6,0,0,1,.63.32l1.48,2.81a.59.59,0,0,1-.1.7l-1.65,1.77a12.19,12.19,0,0,1,.31,3.41l2,1.43a.62.62,0,0,1,.23.68l-.94,3a.62.62,0,0,1-.57.43l-2.42.07a11.84,11.84,0,0,1-2.19,2.64l.37,2.39a.62.62,0,0,1-.32.64l-2.8,1.48a.62.62,0,0,1-.71-.1l-1.77-1.66a11.82,11.82,0,0,1-3.41.31l-1.43,2A.62.62,0,0,1,23,125.19Zm-2.85-1.69,2.79.87,1.61-2.21.22,0a11.41,11.41,0,0,0,3.59-.33l.21-.06,2,1.87,2.58-1.35-.42-2.7.17-.15a11.17,11.17,0,0,0,2.3-2.77l.11-.19,2.73-.08.86-2.78L36.66,112v-.22a10.77,10.77,0,0,0-.33-3.58l-.05-.22,1.87-2-1.36-2.57-2.7.41-.14-.16a10.93,10.93,0,0,0-2.77-2.3l-.19-.12-.09-2.73-2.78-.86-1.62,2.2H26.3a10.85,10.85,0,0,0-3.59.33l-.21,0-2-1.87-2.58,1.36.42,2.7-.17.14a11.32,11.32,0,0,0-2.3,2.77l-.11.19-2.73.09-.87,2.78L14.38,110l0,.22a11.35,11.35,0,0,0,.33,3.58l.06.21-1.87,2,1.36,2.58,2.7-.41.14.16a11,11,0,0,0,2.77,2.3l.19.11Zm10.3.22h0ZM20,123.47Zm-5.7-4.75ZM38,116.54Zm1-2.83Zm-.75-7.58Zm-1.48-2.81ZM17.82,99.8ZM28,97.64Zm.2-.06Zm-2.75,21.48a7.89,7.89,0,0,1-2.39-.37,8,8,0,1,1,9.5-11.43,7.74,7.74,0,0,1,.63,1.59l-.76.22a7.44,7.44,0,0,0-.57-1.44A7.25,7.25,0,1,0,19,114.39a7.26,7.26,0,0,0,12.61.39l.67.41a8,8,0,0,1-6.86,3.87Z"/><path class="cls-2" d="M25.52,114.24h-.17a3.19,3.19,0,0,1-2.22-1.06,3.21,3.21,0,1,1,4.78-4.29h0a3.21,3.21,0,0,1-.25,4.53A3.14,3.14,0,0,1,25.52,114.24Zm0-5.63a2.39,2.39,0,0,0-1.62.62,2.43,2.43,0,1,0,1.62-.62Z"/><path class="cls-2" d="M63.68,110.87a.85.85,0,0,1-.77-.52L61,105.63a23.54,23.54,0,0,1-6.81-2.36l-4.45,2.5a.83.83,0,0,1-1-.11L44,101.42a.82.82,0,0,1-.22-.94l2-4.72a23.42,23.42,0,0,1-3.14-6.48L37.66,87.9a.84.84,0,0,1-.6-.76l-.38-6.37A.84.84,0,0,1,37.2,80L41.92,78a23.54,23.54,0,0,1,2.36-6.81l-2.5-4.45a.85.85,0,0,1,.11-1L46.13,61a.83.83,0,0,1,.94-.21l4.72,2a23.45,23.45,0,0,1,6.48-3.15l1.38-4.91a.84.84,0,0,1,.75-.61l6.38-.37a.87.87,0,0,1,.82.51L69.54,59a23.56,23.56,0,0,1,6.81,2.37l4.45-2.5a.83.83,0,0,1,1,.1l4.78,4.25a.83.83,0,0,1,.21.94l-2,4.71a23.33,23.33,0,0,1,3.14,6.49l4.92,1.38h0a.85.85,0,0,1,.61.75l.37,6.38a.85.85,0,0,1-.52.82L88.6,86.58a23.66,23.66,0,0,1-2.37,6.81l2.5,4.45a.85.85,0,0,1-.1,1l-4.25,4.77a.82.82,0,0,1-.94.22l-4.71-2A23.9,23.9,0,0,1,72.24,105l-1.38,4.91a.82.82,0,0,1-.75.61l-6.38.38Zm-9.53-8.51.2.1a22.5,22.5,0,0,0,7,2.43l.22,0,2.11,5.12,6.41-.35,1.53-5.36.21-.07a22.63,22.63,0,0,0,6.65-3.22l.18-.12,5.11,2.13L88,98.27l-2.71-4.88.11-.19a22.74,22.74,0,0,0,2.42-7l0-.22L93,83.9l-.38-6.45L87.3,76l-.06-.21A22.72,22.72,0,0,0,84,69.1l-.12-.18L86,63.8l-4.78-4.28-4.88,2.71-.19-.11a22.89,22.89,0,0,0-7-2.42l-.22,0-2.11-5.12-6.41.35-1.53,5.36-.21.06a23,23,0,0,0-6.65,3.22l-.18.13-5.11-2.13-4.29,4.78,2.71,4.88-.11.19a22.89,22.89,0,0,0-2.42,7l0,.21L37.5,80.68l.35,6.42,5.36,1.53.06.21a22.78,22.78,0,0,0,3.23,6.65l.12.17-2.13,5.12,4.78,4.29Zm11-4.34A15.81,15.81,0,1,1,80.93,81.29a16.43,16.43,0,0,1-.16,3.36L80,84.53a14.26,14.26,0,0,0,.15-3.2A15,15,0,1,0,73.6,94.62l.44.66a15.85,15.85,0,0,1-8,2.71Q65.61,98,65.14,98Z"/><path class="cls-2" d="M65.26,88.36a6.07,6.07,0,0,1-5.39-8.87,6.07,6.07,0,1,1,5.39,8.87Zm0-11.34a5.41,5.41,0,0,0-1.58.24,5.27,5.27,0,0,0-3.09,2.6,5.21,5.21,0,0,0-.35,4,5.27,5.27,0,1,0,5-6.86Z"/><path class="cls-2" d="M308.36,47.84l11.47,27.69a25.92,25.92,0,0,1-1.32,22.59l-23.27,41.6a26,26,0,0,0-3.14,15.51l2.59,23.41a26,26,0,0,1-9.45,23h0a25.94,25.94,0,0,1-36-3.22l-14.51-16.82a25.94,25.94,0,0,1-3.62-28.43l15.21-30.8A25.91,25.91,0,0,0,249,109.7l-2.1-45.2a25.93,25.93,0,0,1,14.73-24.6l11.58-5.53A26,26,0,0,1,308.36,47.84Z"/><path class="cls-3" d="M263.73,211.89c-2-36.28,3.46-73.08,8.43-97.57,3-14.65,6-26.07,8-33.07,1.33-4.66,2.32-7.74,2.91-9.5,1.29-3.82,1.55-4,1.94-4.24a1.33,1.33,0,0,1,1.73,2c-1.86,3.54-24.13,74.41-20.32,142.26a1.33,1.33,0,0,1-1.25,1.4h-.22A1.33,1.33,0,0,1,263.73,211.89ZM286.39,69.75h0Zm0,0Z"/><path class="cls-4" d="M305.22,176.84a17,17,0,0,0,6.72-15.68,49.25,49.25,0,0,1,2.37-21.08c6.38-19.19,22.13-31.22,35.2-26.88s18.49,23.41,12.12,42.59a53,53,0,0,1-4.68,10.3,16.78,16.78,0,0,0-.92,15.53,21.51,21.51,0,0,1-14.54,29.8,16.88,16.88,0,0,0-10.08,7c-6.7,10-17.23,15.26-26.52,12.18-11.91-4-17.27-20.08-12-36A36.55,36.55,0,0,1,305.22,176.84Z"/><path class="cls-2" d="M294.49,252.54a.82.82,0,0,0,.84-.3c10.15-13.11,20-37.19,26.44-55.09,7-19.35,11.65-35.84,11.69-36a.82.82,0,0,0-.57-1,.84.84,0,0,0-1,.57c-.18.66-18.65,65.73-37.84,90.53a.83.83,0,0,0,.15,1.17A.63.63,0,0,0,294.49,252.54Z"/><path class="cls-4" d="M87.93,63.26l-5.28,22.4a20,20,0,0,0,3.79,17l22.77,28.66a20,20,0,0,1,4.3,11.37l.92,18.07a19.93,19.93,0,0,0,10,16.28h0a19.92,19.92,0,0,0,26.87-6.88l8.92-14.55a19.9,19.9,0,0,0-.76-22l-15.33-21.48a19.94,19.94,0,0,1-3.58-9.28l-4-34.53a19.91,19.91,0,0,0-14.2-16.83l-9.46-2.77A19.94,19.94,0,0,0,87.93,63.26Z"/><path class="cls-5" d="M141.26,183.21l-.16,0a1,1,0,0,1-1.12-.91C134.49,130.42,108.87,79.44,107,77a1,1,0,0,1,1.07-1.71c.33.15.54.24,2,3,.67,1.27,1.8,3.48,3.38,6.85,2.37,5.06,6.06,13.35,10.12,24.09,6.78,18,15.49,45.17,18.42,72.93A1,1,0,0,1,141.26,183.21Zm-34-106.06h0Zm0,0Z"/><path class="cls-2" d="M88.28,185.9a14.86,14.86,0,0,1-4-14.3,42.68,42.68,0,0,0,.41-18.44c-3.25-17.28-15.43-29.49-27.2-27.27s-18.66,18-15.41,35.3A45.31,45.31,0,0,0,45,170.61a14.62,14.62,0,0,1-1,13.49A18.71,18.71,0,0,0,53,211.48a14.63,14.63,0,0,1,7.88,7.22c4.6,9.42,13.07,15.16,21.43,13.58,10.73-2,17.23-15.29,14.53-29.65A31.73,31.73,0,0,0,88.28,185.9Z"/><path class="cls-3" d="M88.72,252.4A.71.71,0,0,1,88,252c-7.21-12.48-12.88-34.38-16.36-50.56-3.77-17.5-5.86-32.25-5.89-32.4a.72.72,0,0,1,.62-.81.73.73,0,0,1,.82.61c.08.59,8.42,58.82,22.06,82.44a.72.72,0,0,1-.26,1A.75.75,0,0,1,88.72,252.4Z"/><path class="cls-6" d="M75.57,246.6a4.34,4.34,0,0,0,4.32,4.33H314a4.34,4.34,0,0,0,4.33-4.33l1.95-134.51a7.55,7.55,0,0,0-7.94-6.68L83.54,99.49a10.92,10.92,0,0,0-11.19,11.16Z"/><path class="cls-7" d="M303.69,110.51,84.44,104.62a7.66,7.66,0,0,0-7.86,7.85l3.26,130a4.09,4.09,0,0,0,4.09,4.08H308.32a4.09,4.09,0,0,0,4.1-4.08l1.84-122.1C314,113,307.6,110.35,303.69,110.51Z"/><path class="cls-3" d="M310,184.4h0a.56.56,0,0,1-.55-.57l.14-9.9a.58.58,0,0,1,.57-.55.56.56,0,0,1,.54.57l-.14,9.9A.56.56,0,0,1,310,184.4Z"/><path class="cls-3" d="M310.35,160.13h0a.56.56,0,0,1-.54-.57l.55-37.93a7.18,7.18,0,0,0-2-5.36c-2.52-2.41-6.5-2.29-6.67-2.28l-70.07-1.88a.56.56,0,0,1,0-1.11h0l70,1.88c.44,0,4.64-.1,7.44,2.58a8.22,8.22,0,0,1,2.39,6.18l-.55,37.94A.57.57,0,0,1,310.35,160.13Z"/><rect class="cls-8" x="56.58" y="250.28" width="275.97" height="11.82" rx="4.48" transform="translate(389.12 512.37) rotate(180)"/><path class="cls-4" d="M228.38,212.49H160.74a3,3,0,0,1-3-3V144.24a3,3,0,0,1,3-3h67.64a3,3,0,0,1,3,3v65.28A3,3,0,0,1,228.38,212.49Zm-67.64-69.23a1,1,0,0,0-1,1v65.28a1,1,0,0,0,1,1h67.64a1,1,0,0,0,1-1V144.24a1,1,0,0,0-1-1Z"/><path class="cls-4" d="M218.69,151.56H170.43a2,2,0,0,0-2,2v46.29a2,2,0,0,0,2,2h8.7a2,2,0,0,0,2-2v-3.17a2,2,0,0,1,2-2H206a2,2,0,0,1,2,2v3.17a2,2,0,0,0,2,2h8.7a2,2,0,0,0,2-2V153.54A2,2,0,0,0,218.69,151.56Zm-40,17.08a1.51,1.51,0,0,1-1.51,1.52h-.13a1.52,1.52,0,0,1-1.52-1.52V157.43a1.52,1.52,0,0,1,1.52-1.52h.13a1.51,1.51,0,0,1,1.51,1.52Zm8.71,0a1.52,1.52,0,0,1-1.52,1.52h-.13a1.52,1.52,0,0,1-1.52-1.52V157.43a1.52,1.52,0,0,1,1.52-1.52h.13a1.52,1.52,0,0,1,1.52,1.52Zm8.7,0a1.52,1.52,0,0,1-1.52,1.52h-.13a1.52,1.52,0,0,1-1.51-1.52V157.43a1.52,1.52,0,0,1,1.51-1.52h.13a1.52,1.52,0,0,1,1.52,1.52Zm8.7,0a1.51,1.51,0,0,1-1.51,1.52h-.13a1.52,1.52,0,0,1-1.52-1.52V157.43a1.52,1.52,0,0,1,1.52-1.52h.13a1.51,1.51,0,0,1,1.51,1.52Zm8.71,0a1.52,1.52,0,0,1-1.52,1.52h-.13a1.52,1.52,0,0,1-1.52-1.52V157.43a1.52,1.52,0,0,1,1.52-1.52H212a1.52,1.52,0,0,1,1.52,1.52Z"/><path class="cls-3" d="M379,234.42c.7,1,3.46,24.32,3.9,32.93a1,1,0,0,1-1,1.06h0a1,1,0,0,1-1-.86l-5.05-32.39Z"/><path class="cls-3" d="M356.8,234.42c-.69,1-3.46,24.32-3.89,32.93a1,1,0,0,0,1,1.06h0a1,1,0,0,0,1-.86L360,235.16Z"/><path class="cls-3" d="M383.19,232.61v.25a3.46,3.46,0,0,1-3.53,3.36l-23.36.4a3.5,3.5,0,0,1-3.66-3.17v-.24a3.45,3.45,0,0,1,3.52-3.49l23.37-.42A3.48,3.48,0,0,1,383.19,232.61Z"/><path class="cls-9" d="M337.75,266.5c4.15,0,6-.36,6.81-.68A1.57,1.57,0,0,1,343,267H328.34a.71.71,0,0,1-.69-.9C329.32,266.27,332.88,266.5,337.75,266.5Z"/><path class="cls-10" d="M327.65,266.14a.58.58,0,0,1,.12-.25c1.12-1.43,3.37-3.68,6.42-3.63,4.48.06,6,.55,9.53,0l.82,2.73a1.59,1.59,0,0,1,0,.81c-.82.32-2.66.68-6.81.68C332.88,266.5,329.32,266.27,327.65,266.14Z"/><path class="cls-11" d="M342.71,259.35l1,3.43a5.92,5.92,0,0,1-4.2.2l-.39-3Z"/><path class="cls-12" d="M312.26,264.34c3.24,2.6,4.89,3.48,5.74,3.74a1.58,1.58,0,0,1-2,0l-11.45-9.2a.71.71,0,0,1,0-1.13C305.83,258.88,308.46,261.29,312.26,264.34Z"/><path class="cls-13" d="M304.61,257.73a.72.72,0,0,1,.25-.12c1.76-.41,4.92-.74,7.27,1.21,3.46,2.86,4.37,4.21,7.41,6l-1.06,2.62a1.6,1.6,0,0,1-.48.65c-.85-.26-2.5-1.14-5.74-3.74C308.46,261.29,305.83,258.88,304.61,257.73Z"/><path class="cls-14" d="M364.27,220.29s-24.86,2-30,4.43,4.16,36,4.16,36,1.39.67,4.48-.29c0,0-3.17-24.83-.81-30.22l26.92-4.4Z"/><path class="cls-15" d="M322,260.08c-.23.21-2.47,4.73-2.47,4.73s-2.49-.54-3-2.12l2.24-4.08Z"/><path class="cls-16" d="M379.24,220.08a12.38,12.38,0,0,1,.78,4.54,6.8,6.8,0,0,1-6.5,6.67l-29.39,1.34a1.41,1.41,0,0,0-1.3,1.06c-.69,2.67-4.07,10.88-20.57,27.24a1.33,1.33,0,0,1-1.65.18l-2.35-1.48a.54.54,0,0,1-.17-.73l17.11-29.22a6.6,6.6,0,0,1,4-3l25-6.4Z"/><path class="cls-17" d="M345.15,175.09s8.28,4.91,11.49,7.61L350,186.4s-3.59-4.14-7-5.87Z"/><path class="cls-18" d="M379.78,220.29s-7.94,1.93-15.51,0c0,0-10.6-14.24-14.7-18.12A29.12,29.12,0,0,1,328.48,214l-.81-1.81s11.59-5.35,15.15-13.55,5-11.71,8.25-13.85c2-1.34,3.23-2.25,3.86-2.75a1,1,0,0,1,1.18-.07C359.56,184,375.77,195.12,379.78,220.29Z"/><path class="cls-19" d="M329.36,211.19l-1.64-.44-5-1.15a2.33,2.33,0,0,0-1.75.29l-4.27,2.7,11.81,0Z"/><path class="cls-20" d="M337.07,171.49c0,.16,2.12,10.67,2.12,10.67l6-1.36-.55-10.25S337.46,168.8,337.07,171.49Z"/><path class="cls-21" d="M343.26,172.83l.72,5.38a.74.74,0,0,1,0,.21c-.06.42-.38,1.85-1.82,1.44a6.93,6.93,0,0,0-3.36-.44.77.77,0,0,0-.52.88,33.39,33.39,0,0,0,1.38,4.89.75.75,0,0,0,.91.45,24.23,24.23,0,0,0,5.27-2.15.78.78,0,0,0,.37-.69c-.06-1.35-.22-5.48-.08-6.64s1.45-1.73,2-2a.74.74,0,0,0,.42-.41,2,2,0,0,0-1.32-2.86.77.77,0,0,1-.48-1,2,2,0,0,0-1.11-2.72,2.78,2.78,0,0,0-3.31.8.77.77,0,0,1-1,.12.58.58,0,0,0-.68,0,.74.74,0,0,1-1-.32,2.27,2.27,0,0,0-2.63-1.31c-2.68.46-3,3.42-2.28,5.16s3.58,1.08,5,.2c1.1-.67,2.52,0,3.14.41A.72.72,0,0,1,343.26,172.83Z"/><path class="cls-22" d="M346.37,178.12s-1.1-3.08,0-3.83,2.8-.36,2.43,1.87C348.37,178.93,346.37,178.12,346.37,178.12Z"/><path class="cls-23" d="M333.92,214.9h-.06l-25.23,0a1.13,1.13,0,0,1,0-2.26l25.23,0a1.13,1.13,0,0,1,.06,2.25Z"/><path class="cls-24" d="M298.85,190.19l0,.05,10.62,22.89a1.13,1.13,0,0,1-.55,1.5,1.12,1.12,0,0,1-1.5-.55l-10.62-22.89a1.14,1.14,0,0,1,.55-1.5A1.13,1.13,0,0,1,298.85,190.19Z"/><path class="cls-2" d="M322.68,216.17c.11.46,10.64,39.94,13.31,50a1.8,1.8,0,0,1-1.73,2.28h0a1.81,1.81,0,0,1-1.74-1.37l-11.69-47.39Z"/><path class="cls-2" d="M316.92,216.17c-.11.46-10.64,39.94-13.31,50a1.8,1.8,0,0,0,1.73,2.28h0a1.81,1.81,0,0,0,1.74-1.37l11.69-47.39Z"/><path class="cls-2" d="M316.48,214.88H323v5.26a1.36,1.36,0,0,1-1.36,1.37h-.9v11.83a1,1,0,0,1-1,1h0a1,1,0,0,1-1-1V221.51h-.45a1.8,1.8,0,0,1-1.8-1.81Z"/><path class="cls-2" d="M339.16,213.61H302.54a1.12,1.12,0,0,0-1.08.85l-.51,2a1.13,1.13,0,0,0,1.09,1.42l37.57-.22a1.13,1.13,0,0,0,1.08-1.41l-.44-1.79A1.14,1.14,0,0,0,339.16,213.61Z"/><path class="cls-25" d="M263.05,239.39H136.35a24.12,24.12,0,0,1-24.08-24.08v-67.7a2.77,2.77,0,1,1,5.54,0v67.7a18.56,18.56,0,0,0,18.54,18.54h126.7a18.56,18.56,0,0,0,18.54-18.54V98.1A24.1,24.1,0,0,1,305.67,74h26.21A24.1,24.1,0,0,1,356,98.1v72.06a2.77,2.77,0,1,1-5.54,0V98.1a18.55,18.55,0,0,0-18.54-18.53H305.67A18.55,18.55,0,0,0,287.13,98.1V215.31A24.11,24.11,0,0,1,263.05,239.39Z"/><rect class="cls-26" x="95.26" y="79.57" width="39.56" height="44.31"/><path class="cls-27" d="M131.26,68.88H98.82a3.57,3.57,0,0,0-3.56,3.56V92.62h39.56V72.44A3.56,3.56,0,0,0,131.26,68.88Z"/><path class="cls-27" d="M106,89.46q2.15,10.29,4.3,20.6a2.42,2.42,0,0,0,2.38,1.94h4.79a2.44,2.44,0,0,0,2.38-1.94q2.15-10.31,4.3-20.6Z"/><path class="cls-28" d="M95.53,123.87q4.45,14.4,8.9,28.81a4.59,4.59,0,0,0,4.39,3.23h12.45a4.6,4.6,0,0,0,4.39-3.23q4.44-14.42,8.9-28.81Z"/><path class="cls-29" d="M103.18,86.55a2,2,0,0,1-1.86,2.11h-.12a2,2,0,0,1-2-2.11V74.16a2,2,0,0,1,2-2.11h.12a2,2,0,0,1,1.86,2.11Z"/><path class="cls-30" d="M110.3,86.55a2,2,0,0,1-1.94,2.11h-.12a2,2,0,0,1-1.9-2.11V74.16a2,2,0,0,1,1.9-2.11h.12a2,2,0,0,1,1.94,2.11Z"/><path class="cls-31" d="M117.42,86.55a2.08,2.08,0,0,1-2,2.11h-.12a1.92,1.92,0,0,1-1.82-2.11V74.16a1.92,1.92,0,0,1,1.82-2.11h.12a2.08,2.08,0,0,1,2,2.11Z"/><path class="cls-32" d="M124.54,86.55a2.14,2.14,0,0,1-2.1,2.11h-.12a2.17,2.17,0,0,1-2.13-2.11V74.16a2.17,2.17,0,0,1,2.13-2.11h.12a2.14,2.14,0,0,1,2.1,2.11Z"/><path class="cls-33" d="M131.26,86.55a1.89,1.89,0,0,1-1.78,2.11h-.12a2.11,2.11,0,0,1-2.05-2.11V74.16a2.11,2.11,0,0,1,2.05-2.11h.12a1.89,1.89,0,0,1,1.78,2.11Z"/><rect class="cls-34" x="95.66" y="131.39" width="39.16" height="3.16" rx="1.52"/><path class="cls-35" d="M132.45,140.06c0,.79-.41,1.61-1.15,1.61H99.17a1.72,1.72,0,0,1-1.53-1.61v-.12a1.55,1.55,0,0,1,1.53-1.43H131.3c.74,0,1.15.64,1.15,1.43Z"/><path class="cls-36" d="M130.47,147.48c0,.74-.23,1.71-.89,1.71H101.3c-.66,0-1.29-1-1.29-1.71v-.12A1.34,1.34,0,0,1,101.3,146h28.28c.66,0,.89.59.89,1.33Z"/><path class="cls-27" d="M321.65,206l.46-1.12a.59.59,0,1,0-1.1-.45h0v0l-.44,1.08v0a.59.59,0,0,0,.33.77A.58.58,0,0,0,321.65,206Z"/><path class="cls-27" d="M323,202.22l.33-1.16a.62.62,0,0,0-.43-.76.6.6,0,0,0-.76.42h0v0l-.31,1.12v0a.61.61,0,0,0,.43.75A.61.61,0,0,0,323,202.22Z"/><path class="cls-27" d="M324,198.31l.2-1.19a.64.64,0,0,0-1.26-.21h0v0l-.18,1.15v0a.62.62,0,0,0,.52.72A.63.63,0,0,0,324,198.31Z"/><path class="cls-27" d="M324.51,194.32l.07-1.2a.66.66,0,1,0-1.31-.08h0v0l-.06,1.17v0a.64.64,0,0,0,.61.68A.65.65,0,0,0,324.51,194.32Z"/><path class="cls-27" d="M324.61,190.3l0-1.2a.68.68,0,0,0-1.36.05h0v0l.06,1.16v0a.68.68,0,0,0,.71.64A.67.67,0,0,0,324.61,190.3Z"/><path class="cls-27" d="M324.32,186.29l-.17-1.2a.7.7,0,0,0-1.38.19h0v0l.18,1.16v0a.69.69,0,0,0,1.37-.2Z"/><path class="cls-27" d="M323.63,182.33l-.28-1.18a.72.72,0,0,0-.86-.53.71.71,0,0,0-.53.86h0v0l.29,1.13v0a.71.71,0,0,0,1.38-.33Z"/><path class="cls-27" d="M322.57,178.44l-.39-1.14a.74.74,0,0,0-1.4.48h0v0l.39,1.1v0a.73.73,0,0,0,.93.45A.74.74,0,0,0,322.57,178.44Z"/><path class="cls-27" d="M321.14,174.68l-.5-1.1a.76.76,0,0,0-1.38.62h0v0l.49,1.06v0a.75.75,0,0,0,1.36-.63Z"/><path class="cls-27" d="M319.35,171.07l-.61-1a.77.77,0,0,0-1.05-.28.78.78,0,0,0-.29,1.06h0v0l.59,1v0a.78.78,0,0,0,1.05.27A.77.77,0,0,0,319.35,171.07Z"/><path class="cls-27" d="M317.21,167.65l-.71-1a.79.79,0,1,0-1.28.93h0l0,0,.68.94h0a.78.78,0,0,0,1.27-.92Z"/><path class="cls-27" d="M314.72,164.47l-.81-.9a.79.79,0,0,0-1.13-.06.81.81,0,0,0-.06,1.13h0v0l.78.86,0,0a.8.8,0,0,0,1.18-1.07Z"/><path class="cls-27" d="M311.91,161.57l-.9-.81a.82.82,0,0,0-1.15.06.8.8,0,0,0,.07,1.14h0l0,0,.87.76,0,0a.8.8,0,1,0,1.07-1.2Z"/><path class="cls-27" d="M308.79,159l-1-.7a.82.82,0,1,0-.95,1.34h0l0,0,.95.66,0,0a.82.82,0,1,0,.94-1.34Z"/><path class="cls-27" d="M305.4,156.78l-1-.59a.85.85,0,0,0-1.14.32.83.83,0,0,0,.32,1.13h0l0,0,1,.56h0a.82.82,0,0,0,1.12-.32A.83.83,0,0,0,305.4,156.78Z"/><path class="cls-27" d="M301.82,154.93l-1.11-.48A.84.84,0,0,0,300,156h0l1.06.46h0a.83.83,0,0,0,1.1-.44A.84.84,0,0,0,301.82,154.93Z"/><path class="cls-27" d="M298.07,153.43l-1.14-.38a.85.85,0,1,0-.54,1.62h0l1.11.36h0a.85.85,0,0,0,.53-1.62Z"/><path class="cls-27" d="M294.22,152.28,293,152a.86.86,0,0,0-.4,1.68h0l1.13.27h0a.86.86,0,0,0,1-.64A.85.85,0,0,0,294.22,152.28Z"/><path class="cls-27" d="M290.28,151.43l-1.19-.19a.88.88,0,0,0-.28,1.73h0l1.15.18h0a.88.88,0,0,0,.27-1.73Z"/><path class="cls-27" d="M286.3,150.89l-1.19-.12a.89.89,0,0,0-.17,1.77h0l1.17.1h0a.88.88,0,0,0,.15-1.75Z"/><path class="cls-27" d="M282.3,150.6l-1.2,0a.9.9,0,0,0-.05,1.79h0l1.17,0h0a.89.89,0,0,0,.92-.87A.91.91,0,0,0,282.3,150.6Z"/><path class="cls-27" d="M278.3,150.56l-1.21,0a.91.91,0,0,0,.05,1.82h0l1.17,0h0a.91.91,0,0,0-.05-1.81Z"/><path class="cls-27" d="M274.3,150.74l-1.2.1a.91.91,0,1,0,.14,1.82h0l1.17-.1h0a.91.91,0,0,0-.14-1.82Z"/><path class="cls-27" d="M270.32,151.12l-1.19.15a.93.93,0,0,0-.8,1,.91.91,0,0,0,1,.79h0l1.17-.15h0a.92.92,0,0,0-.23-1.82Z"/><path class="cls-27" d="M266.36,151.68l-1.18.21a.92.92,0,1,0,.31,1.81h0l1.16-.2h0a.92.92,0,0,0-.31-1.82Z"/><path class="cls-27" d="M262.43,152.41l-1.17.24a.92.92,0,0,0-.71,1.1.91.91,0,0,0,1.09.71h0l1.15-.24h0a.94.94,0,0,0,.72-1.1A.92.92,0,0,0,262.43,152.41Z"/><path class="cls-27" d="M258.54,153.27l-1.16.28a.93.93,0,0,0,.44,1.81h0l1.15-.29h0a.93.93,0,0,0-.44-1.8Z"/><path class="cls-27" d="M254.68,154.26l-1.15.32a.92.92,0,0,0-.65,1.14.93.93,0,0,0,1.15.65h0l1.13-.32h0a.93.93,0,1,0-.5-1.79Z"/><path class="cls-27" d="M250.85,155.36l-1.14.35a.94.94,0,0,0,.56,1.79h0l1.13-.35h0a.94.94,0,0,0-.56-1.79Z"/><path class="cls-27" d="M247.06,156.57l-1.13.39a.94.94,0,1,0,.61,1.78h0l1.12-.38h0a.93.93,0,0,0,.58-1.19A1,1,0,0,0,247.06,156.57Z"/><path class="cls-27" d="M243.31,157.89l-1.12.41a.94.94,0,1,0,.65,1.77h0l1.1-.41h0a.94.94,0,0,0-.65-1.77Z"/><path class="cls-27" d="M239.58,159.3l-1.1.44a.95.95,0,1,0,.69,1.76h0l1.1-.44h0a.95.95,0,0,0-.7-1.76Z"/><path class="cls-27" d="M235.9,160.8l-1.1.46a1,1,0,0,0-.5,1.25.94.94,0,0,0,1.24.5h0l1.08-.46h0a.95.95,0,0,0-.74-1.74Z"/><path class="cls-27" d="M232.25,162.37l-1.09.49a1,1,0,0,0,.78,1.74h0l1.07-.49h0a1,1,0,1,0-.78-1.74Z"/><path class="cls-27" d="M228.63,164l-1.07.51a1,1,0,0,0,.81,1.73h0l1.06-.51h0a.94.94,0,0,0,.45-1.27A1,1,0,0,0,228.63,164Z"/><path class="cls-27" d="M225.05,165.73l-1.07.53a1,1,0,1,0,.85,1.72h0l1.06-.52h0a1,1,0,1,0-.85-1.73Z"/><path class="cls-27" d="M221.5,167.51l-1.06.54a1,1,0,0,0,.87,1.72h0l1.05-.54h0a1,1,0,0,0-.88-1.71Z"/><path class="cls-27" d="M218,169.33l-1.05.56a1,1,0,0,0,.9,1.71h0l1-.56h0a1,1,0,0,0-.91-1.71Z"/><path class="cls-27" d="M214.47,171.2l-1,.57a1,1,0,1,0,.93,1.7h0l1-.56h0a1,1,0,1,0-.93-1.71Z"/><path class="cls-27" d="M211,173.12l-1,.58a1,1,0,0,0,.94,1.69h0l1-.58h0a1,1,0,0,0-.94-1.69Z"/><path class="cls-27" d="M207.54,175.07l-1,.59a1,1,0,1,0,1,1.67h0l1-.59h0a1,1,0,0,0-.95-1.67Z"/><path class="cls-27" d="M204.11,177.05l-1,.6a1,1,0,0,0-.35,1.31,1,1,0,0,0,1.32.35l1-.6a1,1,0,0,0-1-1.66Z"/><path class="cls-27" d="M200.69,179.05l-1,.6a1,1,0,0,0-.34,1.31,1,1,0,0,0,1.31.34l1-.6a1,1,0,1,0-1-1.65Z"/><path class="cls-27" d="M197.28,181.06l-1,.6a1,1,0,1,0,1,1.64l1-.6a1,1,0,0,0-1-1.64Z"/><path class="cls-27" d="M193.87,183.06l-1,.6a.95.95,0,1,0,1,1.64l1-.6a.94.94,0,0,0,.34-1.29,1,1,0,0,0-1.3-.35Z"/><path class="cls-27" d="M190.45,185l-1,.59h0a.95.95,0,0,0,.94,1.65l1-.59a.95.95,0,0,0-.94-1.65h0Z"/><path class="cls-27" d="M187,187l-1,.57h0a1,1,0,0,0-.37,1.29.93.93,0,0,0,1.28.36l1-.57A.94.94,0,1,0,187,187h0Z"/><path class="cls-27" d="M183.57,188.88l-1,.56h0a.94.94,0,1,0,.88,1.66l1-.56a.94.94,0,0,0-.88-1.66Z"/><path class="cls-27" d="M180.08,190.7l-1.06.54h0a.93.93,0,1,0,.84,1.67l1.07-.53a.94.94,0,0,0-.84-1.68Z"/><path class="cls-27" d="M176.55,192.44l-1.07.5h0a.93.93,0,0,0,.79,1.69l1.08-.51a.93.93,0,1,0-.79-1.69h0Z"/><path class="cls-27" d="M173,194.08l-1.08.46h0a.93.93,0,1,0,.74,1.7l1.1-.47a.92.92,0,0,0,.48-1.22.93.93,0,0,0-1.22-.49h0Z"/><path class="cls-27" d="M169.36,195.59l-1.09.43h0a.93.93,0,0,0,.67,1.73l1.12-.44a.94.94,0,0,0,.53-1.2,1,1,0,0,0-1.21-.53h0Z"/><path class="cls-27" d="M165.69,197l-1.11.39h0a.92.92,0,0,0-.57,1.17.93.93,0,0,0,1.17.58l1.14-.39a.93.93,0,0,0-.6-1.75h0Z"/><path class="cls-27" d="M162,198.18l-1.12.32h0a.92.92,0,0,0-.62,1.14.91.91,0,0,0,1.14.62l1.15-.33a.92.92,0,0,0-.51-1.77h0Z"/><path class="cls-27" d="M158.2,199.21l-1.14.27h0a.91.91,0,0,0-.68,1.11.92.92,0,0,0,1.1.68l1.17-.28a.92.92,0,0,0-.42-1.79h0Z"/><path class="cls-27" d="M154.38,200.05l-1.15.21h0a.92.92,0,1,0,.33,1.8l1.18-.22a.92.92,0,0,0-.33-1.8h0Z"/><path class="cls-27" d="M150.53,200.67l-1.16.15h0a.91.91,0,0,0,.23,1.81l1.19-.15a.91.91,0,0,0,.8-1,.92.92,0,0,0-1-.8h0Z"/><path class="cls-27" d="M146.65,201.08l-1.16.08h0a.9.9,0,0,0,.11,1.79l1.2-.07a.9.9,0,1,0-.11-1.8h0Z"/><path class="cls-27" d="M142.76,201.24h-1.19a.89.89,0,0,0,0,1.78h1.21a.9.9,0,1,0,0-1.79h0Z"/><path class="cls-27" d="M138.87,201.14l-1.16-.09h0a.88.88,0,0,0-.95.81.89.89,0,0,0,.81.94l1.2.1a.89.89,0,0,0,.95-.81.88.88,0,0,0-.81-1h0Z"/><path class="cls-27" d="M135,200.74l-1.15-.17h0a.87.87,0,0,0-1,.73.86.86,0,0,0,.72,1l1.19.19a.88.88,0,0,0,1-.73.86.86,0,0,0-.72-1h0Z"/><path class="cls-27" d="M131.18,200.05l-1.13-.28h0a.86.86,0,0,0-.4,1.67l1.18.29a.86.86,0,0,0,.4-1.68h0Z"/><path class="cls-27" d="M127.43,199l-1.1-.37h0a.87.87,0,0,0-1.08.54.84.84,0,0,0,.54,1.07l1.14.39a.85.85,0,0,0,.55-1.61h0Z"/><path class="cls-27" d="M123.8,197.69l-1.07-.47h0a.84.84,0,0,0-.68,1.54l1.11.49a.85.85,0,0,0,1.11-.43.84.84,0,0,0-.43-1.11h0Z"/><path class="cls-27" d="M120.29,196l-1-.56h0a.83.83,0,1,0-.8,1.46l1.06.58a.83.83,0,1,0,.8-1.46h0Z"/><path class="cls-27" d="M116.94,194.06l-1-.65h0a.82.82,0,0,0-.92,1.36l1,.67a.82.82,0,1,0,.91-1.36h0Z"/><path class="cls-27" d="M113.78,191.8l-.92-.72v0a.82.82,0,0,0-1.14.13.81.81,0,0,0,.12,1.14l.94.76a.82.82,0,0,0,1.15-.13.81.81,0,0,0-.13-1.14h0Z"/><path class="cls-27" d="M110.81,189.29l-.85-.8v0a.8.8,0,0,0-1.13,0,.79.79,0,0,0,0,1.13l.87.84a.8.8,0,0,0,1.13,0,.79.79,0,0,0,0-1.13h0Z"/><path class="cls-27" d="M108.07,186.53l-.77-.87,0,0a.79.79,0,0,0-1.18,1.05l.8.91a.79.79,0,0,0,1.19-1h0Z"/><path class="cls-27" d="M105.58,183.55l-.69-.94,0,0a.78.78,0,0,0-1.25.93l.71,1a.78.78,0,0,0,1.27-.92h0Z"/><path class="cls-27" d="M103.36,180.36l-.61-1v0a.76.76,0,0,0-1-.25.75.75,0,0,0-.25,1l.62,1a.77.77,0,1,0,1.31-.8h0Z"/><path class="cls-27" d="M101.43,177l-.52-1.05v0a.74.74,0,0,0-1-.33.75.75,0,0,0-.34,1l.53,1.09a.75.75,0,0,0,1.35-.66h0Z"/><path class="cls-27" d="M99.81,173.45l-.42-1.09v0a.72.72,0,0,0-1.35.52l.42,1.13a.74.74,0,0,0,1,.43.74.74,0,0,0,.42-.95h0Z"/><path class="cls-27" d="M98.52,169.78l-.32-1.12v0a.71.71,0,0,0-1.36.39l.32,1.16a.72.72,0,1,0,1.38-.38h0Z"/><path class="cls-27" d="M97.55,166l-.22-1.15h0a.69.69,0,0,0-.81-.55.69.69,0,0,0-.55.81l.23,1.18a.69.69,0,0,0,.81.56.7.7,0,0,0,.56-.82h0Z"/><path class="cls-27" d="M96.91,162.17,96.79,161h0a.69.69,0,0,0-.75-.6.68.68,0,0,0-.6.74l.12,1.2a.68.68,0,0,0,1.36-.14h0Z"/><path class="cls-27" d="M96.61,158.28l0-1.17v0a.66.66,0,0,0-.67-.64.67.67,0,0,0-.65.67l0,1.2a.67.67,0,0,0,1.33,0h0Z"/><path class="cls-27" d="M96.63,154.38l.08-1.17v0a.64.64,0,0,0-1.28-.08l-.09,1.2a.66.66,0,0,0,.6.69.64.64,0,0,0,.69-.6h0Z"/><path class="cls-27" d="M97,150.5l.17-1.16v0a.62.62,0,1,0-1.23-.19l-.19,1.19a.64.64,0,0,0,.52.72.63.63,0,0,0,.72-.52h0Z"/><path class="cls-27" d="M97.7,146.66l.28-1.14h0a.61.61,0,0,0-1.18-.29l-.29,1.16a.6.6,0,0,0,.44.74.6.6,0,0,0,.74-.44h0Z"/><path class="cls-4" d="M74.5,205.37,10.06,205a3.39,3.39,0,0,0-2.92,5.13l.32.54a3.37,3.37,0,0,0,2.9,1.64H74.48a3.38,3.38,0,0,0,3.38-3.38v-.18A3.39,3.39,0,0,0,74.5,205.37Z"/><path class="cls-4" d="M83.5,208.83v.11a3.39,3.39,0,0,0,3.38,3.38h14.31a3.39,3.39,0,0,0,3.27-2.51h0a3.39,3.39,0,0,0-3.25-4.26l-14.3-.1A3.38,3.38,0,0,0,83.5,208.83Z"/><path class="cls-4" d="M59,217.52l-48.94-.36a3.38,3.38,0,0,0-2.92,5.12l.32.54a3.37,3.37,0,0,0,2.9,1.64H59a3.38,3.38,0,0,0,3.38-3.38v-.18A3.38,3.38,0,0,0,59,217.52Z"/><path class="cls-4" d="M68,221v.11a3.38,3.38,0,0,0,3.38,3.38H85.69A3.39,3.39,0,0,0,89,222h0a3.38,3.38,0,0,0-3.25-4.25l-14.3-.11A3.39,3.39,0,0,0,68,221Z"/><path class="cls-4" d="M343.5,56.63l-64.44-.36a3.38,3.38,0,0,0-2.92,5.12l.32.54a3.37,3.37,0,0,0,2.9,1.64h64.12a3.38,3.38,0,0,0,3.39-3.38V60A3.39,3.39,0,0,0,343.5,56.63Z"/><path class="cls-4" d="M352.5,60.09v.1a3.38,3.38,0,0,0,3.39,3.38h14.3a3.39,3.39,0,0,0,3.27-2.51h0a3.38,3.38,0,0,0-3.24-4.25l-14.31-.11A3.39,3.39,0,0,0,352.5,60.09Z"/><path class="cls-4" d="M328,68.77l-48.94-.36a3.39,3.39,0,0,0-2.92,5.13l.32.54a3.4,3.4,0,0,0,2.9,1.64H328a3.38,3.38,0,0,0,3.38-3.39v-.18A3.38,3.38,0,0,0,328,68.77Z"/><path class="cls-4" d="M337,72.23v.1a3.39,3.39,0,0,0,3.38,3.39h14.31A3.39,3.39,0,0,0,358,73.21h0A3.39,3.39,0,0,0,354.71,69l-14.3-.1A3.38,3.38,0,0,0,337,72.23Z"/><circle class="cls-3" cx="197.72" cy="76.65" r="21.66" transform="translate(97.49 263.52) rotate(-82.98)"/><circle class="cls-2" cx="197.72" cy="76.65" r="20.94" transform="translate(-13.73 60.59) rotate(-16.85)"/><path class="cls-37" d="M178.42,75.84h0a.21.21,0,0,1-.2-.23,18.52,18.52,0,0,1,.28-2.46.21.21,0,0,1,.26-.17.22.22,0,0,1,.18.25,17.65,17.65,0,0,0-.28,2.4A.23.23,0,0,1,178.42,75.84Z"/><path class="cls-38" d="M180.45,68.17l-.1,0a.22.22,0,0,1-.09-.3,19.45,19.45,0,0,1,17.46-10.76,19.81,19.81,0,0,1,3.53.32.22.22,0,1,1-.08.44,19.15,19.15,0,0,0-20.52,10.2A.24.24,0,0,1,180.45,68.17Z"/><circle class="cls-39" cx="198.18" cy="77.1" r="17.73" transform="translate(51.1 230.69) rotate(-67.5)"/><path class="cls-2" d="M194,79.57a6.2,6.2,0,0,1,8.75.56,6.12,6.12,0,0,1,.39.5.42.42,0,0,0,.67,0l.59-.69a.42.42,0,0,0,0-.53,5.07,5.07,0,0,0-.36-.45,8,8,0,0,0-11.19-.73,7.71,7.71,0,0,0-.7.7.42.42,0,0,0,.05.61l.69.56a.42.42,0,0,0,.58,0A5,5,0,0,1,194,79.57Z"/><path class="cls-2" d="M191.05,76.2a10.68,10.68,0,0,1,15.06,1h0a.42.42,0,0,0,.63,0l.58-.69v-.56a12.43,12.43,0,0,0-17.42-1,12.06,12.06,0,0,0-1.23,1.25.41.41,0,0,0,.06.6l.69.56a.42.42,0,0,0,.58,0A11.53,11.53,0,0,1,191.05,76.2Z"/><path class="cls-2" d="M188.1,72.84a15.16,15.16,0,0,1,20.93.92.43.43,0,0,0,.63,0l.58-.68a.43.43,0,0,0,0-.57,16.89,16.89,0,0,0-23.26-1,16.39,16.39,0,0,0-1.75,1.79.41.41,0,0,0,.06.6l.68.56a.43.43,0,0,0,.59-.06A15.58,15.58,0,0,1,188.1,72.84Z"/><circle class="cls-2" cx="198.3" cy="82.98" r="2.9" transform="translate(-13.76 47.78) rotate(-13.28)"/></svg>