<svg xmlns="http://www.w3.org/2000/svg" xmlns:xlink="http://www.w3.org/1999/xlink" viewBox="0 0 400 300"><defs><style>.cls-1,.cls-3{mask:url(#mask);}.cls-1{filter:url(#luminosity-noclip-3);}.cls-2,.cls-4{mix-blend-mode:multiply;}.cls-2{fill:url(#linear-gradient);}.cls-3{filter:url(#luminosity-noclip-4);}.cls-4{fill:url(#linear-gradient-2);}.cls-5{isolation:isolate;}.cls-6{mask:url(#mask-3);}.cls-7{fill:url(#linear-gradient-3);}.cls-8{mask:url(#mask-4);}.cls-9{fill:url(#linear-gradient-4);}.cls-10{fill:#fff;}.cls-11{fill:url(#linear-gradient-5);}.cls-12{fill:#e55553;}.cls-13{fill:#3b3b40;}.cls-14{fill:#eea886;}.cls-15{fill:#3d4145;}.cls-16{fill:#e94546;}.cls-17{fill:#a77961;}.cls-18{fill:#314663;}.cls-19{fill:#535353;}.cls-20{fill:#101f2c;}.cls-21{fill:#6191cc;}.cls-22{fill:#675a56;}.cls-23{fill:#887772;}.cls-24{fill:#34395c;}.cls-25{fill:#3d4269;}.cls-26{fill:#3a3d63;}.cls-27{fill:#3f659a;}.cls-28{fill:#2c2e4b;}.cls-29{fill:#373a5e;}.cls-30{fill:#40446e;}.cls-31{fill:#eedad3;}.cls-32{fill:#e9754e;}.cls-33{fill:#d0bfb9;}.cls-34{fill:#d6c5be;}.cls-35{fill:#4a5081;}.cls-36{fill:#6b77b8;}.cls-37{fill:#323657;}.cls-38{fill:#fbe6de;}.cls-39{fill:#262740;}.cls-40{fill:#3e426b;}.cls-41{fill:#353a3d;}.cls-42{fill:#82817f;}.cls-43{fill:#2a2c48;}.cls-44{fill:#233348;}.cls-45{fill:#626262;}.cls-46{fill:#e0cec7;}.cls-47{fill:#ca8463;}.cls-48{fill:#162d40;}.cls-49{fill:#1d3b54;}.cls-50{fill:#295173;}.cls-51{fill:#262f3c;}.cls-52{fill:#54281a;}.cls-53{fill:#88402c;}.cls-54{fill:#597ba4;}.cls-55{fill:url(#linear-gradient-6);}.cls-56{fill:#fdc958;}.cls-57{fill:#77aadc;opacity:0.73;}.cls-57,.cls-69{mix-blend-mode:screen;}.cls-58{fill:#444;}.cls-59{fill:#555655;}.cls-60{fill:#decbc4;}.cls-61{fill:#4a5156;}.cls-62{fill:#5e686d;}.cls-63{fill:#e3d3cc;}.cls-64{fill:#52575d;}.cls-65{fill:#f6e3da;}.cls-66{fill:#474258;}.cls-67{fill:#ad9f99;}.cls-68{fill:#6a747b;}.cls-69{fill:#a7caec;opacity:0.98;}.cls-70{fill:#db9c7c;}.cls-71{filter:url(#luminosity-noclip);}</style><filter id="luminosity-noclip" x="9.74" y="-8342" width="380.79" height="32766" filterUnits="userSpaceOnUse" color-interpolation-filters="sRGB"><feFlood flood-color="#fff" result="bg"/><feBlend in="SourceGraphic" in2="bg"/></filter><mask id="mask" x="9.74" y="-8342" width="380.79" height="32766" maskUnits="userSpaceOnUse"><g class="cls-71"/></mask><linearGradient id="linear-gradient" x1="200.13" y1="73.08" x2="200.13" y2="126.07" gradientUnits="userSpaceOnUse"><stop offset="0" stop-color="#fff"/><stop offset="1"/></linearGradient><linearGradient id="linear-gradient-2" x1="200.13" y1="95.8" x2="200.13" y2="140.11" xlink:href="#linear-gradient"/><filter id="luminosity-noclip-3" x="9.74" y="58.5" width="380.79" height="176.65" filterUnits="userSpaceOnUse" color-interpolation-filters="sRGB"><feFlood flood-color="#fff" result="bg"/><feBlend in="SourceGraphic" in2="bg"/></filter><mask id="mask-3" x="9.74" y="58.5" width="380.79" height="176.65" maskUnits="userSpaceOnUse"><g class="cls-1"><polygon class="cls-2" points="390.53 82.89 390.53 235.14 9.74 235.14 9.74 118.35 9.74 118.35 9.74 87.98 22.05 87.98 22.05 103.45 37.74 103.45 43.95 110.67 50.25 110.67 50.25 73.24 64.74 73.24 64.74 82.89 77.03 82.89 77.03 101.5 93.55 101.5 93.55 78.14 106.59 78.14 106.59 87.97 113.37 87.97 119.23 81.14 125.91 81.14 125.91 58.5 144.58 58.5 144.58 92.11 163.66 92.11 163.66 100.21 171.05 100.21 171.05 87.98 199.25 87.98 199.25 101.5 210.03 101.5 210.03 82.89 226.48 82.89 226.48 110.67 227.44 110.67 227.44 73.24 241.93 73.24 241.93 82.89 254.22 82.89 254.22 101.5 270.74 101.5 270.74 78.14 283.77 78.14 283.77 87.97 290.56 87.97 296.43 81.14 303.1 81.14 303.1 58.5 321.76 58.5 321.76 92.11 340.85 92.11 340.85 100.21 348.25 100.21 348.25 87.98 363.09 87.98 363.09 101.5 387.21 101.5 387.21 82.89 390.53 82.89"/></g></mask><linearGradient id="linear-gradient-3" x1="200.13" y1="73.08" x2="200.13" y2="126.07" gradientUnits="userSpaceOnUse"><stop offset="0" stop-color="#eeeded"/><stop offset="1" stop-color="#fff"/></linearGradient><filter id="luminosity-noclip-4" x="9.74" y="98.61" width="380.79" height="82.79" filterUnits="userSpaceOnUse" color-interpolation-filters="sRGB"><feFlood flood-color="#fff" result="bg"/><feBlend in="SourceGraphic" in2="bg"/></filter><mask id="mask-4" x="9.74" y="98.61" width="380.79" height="82.79" maskUnits="userSpaceOnUse"><g class="cls-3"><polygon class="cls-4" points="9.74 181.4 9.74 105.26 24.08 105.26 24.08 119.17 40.56 119.17 45.59 124.2 100.27 124.2 108.78 115.7 125.95 115.7 125.95 101.41 140.97 101.41 140.97 120.67 168.63 120.67 179.28 110.01 213.48 110.01 213.48 127.97 228.68 127.97 236.07 120.58 254.79 120.58 260.08 125.88 283.25 125.88 283.25 105.97 299.73 105.97 299.73 112.54 312.78 112.54 312.78 98.61 324.77 98.61 324.77 119.66 358.37 119.66 361.51 122.8 390.53 122.8 390.53 181.4 9.74 181.4"/></g></mask><linearGradient id="linear-gradient-4" x1="200.13" y1="95.8" x2="200.13" y2="140.11" gradientUnits="userSpaceOnUse"><stop offset="0" stop-color="#d5d5d4"/><stop offset="1" stop-color="#fff"/></linearGradient><linearGradient id="linear-gradient-5" x1="30.73" y1="205.44" x2="369.54" y2="205.44" gradientUnits="userSpaceOnUse"><stop offset="0" stop-color="#f59d5a"/><stop offset="1" stop-color="#ffd257"/></linearGradient><linearGradient id="linear-gradient-6" x1="151.12" y1="151.65" x2="208.84" y2="151.65" gradientTransform="translate(359.96 303.31) rotate(-180)" xlink:href="#linear-gradient-5"/></defs><g class="cls-5"><g id="Layer_1" data-name="Layer 1"><g class="cls-6"><polygon class="cls-7" points="390.53 82.89 390.53 235.14 9.74 235.14 9.74 118.35 9.74 118.35 9.74 87.98 22.05 87.98 22.05 103.45 37.74 103.45 43.95 110.67 50.25 110.67 50.25 73.24 64.74 73.24 64.74 82.89 77.03 82.89 77.03 101.5 93.55 101.5 93.55 78.14 106.59 78.14 106.59 87.97 113.37 87.97 119.23 81.14 125.91 81.14 125.91 58.5 144.58 58.5 144.58 92.11 163.66 92.11 163.66 100.21 171.05 100.21 171.05 87.98 199.25 87.98 199.25 101.5 210.03 101.5 210.03 82.89 226.48 82.89 226.48 110.67 227.44 110.67 227.44 73.24 241.93 73.24 241.93 82.89 254.22 82.89 254.22 101.5 270.74 101.5 270.74 78.14 283.77 78.14 283.77 87.97 290.56 87.97 296.43 81.14 303.1 81.14 303.1 58.5 321.76 58.5 321.76 92.11 340.85 92.11 340.85 100.21 348.25 100.21 348.25 87.98 363.09 87.98 363.09 101.5 387.21 101.5 387.21 82.89 390.53 82.89"/></g><g class="cls-8"><polygon class="cls-9" points="9.74 181.4 9.74 105.26 24.08 105.26 24.08 119.17 40.56 119.17 45.59 124.2 100.27 124.2 108.78 115.7 125.95 115.7 125.95 101.41 140.97 101.41 140.97 120.67 168.63 120.67 179.28 110.01 213.48 110.01 213.48 127.97 228.68 127.97 236.07 120.58 254.79 120.58 260.08 125.88 283.25 125.88 283.25 105.97 299.73 105.97 299.73 112.54 312.78 112.54 312.78 98.61 324.77 98.61 324.77 119.66 358.37 119.66 361.51 122.8 390.53 122.8 390.53 181.4 9.74 181.4"/></g><rect class="cls-10" x="0.13" y="184.89" width="400" height="55.63"/><path class="cls-11" d="M369.54,205.44c0,5.21-75.85,9.43-169.41,9.43s-169.4-4.22-169.4-9.43S106.58,196,200.13,196,369.54,200.23,369.54,205.44Z"/><path class="cls-12" d="M142,199s2.33,4,3.32,4.6c1.33.88.5,1.77-.14,1.77s-3.88.23-4.59-.58-1.07-3.24-1.74-3.88-1.27-3,.33-3.78C140.89,196.3,142,199,142,199Z"/><path class="cls-13" d="M141.08,197s2.54,5,3,5.65-.87.68-1.69.36-3-3.62-3.19-4.26a3.58,3.58,0,0,1-.06-1.55Z"/><polygon class="cls-12" points="138.24 199.79 138.86 204.54 139.19 204.56 139.08 201.14 138.24 199.79"/><path class="cls-12" d="M122,195.19s.56,4.55,1.21,5.54c.87,1.34-.25,1.82-.83,1.56s-3.65-1.33-4-2.36.31-3.4,0-4.25,0-3.24,1.8-3.33C122.07,192.25,122,195.19,122,195.19Z"/><path class="cls-13" d="M122,192.93s.34,5.57.49,6.38-1.07.28-1.69-.34-1.27-4.5-1.23-5.18a3.55,3.55,0,0,1,.56-1.44Z"/><polygon class="cls-12" points="118.24 194.39 116.91 198.99 117.21 199.13 118.48 195.96 118.24 194.39"/><path class="cls-14" d="M141.58,154.68c-.07-.37-2.89-5.83-3.4-7.47s-.94-3.16-1.2-3.81c0,0,0-.12-.08-.22-.17-.48-.55-1.56-.93-2.57l-.09-.21,0-.38c-.27-.7,0-1.1,0-1.66a1.7,1.7,0,0,0-.09-.55v0a12.89,12.89,0,0,1-.61-2.22c-.15-1.52-1-8.32-1-8.32s2.67,1.39,3,2.45c.45,1.62.91,4,1,4.77s1.28,6.91,1.52,8.17a16.14,16.14,0,0,0,.87,3.14c.35.83,2.67,8.23,2.81,8.89S141.66,155.05,141.58,154.68Z"/><path class="cls-14" d="M141.55,153.91a14.45,14.45,0,0,1-.23,1.76,25,25,0,0,0,.35,3.53c.06.29.23.08.3-.13s.06-1.09.15-1.62.18-.62.28-.49a9.8,9.8,0,0,1,.48,2.62c0,.77.41,2.47.76,2.15s.76-3.57.49-4.73a15.57,15.57,0,0,0-.93-2.56Z"/><path class="cls-13" d="M131.69,160.58c.12.56.86,2.91,1.7,5.52h0c.75,2.38,1.59,5,2.09,6.63.18.62.32,1.11.4,1.4.48,2-.06,5-.24,7.61s3.56,17,3.56,17c.66.31,1.88-1.75,1.88-1.75-.48-.92-.41-17.17-.15-18.17a15.3,15.3,0,0,0,.18-4.88A4.11,4.11,0,0,1,141,173c0-1.37.26-3.65.44-6.14.21-3.14-1-10.94-1.18-11.64,0-.06,0-.15-.07-.26-.33-1.1-1.36-4.21-1.36-4.21a10.28,10.28,0,0,0-4.85-.49,3.61,3.61,0,0,0-2.85,2.44C130.12,155.58,131.54,159.85,131.69,160.58Z"/><path class="cls-13" d="M119.89,192.73l2.12.75c.36-1.74,9-13.94,9.51-15.29a19.59,19.59,0,0,0,1.09-4.93c0-.17,0-.46,0-.83.1-1.46.36-4.2.75-6.33.07-.4.14-.78.22-1.12.42-1.84.5-8.13.5-11.82,0-1.65,0-2.78,0-2.78l-.1-.08c-.8-.6-5.9-4.27-7.67-.84a10.37,10.37,0,0,0-1,2.89c-.57,3.11,0,6.6.45,9.79.4,2.73,1.15,6.58,1.37,9.44a7.22,7.22,0,0,1-.28,3.47c-1,1.74-2,3.22-4,9.37C122.23,186.42,119.89,192.73,119.89,192.73Z"/><path class="cls-15" d="M135.35,118.64s1.11-7.17-4.83-7-5.86,3.68-5.75,7.2,2.38,3.26-.19,8.15,2.23,4.9,2.23,4.9l3.71-5.11Z"/><path class="cls-14" d="M131.17,112.29s4,.64,4.18,6.35-1.08,6.94-4.6,5.75-4.63-7.18-4.71-8.1S125.75,111.6,131.17,112.29Z"/><path class="cls-16" d="M124.11,132.18c0,2,2.24,6.67,2.59,8.12s.9,1.92.44,3.78-1.91,8.15-1.85,8.71,13,2.58,14.92,2.21c0,0-2.38-8.89-2.56-9.9a45.53,45.53,0,0,1,.3-5.91c.09-1.07,1.18-3.39,1.14-4.47a6.52,6.52,0,0,0-1.33-3.21c-.24-.37-.48-.74-.73-1.1a19.65,19.65,0,0,0-2-2.6,6.37,6.37,0,0,0-.8-.64h0a3.81,3.81,0,0,0-.82-.44l-3.46-.55s-2.16.78-3.4,1.07C126.56,127.25,124.14,127.6,124.11,132.18Z"/><path class="cls-16" d="M134.24,127.17l2,3.16,1.85,2.91s-.12-.46-.33-1.73c0-.25-.08-.52-.13-.82a1.07,1.07,0,0,0-.06-.27h0a8.56,8.56,0,0,0-3.33-3.25Z"/><path class="cls-14" d="M124.22,130.52s.56-3.75,3.31-3.13.16,5.5,0,6.08-2.15,5.34-2.32,6c-.54,2,0,2,.77,2.48,2.38,1.37,7.28,1.28,7.84,1.65a.87.87,0,0,1-.42,1.59c-1.23.06-8.28-.61-9.26-.7s-2.85-.17-2.36-3.56C122.09,138.6,124.22,130.52,124.22,130.52Z"/><path class="cls-14" d="M128.49,121.81a31.87,31.87,0,0,1,.71,4.75s4.92,1.86,4.42.81a3.94,3.94,0,0,1-.3-1.63c0-.43,0-.79.05-1l0-.17S128.14,121.15,128.49,121.81Z"/><path class="cls-15" d="M132.81,116.39s-2.06,3.37-3.94,4.69-.93,2.38-.93,2.38-4.9-10.32-.24-11,7.52-.76,7.65,6.22C135.35,118.64,133.24,116.34,132.81,116.39Z"/><path class="cls-17" d="M130.57,124.32a4.65,4.65,0,0,0,2.75,1.42h0c0-.43,0-.79.05-1A5.57,5.57,0,0,1,130.57,124.32Z"/><path class="cls-16" d="M137.56,130.39h0a4.19,4.19,0,0,1,.2,1.12l-.73-1.1s-1.29-1.85-1.73-2.34a7.58,7.58,0,0,0-1.06-.9S136.79,128.39,137.56,130.39Z"/><path class="cls-18" d="M136.78,134.4l-7.75-.64a.6.6,0,0,0-.65.55l-1,12.85a.59.59,0,0,0,.53.63l7.45.77a.6.6,0,0,0,.65-.53l1.28-13A.61.61,0,0,0,136.78,134.4Z"/><path class="cls-14" d="M129.46,143s1.47.25,1.61.23.71-1,1.39-1.15a13.88,13.88,0,0,0,1.72-.43c.21-.13.26.53-.38.8s-.81.63.4.87c.67.14,3.17-.14,3,.28a9.72,9.72,0,0,1-2.53.43,16.68,16.68,0,0,1,2.69.14c.17.31-2.44.42-2.54.41s2.23.13,2.25.33-2.24.14-2.22.18,1.78.13,1.76.28-1.59.22-1.89.19-3.37-.39-3.88-.49-1.38-.16-1.38-.16Z"/><path class="cls-14" d="M126.66,142.25a25.43,25.43,0,0,0,2.8.79c1.35.29,0,1.91,0,1.91l-3.47-.33C125.41,144.57,126.66,142.25,126.66,142.25Z"/><path class="cls-16" d="M127.77,133.16a27.66,27.66,0,0,0-4.09-1.31s.63-5.07,3.74-4.53S127.77,133.16,127.77,133.16Z"/><path class="cls-16" d="M125.81,162.14c.4,2.73,1.15,6.58,1.37,9.44,0,0,2.22.45,5.46.85.88.11,1.83.21,2.84.3,1.74.16,3.62.28,5.54.31,0-1.37.26-3.65.44-6.14.21-3.14-1-10.94-1.18-11.64,0-.06,0-.15-.07-.26a20.4,20.4,0,0,0-6.1-1.84c-1-.18-2-.31-3-.42-3-.33-5.48-.39-5.79-.39C124.79,155.46,125.35,159,125.81,162.14Z"/><path class="cls-14" d="M133.42,126.73s2.32,3.57,1.53,3.88-5-.42-6.84-3.8A6.36,6.36,0,0,1,133.42,126.73Z"/><rect class="cls-19" x="89.1" y="154.29" width="7.48" height="3.55" rx="0.91" transform="translate(-65.59 67.32) rotate(-30)"/><path class="cls-14" d="M90.83,158a2,2,0,0,1-.45-.35s-.18-.3-.32-.51A1.42,1.42,0,0,0,90,157a3.55,3.55,0,0,1-.64-.83,22.08,22.08,0,0,1-.6-2.45l1-.53.9-.63a22.83,22.83,0,0,1,2.61,1.93l.06.11a4,4,0,0,1,.22.84c0,.06.22.75.1.93a.69.69,0,0,1-.59.34,1.65,1.65,0,0,1-.73.56,1,1,0,0,1-.81.42S91.14,158.1,90.83,158Z"/><path class="cls-20" d="M71.4,163,66.71,162a.9.9,0,0,1-.68-1.06l.66-3a.89.89,0,0,1,1.06-.67l4.7,1a.89.89,0,0,1,.67,1.06l-.66,3A.89.89,0,0,1,71.4,163Zm-3.78-5.16a.28.28,0,0,0-.34.22l-.67,3a.3.3,0,0,0,.23.35l4.69,1a.3.3,0,0,0,.35-.22l.66-3a.28.28,0,0,0-.22-.34Z"/><path class="cls-14" d="M68.08,159a1.82,1.82,0,0,1-.1-.54s.07-.33.1-.57a1.62,1.62,0,0,0,0-.18,3.23,3.23,0,0,1,.07-1,22.78,22.78,0,0,1,1.14-2.16l1.09.28,1,.12A21.12,21.12,0,0,1,72.1,158a.35.35,0,0,1,0,.11,3.57,3.57,0,0,1-.37.74c0,.07-.33.69-.53.74a.67.67,0,0,1-.64-.12,1.62,1.62,0,0,1-.89-.07,1,1,0,0,1-.86-.22S68.25,159.24,68.08,159Z"/><path class="cls-21" d="M79.37,134.64c-.21.27-1,1.81-1.92,3.46h0l-.43.82-.35.65c-.13.23-.25.46-.36.68-.5.92-.91,1.68-1.12,2a41,41,0,0,0-1.78,5.27c-.24.71-1.4,7.73-1.4,7.73s-3.7,0-3.59-.26,1.53-7.86,1.81-9c.37-1.5,1.8-5.53,1.94-5.83s3.16-6.58,3.57-7.66a11.21,11.21,0,0,1,2.45-4.32,3.11,3.11,0,0,1,3.86-1C83.72,128.39,79.8,134.09,79.37,134.64Z"/><rect class="cls-22" x="58.9" y="161.05" width="18.06" height="12.94" transform="translate(38.12 -10.77) rotate(12.58)"/><rect class="cls-23" x="59.49" y="161.11" width="18.06" height="7.5" transform="translate(37.55 -10.97) rotate(12.58)"/><path class="cls-14" d="M80.34,125.82a11.56,11.56,0,0,0,0-3s4.42,2,3.65,2.6a1.4,1.4,0,0,0-.43.75,8.89,8.89,0,0,0-.19,2.37l1.46,1.7C86.13,132.06,80.23,126.41,80.34,125.82Z"/><path class="cls-24" d="M65.69,192.35s.41,1.63.78,3.66a8.64,8.64,0,0,0,2.33,3.87c.25.35,1.36,1.79.39,2s-5-2.49-6.08-4c0,0-.65-1.46-.74-1.54s-.65.35-.65.35l-1-.71a6.09,6.09,0,0,1-.59-.51c-.16-.19.22-1.22.27-1.32s1.86-2.58,3-3.11S65.69,192.35,65.69,192.35Z"/><path class="cls-25" d="M99.14,196.84s1.41.85,3,2a8.39,8.39,0,0,0,4.25,1.09c.41.07,2.16.3,1.62,1.09s-5.09,1.65-6.9,1.34c0,0-1.44-.56-1.56-.56s-.2.68-.2.68l-1.18.21a5.07,5.07,0,0,1-.75,0c-.24,0-.68-1-.73-1.09a11.67,11.67,0,0,1-.11-4.18C97.05,196.31,99.14,196.84,99.14,196.84Z"/><path class="cls-14" d="M67,189.76a28.07,28.07,0,0,0-1.36,2.78c-.08.42-2,.43-2.35-1.36,0,0,1.48-3,1.44-3.06S67,189.76,67,189.76Z"/><path class="cls-24" d="M80.28,164l-.37,1.27c-.14.5-.33,1.13-.53,1.82-.93,3.15-2.27,7.67-2.51,8.3a22.94,22.94,0,0,1-2.43,4.07c-.27.17-7.24,12.15-7.45,12.72,0,0-2.87-1.3-3.39-2.25,0,0,4.77-13.21,6.7-15.53s1.75-15.57,3.44-19.6S81.31,160.46,80.28,164Z"/><path class="cls-14" d="M98.23,194.18a28.73,28.73,0,0,0,1,2.83c.23.35-1,1.64-2.52.66,0,0-1-3-1.14-3.07S98.23,194.18,98.23,194.18Z"/><path class="cls-26" d="M85.38,154.85s6,13.77,6.66,15.83.35,3.82.73,4.68,5.85,20.06,5.85,20.06-2.89,1.58-4.21,1c0,0-5-12.64-6-14.71s-1.53-5.84-2.79-8.35c-.89-1.76-11.75-15.17-11.85-20.12S85.38,154.85,85.38,154.85Z"/><path class="cls-14" d="M80.38,126a4.51,4.51,0,0,1,2.29,2.26,13,13,0,0,1,.36,4.34c0,.71,1.18,7.7,1.33,7.91s2.49,4.53,3.46,6.72a32.39,32.39,0,0,0,3,5l-1.6.94s-7.3-8.58-7.73-10.92-3.26-9.42-3.26-9.42S76.87,127.56,80.38,126Z"/><path class="cls-14" d="M83.57,113.05a5,5,0,0,1,5.1,4.7,12.23,12.23,0,0,1-.43,1.87c-.28.81.39,3.26.2,3.38a5.71,5.71,0,0,1-1,.24s-.93,2.63-1.86,2.58a7.73,7.73,0,0,1-6-4.22C78,118.25,77.64,113.17,83.57,113.05Z"/><path class="cls-13" d="M88.67,117.75a13.18,13.18,0,0,1-4.81,1.82c-2.37.26-4,2.66-4,2.66s-3.47-4.62-.47-8.19S89.31,113.24,88.67,117.75Z"/><path class="cls-21" d="M87,139.54c-.73.77-.13,2.55-.23,3.56,0,.27-.11,1.16-.23,2.33s-.28,2.74-.44,4.21h0c-.06.59-.13,1.16-.19,1.71a30.39,30.39,0,0,1-.53,3.5c-.36,1-8.36,1.06-11.53-2.37,0,0-.56-1.13,3.08-7.7.72-1.32,0-7.85-.58-9.58s-.79-7.62,4-9.38c0,0,2.87,2.48,3.85,3.59s4.18,5.13,4.48,6.34S87.79,138.7,87,139.54Z"/><path class="cls-17" d="M84,125.46a1.4,1.4,0,0,0-.43.75A7.49,7.49,0,0,1,81,123.6,7.89,7.89,0,0,0,84,125.46Z"/><path class="cls-27" d="M86.77,143.1c0,.27-.11,1.16-.23,2.33h0c-.73.7-5.71-8.92-3.36-11.66,0,0,1.66,6.46,1.84,6.79S86.77,143.1,86.77,143.1Z"/><path class="cls-21" d="M80.42,126.21a5.34,5.34,0,0,1,2.5,2.52,13.23,13.23,0,0,1,.38,4.54c0,.74,1.24,8,1.4,8.27A50.87,50.87,0,0,1,88,147.37a37.77,37.77,0,0,0,3.27,5.43l-2.73,1.53s-6.51-8.23-7.13-10.65c-.66-2.58-3.09-10.18-3.09-10.18S76.24,127,80.42,126.21Z"/><path class="cls-27" d="M77,138.92l-.35.65c-.13.23-.25.46-.36.68-.17-2-.24-6.74-.24-6.74a20.63,20.63,0,0,0,.42,2.17C76.69,136.37,77,138.59,77,138.92Z"/><path class="cls-13" d="M82.9,112.41s-6.16-.47-5.88,7-1,9.47-3.72,12.86-.33,7.64,2.31,5.46a17.61,17.61,0,0,0,5.73-12.38A90.93,90.93,0,0,1,82.9,112.41Z"/><path class="cls-14" d="M82.88,119.44a.73.73,0,0,0-1.25-.56c-.77.6.18,2.81.8,2.61S82.88,119.91,82.88,119.44Z"/><path class="cls-28" d="M79.91,165.22c-.14.5-.33,1.13-.53,1.82-.7-1.46-2.31-6.11-2.36-6.25C77.42,161.45,79.86,165.13,79.91,165.22Z"/><path class="cls-29" d="M298.34,200.7s-2.13,3-1.84,3.46,2.53.55,3.9,0,1.39-4,2-5.55c.26-.63-.29-2.49-1.07-2.63a3.09,3.09,0,0,0-1.62.26S300.52,198.36,298.34,200.7Z"/><path class="cls-14" d="M299.7,196.22a14.19,14.19,0,0,0-.61,2.49c-.13,1-1.52,3.15-1.45,3.42a2.41,2.41,0,0,0,2.53-.18c.71-.7,1.17-2.73,1.33-3.95a10.77,10.77,0,0,1,.33-1.69S300.38,195.47,299.7,196.22Z"/><path class="cls-29" d="M316.88,200.75s-2.05,2.94-1.76,3.41,2.53.55,3.9,0,1.39-4,2-5.55c.26-.63-.29-2.49-1.07-2.63a3.31,3.31,0,0,0-1.69.29S319.07,198.41,316.88,200.75Z"/><path class="cls-14" d="M318.27,196.27a20.49,20.49,0,0,1-.42,2.37c-.26,1-1.66,3.22-1.59,3.49a2.41,2.41,0,0,0,2.53-.18,7.5,7.5,0,0,0,1.33-3.95,6.63,6.63,0,0,0-.16-2A1.53,1.53,0,0,0,318.27,196.27Z"/><path class="cls-14" d="M308,147.55s-1.83,8.87-2.25,11.11-1.59,13.05-1.72,14.89-1.91,8.78-1.82,9.43-2.65,13.86-2.65,13.86a1.6,1.6,0,0,0,1.92.07c.5-.36,6-12.36,6-15.64,0-4.55,3.21-10.47,3.63-11.49,3.86-9.44,3.1-12.33,3.6-12.94s.55.38.84,1.74.93,13.1,1.3,14.59.09,6.52.3,9.07,1.13,14,1.13,14a1,1,0,0,0,1.72,0c.21-.24,1.73-12.8,1.77-15.83s.08-7.19.16-8.5c.78-12.52,2.69-14.31-.32-23.18C316,132.19,308,147.55,308,147.55Z"/><path class="cls-30" d="M320.29,145.07s5.2,7.6,3,23.78c0,0-12.35,1.76-19-2,0,0,2.74-16.69,3.73-19.28S320.29,145.07,320.29,145.07Z"/><polygon class="cls-29" points="302.47 198.34 302.47 201.48 302.08 201.48 302.08 199.06 302.47 198.34"/><polygon class="cls-29" points="321.09 198.34 321.09 201.48 320.7 201.48 320.7 199.06 321.09 198.34"/><path class="cls-14" d="M314.11,111.34s-3.49,3.51-2.3,8,3.1,4.55,5.2,2.6a10.25,10.25,0,0,0,3.62-6.27C320.91,113.44,317.3,108.21,314.11,111.34Z"/><path class="cls-14" d="M313.43,126.43a19.81,19.81,0,0,0,.88-2.52c.06-.23.12-.47.17-.71a4.6,4.6,0,0,0,.06-2.23c-.56-1.64,3.49-.51,3.49-.51s-.79,4.35,0,5.82S313.43,126.43,313.43,126.43Z"/><path class="cls-31" d="M323.68,128.5a3.29,3.29,0,0,0-2.35-2.07c-.68-.21-3.76-1-3.76-1l-3.69-.13a33.28,33.28,0,0,0-4.52,1.1c-2,.69-4.55,4.42-4.55,4.42s3.56,8.37,4.25,10.77a19.35,19.35,0,0,1,.22,6.12c4.28,2.32,11.12-.23,11.12-.23a13.57,13.57,0,0,1-.26-5.62c0-.19.06-.36.1-.52s.09-.37.15-.61v0c2.72.28,5.26.39,5.33-.15C326,138.07,324.55,130.25,323.68,128.5ZM321.8,138c-.11,0-.35,0-.59,0,.3-.84.63-1.59.63-1.59C322,137,322.77,138.19,321.8,138Z"/><path class="cls-32" d="M315.25,113.87A29.14,29.14,0,0,0,318,118a2.59,2.59,0,0,1,.92,2s4-5,1.16-8-6.6-1.8-7.69.83a13.43,13.43,0,0,0-.69,5.84A5.7,5.7,0,0,1,315.25,113.87Z"/><path class="cls-32" d="M316.35,110.69s-.4-2.22,3.08-3.1,5,3.13,4.61,5.58-3.4,8.65-1.79,9.46a1.58,1.58,0,0,0,2.25-.94s-.51,3.06-2.75,2.35-1.94-5.67-1.61-7.65S316.35,110.69,316.35,110.69Z"/><path class="cls-17" d="M317.47,121.54a4.23,4.23,0,0,1-3.16,2.37c.06-.23.12-.47.17-.71C314.48,123.2,315.73,123.45,317.47,121.54Z"/><path class="cls-33" d="M321.8,136.44a18.36,18.36,0,0,0-.63,1.73,27.86,27.86,0,0,1-.22-5.89A14.4,14.4,0,0,0,321.8,136.44Z"/><path class="cls-31" d="M316.89,110.23a6.12,6.12,0,0,1,3.71,2.48s-.25-1.82-1.48-2.34A3.14,3.14,0,0,0,316.89,110.23Z"/><path class="cls-33" d="M320.39,140.71c-.06.24-.11.46-.15.61s-.07.33-.1.52c-1.53-.83-2.63-1.49-2.63-1.49C317.92,140.45,320.39,140.71,320.39,140.71Z"/><path class="cls-14" d="M317.78,125.47,313.43,129l.45-3.73S316.41,124.73,317.78,125.47Z"/><polygon class="cls-34" points="314.69 128.41 313.43 129.01 317.7 124.78 314.69 128.41"/><path class="cls-35" d="M320.65,140.41c-.6,2.48,1.61,8.06,1.61,8.06l-4.39,1.37a1.12,1.12,0,0,1-1.43-.84,101.46,101.46,0,0,1-2.13-13.19c-.21-4.77,3.26-10.4,3.26-10.4,6.17,1.06,4.48,10.4,4.48,10.4s-.22.59-.52,1.51h0q-.12.35-.24.75C321.08,138.76,320.85,139.56,320.65,140.41Z"/><path class="cls-35" d="M313.44,125.48l.08-.2a21.18,21.18,0,0,0-4.77,1.28c-1.61.8-4.68,4.95-4.68,4.95l4,5.31c0,4.08-.66,11.34-.66,11.34l1.84,1.06a.75.75,0,0,0,1.12-.64c.06-2.76.18-9.31.24-12.48.09-4.08,3-10.69,3-10.69Z"/><path class="cls-14" d="M307.71,144.62a33.71,33.71,0,0,0,3.5,0c.47-.12,3.62-1.48,3.81-2.83s-7.31,1.21-7.31,1.21Z"/><polygon class="cls-36" points="317.12 140.41 304.81 138.97 310.37 143.49 317.12 140.41"/><polygon class="cls-37" points="310.37 143.49 317.12 141.19 317.12 140.41 310.14 142.64 310.37 143.49"/><path class="cls-14" d="M313.54,138.15A10.32,10.32,0,0,1,312,138a3.16,3.16,0,0,0-1.81.28c-.28.25-1.17,2-1.34,2.08s.09.35.38.23c0,0,.27.75.94.47s1.13-.9,1.48-1,2.38-.66,2.38-.66S314.07,138,313.54,138.15Z"/><polygon class="cls-38" points="314.11 124.59 311.77 128.3 310.63 129.01 313.27 125.32 314.11 124.59"/><polygon class="cls-34" points="311.77 128.3 313.43 129.01 313.88 125.28 314.11 124.59 311.77 128.3"/><path class="cls-35" d="M308.08,142.88a9.12,9.12,0,0,0,0,1.9s-7.59-.76-8.3-1.82a4.53,4.53,0,0,1-.68-2.35Z"/><polygon class="cls-39" points="310.37 143.49 306.78 130.15 293.13 128.7 296.87 140.99 310.37 143.49"/><polygon class="cls-38" points="317.7 124.78 314.69 128.41 316.33 129.88 318.12 125.53 317.7 124.78"/><path class="cls-40" d="M321.63,137l-.1.31q-.12.35-.24.75a52.56,52.56,0,0,1-5.62-.19A31.14,31.14,0,0,1,321.63,137Z"/><path class="cls-35" d="M321.34,138c-.81-.06-2.14-.15-3.23-.15-1.7,0-4.59.18-4.59.18l.34,1.81s5.13.83,7.94,1h0s3.69.43,4-.13-.09-4.09-.69-7.28-1.22-5-2-6-4.62-1.76-4.62-1.76l3.3,10.79a4.33,4.33,0,0,1,.44,1.38c0,.13-.09.19-.21.21l-.52,0Z"/><path class="cls-14" d="M293.85,149.4s.62,1.41,1.22,1.24a5.28,5.28,0,0,1,1.75-.1c.37,0,1.58-.24,1.51.21s-2,.56-2.37.65,1,1.11,1.13,1.5-1.89,2.63-2.78,1.83a9.68,9.68,0,0,1-1.44-2.36,10.86,10.86,0,0,1-1-1.27Z"/><path class="cls-14" d="M296.93,152.66a25.43,25.43,0,0,1,2.56,3c0,.31-.16.44-.41.21l-2.54-2.49s2.44,3.64,2.51,3.9-.27.42-.41.31-2.79-3.58-2.79-3.58,2.27,3.4,2.26,3.63a.31.31,0,0,1-.54.15l-2.48-3.27a15.61,15.61,0,0,1,1.35,2.78c-.08.12-.33.36-.69-.32s-1.4-2.18-1.4-2.18Z"/><path class="cls-41" d="M262.31,199.08s-1,.69-1.51,1.18a5.12,5.12,0,0,0-1.73,2.26,1.56,1.56,0,0,0,1.48,2.24c1.22.08,3.09-.84,3.28-2s1.61-1,1.8-1.76a4.4,4.4,0,0,0-.07-1.76Z"/><path class="cls-42" d="M262.48,198.16l-.17.92s.51.93,3.25.2l-.14-.9Z"/><path class="cls-41" d="M265.56,199.28l-1.06.15c-.44.07-1.31-.49-2.19-.35l.27,1.11S265.5,199.64,265.56,199.28Z"/><path class="cls-41" d="M279.85,198.89s1,.7,1.52,1.19a5.12,5.12,0,0,1,1.73,2.26,1.56,1.56,0,0,1-1.49,2.24c-1.22.08-3.09-.85-3.27-2s-1.61-1-1.8-1.76a4.4,4.4,0,0,1,.07-1.76Z"/><path class="cls-42" d="M279.69,198l.16.91s-.5.93-3.24.21l.14-.9Z"/><path class="cls-43" d="M281,177.17c0,2-.29,21-.29,21-.2.67-4,.89-4.63.55s-.55-19.14-.67-21.17-1.76-16.93-2.34-16.87-3.91,14.12-4.38,15.66-2.32,22.27-2.32,22.27a8.38,8.38,0,0,1-4.63.1s.87-21,.88-23.49c0-.93.27-1.63.53-6.55.2-3.75,1.24-11.43,1.94-16.72,0-.19,0-.37.07-.54.14-1,.24-1.79.29-2.15a2.26,2.26,0,0,1,0-.24,4.54,4.54,0,0,1,.59-.24c4.9-1.77,14.37.1,14.37.1a1.16,1.16,0,0,0,0,.13l.06.49c.06.47.14,1.16.23,2v.09c.33,2.87.49,4.44.75,7.5C281.58,159.71,281,175.16,281,177.17Z"/><path class="cls-16" d="M276,121.84s8,1.7,8.71,3.94,2,7.48,3.78,13.18c1.08,3.41,6.58,11.19,6.58,11.19s-3.14,2.32-3.14,2-7.42-10.2-7.5-11.41a71,71,0,0,0-2.34-7.37s-1.06,11.86-1.06,13.69.46,7.46.46,7.46-3.23,2.68-9,2.38c0,0-8.17,0-8.05-3.18.1-2.83.79-19.79.62-19.88s-3.39,3.93-3.08,4.7,8.62,3.55,8.62,3.55.24.89-1.05,2.92c0,0-12.4-3.62-12.45-4.38s5.16-15.51,6.86-16.28a72.3,72.3,0,0,1,8.93-2.6Z"/><path class="cls-41" d="M276.61,199.1l1.05.15c.45.07,1.32-.49,2.19-.36l-.27,1.12S276.67,199.46,276.61,199.1Z"/><path class="cls-14" d="M276.33,122c0,2-4.55,4-4.55,4s-1.09-3.67-.71-3.86c.15-.08.19-.12.21-.46a6.26,6.26,0,0,0,0-.89c0-.14,0-.23,0-.23s.54-.57,1.23-1.25c1.21-1.19,2.94-3,2.94-2.35,0,0,0,0,0,.09C275.16,118.48,276.33,122,276.33,122Z"/><path class="cls-17" d="M274.64,118.72h0s-.17.25-.44.6a8,8,0,0,1-2.92,2.42,6.26,6.26,0,0,0,0-.89,2.58,2.58,0,0,1-.38,0,11.84,11.84,0,0,1,.83-1.21l.76-.23Z"/><path class="cls-14" d="M275.37,117.28c-.33.72-.64,1.23-.73,1.44h0a2.69,2.69,0,0,1-.44.6,4.41,4.41,0,0,1-2.94,1.53,2.58,2.58,0,0,1-.38,0,1.79,1.79,0,0,1-1.3-.91,10.3,10.3,0,0,1-.66-8.44s6.48-1.83,7.5.12C277.13,113,276.14,115.6,275.37,117.28Z"/><path class="cls-44" d="M268.92,111.46s-.6,0-.75-1.17,1.31-1.9,1.31-1.9a8.16,8.16,0,0,1,2.48-.81c1-.13,3.32-.28,3.88.35,0,0,1.34-.31,1.71,1.92.58,3.55-2,7-2,7s0-2.32-.49-2.62-.95.42-.95.42l-1.05.19s1.48-2.86-.42-3A30.33,30.33,0,0,1,268.92,111.46Z"/><path class="cls-14" d="M274.16,113.72c.1-1,1.94-1.41,1.82-.34s-1,2.09-1.46,2.06S274.08,114.49,274.16,113.72Z"/><polygon class="cls-45" points="274.75 134.81 271.73 150.36 261.75 148.42 264.38 132.79 274.75 134.81"/><polygon class="cls-46" points="274 135.57 271.32 149.38 262.45 147.66 264.79 133.78 274 135.57"/><polygon class="cls-45" points="271.19 135.38 271.38 134.41 267.8 133.71 267.47 134.65 271.19 135.38"/><path class="cls-47" d="M272.79,142s.77,0,1-.05.08.46-.19.56S272.79,142,272.79,142Z"/><path class="cls-14" d="M273.24,145.61a1.48,1.48,0,0,1-.5,0l-.5-.13-.16,0a3,3,0,0,1-.9-.16c-.38-.14-1.66-.8-1.66-.8l.37-1.19.27-1a13.36,13.36,0,0,1,2.53-.47l.11,0a3.31,3.31,0,0,1,.63.4c.06,0,.59.35.62.54a.59.59,0,0,1-.17.56,1.45,1.45,0,0,1-.13.8.92.92,0,0,1-.27.75S273.49,145.48,273.24,145.61Z"/><path class="cls-16" d="M270.62,142.09a9.22,9.22,0,0,1-1.56,3.57l-9.68-3.92c-1.09-.43,3.94-13.78,3.94-13.78l3.7,1.26L265,133s-1,2.11-3,5.57C262,138.54,263.26,139.74,270.62,142.09Z"/><path class="cls-16" d="M275.75,130.38s-.23,4.16,1.85,4.16,1.89-3.74,1.93-4.16Z"/><polygon class="cls-10" points="276.12 130.38 279.23 130.38 279.23 129.75 276.12 130.38"/><path class="cls-14" d="M211.37,145.53s-1,.61-1.49.27a3.54,3.54,0,0,0-1.52-.34c-.33,0-1.33-.45-1.36,0s1.62.79,1.95.94-1.12.85-1.28,1.19,1.14,2.66,2.07,2.06,1.54-1.86,1.73-1.93a6,6,0,0,0,.7-.41Z"/><path class="cls-48" d="M239.62,197.88a38.49,38.49,0,0,1-2.86,3.75s-1.47.76-1.52,1.37c-.08,1.16-.19,2.24,1.75,2.29s3.2-.4,3.56-1.58a7,7,0,0,1,1.2-2.18V204h.44s.11-2.38.14-2.82.31-2.12-.61-2.86A2.54,2.54,0,0,0,239.62,197.88Z"/><path class="cls-14" d="M236.48,201.78a4.91,4.91,0,0,0,2.3,0c1.25-.32,2.45-3.31,2.81-3.56l.33-1.2h-2.44a5.2,5.2,0,0,1-.47,1.65A31.26,31.26,0,0,1,236.48,201.78Z"/><path class="cls-48" d="M225.89,196.72a7.9,7.9,0,0,1-.92,1.53c-.44.58-1.8,2.93-2.41,3.09s-2.46.49-2.62,1.53-.25,1.78,1.58,1.86,3,.19,3.91-1.09a9.59,9.59,0,0,1,2.27-2.22v3.36h.72a30.68,30.68,0,0,1,.51-3.74,4.19,4.19,0,0,0-1-4.32C226.23,195.33,225.89,196.72,225.89,196.72Z"/><path class="cls-14" d="M222.56,201.34s1.64.41,2.27,0,2.77-4,3.48-4.24c0,0-.69-1.39-2.42-.38C225.89,196.72,223,200.74,222.56,201.34Z"/><path class="cls-49" d="M240.55,146.5a17.23,17.23,0,0,1,2.94,6.58c.63,3.57-.37,15.54-.34,17.31s1.63,7.39,1.3,10.71-2.12,17.05-2.12,17.05l-4-.07s.8-15,.6-16.36-.86-7.33-.94-7.9-4.57-15.76-4.57-18.33S235,142.31,240.55,146.5Z"/><path class="cls-49" d="M228.93,147.68s-3.8,14.51-4.25,16.51-1.36,4.64-1.32,5,.48,6.56.48,6.56l1.08,21.08h4s1.28-13.41,1.49-16.12-1.48-6.89-1.07-8,6.61-14.4,6.61-14.4S240.65,143.47,228.93,147.68Z"/><path class="cls-14" d="M230.1,126a5.15,5.15,0,0,0-3.17,1.31,12.87,12.87,0,0,0-2,3.91c-.3.66-4.1,6.73-4.32,6.86s-4.08,3.26-5.83,4.93a31.09,31.09,0,0,1-5.16,3.52l1.28,1.81s10.36-5.53,11.68-7.55,6.7-7.52,6.7-7.52S233.55,128.21,230.1,126Z"/><path class="cls-50" d="M230.1,126a5.15,5.15,0,0,0-3.17,1.31,12.87,12.87,0,0,0-2,3.91c-.3.66-4.1,6.73-4.32,6.86a48.49,48.49,0,0,0-5.14,4,37.06,37.06,0,0,1-4.94,3.63l1.87,2.38s8.88-4.93,10.33-6.86,6.55-7.94,6.55-7.94S233.55,128.21,230.1,126Z"/><path class="cls-31" d="M232.76,124.9A20.79,20.79,0,0,1,230.1,126c-.68.13-3.33,3.58-3.8,4.84s0,3.14,1,5.36.05,3,.49,5.16a51.62,51.62,0,0,1,.74,8.14c-.08,1.23,11.06,1.46,13.6-.78,0,0-2.55-3.83-2.88-4.37s-.06-3.53.25-4.3,3.69-6.48,3.69-6.48.25-5.79-1.23-6.94c-1.29-1-4.79-1.36-5.42-1.58A10.75,10.75,0,0,0,232.76,124.9Z"/><path class="cls-34" d="M232.13,129.29l-1.2-1.4,1-3.69A24.33,24.33,0,0,1,232.13,129.29Z"/><path class="cls-14" d="M207.85,147.36a24.69,24.69,0,0,0-2.81,2.32c-.07.28.05.43.31.25l2.71-1.88s-2.84,2.94-2.95,3.16.15.42.3.34,3.13-2.84,3.13-2.84-2.65,2.76-2.68,3a.26.26,0,0,0,.44.21l2.81-2.6a15.18,15.18,0,0,0-1.72,2.32c0,.12.22.38.66-.18s1.65-1.78,1.65-1.78Z"/><path class="cls-14" d="M235.24,110.93c-1.17-.41-5.47-1.42-6.48,4.07s2,9.41,4.81,8.37,4.51-4.84,4.68-7.74A4.33,4.33,0,0,0,235.24,110.93Z"/><path class="cls-51" d="M228.76,115s-.21-4.7,4.47-4.87,5.93,3.69,5.55,6.5a6.9,6.9,0,0,1-2.32,4.28s.17-2.27-.74-2.86-4.55-1.76-6.13-4.5A4.21,4.21,0,0,0,228.76,115Z"/><path class="cls-51" d="M234.59,114.5a3.15,3.15,0,1,0,1.85-4.36A3.36,3.36,0,0,0,234.59,114.5Z"/><path class="cls-14" d="M239.63,126a3.42,3.42,0,0,1,3.9,2c1.42,2.74,1.07,4.21,1.39,5.44s1.65,9.46,1.73,9.82,1.34,4.54,1.17,5.82-1.34,11-1.28,11.35-2.27-.31-2.27-.31.09-9.94,0-10.76-.16-5.13-.78-6.24-2.13-7.87-2.46-8.57S237.53,126.86,239.63,126Z"/><path class="cls-14" d="M231.82,122.63a47.6,47.6,0,0,1,.31,4.79s2,2,4.37-2.4a6.07,6.07,0,0,1-.24-4.32C237,118.2,231.82,122.63,231.82,122.63Z"/><path class="cls-20" d="M241.5,166.09v-3.35a1,1,0,0,1,1-1h5.31a1,1,0,0,1,1,1v3.35a1,1,0,0,1-1,1h-5.31A1,1,0,0,1,241.5,166.09Zm1-3.67a.32.32,0,0,0-.32.32v3.35a.32.32,0,0,0,.32.32h5.31a.32.32,0,0,0,.32-.32v-3.35a.32.32,0,0,0-.32-.32Z"/><path class="cls-14" d="M247,163.53a2,2,0,0,0,.24-.56s0-.37,0-.64c0-.08,0-.15,0-.2a3.55,3.55,0,0,0,.16-1.1,23.14,23.14,0,0,0-.71-2.6l-1.24,0-1.16-.13a24.21,24.21,0,0,0-1.44,3.15v.14a4.68,4.68,0,0,0,.23.88c0,.08.19.82.39.93a.76.76,0,0,0,.73,0,1.75,1.75,0,0,0,1,.15,1.09,1.09,0,0,0,1,0S246.78,163.77,247,163.53Z"/><polygon class="cls-14" points="232.13 127.42 232.13 129.29 234.48 127.53 232.13 127.42"/><polygon class="cls-34" points="232.13 129.29 233.1 128.08 236.4 124.8 237.46 125.82 232.13 129.29"/><path class="cls-50" d="M236.85,125.11s-2.76,4.2-2.89,6a169.31,169.31,0,0,0,1.95,20.09c.93,4.44,7.64-.5,7.64-.5s-4.51-7.29-2.78-13.13,2.71-9.72,2.71-9.72a5.07,5.07,0,0,0-3-2.17C238.56,125.43,236.85,125.11,236.85,125.11Z"/><path class="cls-50" d="M225.88,131.32a31.19,31.19,0,0,0,1.3,6.27s.35,4.43.3,6-.43,7.45-.43,7.45l1.92,1.12a.54.54,0,0,0,.82-.53c-.55-4.48-2.32-21.5,1.51-26.07l-1.54.45S226.61,128.94,225.88,131.32Z"/><path class="cls-14" d="M235.25,117.06a.73.73,0,0,1,1.07-.31c.32.25.51,1,0,1.94S234,120.32,235.25,117.06Z"/><polygon class="cls-38" points="230.93 127.89 229.42 128.31 231.97 124.2 230.93 127.89"/><polygon class="cls-38" points="233.1 128.08 234.48 129.88 237.31 125.19 236.4 124.8 233.1 128.08"/><path class="cls-50" d="M239.63,126a3.42,3.42,0,0,1,3.9,2,12.49,12.49,0,0,1,1.6,5.24c.18,1.26,1.92,8.75,2,9.1s.65,5,.69,6.74c0,1.3-.27,9.79-.22,10.12s-3.92-.57-3.92-.57.44-7.84.36-8.66a47,47,0,0,0-.66-6.11c-.47-1.41-2.33-8.52-2.66-9.22S237.53,126.86,239.63,126Z"/><path class="cls-17" d="M231.9,123.42l.07.72s1.62.31,3.75-2.28A4.6,4.6,0,0,1,231.9,123.42Z"/><rect class="cls-52" x="235.17" y="165.63" width="19.92" height="14.27" transform="translate(490.27 345.53) rotate(180)"/><rect class="cls-53" x="235.17" y="165.63" width="19.92" height="8.27" transform="translate(490.27 339.53) rotate(180)"/><path class="cls-49" d="M226.15,136.93a9.91,9.91,0,0,1,.29-5.43,7.35,7.35,0,0,0,.3,4.73Z"/><path class="cls-49" d="M241.34,136.62s-1.32-4.58-1.4-4.82a44,44,0,0,0,.74,6.15A6.35,6.35,0,0,1,241.34,136.62Z"/><rect class="cls-54" x="153.08" y="95.03" width="48.85" height="113.39" rx="24.43" transform="translate(355.01 303.45) rotate(180)"/><rect class="cls-55" x="151.12" y="94.01" width="57.72" height="115.28" rx="28.86" transform="translate(359.96 303.31) rotate(180)"/><path class="cls-31" d="M183.58,133.67l2.11,3.33,1.95,3.08s-.13-.48-.35-1.83c0-.26-.09-.55-.14-.87a1.4,1.4,0,0,0-.06-.28h0c-.83-1.93-3.41-3.38-3.51-3.42Z"/><path class="cls-56" d="M187.08,137.08h0a4,4,0,0,1,.21,1.17l-.77-1.15s-1.36-2-1.83-2.47a7.63,7.63,0,0,0-1.11-.95S186.27,135,187.08,137.08Z"/><path class="cls-57" d="M160.2,95H199a5,5,0,0,1,5,5V203.39a5,5,0,0,1-5,5H160.2a5,5,0,0,1-5-5V100.05A5,5,0,0,1,160.2,95Z"/><path class="cls-41" d="M173,198.18a7.64,7.64,0,0,0,2.16,3.18c1.35.95,2.75,2.31,2.38,3.25s-4.89.45-6.78-2.3c-1.2-1.74-2.41-2.13-2.41-2.95s1.39-2.47,1.46-2.7S173,198.18,173,198.18Z"/><path class="cls-42" d="M173.28,197.37s-.3.81-.33.81-3.5-.92-3.19-1.52a5.58,5.58,0,0,1,.72-1Z"/><path class="cls-58" d="M164.5,159.8s1-2.37,1.78-2.52.13.47.13.47-1,1.63-1.31,2.32A4.06,4.06,0,0,1,164.5,159.8Z"/><path class="cls-14" d="M169.4,155.4a19.34,19.34,0,0,0-.24,2.32c0,1.16.14,1.6-.21,2.15s-.89.58-1,.39.49-2-.25-2.23-.55,2.26-.93,1.95-1.72-1.82-1.3-2.67,1.31-1.26,1.74-2.6a3.05,3.05,0,0,1,.94-1.59Z"/><path class="cls-59" d="M167.83,158s.89.59-.34,3.85l-1-.57a12,12,0,0,0,.68-2.92S167.43,157.73,167.83,158Z"/><polygon class="cls-59" points="170.35 163.69 162.64 158.22 158.93 168.79 165.65 176.92 170.35 163.69"/><path class="cls-41" d="M208,179.54v20.73c-2.12-6.44-6.76-20.37-7.87-22.64-1-2-9.8-13.51-10.44-12.68s-4.27,10.46-4.75,12.84-11.29,20-11.29,20l-.48-.12a6,6,0,0,1-2.92-1.71,1.63,1.63,0,0,1-.23-.35s8-17.24,8.69-20.5c.27-1.14.56-6.71,1.61-12.52a47.88,47.88,0,0,1,1.93-7.59c.32-.91,1.29-1.29,2.57-1.33.22,0,.45,0,.68,0,.39,0,.81.07,1.24.13a23.83,23.83,0,0,1,3.07.69c.88.26,1.76.54,2.58.83s1.84.69,2.57,1l.67.27.61.26.72.32s1.4,2.47,3.12,5.62c2.38,4.32,5.39,9.9,6.31,12A40.13,40.13,0,0,1,208,179.54Z"/><path class="cls-60" d="M204.73,143.17l3.26,3.64v6c-2.33-2.22-5.08-5-6.1-5.95a2.86,2.86,0,0,0-.37-.28,2.76,2.76,0,0,1-.73-1l-.29-.51c-.15-.27-.31-.57-.47-.88l-.33-.63-.33-.66c-.21-.45-.43-.89-.63-1.3l-.42-.88q-.12-.27-.24-.51c-.07-.15-.14-.29-.19-.42l-.25-.54a15.4,15.4,0,0,1,0,2.58,12.3,12.3,0,0,1-.34,2,15.64,15.64,0,0,0-.34,3v0s0,0,0,.08v0c-.06,2.06.08,4.28.15,5.46a4.29,4.29,0,0,1-.53,2.67l-.24,0-.4-.06-.46-.06-.62-.09-2.41-.33-.87-.13-.21,0-1.52-.22-3.08-.43-1.23-.17-.66-.1-1.62-.23-.73-.11h0s-.62-4.41-.67-6.8a43.36,43.36,0,0,0-1.42-7.39s0,0,0,0h0v0s-3.52,3.7-4.2,5.3c-.17.4-.61,1.35-1.21,2.55a.2.2,0,0,1,0,.08c-1.62,3.28-4.27,8.4-5.3,9.6-.13.16-.23.25-.3.26h-.1c-.65,0-1.73-.89-2.26-1.37l-.31-.29.14-.29c.74-1.72,4.54-10.34,5.49-12.37l.19-.39a.44.44,0,0,0,.06-.1c.71-1.38,5.57-11.95,6.32-12.48a4.05,4.05,0,0,1,.39-.23l.19-.09h0l.4-.19.15-.06.3-.14c.59-.26,1.28-.55,1.95-.82l.55-.22.75-.29a.19.19,0,0,0,.09,0,12.4,12.4,0,0,1,1.51-.51h.3c1,.06,3.87.33,4.8.41l.3,0,1.12.51h0l.06,0,1.33.61,3.08,1.44c.87.42,2.19,1.13,2.29,1.21Z"/><path class="cls-61" d="M196.54,155.14a4.09,4.09,0,0,1,.42,2s-13.32-1.55-14.72-2.17c0,0-.06-1.8.24-1.83S196.54,155.14,196.54,155.14Z"/><path class="cls-14" d="M185.19,126.36c0,2.09,4.08,3.23,4.08,3.23s1.69-2.12,1.29-2.33c-.16-.08-.22-.39-.24-.75a7.11,7.11,0,0,1,0-1c0-.14,0-.24,0-.24s-.57-.61-1.31-1.33c-1.28-1.27-3.05-2.9-3.05-2.25a.57.57,0,0,0,0,.12C186.32,123.32,185.19,126.36,185.19,126.36Z"/><path class="cls-62" d="M185.52,153.49s-.29,1.83-.31,2.31l-.62-.13s.17-1.94.27-2.26Z"/><path class="cls-41" d="M195.43,154.93s.23,1.66.24,2.29l-.66-.08s-.13-2.08-.2-2.3Z"/><path class="cls-17" d="M186.74,123.3h0s.18.26.48.63a8.44,8.44,0,0,0,3.1,2.58,7.11,7.11,0,0,1,0-1,1.81,1.81,0,0,0,.4,0,12.42,12.42,0,0,0-.88-1.29l-.81-.24Z"/><path class="cls-14" d="M186,121.76c.35.76.68,1.32.77,1.54h0a2.87,2.87,0,0,0,.48.63,4.6,4.6,0,0,0,3.12,1.63,1.81,1.81,0,0,0,.4,0,1.92,1.92,0,0,0,1.39-1,10.92,10.92,0,0,0,.7-9s-6.9-1.95-8,.13C184.09,117.16,185.15,120,186,121.76Z"/><path class="cls-63" d="M192.83,115.57s.64,0,.8-1.25-.16-1.53-.16-1.53a29.28,29.28,0,0,0-3.87-1.35c-1-.15-3.54-.3-4.13.37,0,0-1.43-.33-1.82,2-.62,3.77,2.11,7.43,2.11,7.43s0-2.46.52-2.79,1,.45,1,.45l1.11.2s-1.69-3.64.34-3.78S191.67,115.79,192.83,115.57Z"/><path class="cls-14" d="M187.26,118c-.11-1.08-2.07-1.5-1.94-.36s1.1,2.23,1.55,2.19S187.34,118.8,187.26,118Z"/><path class="cls-15" d="M176.18,144.2c-.77,1.57-5.58,12.07-6.43,12.22s-3.09-1.79-3.09-1.79S172,142.79,172.48,142s5.61-12,6.38-12.58a33.23,33.23,0,0,1,3.95-1.76l.84-.33c.35.38,5.83,6.58,5.31,12.07-.15,1.65-.36,4.34-.82,7.17s-1.23,6.27-1.73,8.78a46.26,46.26,0,0,1-2.85,8.87l-5.14-2.57a1.77,1.77,0,0,1-.88-2.19c1.15-3.24,3.46-9.77,3.46-12.6,0,0-.18-6.41-.62-7.94A34.39,34.39,0,0,0,176.18,144.2Z"/><path class="cls-15" d="M208,146.69v6.37c-2.28-2.23-5.08-5.22-6.1-6.16a2.86,2.86,0,0,0-.37-.28,2.76,2.76,0,0,1-.73-1l-.29-.51c-.15-.27-.31-.57-.47-.88l-.33-.63-.33-.66c-.21-.45-.43-.89-.63-1.3l-.42-.88q-.12-.27-.24-.51c-.07-.15-.14-.29-.19-.42l-.25-.54a6.41,6.41,0,0,1,0,2.58,19,19,0,0,0-.68,5v0c.42,5.33,2.66,12.86,3.33,15a1,1,0,0,1-.19.89.44.44,0,0,1-.09.11l-1.6,1.47s-1.38-4.27-2.1-7.28c0-.08,0-.17-.05-.24a17,17,0,0,1-.33-1.8h0c-.13-1.2-.39-2.59-.67-4.08s-.55-3.07-.73-4.63c-.44-4-.9-7.87-1.23-10.17-.11-.75-.21-1.44-.32-2.08a52.33,52.33,0,0,0-1.25-6.26l0,0,1.33.61,3.08,1.44c.87.42,2.19,1.13,2.29,1.21l6.29,12.11Z"/><path class="cls-64" d="M184.78,132.51l2,1.11-.84.85,2.24,12.09c.46-2.83.67-5.52.82-7.17.52-5.49-5-11.69-5.31-12.07l-.84.33Z"/><path class="cls-64" d="M191.68,127.77a64.64,64.64,0,0,1,1.59,8.4c.33,2.3.79,6.22,1.23,10.17L195,135l-.94-1,.83-1-1.78-4.56-1.33-.61Z"/><path class="cls-15" d="M182.81,127.65c-1.6.63-4,1.46-4.44,1.77-.76.55-5.43,11.78-5.89,12.57Z"/><polygon class="cls-59" points="165.65 176.92 164.5 176.74 158.03 168.64 161.91 158.02 162.64 158.22 165.65 176.92"/><path class="cls-65" d="M183.56,127.35l1.63-1s0,.89,4.08,3.23l-1.14,3.23Z"/><path class="cls-65" d="M190.35,126.81a7.77,7.77,0,0,1-1.08,2.78l2.24,2.92.17-4.74Z"/><path class="cls-66" d="M189.27,129.59a7.44,7.44,0,0,0-.28,2.22,2.09,2.09,0,0,0,1.64-.09A7.78,7.78,0,0,0,189.27,129.59Z"/><path class="cls-67" d="M191.51,154.62a33.21,33.21,0,0,0,0-5.05l-.21,0a33.24,33.24,0,0,1,0,5Z"/><path class="cls-68" d="M189.81,154.06s2,.23,2.61.39l-.09,2.2-2.56-.27Z"/><path class="cls-66" d="M190.24,131.57a44,44,0,0,1,2.17,11.6c.24,6.18-.41,7.78-.41,7.78l-2.41,2.17-.81-2.82a36.7,36.7,0,0,0,1-14.81c-.21-1.44-.52-4.17-.52-4.17Z"/><rect class="cls-69" x="155.17" y="95.03" width="52.82" height="113.4" rx="5.03"/><path class="cls-14" d="M212.41,152.37s.78,1.14,1.19,1.18a8.36,8.36,0,0,1,1.35.51c.36.1,1.45,0,1.77.28a10.86,10.86,0,0,0,1,1.19c.29.17.92.44.76.69s-.8.15-.8.15a.41.41,0,0,1,.18.43c-.14.5-.47.56-.47.56a.77.77,0,0,1,0,.54,1,1,0,0,1-.56.48.84.84,0,0,1-.23.52.76.76,0,0,1-.71.21s-.28.48-.59.44a2.67,2.67,0,0,1-.72-.34,9.45,9.45,0,0,1-2.58-3.08,7.21,7.21,0,0,0-1.84-2.37Z"/><path class="cls-70" d="M217.55,156.19s-1.43-1.24-2.07-1.13-.15.58-.15.58-.48-.48-.91-.13.17.87.17.87a.55.55,0,0,0-.76.22c-.29.49.32.82.32.82s-.87,0-.62.65a2.84,2.84,0,0,0,1.77,1.48s.34.06.59-.44a.76.76,0,0,0,.94-.73s.9-.33.53-1A.66.66,0,0,0,217.55,156.19Z"/><path class="cls-41" d="M213.15,203.93a8.16,8.16,0,0,0,3.69,1.68c1.74.11,3.75.56,3.93,1.62s-5.28,2.39-7.38,1.64c-3.12-1.12-3.33-.59-3.78-1.33s-.1-3-.16-3.24S213.15,203.93,213.15,203.93Z"/><path class="cls-42" d="M212.82,203.07a7.3,7.3,0,0,1,.33.86s-3.7,1.08-3.7.37,0-1.21,0-1.21Z"/><path class="cls-41" d="M213.58,203c0,.22-.2.36-.59.44a15.61,15.61,0,0,1-3.53.08l-.4,0s-7.48-22.92-8.94-25.9c-1-2-9.8-13.51-10.44-12.68a36.66,36.66,0,0,1-2.28-9c-.09-.66-.16-1.35-.22-2.05a25.19,25.19,0,0,1,2.62.61c.88.26,1.76.54,2.58.83s1.84.69,2.57,1l.67.27.61.26.72.32s1.4,2.47,3.12,5.62c2.38,4.32,5.39,9.9,6.31,12a52.91,52.91,0,0,1,3.2,12C209.84,189.89,213.4,202.15,213.58,203Z"/><path class="cls-60" d="M213.83,153.35l-.17.21c-.39.45-1.32,1.53-1.91,2.09l-.06,0c-.07.06-.2,0-.4-.07-1.69-.87-7.76-7.29-9.4-8.73l-.28-.22a.05.05,0,0,0,0,0l0,0a2.76,2.76,0,0,1-.73-1l-.29-.51c-.07-.14-.15-.27-.23-.42s-.15-.3-.24-.46l-.33-.63c-.38-.76-.77-1.56-1.11-2.27l-.23-.5-.34-.72-.13-.27-.08-.18-.07-.14-.1-.23h0a15.4,15.4,0,0,1,0,2.58h0a12.39,12.39,0,0,1-.34,1.94,15.64,15.64,0,0,0-.34,3v0s0,0,0,.08v0c-.06,2.06.08,4.28.15,5.46a4.29,4.29,0,0,1-.53,2.67l-.24,0-.4-.06-.46-.06-.62-.09-2.41-.33-.87-.13-.21,0-1.52-.22-2.64-.37v0c0-.54-.08-1.09-.1-1.65h0c0-.83,0-1.68,0-2.56a59.59,59.59,0,0,1,.51-6.1c.36-2.69.78-5.17.92-7.93.06-1.19.07-2.43,0-3.77h0c-.05-.8-.11-1.64-.22-2.53,0-.08,0-.17,0-.26-.08-.63-.17-1.28-.29-2l2.31.21h0l.29,0,1.12.51h0l.06,0,1.33.61,3.08,1.44c.87.42,2.19,1.13,2.29,1.21l6.29,12.11,8.89,9.93Z"/><path class="cls-61" d="M197,157.17l-.67-.08-.63-.08-.65-.07-2.67-.34c-.82-.1-1.69-.21-2.56-.34l-2.37-.32c-.09-.66-.16-1.35-.22-2.05a.13.13,0,0,0,0-.06v0l2.64.37,1.53.23.2,0,.87.12,2.41.35.62.09.46.07h0l.4.06.24,0A4,4,0,0,1,197,157.17Z"/><path class="cls-14" d="M189.27,129.59h0a8.54,8.54,0,0,1-1-.35c0-.08,0-.17,0-.26-.08-.63-.17-1.28-.29-2-.09-.52-.19-1-.31-1.6s-.17-.84-.23-1.25h0a1.92,1.92,0,0,1-.19-.23l.18.19c0-.23-.08-.44-.1-.66h0c-.07-.43-.11-.83-.15-1.23.58.48,1.3,1.16,1.9,1.75s1.31,1.34,1.31,1.34,0,.1,0,.24a7.11,7.11,0,0,0,0,1,1.29,1.29,0,0,0,0,.29c0,.23.1.41.21.46C191,127.47,189.27,129.59,189.27,129.59Z"/><path class="cls-41" d="M195.43,154.93s.23,1.66.24,2.29l-.66-.08s-.13-2.08-.2-2.3Z"/><path class="cls-17" d="M190.34,125.56a7.11,7.11,0,0,0,0,1,8.11,8.11,0,0,1-2.91-2.34h0a1.92,1.92,0,0,1-.19-.23l.18.19c0-.23-.08-.44-.1-.66l1.75.52.82.25a11.94,11.94,0,0,1,.87,1.28A1.37,1.37,0,0,1,190.34,125.56Z"/><path class="cls-14" d="M192.13,124.55a1.86,1.86,0,0,1-1.39,1,1.37,1.37,0,0,1-.4,0,4.47,4.47,0,0,1-2.94-1.44c0-.23-.08-.44-.1-.66h0c-.07-.43-.11-.83-.15-1.23a20.22,20.22,0,0,1-.08-2.53c0-.34,0-.66.05-1a9.23,9.23,0,0,1,.1-1,12.16,12.16,0,0,1,.8-3,24.43,24.43,0,0,1,4.81.82A10.9,10.9,0,0,1,192.13,124.55Z"/><path class="cls-63" d="M193.63,114.33c-.16,1.21-.8,1.25-.8,1.25-1.16.2-2.06-.34-4.09-.21s-.34,3.78-.34,3.78l-1.11-.19h0a1.27,1.27,0,0,0-.16-.22,9.23,9.23,0,0,1,.1-1,12.16,12.16,0,0,1,.8-3,7.08,7.08,0,0,1,2.23-3.16h0c1.25.37,3.22,1.19,3.22,1.19S193.79,113.12,193.63,114.33Z"/><path class="cls-14" d="M187.28,119a1.29,1.29,0,0,1-.21.75c0-.34,0-.66.05-1a9.23,9.23,0,0,1,.1-1,.43.43,0,0,1,0,.19A4.63,4.63,0,0,1,187.28,119Z"/><path class="cls-15" d="M189,139.38c-.16,1.66-.36,4.34-.81,7.18-.3,1.81-.7,3.75-1.08,5.57,0-.83,0-1.68,0-2.56a59.59,59.59,0,0,1,.51-6.1c.36-2.69.78-5.17.92-7.93A10,10,0,0,1,189,139.38Z"/><path class="cls-15" d="M197.08,146.94c-.21-2.76,1.1-5.32.55-7.62h0c.11.26,3.22,7.06,3.88,7.3s9.07,9.67,9.78,9,2.47-2.7,2.47-2.7l-9-9.76-6.29-12.11c-.1-.08-1.42-.79-2.29-1.21l-3.08-1.44-1.33-.61,0,0a66.49,66.49,0,0,1,1.56,8.34c.33,2.3.79,6.22,1.23,10.17h0c.35,3.12,1.15,6.32,1.4,8.71s2.49,9.32,2.49,9.32l1.59-1.48a1,1,0,0,0,.27-1A84.69,84.69,0,0,1,197.08,146.94Z"/><path class="cls-64" d="M189,139.38c-.16,1.66-.36,4.34-.81,7.18l-.58-3.09c.36-2.69.78-5.17.92-7.93A10,10,0,0,1,189,139.38Z"/><path class="cls-64" d="M191.68,127.77a64.64,64.64,0,0,1,1.59,8.4c.33,2.3.79,6.22,1.23,10.17L195,135l-.94-1,.83-1-1.78-4.56-1.33-.61Z"/><path class="cls-65" d="M189.27,129.59h0v0h0l-.76,2.12c-.05-.8-.11-1.64-.22-2.53,0-.08,0-.17,0-.26l1,.61Z"/><path class="cls-65" d="M190.35,126.81a7.77,7.77,0,0,1-1.08,2.78l2.24,2.92.17-4.74Z"/><path class="cls-66" d="M189.27,129.59a7.44,7.44,0,0,0-.28,2.22,2.09,2.09,0,0,0,1.64-.09A7.78,7.78,0,0,0,189.27,129.59Z"/><path class="cls-67" d="M191.51,154.62a33.21,33.21,0,0,0,0-5.05l-.21,0a33.24,33.24,0,0,1,0,5Z"/><path class="cls-68" d="M189.81,154.06s2,.23,2.61.39l-.09,2.2-2.56-.27Z"/><path class="cls-66" d="M190.24,131.57a44,44,0,0,1,2.17,11.6c.24,6.18-.41,7.78-.41,7.78l-2.41,2.17-.81-2.82a36.7,36.7,0,0,0,1-14.81c-.21-1.44-.52-4.17-.52-4.17Z"/></g></g></svg>