<svg id="Layer_1" data-name="Layer 1" xmlns="http://www.w3.org/2000/svg" viewBox="0 0 1000 1000"><path d="M971,696.41c-16.35-37.2-47.76-68.24-85.49-83.52-39.3-15.91-84.42-10.12-125.82-15.45-36-4.63-61.89-20.68-83.35-49.22-20.57-27.34-39-57.61-72.64-70.26-26.57-10-56.78-7.22-83.19,3.19-48.67,19.19-85.42,60-116.38,100.63-28.26,37.11-51.31,77.74-103.59,79.07S198.47,632.34,145.8,640.24C76.19,650.69,18.22,708.64,6.07,777.63-5.31,842.29,23.26,905,72.34,941.84H916C977.8,876.23,1010.25,785.6,971,696.41Z" style="fill:#f7f0e3"/><path d="M208.42,941.84h2.32a177.85,177.85,0,0,0,36.77-63.07c13-38.62,12.44-79.15-1.54-114.12C238.9,747,228.7,730.5,218.83,714.57c-10-16.15-20.36-32.86-27.39-50.76a113.49,113.49,0,0,1-6.34-23.46l-1.74-.21a114.7,114.7,0,0,0,6.51,24.29c7.08,18,17.47,34.82,27.52,51,9.83,15.86,20,32.27,27,49.81,13.84,34.6,14.37,74.71,1.51,113A175.92,175.92,0,0,1,208.42,941.84Z" style="fill:#fff"/><path d="M911.88,868.27c17.38,3.7,34.13,7,50.33,9.11.28-.53.55-1.07.82-1.61-16.33-2.07-33.24-5.42-50.8-9.16-26.73-5.7-55.67-11.86-84.37-11.86-17.77,0-35.45,2.36-52.45,8.66a106.85,106.85,0,0,0-18.57,9c-15.35-6.55-30.79-13.69-46.08-21.54q16.63-12.54,33.64-24.45c84.13-58.75,161.77-92.05,236.78-101.51-.15-.55-.31-1.1-.46-1.64-75.21,9.52-153,42.91-237.29,101.75q-17.35,12.13-34.35,25a568.74,568.74,0,0,1-50.63-29.42c-29.83-19.55-65.31-47.44-96.29-84.51C682.23,722.64,804.48,705.67,904.31,639c3.79-2.54,8-5.53,12.34-8.91-.48-.35-1-.68-1.45-1-4.17,3.23-8.19,6.08-11.83,8.51-99.81,66.71-222.28,83.55-342.51,97C539,708.07,519.4,677,505.81,641c-21.18-56.1-20.06-111.15,3.06-151,1-1.73,2.07-3.44,3.16-5.12-1,.44-1.92.9-2.88,1.36-.59,1-1.18,1.93-1.74,2.91C484,529.39,482.86,585,504.22,641.55c13.52,35.81,32.91,66.8,54.63,93.22L538,737.09c-25,2.76-50.92,5.62-76.06,8.85-9.18,1.18-18.51,2.56-27.79,4.29-19.91-42-41.77-83-70-118.14l-1.23,1.19c28,34.88,49.75,75.56,69.53,117.27-40.49,7.73-79.82,22.25-100.81,56-19.61,31.56-19.6,75.19.05,129.66q1,2.84,2.09,5.59h1.81c-.77-2-1.55-4.06-2.31-6.16-19.45-54-19.52-97.1-.2-128.2,20.74-33.39,59.85-47.71,100.13-55.34,7,14.86,13.81,29.85,20.56,44.74l.73,1.62c23.43,51.72,47.66,101.63,79.39,143.34H536c-32-41.78-56.39-92-80-144l-.74-1.62c-6.69-14.77-13.42-29.63-20.38-44.36,9.11-1.69,18.26-3,27.26-4.19,25.12-3.24,51-6.1,76-8.86l22-2.43c31.28,37.64,67.21,65.93,97.38,85.7a570.24,570.24,0,0,0,50.06,29.14C678.72,873,650.65,896,623.25,918.39c-9.49,7.76-19.09,15.61-28.77,23.45h2.69c9.13-7.4,18.19-14.81,27.15-22.14,27.6-22.58,55.87-45.7,84.93-67.66,15.21,7.82,30.56,15,45.83,21.49-20.89,13.29-37.92,33.87-48.22,58.85-1.28,3.13-2.41,6.29-3.45,9.46h1.78c1-3,2-5.9,3.24-8.81,10.33-25.06,27.5-45.61,48.55-58.69,42.7,18.14,84.66,31.6,120.71,42.27l1.36.4c15.19,4.49,30.73,9.1,44.48,16.49l1.15-1.31c-14-7.58-29.74-12.25-45.15-16.81l-1.36-.4c-35.68-10.56-77.16-23.86-119.4-41.73A105.46,105.46,0,0,1,776,865C820,848.69,868.82,859.09,911.88,868.27Z" style="fill:#fff"/><path d="M76.59,758.38c7.49,30.67,4.15,63.79-9.17,90.88a156.51,156.51,0,0,1-36.85,47.59l.94,1.43A158.21,158.21,0,0,0,68.94,850c13.49-27.43,16.88-61,9.3-92-5.93-24.26-17.85-44.81-34.31-59.68-.37.43-.73.87-1.09,1.3C59,714.24,70.75,734.48,76.59,758.38Z" style="fill:#fff"/><path d="M460.54,369.86c14.78,15.1,21.4,40.54,13.25,64-7.89,22.71-25.18,41.52-46,53.61-16.72,9.74-38.53,15.1-55,4.91-12.29-7.61-18.66-22.55-19-37s4.51-28.54,10.52-41.69c8.46-18.53,19.86-36.5,36.83-47.78C424.59,350.38,446.34,355.34,460.54,369.86Z" style="fill:#f7f0e3"/><path d="M264.64,105.08H142.27V50.41H264.64Zm-119.83-2.55H262.1V53H144.81Z" style="fill:#e8dcca"/><path d="M185,157.36H62.66V102.69H185ZM65.2,154.81H182.49V105.23H65.2Z" style="fill:#e8dcca"/><path d="M960.93,215.61Q949,176.08,919.11,143T837.32,88.14Q785.51,66.48,705.67,66.48q-63.7,0-129.83,17.18T461,132.75l42.26,116-22.65,18.35,32.85,9.65q48.63-25.45,88.62-37a306.63,306.63,0,0,1,84.88-11.45q44.93,0,68,21.66T778,302.29q0,37-23.68,65.64t-52.46,58Q682,446.29,663.2,468a302,302,0,0,0-33.07,46.56,253.16,253.16,0,0,0-23.08,53.53q-8.77,28.68-8.74,64.35c0,7.68.16,16.81.61,27.43.08,2,.18,3.87.3,5.75H568.16l33.89,22.92H766.82a109.85,109.85,0,0,1-1.26-17.84V655.36a110.73,110.73,0,0,1,8.74-42.7,220.69,220.69,0,0,1,21.86-40.16,296.63,296.63,0,0,1,29.33-36.31Q841.71,519,856.7,503.66q19.93-20.36,41.16-43.32a340.76,340.76,0,0,0,37.47-48.42,272.21,272.21,0,0,0,26.82-55.48q10.61-29.94,10.64-65.64T960.93,215.61Z" style="fill:#e49c31"/><path d="M652.05,220.26a308.8,308.8,0,0,0-83.89,11.08q-39.51,11.15-87.58,35.78L428.74,127.73q48.12-30.84,113.52-47.5T670.56,63.6q78.91,0,130.11,21t80.84,53q29.57,32.12,41.32,70.32t11.72,72.76q0,34.57-10.52,63.53a260.52,260.52,0,0,1-26.5,53.69,330.38,330.38,0,0,1-37,46.86q-21,22.23-40.67,41.93Q805,501.51,789,518.18a287.84,287.84,0,0,0-29,35.14,212.25,212.25,0,0,0-21.6,38.87,105.25,105.25,0,0,0-8.64,41.32v14.82A104,104,0,0,0,731,665.59H568.16a173.06,173.06,0,0,1-3.09-27.74c-.44-10.28-.6-19.12-.6-26.55q0-34.51,8.63-62.28a242.05,242.05,0,0,1,22.81-51.8,292.23,292.23,0,0,1,32.69-45.06q18.49-21,38.23-40.68,28.36-28.37,51.84-56.14t23.41-63.52q0-29.64-22.81-50.6T652.05,220.26Z" style="fill:#fbc342"/><path d="M778.1,848.45q0,44.55-28.85,68.8T684,941.52q-36.45,0-65.27-24.27t-28.82-68.8q0-44.52,28.82-68.8c29.61-25,73.4-30.55,108.07-13C757.56,782.19,778.1,813.79,778.1,848.45Z" style="fill:#e49c31"/><path d="M745.86,848.45q0,44.55-28.85,68.8t-65.24,24.27q-36.45,0-65.27-24.27t-28.82-68.8q0-44.52,28.82-68.8t65.27-24.27q36.4,0,65.24,24.27T745.86,848.45Z" style="fill:#fbc342"/><circle cx="240.63" cy="424.04" r="17.74" transform="translate(-220.48 582.43) rotate(-79.38)" style="fill:#d4def2"/><ellipse cx="256.67" cy="458.79" rx="9.98" ry="10.05" transform="translate(-241.55 626.56) rotate(-79.39)" style="fill:#d4def2"/><circle cx="196.84" cy="334.7" r="69.87" transform="translate(-179.01 237.22) rotate(-45)" style="fill:#d4def2"/><circle cx="170.02" cy="334.7" r="8.8" style="fill:#fff"/><circle cx="196.84" cy="334.7" r="8.8" style="fill:#fff"/><circle cx="223.67" cy="334.7" r="8.8" style="fill:#fff"/><path d="M146.79,906.55l6.53,25.16a14.42,14.42,0,0,0,15.07,10.52c21.4-1.45,65.88-6.7,91.4-25.51l-7.25-36.27c-35.1-2-67.92,0-96.34,9.54A13.9,13.9,0,0,0,146.79,906.55Z" style="fill:#1d2545"/><path d="M187.7,926.58a.86.86,0,0,1-.82-.62l-8.76-31.39a.83.83,0,0,1,.58-1,.85.85,0,0,1,1.05.59l8.76,31.38a.85.85,0,0,1-.58,1Z" style="fill:#fff"/><path d="M206.64,922.34a.86.86,0,0,1-.82-.62l-8.76-31.39a.85.85,0,0,1,1.63-.45l8.77,31.38a.86.86,0,0,1-.59,1A.91.91,0,0,1,206.64,922.34Z" style="fill:#fff"/><polygon points="228.64 770.51 147.07 794.71 207.65 877.71 294.62 884.63 414.57 833.91 368.98 765.32 228.64 770.51" style="fill:#fbc342"/><path d="M329.2,782c179.13-53,207.92,105.29-71.57,134.11-9.87-11.11-21.41-30.38-26-46.5l147.59-68.2Z" style="fill:#fbc342"/><path d="M336.81,895.49a77.44,77.44,0,0,1-16.41-8l-28.78,9,6.59,31.32,29.91,6.07C337.23,917.27,337.76,903.59,336.81,895.49Z" style="fill:#f8b486"/><path d="M232.28,870.74l-1.28-2.2c30.79-17.89,109.66-60.88,176.86-73.56l.47,2.5C341.52,810.09,263,852.91,232.28,870.74Z" style="fill:#e49c31"/><path d="M228.64,770.51C61.91,738.8,18.73,899,298.21,927.86a101.57,101.57,0,0,0,22.19-40.35c-42.93-28.73-90.93-56-143.54-82Z" style="fill:#fbc342"/><path d="M319.72,888.58c-7.93-5-16.19-10.38-24.94-16-43.93-28.36-93.71-60.5-136-78.83l1-2.33c42.49,18.41,92.36,50.61,136.37,79,8.74,5.65,17,11,24.93,16Z" style="fill:#e49c31"/><path d="M106.31,850l-2.23-1.23c6.26-11.33,16.29-19,29.8-22.71l.68,2.45C121.55,832.06,112.31,839.09,106.31,850Z" style="fill:#e49c31"/><path d="M454.31,840.31c-6-10.86-15.24-17.89-28.25-21.5l.68-2.45c13.51,3.74,23.54,11.39,29.79,22.72Z" style="fill:#e49c31"/><path d="M282.6,926.45l-1.86-1.74c13.34-14.28,21.53-29.36,25-46.1l2.49.52C304.66,896.34,296.26,911.82,282.6,926.45Z" style="fill:#e49c31"/><path d="M420,886.17c-21.36-13.2-62.77,9.6-73.17,10.76a25,25,0,0,1-10-1.44c.95,8.1.42,21.78-8.69,38.44l5.08,1s35.12,12.87,72.37,5.38C440,933.43,436.76,896.54,420,886.17Z" style="fill:#1d2545"/><path d="M390.85,929.33a1.15,1.15,0,0,1-.26,0,.85.85,0,0,1-.55-1.07c2.53-8,3.64-23.84-3.71-34.46a.84.84,0,0,1,.22-1.18.85.85,0,0,1,1.18.21c7.69,11.12,6.56,27.59,3.92,35.94A.83.83,0,0,1,390.85,929.33Z" style="fill:#fff"/><path d="M374.09,932.52a1.09,1.09,0,0,1-.25,0,.86.86,0,0,1-.56-1.07c2.54-8,3.65-23.84-3.7-34.46a.85.85,0,1,1,1.39-1c7.7,11.12,6.57,27.59,3.93,35.94A.86.86,0,0,1,374.09,932.52Z" style="fill:#fff"/><path d="M199.14,563.9s42-35.7,40.44-42.49c-1.11-4.85-13,2.26-13,2.26s16.69-19.79,15.84-22.19c-1.52-4.3-13.06,3.71-13.06,3.71s7.8-11.22,4.07-13.05-11.85,5.08-11.85,5.08,4.75-6.23,2.52-7.86-11.86,5.09-11.86,5.09,3.45-7.86-3.88-4.88-58.79,50.19-58.79,50.19Z" style="fill:#f8b486"/><path d="M216.32,521.55a.83.83,0,0,1-.57-.22c-7.21-6.58-10.38-8.18-18.34-10.63a.86.86,0,0,1-.56-1.06.84.84,0,0,1,1.06-.56c8.24,2.53,11.53,4.19,19,11a.85.85,0,0,1,0,1.2A.86.86,0,0,1,216.32,521.55Z" style="fill:#e38b6d"/><path d="M203.67,540.92h-.12a.84.84,0,0,1-.72-.95c.83-5.91,2.69-9.6,5.68-11.28,2.57-1.45,5.9-1.3,9.92.44a.84.84,0,0,1-.67,1.55c-3.51-1.51-6.34-1.68-8.41-.52-2.48,1.39-4.1,4.77-4.84,10A.85.85,0,0,1,203.67,540.92Z" style="fill:#e38b6d"/><path d="M201.69,505.22a.81.81,0,0,1-.61-.26.84.84,0,0,1,0-1.2l10.54-9.93a.85.85,0,1,1,1.16,1.23L202.27,505A.81.81,0,0,1,201.69,505.22Z" style="fill:#e38b6d"/><path d="M211.45,508.62a.85.85,0,0,1-.61-1.44L221,496.64a.85.85,0,0,1,1.2,0,.86.86,0,0,1,0,1.2l-10.12,10.55A.87.87,0,0,1,211.45,508.62Z" style="fill:#e38b6d"/><path d="M221.41,514.56a.86.86,0,0,1-.62-1.43l7.94-8.52a.85.85,0,0,1,1.2,0,.84.84,0,0,1,0,1.2L222,514.29A.86.86,0,0,1,221.41,514.56Z" style="fill:#e38b6d"/><path d="M357.76,802.73l-153.52,5.94-17-140S238.67,620,258.44,602l33.39-1.71C395.4,647.38,378.44,706.18,357.76,802.73Z" style="fill:#4264ad"/><path d="M291.83,600.3s118.49,10.13,155.85,91.32C484.23,771.05,334,799.34,334,799.34Z" style="fill:#4264ad"/><path d="M156.38,617.7l49-59.59-45.79-27.75c-19.1,13.28-56,43.36-87.34,77.43a64.48,64.48,0,0,0-15,26,55.77,55.77,0,0,0-1.44,24.38h0a47.07,47.07,0,0,0,41.6,39.41C116,699.74,187.27,694.16,245,677.2l17-65.48C253.2,606.77,188.41,605.92,156.38,617.7Z" style="fill:#4264ad"/><g style="opacity:0.8"><path d="M390.71,632.52l.77-.18-1.61-.93a257.1,257.1,0,0,1-26.48,5.1c-5.3.64-23,1.81-28.22-10-2.58-5.88-.63-12.42,2.29-17l-1.27-.36c-3,4.86-4.91,11.68-2.19,17.88,5.54,12.62,24,11.42,29.55,10.76A263.51,263.51,0,0,0,390.71,632.52Z" style="fill:#fff"/><path d="M446,724.08c-5.66-2.19-11.51-4.45-17.65-3.87-10.79,1-20,11.68-20.58,23.77-.38,8.24,2.77,16.88,8.77,24.48l1.08-.68c-5.87-7.38-8.95-15.77-8.58-23.74.54-11.48,9.25-21.6,19.42-22.56,5.85-.55,11.31,1.55,17.08,3.78,2.07.8,4.16,1.6,6.29,2.29.11-.41.22-.82.32-1.24C450.08,725.64,448,724.86,446,724.08Z" style="fill:#fff"/><path d="M146.93,683.61c-7.4-6.11-18.89-7.75-31.53-4.48-11.26,2.91-20.93,8.68-27.57,16.32.44.14.87.3,1.31.43,6.46-7.25,15.76-12.72,26.58-15.52,12.24-3.17,23.32-1.62,30.4,4.24a27.55,27.55,0,0,1,7.48,10.29l1.31-.15A29,29,0,0,0,146.93,683.61Z" style="fill:#fff"/><path d="M80.05,599.47c13.87-3.45,27.39-8.29,39.87-15.47,4.71-2.72,10-6.18,13.78-11.26,4-5.41,5.3-11.85,3.54-17.23a13.41,13.41,0,0,0-3.45-5.44l-1,.8a12.24,12.24,0,0,1,3.22,5c1.64,5,.38,11-3.35,16.07-3.61,4.89-8.8,8.26-13.4,10.91a150.25,150.25,0,0,1-37.57,14.86Z" style="fill:#fff"/></g><path d="M302.67,569.18l0,2.18-.34,33.74-.05,3.66a21,21,0,0,1-42,0L259.83,567Z" style="fill:#f8b486"/><path d="M302.65,571.36l-.34,33.74c-18.76-7.63-26.48-27.94-26.48-27.94Z" style="fill:#1d2545"/><path d="M310.07,512.47c6.72,8.06,26.35,53.77,6.45,69.36-22.38,17.55-56.46-11.29-56.46-11.29l-4.57-53.23,29.58-7.8Z" style="fill:#f8b486"/><path d="M240.43,509.54s-65.6,34.21-12.11,132.83c6.87,12.66,22.08,18.19,35.1,12h0a26.61,26.61,0,0,0,11.67-37.16c-8.75-15.54-17.2-35.55-13.59-50.44Z" style="fill:#1d2545"/><circle cx="246.62" cy="525.73" r="17.74" transform="translate(-299.51 328.37) rotate(-45)" style="fill:#fbc342"/><path d="M268.45,547.05c-1.92-11.07-3.08-18.66,8.1-24.37,0,0,39.43,7.17,47-7.7s-3.94-38.36-28-22.05c-61.47-12-69.72,45.53-51.08,64.7l18.4-2.82A6.7,6.7,0,0,0,268.45,547.05Z" style="fill:#1d2545"/><circle cx="298.98" cy="547.08" r="2.62" style="fill:#1d2545"/><circle cx="316.72" cy="538.34" r="2.62" style="fill:#1d2545"/><path d="M314.91,555.15a.76.76,0,0,1-.51-.2.74.74,0,0,1,0-1.05c1.05-1.11,2.2-2.67,1.72-3.79s-2.63-1.68-3.6-1.68c-2.09,0-3.1-3.72-3.28-4.47a.75.75,0,0,1,1.45-.35c.38,1.58,1.24,3.34,1.83,3.34,1,0,4.06.47,5,2.57.65,1.5,0,3.32-2,5.4A.76.76,0,0,1,314.91,555.15Z" style="fill:#1d2545"/><path d="M315,565.1a.71.71,0,0,1-.41-.13,9.92,9.92,0,0,0-10-.51.74.74,0,0,1-.74-1.29,11.31,11.31,0,0,1,11.54.57.74.74,0,0,1,.2,1A.75.75,0,0,1,315,565.1Z" style="fill:#1d2545"/><path d="M297.83,535.73c1.49,2.81-1.11,3.37-4.15,5s-6.16,2.21-6.87.87,1.18-3.74,4.22-5.35S296.68,533.56,297.83,535.73Z" style="fill:#1d2545"/><path d="M308.94,530.66c.65,2.51,2.52,1.41,5.24.7s4.91-2.08,4.6-3.27-2.77-1.59-5.49-.88S308.43,528.72,308.94,530.66Z" style="fill:#1d2545"/><circle cx="286.88" cy="559.31" r="7.73" transform="translate(-303.2 342.67) rotate(-42.69)" style="fill:#eb5e61;opacity:0.4"/><ellipse cx="257.53" cy="559.34" rx="10.47" ry="11.9" transform="translate(-342.62 421.5) rotate(-52.34)" style="fill:#f8b486"/><path d="M262.13,563.22a.74.74,0,0,1-.74-.74,6.5,6.5,0,0,0-2.86-5.42,5.24,5.24,0,0,0-4.88-.65.75.75,0,0,1-1-.41.74.74,0,0,1,.41-1,6.71,6.71,0,0,1,6.27.79,8,8,0,0,1,3.51,6.65A.74.74,0,0,1,262.13,563.22Z" style="fill:#1d2545"/><rect x="123.26" y="631.33" width="39.46" height="1.7" transform="translate(-418.29 308.04) rotate(-47.25)" style="fill:#1d2545"/><path d="M344.44,741.63,344,740c19.49-6,38.42-13.06,55.56-34.5l1.33,1.06C383.39,728.39,364.2,735.61,344.44,741.63Z" style="fill:#1d2545"/><path d="M356.3,675.93H190.44c-6,0-10.8,5.24-10.8,11.69V806c0,6.46,4.83,11.69,10.8,11.69H356.3c6,0,10.8-5.23,10.8-11.69V687.62C367.1,681.17,362.26,675.93,356.3,675.93Z" style="fill:#d4def2"/><path d="M282.12,739.34a1.19,1.19,0,0,1,1.14,1.24v12.5a1.19,1.19,0,0,1-1.14,1.23H264.61a1.19,1.19,0,0,1-1.14-1.23v-12.5a1.19,1.19,0,0,1,1.14-1.24h17.51m0-3.39H264.61a4.58,4.58,0,0,0-4.53,4.63v12.5a4.58,4.58,0,0,0,4.53,4.62h17.51a4.59,4.59,0,0,0,4.54-4.62v-12.5a4.59,4.59,0,0,0-4.54-4.63Z" style="fill:#1e3d87"/><rect x="-0.01" y="940.14" width="1000" height="3.39" style="fill:#1d2545"/></svg>