<svg xmlns="http://www.w3.org/2000/svg" xmlns:xlink="http://www.w3.org/1999/xlink" viewBox="0 0 1000 1000"><defs><clipPath id="clip-path"><rect x="-279" y="118.06" width="1279" height="880.88" style="fill:none"/></clipPath></defs><g style="isolation:isolate"><g id="Layer_1" data-name="Layer 1"><g style="clip-path:url(#clip-path)"><path d="M43.27,1034c-27.68-174.57,49-248.81,180-231.62,205.57,27-10.39-243.85,244-274.25C646,506.73,863.19,335,893.62,217.3s209.7-207,291.37-130.17-78.85,763.11-78.85,763.11l-890.4,232.61Z" style="fill:#9bd7f7;opacity:0.18;mix-blend-mode:multiply"/><path d="M102.61,985.49c-51.94-140,17.28-196.16,90-178.82s164-62.43,93.54-259.71S420.18,217.25,563.73,261.35s209.41-375.58,451.35,1.33c224.61,349.92,32.3,755.59,32.3,755.59Z" style="fill:#cbeafc"/><path d="M281.1,932.46c69.22,25,189.56-101.12,128-286.61s55.69-298.62,169.58-241.46,145.49-224.3,282.06-160.17C956,288.91,1032.1,402.6,1073.62,537c21.24,68.75,26.64,211.75,26.85,335.07,31-150.39,40.18-370.85-89.42-572.75C769.11-77.56,703.24,342.11,559.69,298S211.6,386.35,282.07,583.63s-20.86,277-93.54,259.71-141.89,38.79-90,178.82l76.1,2.64C157.66,932.84,220.05,910.39,281.1,932.46Z" style="fill:#9bd7f7;opacity:0.18;mix-blend-mode:multiply"/><path d="M950,586.37c18.55,0,19.58-28.84,1-29.77-.51,0-1,0-1.53,0a30,30,0,0,0-9.47,1.53c-2.48-15.61-15.6-27.52-31.4-27.52-16.16,0-29.5,12.44-31.55,28.56a28.49,28.49,0,0,0-20-2c-16.22,4.31-12.81,29.24,3.93,29.24Z" style="fill:#9bd7f7"/><ellipse cx="610.92" cy="914.31" rx="417.25" ry="26.95" style="fill:#e1f2fd"/><ellipse cx="470.62" cy="918.7" rx="73.51" ry="5.41" style="fill:#cbeafc"/><rect x="375.08" y="528.1" width="499.8" height="366.92" rx="7.96" style="fill:#125da9"/><rect x="451.2" y="514.32" width="319.44" height="394.47" rx="1.48" transform="translate(1322.47 100.64) rotate(90)" style="fill:#cbeafc"/><path d="M805.21,551.84H416.63a3,3,0,0,0-2.95,3v8.7H791.57a3,3,0,0,1,2.94,3V871.27h10.7a3,3,0,0,0,2.94-3V554.88A3,3,0,0,0,805.21,551.84Z" style="fill:#9bd7f7"/><path d="M857.27,711.55a16.09,16.09,0,1,0-16.09,16.62A16.36,16.36,0,0,0,857.27,711.55Z" style="fill:#fff"/><path d="M416.63,871.27H625.69c-11.7,8.85-20.83,16.79-33.78,23.75h-201a16.09,16.09,0,0,1-15.82-16.34V544.42A16.08,16.08,0,0,1,390.9,528.1H729.32q4.17,11.65,7.39,23.73H416.63a3,3,0,0,0-2.95,3V868.23A3,3,0,0,0,416.63,871.27Z" style="fill:#1f6cb5"/><rect x="494.28" y="270.07" width="3.77" height="190.15" style="fill:#5397d2"/><rect x="764.75" y="270.07" width="3.77" height="233.83" style="fill:#5397d2"/><path d="M768.16,484.78,487.65,451c-12-1.45-22.84,7.42-24.24,19.8L442.47,656.07c-1.4,12.39,7.19,23.6,19.18,25l280.51,33.83c12,1.45,22.84-7.42,24.24-19.81l20.94-185.31C788.74,497.44,780.15,486.23,768.16,484.78Z" style="fill:#fff"/><path d="M785.26,528.16l2.08-18.34c1.4-12.38-7.19-23.59-19.18-25L487.65,451c-12-1.45-22.84,7.42-24.24,19.8l-2.07,18.34Z" style="fill:#125da9"/><path d="M494.41,476.56a5.93,5.93,0,0,1-6.52,5.33,6,6,0,0,1-5.15-6.73,5.92,5.92,0,0,1,6.51-5.33A6,6,0,0,1,494.41,476.56Z" style="fill:#fff"/><path d="M522.54,480a5.91,5.91,0,0,1-6.51,5.32,6,6,0,0,1-5.15-6.73,5.91,5.91,0,0,1,6.51-5.32A6,6,0,0,1,522.54,480Z" style="fill:#cbeafc"/><path d="M551.71,483.47a5.93,5.93,0,0,1-6.51,5.33,6,6,0,0,1-5.16-6.73,5.94,5.94,0,0,1,6.52-5.33A6,6,0,0,1,551.71,483.47Z" style="fill:#e7515c"/><path d="M499.91,604.57l40.52-72.92L559.3,534l-9,76.87,8.18,1-1.91,16.25-8.18-1-2.43,20.64-17-2.14L531.35,625,498,620.82Zm33.35,4.19,5-42.74L515.8,606.57Z" style="fill:#e7515c"/><path d="M585.82,565.06c2.15-18.2,12.65-27.43,29.64-25.3s25,13.71,22.9,31.91l-7,59.15c-2.15,18.2-12.65,27.44-29.64,25.3s-25-13.7-22.9-31.9ZM596,627.53c-1,8.13,2.14,11.65,7.64,12.34s9.33-2,10.29-10.09l7.23-61.42c1-8.13-2.14-11.65-7.64-12.35s-9.33,2-10.29,10.09Z" style="fill:#e7515c"/><path d="M654.71,624l40.51-72.91,18.88,2.37-9.05,76.87,8.18,1-1.92,16.25-8.18-1-2.43,20.64-17-2.14,2.42-20.64-33.35-4.19Zm33.35,4.19,5-42.74L670.6,626Z" style="fill:#e7515c"/><path d="M438.86,754.47a161.32,161.32,0,0,0-3.15,35.1c.56,15.89-1.27,120.31-1.27,120.31h12.35S464.37,828.1,465,821.64s9.5-71,9.5-71Z" style="fill:#1a4085"/><path d="M447.07,749.71s2.85,22.31,7.68,38.17,28.57,122,28.57,122h12.35s-2.27-81.78-3.13-88.24-7.1-71-7.1-71Z" style="fill:#15509f"/><path d="M484.33,909.86v8.9h23.51a1.4,1.4,0,0,0,.74-2.55c-3.44-2.36-8.94-5.62-14.06-6.35Z" style="fill:#1a4085"/><path d="M435.07,909.86v8.9h23.51a1.4,1.4,0,0,0,.74-2.55c-3.44-2.36-8.94-5.62-14.06-6.35Z" style="fill:#1a4085"/><path d="M480,634h0l-.06-.07a6.3,6.3,0,0,0-.74-.76,3.83,3.83,0,0,0-.39-.27,6.19,6.19,0,0,0-.68-.35c-.14-.06-.27-.12-.42-.17a7.5,7.5,0,0,0-1.41-.33c-7.12-1-10.06,1.24-10.06,1.24s-8.2-.93-12.69,3.09c-3.08,2.75-14.37,24.12,3.89,31.86.56.23,1.09.44,1.6.62l.49.16,1,.33.56.14c.28.07.55.15.81.2l.55.11.71.11.53.06.63,0h.49l.56,0,.46-.05.5-.07a2.84,2.84,0,0,0,.42-.09l.45-.12.38-.13.4-.17.35-.18a3.79,3.79,0,0,0,.34-.2l.32-.21.3-.25.28-.24.26-.27c.09-.1.17-.18.25-.28l.22-.29c.08-.11.16-.21.22-.31s.12-.2.18-.3.14-.23.2-.35.09-.19.13-.28c1.95-4.1.79-10,.79-10l5.69-10.2S482.61,637.84,480,634Z" style="fill:#1a4085"/><path d="M466.1,652.1s-2.39-2.47-4.19,0-.6,8,2.4,8.35c0,0-.9,8-6.89,7.74v6.49h14.07v-4.95s8.68-3.71,8.38-11.13a42.23,42.23,0,0,0-2.39-12.68S472.69,651.48,466.1,652.1Z" style="fill:#f8bb9c"/><path d="M468.26,671.81c1.39.6,1.14,1.51,1.21,2.87h2v-4.95s-3.41,1.12-8.4-1.82A21.9,21.9,0,0,0,468.26,671.81Z" style="fill:#f1a080"/><path d="M471.14,640.26s-7.3-3-8.15-.75c-.56,1.48.86,2.75,2.81,4l-1.72.29a.47.47,0,0,0-.22.82c.48.4,1.8.67,4.56.77Z" style="fill:#f8bb9c"/><polygon points="427.75 721.98 437.52 754.51 437.35 752.87 437.52 754.51 440.82 707.14 427.75 721.98" style="fill:none"/><path d="M523.22,659.14c-13.91-10.65-51.9-19.16-51.9-19.16l-3.13,5.89s34.49,13.8,32.21,15.86c-1.34,1.22-18.19,9.19-23.89,11.88a9,9,0,0,1-3.92.83l-17.46-.1s-12.6-1.55-22.51,10.21c-8.86,10.53-23.92,34.92-23.92,34.92L434.07,758l2.81,4.26,0,0,0,.35s.9.11,2.5.26c8.15.78,34.28,2.91,48.12-.12l.38-.09-.66-63.22A241.21,241.21,0,0,0,523.63,663,2.7,2.7,0,0,0,523.22,659.14ZM438.1,745.36l-2.47-5.59L427.75,722l13.07-15.14-2.35,33.21Z" style="fill:#55c4f0"/><polygon points="435.63 739.77 438.1 745.36 436.9 762.22 436.88 762.27 434.07 758.01 435.63 739.77" style="fill:#13b1e8"/><path d="M481.32,697.13c-2.35,1.76-1.75,17.4-2.33,27.17-1,16.37-1.92,30.54-1.22,39.67a67.52,67.52,0,0,0,9.73-1.26l.38-.09-.66-63.22A241.21,241.21,0,0,0,523.63,663a2.7,2.7,0,0,0-.41-3.87A315.45,315.45,0,0,1,481.32,697.13Z" style="fill:#13b1e8"/><path d="M492.54,821.64c-.61-4.66-4-39.59-5.9-58.67l-8.87,1s12.94,109.94,13.79,145.91h4.11S493.4,828.1,492.54,821.64Z" style="fill:#1a4085"/><path d="M351.44,878.94s-3.8-3.67-1.25-17.6,9-27.31,5.85-42.42-28.1-53.21-28.18-55.74-7.69,44.32,5.2,62.78,14.44,24.86,13.87,34.57.13,17.52,1.54,19.78Z" style="fill:#4287c7"/><path d="M349.08,850.92c-1.5,6.22-2.4,21.8,0,25.52.23.35.55.15.95-.49-.73-2.57-1.21-7.09.17-14.61,2.55-13.93,9-27.31,5.85-42.42s-28.1-53.21-28.18-55.74c0,0,3.75,31.74,16.4,53.59C353.32,832.41,350.58,844.71,349.08,850.92Z" style="fill:#5397d2"/><path d="M356,878s-7.33-18.89,5.08-35.24,32.26-37.35,32.65-45.66c0,0,5.1,39.49-11.05,50.67s-27.48,13-24.68,30.16Z" style="fill:#4287c7"/><path d="M373.42,839.8c-18,13.54-19.48,29.14-16.69,36.37a1.79,1.79,0,0,0,1.17,1.09c-2.41-16.6,8.82-18.49,24.77-29.52,16.15-11.18,11.05-50.67,11.05-50.67S391.43,826.25,373.42,839.8Z" style="fill:#5397d2"/><path d="M343.94,878.39A68.09,68.09,0,0,0,345,857.6c-1.25-10.8-12.16-16.87-22.36-28.28-5.25-5.86-6.81-36.89-3.55-39.77,0,0-18,22.54-15.23,39.05s32.15,27.24,34.87,35.21a45.77,45.77,0,0,1,2.5,14.68Z" style="fill:#4287c7"/><path d="M313,798.42c-6,16.65.15,36.82,19.92,49.35,14.56,9.22,9.92,28.39,9.92,28.39l2.38-7.56a61.43,61.43,0,0,0-.22-11c-1.25-10.8-12.16-16.87-22.36-28.28-5.07-5.66-6.69-34.71-3.88-39.35A102,102,0,0,0,313,798.42Z" style="fill:#5397d2"/><path d="M318.8,790l.33-.42A1.86,1.86,0,0,0,318.8,790Z" style="fill:#4287c7;opacity:0.56"/><path d="M359.75,877.14S364,861,374.41,858.79s22.43-18.12,23.08-21.24C397.49,837.55,395.73,867.6,359.75,877.14Z" style="fill:#4287c7"/><path d="M373.82,864.14c-6.4,3.3-9.06,7.74-10,11.78,32-10.64,33.67-38.37,33.67-38.37a12,12,0,0,1-1.63,3.16C392.72,846.39,385.12,858.3,373.82,864.14Z" style="fill:#5397d2"/><path d="M382.34,871.19h-54.6l6.49,42.13a6.43,6.43,0,0,0,6.29,5.54h29.05a6.43,6.43,0,0,0,6.29-5.54Z" style="fill:#9bd7f7"/><path d="M369.12,871.19H327.74l1.08,7H368l-5.41,35.16a6.43,6.43,0,0,1-6.29,5.54h13.23a6.43,6.43,0,0,0,6.29-5.54l6.48-42.13Z" style="fill:#4287c7;opacity:0.56"/><rect x="526.93" y="796.05" width="246.77" height="51.83" style="fill:#e7515c"/><rect x="526.93" y="796.05" width="246.77" height="12.58" style="fill:#af3e46;opacity:0.29;mix-blend-mode:multiply"/><polygon points="548.38 796.05 570.9 796.05 564.87 808.64 542.33 808.64 548.38 796.05" style="fill:#f07e31"/><polygon points="599.12 796.05 621.65 796.05 615.61 808.64 593.09 808.64 599.12 796.05" style="fill:#f07e31"/><polygon points="649.87 796.05 672.39 796.05 666.35 808.64 643.83 808.64 649.87 796.05" style="fill:#f07e31"/><polygon points="700.61 796.05 723.12 796.05 717.08 808.64 694.57 808.64 700.61 796.05" style="fill:#f07e31"/><polygon points="773.69 796.05 773.69 796.4 767.82 808.64 745.32 808.64 751.35 796.05 773.69 796.05" style="fill:#f07e31"/><rect x="557.64" y="847.89" width="17.4" height="70.87" style="fill:#9bd7f7"/><rect x="726.93" y="847.89" width="17.4" height="70.87" style="fill:#9bd7f7"/><rect x="557.64" y="787.96" width="17.4" height="8.05" style="fill:#9bd7f7"/><rect x="726.93" y="787.96" width="17.4" height="8.05" style="fill:#9bd7f7"/><polygon points="557.64 856.76 571.09 856.76 571.09 918.76 575.04 918.76 575.04 856.76 575.04 847.89 575.04 847.84 557.64 847.84 557.64 856.76" style="fill:#4287c7;opacity:0.56"/><polygon points="726.93 856.76 739.18 856.76 739.18 918.76 744.33 918.76 744.33 856.76 744.33 847.89 744.33 847.84 726.93 847.84 726.93 856.76" style="fill:#4287c7;opacity:0.56"/><polygon points="571.09 795 557.64 795 557.64 796.01 575.04 796.01 575.04 796 575.04 795 575.04 787.96 571.09 787.96 571.09 795" style="fill:#4287c7;opacity:0.56"/><polygon points="739.18 787.96 739.18 795 726.93 795 726.93 796.01 744.33 796.01 744.33 796 744.33 795 744.33 787.96 739.18 787.96" style="fill:#4287c7;opacity:0.56"/><polygon points="570.9 796.05 546.02 847.89 526.92 847.89 526.92 840.74 548.38 796.05 570.9 796.05" style="fill:#fff"/><polygon points="599.12 796.05 574.24 847.89 596.76 847.89 621.65 796.05 599.12 796.05" style="fill:#fff"/><polygon points="672.39 796.05 647.5 847.89 624.98 847.89 649.87 796.05 672.39 796.05" style="fill:#fff"/><polygon points="723.12 796.05 698.25 847.89 675.72 847.89 700.61 796.05 723.12 796.05" style="fill:#fff"/><polygon points="751.35 796.05 726.47 847.89 748.98 847.89 773.69 796.4 751.35 796.05" style="fill:#fff"/><polygon points="570.9 796.05 564.87 808.64 542.33 808.64 548.38 796.05 570.9 796.05" style="fill:#e1f2fd"/><polygon points="621.65 796.05 615.61 808.64 593.09 808.64 599.12 796.05 621.65 796.05" style="fill:#e1f2fd"/><polygon points="672.39 796.05 666.35 808.64 643.83 808.64 649.87 796.05 672.39 796.05" style="fill:#e1f2fd"/><polygon points="723.12 796.05 717.08 808.64 694.57 808.64 700.61 796.05 723.12 796.05" style="fill:#e1f2fd"/><polygon points="773.69 796.4 767.82 808.64 745.32 808.64 751.35 796.05 773.69 796.4" style="fill:#e1f2fd"/><ellipse cx="565.89" cy="776.71" rx="15.51" ry="16.02" style="fill:#e7515c"/><path d="M572.92,776.71a7,7,0,1,0-7,7.26A7.15,7.15,0,0,0,572.92,776.71Z" style="fill:#fff"/><ellipse cx="735.53" cy="776.71" rx="15.51" ry="16.02" style="fill:#e7515c"/><path d="M742.56,776.71a7,7,0,1,0-7,7.26A7.15,7.15,0,0,0,742.56,776.71Z" style="fill:#fff"/><path d="M867.18,913.27H788.59l12-30.1v0L805.45,871l1.33-3.33,2.17-5.42.45-1.1L814.23,849l.89-2.21,8.57-21.49a4.49,4.49,0,0,1,8.4,0l8.57,21.49.89,2.21,4.83,12.15.44,1.1,2.18,5.42,1.33,3.33,4.83,12.15v0Z" style="fill:#e7515c"/><polygon points="793.75 900.36 788.6 913.27 867.19 913.27 862.04 900.36 793.75 900.36" style="fill:#af3e46;opacity:0.29;mix-blend-mode:multiply"/><rect x="782.31" y="905.55" width="90.01" height="13.15" style="fill:#9bd7f7"/><rect x="852.88" y="905.55" width="19.45" height="13.15" style="fill:#4287c7;opacity:0.56"/><path d="M864.09,905.55H853l-8.93-22.38h0L839.21,871l-1.33-3.33-2.17-5.42-.45-1.1L830.43,849l-.89-2.21-7.2-18.09,1.35-3.4a4.49,4.49,0,0,1,8.4,0l8.57,21.49.89,2.21,4.83,12.15.44,1.1,2.18,5.42,1.33,3.33,4.83,12.15h0Z" style="fill:#af3e46;opacity:0.29;mix-blend-mode:multiply"/><polygon points="846.38 861.15 809.39 861.15 814.23 849 841.55 849 846.38 861.15" style="fill:#fff"/><polygon points="855.16 883.15 855.16 883.17 800.61 883.17 800.61 883.15 805.45 871 850.33 871 855.16 883.15" style="fill:#fff"/><polygon points="846.38 861.15 835.26 861.15 830.43 849 841.55 849 846.38 861.15" style="fill:#e1f2fd"/><polygon points="855.16 883.15 855.16 883.17 844.04 883.17 844.04 883.15 839.21 871 850.33 871 855.16 883.15" style="fill:#e1f2fd"/><path d="M703.24,411.65c18.54,0,19.57-28.83,1-29.76-.51,0-1,0-1.53,0a29.74,29.74,0,0,0-9.47,1.54c-2.48-15.61-15.59-27.51-31.39-27.51-16.16,0-29.49,12.43-31.54,28.54a28.52,28.52,0,0,0-20-2c-16.22,4.31-12.81,29.23,3.93,29.23Z" style="fill:#9bd7f7"/><path d="M392.38,503.91a11.94,11.94,0,0,0,11.77-10.42,24,24,0,0,0,.22-3.3c0-13.38-10.5-24.22-23.45-24.22-.54,0-1.06,0-1.58.06-1.08-13.2-11.78-23.57-24.83-23.57-13.76,0-24.91,11.53-24.91,25.74,0,.63,0,1.26.07,1.88a24.11,24.11,0,0,0-13.3-3.23c-12.51.59-22.79,10.93-23.68,23.84,0,.1,0,.21,0,.31a12.1,12.1,0,0,0,11.9,12.91Z" style="fill:#9bd7f7"/></g></g></g></svg>