<svg id="Layer_1" data-name="Layer 1" xmlns="http://www.w3.org/2000/svg" xmlns:xlink="http://www.w3.org/1999/xlink" viewBox="0 0 400 300"><defs><style>.cls-1{mask:url(#mask);filter:url(#luminosity-noclip-4);}.cls-2,.cls-4,.cls-6{mix-blend-mode:multiply;}.cls-2{fill:url(#linear-gradient);}.cls-3{mask:url(#mask-2);filter:url(#luminosity-noclip-5);}.cls-4{fill:url(#linear-gradient-2);}.cls-5{mask:url(#mask-3);filter:url(#luminosity-noclip-6);}.cls-6{fill:url(#linear-gradient-3);}.cls-7{fill:#5d77ba;}.cls-8{fill:url(#linear-gradient-4);}.cls-9{mask:url(#mask-4);}.cls-10{fill:url(#linear-gradient-5);}.cls-11{mask:url(#mask-5);}.cls-12{fill:url(#linear-gradient-6);}.cls-13{mask:url(#mask-6);}.cls-14{fill:url(#linear-gradient-7);}.cls-15{fill:#e0e0e0;}.cls-16{fill:#3680c3;}.cls-17{fill:#82bde8;}.cls-18{fill:#f18563;}.cls-19{fill:#323657;}.cls-20{fill:url(#linear-gradient-8);}.cls-21{fill:url(#linear-gradient-9);}.cls-22{fill:url(#linear-gradient-10);}.cls-23{fill:#ffd770;}.cls-24{fill:#fff;}.cls-25{fill:url(#linear-gradient-11);}.cls-26{fill:url(#linear-gradient-12);}.cls-27{fill:#6798d0;}.cls-28{fill:#a1c4e9;}.cls-29{fill:#d8d7e6;}.cls-30{fill:#2c6a94;}.cls-31{filter:url(#luminosity-noclip-3);}.cls-32{filter:url(#luminosity-noclip-2);}.cls-33{filter:url(#luminosity-noclip);}</style><filter id="luminosity-noclip" x="59.54" y="-8342" width="217.28" height="32766" filterUnits="userSpaceOnUse" color-interpolation-filters="sRGB"><feFlood flood-color="#fff" result="bg"/><feBlend in="SourceGraphic" in2="bg"/></filter><mask id="mask" x="59.54" y="-8342" width="217.28" height="32766" maskUnits="userSpaceOnUse"><g class="cls-33"/></mask><linearGradient id="linear-gradient" x1="59.54" y1="141.51" x2="276.82" y2="141.51" gradientUnits="userSpaceOnUse"><stop offset="0"/><stop offset="1" stop-color="#fff"/></linearGradient><filter id="luminosity-noclip-2" x="86.82" y="-8342" width="163.79" height="32766" filterUnits="userSpaceOnUse" color-interpolation-filters="sRGB"><feFlood flood-color="#fff" result="bg"/><feBlend in="SourceGraphic" in2="bg"/></filter><mask id="mask-2" x="86.82" y="-8342" width="163.79" height="32766" maskUnits="userSpaceOnUse"><g class="cls-32"/></mask><linearGradient id="linear-gradient-2" x1="168.71" y1="193.31" x2="168.71" y2="239.27" xlink:href="#linear-gradient"/><filter id="luminosity-noclip-3" x="34.72" y="-8342" width="133.46" height="32766" filterUnits="userSpaceOnUse" color-interpolation-filters="sRGB"><feFlood flood-color="#fff" result="bg"/><feBlend in="SourceGraphic" in2="bg"/></filter><mask id="mask-3" x="34.72" y="-8342" width="133.46" height="32766" maskUnits="userSpaceOnUse"><g class="cls-31"/></mask><linearGradient id="linear-gradient-3" x1="34.72" y1="238.61" x2="168.18" y2="238.61" xlink:href="#linear-gradient"/><linearGradient id="linear-gradient-4" x1="345.74" y1="65.11" x2="266.51" y2="117.93" gradientUnits="userSpaceOnUse"><stop offset="0" stop-color="#5dc2d8"/><stop offset="1" stop-color="#4a63ac"/></linearGradient><filter id="luminosity-noclip-4" x="59.54" y="32.87" width="217.28" height="217.28" filterUnits="userSpaceOnUse" color-interpolation-filters="sRGB"><feFlood flood-color="#fff" result="bg"/><feBlend in="SourceGraphic" in2="bg"/></filter><mask id="mask-4" x="59.54" y="32.87" width="217.28" height="217.28" maskUnits="userSpaceOnUse"><g class="cls-1"><path class="cls-2" d="M168.18,250.15a108.32,108.32,0,1,1,42.29-8.54A107.93,107.93,0,0,1,168.18,250.15Zm0-194.19a85.56,85.56,0,1,0,85.56,85.55A85.65,85.65,0,0,0,168.18,56Z"/></g></mask><linearGradient id="linear-gradient-5" x1="59.54" y1="141.51" x2="276.82" y2="141.51" gradientUnits="userSpaceOnUse"><stop offset="0" stop-color="#5dc2d8"/><stop offset="1" stop-color="#556db3"/></linearGradient><filter id="luminosity-noclip-5" x="86.82" y="188" width="163.79" height="32.41" filterUnits="userSpaceOnUse" color-interpolation-filters="sRGB"><feFlood flood-color="#fff" result="bg"/><feBlend in="SourceGraphic" in2="bg"/></filter><mask id="mask-5" x="86.82" y="188" width="163.79" height="32.41" maskUnits="userSpaceOnUse"><g class="cls-3"><rect class="cls-4" x="86.82" y="188" width="163.79" height="32.41"/></g></mask><linearGradient id="linear-gradient-6" x1="168.71" y1="193.31" x2="168.71" y2="239.27" xlink:href="#linear-gradient-5"/><filter id="luminosity-noclip-6" x="34.72" y="227.07" width="133.46" height="23.08" filterUnits="userSpaceOnUse" color-interpolation-filters="sRGB"><feFlood flood-color="#fff" result="bg"/><feBlend in="SourceGraphic" in2="bg"/></filter><mask id="mask-6" x="34.72" y="227.07" width="133.46" height="23.08" maskUnits="userSpaceOnUse"><g class="cls-5"><rect class="cls-6" x="34.72" y="227.07" width="133.46" height="23.08"/></g></mask><linearGradient id="linear-gradient-7" x1="34.72" y1="238.61" x2="168.18" y2="238.61" xlink:href="#linear-gradient-5"/><linearGradient id="linear-gradient-8" x1="212.29" y1="80.16" x2="218" y2="80.16" gradientUnits="userSpaceOnUse"><stop offset="0" stop-color="#f7ad73"/><stop offset="1" stop-color="#ffd971"/></linearGradient><linearGradient id="linear-gradient-9" x1="210.25" y1="80.16" x2="212.63" y2="80.16" xlink:href="#linear-gradient-8"/><linearGradient id="linear-gradient-10" x1="195.89" y1="77.54" x2="214.18" y2="77.54" xlink:href="#linear-gradient-8"/><linearGradient id="linear-gradient-11" x1="168.71" y1="192.91" x2="168.71" y2="246.43" xlink:href="#linear-gradient-4"/><linearGradient id="linear-gradient-12" x1="204.78" y1="190.93" x2="204.78" y2="235.05" xlink:href="#linear-gradient-4"/></defs><polygon class="cls-7" points="365.55 238.5 332.09 212.71 332.09 227.07 327.99 227.07 295.62 227.07 104.89 227.07 104.89 250.15 316.03 250.15 327.99 250.15 332.09 250.15 332.09 264.29 365.55 238.5"/><path class="cls-8" d="M315,48.43l-23,5,10.64,21,3.78-8a34.17,34.17,0,1,1-45.54,16.16l-10-4.77a45.26,45.26,0,1,0,60.32-21.4Z"/><g class="cls-9"><path class="cls-10" d="M168.18,250.15a108.32,108.32,0,1,1,42.29-8.54A107.93,107.93,0,0,1,168.18,250.15Zm0-194.19a85.56,85.56,0,1,0,85.56,85.55A85.65,85.65,0,0,0,168.18,56Z"/></g><g class="cls-11"><rect class="cls-12" x="86.82" y="188" width="163.79" height="32.41"/></g><g class="cls-13"><rect class="cls-14" x="34.72" y="227.07" width="133.46" height="23.08"/></g><rect class="cls-15" x="107.84" y="103.72" width="26.61" height="2.72"/><rect class="cls-15" x="141.9" y="124.24" width="19.21" height="2.72"/><rect class="cls-16" x="164.1" y="124.24" width="12.75" height="2.72"/><rect class="cls-16" x="190.15" y="206.61" width="12.75" height="2.72"/><rect class="cls-16" x="108.14" y="175.83" width="12.75" height="2.72"/><rect class="cls-15" x="179.37" y="124.24" width="30.78" height="2.72"/><rect class="cls-15" x="108.14" y="165.5" width="19.78" height="2.72"/><rect class="cls-15" x="161.29" y="186.09" width="19.78" height="2.72"/><rect class="cls-15" x="135.71" y="186.09" width="12.08" height="2.72"/><rect class="cls-16" x="108.14" y="186.09" width="23.92" height="2.72"/><rect class="cls-15" x="108.14" y="196.35" width="13.2" height="2.72"/><rect class="cls-17" x="139.63" y="103.72" width="18.89" height="2.72"/><rect class="cls-16" x="139.63" y="134.5" width="18.89" height="2.72"/><rect class="cls-15" x="130.18" y="144.76" width="8.07" height="2.72"/><rect class="cls-17" x="122.11" y="155.17" width="18.13" height="2.72"/><rect class="cls-16" x="142.98" y="155.17" width="25.03" height="2.72"/><rect class="cls-16" x="108.14" y="144.83" width="18.89" height="2.72"/><rect class="cls-16" x="108.14" y="155.17" width="11.21" height="2.72"/><rect class="cls-18" x="142.06" y="144.83" width="10.57" height="2.72"/><rect class="cls-18" x="108.46" y="206.61" width="10.57" height="2.72"/><rect class="cls-17" x="108.06" y="124.24" width="18.89" height="2.72"/><rect class="cls-17" x="124.77" y="175.83" width="18.89" height="2.72"/><rect class="cls-17" x="125" y="196.35" width="18.89" height="2.72"/><rect class="cls-17" x="158.56" y="196.35" width="18.89" height="2.72"/><rect class="cls-17" x="108.06" y="134.5" width="26.93" height="2.72"/><rect class="cls-17" x="166.96" y="206.61" width="18.89" height="2.72"/><rect class="cls-16" x="163.6" y="103.72" width="24.07" height="2.72"/><rect class="cls-16" x="123.02" y="206.61" width="24.07" height="2.72"/><rect class="cls-16" x="206.95" y="206.61" width="24.07" height="2.72"/><rect class="cls-16" x="203.24" y="186.09" width="24.07" height="2.72"/><rect class="cls-16" x="196.53" y="134.5" width="24.07" height="2.72"/><rect class="cls-18" x="151.57" y="186.09" width="5.19" height="2.72"/><rect class="cls-18" x="205.47" y="103.72" width="24.07" height="2.72"/><rect class="cls-18" x="178.01" y="134.5" width="14.11" height="2.72"/><rect class="cls-18" x="166.96" y="175.99" width="14.11" height="2.72"/><rect class="cls-15" x="192.12" y="103.72" width="8.81" height="2.72"/><rect class="cls-15" x="163.6" y="134.5" width="8.81" height="2.72"/><rect class="cls-16" x="107.84" y="113.98" width="13.78" height="2.72"/><rect class="cls-16" x="144.61" y="165.58" width="10.88" height="2.72"/><rect class="cls-16" x="125" y="113.98" width="4.45" height="2.72"/><rect class="cls-15" x="181.07" y="196.35" width="36.78" height="2.72"/><rect class="cls-18" x="132.72" y="113.98" width="4.54" height="2.72"/><rect class="cls-16" x="200.93" y="113.98" width="12.03" height="2.72"/><rect class="cls-18" x="212.96" y="124.24" width="12.03" height="2.72"/><rect class="cls-18" x="186.1" y="186.09" width="12.03" height="2.72"/><rect class="cls-18" x="151.08" y="206.61" width="12.03" height="2.72"/><rect class="cls-16" x="172.14" y="113.98" width="25.6" height="2.72"/><rect class="cls-16" x="148.31" y="175.99" width="14.96" height="2.72"/><rect class="cls-16" x="147.34" y="196.35" width="7.48" height="2.72"/><rect class="cls-17" x="159.7" y="113.98" width="8.81" height="2.72"/><rect class="cls-18" x="130.04" y="124.24" width="8.81" height="2.72"/><rect class="cls-18" x="131.8" y="165.58" width="8.81" height="2.72"/><rect class="cls-16" x="140.99" y="113.98" width="15.35" height="2.72"/><path class="cls-19" d="M104.47,217.24h0S104.51,217.26,104.47,217.24Z"/><polygon class="cls-20" points="213.63 81.54 218 81.54 216.67 78.77 212.29 78.77 213.63 81.54"/><polygon class="cls-21" points="211.59 81.54 212.63 81.54 211.29 78.77 210.25 78.77 211.59 81.54"/><polygon class="cls-22" points="196.48 78.24 214.18 78.24 213.6 76.85 195.89 76.85 196.48 78.24"/><rect class="cls-23" x="286.29" y="150.15" width="13.93" height="0.98" transform="translate(586.51 301.29) rotate(180)"/><rect class="cls-23" x="286.29" y="151.99" width="13.93" height="4.1" transform="translate(586.51 308.09) rotate(180)"/><rect class="cls-23" x="279.75" y="157.48" width="8.22" height="0.61" transform="translate(567.71 315.57) rotate(180)"/><rect class="cls-23" x="279.75" y="158.36" width="8.22" height="1.66" transform="translate(567.71 318.38) rotate(180)"/><rect class="cls-23" x="283.91" y="143.89" width="0.61" height="11.5" transform="translate(568.44 299.27) rotate(180)"/><rect class="cls-24" x="105.83" y="65.53" width="10.97" height="1.99" transform="translate(222.63 133.04) rotate(180)"/><rect class="cls-24" x="105.83" y="64.6" width="10.97" height="0.37" transform="translate(222.63 129.57) rotate(180)"/><polygon class="cls-18" points="214.61 104.68 228.86 90.44 287.39 90.44 287.39 89.71 228.56 89.71 214.1 104.17 214.61 104.68"/><rect class="cls-25" x="86.82" y="219.91" width="163.79" height="32.41"/><polygon class="cls-17" points="124.06 137.25 124.58 136.73 97.35 109.5 45.83 109.5 45.83 110.23 97.05 110.23 124.06 137.25"/><polygon class="cls-16" points="178.31 104.49 178.83 103.98 155.85 81 123.53 81 123.53 81.73 155.55 81.73 178.31 104.49"/><polygon class="cls-26" points="250.61 252.31 250.61 219.91 191 219.91 158.96 251.95 250.61 252.31"/><rect class="cls-27" x="255.64" y="70.92" width="5.17" height="15.7"/><rect class="cls-28" x="235.91" y="47.01" width="44.62" height="31.48" rx="14.27"/><rect class="cls-24" x="237.66" y="48.8" width="41.12" height="24.75"/><rect class="cls-28" x="246.6" y="86.03" width="23.25" height="1.18" transform="translate(516.44 173.24) rotate(180)"/><rect class="cls-29" x="263.38" y="56.31" width="13.22" height="15.28" transform="translate(539.98 127.91) rotate(180)"/><rect class="cls-29" x="247.72" y="56.31" width="13.62" height="1.9" transform="translate(509.06 114.53) rotate(180)"/><rect class="cls-29" x="247.72" y="60.22" width="13.62" height="1.9" transform="translate(509.06 122.35) rotate(180)"/><rect class="cls-29" x="247.72" y="63.74" width="13.62" height="7.86" transform="translate(509.06 135.33) rotate(180)"/><rect class="cls-29" x="240.02" y="55.88" width="5.78" height="15.71" transform="translate(485.82 127.47) rotate(180)"/><rect class="cls-29" x="240.15" y="50.71" width="36.58" height="3.92" transform="translate(516.89 105.34) rotate(180)"/><rect class="cls-28" x="128.16" y="45.56" width="22.65" height="32.03" rx="10.27" transform="translate(278.97 123.15) rotate(180)"/><rect class="cls-24" x="129.41" y="47.04" width="20.15" height="26.28" transform="translate(278.97 120.37) rotate(180)"/><rect class="cls-29" x="130.76" y="48.93" width="17.54" height="3.5" transform="translate(279.07 101.37) rotate(180)"/><rect class="cls-29" x="141.08" y="53.79" width="7.22" height="17.15" transform="translate(289.39 124.73) rotate(180)"/><rect class="cls-29" x="130.76" y="53.79" width="8.98" height="1.99" transform="translate(270.51 109.56) rotate(180)"/><rect class="cls-29" x="130.76" y="57.22" width="8.98" height="1.99" transform="translate(270.51 116.43) rotate(180)"/><rect class="cls-29" x="130.76" y="60.66" width="8.98" height="1.99" transform="translate(270.51 123.3) rotate(180)"/><rect class="cls-29" x="130.76" y="64.09" width="8.98" height="6.85" transform="translate(270.51 135.03) rotate(180)"/><path class="cls-27" d="M54,81.14H89.3a0,0,0,0,1,0,0V93.69a11.44,11.44,0,0,1-11.44,11.44H65.42A11.44,11.44,0,0,1,54,93.69V81.14a0,0,0,0,1,0,0Z" transform="translate(143.29 186.27) rotate(180)"/><rect class="cls-24" x="54.97" y="82.42" width="33.34" height="21.43" transform="translate(143.29 186.27) rotate(180)"/><path class="cls-28" d="M53.88,105.12H89.41a1.6,1.6,0,0,1,1.6,1.6v.16a0,0,0,0,1,0,0H52.28a0,0,0,0,1,0,0v-.16A1.6,1.6,0,0,1,53.88,105.12Z" transform="translate(143.29 212.01) rotate(180)"/><rect class="cls-29" x="56.37" y="83.98" width="30.52" height="2.98" transform="translate(143.25 170.94) rotate(180)"/><rect class="cls-29" x="76.42" y="88.64" width="10.46" height="13.65" transform="translate(163.31 190.93) rotate(180)"/><rect class="cls-29" x="64.62" y="88.64" width="10.46" height="13.65" transform="translate(139.7 190.93) rotate(180)"/><rect class="cls-29" x="56.37" y="88.64" width="6.38" height="1.95" transform="translate(119.11 179.23) rotate(180)"/><rect class="cls-29" x="56.37" y="91.66" width="6.38" height="1.95" transform="translate(119.11 185.26) rotate(180)"/><rect class="cls-29" x="56.37" y="94.67" width="6.38" height="7.62" transform="translate(119.11 196.96) rotate(180)"/><polygon class="cls-30" points="67.36 139.47 59.5 134.94 59.5 137.93 47.82 137.93 47.82 141.02 59.5 141.02 59.5 144.01 67.36 139.47"/><polygon class="cls-30" points="47.82 129.52 55.68 134.06 55.68 131.07 67.36 131.07 67.36 127.98 55.68 127.98 55.68 124.98 47.82 129.52"/><polygon class="cls-30" points="182.2 74.81 176.31 71.41 176.31 73.65 167.55 73.65 167.55 75.97 176.31 75.97 176.31 78.21 182.2 74.81"/><polygon class="cls-30" points="167.55 67.35 173.44 70.75 173.44 68.51 182.2 68.51 182.2 66.19 173.44 66.19 173.44 63.95 167.55 67.35"/><path class="cls-24" d="M261.77,128.79a3.6,3.6,0,0,1-2.07-.83,2.7,2.7,0,0,1-1-2,16,16,0,0,0-1-4.18,7.19,7.19,0,1,1,8.62.25,15.46,15.46,0,0,0-1,4A3.14,3.14,0,0,1,262,128.8Zm1-19.28a6.61,6.61,0,0,0-4.55,11.81l.06.05,0,.08a16.79,16.79,0,0,1,1,4.43v0a2.13,2.13,0,0,0,.78,1.61,3,3,0,0,0,2,.7,2.57,2.57,0,0,0,2.78-2.27h0a16.23,16.23,0,0,1,1-4.23l0-.09.08,0a6.6,6.6,0,0,0-3.23-12Z"/><polygon class="cls-24" points="260.43 126.34 259.49 118.5 261.13 119.85 262.14 118.72 263.02 119.78 264.54 118.49 263.61 126.34 263.03 126.27 263.78 119.9 262.94 120.61 262.12 119.62 261.19 120.66 260.25 119.89 261.02 126.27 260.43 126.34"/><rect class="cls-24" x="259.48" y="128.08" width="5.1" height="2.06" transform="translate(0.87 -1.76) rotate(0.38)"/><rect class="cls-24" x="258.67" y="125.98" width="6.74" height="3.31" transform="translate(0.86 -1.76) rotate(0.38)"/><polygon class="cls-17" points="228.39 151.23 204.62 151.23 204.62 168.46 204.62 172.09 208.25 168.46 228.39 168.46 228.39 151.23"/></svg>