<svg id="Layer_1" data-name="Layer 1" xmlns="http://www.w3.org/2000/svg" xmlns:xlink="http://www.w3.org/1999/xlink" viewBox="0 0 1199 1192"><defs><style>.cls-1,.cls-10,.cls-11,.cls-20,.cls-24,.cls-25,.cls-26,.cls-27,.cls-30,.cls-31,.cls-4,.cls-5{fill:none;}.cls-2{fill:#a1cd91;}.cls-19,.cls-3{fill:#e5f0f8;}.cls-4,.cls-5{stroke:#bcdcf3;stroke-width:6.51px;}.cls-10,.cls-11,.cls-20,.cls-24,.cls-26,.cls-27,.cls-30,.cls-4,.cls-5{stroke-linecap:round;stroke-linejoin:round;}.cls-5{stroke-dasharray:19.71 19.71;}.cls-6{fill:#fff;}.cls-7{clip-path:url(#clip-path);}.cls-8{fill:#bcdcf3;}.cls-9{fill:#e94647;}.cls-10,.cls-11,.cls-26,.cls-31{stroke:#fff;}.cls-10{stroke-width:11.22px;}.cls-11{stroke-width:2.86px;}.cls-12{fill:#f9e180;}.cls-13{fill:#f9ecb8;}.cls-14{fill:#93acbf;}.cls-15{fill:#596874;}.cls-16{fill:#f6ae99;}.cls-17{fill:#4180c2;}.cls-18{fill:#e89780;}.cls-19{opacity:0.3;}.cls-20{stroke:#596874;stroke-width:9.21px;}.cls-21{fill:#332b27;}.cls-22{fill:#d7eafa;}.cls-23{fill:#ea9d86;}.cls-24{stroke:#ea9d86;stroke-width:1.48px;}.cls-25{stroke:#332b27;stroke-width:0.95px;}.cls-25,.cls-31{stroke-miterlimit:10;}.cls-26,.cls-27{stroke-width:0.77px;}.cls-27{stroke:#332b29;}.cls-28{fill:#332b29;}.cls-29{fill:#fef0f0;}.cls-30{stroke:#fef0f0;stroke-width:1.17px;}.cls-31{stroke-width:1.7px;}.cls-32{fill:#366db4;}.cls-33{fill:url(#Fading_Sky);}.cls-34{fill:url(#Fading_Sky-2);}</style><clipPath id="clip-path"><circle id="SVGID" class="cls-1" cx="734.05" cy="516.29" r="170.57"/></clipPath><linearGradient id="Fading_Sky" x1="278.13" y1="157.11" x2="330.42" y2="157.11" gradientUnits="userSpaceOnUse"><stop offset="0" stop-color="#2581c4"/><stop offset="1" stop-color="#2581c4" stop-opacity="0"/></linearGradient><linearGradient id="Fading_Sky-2" x1="219.06" y1="193.23" x2="327.43" y2="193.23" xlink:href="#Fading_Sky"/></defs><path class="cls-2" d="M24.66,192.56v-3.17l18.3-9.9v4.84L30.74,191,43,197.62v4.84Z"/><path class="cls-2" d="M381.12,455.58v-4.84l12.23-6.65-12.23-6.64v-4.84l18.3,9.9v3.17Z"/><rect class="cls-2" x="49.74" y="187.23" width="72.75" height="7.47"/><rect class="cls-2" x="24.66" y="216.12" width="72.75" height="7.47"/><rect class="cls-2" x="40.16" y="236.24" width="72.75" height="7.47"/><rect class="cls-2" x="40.16" y="291.62" width="72.75" height="7.47"/><rect class="cls-2" x="40.16" y="308.75" width="72.75" height="7.47"/><rect class="cls-2" x="65.16" y="255.41" width="219.41" height="7.47"/><rect class="cls-2" x="65.16" y="326.95" width="293.12" height="7.47"/><rect class="cls-2" x="65.16" y="384.26" width="293.12" height="7.47"/><rect class="cls-2" x="92.73" y="440.36" width="280.82" height="7.47"/><rect class="cls-2" x="65.16" y="403.73" width="62.78" height="7.47"/><rect class="cls-2" x="65.16" y="422.25" width="62.78" height="7.47"/><rect class="cls-2" x="65.16" y="345.25" width="293.12" height="7.47"/><rect class="cls-2" x="65.16" y="363.54" width="158.59" height="7.47"/><rect class="cls-2" x="65.16" y="272.63" width="67.28" height="7.47"/><path class="cls-3" d="M1078.12,1050.4S1470.81,96,750.18,160.57c-308.65,27.67-251,195.55-387.35,352.61-88.36,101.82-258.3,18.53-322,107.49S52,963.31,78.26,1050.4Z"/><line class="cls-4" x1="395.47" y1="334.65" x2="395.47" y2="328.19"/><path class="cls-5" d="M395.47,315.13V167.06c0-3.67,3.3-6.64,7.37-6.64H726.68c4.07,0,7.37,3,7.37,6.64v74.1"/><line class="cls-4" x1="734.05" y1="247.69" x2="734.05" y2="254.15"/><rect class="cls-6" x="524.29" y="222.2" width="419.51" height="748.31" rx="50.3"/><rect class="cls-3" x="554.5" y="267.62" width="200.26" height="21.13"/><path class="cls-3" d="M833,277.07a7,7,0,0,0,8.77,2.22l7.45,10.54,1.82-1.29L843.55,278a7,7,0,0,0-8.92-10.7A7,7,0,0,0,833,277.07Zm10.19-7.2a5.47,5.47,0,1,1-7.62-1.31A5.47,5.47,0,0,1,843.14,269.87Z"/><rect class="cls-3" x="876.91" y="267.62" width="34.22" height="3.72"/><rect class="cls-3" x="876.91" y="285.03" width="34.22" height="3.72"/><rect class="cls-3" x="876.91" y="276.33" width="34.22" height="3.72"/><g class="cls-7"><rect class="cls-3" x="491.49" y="344.33" width="491.98" height="343.91"/><polygon class="cls-8" points="562.95 686.86 648.54 519.59 718.97 640.84 828.78 419.54 912.02 686.86 562.95 686.86"/><circle class="cls-8" cx="715.39" cy="464.26" r="23.71" transform="translate(141.37 1095) rotate(-80.68)"/></g><rect class="cls-3" x="555.74" y="719.36" width="356.63" height="80.2" rx="9.92"/><rect class="cls-6" x="578.79" y="753.57" width="158.03" height="11.77"/><rect class="cls-3" x="555.74" y="815.5" width="356.63" height="80.2" rx="9.92"/><rect class="cls-6" x="578.79" y="849.72" width="158.03" height="11.77"/><rect class="cls-3" x="555.74" y="923.34" width="23.05" height="23.05"/><rect class="cls-3" x="889.31" y="923.34" width="23.05" height="23.05"/><rect class="cls-3" x="778.12" y="923.34" width="23.05" height="23.05"/><rect class="cls-3" x="666.93" y="923.34" width="23.05" height="23.05"/><rect class="cls-8" x="172.83" y="312.7" width="419.51" height="748.31" rx="50.3"/><path class="cls-6" d="M564.76,439.67a60,60,0,1,1-60-60A60,60,0,0,1,564.76,439.67Z"/><path class="cls-8" d="M504.77,437.41C478.92,436,465.88,459.32,459.51,479A59.93,59.93,0,0,0,550,479C543.66,459.32,530.61,436,504.77,437.41Z"/><path class="cls-8" d="M526.61,418.43c0,17.76-9.78,36.34-21.84,36.34s-21.84-18.58-21.84-36.34,9.78-27.95,21.84-27.95S526.61,400.67,526.61,418.43Z"/><rect class="cls-6" x="203.74" y="379.67" width="151.62" height="16.21"/><rect class="cls-6" x="203.74" y="414.52" width="191.73" height="16.21"/><rect class="cls-6" x="203.74" y="556.14" width="112.98" height="13.25"/><rect class="cls-6" x="203.74" y="850.91" width="112.98" height="13.25"/><rect class="cls-6" x="203.74" y="877.96" width="188.79" height="13.25"/><rect class="cls-6" x="203.74" y="581.16" width="143.52" height="13.25"/><rect class="cls-6" x="203.74" y="618.15" width="164.13" height="58.88" rx="13.57"/><rect class="cls-6" x="397.3" y="618.15" width="164.13" height="58.88" rx="13.57" transform="translate(958.73 1295.18) rotate(180)"/><rect class="cls-6" x="202.07" y="699.11" width="361.02" height="127.51" rx="24.6"/><rect class="cls-3" x="221.96" y="738.85" width="126.96" height="11.04"/><rect class="cls-3" x="221.96" y="762.59" width="193.75" height="24.29"/><rect class="cls-3" x="202.07" y="906.11" width="361.02" height="62.93" rx="8.75"/><rect class="cls-6" x="219.75" y="931.5" width="156.77" height="12.14"/><rect class="cls-6" x="501.55" y="931.5" width="43.87" height="12.14" transform="translate(1046.97 1875.15) rotate(180)"/><rect class="cls-3" x="202.07" y="980.82" width="361.02" height="62.93" rx="8.75"/><rect class="cls-6" x="219.75" y="1006.21" width="156.77" height="12.14"/><rect class="cls-6" x="501.55" y="1006.21" width="43.87" height="12.14" transform="translate(1046.97 2024.56) rotate(180)"/><circle class="cls-9" cx="568.33" cy="160.42" r="40.3" transform="translate(53.03 448.86) rotate(-45)"/><line class="cls-10" x1="588.7" y1="140.05" x2="547.96" y2="180.79"/><line class="cls-10" x1="547.96" y1="140.05" x2="588.7" y2="180.79"/><path class="cls-8" d="M1178.92,137.32H922.55c-3,0-5.49,3.79-5.49,8.48V340.08h267.36V145.8C1184.42,141.11,1182,137.32,1178.92,137.32Z"/><rect class="cls-6" x="920.63" y="156.37" width="260.21" height="179.27"/><line class="cls-11" x1="1162.31" y1="153.6" x2="1174.14" y2="141.77"/><line class="cls-11" x1="1174.14" y1="153.6" x2="1162.31" y2="141.77"/><path class="cls-3" d="M933.25,262.13V248.94l76.17-41.22v20.15l-50.88,27.67,50.88,27.66v20.16Z"/><path class="cls-3" d="M1032.6,319.85l-12.5-5.5,47-142.18,12.49,5.86Z"/><path class="cls-3" d="M1168.23,248.94v13.19l-76.17,41.23V283.2l50.88-27.66-50.88-27.67V207.72Z"/><path class="cls-3" d="M212.85,509V988.08a51.73,51.73,0,0,1-103.46,0V509Z"/><path class="cls-8" d="M182.38,523.52l-60,12.15v486.72a51.47,51.47,0,0,1-13-34.31V523.52Z"/><rect class="cls-3" x="97.89" y="499.68" width="126.45" height="23.85" rx="10.15"/><path class="cls-12" d="M204.22,808.4V988.09a43.11,43.11,0,0,1-86.21,0V808.4Z"/><circle class="cls-13" cx="180.01" cy="980.43" r="10.37"/><circle class="cls-13" cx="140.71" cy="990.8" r="10.37" transform="translate(-855.92 900.11) rotate(-76.72)"/><circle class="cls-13" cx="143.88" cy="946.36" r="7.2"/><path class="cls-6" d="M195.72,543.28V808.4H182.38V543.28a6.67,6.67,0,0,1,6.67-6.67,6.66,6.66,0,0,1,6.67,6.67Z"/><path class="cls-6" d="M195.72,808.4v134a6.67,6.67,0,0,1-13.34,0v-134Z"/><circle class="cls-13" cx="133.51" cy="910.86" r="7.2"/><circle class="cls-13" cx="183.5" cy="876.36" r="7.2"/><path class="cls-13" d="M178.38,953.56a4.53,4.53,0,1,1-4.53-4.53A4.52,4.52,0,0,1,178.38,953.56Z"/><circle class="cls-13" cx="155.6" cy="905.31" r="4.53"/><circle class="cls-13" cx="156.59" cy="844.76" r="4.53"/><path class="cls-13" d="M163.33,774.39a3.2,3.2,0,1,1-3.2-3.2A3.2,3.2,0,0,1,163.33,774.39Z"/><path class="cls-13" d="M164.32,723.28a3.2,3.2,0,1,1-3.2-3.21A3.2,3.2,0,0,1,164.32,723.28Z"/><path class="cls-13" d="M188.76,695.5a3.2,3.2,0,1,1-3.2-3.2A3.21,3.21,0,0,1,188.76,695.5Z"/><circle class="cls-13" cx="180.01" cy="794.04" r="4.53"/><circle class="cls-13" cx="184.54" cy="744.11" r="4.53"/><path class="cls-13" d="M143.88,798.57a4.53,4.53,0,1,1-4.53-4.53A4.53,4.53,0,0,1,143.88,798.57Z"/><path class="cls-13" d="M161.46,808.41a4.53,4.53,0,1,1-4.53-4.53A4.53,4.53,0,0,1,161.46,808.41Z"/><circle class="cls-13" cx="180.01" cy="910.86" r="5.55"/><circle class="cls-13" cx="136.68" cy="870.01" r="5.55"/><path class="cls-14" d="M51.11,771.2v310.72h220V771.2Zm211.42,302.35H59.71v-294H262.53Z"/><polygon class="cls-14" points="1184.96 625.36 1160.77 589.72 1149.37 646.32 1167.16 692.12 1184.96 625.36"/><path class="cls-14" d="M839.35,1082.08h255.74a13,13,0,0,0,12.27-10.34l79-436.38c1-5.77.22-11.65-5.55-11.65l-253.4-35.92a13,13,0,0,0-12.31,10.45l-84.32,473.5C829.78,1077.45,833.61,1082.08,839.35,1082.08Z"/><path class="cls-8" d="M809.89,1082.08h255.74a13,13,0,0,0,12.27-10.34l85.73-473.5c1-5.77-2.78-10.45-8.55-10.45H898a13,13,0,0,0-12.31,10.45l-84.31,473.5C800.32,1077.45,804.15,1082.08,809.89,1082.08Z"/><polygon class="cls-15" points="902.6 606.16 825.24 1040.16 1065.34 1040.16 1096.28 869.06 999.27 612.97 1041.3 612.97 1109.84 794.09 1143.83 606.16 902.6 606.16"/><path class="cls-8" d="M987.84,603.57a8.11,8.11,0,0,0-.07,2.59,7.39,7.39,0,0,0,1.65,4,7.79,7.79,0,0,0,6.14,2.77h52.87a11.82,11.82,0,0,0,10.24-6.81,9.72,9.72,0,0,0,.85-2.59,8,8,0,0,0-1.57-6.63,7.74,7.74,0,0,0-6.14-2.77H998.93A11.8,11.8,0,0,0,987.84,603.57Z"/><polygon class="cls-14" points="999.27 612.97 1096.28 869.06 1109.84 794.09 1041.3 612.97 999.27 612.97"/><polygon class="cls-14" points="902.6 606.16 902.3 607.85 1065.73 1037.99 1092.09 892.24 983.68 606.16 902.6 606.16"/><polygon class="cls-14" points="866.4 809.28 861.03 839.39 937.58 1040.16 954.4 1040.16 866.4 809.28"/><polygon class="cls-14" points="859.37 848.67 848.92 907.33 899.62 1040.16 932.39 1040.16 859.37 848.67"/><path class="cls-14" d="M910.1,1073.05h58.56A15.24,15.24,0,0,0,983,1060.94h0c1.2-6.67-3.3-12.12-10-12.12H914.45a15.22,15.22,0,0,0-14.35,12.12h0C898.9,1067.6,903.41,1073.05,910.1,1073.05Z"/><polygon class="cls-16" points="373.85 658.71 336.3 658.07 338.26 618.64 339.2 599.79 339.26 598.85 368.64 586.5 369.59 599.83 370.3 609.53 373.85 658.71"/><path class="cls-17" d="M300.42,780.74,284.63,911.45a30,30,0,0,0,35.48,34c16.32-3.17,22.57-15.78,25.5-34.51,5.63-36,25.28-143.9,25.28-143.9Z"/><polygon class="cls-17" points="402.8 774.16 344.8 778.06 345.08 842.31 351.97 852.49 358.35 914.44 417.06 909.75 402.8 774.16"/><path class="cls-9" d="M244.39,675.05h84.68A18.89,18.89,0,0,1,348,693.95v.24a18.9,18.9,0,0,1-18.9,18.9H244.38a18.89,18.89,0,0,1-18.89-18.89V694A18.9,18.9,0,0,1,244.39,675.05Z" transform="translate(-449.93 548.21) rotate(-56.35)"/><polygon class="cls-18" points="502.66 655.26 487.2 675.95 467.08 663.7 483.4 642.23 506.26 644.38 502.66 655.26"/><path class="cls-9" d="M429.78,748.84c9.37,5.45,21,3.13,25.82-5.16l23.7-43.3L487.65,685l8.75-16-14.54-10-10.33-7.13-1-.71-10.61,15.75-9.75,14.43-28.68,42.47C416.7,732.11,420.4,743.38,429.78,748.84Z"/><path class="cls-16" d="M355.56,642.22c13.78.3,19.64-6.55,21.41-9.24l-5.15-2.32-34.07-1.72-4.09,1.31C335.39,633.47,341.48,641.91,355.56,642.22Z"/><path class="cls-9" d="M404.45,727.93l.82,56.34H299.21l1.26-142,36.39-13.15c.41.75.85,1.53,1.4,2.35l.13.17c2,2.51,5.74,4.89,16.31,5.13,8.8.2,13.12-1,15.57-2.62l0,0a9.33,9.33,0,0,0,2.72-2.89l34.35,7.58-2.31,71.7Z"/><path class="cls-17" d="M273.63,1044.11l54.56,0,16.44-126.95a30.11,30.11,0,1,0-60-2l-9.5,111.44-1.5,17.6Z"/><path class="cls-9" d="M448.78,749.67h0A19.24,19.24,0,0,1,423,741.28l-38.52-75.56a19.26,19.26,0,0,1,8.39-25.82h0a19.25,19.25,0,0,1,25.81,8.39l38.51,75.56A19.24,19.24,0,0,1,448.78,749.67Z"/><path class="cls-14" d="M747.56,640c69.83-55,81.85-156.58,26.81-226.42S617.78,331.74,548,386.78,466.14,543.41,521.14,613.2,677.77,695.05,747.56,640Zm-214.18-36.5a145.62,145.62,0,1,1,204.53,24.26A145.63,145.63,0,0,1,533.38,603.51Z"/><path class="cls-15" d="M737.91,627.77a145.64,145.64,0,1,0-204.53-24.26A145.64,145.64,0,0,0,737.91,627.77ZM539.62,598.61A137.69,137.69,0,1,1,733,621.53,137.69,137.69,0,0,1,539.62,598.61Z"/><path id="SVGID-2" data-name="SVGID" class="cls-19" d="M539.62,598.61A137.69,137.69,0,1,1,733,621.53,137.69,137.69,0,0,1,539.62,598.61Z"/><polygon class="cls-14" points="467.48 665.91 461.88 659.18 530.11 605.43 535.3 612.48 467.48 665.91"/><path class="cls-15" d="M314.56,780.37s0,0-.06-.07a10.4,10.4,0,0,1,1.73-14.62L457.7,654.18l4.18,5,2.56,3.06,3,3.67,3.55,4.26L329.11,782A10.38,10.38,0,0,1,314.56,780.37Z"/><path class="cls-14" d="M314.56,780.37a.41.41,0,0,1,.12-.09l149.76-118,3,3.67,3.55,4.26L329.11,782A10.38,10.38,0,0,1,314.56,780.37Z"/><path class="cls-15" d="M608.71,478.61h78.85c-8.79-20.68-23.19-34.14-39.43-34.14S617.49,457.93,608.71,478.61Z"/><path class="cls-15" d="M599.58,526.34c0,45.22,21.73,81.87,48.55,81.87s48.55-36.65,48.55-81.87a128.1,128.1,0,0,0-5.52-38H605.1A128.42,128.42,0,0,0,599.58,526.34Z"/><path class="cls-20" d="M636.18,451.46s-.41-37.85-23.86-38.26"/><path class="cls-20" d="M660.08,451.46s.41-37.85,23.86-38.26"/><polyline class="cls-20" points="615.04 515.65 586.48 493.97 575.36 464.63"/><polyline class="cls-20" points="680.47 515.65 709.03 493.97 720.15 464.63"/><polyline class="cls-20" points="615.04 562.55 586.48 584.23 575.36 613.57"/><polyline class="cls-20" points="680.47 562.55 709.03 584.23 720.15 613.57"/><path class="cls-21" d="M370.84,574.25s.3-13-3.26-13S365.08,574.22,370.84,574.25Z"/><path class="cls-22" d="M370.27,634.11l-15.57,24.6L338.39,631.6c2,2.51,5.74,4.89,16.31,5.13C363.5,636.93,367.82,635.71,370.27,634.11Z"/><path class="cls-16" d="M384.76,754.13c-.22,1.65-10.11,3.78-17.45,3-6.22-.66-20.4-3.71-24.57-4.64l1.56-19.84a50.91,50.91,0,0,0,7.62-.84c5.77-1.16,21.84-2.51,22-.18s-10.64,5.46-9.77,6.37,9.36.45,12.95,0,11.15-2.74,12.62-1.22-.13,4.21-.13,4.21,2.78-1.21,3.22.67-3.44,4.83-3.44,4.83,1.46-.84,1.43,1.34-7.3,4.62-7.3,4.62A1.34,1.34,0,0,1,384.76,754.13Z"/><path class="cls-17" d="M358.14,912.16l14,131.95h53.6l-8.6-132.68a35.44,35.44,0,0,0-.44-4.4c-1.47-16.57-14.64-28.95-31.21-27.5A30.14,30.14,0,0,0,358.14,912.16Z"/><path class="cls-9" d="M347.59,726.27l-19-3.82L311.43,719l-45.82-9.22c-9.49-1.26-18.44,6.48-19.9,17.24s5.16,20.6,14.65,21.88l47.84,3.53,17.38,1.3,18,1.33Z"/><polygon class="cls-23" points="371.34 623.9 350.23 608.51 370.3 609.53 371.34 623.9"/><path class="cls-16" d="M368.2,564.64s3.35,12.16,5.72,20.8l2,7.13c1.55,5.64,2.26,14.43-3.55,18.11s-15.23,3.42-23.11-1.5-29.56-31-13.84-47.18S367,561.85,368.2,564.64Z"/><path class="cls-21" d="M337.94,559.65s5.9-11.63,11-10.76-.3,5.38-.3,5.38,17-4.47,22.68,6.56-21.11,7.72-21.11,7.72,5.31,6.61,0,7.26-7.74-1.61-7.74-1.61,5.3,9.8,2.35,12.93.69,12,4,14.5,9.24,1.47,11.95-.83,4.46-3,6.15-3.15,5.69.83,7.42.55a6.63,6.63,0,0,0,2.4-1.27,29.74,29.74,0,0,1,.95,4.23c.14,2.52,1.38,13.77-11.38,14.29s-21.46-5.62-25.89-14.91l-1.62,7.26s-1.55-8.17-6-12.16-10.06-22.49-2-29.6c0,0-6.93,4-6-1C325.44,561.29,337.94,559.65,337.94,559.65Z"/><path class="cls-16" d="M340.3,598.37c1.52,4,1.61,6.54-1.5,7.74a7.27,7.27,0,0,1-9.08-4.25c-1.52-4-.24-8.14,2.87-9.33S338.78,594.41,340.3,598.37Z"/><path class="cls-21" d="M355.7,585.1c.36,1.3,1.34,2.17,2.18,1.94s1.24-1.48.89-2.79-1.34-2.17-2.19-1.94S355.34,583.79,355.7,585.1Z"/><path class="cls-21" d="M371.52,580.75c.36,1.31,0,2.56-.88,2.79s-1.83-.64-2.19-1.95,0-2.55.88-2.79S371.16,579.44,371.52,580.75Z"/><path class="cls-18" d="M360.51,593.06c-.07,1.31-2.25,2.26-4.85,2.12s-4.67-1.33-4.6-2.64,2.25-2.26,4.86-2.12S360.58,591.75,360.51,593.06Z"/><path class="cls-18" d="M373.92,585.44l1.27,4.63c-1.89.77-3.64.67-4.19-.28C370.38,588.67,371.68,586.72,373.92,585.44Z"/><path class="cls-24" d="M333.33,600a10.77,10.77,0,0,1,3.95.81c-1.2-4-4.11-4.17-4.11-4.17"/><path class="cls-25" d="M362.45,584.21l5.18,7.56a2,2,0,0,1-.15,2.48l-1,1.08-1,1.1"/><path class="cls-25" d="M353.05,583s2-3.53,5.55-3.54"/><path class="cls-25" d="M371.82,576.3a5.06,5.06,0,0,0-5.5.76"/><polygon class="cls-6" points="371.74 629.45 354.71 636.74 363.66 647.61 373.85 631.55 371.74 629.45"/><polygon class="cls-6" points="337.81 627.84 354.71 636.74 346.65 647.15 336.3 629.3 337.81 627.84"/><polygon class="cls-16" points="379.88 1064.73 378.45 1044.11 418.6 1044.11 420.17 1064.73 379.88 1064.73"/><polygon class="cls-23" points="419.31 1053.45 378.45 1044.11 418.6 1044.11 419.31 1053.45"/><polygon class="cls-16" points="320.28 1064.73 321.82 1044.08 280.69 1044.11 279.99 1064.73 320.28 1064.73"/><path class="cls-16" d="M505.6,636.91l-6.28-.86a4.06,4.06,0,0,0-4.13,2.11l-6.1,11.47a4,4,0,0,0,2.82,5.86l6.75,1.3a4.05,4.05,0,0,0,4.44-2.24l5.63-11.91A4,4,0,0,0,505.6,636.91Z"/><polygon class="cls-23" points="320.96 1055.6 280.69 1044.11 321.82 1044.08 320.96 1055.6"/><polyline class="cls-26" points="334.31 633.47 354.71 666.28 374.84 635.59"/><line class="cls-27" x1="295.23" y1="715.61" x2="287.46" y2="714.19"/><line class="cls-27" x1="299.88" y1="708.62" x2="304.63" y2="701.48"/><path class="cls-28" d="M440,1082.08h-59.3l-.1-2.41-.73-16h40.35c5,0,9.62,2.94,13.15,6a20.08,20.08,0,0,1,6.12,10A14,14,0,0,1,440,1082.08Z"/><path class="cls-29" d="M440,1082.08h-59.3l-.1-2.41h58.89A14,14,0,0,1,440,1082.08Z"/><path class="cls-30" d="M421.4,1067s-5.13-9-8.58-5.44,8.58,5.44,8.58,5.44"/><path class="cls-30" d="M419.59,1068.76l1.81-1.79s5.12-9,8.57-5.44-8.57,5.44-8.57,5.44"/><line class="cls-30" x1="422.77" y1="1068.76" x2="421.4" y2="1066.97"/><path class="cls-28" d="M260.51,1082.08h59.3l.1-2.41.73-16H280.29c-5,0-9.62,2.94-13.15,6a20.08,20.08,0,0,0-6.12,10A14,14,0,0,0,260.51,1082.08Z"/><path class="cls-29" d="M260.51,1082.08h59.3l.1-2.41H261A14,14,0,0,0,260.51,1082.08Z"/><path class="cls-30" d="M279.07,1067.52s5.13-9,8.58-5.44-8.58,5.44-8.58,5.44"/><path class="cls-30" d="M280.88,1069.31l-1.81-1.79s-5.12-9-8.57-5.44,8.57,5.44,8.57,5.44"/><line class="cls-30" x1="277.7" y1="1069.31" x2="279.07" y2="1067.52"/><polyline class="cls-31" points="353.44 866.79 355.37 850.99 365.07 844.3 372.94 812.21"/><line class="cls-31" x1="420.17" y1="1027.94" x2="382.03" y2="1027.94"/><line class="cls-31" x1="318.13" y1="1027.94" x2="279.99" y2="1027.94"/><line class="cls-27" x1="299.21" y1="716.48" x2="347.59" y2="726.27"/><line class="cls-27" x1="299.21" y1="751.79" x2="325.58" y2="753.74"/><path class="cls-16" d="M364.16,602.85c.15,1.17,1.88,1.91,3.86,1.65s3.46-1.42,3.31-2.6-1.89-1.91-3.87-1.65S364,601.67,364.16,602.85Z"/><rect class="cls-32" x="2.13" y="1081.94" width="1194.41" height="27.18" rx="11.39"/><path class="cls-33" d="M329.86,155.28c-8.07-6.66-18,1.15-22.1,5.09a15.11,15.11,0,0,0-3.09-3.63,14.91,14.91,0,0,0-4.07-2.48c3.25-4.7,9.41-15.69,1.58-22.62a1.55,1.55,0,0,0-2.06,2.32c6.37,5.64-.14,15.88-2.66,19.35-5.63-1.15-12.43.17-19.33,3.61L308.64,183c2.32-7.35,2.56-14.27.55-19.65,3-3,12.13-11.06,18.69-5.66a1.55,1.55,0,1,0,2-2.39Z"/><path class="cls-34" d="M325.13,187l-13.61,7.47-7.73-.45a59.66,59.66,0,0,0,3-6L273.5,159.51a59.41,59.41,0,0,0-5.69,4.08l-1.74-8L271.31,141a1.55,1.55,0,1,0-2.92-1L263,155a1.48,1.48,0,0,0-.05.86l2.19,10.05a68,68,0,0,0-6.31,6.47,65,65,0,0,0-10.71,17.3l-13.4-.78a1.65,1.65,0,0,0-.84.19l-14,7.68a1.55,1.55,0,0,0,.75,2.91,1.51,1.51,0,0,0,.74-.19L235,192l12,.69c-3.47,10.22-3.06,19.73,1.81,25.58l28.68-33.57L281.3,188l-28.67,33.57c6.49,3.86,15.85,2.82,25.32-2.12l2.48,11.39-5.24,14.61a1.55,1.55,0,0,0,.93,2,1.42,1.42,0,0,0,.53.1,1.57,1.57,0,0,0,1.46-1l5.4-15a1.67,1.67,0,0,0,.05-.86l-2.78-12.75a64.48,64.48,0,0,0,15.62-13.4A71.39,71.39,0,0,0,302,197l9.83.57h.09a1.57,1.57,0,0,0,.74-.19l14-7.68a1.56,1.56,0,0,0-1.5-2.73Z"/><path class="cls-6" d="M94.11,730.72c-2.94-7.43-7.21-10.31-11-11.33a11.89,11.89,0,0,1-2.35-.94,16.27,16.27,0,0,1-6.82-6.85L37.09,642.94c-4.66-9.88,2.09-15-1.6-23.67-2.75-6.45-11.54-9.61-15.32-10.73a.62.62,0,0,0-.66,1c1.54,2,4.5,4.54,6.51,6.78,2.91,3.24,1.44,11.68-6.8,14.61-6.69,2.37-11.18-5.58-13.17-8.77a.67.67,0,0,0-1.21.2c-.41,1.64-.61,4.62,1,8.68,2.94,7.43,8.15,10.15,12,11.18a11.42,11.42,0,0,1,4.37,2.55,18.58,18.58,0,0,1,4,5.19l38,70.81a10.92,10.92,0,0,1,1.3,4.86c.12,5.85-3.57,9.88-.84,16.28s12.27,10,16,11.15a.61.61,0,0,0,.66-1c-1.53-2-5.37-5.92-7.38-8.16-2.91-3.23-2.33-11,5.91-13.89,6.69-2.37,11.93,6.74,13.92,9.93a.67.67,0,0,0,1.21-.2A15.2,15.2,0,0,0,94.11,730.72Z"/><path class="cls-6" d="M1188.55,388.86a20.78,20.78,0,0,0-18.29-8.86l-.69,0a20.84,20.84,0,0,0-13.21,35.11h0a21.51,21.51,0,0,0,3.16,2.72,11.84,11.84,0,0,1,4.92,8.33l-1,0a1,1,0,0,0-.71.3,1.09,1.09,0,0,1-.1.11,1.05,1.05,0,0,0-.19.61,1,1,0,0,0,1,1,1,1,0,0,0-.71.31l-.06.06a1,1,0,0,0,.8,1.66,1,1,0,0,0-.71.31l-.09.1a1.09,1.09,0,0,0-.2.62,1,1,0,0,0,1,1,1,1,0,0,0-.71.31l0,0a1,1,0,0,0,.78,1.68l1,0c0,.25,0,.5.07.74a7,7,0,0,0,.85,2.34h0l.25.39.14.18a2.35,2.35,0,0,0,.19.25,1.15,1.15,0,0,0,.14.17l.24.27.11.12c.12.12.25.23.38.34l.13.11.29.23.16.1a3.17,3.17,0,0,0,.36.23l.09.06a4,4,0,0,0,.46.24l.15.07.36.15.16.06.47.15h0a5.23,5.23,0,0,0,.54.12l.16,0,.41,0h.17l.57,0,1.14,0a6.84,6.84,0,0,0,6.65-5.9c0-.13,0-.25,0-.38s0-.24,0-.35h.95a1,1,0,0,0,.71-.31,1,1,0,0,0,.29-.72,1,1,0,0,0-.28-.67,1,1,0,0,0-.75-.33,1,1,0,0,0,1-1,1,1,0,0,0-.22-.62.46.46,0,1,1-.1-.69,1,1,0,0,0,.29-.72,1,1,0,0,0-.26-.66,1,1,0,0,0-.77-.34,1,1,0,0,0,.71-.31,1,1,0,0,0,.29-.72,1,1,0,0,0-.21-.6,1,1,0,0,0-.82-.39h-1a11.9,11.9,0,0,1,4.67-8.48,20.84,20.84,0,0,0,4.63-28.64Z"/></svg>