<svg xmlns="http://www.w3.org/2000/svg" xmlns:xlink="http://www.w3.org/1999/xlink" viewBox="0 0 400 300"><defs><style>.cls-1{fill:none;}.cls-2{isolation:isolate;}.cls-12,.cls-3{fill:#7d81bd;}.cls-10,.cls-11,.cls-4,.cls-5,.cls-6,.cls-7,.cls-8,.cls-9{opacity:0.6;}.cls-10,.cls-11,.cls-12,.cls-4,.cls-5,.cls-6,.cls-62,.cls-64,.cls-66,.cls-68,.cls-7,.cls-70,.cls-72,.cls-74,.cls-76,.cls-78,.cls-8,.cls-80,.cls-82,.cls-84,.cls-9{mix-blend-mode:lighten;}.cls-4{fill:url(#Áåçûìÿííûé_ãðàäèåíò_13);}.cls-5{fill:url(#Áåçûìÿííûé_ãðàäèåíò_13-2);}.cls-6{fill:url(#Áåçûìÿííûé_ãðàäèåíò_13-3);}.cls-7{fill:url(#Áåçûìÿííûé_ãðàäèåíò_13-4);}.cls-8{fill:url(#Áåçûìÿííûé_ãðàäèåíò_13-5);}.cls-9{fill:url(#Áåçûìÿííûé_ãðàäèåíò_13-6);}.cls-10{fill:url(#Áåçûìÿííûé_ãðàäèåíò_13-7);}.cls-11{fill:url(#Áåçûìÿííûé_ãðàäèåíò_13-8);}.cls-13{fill:url(#Áåçûìÿííûé_ãðàäèåíò_18);}.cls-14{fill:#bcbcdf;}.cls-15{fill:#fff;}.cls-16{fill:#202045;}.cls-17,.cls-18,.cls-19,.cls-20,.cls-21,.cls-22,.cls-23,.cls-26,.cls-27,.cls-28,.cls-29,.cls-30,.cls-31{opacity:0.5;}.cls-17{fill:url(#Áåçûìÿííûé_ãðàäèåíò_254);}.cls-18{fill:url(#Áåçûìÿííûé_ãðàäèåíò_254-2);}.cls-19{fill:url(#Áåçûìÿííûé_ãðàäèåíò_254-3);}.cls-20{fill:url(#Áåçûìÿííûé_ãðàäèåíò_254-4);}.cls-21,.cls-24,.cls-37,.cls-40,.cls-41{fill:#6dc4cb;}.cls-22{fill:url(#Áåçûìÿííûé_ãðàäèåíò_254-5);}.cls-23{fill:url(#Áåçûìÿííûé_ãðàäèåíò_254-6);}.cls-24{opacity:0.8;}.cls-25{fill:url(#Áåçûìÿííûé_ãðàäèåíò_18-2);}.cls-26{fill:url(#Áåçûìÿííûé_ãðàäèåíò_254-7);}.cls-27{fill:url(#Áåçûìÿííûé_ãðàäèåíò_254-8);}.cls-28{fill:url(#Áåçûìÿííûé_ãðàäèåíò_254-9);}.cls-29{fill:url(#Áåçûìÿííûé_ãðàäèåíò_254-10);}.cls-30{fill:url(#Áåçûìÿííûé_ãðàäèåíò_254-11);}.cls-31{fill:url(#Áåçûìÿííûé_ãðàäèåíò_254-12);}.cls-32,.cls-36,.cls-39{fill:#464193;}.cls-32{opacity:0.7;}.cls-33{fill:url(#Áåçûìÿííûé_ãðàäèåíò_3);}.cls-34{fill:#2c2661;}.cls-35,.cls-39{opacity:0.51;}.cls-38{fill:url(#Áåçûìÿííûé_ãðàäèåíò_3-2);}.cls-40{opacity:0.1;}.cls-41{opacity:0.4;}.cls-42{fill:url(#Áåçûìÿííûé_ãðàäèåíò_3-3);}.cls-43{fill:url(#Áåçûìÿííûé_ãðàäèåíò_24);}.cls-44{fill:url(#Áåçûìÿííûé_ãðàäèåíò_24-2);}.cls-45{fill:url(#Áåçûìÿííûé_ãðàäèåíò_3-4);}.cls-46{fill:#2e4697;}.cls-47{fill:#aeafd9;}.cls-48{fill:#9298cc;}.cls-49{fill:url(#Áåçûìÿííûé_ãðàäèåíò_3-5);}.cls-50{opacity:0.11;}.cls-51{clip-path:url(#clip-path);}.cls-52{fill:url(#Áåçûìÿííûé_ãðàäèåíò_3-6);}.cls-53{fill:url(#Áåçûìÿííûé_ãðàäèåíò_3-7);}.cls-54{fill:url(#Áåçûìÿííûé_ãðàäèåíò_3-8);}.cls-55{fill:url(#Áåçûìÿííûé_ãðàäèåíò_24-3);}.cls-56{fill:url(#Áåçûìÿííûé_ãðàäèåíò_24-4);}.cls-57{fill:url(#Áåçûìÿííûé_ãðàäèåíò_3-9);}.cls-58{fill:url(#Áåçûìÿííûé_ãðàäèåíò_3-10);}.cls-59{clip-path:url(#clip-path-2);}.cls-60{fill:url(#Áåçûìÿííûé_ãðàäèåíò_3-11);}.cls-61{fill:url(#Áåçûìÿííûé_ãðàäèåíò_3-12);}.cls-62{fill:url(#Áåçûìÿííûé_ãðàäèåíò_68);}.cls-63{fill:url(#Áåçûìÿííûé_ãðàäèåíò_43);}.cls-64{fill:url(#Áåçûìÿííûé_ãðàäèåíò_68-2);}.cls-65{fill:url(#Áåçûìÿííûé_ãðàäèåíò_43-2);}.cls-66{fill:url(#Áåçûìÿííûé_ãðàäèåíò_68-3);}.cls-67{fill:url(#Áåçûìÿííûé_ãðàäèåíò_43-3);}.cls-68{fill:url(#Áåçûìÿííûé_ãðàäèåíò_68-4);}.cls-69{fill:url(#Áåçûìÿííûé_ãðàäèåíò_43-4);}.cls-70{fill:url(#Áåçûìÿííûé_ãðàäèåíò_68-5);}.cls-71{fill:url(#Áåçûìÿííûé_ãðàäèåíò_43-5);}.cls-72{fill:url(#Áåçûìÿííûé_ãðàäèåíò_68-6);}.cls-73{fill:url(#Áåçûìÿííûé_ãðàäèåíò_43-6);}.cls-74{fill:url(#Áåçûìÿííûé_ãðàäèåíò_68-7);}.cls-75{fill:url(#Áåçûìÿííûé_ãðàäèåíò_43-7);}.cls-76{fill:url(#Áåçûìÿííûé_ãðàäèåíò_68-8);}.cls-77{fill:url(#Áåçûìÿííûé_ãðàäèåíò_43-8);}.cls-78{fill:url(#Áåçûìÿííûé_ãðàäèåíò_68-9);}.cls-79{fill:url(#Áåçûìÿííûé_ãðàäèåíò_43-9);}.cls-80{fill:url(#Áåçûìÿííûé_ãðàäèåíò_68-10);}.cls-81{fill:url(#Áåçûìÿííûé_ãðàäèåíò_43-10);}.cls-82{fill:url(#Áåçûìÿííûé_ãðàäèåíò_68-11);}.cls-83{fill:url(#Áåçûìÿííûé_ãðàäèåíò_43-11);}.cls-84{fill:url(#Áåçûìÿííûé_ãðàäèåíò_68-12);}.cls-85{fill:url(#Áåçûìÿííûé_ãðàäèåíò_43-12);}</style><linearGradient id="Áåçûìÿííûé_ãðàäèåíò_13" x1="-1909.17" y1="-730.52" x2="-1909.17" y2="-762.91" gradientTransform="matrix(0.87, 0.5, -1, 0.58, 1198.54, 1541.61)" gradientUnits="userSpaceOnUse"><stop offset="0" stop-color="#6dc4cb"/><stop offset="0" stop-color="#6dc4cb"/><stop offset="0.11" stop-color="#5a9aab"/><stop offset="0.23" stop-color="#4a7691"/><stop offset="0.36" stop-color="#3d587b"/><stop offset="0.49" stop-color="#334269"/><stop offset="0.63" stop-color="#2c325d"/><stop offset="0.79" stop-color="#272856"/><stop offset="1" stop-color="#262554"/></linearGradient><linearGradient id="Áåçûìÿííûé_ãðàäèåíò_13-2" x1="936.08" y1="-66.31" x2="936.08" y2="-103.72" gradientTransform="matrix(1, -0.58, 0.87, 0.5, -627.13, 738.87)" xlink:href="#Áåçûìÿííûé_ãðàäèåíò_13"/><linearGradient id="Áåçûìÿííûé_ãðàäèåíò_13-3" x1="541.16" y1="2732.03" x2="541.16" y2="2699.64" gradientTransform="matrix(-0.87, -0.5, 1, -0.58, -2011.86, 2027.24)" xlink:href="#Áåçûìÿííûé_ãðàäèåíò_13"/><linearGradient id="Áåçûìÿííûé_ãðàäèåíò_13-4" x1="-2526.47" y1="2384.02" x2="-2526.47" y2="2346.62" gradientTransform="matrix(-1, 0.58, -0.87, -0.5, -186.18, 2829.98)" xlink:href="#Áåçûìÿííûé_ãðàäèåíò_13"/><linearGradient id="Áåçûìÿííûé_ãðàäèåíò_13-5" x1="-1981.17" y1="-668.18" x2="-1981.17" y2="-700.57" xlink:href="#Áåçûìÿííûé_ãðàäèåíò_13"/><linearGradient id="Áåçûìÿííûé_ãðàäèåíò_13-6" x1="873.74" y1="-138.3" x2="873.74" y2="-175.71" gradientTransform="matrix(1, -0.58, 0.87, 0.5, -627.13, 738.87)" xlink:href="#Áåçûìÿííûé_ãðàäèåíò_13"/><linearGradient id="Áåçûìÿííûé_ãðàäèåíò_13-7" x1="613.15" y1="2669.69" x2="613.15" y2="2637.29" gradientTransform="matrix(-0.87, -0.5, 1, -0.58, -2011.86, 2027.24)" xlink:href="#Áåçûìÿííûé_ãðàäèåíò_13"/><linearGradient id="Áåçûìÿííûé_ãðàäèåíò_13-8" x1="-2464.13" y1="2456.02" x2="-2464.13" y2="2418.61" gradientTransform="matrix(-1, 0.58, -0.87, -0.5, -186.18, 2829.98)" xlink:href="#Áåçûìÿííûé_ãðàäèåíò_13"/><linearGradient id="Áåçûìÿííûé_ãðàäèåíò_18" x1="92.68" y1="179.05" x2="172.3" y2="179.05" gradientUnits="userSpaceOnUse"><stop offset="0" stop-color="#515da7"/><stop offset="0.16" stop-color="#5863ab"/><stop offset="0.39" stop-color="#6c75b5"/><stop offset="0.67" stop-color="#8c91c6"/><stop offset="0.97" stop-color="#b8b8dd"/><stop offset="1" stop-color="#bcbcdf"/></linearGradient><linearGradient id="Áåçûìÿííûé_ãðàäèåíò_254" x1="115.21" y1="168.29" x2="163" y2="168.29" gradientUnits="userSpaceOnUse"><stop offset="0" stop-color="#6dc4cb"/><stop offset="0.18" stop-color="#6cbfc9"/><stop offset="0.38" stop-color="#68b1c4"/><stop offset="0.61" stop-color="#6199bc"/><stop offset="0.84" stop-color="#5878b0"/><stop offset="1" stop-color="#515da7"/></linearGradient><linearGradient id="Áåçûìÿííûé_ãðàäèåíò_254-2" x1="139.11" y1="159.65" x2="163" y2="159.65" xlink:href="#Áåçûìÿííûé_ãðàäèåíò_254"/><linearGradient id="Áåçûìÿííûé_ãðàäèåíò_254-3" x1="115.21" y1="159.65" x2="139.11" y2="159.65" xlink:href="#Áåçûìÿííûé_ãðàäèåíò_254"/><linearGradient id="Áåçûìÿííûé_ãðàäèåíò_254-4" x1="115.21" y1="164.81" x2="163" y2="164.81" xlink:href="#Áåçûìÿííûé_ãðàäèåíò_254"/><linearGradient id="Áåçûìÿííûé_ãðàäèåíò_254-5" x1="139.11" y1="173.45" x2="163" y2="173.45" xlink:href="#Áåçûìÿííûé_ãðàäèåíò_254"/><linearGradient id="Áåçûìÿííûé_ãðàäèåíò_254-6" x1="115.21" y1="173.45" x2="139.11" y2="173.45" xlink:href="#Áåçûìÿííûé_ãðàäèåíò_254"/><linearGradient id="Áåçûìÿííûé_ãðàäèåíò_18-2" x1="217.2" y1="179.05" x2="296.81" y2="179.05" xlink:href="#Áåçûìÿííûé_ãðàäèåíò_18"/><linearGradient id="Áåçûìÿííûé_ãðàäèåíò_254-7" x1="239.73" y1="168.29" x2="287.52" y2="168.29" xlink:href="#Áåçûìÿííûé_ãðàäèåíò_254"/><linearGradient id="Áåçûìÿííûé_ãðàäèåíò_254-8" x1="263.62" y1="159.65" x2="287.52" y2="159.65" xlink:href="#Áåçûìÿííûé_ãðàäèåíò_254"/><linearGradient id="Áåçûìÿííûé_ãðàäèåíò_254-9" x1="239.73" y1="159.65" x2="263.62" y2="159.65" xlink:href="#Áåçûìÿííûé_ãðàäèåíò_254"/><linearGradient id="Áåçûìÿííûé_ãðàäèåíò_254-10" x1="239.73" y1="164.81" x2="287.52" y2="164.81" xlink:href="#Áåçûìÿííûé_ãðàäèåíò_254"/><linearGradient id="Áåçûìÿííûé_ãðàäèåíò_254-11" x1="263.62" y1="173.45" x2="287.52" y2="173.45" xlink:href="#Áåçûìÿííûé_ãðàäèåíò_254"/><linearGradient id="Áåçûìÿííûé_ãðàäèåíò_254-12" x1="239.73" y1="173.45" x2="263.62" y2="173.45" xlink:href="#Áåçûìÿííûé_ãðàäèåíò_254"/><linearGradient id="Áåçûìÿííûé_ãðàäèåíò_3" x1="229.04" y1="215.48" x2="229.04" y2="98.97" gradientUnits="userSpaceOnUse"><stop offset="0" stop-color="#c1bee0"/><stop offset="0.29" stop-color="#c6c3e3"/><stop offset="0.64" stop-color="#d3d1ea"/><stop offset="1" stop-color="#e9e8f6"/></linearGradient><linearGradient id="Áåçûìÿííûé_ãðàäèåíò_3-2" x1="229.04" y1="110.67" x2="229.04" y2="72.95" xlink:href="#Áåçûìÿííûé_ãðàäèåíò_3"/><linearGradient id="Áåçûìÿííûé_ãðàäèåíò_3-3" x1="2280.6" y1="159.09" x2="2342.29" y2="159.09" gradientTransform="translate(-2278.69)" xlink:href="#Áåçûìÿííûé_ãðàäèåíò_3"/><linearGradient id="Áåçûìÿííûé_ãðàäèåíò_24" x1="2280.61" y1="174.9" x2="2291.2" y2="174.9" gradientTransform="translate(-2278.69)" gradientUnits="userSpaceOnUse"><stop offset="0" stop-color="#515da7"/><stop offset="0.17" stop-color="#5661aa"/><stop offset="0.38" stop-color="#646eb1"/><stop offset="0.59" stop-color="#7c83bd"/><stop offset="0.82" stop-color="#9da0cf"/><stop offset="1" stop-color="#bcbcdf"/></linearGradient><linearGradient id="Áåçûìÿííûé_ãðàäèåíò_24-2" x1="2288.87" y1="192.69" x2="2375.98" y2="192.69" xlink:href="#Áåçûìÿííûé_ãðàäèåíò_24"/><linearGradient id="Áåçûìÿííûé_ãðàäèåíò_3-4" x1="2318.14" y1="189.78" x2="2405.3" y2="189.78" gradientTransform="translate(-2278.69)" xlink:href="#Áåçûìÿííûé_ãðàäèåíò_3"/><linearGradient id="Áåçûìÿííûé_ãðàäèåíò_3-5" x1="2332.9" y1="194.73" x2="2355.21" y2="194.73" gradientTransform="translate(-2278.69)" xlink:href="#Áåçûìÿííûé_ãðàäèåíò_3"/><clipPath id="clip-path"><polygon id="SVGID" class="cls-1" points="56.15 125.67 4.68 155.39 11.07 193.02 62.5 163.32 56.15 125.67"/></clipPath><linearGradient id="Áåçûìÿííûé_ãðàäèåíò_3-6" x1="2284.84" y1="170.46" x2="2372" y2="170.46" gradientTransform="translate(-2278.69)" xlink:href="#Áåçûìÿííûé_ãðàäèåíò_3"/><linearGradient id="Áåçûìÿííûé_ãðàäèåíò_3-7" x1="2279.1" y1="164.06" x2="2301.41" y2="164.06" gradientTransform="translate(-2278.69)" xlink:href="#Áåçûìÿííûé_ãðàäèåíò_3"/><linearGradient id="Áåçûìÿííûé_ãðàäèåíò_3-8" x1="36.18" y1="159.09" x2="97.87" y2="159.09" gradientTransform="matrix(-1, 0, 0, 1, 434.54, 0)" xlink:href="#Áåçûìÿííûé_ãðàäèåíò_3"/><linearGradient id="Áåçûìÿííûé_ãðàäèåíò_24-3" x1="36.19" y1="174.9" x2="46.78" y2="174.9" gradientTransform="matrix(-1, 0, 0, 1, 434.54, 0)" xlink:href="#Áåçûìÿííûé_ãðàäèåíò_24"/><linearGradient id="Áåçûìÿííûé_ãðàäèåíò_24-4" x1="44.45" y1="192.69" x2="131.56" y2="192.69" gradientTransform="matrix(-1, 0, 0, 1, 434.54, 0)" xlink:href="#Áåçûìÿííûé_ãðàäèåíò_24"/><linearGradient id="Áåçûìÿííûé_ãðàäèåíò_3-9" x1="73.72" y1="189.78" x2="160.88" y2="189.78" gradientTransform="matrix(-1, 0, 0, 1, 434.54, 0)" xlink:href="#Áåçûìÿííûé_ãðàäèåíò_3"/><linearGradient id="Áåçûìÿííûé_ãðàäèåíò_3-10" x1="88.48" y1="194.73" x2="110.79" y2="194.73" gradientTransform="matrix(-1, 0, 0, 1, 434.54, 0)" xlink:href="#Áåçûìÿííûé_ãðàäèåíò_3"/><clipPath id="clip-path-2"><polygon id="SVGID-2" data-name="SVGID" class="cls-1" points="344.12 125.67 395.58 155.39 389.2 193.02 337.77 163.32 344.12 125.67"/></clipPath><linearGradient id="Áåçûìÿííûé_ãðàäèåíò_3-11" x1="40.42" y1="170.46" x2="127.58" y2="170.46" gradientTransform="matrix(-1, 0, 0, 1, 434.54, 0)" xlink:href="#Áåçûìÿííûé_ãðàäèåíò_3"/><linearGradient id="Áåçûìÿííûé_ãðàäèåíò_3-12" x1="34.68" y1="164.06" x2="56.99" y2="164.06" gradientTransform="matrix(-1, 0, 0, 1, 434.54, 0)" xlink:href="#Áåçûìÿííûé_ãðàäèåíò_3"/><radialGradient id="Áåçûìÿííûé_ãðàäèåíò_68" cx="407.93" cy="377.68" r="7.73" gradientTransform="matrix(0.97, -0.12, -0.12, -0.97, -249.63, 656.72)" gradientUnits="userSpaceOnUse"><stop offset="0" stop-color="#6dc4cb"/><stop offset="0.05" stop-color="#60a7b5"/><stop offset="0.13" stop-color="#50849b"/><stop offset="0.21" stop-color="#436685"/><stop offset="0.3" stop-color="#384e73"/><stop offset="0.4" stop-color="#303c65"/><stop offset="0.52" stop-color="#2a2f5b"/><stop offset="0.68" stop-color="#272756"/><stop offset="1" stop-color="#262554"/></radialGradient><radialGradient id="Áåçûìÿííûé_ãðàäèåíò_43" cx="407.93" cy="377.68" r="2.1" gradientTransform="matrix(0.85, -0.49, -0.49, -0.85, -57.53, 760.83)" gradientUnits="userSpaceOnUse"><stop offset="0" stop-color="#6dc4cb"/><stop offset="1" stop-color="#6dc4cb"/></radialGradient><radialGradient id="Áåçûìÿííûé_ãðàäèåíò_68-2" cx="452.61" cy="345.35" r="7.73" gradientTransform="matrix(0.97, -0.12, -0.12, -0.97, -243.24, 636)" xlink:href="#Áåçûìÿííûé_ãðàäèåíò_68"/><radialGradient id="Áåçûìÿííûé_ãðàäèåíò_43-2" cx="452.61" cy="345.35" r="2.1" xlink:href="#Áåçûìÿííûé_ãðàäèåíò_43"/><radialGradient id="Áåçûìÿííûé_ãðàäèåíò_68-3" cx="534.2" cy="298.37" r="7.73" gradientTransform="matrix(0.97, -0.12, -0.12, -0.97, -236.06, 599.7)" xlink:href="#Áåçûìÿííûé_ãðàäèåíò_68"/><radialGradient id="Áåçûìÿííûé_ãðàäèåíò_43-3" cx="534.2" cy="298.37" r="2.1" xlink:href="#Áåçûìÿííûé_ãðàäèåíò_43"/><radialGradient id="Áåçûìÿííûé_ãðàäèåíò_68-4" cx="539.94" cy="288.14" r="7.73" gradientTransform="matrix(0.85, -0.49, -0.49, -0.85, -57.53, 760.83)" xlink:href="#Áåçûìÿííûé_ãðàäèåíò_68"/><radialGradient id="Áåçûìÿííûé_ãðàäèåíò_43-4" cx="539.94" cy="288.14" r="2.1" xlink:href="#Áåçûìÿííûé_ãðàäèåíò_43"/><radialGradient id="Áåçûìÿííûé_ãðàäèåíò_68-5" cx="595.64" cy="274.09" r="7.73" gradientTransform="matrix(0.98, -0.07, -0.07, -0.98, -251.42, 545.46)" xlink:href="#Áåçûìÿííûé_ãðàäèåíò_68"/><radialGradient id="Áåçûìÿííûé_ãðàäèåíò_43-5" cx="595.64" cy="274.09" r="2.1" xlink:href="#Áåçûìÿííûé_ãðàäèåíò_43"/><radialGradient id="Áåçûìÿííûé_ãðàäèåíò_68-6" cx="616.52" cy="284.01" r="7.73" gradientTransform="matrix(0.85, -0.49, -0.49, -0.85, -57.53, 760.83)" xlink:href="#Áåçûìÿííûé_ãðàäèåíò_68"/><radialGradient id="Áåçûìÿííûé_ãðàäèåíò_43-6" cx="616.52" cy="284.01" r="2.1" xlink:href="#Áåçûìÿííûé_ãðàäèåíò_43"/><radialGradient id="Áåçûìÿííûé_ãðàäèåíò_68-7" cx="609.79" cy="296.08" r="7.73" gradientTransform="matrix(0.85, -0.49, -0.49, -0.85, -57.53, 760.83)" xlink:href="#Áåçûìÿííûé_ãðàäèåíò_68"/><radialGradient id="Áåçûìÿííûé_ãðàäèåíò_43-7" cx="609.79" cy="296.08" r="2.1" xlink:href="#Áåçûìÿííûé_ãðàäèåíò_43"/><radialGradient id="Áåçûìÿííûé_ãðàäèåíò_68-8" cx="602.81" cy="307.73" r="7.73" gradientTransform="matrix(0.85, -0.49, -0.49, -0.85, -57.53, 760.83)" xlink:href="#Áåçûìÿííûé_ãðàäèåíò_68"/><radialGradient id="Áåçûìÿííûé_ãðàäèåíò_43-8" cx="602.81" cy="307.73" r="2.1" xlink:href="#Áåçûìÿííûé_ãðàäèåíò_43"/><radialGradient id="Áåçûìÿííûé_ãðàäèåíò_68-9" cx="402.45" cy="387.37" r="7.73" gradientTransform="matrix(0.85, -0.49, -0.49, -0.85, -57.53, 760.83)" xlink:href="#Áåçûìÿííûé_ãðàäèåíò_68"/><radialGradient id="Áåçûìÿííûé_ãðàäèåíò_43-9" cx="402.45" cy="387.37" r="2.1" xlink:href="#Áåçûìÿííûé_ãðàäèåíò_43"/><radialGradient id="Áåçûìÿííûé_ãðàäèåíò_68-10" cx="396.97" cy="397.05" r="7.73" gradientTransform="matrix(0.69, 0.69, 0.69, -0.69, -468.46, 228.43)" xlink:href="#Áåçûìÿííûé_ãðàäèåíò_68"/><radialGradient id="Áåçûìÿííûé_ãðàäèåíò_43-10" cx="396.97" cy="397.05" r="2.1" xlink:href="#Áåçûìÿííûé_ãðàäèåíò_43"/><radialGradient id="Áåçûìÿííûé_ãðàäèåíò_68-11" cx="431.71" cy="410.18" r="7.73" gradientTransform="matrix(0.85, -0.49, -0.49, -0.85, -57.53, 760.83)" xlink:href="#Áåçûìÿííûé_ãðàäèåíò_68"/><radialGradient id="Áåçûìÿííûé_ãðàäèåíò_43-11" cx="431.71" cy="410.18" r="2.1" xlink:href="#Áåçûìÿííûé_ãðàäèåíò_43"/><radialGradient id="Áåçûìÿííûé_ãðàäèåíò_68-12" cx="443.31" cy="409.65" r="7.73" gradientTransform="matrix(0.85, -0.49, -0.49, -0.85, -57.53, 760.83)" xlink:href="#Áåçûìÿííûé_ãðàäèåíò_68"/><radialGradient id="Áåçûìÿííûé_ãðàäèåíò_43-12" cx="443.31" cy="409.65" r="2.1" xlink:href="#Áåçûìÿííûé_ãðàäèåíò_43"/></defs><g class="cls-2"><g id="Layer_1" data-name="Layer 1"><path class="cls-3" d="M270.44,257.37a4.15,4.15,0,0,1-2-.53l-31-17.92.26-.46,31,17.92a3.52,3.52,0,0,0,3.51,0l9.06-5.27L332,221.8a.76.76,0,0,0,0-1.3l-52.64-30.39.27-.46L332.27,220a1.28,1.28,0,0,1,0,2.22l-50.75,29.3-9.06,5.27A4,4,0,0,1,270.44,257.37Z"/><path class="cls-3" d="M72.05,182l-.27-.46,36.77-21.22a4.18,4.18,0,0,1,4.19,0l17.18,9.92-.26.46-17.19-9.92a3.63,3.63,0,0,0-3.66,0Z"/><path class="cls-3" d="M331.75,182,295,160.75a3.63,3.63,0,0,0-3.66,0l-17.19,9.92-.26-.46,17.18-9.92a4.18,4.18,0,0,1,4.19,0L332,181.51Z"/><polygon class="cls-4" points="320.21 153.5 296.02 139.53 263.62 158.24 287.82 172.2 320.21 153.5"/><polygon class="cls-5" points="231.23 139.53 207.03 153.5 239.43 172.2 263.62 158.24 231.23 139.53"/><polygon class="cls-6" points="207.03 190.91 231.23 204.88 263.62 186.17 239.43 172.2 207.03 190.91"/><polygon class="cls-7" points="296.02 204.88 320.21 190.91 287.82 172.2 263.62 186.17 296.02 204.88"/><polygon class="cls-8" points="195.52 153.5 171.33 139.53 138.94 158.24 163.13 172.2 195.52 153.5"/><polygon class="cls-9" points="106.54 139.53 82.34 153.5 114.74 172.2 138.94 158.24 106.54 139.53"/><polygon class="cls-10" points="82.35 190.91 106.54 204.88 138.94 186.17 114.74 172.2 82.35 190.91"/><polygon class="cls-11" points="171.33 204.88 195.53 190.91 163.13 172.2 138.94 186.17 171.33 204.88"/><path class="cls-12" d="M139.1,198.76a2.71,2.71,0,0,1-1.3-.3l-29.25-16.89a1,1,0,0,1-.58-.88,1.35,1.35,0,0,1,.78-1.09l28.86-16.66a3.22,3.22,0,0,1,2.95-.11l29.25,16.89a1,1,0,0,1,.59.88,1.34,1.34,0,0,1-.78,1.08l-28.86,16.67A3.46,3.46,0,0,1,139.1,198.76Zm-1.07-.69a2.81,2.81,0,0,0,2.5-.12l28.86-16.66a.92.92,0,0,0,.55-.69.6.6,0,0,0-.35-.49l-29.26-16.89a2.84,2.84,0,0,0-2.5.11L109,180a.94.94,0,0,0-.55.69.62.62,0,0,0,.36.49Z"/><polygon class="cls-13" points="170.17 168.28 170.17 171.87 139.11 189.81 108.04 171.87 108.04 168.28 170.17 168.28"/><polygon class="cls-14" points="139.11 186.22 108.04 168.28 139.1 150.35 170.17 168.28 139.11 186.22"/><polygon class="cls-15" points="139.11 185.8 108.4 168.07 108.04 168.28 139.11 186.22 170.17 168.28 169.81 168.07 139.11 185.8"/><polygon class="cls-16" points="139.11 182.08 115.21 168.29 139.1 154.49 163 168.29 139.11 182.08"/><polygon class="cls-17" points="139.11 182.08 115.21 168.29 139.1 154.49 163 168.29 139.11 182.08"/><polygon class="cls-18" points="139.1 151.01 163 164.81 163 168.29 139.1 154.49 139.1 151.01"/><polygon class="cls-19" points="139.11 154.49 115.21 168.29 115.21 164.81 139.1 151.01 139.11 154.49"/><polygon class="cls-20" points="139.11 178.6 115.21 164.81 139.1 151.01 163 164.81 139.11 178.6"/><polygon class="cls-21" points="139.11 170.32 129.56 164.81 139.1 159.3 148.65 164.81 139.11 170.32"/><polygon class="cls-21" points="139.1 159.81 148.21 165.06 148.65 164.81 139.1 159.3 129.56 164.81 130 165.06 139.1 159.81"/><polygon class="cls-22" points="139.11 178.6 139.11 182.08 163 168.29 163 164.81 139.11 178.6"/><polygon class="cls-23" points="115.21 164.81 115.21 168.29 139.11 182.08 139.11 178.6 115.21 164.81"/><polygon class="cls-24" points="139.11 178.22 115.54 164.62 115.21 164.81 139.11 178.6 163 164.81 162.67 164.62 139.11 178.22"/><path class="cls-12" d="M263.62,198.76a2.68,2.68,0,0,1-1.3-.3l-29.25-16.89a1,1,0,0,1-.59-.88,1.37,1.37,0,0,1,.78-1.09l28.86-16.66a3.24,3.24,0,0,1,3-.11l29.25,16.89a1,1,0,0,1,.58.88,1.32,1.32,0,0,1-.78,1.08l-28.86,16.67A3.45,3.45,0,0,1,263.62,198.76Zm-1.07-.69a2.81,2.81,0,0,0,2.5-.12l28.86-16.66a.94.94,0,0,0,.55-.69.59.59,0,0,0-.36-.49l-29.25-16.89a2.84,2.84,0,0,0-2.5.11L233.49,180a.92.92,0,0,0-.55.69.63.63,0,0,0,.35.49Z"/><polygon class="cls-25" points="294.69 168.28 294.69 171.87 263.62 189.81 232.56 171.87 232.56 168.28 294.69 168.28"/><polygon class="cls-14" points="263.62 186.22 232.56 168.28 263.62 150.35 294.69 168.28 263.62 186.22"/><polygon class="cls-15" points="263.62 185.8 232.92 168.07 232.56 168.28 263.62 186.22 294.69 168.28 294.32 168.07 263.62 185.8"/><polygon class="cls-16" points="263.62 182.08 239.73 168.29 263.62 154.49 287.52 168.29 263.62 182.08"/><polygon class="cls-26" points="263.62 182.08 239.73 168.29 263.62 154.49 287.52 168.29 263.62 182.08"/><polygon class="cls-27" points="263.62 151.01 287.52 164.81 287.52 168.29 263.62 154.49 263.62 151.01"/><polygon class="cls-28" points="263.62 154.49 239.73 168.29 239.73 164.81 263.62 151.01 263.62 154.49"/><polygon class="cls-29" points="263.62 178.6 239.73 164.81 263.62 151.01 287.52 164.81 263.62 178.6"/><polygon class="cls-21" points="263.62 170.32 254.08 164.81 263.62 159.3 273.17 164.81 263.62 170.32"/><polygon class="cls-21" points="263.62 159.81 272.73 165.06 273.17 164.81 263.62 159.3 254.08 164.81 254.51 165.06 263.62 159.81"/><polygon class="cls-30" points="263.62 178.6 263.62 182.08 287.52 168.29 287.52 164.81 263.62 178.6"/><polygon class="cls-31" points="239.73 164.81 239.73 168.29 263.62 182.08 263.62 178.6 239.73 164.81"/><polygon class="cls-24" points="263.62 178.22 240.06 164.62 239.73 164.81 263.62 178.6 287.52 164.81 287.19 164.62 263.62 178.22"/><polygon class="cls-14" points="201.44 127.58 146.23 95.7 201.44 63.83 256.65 95.7 201.44 127.58"/><polygon class="cls-32" points="201.44 124.7 151.2 95.7 201.44 66.7 251.68 95.7 201.44 124.7"/><path class="cls-3" d="M201.44,259a4.91,4.91,0,0,1-2.46-.66l-67.62-39a1.44,1.44,0,0,1,0-2.51l70.08-40.47,72.26,41.73-69.8,40.29A4.91,4.91,0,0,1,201.44,259Zm-2.2-1.12a4.4,4.4,0,0,0,4.4,0l69-39.83L201.44,177l-69.82,40.31a.89.89,0,0,0-.46.79.91.91,0,0,0,.46.8Z"/><polygon class="cls-15" points="201.44 249.93 146.23 218.05 201.44 186.18 256.65 218.06 201.44 249.93"/><polygon class="cls-33" points="256.65 95.7 256.65 218.06 201.44 249.93 201.44 127.58 256.65 95.7"/><polygon class="cls-34" points="146.23 95.7 146.23 218.05 201.44 249.93 201.44 127.58 146.23 95.7"/><g class="cls-35"><polygon class="cls-36" points="149.97 103.82 149.97 213.79 197.7 241.35 197.7 131.37 149.97 103.82"/></g><polygon class="cls-36" points="248.37 125.26 248.37 128.5 209.72 150.81 209.72 147.57 248.37 125.26"/><polygon class="cls-36" points="248.37 138.94 248.37 142.17 209.72 164.48 209.72 161.25 248.37 138.94"/><polygon class="cls-36" points="248.37 152.61 248.37 155.84 209.72 178.16 209.72 174.92 248.37 152.61"/><polygon class="cls-36" points="248.37 166.28 248.37 169.52 209.72 191.83 209.72 188.6 248.37 166.28"/><polygon class="cls-36" points="248.37 179.96 248.37 183.19 209.72 205.5 209.72 202.27 248.37 179.96"/><polygon class="cls-36" points="248.37 193.63 248.37 196.87 209.72 219.18 209.72 215.94 248.37 193.63"/><polygon class="cls-15" points="201.44 126.54 147.13 95.18 146.23 95.7 201.44 127.58 256.65 95.7 255.75 95.18 201.44 126.54"/><g class="cls-35"><polygon class="cls-36" points="146.23 198.72 201.44 165.38 201.44 127.58 146.23 95.7 146.23 198.72"/></g><polygon class="cls-37" points="155.69 142.77 162.56 146.73 162.56 145.54 155.69 141.57 155.69 142.77"/><polygon class="cls-37" points="163.66 147.37 167.41 149.53 167.41 148.34 163.66 146.17 163.66 147.37"/><polygon class="cls-37" points="173.23 152.89 175.94 154.45 175.94 153.26 173.23 151.69 173.23 152.89"/><polygon class="cls-37" points="171.25 151.75 172.18 152.28 172.18 151.09 171.25 150.55 171.25 151.75"/><polygon class="cls-37" points="168.52 150.17 170.2 151.14 170.21 149.95 168.52 148.98 168.52 150.17"/><polygon class="cls-37" points="162.04 151.88 164.75 153.45 164.75 152.25 162.04 150.69 162.04 151.88"/><polygon class="cls-37" points="155.68 148.21 160.99 151.28 160.99 150.09 155.68 147.02 155.68 148.21"/><polygon class="cls-37" points="165.57 167.53 170.88 170.6 170.88 169.41 165.58 166.34 165.57 167.53"/><polygon class="cls-37" points="162.84 165.96 164.53 166.93 164.53 165.74 162.85 164.77 162.84 165.96"/><polygon class="cls-37" points="165.55 162.08 170.85 165.14 170.86 163.95 165.55 160.89 165.55 162.08"/><polygon class="cls-37" points="162.82 160.5 164.5 161.47 164.5 160.28 162.82 159.31 162.82 160.5"/><polygon class="cls-37" points="165.61 191.07 155.61 185.3 155.61 186.49 165.61 192.27 165.61 191.07"/><polygon class="cls-37" points="169.13 193.11 166.66 191.68 166.66 192.87 169.13 194.3 169.13 193.11"/><polygon class="cls-37" points="185.32 194.26 175.33 188.49 175.32 189.68 185.32 195.46 185.32 194.26"/><polygon class="cls-37" points="188.85 196.3 186.37 194.87 186.37 196.06 188.85 197.49 188.85 196.3"/><polygon class="cls-37" points="158.32 184.14 155.61 182.58 155.61 183.77 158.32 185.33 158.32 184.14"/><polygon class="cls-37" points="173.88 187.67 171.18 186.11 171.18 187.3 173.88 188.86 173.88 187.67"/><polygon class="cls-37" points="164.68 187.81 159.37 184.75 159.37 185.94 164.68 189 164.68 187.81"/><polygon class="cls-37" points="167.41 189.39 165.73 188.42 165.73 189.61 167.41 190.58 167.41 189.39"/><polygon class="cls-37" points="173.81 193.08 168.51 190.02 168.5 191.21 173.81 194.27 173.81 193.08"/><polygon class="cls-37" points="176.54 194.66 174.86 193.69 174.86 194.88 176.54 195.85 176.54 194.66"/><polygon class="cls-37" points="173.88 190.4 171.17 188.83 171.17 190.02 173.88 191.59 173.88 190.4"/><polygon class="cls-37" points="180.24 194.07 174.93 191 174.93 192.19 180.24 195.26 180.24 194.07"/><polygon class="cls-37" points="182.97 195.64 181.29 194.67 181.29 195.87 182.97 196.84 182.97 195.64"/><polygon class="cls-37" points="161.16 183.05 155.62 179.85 155.61 181.05 161.16 184.25 161.16 183.05"/><polygon class="cls-37" points="166.22 185.97 162.21 183.66 162.21 184.85 166.21 187.17 166.22 185.97"/><polygon class="cls-37" points="169.97 188.14 167.26 186.58 167.26 187.77 169.97 189.34 169.97 188.14"/><polygon class="cls-37" points="188.3 164.31 193.84 167.5 193.84 166.31 188.3 163.11 188.3 164.31"/><polygon class="cls-37" points="183.24 161.38 187.25 163.7 187.25 162.51 183.24 160.19 183.24 161.38"/><polygon class="cls-37" points="179.48 159.21 182.19 160.78 182.19 159.59 179.48 158.02 179.48 159.21"/><polygon class="cls-37" points="186 160.24 191.54 163.44 191.54 162.25 186 159.05 186 160.24"/><polygon class="cls-37" points="180.94 157.32 184.95 159.64 184.95 158.44 180.94 156.13 180.94 157.32"/><polygon class="cls-37" points="177.18 155.15 179.89 156.72 179.89 155.52 177.18 153.96 177.18 155.15"/><polygon class="cls-37" points="166.37 165.28 168.24 166.36 168.24 165.17 166.37 164.09 166.37 165.28"/><polygon class="cls-37" points="162.85 163.25 165.32 164.68 165.32 163.48 162.85 162.06 162.85 163.25"/><polygon class="cls-37" points="161.19 180.35 155.65 177.15 155.65 178.34 161.19 181.54 161.19 180.35"/><polygon class="cls-37" points="166.25 183.27 162.25 180.95 162.24 182.15 166.25 184.46 166.25 183.27"/><polygon class="cls-37" points="170.01 185.44 167.3 183.87 167.3 185.06 170.01 186.63 170.01 185.44"/><polygon class="cls-37" points="157.53 175.5 155.66 174.42 155.65 175.62 157.53 176.7 157.53 175.5"/><polygon class="cls-37" points="161.05 177.54 158.58 176.11 158.58 177.3 161.05 178.73 161.05 177.54"/><polygon class="cls-37" points="166.09 180.45 162.1 178.14 162.1 179.34 166.09 181.64 166.09 180.45"/><polygon class="cls-37" points="167.54 157.77 169.41 158.85 169.41 157.66 167.54 156.58 167.54 157.77"/><polygon class="cls-37" points="164.02 155.74 166.49 157.17 166.49 155.97 164.02 154.55 164.02 155.74"/><polygon class="cls-37" points="158.98 152.83 162.97 155.13 162.97 153.94 158.98 151.64 158.98 152.83"/><polygon class="cls-37" points="170.82 162.19 174.8 164.5 174.81 163.3 170.82 161 170.82 162.19"/><polygon class="cls-37" points="164.33 158.64 169.7 161.75 169.71 160.55 164.33 157.45 164.33 158.64"/><polygon class="cls-37" points="161.6 157.07 163.28 158.04 163.28 156.84 161.6 155.87 161.6 157.07"/><polygon class="cls-37" points="158.98 155.55 160.66 156.52 160.66 155.33 158.98 154.36 158.98 155.55"/><polygon class="cls-37" points="161.66 170.94 166.97 174.01 166.97 172.81 161.67 169.75 161.66 170.94"/><polygon class="cls-37" points="158.93 169.37 160.62 170.34 160.62 169.14 158.94 168.17 158.93 169.37"/><polygon class="cls-37" points="162.49 174.15 164.36 175.23 164.36 174.03 162.49 172.95 162.49 174.15"/><polygon class="cls-37" points="168.18 171.96 170.05 173.04 170.05 171.85 168.18 170.77 168.18 171.96"/><polygon class="cls-37" points="170.85 173.5 175.34 176.09 175.34 174.9 170.85 172.31 170.85 173.5"/><polygon class="cls-37" points="176.13 176.55 178.81 178.09 178.81 176.9 176.14 175.36 176.13 176.55"/><polygon class="cls-37" points="158.97 172.11 161.44 173.54 161.44 172.35 158.97 170.92 158.97 172.11"/><polygon class="cls-37" points="159.18 174.91 161.05 175.99 161.05 174.8 159.18 173.72 159.18 174.91"/><polygon class="cls-37" points="155.66 172.87 158.13 174.3 158.13 173.11 155.66 171.68 155.66 172.87"/><polygon class="cls-37" points="165.46 170.4 167.14 171.37 167.15 170.17 165.46 169.2 165.46 170.4"/><polygon class="cls-37" points="162.84 168.88 164.52 169.85 164.52 168.66 162.84 167.69 162.84 168.88"/><polygon class="cls-37" points="172.52 155.19 178.25 158.5 178.25 157.31 172.52 154 172.52 155.19"/><polygon class="cls-37" points="166.09 151.49 171.47 154.59 171.47 153.39 166.09 150.29 166.09 151.49"/><polygon class="cls-37" points="163.36 149.91 165.04 150.88 165.05 149.69 163.37 148.72 163.36 149.91"/><polygon class="cls-37" points="160.74 148.4 162.42 149.37 162.43 148.17 160.74 147.2 160.74 148.4"/><polygon class="cls-37" points="159.31 147.57 155.68 145.47 155.69 144.28 159.31 146.38 159.31 147.57"/><polygon class="cls-14" points="201.44 103.76 146.23 71.89 201.44 40.01 256.65 71.89 201.44 103.76"/><polygon class="cls-36" points="201.44 95.06 161.31 71.89 201.44 48.71 241.57 71.89 201.44 95.06"/><polygon class="cls-15" points="201.44 50.28 240.22 72.67 241.57 71.89 201.44 48.71 161.31 71.89 162.66 72.67 201.44 50.28"/><polygon class="cls-38" points="256.65 71.89 256.65 89.95 201.44 121.83 201.44 103.76 256.65 71.89"/><polygon class="cls-34" points="146.23 71.89 146.23 89.95 201.44 121.83 201.44 103.76 146.23 71.89"/><g class="cls-35"><polygon class="cls-36" points="149.97 80 149.97 85.69 197.7 113.25 197.7 107.56 149.97 80"/></g><polygon class="cls-15" points="201.44 102.72 147.13 71.37 146.23 71.89 201.44 103.76 256.65 71.89 255.75 71.37 201.44 102.72"/><polygon class="cls-36" points="248.37 84.55 248.37 87.78 209.72 110.09 209.72 106.86 248.37 84.55"/><polygon class="cls-39" points="146.23 71.89 146.23 89.95 201.44 121.83 201.44 103.76 146.23 71.89"/><polygon class="cls-37" points="185.32 102.8 175.33 97.03 175.32 98.22 185.32 103.99 185.32 102.8"/><polygon class="cls-37" points="173.88 96.21 171.18 94.64 171.18 95.84 173.88 97.4 173.88 96.21"/><polygon class="cls-37" points="161.19 88.88 155.65 85.68 155.65 86.88 161.19 90.08 161.19 88.88"/><polygon class="cls-37" points="166.25 91.8 162.25 89.49 162.24 90.68 166.25 93 166.25 91.8"/><polygon class="cls-37" points="170.01 93.97 167.3 92.41 167.3 93.6 170.01 95.17 170.01 93.97"/><polygon class="cls-37" points="201.5 56.67 199.74 55.66 201.5 54.65 203.25 55.66 201.5 56.67"/><polygon class="cls-40" points="205 58.7 203.25 57.68 205 56.67 206.76 57.68 205 58.7"/><polygon class="cls-41" points="208.51 60.72 206.76 59.71 208.51 58.7 210.26 59.71 208.51 60.72"/><polygon class="cls-37" points="212.01 62.74 210.26 61.73 212.01 60.72 213.77 61.73 212.01 62.74"/><polygon class="cls-41" points="215.52 64.77 213.77 63.76 215.52 62.74 217.28 63.76 215.52 64.77"/><polygon class="cls-37" points="219.03 66.79 217.28 65.78 219.03 64.77 220.78 65.78 219.03 66.79"/><polygon class="cls-37" points="222.53 68.82 220.78 67.8 222.53 66.79 224.29 67.8 222.53 68.82"/><polygon class="cls-37" points="226.04 70.84 224.29 69.83 226.04 68.82 227.79 69.83 226.04 70.84"/><polygon class="cls-40" points="229.55 72.86 227.79 71.85 229.55 70.84 231.3 71.85 229.55 72.86"/><polygon class="cls-37" points="197.98 58.7 196.22 57.69 197.98 56.68 199.73 57.69 197.98 58.7"/><polygon class="cls-37" points="201.48 60.73 199.73 59.72 201.48 58.7 203.24 59.72 201.48 60.73"/><polygon class="cls-37" points="204.99 62.75 203.24 61.74 204.99 60.73 206.74 61.74 204.99 62.75"/><polygon class="cls-37" points="208.5 64.78 206.74 63.76 208.5 62.75 210.25 63.76 208.5 64.78"/><polygon class="cls-37" points="212 66.8 210.25 65.79 212 64.78 213.75 65.79 212 66.8"/><polygon class="cls-37" points="215.51 68.83 213.75 67.81 215.51 66.8 217.26 67.81 215.51 68.83"/><polygon class="cls-37" points="219.01 70.85 217.26 69.84 219.01 68.83 220.77 69.84 219.01 70.85"/><polygon class="cls-37" points="222.52 72.87 220.77 71.86 222.52 70.85 224.27 71.86 222.52 72.87"/><polygon class="cls-37" points="226.03 74.9 224.27 73.89 226.03 72.87 227.78 73.89 226.03 74.9"/><polygon class="cls-37" points="194.46 60.73 192.7 59.72 194.46 58.71 196.21 59.72 194.46 60.73"/><polygon class="cls-37" points="197.96 62.76 196.21 61.75 197.96 60.73 199.72 61.75 197.96 62.76"/><polygon class="cls-37" points="201.47 64.78 199.72 63.77 201.47 62.76 203.22 63.77 201.47 64.78"/><polygon class="cls-40" points="204.97 66.81 203.22 65.8 204.97 64.78 206.73 65.8 204.97 66.81"/><polygon class="cls-41" points="208.48 68.83 206.73 67.82 208.48 66.81 210.23 67.82 208.48 68.83"/><polygon class="cls-41" points="211.99 70.86 210.23 69.84 211.99 68.83 213.74 69.84 211.99 70.86"/><polygon class="cls-37" points="215.49 72.88 213.74 71.87 215.49 70.86 217.25 71.87 215.49 72.88"/><polygon class="cls-37" points="219 74.91 217.25 73.89 219 72.88 220.75 73.89 219 74.91"/><polygon class="cls-37" points="222.51 76.93 220.75 75.92 222.51 74.91 224.26 75.92 222.51 76.93"/><polygon class="cls-41" points="190.94 62.77 189.18 61.76 190.94 60.74 192.69 61.76 190.94 62.77"/><polygon class="cls-41" points="194.44 64.79 192.69 63.78 194.44 62.77 196.19 63.78 194.44 64.79"/><polygon class="cls-40" points="197.95 66.82 196.19 65.81 197.95 64.79 199.7 65.81 197.95 66.82"/><polygon class="cls-37" points="201.45 68.84 199.7 67.83 201.45 66.82 203.21 67.83 201.45 68.84"/><polygon class="cls-37" points="204.96 70.86 203.21 69.85 204.96 68.84 206.71 69.85 204.96 70.86"/><polygon class="cls-37" points="208.47 72.89 206.71 71.88 208.47 70.86 210.22 71.88 208.47 72.89"/><polygon class="cls-41" points="211.97 74.91 210.22 73.9 211.97 72.89 213.73 73.9 211.97 74.91"/><polygon class="cls-37" points="215.48 76.94 213.73 75.93 215.48 74.91 217.23 75.93 215.48 76.94"/><polygon class="cls-37" points="218.99 78.96 217.23 77.95 218.99 76.94 220.74 77.95 218.99 78.96"/><polygon class="cls-37" points="187.41 64.8 185.66 63.79 187.41 62.78 189.17 63.79 187.41 64.8"/><polygon class="cls-37" points="190.92 66.83 189.17 65.81 190.92 64.8 192.67 65.81 190.92 66.83"/><polygon class="cls-37" points="194.43 68.85 192.67 67.84 194.43 66.83 196.18 67.84 194.43 68.85"/><polygon class="cls-37" points="197.93 70.87 196.18 69.86 197.93 68.85 199.69 69.86 197.93 70.87"/><polygon class="cls-37" points="201.44 72.9 199.69 71.89 201.44 70.87 203.19 71.89 201.44 72.9"/><polygon class="cls-37" points="204.95 74.92 203.19 73.91 204.95 72.9 206.7 73.91 204.95 74.92"/><polygon class="cls-37" points="208.45 76.95 206.7 75.93 208.45 74.92 210.21 75.93 208.45 76.95"/><polygon class="cls-37" points="211.96 78.97 210.21 77.96 211.96 76.95 213.71 77.96 211.96 78.97"/><polygon class="cls-37" points="215.47 81 213.71 79.98 215.47 78.97 217.22 79.98 215.47 81"/><polygon class="cls-37" points="183.89 66.83 182.14 65.82 183.89 64.81 185.65 65.82 183.89 66.83"/><polygon class="cls-37" points="187.4 68.86 185.65 67.84 187.4 66.83 189.15 67.84 187.4 68.86"/><polygon class="cls-41" points="190.91 70.88 189.15 69.87 190.91 68.86 192.66 69.87 190.91 70.88"/><polygon class="cls-37" points="194.41 72.91 192.66 71.89 194.41 70.88 196.17 71.89 194.41 72.91"/><polygon class="cls-40" points="197.92 74.93 196.17 73.92 197.92 72.91 199.67 73.92 197.92 74.93"/><polygon class="cls-37" points="201.43 76.95 199.67 75.94 201.43 74.93 203.18 75.94 201.43 76.95"/><polygon class="cls-37" points="204.93 78.98 203.18 77.97 204.93 76.95 206.69 77.97 204.93 78.98"/><polygon class="cls-37" points="208.44 81 206.69 79.99 208.44 78.98 210.19 79.99 208.44 81"/><polygon class="cls-37" points="211.94 83.03 210.19 82.02 211.94 81 213.7 82.02 211.94 83.03"/><polygon class="cls-37" points="180.37 68.87 178.62 67.85 180.37 66.84 182.13 67.85 180.37 68.87"/><polygon class="cls-37" points="183.88 70.89 182.13 69.88 183.88 68.87 185.63 69.88 183.88 70.89"/><polygon class="cls-41" points="187.39 72.91 185.63 71.9 187.39 70.89 189.14 71.9 187.39 72.91"/><polygon class="cls-37" points="190.89 74.94 189.14 73.93 190.89 72.91 192.65 73.93 190.89 74.94"/><polygon class="cls-37" points="194.4 76.96 192.65 75.95 194.4 74.94 196.15 75.95 194.4 76.96"/><polygon class="cls-40" points="197.91 78.99 196.15 77.97 197.91 76.96 199.66 77.97 197.91 78.99"/><polygon class="cls-41" points="201.41 81.01 199.66 80 201.41 78.99 203.16 80 201.41 81.01"/><polygon class="cls-37" points="204.92 83.04 203.16 82.02 204.92 81.01 206.67 82.02 204.92 83.04"/><polygon class="cls-40" points="208.42 85.06 206.67 84.05 208.42 83.04 210.18 84.05 208.42 85.06"/><polygon class="cls-37" points="176.85 70.9 175.1 69.89 176.85 68.87 178.61 69.89 176.85 70.9"/><polygon class="cls-41" points="180.36 72.92 178.61 71.91 180.36 70.9 182.11 71.91 180.36 72.92"/><polygon class="cls-37" points="183.87 74.95 182.11 73.94 183.87 72.92 185.62 73.94 183.87 74.95"/><polygon class="cls-37" points="187.37 76.97 185.62 75.96 187.37 74.95 189.13 75.96 187.37 76.97"/><polygon class="cls-37" points="190.88 79 189.13 77.98 190.88 76.97 192.63 77.98 190.88 79"/><polygon class="cls-37" points="194.38 81.02 192.63 80.01 194.38 79 196.14 80.01 194.38 81.02"/><polygon class="cls-37" points="197.89 83.04 196.14 82.03 197.89 81.02 199.64 82.03 197.89 83.04"/><polygon class="cls-41" points="201.4 85.07 199.64 84.06 201.4 83.04 203.15 84.06 201.4 85.07"/><polygon class="cls-37" points="204.9 87.09 203.15 86.08 204.9 85.07 206.66 86.08 204.9 87.09"/><polygon class="cls-37" points="173.33 72.93 171.58 71.92 173.33 70.91 175.09 71.92 173.33 72.93"/><polygon class="cls-40" points="176.84 74.95 175.09 73.94 176.84 72.93 178.59 73.94 176.84 74.95"/><polygon class="cls-37" points="180.34 76.98 178.59 75.97 180.34 74.95 182.1 75.97 180.34 76.98"/><polygon class="cls-37" points="183.85 79 182.1 77.99 183.85 76.98 185.6 77.99 183.85 79"/><polygon class="cls-37" points="187.36 81.03 185.6 80.02 187.36 79 189.11 80.02 187.36 81.03"/><polygon class="cls-37" points="190.86 83.05 189.11 82.04 190.86 81.03 192.62 82.04 190.86 83.05"/><polygon class="cls-41" points="194.37 85.08 192.62 84.06 194.37 83.05 196.12 84.06 194.37 85.08"/><polygon class="cls-37" points="197.88 87.1 196.12 86.09 197.88 85.08 199.63 86.09 197.88 87.1"/><polygon class="cls-37" points="201.38 89.13 199.63 88.11 201.38 87.1 203.14 88.11 201.38 89.13"/><path class="cls-3" d="M43.33,222.19a4.83,4.83,0,0,1-2.41-.64l-27.76-16a1.36,1.36,0,0,1-.69-1.19,1.38,1.38,0,0,1,.69-1.2l50.36-29.07.37.21,29.8,17.2a1.38,1.38,0,0,1,.69,1.2,1.36,1.36,0,0,1-.69,1.19l-48,27.69A4.82,4.82,0,0,1,43.33,222.19Zm20.19-47.52L13.43,203.59a.84.84,0,0,0-.43.74.82.82,0,0,0,.43.73l27.76,16a4.35,4.35,0,0,0,4.28,0l48-27.69a.82.82,0,0,0,.43-.73.84.84,0,0,0-.43-.74Z"/><path class="cls-42" d="M63.59,162.92,56.9,123.28l.54-.22-.81-.46h0a.6.6,0,0,0-.63,0L2.62,153.47a1.49,1.49,0,0,0-.69,1.36l6.73,39.95a.52.52,0,0,0,.28.41h0l.79.45.14-.73h0l53.07-30.64A1.53,1.53,0,0,0,63.59,162.92Z"/><path class="cls-43" d="M2.92,154.55,2,154.17a1.13,1.13,0,0,0-.11.66l6.73,39.95a.52.52,0,0,0,.28.41h0l.79.45.14-.73h0l2.69-1.55Z"/><path class="cls-34" d="M63.73,164.76,10.34,195.59c-.42.23-.77.1-.84-.33L2.76,155.31a1.52,1.52,0,0,1,.7-1.36l53.39-30.83c.41-.23.77-.1.84.33l6.73,40A1.49,1.49,0,0,1,63.73,164.76Z"/><g class="cls-35"><polygon class="cls-36" points="56.15 125.67 4.68 155.39 11.07 193.02 62.5 163.32 56.15 125.67"/></g><path class="cls-44" d="M97.29,183.67l-2.91,1.53L65.16,168.33a2.12,2.12,0,0,0-1.91.07L12.86,197.5c-.48-.27-2.68-1.33-2.68-1.33L11.25,199h0a.62.62,0,0,0,.3.33l30.77,17.77a2.15,2.15,0,0,0,1.91-.08L95.8,187.19a.89.89,0,0,0,.43-.46h0Z"/><path class="cls-45" d="M96.84,184.15,44,214.67a2.17,2.17,0,0,1-2,.08L10.5,196.54c-.5-.29-.44-.8.14-1.13L63.49,164.9a2.16,2.16,0,0,1,2-.08L97,183C97.49,183.31,97.42,183.82,96.84,184.15Z"/><path class="cls-15" d="M96.84,183.85,44,214.36a2.14,2.14,0,0,1-2,.08L10.5,196.23a.63.63,0,0,1-.31-.34.54.54,0,0,0,.31.65L42,214.75a2.17,2.17,0,0,0,2-.08l52.85-30.52c.39-.22.54-.52.45-.78A.92.92,0,0,1,96.84,183.85Z"/><path class="cls-46" d="M28.05,208.07v-.58c0-.06,0-.08.07-.06l2.05,1.18a.17.17,0,0,1,.07.14v.58c0,.06,0,.08-.07.06l-2.05-1.18A.17.17,0,0,1,28.05,208.07Z"/><path class="cls-46" d="M31.11,209.83v-.58c0-.05,0-.08.07-.05l2,1.18a.16.16,0,0,1,.07.14v.58c0,.05,0,.08-.07.05l-2-1.18A.16.16,0,0,1,31.11,209.83Z"/><path class="cls-47" d="M18.72,194.83l43.92-25.35a1,1,0,0,1,1,0l15.64,9.05a.34.34,0,0,1,0,.58l-43.9,25.34a1,1,0,0,1-.95,0l-15.66-9A.35.35,0,0,1,18.72,194.83Z"/><path class="cls-48" d="M18.72,195.42l.16.09,43.76-25.27a1,1,0,0,1,1,0l15.48,9,.16-.09a.34.34,0,0,0,0-.58l-15.64-9.05a1,1,0,0,0-1,0L18.72,194.83A.35.35,0,0,0,18.72,195.42Z"/><polygon class="cls-34" points="64.77 171.77 26.62 193.79 24.92 192.81 63.07 170.79 64.77 171.77"/><polygon class="cls-34" points="68.93 174.17 33.14 194.83 31.45 193.85 67.23 173.19 68.93 174.17"/><polygon class="cls-34" points="71.64 175.73 29.5 200.06 27.81 199.08 69.94 174.75 71.64 175.73"/><polygon class="cls-34" points="74.34 177.3 32.21 201.62 30.52 200.64 72.65 176.32 74.34 177.3"/><polygon class="cls-34" points="77.05 178.86 34.92 203.19 33.22 202.21 75.36 177.88 77.05 178.86"/><polygon class="cls-34" points="24.31 195.13 22.61 196.1 20.92 195.13 22.61 194.15 24.31 195.13"/><polygon class="cls-34" points="30.3 196.47 26.77 198.51 25.08 197.53 28.6 195.49 30.3 196.47"/><path class="cls-49" d="M64.33,201l11.84-6.84c.47-.26.47-.7,0-1l-8.09-4.67a1.84,1.84,0,0,0-1.68,0l-11.84,6.84a.5.5,0,0,0,0,1l8.1,4.68A1.82,1.82,0,0,0,64.33,201Z"/><path class="cls-48" d="M54.56,195.72l11.84-6.83a1.84,1.84,0,0,1,1.68,0l8.09,4.67a.7.7,0,0,1,.3.29c.12-.24,0-.5-.3-.69l-8.09-4.67a1.84,1.84,0,0,0-1.68,0l-11.84,6.84c-.32.18-.42.44-.29.68A.67.67,0,0,1,54.56,195.72Z"/><g class="cls-50"><g class="cls-51"><path class="cls-52" d="M63.54,164.83,10.69,195.35a2.17,2.17,0,0,1-1.95.08L-22.8,177.22c-.5-.29-.44-.79.14-1.13l52.85-30.51a2.14,2.14,0,0,1,1.95-.08l31.54,18.21C64.18,164,64.12,164.5,63.54,164.83Z"/><path class="cls-53" d="M10.53,170.3l11.85-6.83a.51.51,0,0,0,0-1l-8.1-4.68a1.91,1.91,0,0,0-1.68,0L.76,164.66a.51.51,0,0,0,0,1l8.1,4.67A1.82,1.82,0,0,0,10.53,170.3Z"/><path class="cls-48" d="M.76,165.06l11.84-6.84a1.84,1.84,0,0,1,1.68,0l8.1,4.68a.78.78,0,0,1,.29.28c.12-.23,0-.5-.29-.68l-8.1-4.68a1.91,1.91,0,0,0-1.68,0L.76,164.66c-.32.19-.41.45-.29.68A.71.71,0,0,1,.76,165.06Z"/><path class="cls-47" d="M-4.45,181l43.92-25.36a1,1,0,0,1,1,0l15.64,9.05a.35.35,0,0,1,0,.59l-43.9,25.34a1,1,0,0,1-.95,0l-15.66-9A.34.34,0,0,1-4.45,181Z"/><path class="cls-48" d="M-4.45,181.57l.16.09L39.47,156.4a1,1,0,0,1,1,0l15.48,9,.16-.09a.35.35,0,0,0,0-.59l-15.64-9.05a1,1,0,0,0-1,0L-4.45,181A.34.34,0,0,0-4.45,181.57Z"/><polygon class="cls-34" points="51.97 164.06 13.7 186.16 15.22 187.03 53.48 164.94 51.97 164.06"/><polygon class="cls-34" points="47.94 161.74 11.57 182.73 13.08 183.61 49.45 162.61 47.94 161.74"/><polygon class="cls-34" points="8.85 184.3 5.46 186.26 6.97 187.14 10.37 185.18 8.85 184.3"/><polygon class="cls-34" points="11.85 187.22 9.49 188.59 11 189.47 13.37 188.1 11.85 187.22"/><polygon class="cls-34" points="45.41 160.28 2.93 184.8 4.45 185.68 46.92 161.15 45.41 160.28"/><polygon class="cls-34" points="42.88 158.82 0.4 183.34 1.92 184.22 44.4 159.69 42.88 158.82"/><polygon class="cls-34" points="40.36 157.36 -2.12 181.89 -0.61 182.76 41.87 158.24 40.36 157.36"/></g></g><polygon class="cls-37" points="24.07 178.67 28.23 176.26 28.35 176.99 24.19 179.39 24.07 178.67"/><polygon class="cls-37" points="28.9 175.88 31.17 174.57 31.29 175.29 29.02 176.6 28.9 175.88"/><polygon class="cls-37" points="34.7 172.53 36.34 171.58 36.46 172.3 34.82 173.25 34.7 172.53"/><polygon class="cls-37" points="33.5 173.22 34.06 172.9 34.18 173.62 33.62 173.94 33.5 173.22"/><polygon class="cls-37" points="31.85 174.18 32.87 173.59 32.99 174.31 31.97 174.9 31.85 174.18"/><polygon class="cls-37" points="27.36 173.14 29 172.19 29.12 172.91 27.48 173.86 27.36 173.14"/><polygon class="cls-37" points="23.51 175.37 26.72 173.51 26.85 174.23 23.63 176.09 23.51 175.37"/><polygon class="cls-37" points="28.12 163.65 31.34 161.79 31.46 162.51 28.24 164.37 28.12 163.65"/><polygon class="cls-37" points="26.46 164.6 27.48 164.01 27.61 164.74 26.59 165.33 26.46 164.6"/><polygon class="cls-37" points="28.66 166.96 31.87 165.1 31.99 165.82 28.78 167.68 28.66 166.96"/><polygon class="cls-37" points="27 167.91 28.02 167.32 28.14 168.05 27.12 168.63 27 167.91"/><polygon class="cls-37" points="25.75 149.37 19.68 152.87 19.56 152.15 25.62 148.65 25.75 149.37"/><polygon class="cls-37" points="27.88 148.14 26.38 149 26.26 148.28 27.76 147.41 27.88 148.14"/><polygon class="cls-37" points="38.53 147.44 32.47 150.94 32.35 150.21 38.41 146.71 38.53 147.44"/><polygon class="cls-37" points="40.66 146.2 39.16 147.07 39.04 146.34 40.54 145.48 40.66 146.2"/><polygon class="cls-37" points="21.61 153.58 19.96 154.53 19.84 153.8 21.48 152.85 21.61 153.58"/><polygon class="cls-37" points="31.59 151.44 29.95 152.38 29.83 151.66 31.47 150.71 31.59 151.44"/><polygon class="cls-37" points="25.46 151.35 22.24 153.21 22.12 152.49 25.34 150.63 25.46 151.35"/><polygon class="cls-37" points="27.11 150.39 26.09 150.98 25.97 150.26 26.99 149.67 27.11 150.39"/><polygon class="cls-37" points="31 148.15 27.78 150.01 27.66 149.29 30.87 147.43 31 148.15"/><polygon class="cls-37" points="32.65 147.2 31.63 147.79 31.51 147.06 32.53 146.47 32.65 147.2"/><polygon class="cls-37" points="31.32 149.78 29.67 150.73 29.55 150.01 31.19 149.06 31.32 149.78"/><polygon class="cls-37" points="35.17 147.56 31.95 149.41 31.83 148.69 35.05 146.83 35.17 147.56"/><polygon class="cls-37" points="36.82 146.6 35.8 147.19 35.68 146.47 36.7 145.88 36.82 146.6"/><polygon class="cls-37" points="23.6 154.24 20.24 156.18 20.12 155.45 23.48 153.51 23.6 154.24"/><polygon class="cls-37" points="26.67 152.47 24.24 153.87 24.12 153.15 26.55 151.74 26.67 152.47"/><polygon class="cls-37" points="28.95 151.15 27.3 152.1 27.18 151.37 28.82 150.43 28.95 151.15"/><polygon class="cls-37" points="44.87 143.78 41.51 145.72 41.38 145 44.74 143.06 44.87 143.78"/><polygon class="cls-37" points="47.93 142.01 45.5 143.41 45.38 142.69 47.81 141.28 47.93 142.01"/><polygon class="cls-37" points="50.21 140.69 48.57 141.64 48.45 140.92 50.09 139.97 50.21 140.69"/><polygon class="cls-37" points="43.55 165.6 46.91 163.66 47.03 164.39 43.68 166.33 43.55 165.6"/><polygon class="cls-37" points="40.49 167.38 42.92 165.97 43.04 166.69 40.61 168.1 40.49 167.38"/><polygon class="cls-37" points="38.21 168.69 39.85 167.74 39.98 168.47 38.33 169.41 38.21 168.69"/><polygon class="cls-37" points="42.44 168.07 45.8 166.13 45.92 166.85 42.56 168.79 42.44 168.07"/><polygon class="cls-37" points="39.37 169.84 41.8 168.44 41.92 169.16 39.5 170.56 39.37 169.84"/><polygon class="cls-37" points="37.1 171.16 38.74 170.21 38.86 170.93 37.22 171.88 37.1 171.16"/><polygon class="cls-37" points="28.88 165.01 30.01 164.36 30.13 165.08 29 165.74 28.88 165.01"/><polygon class="cls-37" points="26.74 166.25 28.24 165.38 28.36 166.1 26.86 166.97 26.74 166.25"/><polygon class="cls-37" points="23.9 155.88 20.54 157.82 20.42 157.1 23.78 155.16 23.9 155.88"/><polygon class="cls-37" points="26.97 154.11 24.54 155.51 24.42 154.79 26.85 153.38 26.97 154.11"/><polygon class="cls-37" points="29.25 152.79 27.6 153.74 27.48 153.02 29.12 152.07 29.25 152.79"/><polygon class="cls-37" points="21.96 158.81 20.82 159.47 20.7 158.75 21.84 158.09 21.96 158.81"/><polygon class="cls-37" points="24.09 157.58 22.59 158.45 22.47 157.72 23.97 156.86 24.09 157.58"/><polygon class="cls-37" points="27.14 155.82 24.73 157.21 24.61 156.49 27.02 155.09 27.14 155.82"/><polygon class="cls-37" points="30.42 169.57 31.55 168.91 31.68 169.63 30.54 170.29 30.42 169.57"/><polygon class="cls-37" points="28.29 170.8 29.78 169.94 29.91 170.66 28.41 171.53 28.29 170.8"/><polygon class="cls-37" points="25.23 172.57 27.65 171.17 27.77 171.89 25.36 173.29 25.23 172.57"/><polygon class="cls-37" points="32.15 166.89 34.56 165.49 34.69 166.21 32.27 167.61 32.15 166.89"/><polygon class="cls-37" points="28.2 169.04 31.45 167.16 31.57 167.88 28.32 169.76 28.2 169.04"/><polygon class="cls-37" points="26.54 170 27.56 169.41 27.68 170.13 26.66 170.72 26.54 170"/><polygon class="cls-37" points="24.95 170.91 25.97 170.33 26.09 171.05 25.08 171.64 24.95 170.91"/><polygon class="cls-37" points="25.17 161.58 28.39 159.72 28.51 160.44 25.3 162.3 25.17 161.58"/><polygon class="cls-37" points="23.52 162.54 24.54 161.95 24.66 162.67 23.64 163.26 23.52 162.54"/><polygon class="cls-37" points="25.39 159.64 26.53 158.98 26.65 159.71 25.52 160.36 25.39 159.64"/><polygon class="cls-37" points="29.4 160.96 30.53 160.31 30.66 161.03 29.52 161.69 29.4 160.96"/><polygon class="cls-37" points="31.02 160.03 33.74 158.46 33.86 159.18 31.14 160.75 31.02 160.03"/><polygon class="cls-37" points="34.22 158.18 35.84 157.24 35.96 157.97 34.34 158.9 34.22 158.18"/><polygon class="cls-37" points="23.26 160.87 24.76 160.01 24.88 160.73 23.38 161.6 23.26 160.87"/><polygon class="cls-37" points="23.12 159.18 24.25 158.52 24.37 159.24 23.24 159.9 23.12 159.18"/><polygon class="cls-37" points="20.98 160.41 22.48 159.54 22.6 160.27 21.1 161.13 20.98 160.41"/><polygon class="cls-37" points="27.75 161.91 28.77 161.32 28.89 162.05 27.88 162.64 27.75 161.91"/><polygon class="cls-37" points="26.16 162.83 27.18 162.24 27.3 162.97 26.29 163.55 26.16 162.83"/><polygon class="cls-37" points="33.99 171.13 37.47 169.12 37.59 169.85 34.11 171.85 33.99 171.13"/><polygon class="cls-37" points="30.1 173.38 33.35 171.5 33.48 172.22 30.22 174.1 30.1 173.38"/><polygon class="cls-37" points="28.44 174.34 29.46 173.75 29.58 174.47 28.57 175.06 28.44 174.34"/><polygon class="cls-37" points="26.85 175.26 27.87 174.67 28 175.39 26.98 175.98 26.85 175.26"/><polygon class="cls-37" points="25.99 175.76 23.79 177.03 23.91 177.75 26.11 176.48 25.99 175.76"/><path class="cls-3" d="M356.94,222.19a4.82,4.82,0,0,1-2.4-.64l-48-27.69a1.36,1.36,0,0,1-.69-1.19,1.38,1.38,0,0,1,.69-1.2l30.17-17.41.13.07,50.23,29a1.38,1.38,0,0,1,.69,1.2,1.36,1.36,0,0,1-.69,1.19l-27.76,16A4.83,4.83,0,0,1,356.94,222.19Zm-2.14-1.1a4.35,4.35,0,0,0,4.28,0l27.76-16a.82.82,0,0,0,.43-.73.84.84,0,0,0-.43-.74l-50.09-28.92-.11.06-29.79,17.2a.84.84,0,0,0-.43.74.82.82,0,0,0,.43.73Z"/><path class="cls-54" d="M336.68,162.92l6.68-39.64-.53-.22.8-.46h0a.6.6,0,0,1,.63,0l53.39,30.83a1.49,1.49,0,0,1,.69,1.36l-6.73,39.95a.52.52,0,0,1-.28.41h0l-.79.45-.14-.73h.05l-53.07-30.64A1.53,1.53,0,0,1,336.68,162.92Z"/><path class="cls-55" d="M397.35,154.55l.88-.38a1.13,1.13,0,0,1,.11.66l-6.73,39.95a.52.52,0,0,1-.28.41h0l-.79.45-.14-.73h.05l-2.69-1.55Z"/><path class="cls-34" d="M336.54,164.76l53.39,30.83c.42.23.77.1.84-.33l6.74-39.95a1.52,1.52,0,0,0-.7-1.36l-53.39-30.83c-.41-.23-.77-.1-.84.33l-6.73,40A1.49,1.49,0,0,0,336.54,164.76Z"/><g class="cls-35"><polygon class="cls-36" points="344.12 125.67 395.58 155.39 389.2 193.02 337.77 163.32 344.12 125.67"/></g><path class="cls-56" d="M303,183.67l2.91,1.53,29.22-16.87a2.12,2.12,0,0,1,1.91.07l50.39,29.1c.48-.27,2.68-1.33,2.68-1.33L389,199h0a.62.62,0,0,1-.3.33L358,217.05A2.15,2.15,0,0,1,356,217l-51.57-29.78a.89.89,0,0,1-.43-.46h0Z"/><path class="cls-57" d="M303.43,184.15l52.85,30.52a2.17,2.17,0,0,0,2,.08l31.54-18.21c.5-.29.44-.8-.14-1.13L336.78,164.9a2.16,2.16,0,0,0-2-.08L303.29,183C302.78,183.31,302.85,183.82,303.43,184.15Z"/><path class="cls-15" d="M303.43,183.85l52.85,30.51a2.14,2.14,0,0,0,2,.08l31.54-18.21a.63.63,0,0,0,.31-.34.54.54,0,0,1-.31.65l-31.54,18.21a2.17,2.17,0,0,1-2-.08l-52.85-30.52c-.39-.22-.54-.52-.45-.78A.92.92,0,0,0,303.43,183.85Z"/><path class="cls-46" d="M372.22,208.07v-.58c0-.06,0-.08-.08-.06l-2,1.18a.17.17,0,0,0-.07.14v.58c0,.06,0,.08.07.06l2-1.18A.16.16,0,0,0,372.22,208.07Z"/><path class="cls-46" d="M369.16,209.83v-.58c0-.05,0-.08-.07-.05l-2,1.18a.16.16,0,0,0-.07.14v.58c0,.05,0,.08.07.05l2-1.18A.16.16,0,0,0,369.16,209.83Z"/><path class="cls-47" d="M381.55,194.83l-43.92-25.35a1,1,0,0,0-.95,0L321,178.53a.34.34,0,0,0,0,.58l43.9,25.34a1,1,0,0,0,.95,0l15.66-9A.35.35,0,0,0,381.55,194.83Z"/><path class="cls-48" d="M381.55,195.42l-.16.09-43.76-25.27a1,1,0,0,0-.95,0l-15.48,9-.16-.09a.34.34,0,0,1,0-.58l15.64-9.05a1,1,0,0,1,.95,0l43.92,25.35A.35.35,0,0,1,381.55,195.42Z"/><polygon class="cls-34" points="335.5 171.77 373.65 193.79 375.35 192.81 337.2 170.79 335.5 171.77"/><polygon class="cls-34" points="331.34 174.17 367.13 194.83 368.82 193.85 333.04 173.19 331.34 174.17"/><polygon class="cls-34" points="328.63 175.73 370.77 200.06 372.46 199.08 330.33 174.75 328.63 175.73"/><polygon class="cls-34" points="325.93 177.3 368.06 201.62 369.75 200.64 327.62 176.32 325.93 177.3"/><polygon class="cls-34" points="323.22 178.86 365.35 203.19 367.05 202.21 324.91 177.88 323.22 178.86"/><polygon class="cls-34" points="375.96 195.13 377.65 196.1 379.35 195.13 377.65 194.15 375.96 195.13"/><polygon class="cls-34" points="369.98 196.47 373.5 198.51 375.19 197.53 371.67 195.49 369.98 196.47"/><path class="cls-58" d="M335.94,201l-11.84-6.84c-.47-.26-.47-.7,0-1l8.09-4.67a1.84,1.84,0,0,1,1.68,0l11.84,6.84a.51.51,0,0,1,0,1l-8.1,4.68A1.82,1.82,0,0,1,335.94,201Z"/><path class="cls-48" d="M345.71,195.72l-11.84-6.83a1.84,1.84,0,0,0-1.68,0l-8.09,4.67a.7.7,0,0,0-.3.29c-.12-.24,0-.5.3-.69l8.09-4.67a1.84,1.84,0,0,1,1.68,0l11.84,6.84c.32.18.42.44.29.68A.73.73,0,0,0,345.71,195.72Z"/><g class="cls-50"><g class="cls-59"><path class="cls-60" d="M336.73,164.83l52.85,30.52a2.17,2.17,0,0,0,1.95.08l31.54-18.21c.5-.29.44-.79-.14-1.13l-52.85-30.51a2.14,2.14,0,0,0-1.95-.08l-31.54,18.21C336.09,164,336.15,164.5,336.73,164.83Z"/><path class="cls-61" d="M389.74,170.3l-11.85-6.83a.51.51,0,0,1,0-1l8.1-4.68a1.91,1.91,0,0,1,1.68,0l11.84,6.84a.51.51,0,0,1,0,1l-8.1,4.67A1.82,1.82,0,0,1,389.74,170.3Z"/><path class="cls-48" d="M399.51,165.06l-11.84-6.84a1.84,1.84,0,0,0-1.68,0l-8.1,4.68a.78.78,0,0,0-.29.28c-.12-.23,0-.5.29-.68l8.1-4.68a1.91,1.91,0,0,1,1.68,0l11.84,6.84c.32.19.41.45.29.68A.71.71,0,0,0,399.51,165.06Z"/><path class="cls-47" d="M404.72,181,360.8,155.63a1,1,0,0,0-.95,0l-15.64,9.05a.35.35,0,0,0,0,.59l43.9,25.34a1,1,0,0,0,.95,0l15.66-9A.34.34,0,0,0,404.72,181Z"/><path class="cls-48" d="M404.72,181.57l-.16.09L360.8,156.4a1,1,0,0,0-.95,0l-15.48,9-.16-.09a.35.35,0,0,1,0-.59l15.64-9.05a1,1,0,0,1,.95,0L404.72,181A.34.34,0,0,1,404.72,181.57Z"/><polygon class="cls-34" points="348.3 164.06 386.56 186.16 385.05 187.03 346.79 164.94 348.3 164.06"/><polygon class="cls-34" points="352.33 161.74 388.7 182.73 387.19 183.61 350.82 162.61 352.33 161.74"/><polygon class="cls-34" points="391.42 184.3 394.81 186.26 393.3 187.14 389.9 185.18 391.42 184.3"/><polygon class="cls-34" points="388.42 187.22 390.78 188.59 389.27 189.47 386.9 188.1 388.42 187.22"/><polygon class="cls-34" points="354.86 160.28 397.34 184.8 395.82 185.68 353.35 161.15 354.86 160.28"/><polygon class="cls-34" points="357.39 158.82 399.87 183.34 398.35 184.22 355.87 159.69 357.39 158.82"/><polygon class="cls-34" points="359.91 157.36 402.39 181.89 400.88 182.76 358.4 158.24 359.91 157.36"/></g></g><polygon class="cls-37" points="355.45 139.81 359.61 142.21 359.73 141.49 355.57 139.08 355.45 139.81"/><polygon class="cls-37" points="360.28 142.6 362.55 143.91 362.67 143.19 360.4 141.88 360.28 142.6"/><polygon class="cls-37" points="366.08 145.95 367.72 146.9 367.84 146.17 366.2 145.22 366.08 145.95"/><polygon class="cls-37" points="364.88 145.25 365.44 145.58 365.56 144.86 365 144.53 364.88 145.25"/><polygon class="cls-37" points="363.23 144.3 364.25 144.89 364.37 144.16 363.35 143.58 363.23 144.3"/><polygon class="cls-37" points="358.74 145.34 360.38 146.29 360.5 145.56 358.86 144.62 358.74 145.34"/><polygon class="cls-37" points="354.89 143.11 358.11 144.97 358.23 144.25 355.01 142.39 354.89 143.11"/><polygon class="cls-37" points="359.5 154.83 362.72 156.69 362.84 155.97 359.62 154.11 359.5 154.83"/><polygon class="cls-37" points="357.85 153.87 358.86 154.46 358.99 153.74 357.97 153.15 357.85 153.87"/><polygon class="cls-37" points="360.04 151.52 363.25 153.38 363.38 152.66 360.16 150.8 360.04 151.52"/><polygon class="cls-37" points="358.38 150.56 359.4 151.15 359.52 150.43 358.5 149.84 358.38 150.56"/><polygon class="cls-37" points="357.13 169.1 351.07 165.6 350.94 166.33 357 169.83 357.13 169.1"/><polygon class="cls-37" points="359.26 170.34 357.76 169.47 357.64 170.2 359.14 171.06 359.26 170.34"/><polygon class="cls-37" points="369.91 171.04 363.85 167.54 363.73 168.26 369.79 171.76 369.91 171.04"/><polygon class="cls-37" points="372.05 172.28 370.55 171.41 370.42 172.13 371.92 173 372.05 172.28"/><polygon class="cls-37" points="352.99 164.9 351.35 163.95 351.22 164.67 352.87 165.62 352.99 164.9"/><polygon class="cls-37" points="362.98 167.04 361.33 166.09 361.21 166.82 362.85 167.77 362.98 167.04"/><polygon class="cls-37" points="356.84 167.13 353.62 165.27 353.5 165.99 356.72 167.85 356.84 167.13"/><polygon class="cls-37" points="358.5 168.08 357.48 167.5 357.35 168.22 358.37 168.81 358.5 168.08"/><polygon class="cls-37" points="362.38 170.32 359.16 168.46 359.04 169.19 362.25 171.05 362.38 170.32"/><polygon class="cls-37" points="364.03 171.28 363.01 170.69 362.89 171.41 363.91 172 364.03 171.28"/><polygon class="cls-37" points="362.7 168.69 361.05 167.75 360.93 168.47 362.57 169.42 362.7 168.69"/><polygon class="cls-37" points="366.55 170.92 363.33 169.06 363.21 169.79 366.43 171.65 366.55 170.92"/><polygon class="cls-37" points="368.2 171.88 367.19 171.29 367.06 172.01 368.08 172.6 368.2 171.88"/><polygon class="cls-37" points="354.98 164.24 351.63 162.3 351.5 163.02 354.86 164.96 354.98 164.24"/><polygon class="cls-37" points="358.05 166.01 355.62 164.61 355.5 165.33 357.93 166.74 358.05 166.01"/><polygon class="cls-37" points="360.33 167.33 358.69 166.38 358.56 167.1 360.2 168.05 360.33 167.33"/><polygon class="cls-37" points="376.25 174.7 372.89 172.76 372.77 173.48 376.13 175.42 376.25 174.7"/><polygon class="cls-37" points="379.31 176.47 376.88 175.07 376.76 175.79 379.19 177.19 379.31 176.47"/><polygon class="cls-37" points="381.59 177.79 379.95 176.84 379.83 177.56 381.47 178.51 381.59 177.79"/><polygon class="cls-37" points="374.94 152.87 378.29 154.81 378.42 154.09 375.06 152.15 374.94 152.87"/><polygon class="cls-37" points="371.87 151.1 374.3 152.5 374.42 151.78 371.99 150.38 371.87 151.1"/><polygon class="cls-37" points="369.59 149.78 371.23 150.73 371.36 150.01 369.71 149.06 369.59 149.78"/><polygon class="cls-37" points="373.82 150.41 377.18 152.35 377.3 151.63 373.94 149.69 373.82 150.41"/><polygon class="cls-37" points="370.75 148.64 373.18 150.04 373.31 149.32 370.88 147.91 370.75 148.64"/><polygon class="cls-37" points="368.48 147.32 370.12 148.27 370.24 147.55 368.6 146.6 368.48 147.32"/><polygon class="cls-37" points="360.26 153.46 361.39 154.12 361.51 153.4 360.38 152.74 360.26 153.46"/><polygon class="cls-37" points="358.12 152.23 359.62 153.1 359.74 152.37 358.25 151.51 358.12 152.23"/><polygon class="cls-37" points="355.28 162.6 351.93 160.66 351.8 161.38 355.16 163.32 355.28 162.6"/><polygon class="cls-37" points="358.35 164.37 355.92 162.97 355.8 163.69 358.23 165.09 358.35 164.37"/><polygon class="cls-37" points="360.63 165.69 358.99 164.74 358.86 165.46 360.5 166.41 360.63 165.69"/><polygon class="cls-37" points="353.34 159.66 352.2 159.01 352.08 159.73 353.22 160.38 353.34 159.66"/><polygon class="cls-37" points="355.47 160.9 353.98 160.03 353.85 160.75 355.35 161.62 355.47 160.9"/><polygon class="cls-37" points="358.53 162.66 356.11 161.26 355.99 161.99 358.4 163.38 358.53 162.66"/><polygon class="cls-37" points="361.8 148.91 362.94 149.56 363.06 148.84 361.92 148.19 361.8 148.91"/><polygon class="cls-37" points="359.67 147.68 361.17 148.54 361.29 147.82 359.79 146.95 359.67 147.68"/><polygon class="cls-37" points="356.62 145.91 359.03 147.31 359.15 146.59 356.74 145.19 356.62 145.91"/><polygon class="cls-37" points="363.53 151.59 365.94 152.99 366.07 152.26 363.65 150.87 363.53 151.59"/><polygon class="cls-37" points="359.58 149.44 362.83 151.32 362.96 150.6 359.7 148.71 359.58 149.44"/><polygon class="cls-37" points="357.92 148.48 358.94 149.07 359.06 148.35 358.05 147.76 357.92 148.48"/><polygon class="cls-37" points="356.34 147.56 357.35 148.15 357.48 147.43 356.46 146.84 356.34 147.56"/><polygon class="cls-37" points="356.55 156.9 359.77 158.75 359.89 158.03 356.68 156.17 356.55 156.9"/><polygon class="cls-37" points="354.9 155.94 355.92 156.53 356.04 155.81 355.02 155.22 354.9 155.94"/><polygon class="cls-37" points="356.77 158.84 357.91 159.49 358.03 158.77 356.9 158.12 356.77 158.84"/><polygon class="cls-37" points="360.78 157.51 361.92 158.17 362.04 157.45 360.9 156.79 360.78 157.51"/><polygon class="cls-37" points="362.4 158.45 365.12 160.02 365.24 159.3 362.52 157.72 362.4 158.45"/><polygon class="cls-37" points="365.6 160.3 367.22 161.23 367.34 160.51 365.73 159.58 365.6 160.3"/><polygon class="cls-37" points="354.64 157.6 356.14 158.47 356.26 157.75 354.76 156.88 354.64 157.6"/><polygon class="cls-37" points="354.5 159.3 355.63 159.96 355.75 159.23 354.62 158.58 354.5 159.3"/><polygon class="cls-37" points="352.36 158.07 353.86 158.93 353.98 158.21 352.49 157.34 352.36 158.07"/><polygon class="cls-37" points="359.13 156.56 360.15 157.15 360.27 156.43 359.26 155.84 359.13 156.56"/><polygon class="cls-37" points="357.55 155.65 358.56 156.24 358.69 155.51 357.67 154.92 357.55 155.65"/><polygon class="cls-37" points="365.37 147.34 368.85 149.35 368.97 148.63 365.49 146.62 365.37 147.34"/><polygon class="cls-37" points="361.48 145.1 364.74 146.98 364.86 146.25 361.6 144.37 361.48 145.1"/><polygon class="cls-37" points="359.82 144.14 360.84 144.73 360.96 144 359.95 143.42 359.82 144.14"/><polygon class="cls-37" points="358.24 143.22 359.25 143.81 359.38 143.09 358.36 142.5 358.24 143.22"/><polygon class="cls-37" points="357.37 142.72 355.17 141.45 355.29 140.73 357.49 142 357.37 142.72"/><path class="cls-3" d="M132.52,257.38a4,4,0,0,1-2-.54l-59.9-34.58a1.28,1.28,0,0,1-.64-1.11,1.26,1.26,0,0,1,.64-1.11l52.64-30.4.27.46L70.87,220.5a.74.74,0,0,0-.37.65.76.76,0,0,0,.37.65l59.9,34.58a3.53,3.53,0,0,0,3.5,0l31-17.92.26.46-31,17.92A4,4,0,0,1,132.52,257.38Z"/><circle class="cls-62" cx="100.85" cy="239.33" r="7.58" transform="translate(-85.9 58.84) rotate(-23.13)"/><path class="cls-63" d="M102.63,238.29a2.06,2.06,0,1,0-.74,2.82A2.07,2.07,0,0,0,102.63,238.29Z"/><circle class="cls-64" cx="154.66" cy="244.58" r="7.58" transform="translate(-83.64 80.4) rotate(-23.13)"/><path class="cls-65" d="M156.44,243.54a2.06,2.06,0,1,0-.74,2.82A2.05,2.05,0,0,0,156.44,243.54Z"/><circle class="cls-66" cx="246.97" cy="243.98" r="7.58" transform="translate(-75.98 116.61) rotate(-23.13)"/><path class="cls-67" d="M248.75,242.94a2.06,2.06,0,1,0-.74,2.82A2.06,2.06,0,0,0,248.75,242.94Z"/><path class="cls-68" d="M263.43,246a7.58,7.58,0,1,0-2.71,10.37A7.56,7.56,0,0,0,263.43,246Z"/><circle class="cls-69" cx="256.89" cy="249.79" r="2.06"/><circle class="cls-70" cx="310.98" cy="234.12" r="7.58" transform="translate(-71.23 160.37) rotate(-26.05)"/><path class="cls-71" d="M312.76,233.08a2.06,2.06,0,1,0-.74,2.82A2.07,2.07,0,0,0,312.76,233.08Z"/><path class="cls-72" d="M330.29,211.57a7.58,7.58,0,1,0-2.72,10.37A7.59,7.59,0,0,0,330.29,211.57Z"/><path class="cls-73" d="M325.53,214.36a2.06,2.06,0,1,0-.74,2.81A2.05,2.05,0,0,0,325.53,214.36Z"/><path class="cls-74" d="M318.62,204.69a7.58,7.58,0,1,0-2.72,10.36A7.58,7.58,0,0,0,318.62,204.69Z"/><path class="cls-75" d="M313.86,207.47a2.06,2.06,0,1,0-.74,2.82A2.07,2.07,0,0,0,313.86,207.47Z"/><path class="cls-76" d="M307,198.28a7.58,7.58,0,1,0-2.72,10.37A7.59,7.59,0,0,0,307,198.28Z"/><path class="cls-77" d="M302.18,201.07a2.06,2.06,0,1,0-.73,2.81A2,2,0,0,0,302.18,201.07Z"/><path class="cls-78" d="M98,230a7.58,7.58,0,1,0-2.72,10.36A7.58,7.58,0,0,0,98,230Z"/><circle class="cls-79" cx="91.42" cy="233.84" r="2.06"/><circle class="cls-80" cx="81.99" cy="228.35" r="7.58" transform="translate(-159.69 249.76) rotate(-75.31)"/><path class="cls-81" d="M83.77,227.31a2.06,2.06,0,1,0-.74,2.82A2.07,2.07,0,0,0,83.77,227.31Z"/><path class="cls-82" d="M111.45,196.23a7.58,7.58,0,1,0-2.72,10.37A7.58,7.58,0,0,0,111.45,196.23Z"/><path class="cls-83" d="M106.68,199a2.06,2.06,0,1,0-.74,2.82A2.06,2.06,0,0,0,106.68,199Z"/><path class="cls-84" d="M121.52,190.94a7.58,7.58,0,1,0-2.72,10.36A7.58,7.58,0,0,0,121.52,190.94Z"/><path class="cls-85" d="M116.76,193.72a2.06,2.06,0,1,0-.74,2.82A2.07,2.07,0,0,0,116.76,193.72Z"/></g></g></svg>