<svg id="Layer_1" data-name="Layer 1" xmlns="http://www.w3.org/2000/svg" xmlns:xlink="http://www.w3.org/1999/xlink" viewBox="0 0 1199 1192"><defs><linearGradient id="linear-gradient" x1="599.87" y1="1701.44" x2="599.87" y2="782.15" gradientUnits="userSpaceOnUse"><stop offset="0" stop-color="#d1d7e0"/><stop offset="1" stop-color="#fff"/></linearGradient><linearGradient id="linear-gradient-2" x1="1106.65" y1="513.31" x2="154.46" y2="842.33" gradientUnits="userSpaceOnUse"><stop offset="0" stop-color="#d1d7e0"/><stop offset="1" stop-color="#ebeaf6"/></linearGradient><linearGradient id="linear-gradient-3" x1="662.21" y1="756.24" x2="645.13" y2="446.76" xlink:href="#linear-gradient-2"/><linearGradient id="linear-gradient-4" x1="946.22" y1="848.41" x2="946.22" y2="524.72" xlink:href="#linear-gradient-2"/><linearGradient id="linear-gradient-5" x1="861.09" y1="448.42" x2="861.09" y2="315.09" xlink:href="#linear-gradient-2"/><linearGradient id="linear-gradient-6" x1="953.3" y1="372.38" x2="133.57" y2="655.63" xlink:href="#linear-gradient-2"/><linearGradient id="linear-gradient-7" x1="1036.29" y1="397.53" x2="1052.87" y2="397.53" xlink:href="#linear-gradient-2"/><linearGradient id="linear-gradient-8" x1="1030.35" y1="397.53" x2="1037.26" y2="397.53" xlink:href="#linear-gradient-2"/><linearGradient id="linear-gradient-9" x1="988.67" y1="389.95" x2="1041.78" y2="389.95" xlink:href="#linear-gradient-2"/><linearGradient id="linear-gradient-10" x1="743.7" y1="227.67" x2="765.48" y2="227.67" xlink:href="#linear-gradient-2"/><linearGradient id="linear-gradient-11" x1="743.7" y1="243.41" x2="765.48" y2="243.41" xlink:href="#linear-gradient-2"/><linearGradient id="linear-gradient-12" x1="743.7" y1="259.15" x2="765.48" y2="259.15" xlink:href="#linear-gradient-2"/><linearGradient id="linear-gradient-13" x1="774.47" y1="227.67" x2="780.67" y2="227.67" xlink:href="#linear-gradient-2"/><linearGradient id="linear-gradient-14" x1="774.47" y1="243.41" x2="780.67" y2="243.41" xlink:href="#linear-gradient-2"/><linearGradient id="linear-gradient-15" x1="774.47" y1="259.15" x2="780.67" y2="259.15" xlink:href="#linear-gradient-2"/></defs><rect x="4.87" y="842.53" width="1190" height="349.47" style="opacity:0.9500000000000001;fill:url(#linear-gradient)"/><g style="opacity:0.9500000000000001"><path d="M986.19,995.34h13.17a424.15,424.15,0,0,0,195.51-205.1v-14.6A419.2,419.2,0,0,1,986.19,995.34Zm121.5-675.82a422.36,422.36,0,1,0-489,675.82H631.9C490.45,928.65,392.32,784.66,392.32,618.18c0-229.78,187-416.72,416.72-416.72,174.1,0,323.6,107.31,385.83,259.26v-14.6A420.72,420.72,0,0,0,1107.69,319.52Z" style="fill:url(#linear-gradient-2)"/></g><rect x="535.52" y="362.12" width="222.14" height="222.14" rx="58.67" style="opacity:0.9500000000000001;fill:url(#linear-gradient-3)"/><rect x="595.17" y="533.68" width="102.85" height="5.08" style="fill:#97bfe6"/><rect x="609.73" y="549.69" width="73.71" height="5.08" style="fill:#97bfe6"/><rect x="794.21" y="439.16" width="304.03" height="356.86" rx="69.11" style="opacity:0.9500000000000001;fill:url(#linear-gradient-4)"/><rect x="932.06" y="649.68" width="24.11" height="4.47" style="fill:#5094d0"/><rect x="840.51" y="690.61" width="140.31" height="8.65" style="fill:#97bfe6"/><rect x="840.51" y="732.12" width="113.46" height="8.65" style="fill:#97bfe6"/><rect x="840.51" y="711.36" width="66.52" height="8.65" style="fill:#97bfe6"/><path d="M1017.53,474.75v4.36h25.71v24.14h4.37v-28.5Zm-174.6,28.5h4.36V479.11H873v-4.36H842.93Zm200.31,124.51V651.9h-25.71v4.37h30.08V627.76Zm-196,0h-4.36v28.51H873V651.9H847.29Z" style="fill:#5094d0"/><path d="M1034,741.4a25.72,25.72,0,1,1,25.71-25.71A25.75,25.75,0,0,1,1034,741.4Zm0-46.45a20.74,20.74,0,1,0,20.73,20.74A20.76,20.76,0,0,0,1034,695Z" style="fill:#5094d0"/><polygon points="1032.36 725.81 1020.67 714.12 1024.19 710.61 1032.36 718.77 1043.8 707.33 1047.32 710.84 1032.36 725.81" style="fill:#5094d0"/><rect x="779.48" y="279.85" width="163.21" height="146.99" rx="48.23" style="opacity:0.9500000000000001;fill:url(#linear-gradient-5)"/><rect x="854" y="399.04" width="12.94" height="2.4" style="fill:#5094d0"/><path d="M869.11,307.91s7.7,4.23,5.25,14.63-3.37,11.77-1.39,16,3.74,21.81,1.62,25-23.6-15.71-26-30.85,3-21.58,4.89-24S862.31,304.05,869.11,307.91Z" style="fill:#354153"/><path d="M883.56,393.85h-8.24c-.4-4.06-.77-6.89-.69-7.31.12-.69-8.21-22.53-9-24.34s-3.84-6.64-4.24-11.2,5.55-6.41,5.55-6.41c8,1.44,10.75,12.55,10.75,12.55s3.37,22.52,5.07,28.85A39.89,39.89,0,0,1,883.56,393.85Z" style="fill:#eea886"/><path d="M879.41,362.56l-12.27,5.18s-11.29-28-1.83-24.88S879,351.84,879.41,362.56Z" style="fill:#3581b6"/><path d="M876.68,375.75c-.36,2.78-1.82,12.62-1.5,15.28.06.44.24,1.45.51,2.82h-29.6c.79-2.81,1.5-5.29,1.94-6.74,1.44-4.77.06-6.05-.67-9.86-.28-1.49-1.28-4.33-2.36-7.53-.36-1.07-.74-2.19-1.1-3.31a69.17,69.17,0,0,1-2.28-10.57c-1.78-11.38,7-12.48,7-12.48,3.25-.6,8.94-2.36,8.94-2.36l8.9,1.86a9.31,9.31,0,0,1,2.09,1.23h0a16.9,16.9,0,0,1,2,1.76,54.23,54.23,0,0,1,4.84,7c.59,1,1.19,1.95,1.75,2.93,1.81,3.13,3.09,5.66,3,8.51S877,373,876.68,375.75Z" style="fill:#3581b6"/><path d="M866.44,342.86S872,352.4,870,353.11s-13-1.7-17.28-10.71C852.67,342.4,859.84,339.14,866.44,342.86Z" style="fill:#eea886"/><path d="M865.65,347.21s-5,2.1-9.45-4.8c0,0,1.21-7.84-1.34-12.38S866,335.47,866,335.47s-.22.93-.45,2.31c-.12.71-.24,1.53-.33,2.4s-.14,1.49-.16,2.25A12.18,12.18,0,0,0,865.65,347.21Z" style="fill:#eea886"/><path d="M853.34,357.89c-1,5.25-8.34,11.83-8.34,11.83-.36-1.08-.74-2.19-1.09-3.31A47.71,47.71,0,0,0,853.34,357.89Z" style="fill:#3a3d63"/><path d="M851.5,362.07c-.46,1.91-2.59,21.28-2.36,21.95.13.37,1.17,4.85,2.2,9.83h-9.55c-1-3.2-1.56-5.87-1.42-7.38.61-6.53-1.61-27.36-1.61-27.36s-2-12.6,8.47-14.17c0,0,6.18.81,6.55,5.37S852,360.16,851.5,362.07Z" style="fill:#eea886"/><path d="M838,364.75l13,3s10.29-20,1-23.64C842.22,340.3,835.65,353.85,838,364.75Z" style="fill:#3581b6"/><path d="M867.91,309s11.27,4.14,4.13,23.6-21.74-3.32-19.54-15.28S867.91,309,867.91,309Z" style="fill:#eea987"/><path d="M873.76,320.85a25.86,25.86,0,0,1-15.5,5.56s-2.23,5.44-2.59,7.11c0,0-9.44-16.2,1.41-24.38S877.77,317.46,873.76,320.85Z" style="fill:#354153"/><path d="M859.55,327.58c0-1.44-.73-4.75-2.91-3.94s-.23,7.58,1.2,7.24C857.84,330.88,859.57,331,859.55,327.58Z" style="fill:#eea987"/><path d="M865.07,342.1a12,12,0,0,1-7.41-6.69c4.31,5.57,7.56,4.77,7.56,4.77C865.14,340.91,865.14,341.36,865.07,342.1Z" style="fill:#a77961"/><path d="M899.88,306.45v2.35h13.8v12.95H916v-15.3Zm-93.73,15.3h2.34V308.8H822.3v-2.35H806.15Zm107.53,66.84v13h-13.8v2.35H916V388.59Zm-105.19,0h-2.34V403.9H822.3v-2.35H808.49Z" style="fill:#5094d0"/><rect x="637.95" y="508.86" width="17.29" height="3.2" style="fill:#5094d0"/><path d="M698.41,385.19v3.13h18.43v17.31H720V385.19Zm-125.2,20.44h3.13V388.32h18.44v-3.13H573.21Zm143.63,89.28v17.31H698.41v3.13H720V494.91Zm-140.5,0h-3.13v20.44h21.57v-3.13H576.34Z" style="fill:#5094d0"/><g style="opacity:0.9500000000000001"><polygon points="389.73 620.99 4.87 651.89 4.87 646.22 389.27 615.37 389.73 620.99" style="fill:url(#linear-gradient-6)"/></g><path d="M647.13,330s10.89-7,20.72,5.43,6.28,24.36,4.23,35.51-11.94,36.37-7.73,47.51-1.17,17-1.17,17-33.77,8.64-29.83-42.15S647.13,330,647.13,330Z" style="fill:#183442"/><path d="M626.57,442.6s-9.89,26.2-19.23,50.62H582c3.87-12,7.8-24.7,8.23-27,.83-4.55,1.2-18,6.39-27.48s17.57-13.2,17.57-13.2C634.61,426.42,626.57,442.6,626.57,442.6Z" style="fill:#1d3b54"/><path d="M690.1,468.18s-4,12.85-7.76,25H599.65c-.35-1.07-.78-2.2-1.3-3.39-6.05-14-9-25.95-6.05-33.92s19.72-29.75,24.05-30.62,16.78-6.75,16.78-6.75c8.14-1.21,19.71-.61,23.7.78S683,423,691.1,429.27C700.46,436.54,690.1,468.18,690.1,468.18Z" style="fill:#eedad3"/><path d="M629.15,446.31l-7.57-8.86,6.58-23.34S630.36,427.11,629.15,446.31Z" style="fill:#d6c5be"/><path d="M627.19,404.17s2.48,22.85,2,30.29c0,0,13,13,27.67-15.14,0,0-6.19-11.59-1.53-27.38S627.19,404.17,627.19,404.17Z" style="fill:#eea886"/><polygon points="629.15 434.46 629.15 446.31 644.05 435.18 629.15 434.46" style="fill:#eea886"/><polygon points="629.15 446.31 635.34 438.66 656.18 417.89 662.92 424.38 629.15 446.31" style="fill:#d6c5be"/><path d="M698.79,447.21s-3.58,13.24-13.24,46h-43c-1.33-17.24-2.08-31-1.78-35.12.84-11.69,18.33-38.22,18.33-38.22s10.9,1.31,22.6,3.85C695,426.63,698.79,447.21,698.79,447.21Z" style="fill:#1d3b54"/><path d="M623.89,422.64c-10.66,12.76-14.45,40.79-15,70.58h-9.57c-11.1-23.22-8.13-33.76-8.13-33.76,5.8-19.85,23.05-34,23.05-34Z" style="fill:#1d3b54"/><polygon points="621.58 437.45 612.04 440.08 628.16 414.11 621.58 437.45" style="fill:#fbe6de"/><polygon points="635.34 438.66 644.05 450.08 661.85 420.25 656.18 417.89 635.34 438.66" style="fill:#fbe6de"/><path d="M627.7,409.2l.46,4.5s10.26,2,23.72-14.42C651.88,399.28,642.34,410.92,627.7,409.2Z" style="fill:#a77961"/><path d="M630.31,409.53c-4-.15-15.37-1.47-20.95-27.54-6.82-31.85,8.25-48.36,21.15-51.42s24.81,1.42,31.41,18.07c0,0,4.83,13-3,36.09S634.65,409.69,630.31,409.53Z" style="fill:#eea987"/><path d="M640.66,351.22s-17.32,1.08-33.43,25.28c0,0-7.54-29.12,12.17-42.41s33.5-1.86,38.31,3.93c0,0,6.9,1.59,7.11,14.67s9,32.83-10.29,42.19c0,0,1.84-14.93.14-18.35S647.07,375.42,640.66,351.22Z" style="fill:#183442"/><path d="M653.72,370.73c.88-2.26,3.26-3.18,4.57-.75s-.25,11.85-3.75,12.88S652,375.32,653.72,370.73Z" style="fill:#eea987"/><path d="M715.48,493.22H687.31c-3-7.26-5.72-13.68-7.56-18.31-6.1-15.35-30.38-44.21-14.91-53.84,0,0,20.28-1.24,30.44,10.59s9.61,25.87,12.2,32C709.4,468.15,713.14,483.73,715.48,493.22Z" style="fill:#1d3b54"/><path d="M1042.12,611.07h-31.38c-1.1-7.56-1.91-13.07-1.91-13.07s-.46,5.09-1.16,13.07h-132c-.61-5.73-1.12-9.25-1.39-9.39s-1.78,3.62-3.56,9.39H835.2c9.28-36.91,22.37-81.11,30.48-84.23,13.74-5.29,69.75-22.55,69.75-22.55h32s56.81,16.21,62.1,33.82C1033.26,550.68,1038.19,578.35,1042.12,611.07Z" style="fill:#e65554"/><path d="M1008.45,587.06l-1-.2c.05-.28,5.24-28.68-2.12-44.78l1-.43C1013.75,558.05,1008.51,586.77,1008.45,587.06Z" style="fill:#b94444"/><path d="M1008.25,581.36c0-.22-3.06-22.23-9.7-30.47l.82-.66c6.83,8.47,9.8,30.07,9.92,31Z" style="fill:#b94444"/><path d="M952.89,400.58s29.85,4.7,25.31,51.4-30.89,42.88-32.66,42.83-26.44.85-28.37-56.17C917.17,438.64,916.33,396.47,952.89,400.58Z" style="fill:#eea987"/><path d="M966.83,481.06s-.82,19.21,1,23.36-24.64,17.52-40.8,2.63c0,0,3.91-20.87,2.82-28.27S966.83,481.06,966.83,481.06Z" style="fill:#eea987"/><path d="M978.66,438.79s3.27-3.49,4.47,0-5.07,19.33-4.67,20c0,0-.59,1.37-1.38.62S978.66,438.79,978.66,438.79Z" style="fill:#eea987"/><path d="M917.51,438.2s-3.2-3.55-4.47,0,4.7,19.42,4.28,20.12c0,0,.57,1.38,1.36.64S917.51,438.2,917.51,438.2Z" style="fill:#eea987"/><path d="M978.64,446l-4.27,5.72s.12-12.53-.56-14.49.81-8.81.23-10.22-20.41,3.85-53,.61c0,0,3.62,11.29,1.5,12.09s-1.08,14.67-1.08,14.67l-3.51-4s-4-23.69-3.59-27.64c.52-5.26-1.31-29.84,44.48-25.63a28.11,28.11,0,0,1,14.47,5.56c4.7,3.58,9.54,9.18,9.1,16.87C981.86,429.68,978.64,446,978.64,446Z" style="fill:#434342"/><path d="M967.87,504.42s6.73,1.44-21.45,28.45c0,0-20-22.11-19.35-25.82S967.87,504.42,967.87,504.42Z" style="fill:#eea987"/><path d="M871.34,611.07H834.23c5.76-22.05,12.72-45.28,17-60.19,7.43-25.64,17.55-26.35,17.55-26.35l5.51,77.15S873.07,605.43,871.34,611.07Z" style="fill:#505550"/><polygon points="946.42 532.87 953.97 547.73 977.78 510.27 967.87 504.42 946.42 532.87" style="fill:#c34747"/><path d="M1043,611.07H1010.5c-.84-6.73-1.39-11.17-1.39-11.17s-.07,4.29-.21,11.17H962.49q.07-3.11.35-5.79c3.88-37,5-100.86,5-100.86s49.6,6.67,61.64,33.69C1036.45,553.72,1040.56,584.92,1043,611.07Z" style="fill:#505550"/><polygon points="946.42 532.87 935.76 547.73 920.35 520.19 927.08 507.06 946.42 532.87" style="fill:#c34747"/><path d="M927.08,507.05s-5.74,24.52-8.54,60.05c-.79,10.1-4.42,26-9.27,44h-34l-1-9.39-5.51-77.15Z" style="fill:#505550"/><polygon points="966.71 494.9 983.28 504.42 965.96 560.94 966.71 494.9" style="fill:#505550"/><polygon points="928.68 497.22 927.08 507.06 916.15 558.71 910.55 504.29 928.68 497.22" style="fill:#505550"/><path d="M932.09,488.77s6.34,6.94,15.83,6.18A30.44,30.44,0,0,0,964,488.42s-4.06,9.89-16.51,10.5S932.09,488.77,932.09,488.77Z" style="fill:#a77961"/><polygon points="758.6 625.88 797.52 647.27 836.6 585.76 789.33 569.34 758.6 625.88" style="fill:#2a2c48"/><polygon points="761.07 624.03 797.46 644.03 834.01 586.52 789.81 571.16 761.07 624.03" style="fill:#fff"/><path d="M747.74,613.27s6.77-3.24,9.75-4.93,10.62-4,11.23-4.57,22.68-1.91,24-3.07,2.64,2.71-3.07,4S776,609,775.55,611.21s5.87,2.76,6.51,4.6-.18,1.43-1.08,1.82-7.5-3.26-10.4-2.22-7.34-.4-9.56.36l-13,4.4Z" style="fill:#eea886"/><path d="M799.42,639.55s5.69-5.12,8.44-7.26,7.92-8.45,8.68-8.82,10.63-20.62,12.24-21.43-1.52-3.54-4.93,1.36-9.38,11.2-11.66,10.75-.32-6.61-1.8-7.93-1.42-.39-2.14.31.15,8.34-2,10.67-2.48,7.06-4.06,8.86S793,636.63,793,636.63Z" style="fill:#eea886"/><path d="M676.86,913.31s-1.23,8.54-1.39,9.83-13.69-.76-13.69-.76l-1.1-10.17S675.17,912.11,676.86,913.31Z" style="fill:#434873"/><path d="M675.62,922.05s4.29,5.15,8.44,7.39,10.67,3.14,13.12,5.46c1.77,1.68,6.45,8.9-10.78,8.75s-25.54,1-27.39-1.75,2.67-20.43,2.67-20.43S665.76,922.94,675.62,922.05Z" style="fill:#2a2c48"/><path d="M773.87,913.31s-1.23,8.54-1.38,9.83-13.69-.76-13.69-.76l-1.1-10.17S772.18,912.11,773.87,913.31Z" style="fill:#434873"/><path d="M772.63,922.05s4.29,5.15,8.44,7.39,19.42,4.09,21.87,6.41c1.78,1.68,4.72,8.43-19.53,7.8-17.22-.45-25.54,1-27.38-1.75s2.67-20.43,2.67-20.43S762.54,923,772.63,922.05Z" style="fill:#2a2c48"/><path d="M688.07,693.76S675.35,714,676.3,732.24s-4.62,38.22-6.53,57.31c-2.13,21.28-10.85,71.65-11.16,83S660,920.31,660,920.31l17.45.4s14.66-88.06,18.46-97.05,22.62-73,23.26-80.24S688.07,693.76,688.07,693.76Z" style="fill:#2a2c48"/><path d="M755,696.5s9.59,50.07,10.86,61.26,2.11,54.12,2.74,61.11,4.22,91.46,7.59,101.84H753.92s-17.13-61.41-17.13-90.46S723.56,767.08,715,747.91s-28.09-19.62-33.34-55.19C681.67,692.72,747.93,685.21,755,696.5Z" style="fill:#2a2c48"/><path d="M709.3,523.81s17.08-6.38,25,6.62,7.12,39-1.49,42.23-21.54,1.52-26-6.61-8.38-19.89-8.19-27.75S704.82,526.08,709.3,523.81Z" style="fill:#eea886"/><path d="M730.91,573.25s-.72,4.61.46,6.88-22.12,2.33-22.12,2.33a154.58,154.58,0,0,0-5.48-22.79C700.18,549.23,730.91,573.25,730.91,573.25Z" style="fill:#eea886"/><path d="M703.77,559.67s1.61,2.66,8.17,1.63,14.57-9.77,17.31-10.72S732,548,732,548l1.71,2.5,2.92.19s-2.66-7.82,1.35-11-4.16-25.29-25.21-17.93c0,0-16.17,4.46-15.58,13.65S700.15,555.09,703.77,559.67Z" style="fill:#3a4047"/><path d="M732.75,579.86s-.07-4.34-2-4.76-21.71-2.31-24.12-1.36v5S711.24,581.66,732.75,579.86Z" style="fill:#e3d3cc"/><path d="M731.58,544.66c-.36-1.54-4.29-5.95-5.79-1.23s2.27,11.07,4.37,10.53S732.52,548.57,731.58,544.66Z" style="fill:#eea886"/><path d="M811.11,631.13h0Q811.29,631.22,811.11,631.13Z" style="fill:#323657"/><path d="M673.72,741.91S684.19,745,702.05,747s62.48-.71,62.76-2.82-9.6-78.56-9-82.5.87-18,.87-18c.22,3.84,4.13,19.54,8.86,28.1,1.71,3.09,7.44,12.79,10.2,10.58,13.37-10.67,34.07-50.89,35.38-51.23-1.1-.48-9.81-4.49-11-4.9-1.07-.35-10.72,9.86-16.56,16.19-2.6,2.82-4.45,4.87-4.45,4.87-1.69-3.8-7.84-27.71-9.75-36-4.31-18.67-3.64-19.44-3.64-19.44-13.07-4-32.9-12-32.9-12l-26.17-1.07s-24,5.29-33.47,9.56c-.9.41-.9,21.43-3.36,26.94l7.84,16.54s4.53,32.77,5.47,47.34C683.49,685.86,673.72,741.91,673.72,741.91Z" style="fill:#e94847"/><path d="M668.66,642.58c.69,2.2,3.79,4.07,5.8,4.88a7.52,7.52,0,0,0,4.19.42l1-.19h0l17.93-3.32s3.92-45.19-24.5-56C672.36,588.6,662.39,622.35,668.66,642.58Z" style="fill:#e94847"/><path d="M674.46,647.46h0a7.52,7.52,0,0,0,4.19.42l1-.19h0l-1.77-23.09Z" style="fill:#702222"/><path d="M779,647.29l2.19,9.28s2.38-9.31,2.26-14.15C780.89,645.24,779,647.29,779,647.29Z" style="fill:#702222"/><path d="M704.44,525.35s-22.38-2.81-.38,34.58Z" style="fill:#3a4047"/><polygon points="818.61 582.46 820.88 578.56 802.97 572.37 800.69 576.26 818.61 582.46" style="fill:#2a2c48"/><g style="opacity:0.9500000000000001"><polygon points="1040.17 401.56 1052.87 401.56 1048.98 393.5 1036.29 393.5 1040.17 401.56" style="fill:url(#linear-gradient-7)"/><polygon points="1034.23 401.56 1037.26 401.56 1033.37 393.5 1030.35 393.5 1034.23 401.56" style="fill:url(#linear-gradient-8)"/><polygon points="990.38 391.97 1041.78 391.97 1040.07 387.94 988.67 387.94 990.38 391.97" style="fill:url(#linear-gradient-9)"/></g><rect x="743.7" y="224.39" width="21.78" height="6.56" rx="1.19" style="fill:url(#linear-gradient-10)"/><rect x="743.7" y="240.13" width="21.78" height="6.56" rx="1.19" style="fill:url(#linear-gradient-11)"/><rect x="743.7" y="255.87" width="21.78" height="6.56" rx="1.19" style="fill:url(#linear-gradient-12)"/><rect x="774.47" y="224.39" width="6.2" height="6.56" rx="1.19" style="fill:url(#linear-gradient-13)"/><rect x="774.47" y="240.13" width="6.2" height="6.56" rx="1.19" style="fill:url(#linear-gradient-14)"/><rect x="774.47" y="255.87" width="6.2" height="6.56" rx="1.19" style="fill:url(#linear-gradient-15)"/></svg>