<svg id="Layer_1" data-name="Layer 1" xmlns="http://www.w3.org/2000/svg" viewBox="0 0 1000 1000"><defs><style>.cls-1{fill:#fff;}.cls-2{fill:#5cb1bd;}.cls-3{fill:#232a43;}.cls-4{fill:#ffd460;}.cls-5{fill:#96ced5;}.cls-6{font-size:60px;fill:#343d91;font-family:LucidaHandwriting-Italic, Lucida Handwriting;font-style:italic;}.cls-7{fill:#f1841c;}.cls-8{fill:#f7ec64;stroke:#f1841d;stroke-miterlimit:10;stroke-width:15px;}</style></defs><rect class="cls-1" width="1000" height="989.44"/><rect class="cls-1" x="500" y="655.5" height="34.94"/><path class="cls-2" d="M727.07,438l7-5.28-86.79-22.44-6.3,6.22-8.4-1.13-23.11,19.23c-4.54-4.9-18.54-6.6-18.54-6.6-4.89-4.14-15.39-6-15.39-6-5.6-12.82-8.91-35.21-8.91-35.21C567,364.89,529.87,363,529.87,363c-2.44-8.11-11.89-9.24-11.89-9.24l-10.36-25.08,9-5.85c-4.55-3.21-13-23.76-13-23.76,3.14-6.22,2.1-14.14,2.1-14.14,2.56-1.82,3.47-3.53,3.75-4.88l78.46-2.28-76.69-5.2a19.71,19.71,0,0,0,1.11-5.95l75.58-16.69-77.16,9.81a19.48,19.48,0,0,0-8.13-7.62l47.28-28-60,23.45a125.28,125.28,0,0,0-23.69-2.82l-2-35.72-13.72,36a205.12,205.12,0,0,0-25.74,3.45l-51.63-25.16,34.53,29.76a83.69,83.69,0,0,0-13.26,5.76H345.6c.62-30.66-17.33-63.88-17.33-63.88-5.6-9.43-1.75-27.91-1.75-27.91,18.55-27.15-11.2-39-11.2-39v-7.16c9.1-2.08,4.19-7.92,4.19-7.92,45.85-4.72,24.85-16,24.85-16V92c15.4-10.18-30.45-8.67-30.45-8.67v-7h-35v7c-45.15.19-31.49,8.67-31.49,8.67V98.8c-12.6,7.73,14.34,12.45,14.34,12.45a15.42,15.42,0,0,0,7.35,15.84c-7.69,4.9,2.1,9,2.1,9-3.15,3.58.85,8.5.85,8.5-12.25,9.7,11.53,23.29,11.53,23.29-2.89,5.44,0,8.93,0,8.93-14.42,40.76,7.9,83.46,7.9,83.46,1.42,8.16,2.9,18.64,2.9,18.64a47.9,47.9,0,0,0-25.94,25.62c-17.28,10.09-10.08,16.3-10.08,16.3-5.77,22.13,18.73,26.79,18.73,26.79-10.81,14.75-6.49,18.25-6.49,18.25C278.55,370.57,298,379.5,298,379.5a129.87,129.87,0,0,1-18.64,10.12c5,1.56,7.2,7.76,7.2,7.76-17.29,6.22-9.5,12.43-9.5,12.43,2.74,10.09,26.07,18.63,26.07,18.63-2.88,7.76,13,21.75,13,21.75-19.45,12.8-34.58,36.49-34.58,36.49-20.17,31.44,34.58,22.51,34.58,22.51v22.13a80,80,0,0,0-26.65,29.51c.72,3.49,11.51,8.92,11.51,8.92-5,26.79,10.82,37.27,10.82,37.27l4.32,38.82c-28.09,26-9.36,25.23-9.36,25.23-22.34,25.24-20.9,45.81-20.9,45.81H621l-4.56-31.64,6.31-3.39-3.51-18.67,16.8-9-8.75-38.29,4.55-2.45L614,552.67c17.5-3.4,20-21.5,20-21.5l29-32.25c23.8-1.69,51.79-25.84,51.79-25.84,18.55-10.55,1.75-19.8,1.75-19.8L729.87,441ZM345.47,261.78l40,3.52a28.83,28.83,0,0,0-5.61,7.27l-20.6.77c-5.35-5.23-14.23-7.08-14.23-7.08C345.26,264.78,345.39,263.28,345.47,261.78Zm40.2,36c-11.55,13-16.1,6.6-16.1,6.6,4.55-9.43,1.4-11.51,1.4-11.51,0-7.54-7.7-10.75-7.7-10.75a10.84,10.84,0,0,0-.53-3.28h15.51c.06,7.25,7.42,11,7.42,11Zm108.4,55.56L481.46,351V340l12.61,1.66,4.66,11.64Z"/><path class="cls-3" d="M269.12,127.09c-.28.18-.49.36-.73.54,5.39-2.47,9.18-2.17,9.18-2.17l-1.5-5.45c-5.62-.6-6-2.62-6-2.62,2.83-11.25,49.43-4.44,49.43-4.44,18.32-1.89,25.95-4.82,28.53-7.67-4.48-4.23-49.48-3.84-49.48-3.84-53.58-.21-50,5.9-50,5.9h0c5.24,2.51,13.17,3.9,13.17,3.9A15.42,15.42,0,0,0,269.12,127.09Z"/><path class="cls-3" d="M301.56,99.27c.33,0,31.86-.35,47.58,3.7.14-1.83-1.31-3.48-2.66-4.59-17.81-3.16-43.81-2.87-44.93-2.85-30.31-.35-46.32,1.59-54.78,3.71-2.84,2-3.2,3.7-2.14,5.22C246.85,103.11,257.47,98.78,301.56,99.27Z"/><path class="cls-3" d="M284.52,118.23c24.93-2,30.8,2.64,30.8,2.64,3.16-.72,4.61-1.9,5.18-3.13h0C292.58,112.74,284.52,118.23,284.52,118.23Z"/><path class="cls-3" d="M266.42,132.14c1,2.39,4.8,4,4.8,4a144.22,144.22,0,0,1,29.29-.49s9.25-2.66,0-7.18c0,0,.87,4.83-12.45,3.59C288,132.06,275,130.65,266.42,132.14Z"/><path class="cls-3" d="M272.07,144.64s19.45-2.59,36.83,1.78c0,0,9.27-.32,4.63-7.19,0,0-1.16,3-5.5,3.59,0,0-23.93-4.24-37.75-1.65A11.14,11.14,0,0,0,272.07,144.64Z"/><path class="cls-3" d="M273.85,150.94a48.43,48.43,0,0,1,18.71-1.87s11,2,12.05-1.41c0,0,6.08,5.46-12.05,3.28,0,0-10.31-.31-10.89,1.72l.29,4.06S275.3,154.84,273.85,150.94Z"/><path class="cls-3" d="M329.91,198.21c-1-2.06-1.64-3.23-1.64-3.23-5.6-9.43-1.75-27.91-1.75-27.91a41,41,0,0,0,4-7.21c-10.81,10.63-15.68-6.58-15.68-6.58a35.55,35.55,0,0,1-3.33,13.89l1.73,3.75c5.22,3-1.2,4.52-1.2,4.52,2.85,3.44-.24,5.31-.24,5.31,1.44,6.09-4.05,6.09-4.05,6.09,0,6.71-16.51,5.31-16.51,5.31,17.09,34,38.68,6.06,38.68,6.06Z"/><path class="cls-3" d="M323,204.72C338.16,222.6,335.82,263,335.82,263,332,268.7,330,280.11,330,280.11c-2.88,16.85,11.6,6.27,11.6,6.27,0,5-11.6,18.1-11.6,18.1,32.6-22.73,21.31-36.1,21.23-36.2a37.73,37.73,0,0,0-6.2-2c3.95-30.49-14.36-66.63-16.57-70.86l-9.52.45Z"/><path class="cls-3" d="M295.27,295.12s-20.3,16.28-33,21.26c0,0,13.37-3.36,21.22-7.83,0,0-12,11.56-10.61,28.71,0,0,9-26.6,22.37-33.31Z"/><path class="cls-3" d="M295.27,287.91s-12.87,8.7-19.83,12.68c0,0,15.68-5.1,19.83-7.83Z"/><path class="cls-3" d="M295.27,304l-8.49,2.11c-8.5,14.55,18.82,17.42,18.82,17.42C278.61,314.1,295.27,304,295.27,304Z"/><path class="cls-3" d="M282.16,334.39s38.44.95,71.07-36C353.23,298.41,331.52,345.1,282.16,334.39Z"/><path class="cls-3" d="M367.27,284.81a15.22,15.22,0,0,0-4-2.71s-32,29.71-44.29,36.4C319,318.5,353.39,299.22,367.27,284.81Z"/><path class="cls-3" d="M312.35,364.24s12.07-21.24,27-25.07c0,0-1,13.2,13.89-7.84a16.61,16.61,0,0,1,0,11.86s6.71-9.95,6.35-18.75c0,0,2.95-7.08,7.69-9.38l-2.72,16.84s8.17-10.72,18.47-12.44c0,0-3.91-8.74,9.59-2.26,0,0-4.62-9.46-11-15.37h0c-8.56,7.41-12,2.53-12,2.53s-40.19,36.92-90.79,35.38c0,0,18.77,5.17,45-4-10.58,3.92-33.63,11.84-46.67,11.92,0,0,4.69,5.85,22.1,3.94,0,0-21.32,17.61-13.86,4.21,0,0-11.48,6.68-15.5,6.3h0c-.35,2.87.77,3.8.77,3.8,4.58,2.68,13,6.79,19.28,9.79C295.05,374.13,302.31,370.82,312.35,364.24Zm17-30.62s-1.63.65-4.34,1.66C326.49,334.76,327.93,334.23,329.4,333.62Z"/><path class="cls-3" d="M297.22,385.82s27.75-23.75,42.12-46.65h7.73S314.08,391.15,297.22,385.82Z"/><path class="cls-3" d="M378.94,326s-19.55,29.86-25.71,21.52c0,0-9,16.79,14,2.77C367.27,350.28,383.71,339.61,378.94,326Z"/><path class="cls-3" d="M292,418.28s17.46-7.31,24.67-16.59c0,0-15.51,19.35-4.52,33,0,0,9.17-24.68,24.93-39.4,0,0,31.24-15.83,37.47-32.59,0,0,8.27-14.22,0-23.51,0,0-27.94,38.62-62.4,49.68a51.1,51.1,0,0,0,28.69.13s-42.74,12.82-65.4,18.19h0a5.33,5.33,0,0,0,1.63,2.63,7.93,7.93,0,0,0,.52,1.31c8.75-1.56,21.72-4.29,28-7.65C305.55,403.47,299,414.13,292,418.28Z"/><path class="cls-3" d="M378.94,326s9.66,8.2-2.86,33.42l-5.19-5.58,5.8-8.49-3.84-2.64,6.46-8.82Z"/><path class="cls-3" d="M286.56,397.38c32.7-14.07,56.56-22.8,56.56-22.8-32.95,15.17-63.76,15-63.76,15C284.4,391.18,286.56,397.38,286.56,397.38Z"/><path class="cls-3" d="M396.82,319.75s14.54,11.61,0,51.95C396.82,371.7,425.89,333.57,396.82,319.75Z"/><path class="cls-3" d="M392.61,331.36s5.29,16-18.41,53.39C374.2,384.75,411,353.7,392.61,331.36Z"/><path class="cls-3" d="M403.28,327.44l2-13.58s-4.4-.78-8.5-6.21a11.6,11.6,0,0,0,12.92,1s2.16,21.43-.74,37.52Z"/><path class="cls-3" d="M403.28,298.41s4.21,5.76-8.29,6.07c0,0-7.56-.4-5.59-7,0,0,12.5-2.48,17.76-11.52,0,0-6.25-.35-9.05-2.48,0,0,44.24-4.61,58.39-17.9,0,0,6.91,7.44-18.75,13.65,0,0-21.38,5.49-20.72,11.69,0,0-3.49-2.3-6.51-1.41C410.52,289.55,410.26,296.64,403.28,298.41Z"/><path class="cls-3" d="M481.46,340l12.61,1.66,4.66,11.64,19.25.45-10.36-25.08,9-5.85c-4.55-3.21-13-23.76-13-23.76,3.14-6.22,2.1-14.14,2.1-14.14,5.6-4,3.49-7.55,3.49-7.55-13.73,10.18-52.72-11.77-52.72-11.77-2,2.84.27,4.46.27,4.46,13.41,6.24,35.26,12.73,35.26,12.73-.33,8.33-5.26,8.33-5.26,8.33,3.29,0,4.27,1.95,4.27,1.95,2.31,4.43-3.29,16.6-3.29,16.6-9.2,13.06-33.22,12.12-33.22,12.12-37.16,0-39.14-6.2-39.14-6.2C408.15,322.52,481.46,340,481.46,340Z"/><path class="cls-3" d="M427.6,292.27s-6.61-1.33-7-2.23c0,0,6.19-.66,7-2.67,0,0,16.95,0,14.06-2.32,0,0,11.57-2.36,9.51,5.66C451.17,290.71,433.52,285.87,427.6,292.27Z"/><path class="cls-3" d="M448,302.4a19,19,0,0,1,8,0s5,1.62,9.29-.41V287s12.19-9.31,19.22,0c0,0-13.6-1.87-13.82,3.26l-1.29,2v9.44s1.51,4.42-1.3,5.24c0,0-5.4,2.44-8,0C460.14,307,453.66,302.28,448,302.4Z"/><path class="cls-3" d="M492.52,285.53a12,12,0,0,1-9-.09c-1.21-.56-2-1.27-3.67-1.42-2.39-.22-2.83,1.25-4.75,2l1.73.7a12.76,12.76,0,0,1,6,1.49c1.06.67,1.12,2.47,2.15,2.82,1.64.55,6,0,6.88-.79C493.16,289,492.63,286.86,492.52,285.53Z"/><path class="cls-3" d="M469.17,306.71c-1.59-.13-3,.38-4.54.39-1.8,0-2.77-.34-4.5-.39a24.75,24.75,0,0,0-8.4,1.35c-3.25,1.16-3.33,1.66-7.64,1.66l1,.93a40.43,40.43,0,0,0,7.33-.37c2.3-.41,4.41-1.36,6.93-1.51,5.2-.29,9.56,1.56,14.6,1.29C473.63,308.49,472.24,307,469.17,306.71Z"/><path class="cls-3" d="M472.31,309.72c-.79-.12-1.64-.68-2.49-.61s-1.57,1.05-2.16,1.37c-1.71.92-3.91,1-6.2,1s-4.68-.1-6.92-.21a29,29,0,0,1-4.19-.13c-.81-.17-1.42-.72-2.23-.93l-1.41.25c1.28,1.11,1.92,2.72,4.71,3.06a77.15,77.15,0,0,0,8.33,0,80.46,80.46,0,0,0,8.94-.17c1.79-.21,2.48-.62,2.86-1.44C471.85,311.27,472.58,310.39,472.31,309.72Z"/><polygon class="cls-3" points="446.71 330.7 448.04 350.7 452.04 329.71 448.04 329.71 446.71 330.7"/><polygon class="cls-3" points="455.67 333.29 455.67 351.62 462.14 335.07 462.14 331.36 455.67 333.29"/><path class="cls-3" d="M484.55,358.21s8-5,14.18-4.89h-4.66L481.46,351V340l7.18,1,.74-5.54-13,3.34s-.69,13.11-14.24,15C462.14,353.77,463.84,357.27,484.55,358.21Z"/><path class="cls-3" d="M343.53,454.1c-3.43,2.63-7.17,5.28-9.86,8.35a35.42,35.42,0,0,0-6.11,9c-1.25,2.83-1.77,6.08-4.43,8.54-1.08-4.07.18-8.58-.34-12.77-3.63,3-6.33,8.26-8.43,11.76-2.55,4.24-3.47,9-4.76,13.45-.76,2.57-1.24,3.93-5.87,4.6s-8.53-.24-9.58-2.29c-1.57-3.06,14.9-12.33,14.9-12.33-4.69.1-10.73,2.73-14.87,3.94-5.17,1.52-6,3.29-9.07,5.82s-3.75,3.13-3.73,6.32c0,2.53-.61,5.3,0,7.81,10.13,6.85,34.75,2.85,34.75,2.85v0a4.87,4.87,0,0,1,.74-.14c2-10.46,10-20.1,14.56-30.21,3-6.65,8.19-13.34,11.28-20.05a75.31,75.31,0,0,1,3.65-6.63C345.2,452.92,344.18,453.59,343.53,454.1Z"/><path class="cls-3" d="M343.21,476s5.54-15.26,43.61-41.34c0,0-49.3,24.8-73.1,64.44l2.38,10.1s27-36,77.18-60C393.28,449.17,362.3,459.89,343.21,476Z"/><path class="cls-3" d="M393.67,426.69s48-22.42,50.42-38.43c0,0,30.46-13.29,40.46-25.58,0,0-15.2,17.19-50.46,42.47l24.82-16.89S422.69,414.52,393.67,426.69Z"/><path class="cls-3" d="M444.09,388.26s-50.65,16.06-75.88,46.41c0,0,39.3-32.33,71.16-45.75Z"/><path class="cls-3" d="M337.07,415.76s-10.12,14.68-11,25.91l11-9.36S335.56,421.69,337.07,415.76Z"/><path class="cls-3" d="M376.69,391.3s-22.76,17.91-23.19,31.33l10.7-6.87S375.85,397.23,376.69,391.3Z"/><path class="cls-3" d="M414.89,384.75s-28.29,8-28.07,19.61l9-4.39S403,399.05,414.89,384.75Z"/><path class="cls-3" d="M423.21,342.7s25.44,36.21,43.22,22.5C466.43,365.2,451.27,389.74,423.21,342.7Z"/><path class="cls-3" d="M414.39,350.7s25.44,36.22,43.22,22.51C457.61,373.21,442.45,397.75,414.39,350.7Z"/><path class="cls-3" d="M494.07,391.3S459.63,413.59,426,426.69c0,0-49.11,18.05-57.78,28.05,0,0,28.7-10.88,68.5-24C436.71,430.72,483.13,417.64,494.07,391.3Z"/><path class="cls-3" d="M307.56,602.94c.13-.3,30.07-67.18,79.26-127.8,0,0-62,61.84-85.86,94.61C297.67,587.22,303.26,597.72,307.56,602.94Z"/><path class="cls-3" d="M424.89,434.67,360.1,487.38s7.27-27.34,35.75-35.2l17.36-13.54Z"/><path class="cls-3" d="M311.78,607s29.31-39.4,64.2-77.48c0,0,76.6-88.24,89.82-117.33l-9.37,3.55s-53.29,63-73.82,89.75C382.61,505.51,309.3,584.83,311.78,607Z"/><path class="cls-3" d="M514.25,362.68s-9.48,26.42-43.81,66C470.44,428.72,530.23,393.52,514.25,362.68Z"/><path class="cls-3" d="M484.55,360.69s10.19-5.06,27.61,0C512.16,360.69,493.13,359.24,484.55,360.69Z"/><path class="cls-3" d="M514.25,362.68S502,380.88,497,388.26C497,388.26,515,377,514.25,362.68Z"/><path class="cls-3" d="M512.16,360.69s-14.56,0-27.61,22.38C484.55,383.07,500.1,368.63,512.16,360.69Z"/><path class="cls-3" d="M484.55,370.13s5.79-12.17,27.61-9.44C512.16,360.69,494.48,360.55,484.55,370.13Z"/><path class="cls-3" d="M533.83,375.47s-11.09-4.63-11.09-8.52c0,0,34.4-2.26,43.81,17.8s.08,2,.08,2S544.92,368.46,533.83,375.47Z"/><path class="cls-3" d="M530.91,426.69a54.43,54.43,0,0,0,2-20.81,2.59,2.59,0,0,0,1-1.09c4.64-5.19,23-15.86-1.12-26.78a36.24,36.24,0,0,1,7.34,9.51c0,1.84-10.12.88-11,2.63a11.74,11.74,0,0,1-.9,1.4c-2.22-3.62,4.67-4.28.35-7,1.3,2.55-7.11,5.93-5.78,19.85,0,0-12.2,64.5,11.64,80C534.36,484.39,524.83,453,530.91,426.69Z"/><path class="cls-3" d="M501.63,393.34l-4,6.66s-6.26,54.37-31.82,81.27c0,0-22.95,81.62-48.15,114.42,0,0,26.07-15.46,56.9-111.3C474.55,484.39,505.66,448,501.63,393.34Z"/><path class="cls-3" d="M493.25,503.48s-11.71-.17-15.18,33.08c0,0-4.82,35.18-34.35,53.08,0,0,35.52-11.24,40.35-57.6C484.07,532,485.43,511.91,493.25,503.48Z"/><path class="cls-3" d="M509.75,552.64s-3.47,11.16-57.34,50.3c0,0-56.48,22.28-78.21,46.16,0,0-41.95,18.67-67.46,22,0,0,54-2.77,82-19.16,0,0,17.6-15.45,28.89-19.66,0,0-23.46,35.64-45.19,47.78,0,0,35.79-7.14,71.26-63.69,0,0-2.61,23.4-26.07,49.15,0,0,36.56-21,44.38-60.1C462,605.39,505.67,578.8,509.75,552.64Z"/><path class="cls-3" d="M583.6,452.68s-22-42.63-35.39-56c0,0,1.64,21-4.36,32.07,0,0,9.81-8.61,9.81-13.59,0,0,7.07,6.05,0,13.59,0,0,18,.26,31.57,55.67,0,0-19.6-49.32-33.21-47.85,0,0-15,1.76-19,6.46,0,0,19-.88,21.23,10.26,0,0,3.21,24.82-17.45,34.12,0,0-47.41,19-18.25,23.68,0,0-12.47-7.05,20.6-19.95,0,0,20.94-7,21.66-28.16,0,0,14.13,22.88,20.11,44,0,0-2.72-19.65-5.44-26.4,0,0,23.41,17.9,29.94,35.2C605.37,515.75,605.92,494.05,583.6,452.68Z"/><path class="cls-3" d="M590.45,447.4a96,96,0,0,0,14.92-9.68s-10.24,4.11-14.92,4.11c0,0-6.34-10.32.48-13.82-4.89-4.14-15.39-6-15.39-6s22.76,70.3,29.83,93.77C605.37,515.75,598.84,471.15,590.45,447.4Z"/><path class="cls-3" d="M603.66,667.93v-2.87l16-.08h0l-.34-1.8,16.8-9-8.75-38.29,4.55-2.45L596.8,526.92l8.57-4.1-14.92-13.61-4.29,3.37S615.83,622.85,623.43,645c0,0-65.42,22.13-88.24,30.74,0,0-51.73,11.07-28.91,18.44,0,0,8.36-7.37,29.66-5.32l1.53,14.34S557.53,686.81,562,680c0,0,5.19,1,15.84,0L577,716.88h8.37V686S630.29,670,603.66,667.93Z"/><path class="cls-3" d="M714.82,473.08c5.86-3.33,8.19-6.54,8.63-9.36-4.83,6.5-11.31,5.15-11.31,5.15-2.69,3.67-9.86,3.09-9.86,3.09-1.35,8.46-9.43,8.7-9.43,8.7-.89,4.6-8.07,3.73-8.07,3.73-9.87,7.12-9.86-1.07-9.86-1.07,7.62-3.38-2-5.17-2-5.17l-49.45,50-18-2.88L614,552.67c17.5-3.4,20-21.5,20-21.5l29-32.25C686.83,497.23,714.82,473.08,714.82,473.08Z"/><path class="cls-3" d="M684.07,467.93c-4.22-2-6.64-1-11.42-1.54-4.18-.46-3.84-1.46-3.12-3.62,0,0-6.29,2.29-5.39,4.36,1.53,3.51,5.11,1.29,9,1.67,8.07.79,12.15,7,17.43,9.56C691,475,688.63,470.05,684.07,467.93Z"/><path class="cls-3" d="M677.81,480.91s1.56-6.42-11-6.05c0,0,7.33,2.72,6.88,6.05Z"/><path class="cls-3" d="M700.67,469.43s-8-7.41-24.29-8.27C676.38,461.16,691.5,458.44,700.67,469.43Z"/><path class="cls-3" d="M710.76,464.49s.68-9.26-14.44-13.46c0,0,4.58,3.58,4.35,5.68l-4.35,2S706.63,461.4,710.76,464.49Z"/><polygon class="cls-3" points="723.46 429.99 714.51 435.84 720.69 437.92 708.35 449.56 716.57 453.28 729.87 441.03 727.07 438.01 734.07 432.73 723.46 429.99"/><path class="cls-3" d="M506.28,694.16l31,7.31,4.88-2.22s9.1,9.5-10.43,17.63H503.59l29.3-11.36L507.68,700Z"/><path class="cls-3" d="M319.5,705.52s-5.1-8.13,17.49-22.67c0,0-15.07-1.76-25.28,3.09,0,0,6.65-10.58,42-8.38l9.16-4.85a23.76,23.76,0,0,1-13.9-2.2s27.45-2,59.3-25.26c0,0,2.46,16.54-35.79,34.78l2.67-8.64S322.77,696.9,319.5,705.52Z"/><path class="cls-3" d="M306.74,683.27c-7.44,12.64-2,26.45,1.89,33.61h13.3C304.79,700.76,306.74,683.27,306.74,683.27Z"/><path class="cls-3" d="M378.22,716.88c9.52-9.25,26.74-28.72,30-51.12,0,0-22,32.84-53.84,51.12Z"/><path class="cls-3" d="M528.34,712.13l10.38-6.61-22.08-5.44s-19-4.75-6.89-11.74l-7.76-1,7.76-111.65s-15.23,68.23-16.5,85.37c0,0-8.74,2.4,0,14.34,0,0,2.39,16.8-9.18,21.69,0,0-1.41-5.59,0-10.49,0,0-12.23,10.29-10.3,30.29h42.11Z"/><polygon class="cls-3" points="616.48 685.24 609.48 691.32 602.34 688.28 608.48 716.88 621.04 716.88 616.48 685.24"/><polygon class="cls-3" points="544.29 541.24 557.2 653.65 533.47 665.76 544.29 646.28 544.29 541.24"/><path class="cls-3" d="M452.81,262.06h.64c3.07-.06,6-.05,8.71,0V248.5c-3.9-.1-7.6,0-10.92.1Z"/><path class="cls-3" d="M441.21,262.92c3.27-.37,6.05-.58,8.14-.71l-1.57-13.44c-7.11.44-11.79,1.17-11.79,1.17h-.05Z"/><path class="cls-3" d="M507,261.13l-7.31,8.28c.79.42,1.54.85,2.2,1.28l7.47-7.43A31.71,31.71,0,0,0,507,261.13Z"/><path class="cls-3" d="M423.3,253.07l6.68,11.6c2.75-.54,5.39-1,7.85-1.31l-5.15-12.67C429.38,251.44,426.22,252.22,423.3,253.07Z"/><path class="cls-3" d="M501.2,257.17l-8,9.45c1.36.47,2.63,1,3.78,1.47l7.68-8.71A40.34,40.34,0,0,0,501.2,257.17Z"/><path class="cls-3" d="M478.12,249.86,476.22,263c2.71.32,5.19.7,7.48,1.14L490,252.5A85.87,85.87,0,0,0,478.12,249.86Z"/><path class="cls-3" d="M412.7,256.65l8.51,10.06c1.86-.5,3.7-1,5.52-1.36L420.21,254C417.55,254.87,415,255.74,412.7,256.65Z"/><path class="cls-3" d="M465.64,248.63v13.55c2.53.1,4.91.26,7.15.46l1.91-13.25C471.63,249,468.6,248.77,465.64,248.63Z"/><path class="cls-3" d="M493.06,253.52,487,264.83c1.14.26,2.23.54,3.26.84l8.33-9.88A54.32,54.32,0,0,0,493.06,253.52Z"/><path class="cls-3" d="M407.39,271.63c1.29-.59,2.6-1.15,3.92-1.67l-10.09-8c-1.59.87-3.07,1.75-4.47,2.64Z"/><path class="cls-3" d="M403.75,260.61l10.43,8.29c1.31-.47,2.64-.89,4-1.3l-8.3-9.8C407.68,258.72,405.65,259.65,403.75,260.61Z"/><path class="cls-3" d="M380.14,280.84c-.39.65-.74,1.28-1,1.88a15.8,15.8,0,0,0,6.57,7.11,35.69,35.69,0,0,1,3.52-5.06Z"/><path class="cls-3" d="M504.18,272.35c5,4,5.3,7.71,5.3,7.71l2.88-13.43c-.35-.46-.73-.89-1.1-1.33Z"/><path class="cls-3" d="M385.29,274c-.55.6-1.07,1.18-1.55,1.77l10.2,4.23c.3-.26.59-.52.9-.77Z"/><path class="cls-3" d="M381.33,279l9.41,4.08c.45-.48.93-.95,1.41-1.41l-9.81-4.07C382,278,381.64,278.49,381.33,279Z"/><path class="cls-3" d="M404.79,272.88l-10.29-6.82c-.79.55-1.54,1.1-2.26,1.65l10.11,6.47C403.15,273.73,404,273.3,404.79,272.88Z"/><path class="cls-3" d="M387,272.25l9.91,5.43c1-.73,2-1.44,3.11-2.11l-9.76-6.24C389.05,270.31,388,271.29,387,272.25Z"/><path class="cls-3" d="M505.73,284.94l9.32,12.17s-3.14,2.46-11.42,2L499.69,297v-7.66Z"/><path class="cls-2" d="M327.06,56.47c-3.89-3.69-2.33-7.34-2.33-7.34,8.72-21.78-9.83-27.23-9.83-27.23,6.36,11.75-.07,18.13-.07,18.13.69-4.37-3.8-5.5-3.8-5.5-1.24,5.58-8.52,8.52-8.52,8.52-1.66-5-9.95-6.38-9.95-6.38,3.95,7.38-2.84,13.43-2.84,13.43-5.11-6.38-15.86-4.37-15.86-4.37,12,5,5.06,9.07,5.06,9.07-22.77,11.41,0,21.56,0,21.56h35C345.46,62.34,327.06,56.47,327.06,56.47Z"/><path class="cls-4" d="M327.06,56.47c-3.89-3.69-2.33-7.34-2.33-7.34,8.72-21.78-9.83-27.23-9.83-27.23,6.36,11.75-.07,18.13-.07,18.13.69-4.37-3.8-5.5-3.8-5.5-1.24,5.58-8.52,8.52-8.52,8.52-1.66-5-9.95-6.38-9.95-6.38,3.95,7.38-2.84,13.43-2.84,13.43-5.11-6.38-15.86-4.37-15.86-4.37,12,5,5.06,9.07,5.06,9.07-15.4,7.72-10,14.85-4.84,18.67,2.71.25,5.54.28,8.14.27a53.32,53.32,0,0,0,12.68-1.51c5.61-1.27,12.22-1,17.53-2.53h-2.18c3.45-.21,7.8-1.55,10.89-2.37a58.24,58.24,0,0,0,11.06-4.15C333.57,58.55,327.06,56.47,327.06,56.47Z"/><path class="cls-5" d="M317.68,62.71c.77-4-4.34-7.44-4.34-7.44.25,4.82-6.91,7.44-6.91,7.44,1-3.31-3.07-6.34-3.07-6.34,0,4.69-10,9.16-10,9.16,0-3.92-5.88-7-5.88-7,0,2.76-5.88,5.24-5.88,5.24-.52-3.72,2.55-6.61,2.55-6.61-9.79,2.56-13.49,7.1-14.83,10.8,2.08,5,9.57,8.36,9.57,8.36h35c31.55-14,13.15-19.89,13.15-19.89C327,62.09,317.68,62.71,317.68,62.71Z"/><path class="cls-3" d="M429.71,290.67s1.63,2.41,12.79,1.6a36.61,36.61,0,0,1-14.9,0l-1.16-1.6,1.69-.57Z"/><path class="cls-3" d="M483.88,289.66s1.18,2.76-4.9,3.37c0,0,6.21,1,9.44-1.68l-1.5-2.85Z"/><rect class="cls-1" x="1" y="736.28" width="1000" height="264.72"/><text class="cls-6" transform="translate(38.9 826.63)"><tspan xml:space="preserve">American Info Systems  Inc</tspan><tspan class="cls-7"><tspan x="43.89" y="72">Partner with Confidence</tspan></tspan></text><line class="cls-8" x1="173.59" y1="734.16" x2="809.59" y2="729.3"/><line class="cls-8" x1="181.2" y1="726.18" x2="178.78" y2="14.97"/><line class="cls-8" x1="801.64" y1="721.34" x2="799.31" y2="14.97"/><line class="cls-8" x1="171.23" y1="13.69" x2="807.23" y2="13.69"/></svg>