<svg xmlns="http://www.w3.org/2000/svg" xmlns:xlink="http://www.w3.org/1999/xlink" viewBox="0 0 1920 1080"><defs><clipPath id="clip-path"><rect x="352" width="1566.35" height="1078.78" style="fill:none"/></clipPath></defs><g style="isolation:isolate"><g id="Layer_1" data-name="Layer 1"><g style="clip-path:url(#clip-path)"><path d="M616.7,1121.68C582.79,907.89,676.73,817,837.09,838c251.76,33-12.72-298.63,298.8-335.87,218.88-26.16,484.93-236.52,522.2-380.61S1914.89-132,2014.92-37.88s-96.57,934.55-96.57,934.55L827.91,1181.55Z" style="fill:#98ddfd;opacity:0.18;mix-blend-mode:multiply"/><path d="M819.34,1062.31c-63.6-171.49,21.16-240.24,110.17-219s200.86-76.45,114.55-318,164.21-403.78,340-349.78,256.46-460,552.76,1.63c275.07,428.54,39.55,925.34,39.55,925.34Z" style="fill:#caecff"/><path d="M1037.93,997.37c84.77,30.65,232.15-123.84,156.82-351s68.2-365.72,207.68-295.72S1580.61,76,1747.85,154.5c116.56,54.73,209.8,194,260.66,358.6,26,84.2,32.62,259.31,32.87,410.34,37.94-184.17,49.21-454.16-109.5-701.42-296.3-461.59-377,52.37-552.76-1.63s-426.3,108.17-340,349.77-25.55,339.29-114.55,318.06-173.77,47.5-110.17,219l93.2,3.23C886.77,997.83,963.16,970.33,1037.93,997.37Z" style="fill:#98ddfd;opacity:0.18;mix-blend-mode:multiply"/><path d="M1857.11,573.52c22.72,0,24-35.31,1.29-36.45-.62,0-1.24-.05-1.87-.05a36.63,36.63,0,0,0-11.61,1.88c-3-19.12-19.09-33.7-38.45-33.7-19.79,0-36.12,15.23-38.64,35a35,35,0,0,0-24.49-2.46c-19.86,5.28-15.69,35.81,4.82,35.81Z" style="fill:#98ddfd"/><ellipse cx="1441.85" cy="975.14" rx="510.99" ry="33" style="fill:#e0f4ff"/><ellipse cx="1270.03" cy="980.51" rx="90.03" ry="6.62" style="fill:#caecff"/><rect x="1153.03" y="502.15" width="612.09" height="449.35" rx="7.96" style="fill:#005cae"/><rect x="1246.25" y="485.29" width="391.2" height="483.09" rx="1.48" transform="translate(2168.68 -715.02) rotate(90)" style="fill:#caecff"/><path d="M1679.79,531.23H1203.91a3.66,3.66,0,0,0-3.6,3.72v10.66h462.78a3.66,3.66,0,0,1,3.6,3.72v373.1h13.1a3.66,3.66,0,0,0,3.6-3.72V535A3.66,3.66,0,0,0,1679.79,531.23Z" style="fill:#98ddfd"/><path d="M1743.55,726.83c0-11.24-8.82-20.35-19.7-20.35s-19.7,9.11-19.7,20.35,8.82,20.35,19.7,20.35S1743.55,738.07,1743.55,726.83Z" style="fill:#fff"/><path d="M1203.92,922.43h256c-14.33,10.83-25.52,20.56-41.38,29.08H1172.4c-10.7,0-19.37-9-19.37-20V522.15c0-11,8.67-20,19.37-20h414.45q5.12,14.26,9.05,29.06h-392a3.67,3.67,0,0,0-3.62,3.74V918.71A3.67,3.67,0,0,0,1203.92,922.43Z" style="fill:#006dc2"/><rect x="1299" y="186.16" width="4.62" height="232.88" style="fill:#4d99e0"/><rect x="1630.25" y="186.16" width="4.62" height="286.37" style="fill:#4d99e0"/><path d="M1634.42,449.11l-343.53-41.43c-14.68-1.77-28,9.09-29.69,24.26l-25.64,226.94c-1.71,15.17,8.8,28.9,23.48,30.67L1602.58,731c14.68,1.77,28-9.09,29.68-24.26l25.64-226.94C1659.62,464.61,1649.11,450.88,1634.42,449.11Z" style="fill:#fff"/><path d="M1655.37,502.24l2.53-22.46c1.72-15.17-8.79-28.9-23.48-30.67l-343.53-41.43c-14.68-1.77-28,9.09-29.69,24.26l-2.54,22.46Z" style="fill:#005cae"/><path d="M1299.16,439a7.24,7.24,0,0,1-8,6.52,7.38,7.38,0,0,1-6.31-8.24,7.26,7.26,0,0,1,8-6.52A7.38,7.38,0,0,1,1299.16,439Z" style="fill:#fff"/><path d="M1333.62,443.2a7.25,7.25,0,0,1-8,6.52,7.39,7.39,0,0,1-6.31-8.24,7.25,7.25,0,0,1,8-6.52A7.37,7.37,0,0,1,1333.62,443.2Z" style="fill:#caecff"/><path d="M1369.34,447.51a7.26,7.26,0,0,1-8,6.52,7.39,7.39,0,0,1-6.31-8.25,7.25,7.25,0,0,1,8-6.51A7.37,7.37,0,0,1,1369.34,447.51Z" style="fill:#e6505b"/><path d="M1305.9,595.81l49.62-89.3,23.12,2.91-11.09,94.14,10,1.26-2.34,19.9-10-1.26-3,25.27-20.81-2.61,3-25.28-40.84-5.13Zm40.85,5.13,6.16-52.34-27.55,49.65Z" style="fill:#e6505b"/><path d="M1411.12,547.43c2.62-22.29,15.49-33.6,36.29-31s30.68,16.78,28,39.07L1466.93,628c-2.62,22.29-15.49,33.6-36.3,31s-30.67-16.78-28-39.07Zm12.49,76.5c-1.17,10,2.63,14.27,9.37,15.11s11.42-2.4,12.59-12.35l8.86-75.23c1.17-10-2.62-14.27-9.36-15.11s-11.43,2.4-12.6,12.35Z" style="fill:#e6505b"/><path d="M1495.48,619.63l49.62-89.3,23.11,2.91-11.08,94.14,10,1.26-2.35,19.9-10-1.26-3,25.28L1531,669.94l3-25.27-40.84-5.14Zm40.84,5.13,6.17-52.34-27.55,49.66Z" style="fill:#e6505b"/><path d="M1231.14,779.39s-4.64,21.25-3.86,43c.69,19.46-1.55,147.35-1.55,147.35h15.12s21.52-100.16,22.33-108.07,11.63-87,11.63-87Z" style="fill:#003c8c"/><path d="M1241.2,773.56s3.48,27.32,9.39,46.74,35,149.42,35,149.42h15.12s-2.78-100.16-3.83-108.07-8.7-87-8.7-87Z" style="fill:#004ea9"/><path d="M1286.83,969.69v10.9h28.78a1.71,1.71,0,0,0,.91-3.12c-4.21-2.9-11-6.89-17.22-7.78Z" style="fill:#003c8c"/><path d="M1226.5,969.69v10.9h28.78a1.71,1.71,0,0,0,.92-3.12c-4.21-2.9-11-6.89-17.22-7.78Z" style="fill:#003c8c"/><path d="M1281.47,631.79h0l-.08-.08a4,4,0,0,0-.38-.44,4.85,4.85,0,0,0-.52-.49,5.85,5.85,0,0,0-.48-.34,5.07,5.07,0,0,0-.84-.42,3.92,3.92,0,0,0-.51-.22,9.48,9.48,0,0,0-1.72-.4c-8.73-1.16-12.32,1.52-12.32,1.52s-10.05-1.14-15.55,3.78c-3.77,3.38-17.6,29.55,4.77,39,.68.29,1.33.54,2,.77l.6.19c.41.14.82.28,1.22.4l.68.18,1,.24.67.13c.3,0,.6.11.88.14l.63.07.78,0h.6l.69,0,.56-.06a6.17,6.17,0,0,0,.62-.09l.51-.11a4.94,4.94,0,0,0,.55-.15l.46-.16a4.25,4.25,0,0,0,.49-.21,3.42,3.42,0,0,0,.43-.21l.42-.25.38-.26.38-.3c.11-.1.23-.19.34-.3l.32-.33c.1-.11.21-.22.31-.34l.27-.36.27-.38c.08-.12.15-.24.22-.37s.17-.28.24-.42.11-.23.16-.34c2.39-5,1-12.29,1-12.29l7-12.5S1284.72,636.55,1281.47,631.79Z" style="fill:#003c8c"/><path d="M1264.5,654s-2.93-3-5.13,0-.74,9.85,2.93,10.23c0,0-1.1,9.85-8.43,9.47v7.95h17.23v-6.06s10.63-4.54,10.27-13.63a51.66,51.66,0,0,0-2.94-15.53S1272.57,653.26,1264.5,654Z" style="fill:#fcbc9b"/><path d="M1267.14,678.16c1.7.73,1.4,1.84,1.48,3.51h2.48v-6.06s-4.18,1.37-10.29-2.23C1260.81,673.38,1264.37,677,1267.14,678.16Z" style="fill:#f09f7f"/><path d="M1270.66,639.52s-8.93-3.67-10-.92c-.69,1.81,1,3.36,3.44,4.94l-2.11.35a.58.58,0,0,0-.26,1c.58.48,2.2.81,5.58.94Z" style="fill:#fcbc9b"/><polygon points="1217.53 739.6 1229.5 779.44 1229.29 777.43 1229.5 779.44 1233.54 721.42 1217.53 739.6" style="fill:none"/><path d="M1334.45,662.64c-17-13-63.55-23.47-63.55-23.47l-3.84,7.22s42.23,16.9,39.45,19.42c-1.64,1.49-22.28,11.26-29.27,14.55a10.71,10.71,0,0,1-4.8,1l-21.38-.12s-15.43-1.89-27.56,12.51c-10.85,12.9-29.29,42.76-29.29,42.76l31.06,47.2,3.44,5.22,0-.07,0,.44s1.11.13,3.06.31c10,1,42,3.57,58.93-.14l.47-.11-.8-77.42A295.14,295.14,0,0,0,1335,667.38,3.31,3.31,0,0,0,1334.45,662.64ZM1230.21,768.22l-3-6.84-9.65-21.79,16-18.53-2.88,40.67Z" style="fill:#54c4f0"/><polygon points="1227.18 761.38 1230.21 768.23 1228.74 788.87 1228.71 788.93 1225.27 783.72 1227.18 761.38" style="fill:#00b2e8"/><path d="M1283.14,709.16c-2.88,2.16-2.15,21.31-2.86,33.28-1.19,20-2.35,37.4-1.49,48.59a83.32,83.32,0,0,0,11.91-1.55l.47-.11-.8-77.42A295.14,295.14,0,0,0,1335,667.38a3.31,3.31,0,0,0-.5-4.74A385.75,385.75,0,0,1,1283.14,709.16Z" style="fill:#00b2e8"/><path d="M1296.88,861.64c-.75-5.7-5-48.47-7.22-71.85L1278.79,791s15.85,134.63,16.89,178.69h5S1297.93,869.55,1296.88,861.64Z" style="fill:#003c8c"/><path d="M1124.08,931.82s-4.66-4.5-1.53-21.56,11.06-33.44,7.17-51.94-34.42-65.17-34.52-68.27-9.42,54.28,6.37,76.89,17.68,30.45,17,42.33.16,21.47,1.89,24.23Z" style="fill:#3f87ca"/><path d="M1121.19,897.51c-1.84,7.61-2.94,26.69,0,31.26.27.42.67.18,1.16-.61-.9-3.15-1.48-8.68.21-17.9,3.12-17.06,11.06-33.44,7.17-51.94s-34.42-65.17-34.52-68.27c0,0,4.6,38.87,20.09,65.63C1126.38,874.84,1123,889.9,1121.19,897.51Z" style="fill:#4d99e0"/><path d="M1129.64,930.63s-9-23.13,6.23-43.15,39.51-45.74,40-55.93c0,0,6.25,48.37-13.53,62.06s-33.66,15.87-30.23,36.94Z" style="fill:#3f87ca"/><path d="M1151,883.88c-22,16.59-23.86,35.69-20.43,44.55a2.22,2.22,0,0,0,1.43,1.34c-3-20.33,10.8-22.65,30.34-36.16,19.78-13.69,13.53-62.06,13.53-62.06S1173.05,867.3,1151,883.88Z" style="fill:#4d99e0"/><path d="M1114.9,931.15a83.6,83.6,0,0,0,1.34-25.47c-1.53-13.22-14.9-20.66-27.39-34.62-6.43-7.19-8.33-45.19-4.34-48.72,0,0-22.06,27.62-18.66,47.83s39.38,33.36,42.71,43.13a55.68,55.68,0,0,1,3.06,18Z" style="fill:#3f87ca"/><path d="M1077.05,833.21c-7.29,20.39.19,45.09,24.4,60.43,17.83,11.3,12.15,34.78,12.15,34.78l2.91-9.26a75.38,75.38,0,0,0-.27-13.48c-1.53-13.22-14.9-20.66-27.39-34.62-6.2-6.93-8.19-42.52-4.74-48.2A120.85,120.85,0,0,0,1077.05,833.21Z" style="fill:#4d99e0"/><path d="M1084.11,822.86l.4-.52A2.22,2.22,0,0,0,1084.11,822.86Z" style="fill:#3f87ca;opacity:0.56"/><path d="M1134.26,929.62s5.17-19.81,18-22.48,27.47-22.18,28.26-26C1180.47,881.13,1178.32,917.94,1134.26,929.62Z" style="fill:#3f87ca"/><path d="M1151.48,913.69c-7.83,4-11.09,9.49-12.25,14.43,39.23-13,41.24-47,41.24-47a14.39,14.39,0,0,1-2,3.87C1174.63,892,1165.32,906.54,1151.48,913.69Z" style="fill:#4d99e0"/><path d="M1161.92,922.33h-66.86l7.94,51.59a7.88,7.88,0,0,0,7.7,6.79h35.58a7.87,7.87,0,0,0,7.7-6.79Z" style="fill:#98ddfd"/><path d="M1145.73,922.33h-50.67l1.31,8.53h48l-6.63,43.06a7.87,7.87,0,0,1-7.7,6.79h16.2a7.87,7.87,0,0,0,7.7-6.79l7.94-51.59Z" style="fill:#3f87ca;opacity:0.56"/><rect x="1338.99" y="830.31" width="302.21" height="63.48" style="fill:#e6505b"/><rect x="1338.99" y="830.31" width="302.21" height="15.41" style="fill:#ae3d45;opacity:0.29;mix-blend-mode:multiply"/><polygon points="1365.27 830.31 1392.85 830.31 1385.45 845.73 1357.86 845.73 1365.27 830.31" style="fill:#f57e2e"/><polygon points="1427.41 830.31 1454.99 830.31 1447.6 845.73 1420.02 845.73 1427.41 830.31" style="fill:#f57e2e"/><polygon points="1489.55 830.31 1517.13 830.31 1509.74 845.73 1482.16 845.73 1489.55 830.31" style="fill:#f57e2e"/><polygon points="1551.69 830.31 1579.26 830.31 1571.87 845.73 1544.3 845.73 1551.69 830.31" style="fill:#f57e2e"/><polygon points="1641.2 830.31 1641.2 830.74 1634 845.73 1606.44 845.73 1613.84 830.31 1641.2 830.31" style="fill:#f57e2e"/><rect x="1376.61" y="893.8" width="21.3" height="86.8" style="fill:#98ddfd"/><rect x="1583.93" y="893.8" width="21.3" height="86.8" style="fill:#98ddfd"/><rect x="1376.61" y="820.4" width="21.3" height="9.86" style="fill:#98ddfd"/><rect x="1583.93" y="820.4" width="21.3" height="9.86" style="fill:#98ddfd"/><polygon points="1376.61 904.66 1393.07 904.66 1393.07 980.59 1397.91 980.59 1397.91 904.66 1397.91 893.8 1397.91 893.73 1376.61 893.73 1376.61 904.66" style="fill:#3f87ca;opacity:0.56"/><polygon points="1583.93 904.66 1598.93 904.66 1598.93 980.59 1605.23 980.59 1605.23 904.66 1605.23 893.8 1605.23 893.73 1583.93 893.73 1583.93 904.66" style="fill:#3f87ca;opacity:0.56"/><polygon points="1393.07 829.02 1376.61 829.02 1376.61 830.26 1397.91 830.26 1397.91 830.25 1397.91 829.02 1397.91 820.4 1393.07 820.4 1393.07 829.02" style="fill:#3f87ca;opacity:0.56"/><polygon points="1598.93 820.4 1598.93 829.02 1583.93 829.02 1583.93 830.26 1605.23 830.26 1605.23 830.25 1605.23 829.02 1605.23 820.4 1598.93 820.4" style="fill:#3f87ca;opacity:0.56"/><polygon points="1392.85 830.31 1362.37 893.79 1338.99 893.79 1338.99 885.03 1365.27 830.31 1392.85 830.31" style="fill:#fff"/><polygon points="1427.41 830.31 1396.93 893.79 1424.51 893.79 1454.99 830.31 1427.41 830.31" style="fill:#fff"/><polygon points="1517.13 830.31 1486.66 893.79 1459.07 893.79 1489.55 830.31 1517.13 830.31" style="fill:#fff"/><polygon points="1579.26 830.31 1548.8 893.79 1521.22 893.79 1551.69 830.31 1579.26 830.31" style="fill:#fff"/><polygon points="1613.84 830.31 1583.36 893.79 1610.93 893.79 1641.2 830.74 1613.84 830.31" style="fill:#fff"/><polygon points="1392.85 830.31 1385.45 845.73 1357.86 845.73 1365.27 830.31 1392.85 830.31" style="fill:#e0f4ff"/><polygon points="1454.99 830.31 1447.6 845.73 1420.02 845.73 1427.41 830.31 1454.99 830.31" style="fill:#e0f4ff"/><polygon points="1517.13 830.31 1509.74 845.73 1482.16 845.73 1489.55 830.31 1517.13 830.31" style="fill:#e0f4ff"/><polygon points="1579.26 830.31 1571.87 845.73 1544.3 845.73 1551.69 830.31 1579.26 830.31" style="fill:#e0f4ff"/><polygon points="1641.2 830.74 1634 845.73 1606.44 845.73 1613.84 830.31 1641.2 830.74" style="fill:#e0f4ff"/><ellipse cx="1386.7" cy="806.62" rx="18.99" ry="19.62" style="fill:#e6505b"/><path d="M1395.31,806.62a8.61,8.61,0,1,0-8.61,8.89A8.75,8.75,0,0,0,1395.31,806.62Z" style="fill:#fff"/><ellipse cx="1594.46" cy="806.62" rx="18.99" ry="19.62" style="fill:#e6505b"/><path d="M1603.06,806.62a8.61,8.61,0,1,0-8.6,8.89A8.75,8.75,0,0,0,1603.06,806.62Z" style="fill:#fff"/><path d="M1755.69,973.87h-96.25L1674.16,937v0l5.93-14.88,1.63-4.08,2.66-6.64.54-1.35,5.92-14.87,1.09-2.71,10.49-26.32a5.5,5.5,0,0,1,10.29,0l10.5,26.32,1.08,2.71,5.92,14.87.55,1.35,2.66,6.64,1.63,4.08L1741,937v0Z" style="fill:#e6505b"/><polygon points="1665.75 958.06 1659.45 973.86 1755.7 973.86 1749.39 958.06 1665.75 958.06" style="fill:#ae3d45;opacity:0.29;mix-blend-mode:multiply"/><rect x="1651.75" y="964.41" width="110.24" height="16.1" style="fill:#98ddfd"/><rect x="1738.17" y="964.41" width="23.82" height="16.1" style="fill:#3f87ca;opacity:0.56"/><path d="M1751.9,964.41h-13.61L1727.35,937v0l-5.92-14.88L1719.8,918l-2.66-6.64-.54-1.35-5.92-14.88-1.09-2.7-8.82-22.16,1.65-4.16a5.5,5.5,0,0,1,10.29,0l10.5,26.32,1.08,2.7,5.92,14.88.55,1.35,2.66,6.64,1.63,4.08L1741,937v0Z" style="fill:#ae3d45;opacity:0.29;mix-blend-mode:multiply"/><polygon points="1730.21 910.03 1684.92 910.03 1690.84 895.16 1724.29 895.16 1730.21 910.03" style="fill:#fff"/><polygon points="1740.97 936.98 1740.97 937 1674.16 937 1674.16 936.98 1680.09 922.1 1735.05 922.1 1740.97 936.98" style="fill:#fff"/><polygon points="1730.21 910.03 1716.6 910.03 1710.68 895.16 1724.29 895.16 1730.21 910.03" style="fill:#e0f4ff"/><polygon points="1740.97 936.98 1740.97 937 1727.35 937 1727.35 936.98 1721.43 922.1 1735.05 922.1 1740.97 936.98" style="fill:#e0f4ff"/><path d="M1554.91,359.55c22.71,0,24-35.31,1.29-36.45-.62,0-1.24,0-1.87,0a36.8,36.8,0,0,0-11.6,1.87c-3-19.11-19.09-33.69-38.45-33.69-19.78,0-36.11,15.24-38.62,35a35,35,0,0,0-24.49-2.45c-19.85,5.28-15.68,35.8,4.82,35.8Z" style="fill:#98ddfd"/><path d="M1174.22,472.53a14.62,14.62,0,0,0,14.41-12.75,29.91,29.91,0,0,0,.27-4c0-16.39-12.86-29.67-28.72-29.67-.66,0-1.3,0-1.94.07-1.31-16.16-14.41-28.86-30.4-28.86-16.85,0-30.51,14.12-30.51,31.53,0,.77,0,1.53.09,2.29a29.55,29.55,0,0,0-16.29-4c-15.32.72-27.92,13.39-29,29.2,0,.12,0,.25,0,.37a14.81,14.81,0,0,0,14.57,15.81Z" style="fill:#98ddfd"/></g></g></g></svg>