<svg xmlns="http://www.w3.org/2000/svg" viewBox="0 0 1199 1192"><defs><style>.cls-1{isolation:isolate;}.cls-2{fill:#82bfea;}.cls-3{fill:#f6b492;}.cls-4{fill:#e8976a;}.cls-15,.cls-5{fill:#fff;}.cls-5{mix-blend-mode:soft-light;}.cls-6{fill:#f5ae89;}.cls-7{fill:#fbe2d5;}.cls-8{fill:#f9bfa0;}.cls-9{fill:#4793d0;}.cls-10{fill:#edcf84;}.cls-11{fill:#eeedec;}.cls-12{fill:#3680c3;}.cls-13{fill:#90caef;}.cls-14{fill:#3d3e3e;}.cls-16{fill:#fad3cc;}.cls-17{fill:#ef7c7e;}.cls-18{fill:#010101;opacity:0.1;mix-blend-mode:hard-light;}.cls-19{fill:#4188c8;}.cls-20{fill:#86bae6;}.cls-21{fill:#4388c8;}.cls-22{fill:#c3dff6;}.cls-23{fill:#cce3f7;}.cls-24{fill:#d6e9fa;}.cls-25{fill:#5e9ed6;}.cls-26{fill:#3c3c3b;}.cls-27{fill:#fef07e;}.cls-28{fill:#ffe5a8;}.cls-29{fill:#47b383;}</style></defs><g class="cls-1"><g id="Layer_1" data-name="Layer 1"><path class="cls-2" d="M1080.06,1136.77H100.81c-92.93,0,39.85-62.45,39.85-62.45H1020.3S1163.61,1136.77,1080.06,1136.77Z"/><rect class="cls-3" x="297.31" y="969.07" width="104.1" height="133.68"/><polygon class="cls-4" points="401.42 1102.75 401.42 969.07 462.55 969.07 461.59 1102.75 401.42 1102.75"/><rect class="cls-5" x="336.2" y="969.07" width="15.56" height="30.42" transform="translate(687.96 1968.56) rotate(180)"/><polygon class="cls-4" points="249.26 1102.75 249.26 969.07 297.31 969.07 296.56 1102.75 249.26 1102.75"/><rect class="cls-6" x="225.89" y="864.79" width="77.13" height="104.28"/><polygon class="cls-4" points="234.9 969.07 234.9 864.79 174.13 864.79 174.94 969.07 234.9 969.07"/><rect class="cls-5" x="260.55" y="864.79" width="12.14" height="23.73"/><rect class="cls-3" x="354.29" y="864.79" width="77.13" height="104.28"/><polygon class="cls-4" points="354.29 969.07 354.29 864.79 302.53 864.79 303.34 969.07 354.29 969.07"/><rect class="cls-3" x="293.71" y="761.62" width="77.13" height="104.28"/><polygon class="cls-4" points="293.71 865.9 293.71 761.62 241.94 761.62 242.75 865.9 293.71 865.9"/><polygon class="cls-7" points="389.45 791.48 312.32 791.48 293.71 761.62 370.83 761.62 389.45 791.48"/><polygon class="cls-3" points="318.5 761.62 241.37 761.62 222.76 731.75 299.89 731.75 318.5 761.62"/><polygon class="cls-7" points="225.08 790.17 276.84 790.17 293.71 761.62 241.94 761.62 225.08 790.17"/><polygon class="cls-7" points="157.26 893.34 218.03 893.34 234.9 864.79 174.13 864.79 157.26 893.34"/><rect class="cls-4" x="385.15" y="864.79" width="46.27" height="104.28"/><polygon class="cls-7" points="480.89 894.65 403.77 894.65 385.15 864.79 462.28 864.79 480.89 894.65"/><rect class="cls-8" x="162.98" y="969.07" width="107.84" height="133.68"/><rect class="cls-5" x="209.12" y="969.07" width="15.56" height="30.42" transform="translate(433.8 1968.56) rotate(180)"/><rect class="cls-9" x="172.11" y="437.28" width="275.6" height="170.72" rx="41.19"/><path class="cls-10" d="M218.69,480.41h20.24V472.3a4.89,4.89,0,0,0-4.89-4.89H205.71V487c0,1.17-.62,2.12-1.79,2.12h0c-1.17,0-1.63-1-1.63-2.12V467.41h-4.9a4.89,4.89,0,0,0-4.9,4.89V496h26.57a1.65,1.65,0,0,1,1.66,1.42,1.59,1.59,0,0,1-1.57,1.74H192.49V509a4.89,4.89,0,0,0,4.9,4.89H234a4.89,4.89,0,0,0,4.89-4.89V483.63H218.6a1.6,1.6,0,0,1-1.6-1.78A1.67,1.67,0,0,1,218.69,480.41Z"/><rect class="cls-11" x="370.87" y="560.46" width="56.14" height="28.33"/><rect class="cls-11" x="192.49" y="531.12" width="52.39" height="13.22"/><rect class="cls-11" x="252.26" y="531.12" width="53.37" height="13.22"/><rect class="cls-11" x="372.19" y="531.12" width="54.51" height="13.22"/><rect class="cls-11" x="313.98" y="531.12" width="50.43" height="13.22"/><rect class="cls-10" x="192.81" y="560.46" width="161.58" height="17.07"/><rect class="cls-11" x="357.5" y="453.33" width="69.51" height="19.9"/><path class="cls-12" d="M437.76,231.87c7.46-44.16,75.46-64.1,74.13-35.27l311.76,1.82c21.6.13,39.11,19.56,39.13,43.41l.64,819.94c0,24.72-17.79,44.93-39.8,45.12l-318.26,2.73c-2,4.14-5.67,7.92-11.5,11.07-36.5.78-54-17.25-60.4-37.62a49.21,49.21,0,0,1-3.16-17.89C431.57,1054.5,435.45,242.23,437.76,231.87Z"/><path class="cls-13" d="M497.27,1120.82l365.31-2.36c22.8-.14,41.24-20.9,41.2-46.33L902.41,228.9c0-24.52-18.19-44.45-40.55-44.52l-358.22-1.16c-22.53-.08-41,19.82-41.15,44.45L456,1074.8C455.81,1100.35,474.28,1121,497.27,1120.82Z"/><path class="cls-14" d="M492.22,1114.69a32.29,32.29,0,0,0,4.62.28l365.2-2.76c19.59-.15,35.6-18.34,35.57-40.54l-1.26-842.31c0-21.41-15.79-38.88-35-39l-358.19-1.56c-.56,0-1.13,0-1.69,0a33.86,33.86,0,0,0-23.73,11.55,40.52,40.52,0,0,0-10.09,26.81l-6.41,848C461.08,1095.33,474.36,1112.29,492.22,1114.69Z"/><polygon class="cls-15" points="480.2 231.51 474.04 1076.54 885.46 1074.08 884.41 231.51 480.2 231.51"/><path class="cls-16" d="M599.32,231.51,696.88,364a1,1,0,0,0,0,.17c-1,26,54.67,26.08,56.37.06,0-.06,0-.11,0-.17L657.05,231.51Z"/><path class="cls-17" d="M657.05,231.51l96.22,132.55a1,1,0,0,0,0,.17c-1.23,26,54.39,26.07,56.36.06a1,1,0,0,0,0-.17L714.75,231.51Z"/><path class="cls-17" d="M541.59,231.51,640.48,364v.17c0,.1,0,.2,0,.3-.86,24.21,54.93,27.16,56.42-.25,0-.05,0-.11,0-.17L599.32,231.51Z"/><path class="cls-16" d="M479.84,231.51,582.28,363.89v.17c-.65,33.75,56.53,29.76,58.17.36,0-.1,0-.2,0-.3V364L541.59,231.51Z"/><path class="cls-16" d="M887.79,231.51H830.13l92.18,132.72c0,.06,0,.12,0,.17-2,26,55.49,26.06,58.28.06a1,1,0,0,0,0-.17Z"/><path class="cls-16" d="M714.75,231.51l94.88,132.61v.17c-1.5,26,54.1,26.06,56.33.06,0-.06,0-.11,0-.17L772.45,231.51Z"/><path class="cls-17" d="M772.45,231.51,866,364.18a1,1,0,0,0,0,.17c-1.76,26,53.82,26.06,56.32,0a.88.88,0,0,0,0-.17L830.13,231.51Z"/><path class="cls-18" d="M696.87,364.17c-1.49,27.41-57.28,24.46-56.42.25-1.64,29.4-58.82,33.39-58.17-.36Z"/><path class="cls-18" d="M696.88,364.17l56.37.06C751.55,390.25,695.92,390.19,696.88,364.17Z"/><path class="cls-18" d="M753.26,364.23l56.36.06C807.65,390.3,752,390.25,753.26,364.23Z"/><path class="cls-18" d="M809.63,364.29l56.33.06C863.73,390.35,808.13,390.3,809.63,364.29Z"/><path class="cls-18" d="M866,364.35l56.32,0C919.79,390.41,864.21,390.35,866,364.35Z"/><path class="cls-18" d="M980.58,364.46c-2.79,26-60.3,26-58.28-.06Z"/><polygon class="cls-19" points="864.95 1025.08 506.02 1025.08 506.02 1011.19 864.95 1011.24 864.95 1025.08"/><polygon class="cls-19" points="864.95 889.97 506.02 889.44 506.02 875.54 864.95 876.13 864.95 889.97"/><polygon class="cls-19" points="864.95 754.85 506.02 753.79 506.02 739.89 864.95 741.01 864.95 754.85"/><polygon class="cls-19" points="864.95 619.74 506.02 618.14 506.02 604.25 864.95 605.9 864.95 619.74"/><path class="cls-19" d="M832.88,458.72,538.69,457a19.56,19.56,0,0,1-19.21-19.69,19.27,19.27,0,0,1,19.21-19.46l294.19,1.94a19.4,19.4,0,0,1,19,19.58A19.12,19.12,0,0,1,832.88,458.72ZM538.69,419.15a18,18,0,0,0-17.93,18.16,18.27,18.27,0,0,0,17.93,18.39l294.19,1.73a17.84,17.84,0,0,0,17.73-18.06,18.12,18.12,0,0,0-17.73-18.29Z"/><path class="cls-19" d="M832.88,420.43l-30.61-.2V457.9l30.61.18a18.47,18.47,0,0,0,18.36-18.71A18.75,18.75,0,0,0,832.88,420.43Z"/><path class="cls-15" d="M821.54,444.65a9.44,9.44,0,0,1-6.73-2.9,9.93,9.93,0,0,1,0-13.79,9.27,9.27,0,0,1,6.73-2.81,9.4,9.4,0,0,1,6.73,2.9h0a9.92,9.92,0,0,1,0,13.78A9.32,9.32,0,0,1,821.54,444.65Zm0-17.15a7,7,0,0,0-5.1,2.14,7.52,7.52,0,0,0,0,10.46,7.12,7.12,0,0,0,5.1,2.19,7,7,0,0,0,5.11-2.13,7.54,7.54,0,0,0,0-10.46A7.13,7.13,0,0,0,821.54,427.5Z"/><polygon class="cls-15" points="833.86 449.32 826.65 441.82 828.27 440.17 835.48 447.67 833.86 449.32"/><path class="cls-15" d="M837.08,451h0a2,2,0,0,1-2.92,0l-6-6.23,2.92-3,6,6.22A2.18,2.18,0,0,1,837.08,451Z"/><polygon class="cls-20" points="620.15 592.92 519.48 592.45 519.48 489.63 620.15 490.22 620.15 592.92"/><polygon class="cls-20" points="737.33 593.48 636.91 593 636.91 490.32 737.33 490.9 737.33 593.48"/><polygon class="cls-20" points="851.59 594.02 751.42 593.54 751.42 490.99 851.59 491.57 851.59 594.02"/><polygon class="cls-20" points="620.15 730.8 519.48 730.48 519.48 627.66 620.15 628.1 620.15 730.8"/><polygon class="cls-20" points="737.33 731.18 636.91 730.86 636.91 628.17 737.33 628.61 737.33 731.18"/><polygon class="cls-20" points="851.59 731.55 751.42 731.23 751.42 628.67 851.59 629.1 851.59 731.55"/><polygon class="cls-20" points="620.15 866.28 519.48 866.11 519.48 763.29 620.15 763.57 620.15 866.28"/><polygon class="cls-20" points="737.33 866.48 636.91 866.31 636.91 763.62 737.33 763.91 737.33 866.48"/><polygon class="cls-20" points="851.59 866.68 751.42 866.51 751.42 763.95 851.59 764.24 851.59 866.68"/><polygon class="cls-20" points="620.15 1001.76 519.48 1001.73 519.48 898.91 620.15 899.05 620.15 1001.76"/><polygon class="cls-20" points="737.33 1001.79 636.91 1001.76 636.91 899.07 737.33 899.21 737.33 1001.79"/><polygon class="cls-20" points="851.59 1001.82 751.42 1001.79 751.42 899.23 851.59 899.37 851.59 1001.82"/><path class="cls-21" d="M597.4,567.48l-2.24-.69c.05-.16,3.94-17.18,4.25-23.66a26.75,26.75,0,0,0-6.91-20c-5.59-6-14.1-9.52-23.36-9.57-9-.05-16.92,3-22.17,8.66-4.83,5.18-7.14,12.29-6.69,20.56.36,6.54,3.63,23,3.67,23.15l-2.3.46c-.13-.68-3.34-16.78-3.7-23.49-.49-8.94,2-16.66,7.32-22.33,5.69-6.11,14.17-9.45,23.87-9.4,9.89.06,19,3.82,25.06,10.32,5.34,5.76,7.95,13.27,7.54,21.74C601.42,550,597.6,566.79,597.4,567.48Z"/><path class="cls-21" d="M541.8,555.33,544.85,572a3.53,3.53,0,0,0,3.67,2.92l-4.3-23.62A3.54,3.54,0,0,0,541.8,555.33Z"/><path class="cls-21" d="M548.94,574.84l6.57-1.22L551.17,550l-6.58,1.23a2.22,2.22,0,0,0-.37.09l4.3,23.62A2,2,0,0,0,548.94,574.84Z"/><path class="cls-22" d="M557.26,576h0a3.72,3.72,0,0,1-4.32-3L549,551.54a3.76,3.76,0,0,1,3-4.4h0a3.73,3.73,0,0,1,4.31,3l3.93,21.38A3.75,3.75,0,0,1,557.26,576Z"/><path class="cls-21" d="M597.51,555.85l-3.46,16.52a3.49,3.49,0,0,1-3.74,2.79l4.88-23.45A3.59,3.59,0,0,1,597.51,555.85Z"/><path class="cls-21" d="M589.9,575.1l-6.54-1.46,4.93-23.5,6.53,1.46.37.11-4.88,23.45A2.9,2.9,0,0,1,589.9,575.1Z"/><path class="cls-22" d="M581.56,575.91h0A3.68,3.68,0,0,0,586,573l4.45-21.21a3.8,3.8,0,0,0-2.84-4.5h0a3.67,3.67,0,0,0-4.39,2.88l-4.45,21.22A3.8,3.8,0,0,0,581.56,575.91Z"/><polygon class="cls-23" points="699.83 526.98 697.46 531.29 654.36 531.05 654.36 568.76 719.91 569.08 719.91 531.86 717.32 527.08 699.83 526.98"/><polygon class="cls-23" points="694.7 533.17 679.59 533.09 679.59 526.87 694.7 526.96 694.7 533.17"/><polygon class="cls-23" points="674.55 533.06 659.42 532.98 659.42 526.76 674.55 526.85 674.55 533.06"/><polygon class="cls-21" points="719.91 561.78 654.36 561.45 654.36 539.69 719.91 540.04 719.91 561.78"/><path class="cls-21" d="M715.36,550.88a15.11,15.11,0,0,1-15,15.29,15.3,15.3,0,0,1-15-15.44,15.11,15.11,0,0,1,15-15.29A15.3,15.3,0,0,1,715.36,550.88Z"/><path class="cls-23" d="M712,550.87a11.71,11.71,0,0,1-11.65,11.85,11.87,11.87,0,0,1-11.65-12,11.71,11.71,0,0,1,11.65-11.85A11.85,11.85,0,0,1,712,550.87Z"/><path class="cls-21" d="M705.9,550.83a5.59,5.59,0,0,1-5.57,5.67,5.66,5.66,0,0,1-5.57-5.72,5.59,5.59,0,0,1,5.57-5.67A5.67,5.67,0,0,1,705.9,550.83Z"/><path class="cls-21" d="M608.8,844.84c-.51-10.35-23.65-16.86-23.65-16.86s-21.18-23.31-30-35c-15.08,5.88-18.67,13.17-16.43,25.86,7.35-6.24,19.88,5.23,35.12,25.92Z"/><path class="cls-21" d="M538.69,818.85l5,27h2.42c.68-12.14,2.19-25.89,10.22-21.49C556.36,813.51,538.69,813.47,538.69,818.85Z"/><path class="cls-24" d="M576.63,643.84a18.37,18.37,0,0,1-.88-4.19h-1.12a15,15,0,0,1-.51,3.36c-.79,3-3,5.18-5.63,5.31-2.63-.15-4.85-2.39-5.64-5.36a16.39,16.39,0,0,1-.51-3.36h-1.12a18.4,18.4,0,0,1-.88,4.18,22,22,0,0,1-5.38,8.36l1.8,16.85L568,669h1l11.24.05L582,652.24A22.23,22.23,0,0,1,576.63,643.84Z"/><path class="cls-24" d="M594.64,713.24c-5,5.12-46.1,5.49-52.32-.18,2.81-15.94,6.48-31.34,14.43-44.08l23.47.1C587.33,680.12,591.39,696,594.64,713.24Z"/><path class="cls-21" d="M570.53,673.07c-9.51,0-14-4.11-14.2-4.28a.37.37,0,0,1,0-.51.35.35,0,0,1,.49,0c.05,0,4.51,4.06,13.73,4.09h0c8.2,0,9.34-3.35,9.35-3.38a.33.33,0,0,1,.43-.23.35.35,0,0,1,.24.44c0,.16-1.22,3.92-10,3.89Z"/><path class="cls-21" d="M569.56,679.54a1,1,0,0,1-.76-.44c-1.72-2.15,2.57-6.2,3.06-6.65l.77-.71-.19,1c-.27,1.49-1.26,6.36-2.67,6.73A.66.66,0,0,1,569.56,679.54Zm2-5.75c-1.33,1.42-3.07,3.74-2.18,4.86.07.09.17.19.25.17C570.18,678.67,571,676.27,571.52,673.79Z"/><path class="cls-21" d="M571.72,673.58l0-.87c0-.22.14-5.25,2.07-6.94a2.16,2.16,0,0,1,1.78-.54,1.27,1.27,0,0,1,1.14.82c.6,1.85-3.56,6.09-4.4,6.92Zm3.56-7.66a1.45,1.45,0,0,0-1,.4c-1.24,1.07-1.65,4-1.78,5.47,1.76-1.86,3.89-4.54,3.57-5.51,0-.07-.08-.27-.57-.34Z"/><path class="cls-21" d="M578.75,678.81a.37.37,0,0,1-.32-.2,11,11,0,0,0-6.42-5.55.35.35,0,0,1-.25-.44.33.33,0,0,1,.42-.25,11.52,11.52,0,0,1,6.88,5.92.36.36,0,0,1-.16.48A.28.28,0,0,1,578.75,678.81Z"/><path class="cls-24" d="M696.52,926.5a21,21,0,0,1-1-4.8h-1.29a17.66,17.66,0,0,1-.58,3.86c-.9,3.39-3.44,6-6.45,6.11-3-.17-5.56-2.73-6.46-6.12a18.5,18.5,0,0,1-.58-3.86h-1.29a21,21,0,0,1-1,4.8,25.24,25.24,0,0,1-6.16,9.6l2.06,19.33h26.87l2.06-19.32A25.35,25.35,0,0,1,696.52,926.5Z"/><path class="cls-24" d="M708.05,970.74a79.48,79.48,0,0,0-7.42-15.31l-26.89,0a90.1,90.1,0,0,0-7.51,15.3C672.24,977,702.68,978,708.05,970.74Z"/><path class="cls-21" d="M689.52,960c-10.89,0-16-4.65-16.26-4.85a.42.42,0,0,1,0-.58.39.39,0,0,1,.56,0c.05,0,5.17,4.64,15.72,4.64h0c9.4,0,10.69-3.87,10.7-3.91a.4.4,0,0,1,.5-.27.42.42,0,0,1,.27.51c0,.18-1.4,4.5-11.47,4.49Z"/><path class="cls-21" d="M688.42,967.47a1.1,1.1,0,0,1-.87-.5c-2-2.46,2.93-7.12,3.5-7.64l.88-.81-.22,1.19c-.3,1.7-1.44,7.3-3.06,7.73A1.6,1.6,0,0,1,688.42,967.47Zm2.24-6.6c-1.52,1.63-3.52,4.3-2.49,5.58.08.1.19.22.28.19C689.12,966.47,690.05,963.71,690.66,960.87Z"/><path class="cls-21" d="M690.9,960.63l0-1c0-.24.16-6,2.38-8a2.49,2.49,0,0,1,2-.62,1.42,1.42,0,0,1,1.31.94c.68,2.11-4.08,7-5,7.95Zm4.07-8.8a1.67,1.67,0,0,0-1.15.46c-1.42,1.24-1.89,4.56-2,6.28,2-2.13,4.45-5.22,4.09-6.33,0-.08-.1-.31-.66-.39Z"/><path class="cls-21" d="M698.94,966.6a.41.41,0,0,1-.36-.23,12.54,12.54,0,0,0-7.36-6.34.41.41,0,0,1-.29-.5.4.4,0,0,1,.49-.29A13.19,13.19,0,0,1,699.3,966a.42.42,0,0,1-.19.55A.33.33,0,0,1,698.94,966.6Z"/><path class="cls-23" d="M675.55,654.92s7.07,2.38,17.41-.29c6.62,8.19-5,12.09-12.33,10.32S675.55,654.92,675.55,654.92Z"/><path class="cls-21" d="M693,654.63a8.37,8.37,0,0,1-3.84,5.43c-5,2.92-11.35-.21-13.57-5.14a47.31,47.31,0,0,0-9.82,2.19v56.47l39,.13V657.27A45.12,45.12,0,0,0,693,654.63Z"/><polygon class="cls-21" points="665.73 657.11 648.93 670.34 659.98 685.14 676.42 672.67 665.73 657.11"/><polygon class="cls-21" points="704.85 657.27 721.65 670.62 710.61 685.33 694.16 672.74 704.85 657.27"/><path class="cls-21" d="M764.22,704.52h-.78v3.36s42,3,58.5.2,17.65-8.41,17.65-8.41v-3.45H839Z"/><path class="cls-24" d="M838.93,697.85c-4.33,5.72-17.44,7.44-33.86,7.65-6.76.1-14.08-.06-21.58-.3-6.37-.22-12.88-.48-19.27-.68-.64-4.8,1-13.73,2.34-18.65a18.35,18.35,0,0,1,1.07-3.24l.24-.09c2.19,3,7.56,4.87,10.74,4.81,5.19-.1,11-3.73,9.37-8.11a11.62,11.62,0,0,1-.63-1.63c-1.34-4.36,2.32-4.38,7.79-1a64.64,64.64,0,0,0,25.29,9.54c1.45.23,2.81.42,4.11.58C834.31,688,839.81,688.08,838.93,697.85Z"/><path class="cls-21" d="M838.38,697.85c-4.33,5.72-17.44,7.44-33.86,7.65-.48-2.41-.89-8.75,7.56-10.3A17.45,17.45,0,0,0,824,686.76C833.77,688,839.26,688.07,838.38,697.85Z"/><path class="cls-21" d="M782.94,705.2c-6.37-.22-12.88-.48-19.27-.68-.64-4.8,1-13.73,2.34-18.65C771.46,687.81,781.12,692.93,782.94,705.2Z"/><path class="cls-21" d="M820.43,686.18c-1.24,2-3.16,2-5,2-16.6-1.16-25-7.77-28.08-10.59-1.34-4.36,2.32-4.38,7.79-1A64.64,64.64,0,0,0,820.43,686.18Z"/><path class="cls-24" d="M800.72,706.13c-8.52,0-17-.51-24-.9-6.13-.35-11-.62-12.94-.39l-.32,0-.08-.65.32,0c2-.24,6.9,0,13,.38,19.49,1.1,55.75,3.15,62-8.51l.15-.29.57.32-.16.29C835,704.41,817.88,706.19,800.72,706.13Z"/><polygon class="cls-21" points="812.97 576.4 791.87 576.29 791.87 510.63 812.97 510.75 812.97 576.4"/><path class="cls-23" d="M820.18,542.63a18.75,18.75,0,0,1-18.65,19,19,19,0,0,1-18.66-19.19,18.75,18.75,0,0,1,18.66-19A19,19,0,0,1,820.18,542.63Z"/><path class="cls-21" d="M816.55,542.61a15.1,15.1,0,0,1-15,15.29,15.29,15.29,0,0,1-15-15.45,15.09,15.09,0,0,1,15-15.29A15.29,15.29,0,0,1,816.55,542.61Z"/><polygon class="cls-23" points="786.32 533.99 783.93 532.26 786.77 528.13 789.16 529.87 786.32 533.99"/><rect class="cls-23" x="781.54" y="542.54" width="2.92" height="5.07" transform="translate(-64.56 107.08) rotate(-7.51)"/><polygon class="cls-23" points="816.61 534.05 819.03 532.38 816.24 528.18 813.83 529.86 816.61 534.05"/><polygon class="cls-23" points="818.2 547.79 821.1 548.21 821.75 543.19 818.86 542.78 818.2 547.79"/><path class="cls-23" d="M801.57,543.36l-7.33-3.91a.72.72,0,0,1-.3-1,.68.68,0,0,1,.94-.3l6.61,3.52,9.32-6.06a.7.7,0,0,1,1,.22.73.73,0,0,1-.22,1Z"/><path class="cls-21" d="M651,830.91a79.11,79.11,0,0,0,14.23,2.6,214.56,214.56,0,0,0,30.51,1c9.62-.38,17.64-1.51,20.67-3.48,0,0,6.41-38.92-31.41-39.88l-1.29,0C644.46,791.05,651,830.91,651,830.91Z"/><path class="cls-23" d="M665.26,833.51a214.56,214.56,0,0,0,30.51,1c5.34-35.35-9.92-43-10.74-43.36l0,0h-1.26C663.81,802.48,664.79,827.87,665.26,833.51Z"/><path class="cls-25" d="M712.35,832.53s-10.7,18.16-60.35,14c-21.26-1.8-1-15.57-1-15.57C664.41,834.21,690.18,835.77,712.35,832.53Z"/><path class="cls-21" d="M789.61,802.06l22.88.06a24,24,0,0,1,23.8,24.07c0,5.31-1.69,10-5.69,12.49l-60.31-.12c-3.81-1.82-5.28-8.14-4.27-15.7A23.86,23.86,0,0,1,789.61,802.06Z"/><path class="cls-21" d="M793.07,802.69l0-.21a8.69,8.69,0,0,1,17.34,0l0,.21h2.95l0-.46a11.63,11.63,0,0,0-23.2-.06l0,.46Z"/><polygon class="cls-24" points="798.99 838.62 793.33 838.61 793.33 815.96 798.99 815.97 798.99 838.62"/><polygon class="cls-24" points="810.19 838.64 804.53 838.63 804.53 815.99 810.19 816 810.19 838.64"/><path class="cls-21" d="M602,975.31c-8.83,7.6-54.66,7.58-62.16,0-1.38-14.63.11-27.57,4.16-39a132.31,132.31,0,0,1,53.84,0C602,946.73,603.84,963.65,602,975.31Z"/><path class="cls-25" d="M544,936.25s3.56,21.93,28.51,21.79,25.33-21.74,25.33-21.74S572.26,929.88,544,936.25Z"/><path class="cls-23" d="M570.92,965.81h0a2.47,2.47,0,0,1-2.43-2.49v-9a2.45,2.45,0,0,1,2.43-2.48h0a2.46,2.46,0,0,1,2.43,2.48v9A2.46,2.46,0,0,1,570.92,965.81Z"/><path class="cls-21" d="M794.89,925.44s6.42,2.14,15.84-.31c6,7.44-4.6,11-11.23,9.43S794.89,925.44,794.89,925.44Z"/><path class="cls-24" d="M810.73,925.13a7.67,7.67,0,0,1-3.5,5c-4.51,2.68-10.33-.16-12.34-4.64a42.63,42.63,0,0,0-8.95,2v51.46h35.49V927.49A41.31,41.31,0,0,0,810.73,925.13Z"/><polygon class="cls-24" points="785.94 927.46 770.65 939.55 780.71 953.01 795.68 941.61 785.94 927.46"/><polygon class="cls-24" points="821.54 927.49 836.84 939.62 826.79 953.05 811.82 941.62 821.54 927.49"/><rect class="cls-21" x="805.56" y="942.41" width="10.39" height="10.63"/><circle class="cls-26" cx="208.18" cy="308.15" r="17.15"/><path class="cls-26" d="M268.87,254.4l7.28-8.28c-40.82-41-104.45-39.47-143.27,3.38l7.67,7.92C175.36,219.14,232.28,217.79,268.87,254.4Z"/><path class="cls-26" d="M253.75,271.61l7.28-8.29c-32-31.91-81.73-30.74-112.22,2.62l7.68,7.92C183,245.07,226,244.06,253.75,271.61Z"/><path class="cls-26" d="M239.12,288.27,246.4,280c-23.52-23.14-59.74-22.3-82.15,1.89l7.67,7.92C190.32,270.16,219.83,269.48,239.12,288.27Z"/><rect class="cls-15" x="452.03" y="58.36" width="293.34" height="58.34" rx="22.3"/><polygon class="cls-27" points="498.88 75.17 501.95 84.61 511.88 84.61 503.84 90.45 506.91 99.9 498.88 94.06 490.84 99.9 493.91 90.45 485.88 84.61 495.81 84.61 498.88 75.17"/><polygon class="cls-27" points="547.7 75.17 550.77 84.61 560.7 84.61 552.67 90.45 555.74 99.9 547.7 94.06 539.67 99.9 542.74 90.45 534.7 84.61 544.63 84.61 547.7 75.17"/><polygon class="cls-27" points="596.53 75.17 599.6 84.61 609.53 84.61 601.5 90.45 604.56 99.9 596.53 94.06 588.49 99.9 591.56 90.45 583.53 84.61 593.46 84.61 596.53 75.17"/><polygon class="cls-27" points="645.36 75.17 648.42 84.61 658.36 84.61 650.32 90.45 653.39 99.9 645.36 94.06 637.32 99.9 640.39 90.45 632.35 84.61 642.29 84.61 645.36 75.17"/><polygon class="cls-27" points="694.18 75.17 697.25 84.61 707.18 84.61 699.15 90.45 702.22 99.9 694.18 94.06 686.14 99.9 689.21 90.45 681.18 84.61 691.11 84.61 694.18 75.17"/><rect class="cls-20" x="928.36" y="86.09" width="196.67" height="121.83" rx="29.39"/><path class="cls-28" d="M961.6,116.87h14.45v-5.79a3.49,3.49,0,0,0-3.49-3.49H952.34v14c0,.84-.44,1.51-1.28,1.51h0c-.83,0-1.16-.67-1.16-1.51v-14h-3.5a3.49,3.49,0,0,0-3.49,3.49V128h19a1.18,1.18,0,0,1,1.18,1,1.13,1.13,0,0,1-1.12,1.25h-19v7a3.49,3.49,0,0,0,3.49,3.49h26.16a3.5,3.5,0,0,0,3.49-3.49V119.17H961.54a1.16,1.16,0,0,1-1.15-1.27A1.19,1.19,0,0,1,961.6,116.87Z"/><rect class="cls-19" x="1070.2" y="173.99" width="40.06" height="20.22"/><rect class="cls-19" x="942.91" y="153.05" width="37.39" height="9.43"/><rect class="cls-19" x="985.56" y="153.05" width="38.08" height="9.43"/><rect class="cls-19" x="1071.14" y="153.05" width="38.9" height="9.43"/><rect class="cls-19" x="1029.6" y="153.05" width="35.99" height="9.43"/><rect class="cls-19" x="943.13" y="173.99" width="115.3" height="12.18"/><rect class="cls-19" x="1060.66" y="97.55" width="49.61" height="14.2"/><path class="cls-15" d="M407,168.51c-13.13-33.51-31.86-33-175.92-33a24,24,0,0,1-24-24V70.76a24,24,0,0,1,24-24H383a24,24,0,0,1,24,24Z"/><circle class="cls-12" cx="240.13" cy="89.44" r="8.15" transform="translate(110.9 310.71) rotate(-80.14)"/><circle class="cls-12" cx="282.67" cy="89.44" r="8.15" transform="translate(104.84 326.67) rotate(-70.7)"/><circle class="cls-12" cx="325.21" cy="89.44" r="8.15" transform="translate(163.44 385.4) rotate(-76.72)"/><circle class="cls-12" cx="367.75" cy="89.44" r="8.15" transform="translate(44.47 286.23) rotate(-45)"/><circle class="cls-29" cx="801.01" cy="92.25" r="27.43" transform="translate(527.19 850.64) rotate(-76.72)"/><polygon class="cls-15" points="799.35 105.13 786.84 84.98 789.02 82.75 799.47 92.91 831.88 64.82 833.92 67.5 799.35 105.13"/></g></g></svg>