<svg xmlns="http://www.w3.org/2000/svg" xmlns:xlink="http://www.w3.org/1999/xlink" viewBox="0 0 400 300"><defs><linearGradient id="linear-gradient" x1="251.05" y1="218.42" x2="173.82" y2="36.83" gradientUnits="userSpaceOnUse"><stop offset="0" stop-color="#f59d5a"/><stop offset="1" stop-color="#ffd257"/></linearGradient></defs><g style="isolation:isolate"><g id="Layer_1" data-name="Layer 1"><path d="M295.49,61.35H185.43c-28.24,1.88-28.11,33-28.11,33h0V242.94h110.2V94.33S268.05,63.12,295.49,61.35Z" style="fill:#e8913a"/><rect x="149.64" y="96.21" width="1.27" height="114.38" style="fill:#fbbf56"/><path d="M276.7,43.91H209.47V6.67H276.7Zm-66-1.27h64.69V7.94H210.74Z" style="fill:#fbbf56"/><path d="M150.91,82.75H83.68V35.91h67.23ZM85,81.48h64.69V37.18H85Z" style="fill:#fbbf56"/><path d="M341.4,157.44H274.18V120.06H341.4Zm-65.95-1.27h64.68V121.33H275.45Z" style="fill:#fbbf56"/><path d="M291.09,59.33c-27.44,1.78-28,33-28,33V240.92H152.92V92.31s-.13-31.1,28.11-33Z" style="fill:url(#linear-gradient)"/><rect x="167.39" y="98.15" width="75.7" height="6.68" style="fill:#ffdc95"/><rect x="167.39" y="113.6" width="64.63" height="4.73" style="fill:#ffdc95"/><rect x="167.39" y="126.09" width="32.49" height="7.03" style="fill:#ffdc95"/><rect x="209.48" y="126.09" width="33.6" height="7.03" style="fill:#ffdc95"/><rect x="167.39" y="139.62" width="51.76" height="5.01" style="fill:#ffdc95"/><rect x="167.39" y="152.14" width="58.32" height="2.78" style="fill:#ffdc95"/><rect x="167.39" y="164.67" width="70.13" height="2.78" style="fill:#ffdc95"/><path d="M200.12,192.73h-33V177h33Zm-32.49-.47h32V177.43h-32Z" style="fill:#ffdc95"/><rect x="208.02" y="177.19" width="29.5" height="3.62" style="fill:#ffdc95"/><rect x="208.02" y="184.84" width="20.91" height="3.62" style="fill:#ffdc95"/><rect x="167.39" y="202.24" width="63.07" height="2.78" style="fill:#ffdc95"/><rect x="167.39" y="214.76" width="33.22" height="2.78" style="fill:#ffdc95"/><path d="M291.51,143.1l-3.25-5.32a.92.92,0,0,1,1.58-1l2.3,3.76,6.11-3.61a.92.92,0,0,1,1.27.32.93.93,0,0,1-.33,1.27Z" style="fill:#fdc958"/><path d="M293.69,151.31a11.69,11.69,0,1,1,11.69-11.69A11.71,11.71,0,0,1,293.69,151.31Zm0-21.71a10,10,0,1,0,10,10A10,10,0,0,0,293.69,129.6Z" style="fill:#fdc958"/><polygon points="237.66 21.39 237.89 26.31 239.84 26.22 239.46 17.98 231.04 18.37 231.13 20.32 236.22 20.08 227.25 29.92 217.92 21.42 216.6 22.87 227.38 32.68 237.66 21.39" style="fill:#fdc958"/><path d="M108,53.12a4.73,4.73,0,0,0-.85-.69,9.44,9.44,0,0,0-1.28-.7,10.13,10.13,0,0,0-3.4-.89l0,6.59.6.12a26.71,26.71,0,0,1,3.1.94,8.68,8.68,0,0,1,2.33,1.25,5,5,0,0,1,1.48,1.8,5.81,5.81,0,0,1,.51,2.59,6.35,6.35,0,0,1-.61,2.88,5.74,5.74,0,0,1-1.68,2,7.61,7.61,0,0,1-2.48,1.19,11.87,11.87,0,0,1-3,.41v3.34H101v-3.4a16.14,16.14,0,0,1-4.35-.93,13.68,13.68,0,0,1-3.78-2.09l1.63-3.05a5.63,5.63,0,0,0,1,.83,11.58,11.58,0,0,0,1.55.87,15.42,15.42,0,0,0,2,.73,12.2,12.2,0,0,0,2.21.46l0-6.59-.4-.11-.4-.11a27.67,27.67,0,0,1-2.94-.95,7.19,7.19,0,0,1-2.07-1.2,4.72,4.72,0,0,1-1.26-1.64,5.59,5.59,0,0,1-.42-2.28,6.91,6.91,0,0,1,.55-2.77,6,6,0,0,1,1.54-2.07,7,7,0,0,1,2.31-1.36,10.51,10.51,0,0,1,2.91-.61V44.44h1.65v3.21a12.32,12.32,0,0,1,3.82.84,13.94,13.94,0,0,1,3.08,1.7Zm-10.5.79a2.28,2.28,0,0,0,.93,2,9.12,9.12,0,0,0,2.84,1.18l0-6.26a4.65,4.65,0,0,0-2.86.89A2.75,2.75,0,0,0,97.48,53.91Zm9.15,10.59a2.34,2.34,0,0,0-1.1-2.12,12,12,0,0,0-3.12-1.3l0,6.3a5.88,5.88,0,0,0,3.14-.75A2.41,2.41,0,0,0,106.63,64.5Z" style="fill:#fdc958"/><rect x="118.06" y="49.25" width="26.4" height="3.76" style="fill:#dfd5cf"/><rect x="118.06" y="57.45" width="20.75" height="3.76" style="fill:#dfd5cf"/><rect x="118.06" y="65.66" width="23.29" height="3.76" style="fill:#dfd5cf"/><rect x="310.23" y="132.77" width="18.87" height="3.76" style="fill:#dfd5cf"/><rect x="310.23" y="140.98" width="21.17" height="3.76" style="fill:#dfd5cf"/><rect x="245.52" y="15.2" width="24" height="3.76" style="fill:#dfd5cf"/><rect x="245.52" y="23.41" width="18.87" height="3.76" style="fill:#dfd5cf"/><rect x="245.52" y="31.62" width="21.17" height="3.76" style="fill:#dfd5cf"/><polygon points="291.73 182.28 271.33 182.28 271.33 181.01 290.46 181.01 290.46 158.26 291.73 158.26 291.73 182.28" style="fill:#dfd5cf"/><polygon points="193.91 57.1 192.64 57.1 192.64 50.49 236.88 50.49 236.88 45.83 238.16 45.83 238.16 51.76 193.91 51.76 193.91 57.1" style="fill:#dfd5cf"/><polygon points="144.47 135.14 121.25 135.14 121.25 85.07 122.53 85.07 122.53 133.87 144.47 133.87 144.47 135.14" style="fill:#dfd5cf"/><path d="M271.35,114.82h-1.27V99.68c0-.25-1.64-29.27,22.86-33.5l.21,1.26c-23.37,4-21.82,31.92-21.8,32.2Z" style="fill:#fbbf56"/><polygon points="344.64 143.9 343.37 143.9 343.37 118.23 315.83 118.23 315.83 116.96 344.64 116.96 344.64 143.9" style="fill:#fbbf56"/><polygon points="106.25 86.57 80.1 86.57 80.1 61.93 81.37 61.93 81.37 85.3 106.25 85.3 106.25 86.57" style="fill:#fbbf56"/><polygon points="207.71 23.41 206.44 23.41 206.44 4.01 238.89 4.01 238.89 5.28 207.71 5.28 207.71 23.41" style="fill:#fbbf56"/><polygon points="271.97 247.31 248.16 247.31 248.16 246.04 270.7 246.04 270.7 209.94 271.97 209.94 271.97 247.31" style="fill:#fbbf56"/><path d="M253.75,222.09H233V201.37h20.73Zm-18.82-1.9h16.91V203.27H234.93Z" style="fill:#ffdc95"/><polygon points="243.71 216.03 236.43 209.17 238.61 206.86 243.85 211.8 255.3 202.4 257.31 204.86 243.71 216.03" style="fill:#ffdc95"/><path d="M237.09,162.43a56.13,56.13,0,0,0-84.17-15.11v12.87a46.88,46.88,0,0,1,82.52,28.62q0,.87,0,1.74A46.88,46.88,0,0,1,152.92,221v12.87a55.27,55.27,0,0,0,11,7.06h49.46c1.16-.57,2.3-1.18,3.43-1.84A56.08,56.08,0,0,0,237.09,162.43Z" style="fill:#40444f;opacity:0.24;mix-blend-mode:hard-light"/><rect x="49.87" y="252.38" width="90.62" height="15.41" transform="translate(334.82 398.94) rotate(140.19)" style="fill:#ef7c59"/><rect x="129.43" y="223.68" width="4.84" height="11.69" transform="translate(380.09 321.43) rotate(140.19)" style="fill:#e66947"/><path d="M125.6,218.75a56.07,56.07,0,1,0,20.33-76.65A56.07,56.07,0,0,0,125.6,218.75Zm8-4.62a46.87,46.87,0,1,1,87.37-25.32h0a46.87,46.87,0,0,1-87.37,25.32Z" style="fill:#4a505d"/><path d="M129.4,176.45s48.81-37.06,91.53,12.36h0a46.87,46.87,0,0,0-91.53-12.36Z" style="fill:#c3c2c2;opacity:0.30000000000000004"/><path d="M257.29,212.7a9.08,9.08,0,0,1-1.87.48,4.68,4.68,0,0,0-2.28,1.29,35.25,35.25,0,0,0-2.8,3.35c0,.33.63.22.85,0s2.37-2.39,2.37-2.39a24.24,24.24,0,0,0-2.39,3c0,.32.38.58.82.31a.56.56,0,0,0,1,.09l1.25-1.24s-.53.76.17.54c.37-.12,1.6-1.69,1.95-1.93a18,18,0,0,0,1.67-2.25Z" style="fill:#eea886"/><path d="M265.83,264.51a8.84,8.84,0,0,1-1.47,2.19c-.55.36-3.65,3.38-4.29,3.66s-2.69.66-2.66,1.63,5.29.67,6.31.31,2.75-2.69,3.44-2.66.44,2.85.44,2.85h.75a21.29,21.29,0,0,0,.91-4,38.44,38.44,0,0,0-.61-3.94Z" style="fill:#162d40"/><path d="M278.65,263.38a6.36,6.36,0,0,1-1.06,2.44,40,40,0,0,1-3.77,3.59c-.62.29-1.83.49-2.2.95s-.15,1.81,2.2,1.66,3.13-.12,3.69-.59,2.37-2.11,2.91-2.16v2.61h.65s1.14-3.42.73-4.87a14.42,14.42,0,0,1-.39-3.4Z" style="fill:#162d40"/><path d="M277.72,185.88s1.07,2.77.24,4.91c0,0,3.94-.25,4.09-.7s-.16-4.59.38-5.82S277.72,185.88,277.72,185.88Z" style="fill:#eea886"/><path d="M284.86,223a3.13,3.13,0,0,0-.2,1,4.77,4.77,0,0,1-.24,1.25,12.35,12.35,0,0,0-.21,2,8.39,8.39,0,0,1,.47,1.23c0,.29-.05.87.2.86s.45-.53.45-.53,0,.26.24.31a.6.6,0,0,0,.62-.11s.2.25.39.25a.79.79,0,0,0,.59-.22.75.75,0,0,0,.49.06.67.67,0,0,0,.46-.44s.48,0,.57-.25a2.42,2.42,0,0,0,.06-.69,7.63,7.63,0,0,0-1.15-3.15,3.39,3.39,0,0,1-.4-2.61Z" style="fill:#eea886"/><path d="M283.62,232.75l-.49-3.38a1,1,0,0,1,.84-1.12l5.35-.78a1,1,0,0,1,1.13.84l.49,3.37a1,1,0,0,1-.85,1.13l-5.34.78A1,1,0,0,1,283.62,232.75Zm.45-3.84a.33.33,0,0,0-.28.37l.49,3.37a.33.33,0,0,0,.37.28l5.35-.78a.33.33,0,0,0,.28-.37l-.49-3.37a.34.34,0,0,0-.37-.28Z" style="fill:#101f2c"/><rect x="278.41" y="231.4" width="19.94" height="14.52" transform="matrix(-0.99, 0.14, -0.14, -0.99, 608.02, 433.47)" style="fill:#eedad3"/><path d="M285.24,228.75s-.32-1.6,0-2,.51.14.51.14-.16-.56.28-.74.57.5.57.5a.47.47,0,0,1,.49-.46c.49,0,.48.57.48.57s.36-.65.74-.18a2.43,2.43,0,0,1,.35,1.95s-.1.27-.57.25a.65.65,0,0,1-.95.38s-.62.54-1,0A.56.56,0,0,1,285.24,228.75Z" style="fill:#db9c7c"/><path d="M277.34,189.86s-2.33.8-3.39,1-3.25,1.24-3.07,5.06a75.72,75.72,0,0,0,1.07,8.78,33.6,33.6,0,0,1-.3,7.86,30.43,30.43,0,0,0,12.16,0,26.31,26.31,0,0,1-1.13-4.36c0-.9,3.88-8.28,4.06-9.44s1-6.31-.81-7.44-3.19-1-3.94-1.49S278.43,189.49,277.34,189.86Z" style="fill:#e94847"/><path d="M274.34,190.79s-2.57-.07-4.39,4-2.27,6.4-2.69,7a19.5,19.5,0,0,1-3.32,3.85c-1.43,1.08-7.4,7.13-7.4,7.13l1.64,2.1s8.6-6.09,9.5-7.14,6.34-9,6.66-10.16S277.18,192,274.34,190.79Z" style="fill:#e94847"/><path d="M289.77,210.83c0,1.61-1.66,12.62-1.66,12.62l-3.16.13s1-10.91,1.37-13.42a12.43,12.43,0,0,0-.16-3.15h0c-.11-.8-.26-1.64-.42-2.44-.44-2.21-.94-4.14-.94-4.14s-2.86-9.4,1.53-8.71a10.77,10.77,0,0,1,2,4.63,55.15,55.15,0,0,1,.89,8.7C289.14,206.7,289.76,209.64,289.77,210.83Z" style="fill:#e94847"/><path d="M271.65,212.59a26.9,26.9,0,0,0-1.1,3c-.09.61-3.28,8.53-3.5,10.85s-.9,8.61-1.13,9.5.53,4.9.65,5.8.06,15.53-1,22.76c0,0,2.51,1.08,4.42,0,0,0,3.17-11.29,3-17.8s-1-9.26,0-11.89,6.93-10.52,7.53-11.35,4.34-5.46.79-10.47S271.65,212.59,271.65,212.59Z" style="fill:#1d3b54"/><path d="M283.88,234c-.31,2.09,0,4.84.68,12.49s-1.15,16.91-1.15,16.91a9.17,9.17,0,0,1-4.89,0c.06-.54,0-18.64,0-20.26s-.46-3.44-.58-5.29a37.62,37.62,0,0,0-1.33-6l-.6-2.12h0q-.17-.59-.33-1.14c-.93-3.22-2.18-15.68-2.18-15.68s6.94-5.59,10.31-.33,1.64,9.08,1.53,9.74S284.2,231.89,283.88,234Z" style="fill:#1d3b54"/><path d="M271.11,202.81s.47,9.41-1.77,14.83a32.59,32.59,0,0,0,16.94,0s-2-6.74-1.89-7.78,3.74-12.92,2.64-15.71S272.21,194,271.11,202.81Z" style="fill:#e94847"/><path d="M279.93,175c-1.67-.19-6,.15-5.65,6.63s2.69,6.09,5.05,5.41,5.17-5.71,5.17-7.05S284.68,175.51,279.93,175Z" style="fill:#eea886"/><path d="M274.52,178.64s1.88,2.39,3.76,3a7.36,7.36,0,0,0,4,3.25s5.4-5.16.85-9.05S274.49,176.66,274.52,178.64Z" style="fill:#fbcda3"/><path d="M277.93,180.71a.81.81,0,0,1,1.45-.27c.61.81-.5,2.69-.92,2.69S277.69,182.06,277.93,180.71Z" style="fill:#eea886"/><path d="M283.89,177c.13-.2,4.22-2,5.07,1.81s-3.29,8.33-4,10.26,0,6.5,0,6.5a15.08,15.08,0,0,1-2.92-4.76C281.19,188.15,280.91,181.5,283.89,177Z" style="fill:#fbcda3"/><path d="M281,222.74c-.05.12-3.51,7.79-4.4,9.12l-.6-2.12h0Z" style="fill:#162d40"/><path d="M286.88,199.18a56.19,56.19,0,0,1-.72,7.83c-.11-.8-.26-1.64-.42-2.44C285.76,204.46,286.76,199.94,286.88,199.18Z" style="fill:#ac3435"/><path d="M164.28,224.13a2.87,2.87,0,0,1,.57.79,4.52,4.52,0,0,0,.69.92,11.06,11.06,0,0,1,1,1.59,7.78,7.78,0,0,0,.09,1.19c.11.23.39.69.18.77s-.58-.25-.58-.25a.32.32,0,0,1-.07.35.47.47,0,0,1-.57.08s-.05.36-.21.43a.53.53,0,0,1-.56,0,.65.65,0,0,1-.39.31.56.56,0,0,1-.54-.23s-.39.17-.56,0a1.69,1.69,0,0,1-.33-.47,7,7,0,0,1-.3-3,2.74,2.74,0,0,0-.78-2.22Z" style="fill:#eea886"/><path d="M167.79,233.9H162.3a1,1,0,0,1-1-1v-3.46a1,1,0,0,1,1-1h5.49a1,1,0,0,1,1,1v3.46A1,1,0,0,1,167.79,233.9Zm-5.49-4.8a.33.33,0,0,0-.33.33v3.46a.33.33,0,0,0,.33.33h5.49a.33.33,0,0,0,.33-.33v-3.46a.33.33,0,0,0-.33-.33Z" style="fill:#101f2c"/><rect x="154.75" y="232.42" width="20.59" height="14.75" style="fill:#fdcd66"/><path d="M156.3,193s-1.06,0-1.51,3.17.41,4.47.51,5.78,1.64,9.79,1.68,10.16.25,4.89.85,6.08,5,8,5.07,8.32,2.14-1.18,2.14-1.18-3.46-7.26-3.66-8.08-1.6-5.06-1.38-6.35-.62-8.41-.54-9.2S158.32,193.43,156.3,193Z" style="fill:#eea886"/><path d="M156.3,193s-1.06,0-1.51,3.17a12.9,12.9,0,0,0,.23,5.65c.26,1.29,1.13,9.19,1.18,9.56s1.08,5.14,1.63,6.81c.41,1.28,4.35,7.94,4.41,8.28s3-1.56,3-1.56-3.84-7.5-4-8.33a32.89,32.89,0,0,1-.88-5c0-1.54-1-9.09-.91-9.88S159.24,194,156.3,193Z" style="fill:#295173"/><path d="M147.48,266.49a30.8,30.8,0,0,0,2.57,3.38s1.71.6,1.81,1.75c.07.76,0,2-1.94,2s-3.2-.62-3.55-1.8a3.61,3.61,0,0,0-1-1.71v2.47h-.44s-.11-2.38-.14-2.82-.31-2.13.61-2.87A2.56,2.56,0,0,1,147.48,266.49Z" style="fill:#eedad3"/><path d="M159.93,264.31a7.9,7.9,0,0,0,.92,1.53c.44.58,1.81,2.93,2.41,3.1s2.47.49,2.63,1.53.25,1.78-1.59,1.87-3,.19-3.91-1.1a9.54,9.54,0,0,0-2.28-2.22v3.36h-.71a30.58,30.58,0,0,0-.52-3.74c-.19-.25-.69-2.94,1-4.33S159.93,264.31,159.93,264.31Z" style="fill:#eedad3"/><path d="M146.24,213.85a17.06,17.06,0,0,0-2.94,6.59c-.63,3.58.37,15.58.34,17.35s-1.67,6.17-1.34,9.5,3.07,19.63,3.07,19.63l2.11-.43s-.21-16.9,0-18.3.61-6.49.7-7.07,5.22-15.69,5.22-18.27S151.83,209.64,146.24,213.85Z" style="fill:#eea886"/><path d="M157.89,215s3.81,14.54,4.26,16.55a41.38,41.38,0,0,1,1.11,4.53,29.73,29.73,0,0,1-.74,5.17l-2.59,23h-2s-1.29-13.45-1.49-16.16,1.48-6.91,1.07-8.06-6.62-14.43-6.62-14.43S146.15,210.81,157.89,215Z" style="fill:#eea886"/><path d="M150.37,270a3,3,0,0,1-3.05-.26,5.93,5.93,0,0,1-1.95-2.83l2.11-.43Z" style="fill:#eea886"/><path d="M163.26,268.94s-1.64.41-2.27,0-2.77-4-3.48-4.25c0,0,.68-1.4,2.42-.38C159.93,264.31,162.8,268.34,163.26,268.94Z" style="fill:#eea886"/><path d="M162.77,233.9s-7,4.12-20.12,4.12c0,0-.75-15.22,1.16-19.5s14.57-1.62,14.57-1.62S162.32,230.75,162.77,233.9Z" style="fill:#1d3b54"/><path d="M153.2,191.81a21.19,21.19,0,0,0,2.75,1.1c.7.15,3.44,3.71,3.92,5s0,3.25-1,5.53,0,3.06-.5,5.34a53.06,53.06,0,0,0-.77,8.41c.09,1.27-11.43,1.51-14.06-.8,0,0,2.65-4,3-4.52s.05-3.65-.26-4.44-2.38-7.52-2.38-7.52-1.69-5.17-.16-6.36c1.33-1,4.95-1.39,5.6-1.62A10.9,10.9,0,0,1,153.2,191.81Z" style="fill:#eedad3"/><path d="M153.85,196.35l1.24-1.45L154,191.09A25.46,25.46,0,0,0,153.85,196.35Z" style="fill:#d6c5be"/><path d="M150.64,177.37c1.21-.42,5.65-1.47,6.69,4.21s-2.09,9.72-5,8.65-4.66-5-4.83-8A4.48,4.48,0,0,1,150.64,177.37Z" style="fill:#eea886"/><path d="M157.33,181.58s.22-4.86-4.61-5-6.13,3.81-5.74,6.71a7.12,7.12,0,0,0,2.4,4.43s-.18-2.35.76-2.95,4.7-1.83,6.34-4.65A4.25,4.25,0,0,1,157.33,181.58Z" style="fill:#262f3c"/><path d="M151.31,181.07a3.26,3.26,0,1,1-1.91-4.51A3.48,3.48,0,0,1,151.31,181.07Z" style="fill:#262f3c"/><path d="M154.18,189.46a49.52,49.52,0,0,0-.33,4.95s-2.11,2.12-4.51-2.47a6.31,6.31,0,0,0,.25-4.47C148.82,184.89,154.18,189.46,154.18,189.46Z" style="fill:#eea886"/><polygon points="153.85 194.41 153.85 196.35 151.42 194.53 153.85 194.41" style="fill:#eea886"/><polygon points="153.85 196.35 152.84 195.1 149.44 191.71 148.34 192.77 153.85 196.35" style="fill:#d6c5be"/><path d="M149,192s2.85,4.33,3,6.24a171.86,171.86,0,0,1-2,20.76c-1,4.59-7.89-.51-7.89-.51s4.66-7.54,2.87-13.58-2.44-8.45-2.44-8.45.62-3.36,2.8-3.83C147.19,192.25,149,192,149,192Z" style="fill:#295173"/><path d="M160.06,198.49s.52,1.83-1.49,5.86c0,0,0,5.15.09,6.76s.44,7.7.44,7.7l-2,1.16a.56.56,0,0,1-.84-.55c.56-4.63,2.39-22.21-1.56-26.94l1.59.47A12.84,12.84,0,0,1,160.06,198.49Z" style="fill:#295173"/><path d="M150.63,183.71a.74.74,0,0,0-1.1-.32c-.34.26-.54,1,0,2S152,187.08,150.63,183.71Z" style="fill:#eea886"/><polygon points="155.09 194.9 156.65 195.33 154.02 191.09 155.09 194.9" style="fill:#fbe6de"/><polygon points="152.84 195.1 151.42 196.96 148.5 192.09 149.44 191.71 152.84 195.1" style="fill:#fbe6de"/><path d="M154.09,190.29,154,191s-1.68.32-3.88-2.36A4.78,4.78,0,0,0,154.09,190.29Z" style="fill:#a77961"/><path d="M162.74,213.14s1,.63,1.55.28a3.65,3.65,0,0,1,1.59-.36c.35,0,1.39-.47,1.42,0s-1.69.82-2,1,1.17.89,1.34,1.24-1.2,2.79-2.17,2.16-1.61-1.94-1.81-2a6.73,6.73,0,0,1-.73-.42Z" style="fill:#eea886"/><path d="M144,193.34a2.78,2.78,0,0,1,2.56.93,13.29,13.29,0,0,1,2.09,4c.31.68,4.24,6.95,4.46,7.09s4.22,3.37,6,5.09a32.3,32.3,0,0,0,5.33,3.65L163.12,216s-10.71-5.71-12.07-7.8-6.77-7.88-6.77-7.88S141.05,195.45,144,193.34Z" style="fill:#eea886"/><path d="M166.41,215.05a26.75,26.75,0,0,1,3,2.42c.07.3-.06.45-.33.26s-2.83-2-2.83-2,3,3.07,3.09,3.31-.16.44-.32.35-3.28-3-3.28-3,2.77,2.88,2.81,3.1a.28.28,0,0,1-.46.23l-2.94-2.73a16.13,16.13,0,0,1,1.8,2.43c-.05.13-.23.4-.7-.19s-1.72-1.86-1.72-1.86Z" style="fill:#eea886"/><path d="M159,203.33a94.73,94.73,0,0,1-.3,9.55l-.17-8.53Z" style="fill:#1d3b54"/><path d="M144.68,192.87a4.17,4.17,0,0,1,2,1.4,13.53,13.53,0,0,1,2.09,4c.31.68,4.23,6.95,4.46,7.09a50.59,50.59,0,0,1,5.31,4.12,38.5,38.5,0,0,0,5.17,3.78L162,215.86s-9.44-5.23-10.94-7.22-7.3-8.38-7.3-8.38S140,194.57,144.68,192.87Z" style="fill:#295173"/><path d="M166.22,229s-.37-1.44-.83-1.65-.36.31-.36.31-.09-.52-.52-.49-.27.64-.27.64a.44.44,0,0,0-.59-.2c-.4.19-.16.66-.16.66s-.55-.39-.68.14a2.21,2.21,0,0,0,.47,1.74s.19.18.57,0a.59.59,0,0,0,.93-.05s.73.19.8-.42C165.58,229.64,166.36,229.81,166.22,229Z" style="fill:#db9c7c"/><path d="M151.12,210.15l-3.23-5.22,3,3.6.31.38S151.16,210,151.12,210.15Z" style="fill:#1d3b54"/><path d="M184.84,222.72a16.79,16.79,0,0,0,.61,2.05,27.83,27.83,0,0,1,.27,4.22c0,.36-.25.15-.37-.09s-.29-1.27-.5-1.88-.33-.7-.42-.53a11.24,11.24,0,0,0-.06,3.19c.2.9,0,3-.48,2.69s-1.6-4.08-1.5-5.5a18.28,18.28,0,0,1,.6-3.2Z" style="fill:#eea886"/><path d="M184.39,224.63s1.56-10.34,2-12.31c.19-.89.7-3.1,1-4.92.11-.6.2-1.22.27-1.83h0c.31-2.41.39-4.61.39-4.61s1.35-6.19-2.55-6.57c0,0-1.05.33-1.11.76-.24,1.65-.78,5.22-.8,6.07,0,.69-1,7.63-1,7.87,0,.48-.26,3.69-.36,5.1-.22,3.3-.31,10.66-.31,10.66Z" style="fill:#2e5497"/><path d="M183.15,268.74a7.38,7.38,0,0,1-3,2c-1.53.35-2.6.8-2.61,1.77s4.4,1.6,6.15.62c2.61-1.45,2.88-1,3.17-1.74s-.35-2.66-.33-2.89S183.15,268.74,183.15,268.74Z" style="fill:#212338"/><path d="M198.51,269.17a5.37,5.37,0,0,1-2.59,2c-1.46.37-2.4,1.08-2.48,2s3.45,2.16,5.92.52c1.62-1.09,2.23-1,2.56-1.71s-.17-2.62-.14-2.84S198.51,269.17,198.51,269.17Z" style="fill:#212338"/><path d="M183.32,267.93a6.83,6.83,0,0,0-.17.81s3.44.42,3.34-.21-.2-1.07-.2-1.07Z" style="fill:#82817f"/><path d="M198.56,268.36s-.07.8-.05.81,3.29.63,3.27,0a5.19,5.19,0,0,0-.21-1.11Z" style="fill:#82817f"/><path d="M186.42,220.77s-1.24,12.07-1.88,16.2c-.76,4.83-1,8.82-1.23,11.32-.26,3.14-.31,18.6-.5,19.52s4.12.26,4.12.26,2.11-20.21,2.9-23.56c.74-3.11,3.46-16.53,4.13-15.68s1.51,15.66,2,18.12,2,21.71,2,21.71,3.42.68,4.33-.09c0,0,.42-16.59.1-21.2-.12-1.76,2.06-21.07-.74-28.84C200.19,214.42,186.42,220.77,186.42,220.77Z" style="fill:#2a2c48"/><path d="M207.72,222.49a9.89,9.89,0,0,1-3,.47c-.87-.16-.43-10.92-.46-13.16a58,58,0,0,0-1-6.62h0a45.67,45.67,0,0,0-1.49,7.72c0,2.49.33,12,.33,12l-3.34,1.57-11.52.33-1.68,0s.26-5.63.36-7.56c.06-1.23.3-3.42.24-5.56a19.1,19.1,0,0,0-.19-3.22c0-4.28-.28-8.52-.28-8.52-.14-1.95-.24-3.76-.3-5.46l1.48-.75c1.4-.66,3.34-1.56,4.59-2.13.73-.33,1.44-.58,1.44-.58s5-.48,5.39-.45a11.84,11.84,0,0,1,1.57.54,57.85,57.85,0,0,1,5.72,2.42c.79.57,2.47,14.11,2.55,15.06C208.26,210.33,207.72,222.49,207.72,222.49Z" style="fill:#d9d5e0"/><path d="M198.26,190.6c-.37,3.36-4.1,3.36-4.1,3.36s-1.54-1.35-1.5-2.35a.17.17,0,0,0,0-.07c0-.18.23-.41.25-.78a.76.76,0,0,0,0-.15v-.15c0-.26,0-.51,0-.68s0-.12,0-.16a.45.45,0,0,0,0-.1s.61-.63,1.37-1.39c1.33-1.32,3.17-3,3.17-2.33a.57.57,0,0,1,0,.12C197.07,187.44,198.26,190.6,198.26,190.6Z" style="fill:#eea886"/><path d="M197.91,218.34s.3,1.9.32,2.4l.64-.13s-.17-2-.28-2.35Z" style="fill:#5e686d"/><path d="M208.38,229.43s-.2-2.67-.91-3.07-.29.41-.29.41.42,1.94.52,2.72A3.82,3.82,0,0,0,208.38,229.43Z" style="fill:#808380"/><polygon points="201.32 231.31 210.73 228.49 210.88 240.13 201.56 245.91 201.32 231.31" style="fill:#808380"/><polygon points="201.56 245.91 202.75 246.11 211.81 240.28 211.52 228.53 210.73 228.49 201.56 245.91" style="fill:#808380"/><path d="M195.71,192.58,194.16,194a6.79,6.79,0,0,0,2.13-.42Z" style="fill:#b4b2bb"/><path d="M185.87,223a88.41,88.41,0,0,0,13.68,0v2.09s-9.59,1.39-14-.4Z" style="fill:#2a2c48"/><path d="M191.45,191.64l-1.39.64-3.2,1.49c-.5.24-1.12.52-1.6.72.06,1.73.14,3.57.29,5.55,0,0,.14,4.83.41,9.41a8.43,8.43,0,0,1,.09,2c-.07.9-.16,1.88-.28,2.9v0l-.09.73h0a106.69,106.69,0,0,1-2.22,12.73c-.12.37.28.71.57,1l2,1.25s.83-7.57,1.1-10.14,1.09-5.8,1.45-9h0c.47-4.12,1.1-8.14,1.44-10.54a39.73,39.73,0,0,1,2.08-9Z" style="fill:#2e5497"/><path d="M204.12,209.9c.16,2.08-.72,13.58.16,13.74a20.37,20.37,0,0,0,4.1-.55s.4-12.4.27-13.7c-.09-.95-1.6-15.14-2.39-15.71-.46-.33-3.87-1.54-5.54-2.2l-.87-.34c-.36.4-4.11,7.35-4.41,13a77.4,77.4,0,0,0,.62,8.32c.33,3.16.69,5.63,1,8.28.52,5.22.89,9.36.89,9.36l5.19-2.31c.84-.42,2-2.14,1.68-3-1.2-3.36-2.71-9.11-2.71-12.05,0,0,.58-7.23,1-8.81A43.77,43.77,0,0,1,204.12,209.9Z" style="fill:#2e5497"/><path d="M205.09,223.5s-.26,1.16-.6,2.32-.68,1.54-.52,2.2c.12.5.69.86.83.7s.18-2.11,1-2.11-.2,2.41.28,2.23,2.3-1.22,2.17-2.2-.88-1.67-.85-3.14a3.13,3.13,0,0,0-.4-1.87Z" style="fill:#eea886"/><path d="M205.7,226.53s-1.06.29-.95,3.91l1.21-.22a12.41,12.41,0,0,1,.3-3.1S206.18,226.42,205.7,226.53Z" style="fill:#808380"/><path d="M204,215.71l0,9.14a15.89,15.89,0,0,0,4.34-1l.17-12.89Z" style="fill:#2e5497"/><path d="M192.46,192.82s-.13,1.91,1.48,2a4.21,4.21,0,0,0,2.9-1.5l-2.68.69-1.63-1.38Z" style="fill:#d9d5e0"/><path d="M198,190a23.74,23.74,0,0,1-2.33,2.61l1.31,2.19,2.26-3.84Z" style="fill:#ebe6f2"/><path d="M192.78,192.94l1.38,1a11.48,11.48,0,0,1-1.24-3.2Z" style="fill:#b4b2bb"/><polygon points="192.92 190.76 192.04 191.39 191.05 194.33 192.78 192.94 192.92 190.76" style="fill:#ebe6f2"/><path d="M185.78,206a42.42,42.42,0,0,1,.19,6.5c-.21,3.1-1.06,8.06-1.06,8.06S184.9,209.68,185.78,206Z" style="fill:#203b6b"/><path d="M188.53,180.93s-1,2.37-.34,2.65-.32,2.55-.42,2.93,1,.52,1.21.73,1.2,3,2.06,3a12.85,12.85,0,0,0,5.51-2.94c.93-1.21,1.28-6.22.36-8.23S190.25,176.79,188.53,180.93Z" style="fill:#eea886"/><path d="M188.34,181.44a3.47,3.47,0,0,1,.56-4.33c2.06-2,6.52.69,7,.76s3.29.67,2.36,4.94c-.84,3.8-.92,3.9-.92,3.9a10.4,10.4,0,0,0-1.63-2.31,4.64,4.64,0,0,0-2.46-.16s.57-2.19-.7-2.35S189.54,180.84,188.34,181.44Z" style="fill:#323657"/><path d="M194.44,182.9c.08-.3.3-1.58,1.44-1s-.34,3.13-.52,3.18S193.77,185.42,194.44,182.9Z" style="fill:#eea886"/><path d="M196.4,187.45a6.29,6.29,0,0,1-3.47,3.16v-.15c0-.26,0-.51,0-.68s0-.12,0-.16A15.56,15.56,0,0,0,196.4,187.45Z" style="fill:#a77961"/></g></g></svg>