<svg id="Layer_1" data-name="Layer 1" xmlns="http://www.w3.org/2000/svg" viewBox="0 0 400 300"><defs><style>.cls-1{fill:#ebf2f9;}.cls-2{fill:#a9d2a0;}.cls-3{fill:#afc9eb;}.cls-4{fill:#476ba4;}.cls-5{fill:#4174b9;}.cls-6{fill:#fff;}.cls-7{fill:#a0bee5;}.cls-8{fill:#486ca8;}.cls-9{fill:#385ea3;}.cls-10{fill:#e37a71;}.cls-11{fill:#ae7042;}.cls-12{fill:#415ea7;}.cls-13{fill:#365594;}.cls-14{fill:#b94e43;}.cls-15{fill:#ab453f;}.cls-16{fill:#d9935c;}.cls-17{fill:#ebbb57;}.cls-18{fill:#e7a429;}.cls-19{fill:#cc8857;}.cls-20{fill:#243862;}.cls-21{fill:#b64d41;}.cls-22{fill:#ab423f;}.cls-23{fill:#7896cd;}.cls-24{fill:#4d73b7;}.cls-25{fill:#db945b;}.cls-26{fill:#e49963;}.cls-27{fill:#19365e;}.cls-28{fill:#d78d5c;}.cls-29{fill:#82becc;}.cls-30{fill:#e8f1fb;}.cls-31{fill:#c55546;}.cls-32{fill:#609aa8;}.cls-33{fill:#1c478a;}.cls-34{opacity:0.5;}.cls-35{fill:#709ad1;}.cls-36{fill:#21304e;}</style></defs><path class="cls-1" d="M354.05,103c-16.33-13.94-36-98-103.48-54.2C215.72,71.44,157,29.42,108.31,43.93c-44.67,13.33-49,57.25-44.66,71.56C72.38,144.4,45.21,148.7,20,161.12c-39.54,19.48-10.47,87.95,26.88,88.27s263.64-.65,263.64-.65,54.26.14,76.82-29.81C411.64,186.71,396.24,139,354.05,103Z"/><path class="cls-2" d="M112.75,248.26s-19.48-11.85-17.29-22.65,22.89,6.59,22.89-5.3S103,193.67,113.24,189.1s32.13,11.31,30.91,28.09,22.95-4.1,32.9,8.42-6.12,22.65-6.12,22.65Z"/><path class="cls-2" d="M249.68,248.73S230.2,223,232.39,199.63s22.88,14.27,22.88-11.49-15.33-57.77-5.11-67.7S282.3,145,281.08,181.37,304,172.48,314,199.63s-6.11,49.1-6.11,49.1Z"/><path class="cls-3" d="M254.64,140.46l-5.84-.14c1.88,2.44,2.3,4.68,1.13,6.57s-4,3.53-8.15,4.74a75.36,75.36,0,0,0-17.36-79.75,75.6,75.6,0,0,0-82.76-16.2c-1.11.48-2.22,1-3.29,1.5h0c-3.25-1-6.41-1.8-9.46-2.42-15.4-3.12-26.33-1-30.77,6.08-4.22,6.71-1.92,16.8,6.46,28.56h0a71,71,0,0,0-3.09,6.46c-.71,1.66-1.34,3.33-1.92,5-15.75.93-24.18,3.71-27.24,8.73-3.57,5.84,1.3,13.69,16.88,21.31,2.14,1.06,4.44,2.09,6.86,3.12a73.6,73.6,0,0,0,5.42,20.55,75.51,75.51,0,0,0,138.79.71C248,153.74,253,151.24,255,148,256.44,145.67,256.27,143.14,254.64,140.46Zm-18,12.36a116.83,116.83,0,0,1-19,1.53,277.06,277.06,0,0,1-38.85-2.62c1.18-2.56,2.33-5.2,3.46-7.89a108.13,108.13,0,0,0,12.58,3.42,64.1,64.1,0,0,0,12.56,1.39c8.8,0,15.1-2.54,18.21-7.48a12.81,12.81,0,0,0,1.25-2.58h-4.48l-.24.4c-2.31,3.67-7.48,5.56-14.73,5.56a59.89,59.89,0,0,1-11.76-1.31,104.68,104.68,0,0,1-11.84-3.2c1.08-2.7,2.13-5.46,3.15-8.25,2.73-7.54,5.07-15,7-22.18a190.68,190.68,0,0,0,27.72,1.91q9.18,0,19-.74a71.57,71.57,0,0,1-4.07,42Zm-93.4,37.41c-2.18-.79-3.29-3.92-3.83-6.4-.86-3.93-1-9.45-.45-16,.28-3.29.74-6.8,1.36-10.46a194.16,194.16,0,0,1,26.41,9.14c-1.94,3.35-3.9,6.45-5.87,9.26-3.74,5.36-7.39,9.5-10.57,12C148.25,189.33,145.39,191,143.21,190.23Zm25.46-27.18A197.67,197.67,0,0,0,141,153.47q.5-2.55,1.09-5.19c2.6.59,5.24,1.17,7.92,1.72,7.83,1.6,15.63,3,23.28,4.06Q171,158.76,168.67,163.05Zm-16.93-15.89q-4.53-.93-8.93-1.94c1.38-5.74,3.07-11.72,5.05-17.82a174.87,174.87,0,0,0,30.63,15.11q-1.86,4.44-3.82,8.65C167.15,150.08,159.46,148.74,151.74,147.16Zm-25.1-77.45a45.71,45.71,0,0,0,2.78,4.89,66.37,66.37,0,0,0,16.9,17.33,83.8,83.8,0,0,0,8.89,5.53c-2.87,6.26-5.6,12.93-8.12,19.87-.47,1.29-.92,2.58-1.37,3.87-15-9.78-27.73-21-36.07-31.85h0a71.25,71.25,0,0,1,7.16-10.1c1.11-1.3,2.26-2.57,3.47-3.79.17-.17.32-.33.5-.5A72.72,72.72,0,0,1,126.64,69.71Zm64.21-10.83c2.18.79,3.29,3.92,3.83,6.41.86,3.93,1,9.44.45,16A159.92,159.92,0,0,1,191,105.09q-3.86-.66-7.51-1.5a107.55,107.55,0,0,1-23-7.93A162.85,162.85,0,0,1,173.23,73.3c3.74-5.36,7.39-9.49,10.57-12,1.66-1.28,3.89-2.66,5.85-2.66A3.48,3.48,0,0,1,190.85,58.88Zm-8.57,48.54c2.5.58,5.06,1.09,7.69,1.55-1.85,6.94-4.12,14.16-6.76,21.45-1,2.82-2.08,5.58-3.16,8.3a171,171,0,0,1-30.86-15.32q.81-2.34,1.66-4.71c2.46-6.78,5.13-13.3,7.92-19.41A111.84,111.84,0,0,0,182.28,107.42Zm39-32.46a70.84,70.84,0,0,1,18.43,31.88,208.75,208.75,0,0,1-44.83-1.12,161.74,161.74,0,0,0,4.19-24.13c.7-8,.61-17.44-2.62-22.77.75.29,1.49.59,2.24.91A70.63,70.63,0,0,1,221.32,75ZM171.06,54.13a71.41,71.41,0,0,1,14.5,1.48C180,58,174.27,64.81,170,71a166.41,166.41,0,0,0-13,22.83,81.53,81.53,0,0,1-8-5,61.54,61.54,0,0,1-16-16.2,41.4,41.4,0,0,1-3-5.42,70,70,0,0,1,9.19-5.54h0c1.3-.66,2.64-1.28,4-1.86l.29-.12.07,0,.86-.36.24-.09A70.64,70.64,0,0,1,171.06,54.13ZM101.6,63c2.31-3.67,7.47-5.56,14.73-5.56a59.89,59.89,0,0,1,11.76,1.31c1.64.33,3.33.73,5,1.18h0a74.31,74.31,0,0,0-15.46,11.92c-1,1-1.91,2-2.83,3-1.15,1.27-2.25,2.59-3.3,3.93a74.25,74.25,0,0,0-4.67,6.69h0C100.45,76,98.53,67.9,101.6,63Zm3.92,34.54c.64-1.45,1.29-2.89,2-4.29h0c8.78,11,21.73,22.19,36.85,31.93-2.14,6.52-4,12.94-5.45,19.09a296,296,0,0,1-30.14-8.9c-1.88-.67-3.7-1.36-5.44-2.05-1-.41-2-.83-3-1.25-.15-1.53-.27-3.08-.3-4.64,0-.74,0-1.47,0-2.22s0-1.74,0-2.6a72.19,72.19,0,0,1,3.25-18.86c.33-1,.67-2,1.06-3.07S105.08,98.61,105.52,97.57ZM92.7,128.69c-13.58-6.63-19.79-13-17-17.57,2.24-3.68,10.4-6.17,22.9-7.09A73.3,73.3,0,0,0,95.75,120c-.11,1.61-.17,3.22-.19,4.85v.42c0,1.63.06,3.26.15,4.87C94.68,129.65,93.68,129.17,92.7,128.69ZM103,136.83c1.84.69,3.72,1.38,5.66,2,8.89,3.09,18.87,6,29.53,8.49-.38,1.73-.74,3.44-1.07,5.11-.87-.21-1.74-.42-2.62-.61a159.06,159.06,0,0,0-30.94-4.16,69.41,69.41,0,0,1-2.8-11.74Zm2.51,16.08c-.16-.38-.32-.77-.47-1.16a163.63,163.63,0,0,1,28.73,4.05l2.63.62c-.67,3.89-1.16,7.61-1.47,11.1-.57,6.62-.61,14.25,1.23,19.7a71.6,71.6,0,0,1-30.65-34.31Zm93.21,37.85A71.36,71.36,0,0,1,149.5,193c5.26-2.75,10.54-9.08,14.61-14.92,2.1-3,4.2-6.34,6.27-9.93A201.3,201.3,0,0,1,204.59,188C202.68,189,200.73,189.91,198.73,190.76Zm22.59-15.24a70.57,70.57,0,0,1-12.93,10.25,205.41,205.41,0,0,0-36-21.1q2.61-4.77,5.11-10a308,308,0,0,0,32.78,2.69c2.64.08,5.21.08,7.7.06a137.72,137.72,0,0,0,17.13-1.15A70.76,70.76,0,0,1,221.32,175.52Z"/><polygon class="cls-4" points="154.7 45.27 136.84 48.3 148.52 39.88 149.2 42.46 153.58 43.13 154.7 45.27"/><polygon class="cls-3" points="136.84 48.3 151.56 40.22 166.16 39.09 136.84 48.3"/><polygon class="cls-3" points="148.52 39.88 136.84 48.3 145.72 35.38 148.52 39.88"/><polygon class="cls-4" points="76.28 88.83 93.19 95.35 83.41 84.78 82.23 87.17 77.81 86.97 76.28 88.83"/><polygon class="cls-3" points="93.19 95.35 80.37 84.5 66.28 80.51 93.19 95.35"/><polygon class="cls-3" points="83.41 84.78 93.19 95.35 87.05 80.93 83.41 84.78"/><polygon class="cls-5" points="133.13 248.46 260.62 248.46 303.35 77.08 175.86 77.08 133.13 248.46"/><polygon class="cls-6" points="138.57 242.98 257.91 242.98 297.91 82.55 178.56 82.55 138.57 242.98"/><path class="cls-7" d="M180.68,156.49h79.06a2.43,2.43,0,0,0,2.22-1.78l.17-.67a1.35,1.35,0,0,0-1.34-1.78H181.74a2.45,2.45,0,0,0-2.23,1.78l-.17.67A1.35,1.35,0,0,0,180.68,156.49Z"/><path class="cls-7" d="M187.72,128.28h79A2.45,2.45,0,0,0,269,126.5l.16-.67a1.34,1.34,0,0,0-1.33-1.78H188.77a2.45,2.45,0,0,0-2.23,1.78l-.16.67A1.35,1.35,0,0,0,187.72,128.28Z"/><path class="cls-7" d="M185.27,138.08h79.06a2.43,2.43,0,0,0,2.22-1.78l.17-.67a1.35,1.35,0,0,0-1.34-1.78h-79a2.45,2.45,0,0,0-2.23,1.78l-.17.67A1.35,1.35,0,0,0,185.27,138.08Z"/><path class="cls-7" d="M183,147.29h79a2.44,2.44,0,0,0,2.23-1.78l.17-.67a1.35,1.35,0,0,0-1.34-1.78H184a2.43,2.43,0,0,0-2.22,1.78l-.17.67A1.35,1.35,0,0,0,183,147.29Z"/><path class="cls-7" d="M176,175.25h79.06a2.45,2.45,0,0,0,2.23-1.78l.16-.67a1.34,1.34,0,0,0-1.33-1.78H177.06a2.45,2.45,0,0,0-2.23,1.78l-.16.67A1.34,1.34,0,0,0,176,175.25Z"/><path class="cls-7" d="M178.3,166.05h79.06a2.43,2.43,0,0,0,2.22-1.78l.17-.67a1.35,1.35,0,0,0-1.34-1.78H179.35a2.43,2.43,0,0,0-2.22,1.78l-.17.67A1.35,1.35,0,0,0,178.3,166.05Z"/><path class="cls-7" d="M169.13,204.18h19.2a2.9,2.9,0,0,0,2.64-2.11h0a1.6,1.6,0,0,0-1.59-2.12h-19.2a2.9,2.9,0,0,0-2.64,2.12h0A1.6,1.6,0,0,0,169.13,204.18Z"/><path class="cls-7" d="M228,204.18h19.2a2.9,2.9,0,0,0,2.64-2.11h0a1.6,1.6,0,0,0-1.58-2.12H229a2.9,2.9,0,0,0-2.64,2.12h0A1.6,1.6,0,0,0,228,204.18Z"/><path class="cls-8" d="M185.64,227h-28a2.16,2.16,0,0,1-1.77-.8,2.29,2.29,0,0,1-.36-2l2-8.09a3.82,3.82,0,0,1,3.49-2.79h28a2.17,2.17,0,0,1,1.77.81,2.3,2.3,0,0,1,.36,2l-2,8.1A3.8,3.8,0,0,1,185.64,227ZM161,213.46a3.58,3.58,0,0,0-3.27,2.61l-2,8.1A2.12,2.12,0,0,0,156,226a2,2,0,0,0,1.6.72h28a3.59,3.59,0,0,0,3.27-2.62l2-8.09a2.11,2.11,0,0,0-.32-1.84,2,2,0,0,0-1.6-.72Z"/><path class="cls-8" d="M244.57,227h-28a2.19,2.19,0,0,1-1.77-.8,2.36,2.36,0,0,1-.36-2l2-8.09a3.8,3.8,0,0,1,3.48-2.79h28a2.2,2.2,0,0,1,1.78.81,2.33,2.33,0,0,1,.36,2l-2,8.1A3.83,3.83,0,0,1,244.57,227Zm-24.64-13.49a3.57,3.57,0,0,0-3.26,2.61l-2,8.1A2.09,2.09,0,0,0,215,226a2,2,0,0,0,1.59.72h28a3.58,3.58,0,0,0,3.26-2.62l2-8.09a2.11,2.11,0,0,0-.32-1.84,2,2,0,0,0-1.6-.72Z"/><path class="cls-7" d="M193.47,98.94a7.8,7.8,0,0,1,7.05-5.27,3.6,3.6,0,0,1,3.4,1.66l-1.84,1.54a2.5,2.5,0,0,0-2.25-1.13,4.56,4.56,0,0,0-4,3.2c-.58,1.75.15,3.21,1.9,3.21a5.14,5.14,0,0,0,3.08-1.2l.92,1.53a7.05,7.05,0,0,1-4.75,1.74C194,104.22,192.5,101.9,193.47,98.94Z"/><path class="cls-7" d="M203.93,98.94a7.94,7.94,0,0,1,7.17-5.27c3.15,0,4.64,2.34,3.68,5.27a7.94,7.94,0,0,1-7.17,5.28C204.46,104.22,203,101.87,203.93,98.94Zm8.5,0c.58-1.75-.23-3.2-2-3.2a4.6,4.6,0,0,0-4.11,3.2c-.57,1.75.23,3.21,2,3.21A4.6,4.6,0,0,0,212.43,98.94Z"/><path class="cls-7" d="M218.45,93.84h2.07l2.72,6.28,2.06-6.28h2.21L224.17,104h-1.91l-2.81-6.48L217.32,104H215.1Z"/><path class="cls-7" d="M231.66,95.91h-3.1l.68-2.07h8.45L237,95.91h-3.1L231.24,104H229Z"/><path class="cls-7" d="M239.41,93.84h4.66a3,3,0,0,1,2.64,1,2.69,2.69,0,0,1,.1,2.36,4.9,4.9,0,0,1-3.23,3.16l1.3,3.64h-2.62l-1.15-3.26h-1.73L238.31,104h-2.25Zm2.89,5a2.21,2.21,0,0,0,2.21-1.48c.31-1-.2-1.45-1.29-1.45H241l-1,2.93Z"/><path class="cls-7" d="M253.47,93.77h2.07l1,10.27h-2.35l-.18-2.29H249.7L248,104h-2.29Zm.39,6-.27-3.31-2.44,3.31Z"/><path class="cls-7" d="M258.68,98.94a7.8,7.8,0,0,1,7.05-5.27,3.6,3.6,0,0,1,3.41,1.66l-1.85,1.54A2.49,2.49,0,0,0,265,95.74a4.56,4.56,0,0,0-4,3.2c-.58,1.75.16,3.21,1.91,3.21A5.13,5.13,0,0,0,266,101l.93,1.53a7.08,7.08,0,0,1-4.76,1.74C259.18,104.22,257.71,101.9,258.68,98.94Z"/><path class="cls-7" d="M273.26,95.91h-3.1l.68-2.07h8.45l-.68,2.07h-3.1L272.84,104h-2.25Z"/><path class="cls-9" d="M250.63,212.16q-6.37,2.64-12.66,5.76c.16-.47.31-.94.44-1.41s-.4-.63-.72-.21a5.49,5.49,0,0,1-.44.52c.11-.33-.29-.52-.64-.28l-.06.06c.17-.46-.54-.53-.8-.09l-.4.66a2.75,2.75,0,0,1-1.26.85,2.07,2.07,0,0,1-.19-.71.32.32,0,0,0-.33-.3c0-.23-.21-.37-.52-.23a3,3,0,0,0-1,.71c-.21-.39-.88-.11-1.24.27l0-.07c.17-.36-.15-.77-.57-.41a5.17,5.17,0,0,0-1.57,2.3,10,10,0,0,1-.8.79c-.14.12-.79.72-.94.66s-.06-.42,0-.68l.07-.1c.54-.75,3.14-4.28,1.31-4.25a.64.64,0,0,0-.51.31,12.05,12.05,0,0,0-1.5,3.2c-.06.21-.15.47-.21.76l-.17.21a8.3,8.3,0,0,1-2.91,2.8c-.11-1.49.64-3.26,1.21-4.83.25-.68.51-1.35.77-2a.58.58,0,0,0,.26-.13c1.27-1.07,1.79-2.66,1.22-3.73-.17-.31-.68,0-.82.3-.88,2-1.68,3.94-2.39,5.92-.63,1.76-1.35,3.62-1.09,5.24,0,.17.23.24.42.19a6.84,6.84,0,0,0,3.46-2.68.58.58,0,0,0,.37.33c.62.18,1.48-.52,2.1-1.1a1.93,1.93,0,0,0,.11.59c.06.21.27.26.52.16a5,5,0,0,0,1.59-1.06,3.37,3.37,0,0,0,1.58-1.28,8.11,8.11,0,0,0,.78-.77,1.47,1.47,0,0,0,.22.39c.23.27.81,0,1.18-.14a3.66,3.66,0,0,0,1-.64,1.76,1.76,0,0,0,.67-.18.52.52,0,0,0,.16.17.71.71,0,0,0,.77-.07l-.19.51-1.83.93c-.4.21-.49.82,0,.79l1.67-.13a.68.68,0,0,0,.57-.42c.09-.23.19-.45.28-.67q6.55-3.3,13.24-6.05C251.39,212.65,251.2,211.92,250.63,212.16Zm-19.49,6.43a2.13,2.13,0,0,1-.14.35c0,.08-.08.16-.12.24A2.79,2.79,0,0,1,231.14,218.59Zm-1.23,1a1,1,0,0,0,0,.64l-.42.28a2.37,2.37,0,0,1,.05-.79c.19-.23.37-.46.54-.7A5,5,0,0,0,229.91,219.64Z"/><path class="cls-9" d="M172.37,209.55c-1.51,2.8-2.35,5.67-3.58,8.5a22.78,22.78,0,0,1-2.21,4.07c-.63.9-2,2.88-3.19,2.45-.29-.11-.37-.36-.28-.7,0-.08,0-.15.07-.23a.66.66,0,0,0,.61-.07,2.25,2.25,0,0,0,.87-1c.17-.38.15-.77-.16-.94a.86.86,0,0,0-1,.27,3.23,3.23,0,0,0-.61,1.08,3.32,3.32,0,0,0-.41,1.36c0,.65.74.88,1.42.73a4.41,4.41,0,0,0,2.12-1.57,17.88,17.88,0,0,0,1.74-2.45,33.62,33.62,0,0,0,2.42-5.27,52.94,52.94,0,0,1,2.6-6.12C173,209.36,172.54,209.22,172.37,209.55Zm-8.16,12.71c.06.2-.14.46-.29.64a1.45,1.45,0,0,1-.18.17.57.57,0,0,1-.13.08h0a.17.17,0,0,0-.16-.09c.07-.15.14-.29.2-.43S164.11,221.84,164.21,222.26Z"/><path class="cls-9" d="M182.45,218.29a3.16,3.16,0,0,1-1,.4,1,1,0,0,1-.24,0,1.45,1.45,0,0,0,.47-.74c.06-.41-.39-.5-.77-.29a1.16,1.16,0,0,0-.58.87.54.54,0,0,0,0,.29,2.13,2.13,0,0,1-1.23.5,4.66,4.66,0,0,0,1.13-1.13.23.23,0,0,0,0-.25.76.76,0,0,0-1-.08,1.92,1.92,0,0,0-.82,1,2.07,2.07,0,0,0-.11.36,2.7,2.7,0,0,1-1.21.28h0l.38-.36c.18-.18.07-.37-.1-.39a.78.78,0,0,0-.78.61,11.71,11.71,0,0,1-1.92,1.39c-.17.1-.4.3-.52.17a6.41,6.41,0,0,0,.78-.69c.46-.49.92-1.36.37-1.66a.32.32,0,0,0-.38.1l-.72,1a4.52,4.52,0,0,0-.56.86,1.11,1.11,0,0,0-.08.3,4.6,4.6,0,0,1-.76.4l-.07,0,.43-.35a1.76,1.76,0,0,0,.78-1.15,1.29,1.29,0,0,0-.51-1c-.06-.06-.23,0-.33.05a5.29,5.29,0,0,0-1.71,2.19.87.87,0,0,0,0,.72c-.69.52-1.38,1-2.08,1.53-.07.05-.25.22-.33.19s0-.18,0-.25a4,4,0,0,1,0-.59,5.82,5.82,0,0,1,.32-1.31,7.34,7.34,0,0,1,.53-1.14.27.27,0,0,0,.29-.05,1.79,1.79,0,0,0,.74-1.52c0-.19-.31-.16-.45,0a7.34,7.34,0,0,0-2,4.91c0,.35.17.65.64.45a3.39,3.39,0,0,0,.62-.39l.76-.55,1.42-1.06a2.67,2.67,0,0,0,.85-.19,5.76,5.76,0,0,0,1-.47.47.47,0,0,0,.51.24,2.44,2.44,0,0,0,.85-.43q.43-.26.84-.54c.26-.19.52-.39.77-.6.06.08.16.1.33.1a3,3,0,0,0,.72-.07,3.75,3.75,0,0,0,.77-.28.38.38,0,0,0,.13.09,1.39,1.39,0,0,0,1-.06,3.92,3.92,0,0,0,1-.56.83.83,0,0,0,.28.08,3,3,0,0,0,1.54-.47C182.91,218.57,182.79,218.11,182.45,218.29Zm-10.25,2.38a4.58,4.58,0,0,1,1.09-1.36.61.61,0,0,1,.11.85,3.29,3.29,0,0,1-.56.5l-.65.52-.18.13C171.94,221.16,172.12,220.83,172.2,220.67Zm3-1.38a2.09,2.09,0,0,1-.57.8l-.1.1A9.11,9.11,0,0,1,175.15,219.29Zm4.57-1a3.34,3.34,0,0,1-.67.63C179.19,218.58,179.51,218.23,179.72,218.25Zm1.26,0s.18-.21.16-.1a1,1,0,0,1-.22.26A.52.52,0,0,1,181,218.23Z"/><path class="cls-10" d="M251.16,89.35a.29.29,0,0,0-.2-.28,6.13,6.13,0,0,1-3.61-5.86c0-3.39,2.31-6.14,5.16-6.14H221.45c-2.85,0-5.16,2.75-5.16,6.14s2.31,6.14,5.16,6.14Z"/><path class="cls-10" d="M237.34,66.18A7.62,7.62,0,1,0,245,73.8,7.62,7.62,0,0,0,237.34,66.18Zm0,10.79a3.18,3.18,0,1,1,3.17-3.17A3.17,3.17,0,0,1,237.34,77Z"/><path class="cls-11" d="M257.29,247.37a1.34,1.34,0,0,1-.86,1.14h0a8.77,8.77,0,0,1-4.1.09l-.57-.07h-.24c-1.64-.1-1.51.4-4.66.39-3.59,0-4.8-1.23-5-1.74s1.44-.78,3.19-1.17l.26-.06.7-.16c2.09-.49,4.17-1.11,4.85-3.12s.56-8.46.56-8.46h6.35s-1.67,7-1.49,9c.09,1.07.61,1.38.81,2.31a1.42,1.42,0,0,0,0,.2A6.58,6.58,0,0,1,257.29,247.37Z"/><path class="cls-12" d="M264.68,179c-.54,3-1.3,6.12-2,9.36-1.06,5.2-1.87,10.73-1,16.68a19.25,19.25,0,0,1,.18,2.52c.16,10.51-4.54,29.58-4.54,29.58a8.3,8.3,0,0,1-3.42.44,10.73,10.73,0,0,1-2.79-.76s-.44-11.82-.47-27.72c0-11.52-2.28-26.68-2.74-35.6a115.25,115.25,0,0,1,.33-12.58s9.37-7.53,12.73-3.68S266.69,167.69,264.68,179Z"/><path class="cls-13" d="M261.66,205a19.25,19.25,0,0,1,.18,2.52c-7-10.17-8.57-32.33-8.57-32.33l7.71,3.74s.84,4.15,1.73,9.39C261.65,193.51,260.84,199,261.66,205Z"/><path class="cls-11" d="M277.56,247.33a1.3,1.3,0,0,1-.86,1.13h0a8.74,8.74,0,0,1-4.09.09l-.58-.07h-.23c-1.65-.11-1.52.4-4.67.38-3.59,0-4.8-1.22-5-1.73s1.43-.78,3.18-1.17l.26-.05.7-.16c2.1-.49,4.17-1.11,4.85-3.11s-.31-8.34-.31-8.34l5.89-.49s-.37,7.08-.19,9.09a16.73,16.73,0,0,0,.84,2.59c0,.07,0,.13,0,.2A6.58,6.58,0,0,1,277.56,247.33Z"/><path class="cls-12" d="M276.72,237.62a14.21,14.21,0,0,1-2.6.94,12.36,12.36,0,0,1-3.35-.21,154.44,154.44,0,0,0-3.2-19.81A185.13,185.13,0,0,0,258,188.19c-.93-2.19-4.76-12.6-5.41-15.22-2-7.93,0-7.08,0-7.08l17.21-2s2.11,1.09,3.09,12.29c.29,3.36.33,17.84.77,20.58a30.52,30.52,0,0,0,1.48,6.17C278.32,210.75,276.72,237.62,276.72,237.62Z"/><path class="cls-14" d="M277.55,247.35a1.33,1.33,0,0,1-.86,1.16h0a10.15,10.15,0,0,1-4.11.08l-.58-.06h-.23c-1.33-.09-1.51.22-3.15.34H266c-2.78-.22-3.76-1.25-3.91-1.72s1.43-.79,3.2-1.19a10.51,10.51,0,0,0,5.43,1c2.42-.24,4.9-1.22,6.64-1.46l0,.2A6,6,0,0,1,277.55,247.35Z"/><path class="cls-14" d="M257.28,247.38a1.37,1.37,0,0,1-.86,1.19h0a9.73,9.73,0,0,1-4.1.09l-.57-.06h-.24a7.61,7.61,0,0,0-2.25.25h-4.39c-2.08-.35-2.87-1.22-3-1.64s1.44-.81,3.2-1.22a10.22,10.22,0,0,0,5.42,1c2.42-.25,4.89-1.26,6.63-1.52a1.55,1.55,0,0,0,0,.21A7.05,7.05,0,0,1,257.28,247.38Z"/><path class="cls-11" d="M285.24,163.94l1.09,1.78c.57.65.72,1,1.17,1.24a5.58,5.58,0,0,1,3.25,4.8s0,1.63-1.13,1.1-.61-.48-2.17-1.19-2.13-3-2.27-3.76l-1.27-1.66Z"/><path class="cls-15" d="M250.4,112.37c-.58-4.75.91-12.34,10.38-11.12s12.45,10.52,10.54,14.65,2.75,5.14,4.21,9.59c1.26,3.82,1.7,8.57,3.73,10.7,6.56,6.87-6.29,17.43-14,15.2-14.11-4-15.93-4.66-15.43-15.75.26-5.68,4.68-7.88,1.87-9.52C244.88,122.15,251.72,123.11,250.4,112.37Z"/><path class="cls-16" d="M266.39,156.93a51.28,51.28,0,0,1,2.67,9.27l-21,.26s.29-16.86-.67-22.82,5.82-19.09,5.82-19.09.93-.14,2.35-.23a10.79,10.79,0,0,0,.49-2,14.38,14.38,0,0,0,.08-3.34c0-.37-.08-.58-.08-.58l6.85-2.08.2-.06c.09,1.86.19,3.32.3,4.46.33,3.32.72,4,.84,4.07a56.63,56.63,0,0,1,5.87,1.19S264.46,152,266.39,156.93Z"/><path class="cls-17" d="M280,151.82c-1.05-7.24-4.94-22.12-7.55-24.55-2.32-2.15-7.3-2.35-7.3-2.35h0c-1,1.62-4.58,5.65-9,4.93-2.38-.39-2.86-4.66-2.91-5.23v-.07h-.07c-.69.11-6.21,1-7.85,3.82-2.41,4.16-5,16.64-7.63,16.46-1.19-.09-13.13-4.58-13.13-4.58s-2,1.87-1.61,4.15a125.53,125.53,0,0,0,10.88,6.47c.7.35,1.37.67,2,1,1.8.79,3.31,1.25,4.14,1a2.6,2.6,0,0,0,.75-.31,14.84,14.84,0,0,0,3.55-3.56c.81-1,1.59-2.17,2.28-3.22l0-.06a76.29,76.29,0,0,1,.29,11.67c-.24,2.57-.41,8.15,0,9.59.92,3,7.68,3.79,14,3.48a41.59,41.59,0,0,0,6.61-.67,4.84,4.84,0,0,0,4-3.17c.7-1.68-2.53-9.56-2.83-13a20.19,20.19,0,0,1,1-8.17c2.23,5.15,4.5,8.83,4.8,9.63.63,1.68,10.14,12.3,10.14,12.3a4.43,4.43,0,0,0,1.38-.55,3.35,3.35,0,0,0,.95-1C285.28,161.88,280,151.82,280,151.82Z"/><path class="cls-18" d="M271.54,166.63a4.84,4.84,0,0,1-4,3.17c-3-.57-4.93-6-5.93-8.72-1.17-3.1,4.89-19,6.56-18.89,1.24.11,1.45,2.22,1.49,3.26a19.66,19.66,0,0,0-1,8.17C269,157.07,272.24,165,271.54,166.63Z"/><path class="cls-16" d="M224.67,141.51s-1-2.49-2.14-2.6-4.69-.66-4.94-.15a3.52,3.52,0,0,0,.76,3c.77.66,5.51,1.73,5.51,1.73Z"/><path class="cls-18" d="M246.59,145.79c-.69,1.05-1.47,2.18-2.28,3.22a18.93,18.93,0,0,1-3.55,3.56,2.6,2.6,0,0,1-.75.31c-.83.2-2.34-.26-4.14-1a20.64,20.64,0,0,0,3.15,0c1.81-.16,2.34-2.12,5.2-5.06C245.93,145,246.45,145.25,246.59,145.79Z"/><path class="cls-19" d="M263.14,116.61s-2.66,4.79-7.05,5.69a14.38,14.38,0,0,0,.08-3.34c0-.37-.08-.58-.08-.58l6.85-2.08Z"/><path class="cls-16" d="M254.25,118.86s8.44,1.7,9.41-3.57,2.72-8.6-2.62-9.91-6.77.52-7.52,2.19S252.09,118.29,254.25,118.86Z"/><path class="cls-15" d="M265.3,105.73c-1.43-1.6-3.53-4-3.53-4s-4.19-1.4-8.36,2.7c-1.79,1.77-1.52,5.24-.56,7.25,0,0,1.48-4.31,4.16-5.26a6,6,0,0,0,1.69-1,11.49,11.49,0,0,0,2.3,3.43c2.78,3,2.24,9.16,2.24,9.16S267.79,108.54,265.3,105.73Z"/><path class="cls-6" d="M256.88,116.27s-.22.62-1.81.34c0,0-1.33-.24-1.21-.94A4.35,4.35,0,0,1,256.88,116.27Z"/><path class="cls-20" d="M307.27,248.17h13l.14,0c.36-.18.54-.86.61-1.67a19.88,19.88,0,0,0-.06-3.33s-4.42-3.7-5.1-1-4.36,3.91-6.45,4.21S307.28,248,307.27,248.17Z"/><path class="cls-20" d="M318.88,248.17h13.69c.87-.78.42-5,.42-5s-4.43-3.7-5.1-1-4.36,3.91-6.45,4.21l-.44.08A3.12,3.12,0,0,0,318.88,248.17Z"/><path class="cls-21" d="M326.73,173.83s0,.5,0,1.39c-.13,5.75-.62,28-1.09,40.37,0,.45,0,.89-.05,1.31,0,.22,0,.45,0,.67a134.56,134.56,0,0,1-1.92,16.55c-1,6-2.11,10.06-2.11,10.06a9.89,9.89,0,0,1-6.58-.71s-1.07-9.29-1.48-14.91c-.14-1.82-.79-8-1.62-15.61-.64-5.86-1.38-12.52-2.06-18.57,0-.32-.07-.65-.1-1-1.1-9.79-2-17.76-2-17.76l7.05-.68Z"/><path class="cls-22" d="M323.62,234.12,311.83,213c-.64-5.86-1.38-12.52-2.06-18.57,0-.32-.07-.65-.1-1-1.1-9.79-2-17.76-2-17.76l7.05-.68,12,.25Z"/><path class="cls-21" d="M309,175.7s6.6,32.61,12,48.35,5.45,20.11,5.45,20.11,4.93,1.07,7.1-.17c0,0,1.24-29.84-2-37.76-2.15-5.24-3.8-16.4-3.24-20.42s1.08-12.07,1.08-12.07Z"/><path class="cls-16" d="M317,131.92l7.34-2.07a29.12,29.12,0,0,1-1.68-6.23,9.34,9.34,0,0,1,.38-4.91l.12-.24c.28-.53.11-.77-.26-.82a4.16,4.16,0,0,0-2.48.78.1.1,0,0,0,0,0,55,55,0,0,1-5.11,2.87h0a.62.62,0,0,1,0,.09h0a0,0,0,0,0,0,0c0,.16-.06.44-.11.83C314.9,124.25,314.72,128.8,317,131.92Z"/><path class="cls-23" d="M327.57,177.44c-1.56,1.11-4,1.51-6.72,1.46a36.7,36.7,0,0,1-9.46-1.54,22.29,22.29,0,0,1-3.74-1.44c-4.18-2.18-3.59-5.07-3.49-15.93.11-11.08,6.92-25.4,8.15-27.79,2.19-4.27,12-2.7,12-2.7,2.15,1,2.92,4.47,3.13,9,.23,5-.22,11.28-.22,17a65,65,0,0,0,1.54,12.41C329.6,172.39,330,175.7,327.57,177.44Z"/><path class="cls-24" d="M328.75,167.88c-1.88,4-5.6,8.45-7.9,11a36.7,36.7,0,0,1-9.46-1.54c-1.18-2.81-1.69-7.52-.6-15.28.82-5.92,6.87-29.72,6.87-29.72,4.87-.64,7.91,2,9.77,6.1.23,5-.22,11.28-.22,17A65,65,0,0,0,328.75,167.88Z"/><path class="cls-20" d="M306,186.8h4.43v-1.38a4.14,4.14,0,0,1,4.14-4.14h3.66a4.14,4.14,0,0,1,4.15,4.14v1.38h4.43a2.41,2.41,0,0,1,2.41,2.41v11.28a2.42,2.42,0,0,1-2.41,2.42H306a2.43,2.43,0,0,1-2.42-2.42V189.21A2.42,2.42,0,0,1,306,186.8Zm14.74-1.38a2.51,2.51,0,0,0-2.51-2.5h-3.66a2.5,2.5,0,0,0-2.5,2.5v1.38h8.67Z"/><path class="cls-25" d="M315.11,178.5s-2.55,4.92-1.27,6.84,5.83-.55,6.19-1.64,0-6.38,0-6.38Z"/><path class="cls-23" d="M326,140s-.95,13.54-.94,19.15-4.45,20.5-4.45,20.5a31.12,31.12,0,0,1-4.1.08,4.7,4.7,0,0,1-2.13-.78s1-17.6-.89-24.35-2-20.3-2-20.3,1-2.92,7.25-2C326.17,133.4,326,140,326,140Z"/><path class="cls-24" d="M323,123.27s1.67,5.29,1.34,6.23c0,0-9.07,1.22-12.75,4.81,0,0,1.2-5.15,2.67-6.44S323,123.27,323,123.27Z"/><path class="cls-19" d="M315.1,122.29c.83,0,5.95,0,7.39,1.23a.44.44,0,0,0,.15.1,9.34,9.34,0,0,1,.38-4.91c0-.41.06-.86-.14-1.06-.46-.47-1.89.31-2.48.78a.1.1,0,0,0,0,0,55,55,0,0,1-5.11,2.87l0,.09h0a0,0,0,0,0,0,0C315.19,121.62,315.15,121.9,315.1,122.29Z"/><path class="cls-16" d="M311.8,122s8.48,1.62,9.41-3.67,2.65-8.65-2.72-9.91-6.79.57-7.53,2.26S309.62,121.41,311.8,122Z"/><path class="cls-20" d="M322.74,120.6s-.44-.34,1.27-2.94,2.53-1.89,2.55-4.66,1.06-4.44-2.16-6.24-2.71-3.48-4.64-3.88-4.73,1.19-6.39.86-6.84,6.42-3.52,8a5.33,5.33,0,0,0,2.63-.6c1.08-.66,5.06-1.34,5.53-.13S321,119.66,322.74,120.6Z"/><path class="cls-26" d="M175,245.8l3.08-.05s-4.63-5.13-6-7.75l-3.91-7.22L163,232.05l6.49,9.2Z"/><path class="cls-27" d="M146.08,105.31a6.7,6.7,0,0,0-3.58-.69,1.62,1.62,0,0,1,.75-.35,5.41,5.41,0,0,0-2,.51c-8.53-3.28-9.87,9.28-9.7,12.2s-2.86,3.87-7.3,6.17c-8.47,4.39-9.22,10.27-9.22,10.27l.21.13c.42-.71,1.29-2.05,2-2.25a28,28,0,0,0-1.18,2.86c2.5,1.9,7.18,6.11,10.43,9.1a4.73,4.73,0,0,1,.23-1.85l.4,2.42c1.74,1.6,2.94,2.73,2.94,2.73-.21-2.36,10.67-14.81,16.35-18.53a16.33,16.33,0,0,0,1.91-5.92,15.47,15.47,0,0,1-1.16,5.35C152,123,149.21,107.09,146.08,105.31Z"/><path class="cls-26" d="M146.12,128.21s-2.75,1.45-4.83.88-3.24-3.07-3.21-3.08c.83-.16,1.07-1.3,1-6.21l.37.08,6.31,1.25s-.14,2-.14,3.85C145.66,126.55,145.76,128,146.12,128.21Z"/><path class="cls-10" d="M139,107.37a5,5,0,0,1,7-.17A27.53,27.53,0,0,0,139,107.37Z"/><path class="cls-28" d="M145.81,121.13s-.14,2-.14,3.85c-3.54-.1-5.4-3.32-6.17-5.1Z"/><path class="cls-27" d="M138.85,119.19a18.44,18.44,0,0,1-2.29-5.42c-.32-1.79.59-8.4,7.24-7.45a9,9,0,0,1,3.74,1.42c1.45,1,3.53,3.08,1.2,8.85l-.6,2Z"/><path class="cls-29" d="M171,235.48l-3.34.1-3.62.11a71.39,71.39,0,0,1-13.06-24.23c-.11-.35-.22-.7-.34-1.06-2.57-7.48-7.89-16.88-10.7-25.38-.44-1.36-.84-2.63-1.2-3.84-.12-.38-.23-.76-.34-1.14a90.46,90.46,0,0,1-3.21-16.93l17.9.14A549,549,0,0,0,171,235.48Z"/><path class="cls-30" d="M152.56,151.64c.24,9.63,1.42,13.77,1.42,13.77a27.25,27.25,0,0,1-19,1.16c-.12,0,.67-39.81,3.59-40.9a6.41,6.41,0,0,0,4.46,1.61c2,0,2.72-.93,2.61-1.89C147.85,126.61,152.22,137.84,152.56,151.64Z"/><path class="cls-26" d="M147,122.9s-8.35.14-8.36-5.07-1.08-8.69,4.25-9,6.37,1.67,6.79,3.41S149.17,122.73,147,122.9Z"/><path class="cls-27" d="M149.43,109.35c-1.29-1.56-2.27-1.22-2.81-.75-1.81-2.7-7.52,1.2-7.52,1.2a11.12,11.12,0,0,0-3.25,5.88s1.53.94,5,0c2.76-.71,4.76-4.64,5.49-6.28a6.53,6.53,0,0,1,1.86,2.46c.42,1.33.6,4,1.4,4C149.64,115.85,151.36,111.7,149.43,109.35Z"/><path class="cls-26" d="M180.61,131.54a5.21,5.21,0,0,1,5.84-3.65c.54.17,2.1.79,1.1,2.47-.74,1.23-1.06.59-2.22,2.25a3.69,3.69,0,0,1-3.85,1.84Z"/><path class="cls-26" d="M140.73,245.5c-.28-1.56-.82-4.27-.82-4.27l.12-9.59h-5.82l2.18,9.18a9.51,9.51,0,0,1-.45,3.84s-.56,2.54,1.95,2.59S141,247.06,140.73,245.5Z"/><path class="cls-31" d="M135.94,244.66a14,14,0,0,0-.21,4H141a15.66,15.66,0,0,0-.44-4S138.78,247.26,135.94,244.66Z"/><path class="cls-31" d="M178.09,245.78l-.05,0a4.5,4.5,0,0,1-3.6-1.67c-3.41-3.86-5.34-4.29-6-4.29-.58,1.19-1.21,2.53-.39,4l1.22,4.8h1.32l0-4.53a3.06,3.06,0,0,1,2.09,1.4c.93,1.84,1.57,3.13,2.43,3.13h5.93S180.94,247.06,178.09,245.78Z"/><path class="cls-10" d="M180.61,131.54s-5.49,3.06-7.45,3.94L167.67,138a2.82,2.82,0,0,1-3.35-.72c-3-3.47-10.68-11-18.62-11.93v0l-.05,0s4.83,11.94,5,14.36.56,39.51.56,39.51-.28,1.71,3,1,4.12-1.42,4.12-1.42S155.18,156,156,148a17.74,17.74,0,0,0-.34-5.15,40.79,40.79,0,0,0,10.57,4.25,59.65,59.65,0,0,0,10.14-6.16c1.84-1.34,5.07-6.48,5.07-6.48Z"/><path class="cls-32" d="M167.62,235.58l-3.62.11a71.39,71.39,0,0,1-13.06-24.23c-.11-.35-.22-.7-.34-1.06-2.57-7.48-7.89-16.88-10.7-25.38-.44-1.36-.84-2.63-1.2-3.84-.12-.38-.23-.76-.34-1.14l3-2.26s9,14.5,11.72,28.14C155.48,217.77,165.12,232,167.62,235.58Z"/><path class="cls-27" d="M158.11,145.78l-.18.54-9.37-3a.36.36,0,0,1-.06-.33.27.27,0,0,1,.24-.21Z"/><path class="cls-29" d="M141.66,207.19c.05,6.64-.29,21.89-1.15,28.21H137.3c-1.77,0-2.66,0-2.66,0-2.16-11-3.7-20.06-4.83-27.89-.92-6.43-1.74-11.94-2.37-16.68s-1.07-8.76-1.23-12.14c0-.53,0-1,0-1.55s0-1,0-1.47l17.5-1.71C143.43,185.56,141.63,203.34,141.66,207.19Z"/><path class="cls-32" d="M137.3,235.4c-1.77,0-2.66,0-2.66,0-2.16-11-3.7-20.06-4.83-27.89-.92-6.43-1.74-11.94-2.37-16.68s-1.07-8.76-1.23-12.14l6.42,3.78s-4.1,1.44-2.53,12.39S135.13,233.85,137.3,235.4Z"/><path class="cls-10" d="M138.13,178.55s-1.23,4.46-5.5,3.89a51.56,51.56,0,0,1-10.33-3.13s1.83-5.76,4.09-13.32c2.74-9.16,6.14-21,7.74-28.41a45.08,45.08,0,0,0,.87-5.08l3.59-6.83s5.22,11.8,5.51,14.79S138.13,178.55,138.13,178.55Z"/><path class="cls-31" d="M137.94,146.71c-.19,4.84-1.33,14.22-11.47,19.24l-.08,0c2.74-9.16,6.14-21,7.74-28.41C136,140.36,138,144.05,137.94,146.71Z"/><path class="cls-26" d="M156.29,144.07a15.34,15.34,0,0,1-4.63,7,3.23,3.23,0,0,1-1.39.76,60.73,60.73,0,0,1-12.33,2.9v-5.34c4.17-.27,9.31-.55,11.43-.66a6.11,6.11,0,0,0,.89-2.14,3.17,3.17,0,0,1,3.1-2.83C155.41,143.52,156.29,143.49,156.29,144.07Z"/><path class="cls-27" d="M184.62,126.52l9.48,6.16a.56.56,0,0,1,.17.49l-4.56,15.43a.28.28,0,0,1-.47.12l-9.19-6.89c-.11-.08-.19-.16-.15-.29l4.19-14.78A.39.39,0,0,1,184.62,126.52Z"/><path class="cls-33" d="M184.29,126.3l9.56,6.22a.32.32,0,0,1,.13.36l-4.56,15.44a.32.32,0,0,1-.5.16l-9.19-6.88a.33.33,0,0,1-.11-.35l4.18-14.77A.32.32,0,0,1,184.29,126.3Z"/><polygon class="cls-6" points="184.23 126.97 193.51 132.89 189.3 146.48 180.56 140.15 184.23 126.97"/><path class="cls-27" d="M183.52,143.56a.38.38,0,0,1,.38-.38.38.38,0,0,1,0,.76A.38.38,0,0,1,183.52,143.56Z"/><polygon class="cls-6" points="187.38 144.36 182.9 141.24 185.99 128.75 190.46 131.87 187.38 144.36"/><g class="cls-34"><path class="cls-35" d="M188.27,137.09l-3-2.07a.2.2,0,0,1,0-.18v-.06c0-.07.07-.11.1-.09l3,2.07a.19.19,0,0,1,0,.19V137C188.35,137.08,188.3,137.12,188.27,137.09Z"/><path class="cls-35" d="M188.81,134.9l-3-2.08s-.06-.1,0-.18l0,0c0-.08.06-.12.1-.09l3,2.07s.05.11,0,.18v.05C188.89,134.88,188.85,134.92,188.81,134.9Z"/><path class="cls-35" d="M188.62,135.66l-3-2.07a.19.19,0,0,1,0-.19v-.05c0-.08.06-.12.1-.09l3,2.07s.05.11,0,.18v.06C188.7,135.64,188.66,135.68,188.62,135.66Z"/><path class="cls-35" d="M188.44,136.38l-3-2.08s0-.1,0-.18v-.05c0-.08.07-.12.1-.1l3,2.08a.19.19,0,0,1,0,.18v.05C188.53,136.36,188.48,136.4,188.44,136.38Z"/><path class="cls-35" d="M187.91,138.55l-3-2.07a.2.2,0,0,1,0-.18v-.06c0-.07.07-.11.1-.09l3,2.07a.22.22,0,0,1,0,.19v.05C188,138.54,187.94,138.58,187.91,138.55Z"/><path class="cls-35" d="M188.08,137.84l-3-2.08s-.05-.1,0-.18v-.05c0-.08.06-.12.1-.09l3,2.07s.06.11,0,.18l0,.05C188.17,137.82,188.12,137.86,188.08,137.84Z"/><path class="cls-35" d="M187.34,140.8l-.72-.51c-.05,0-.06-.13,0-.22h0c0-.09.08-.14.12-.11l.72.51a.25.25,0,0,1,0,.22h0C187.44,140.78,187.38,140.83,187.34,140.8Z"/><path class="cls-35" d="M185.13,139.25l-.72-.5a.25.25,0,0,1,0-.22h0c0-.09.08-.14.12-.11l.72.5a.2.2,0,0,1,0,.22h0C185.23,139.24,185.18,139.28,185.13,139.25Z"/></g><path class="cls-8" d="M187.16,142.73h0l-1.05-.74a.28.28,0,0,1,0-.28l.15-.63c0-.1.07-.16.13-.16h0l1,.74a.28.28,0,0,1,.06.28l-.16.63C187.26,142.67,187.21,142.73,187.16,142.73Zm-.86-1.81c-.05,0-.09.06-.12.15l-.15.63c0,.11,0,.24,0,.27l1.05.74h0s.09-.06.11-.15l.15-.63c0-.11,0-.24,0-.27l-1-.74Z"/><path class="cls-8" d="M185,141.19l0,0-1-.73a.29.29,0,0,1-.05-.29l.15-.63c0-.09.08-.15.13-.15h0l1.05.73a.32.32,0,0,1,0,.29l-.16.63C185.05,141.12,185,141.19,185,141.19Zm-.86-1.81c-.05,0-.09.06-.11.15l-.16.63a.26.26,0,0,0,.05.27l1,.73h0s.09-.06.11-.14l.15-.63a.31.31,0,0,0,0-.28l-1-.73Z"/><path class="cls-8" d="M186.31,130.47c.06-.22.19-.35.3-.27a.33.33,0,0,1,.12.23l-.08.09c0-.08,0-.13-.08-.16s-.14,0-.17.17,0,.29,0,.33.08,0,.12,0l0,.16a.13.13,0,0,1-.19,0C186.29,130.94,186.26,130.7,186.31,130.47Z"/><path class="cls-8" d="M186.71,130.75c0-.23.18-.35.3-.27a.54.54,0,0,1,.1.55c-.05.23-.19.35-.3.27A.54.54,0,0,1,186.71,130.75Zm.31.22a.32.32,0,0,0-.05-.33c-.07,0-.14,0-.18.17a.35.35,0,0,0,.06.33C186.91,131.19,187,131.11,187,131Z"/><path class="cls-8" d="M187.28,130.69l.08.05.06.61.12-.48.08,0-.19.8-.07-.05-.06-.64-.13.51-.08-.06Z"/><path class="cls-8" d="M187.77,131.21l-.12-.08,0-.16.32.22,0,.16-.12-.08-.16.63-.08-.06Z"/><path class="cls-8" d="M188.07,131.24l.17.12a.26.26,0,0,1,.1.16.47.47,0,0,1,0,.2c0,.13-.08.19-.14.19l0,.35-.09-.07,0-.31-.07,0-.06.26-.09-.06Zm.07.5c.05,0,.08,0,.1-.07a.14.14,0,0,0,0-.16l-.08-.06-.06.23Z"/><path class="cls-8" d="M188.6,131.6l.08.05,0,.92-.09-.07v-.2l-.16-.11-.08.15-.08-.06Zm0,.53v-.3l-.11.23Z"/><path class="cls-8" d="M188.76,132.18c.05-.22.18-.35.3-.27a.32.32,0,0,1,.11.23l-.08.09a.22.22,0,0,0-.07-.16c-.07,0-.14,0-.17.17a.35.35,0,0,0,0,.33c.05,0,.08,0,.13,0l0,.15a.13.13,0,0,1-.19,0A.56.56,0,0,1,188.76,132.18Z"/><path class="cls-8" d="M189.32,132.3l-.11-.08,0-.16.31.22,0,.16-.12-.08-.16.63-.08-.06Z"/><path class="cls-9" d="M187.5,141.64a3.84,3.84,0,0,0-.52.16l0-.11s0-.06,0,0a.05.05,0,0,1,0,0s0-.05,0,0h0s0-.06,0,0l0,0a.07.07,0,0,1,0,0,.16.16,0,0,1,0-.07v0s0,0,0,0a.08.08,0,0,0,0,0s0,0-.05,0h0s0-.07,0,0a.3.3,0,0,0-.07.15l0,.05s0,0,0,0a.21.21,0,0,1,0-.06h0c0-.05.15-.29.08-.34a0,0,0,0,0,0,0,.85.85,0,0,0-.08.24s0,0,0,.06h0c0,.06-.08.16-.13.17a1.59,1.59,0,0,1,.08-.39c0-.05,0-.1,0-.16h0a.35.35,0,0,0,.07-.29s0,0,0,0-.09.3-.13.45a1.56,1.56,0,0,0-.08.43,0,0,0,0,0,0,0s.1-.06.14-.14l0,0s.06,0,.08,0v.06s0,0,0,0a.1.1,0,0,0,.07,0s.05,0,.07-.07l0,0a.06.06,0,0,0,0,0s0,0,0,0l0,0h0v0s0,0,0,0v0l-.07,0s0,.06,0,.07l.06,0s0,0,0,0v-.05a3.8,3.8,0,0,1,.54-.18S187.52,141.63,187.5,141.64Zm-.78,0v0h0Zm-.05.06s0,0,0,0l0,0v-.07l0-.05A.43.43,0,0,1,186.67,141.74Z"/><path class="cls-9" d="M184.6,139.37c-.07.21-.13.43-.19.64a2.09,2.09,0,0,1-.11.3c0,.06-.1.19-.14.13a.17.17,0,0,1,0-.07v0s0,0,0,0a.09.09,0,0,0,0-.06.14.14,0,0,0,0-.09s0,0,0,0l0,.08a.36.36,0,0,0,0,.11.1.1,0,0,0,.05.1s.06,0,.09-.08a.89.89,0,0,0,.08-.17c.05-.12.09-.26.13-.39a3.09,3.09,0,0,1,.14-.46S184.61,139.35,184.6,139.37Zm-.39.89s0,0,0,.05h0v0S184.21,140.22,184.21,140.26Z"/><path class="cls-9" d="M184.92,140.39s0,0,0,0h0a.11.11,0,0,0,0-.06s0-.05,0,0a.06.06,0,0,0,0,.06v0s0,0-.05,0l.05-.07v0s0,0,0,0,0,0,0,.06v0h0l0,0a0,0,0,0,0,0,0s0,0,0,0l-.08.07s0,0,0,0l0,0a.17.17,0,0,0,0-.14h0l0,.06,0,.06v0h0l0,0a.21.21,0,0,0,0-.07.3.3,0,0,0,0-.1h0a.42.42,0,0,0-.08.15s0,0,0,.06l-.09.08h0v0a.43.43,0,0,0,0-.05.36.36,0,0,1,0-.1l0-.09h0a.21.21,0,0,0,0-.12s0,0,0,0a.85.85,0,0,0-.11.37s0,.07,0,.06l0,0,0,0,.06,0h0l0,0,0,0,0,0,0,0,0,0s0,0,0,0h.06s0,0,0,0l0,0v0a.07.07,0,0,0,.06,0S184.93,140.39,184.92,140.39Zm-.4-.06a.19.19,0,0,1,0-.09.21.21,0,0,1,0,.08l0,0,0,0h0A0,0,0,0,1,184.52,140.33Zm.12,0,0,.05h0Zm.18,0s0,0,0,0S184.81,140.31,184.82,140.32Zm0,0h0v0Z"/><polygon class="cls-27" points="158.78 146.3 158.11 145.78 157.94 146.32 158.78 146.3"/><path class="cls-10" d="M138.59,125.67s-8.71.58-10.79,5.22-2.75,20.09-.1,24.64c0,0,3.66,1,10.12-.17l.24-.05s2.06-5,.21-6c0,0-5.45.29-4.88-1.51S138.59,125.67,138.59,125.67Z"/><path class="cls-36" d="M399.53,249.21H.47a.48.48,0,0,1-.47-.48H0a.47.47,0,0,1,.47-.47H399.53a.47.47,0,0,1,.47.47h0A.48.48,0,0,1,399.53,249.21Z"/></svg>