<svg id="Layer_1" data-name="Layer 1" xmlns="http://www.w3.org/2000/svg" viewBox="0 0 1056 353"><defs><style>.cls-1{fill:#fff;}.cls-2{fill:#5cb1bd;}.cls-3{fill:#232a43;}.cls-4{fill:#ffd460;}.cls-5{fill:#96ced5;}.cls-6{font-size:46px;fill:#343d91;font-family:LucidaHandwriting-Italic, Lucida Handwriting;font-style:italic;}.cls-7{fill:#f1841c;}.cls-8{fill:#f7ec64;stroke:#f1841d;stroke-miterlimit:10;stroke-width:15px;}</style></defs><rect class="cls-1" x="1.44" y="-0.46" width="1056" height="353"/><path class="cls-2" d="M278.24,364.46l3.24-4.44-40.2-18.88-2.92,5.23-3.89-.95L223.76,361.6c-2.1-4.12-8.59-5.55-8.59-5.55C212.9,352.56,208,351,208,351c-2.59-10.78-4.12-29.62-4.12-29.62.16-18.4-17-20-17-20-1.14-6.82-5.51-7.77-5.51-7.77l-4.8-21.1,4.15-4.92c-2.11-2.7-6-20-6-20a41.2,41.2,0,0,0,1-11.9,8.09,8.09,0,0,0,1.74-4.1l36.35-1.92-35.53-4.37a30,30,0,0,0,.52-5l35-14L178,214.49a14.78,14.78,0,0,0-3.76-6.41l21.9-23.57L168.4,204.24a33.7,33.7,0,0,0-11-2.38l-.92-30.05-6.36,30.31A55.77,55.77,0,0,0,138.23,205l-23.92-21.17,16,25a34.86,34.86,0,0,0-6.15,4.85H101.52c.29-25.79-8-53.74-8-53.74-2.59-7.93-.81-23.48-.81-23.48,8.59-22.84-5.19-32.84-5.19-32.84v-6C91.71,95.9,89.43,91,89.43,91,110.67,87,101,77.5,101,77.5V73.38c7.13-8.57-14.11-7.3-14.11-7.3V60.21H70.63v5.87C49.71,66.24,56,73.38,56,73.38v5.71c-5.84,6.5,6.64,10.47,6.64,10.47-.81,9.2,3.41,13.32,3.41,13.32-3.57,4.13,1,7.62,1,7.62-1.46,3,.39,7.15.39,7.15-5.67,8.16,5.35,19.6,5.35,19.6-1.34,4.57,0,7.51,0,7.51C66.12,179.05,76.46,215,76.46,215c.65,6.86,1.34,15.68,1.34,15.68-9,6.53-12,21.56-12,21.56-8,8.49-4.68,13.71-4.68,13.71-2.67,18.62,8.68,22.54,8.68,22.54-5,12.41-3,15.35-3,15.35,3.67,3.92,12.68,11.43,12.68,11.43a61,61,0,0,1-8.64,8.51c2.34,1.31,3.34,6.53,3.34,6.53-8,5.23-4.4,10.45-4.4,10.45,1.27,8.5,12.08,15.68,12.08,15.68-1.34,6.53,6,18.29,6,18.29-9,10.78-16,30.7-16,30.7-9.34,26.45,16,19,16,19V443c-8.67,10.45-12.34,24.82-12.34,24.82.33,2.94,5.33,7.52,5.33,7.52-2.34,22.53,5,31.35,5,31.35l2,32.66c-13,21.88-4.33,21.23-4.33,21.23-10.35,21.23-9.68,38.53-9.68,38.53H229.12L227,572.46l2.92-2.86-1.62-15.71,7.78-7.61L232,514.07l2.1-2.06-8.27-51.09c8.11-2.85,9.25-18.08,9.25-18.08l13.45-27.13c11-1.43,24-21.74,24-21.74,8.59-8.88.81-16.66.81-16.66L279.54,367ZM101.46,216.2l18.55,3a28.14,28.14,0,0,0-2.6,6.11l-9.55.65a14.14,14.14,0,0,0-6.58-5.95C101.36,218.72,101.42,217.46,101.46,216.2Zm18.62,30.27c-5.35,10.94-7.45,5.55-7.45,5.55,2.1-7.93.64-9.68.64-9.68,0-6.34-3.56-9-3.56-9a15.81,15.81,0,0,0-.25-2.76h7.19a13.12,13.12,0,0,0,3.43,9.26Zm50.22,46.74-5.84-2V282l5.84,1.4,2.16,9.79Z"/><path class="cls-3" d="M66.09,102.88c-.13.16-.23.31-.34.46,2.5-2.07,4.26-1.82,4.26-1.82l-.7-4.59c-2.6-.51-2.78-2.21-2.78-2.21C67.85,85.26,89.43,91,89.43,91c8.49-1.59,12-4.06,13.22-6.45C100.57,81,79.73,81.3,79.73,81.3c-24.83-.17-23.15,5-23.15,5h0a20.15,20.15,0,0,0,6.1,3.28C61.87,98.76,66.09,102.88,66.09,102.88Z"/><path class="cls-3" d="M81.12,79.48c.15,0,14.76-.29,22,3.12a6.63,6.63,0,0,0-1.23-3.87c-8.25-2.66-20.3-2.41-20.82-2.4-14-.29-21.45,1.34-25.37,3.12a4.29,4.29,0,0,0-1,4.4C55.77,82.72,60.69,79.07,81.12,79.48Z"/><path class="cls-3" d="M73.22,95.43c11.55-1.64,14.27,2.22,14.27,2.22A3.78,3.78,0,0,0,89.89,95h0C77,90.82,73.22,95.43,73.22,95.43Z"/><path class="cls-3" d="M64.84,107.13a6.74,6.74,0,0,0,2.22,3.37,37.21,37.21,0,0,1,13.57-.42s4.29-2.23,0-6c0,0,.41,4.07-5.76,3C74.86,107.06,68.81,105.88,64.84,107.13Z"/><path class="cls-3" d="M67.45,117.65s9-2.18,17.07,1.49c0,0,4.29-.26,2.14-6,0,0-.53,2.5-2.55,3,0,0-11.08-3.57-17.48-1.39A13.08,13.08,0,0,0,67.45,117.65Z"/><path class="cls-3" d="M68.28,123A13.33,13.33,0,0,1,77,121.38s5.08,1.7,5.58-1.19c0,0,2.82,4.6-5.58,2.76,0,0-4.78-.26-5,1.45l.14,3.41A7.73,7.73,0,0,1,68.28,123Z"/><path class="cls-3" d="M94.25,162.72c-.47-1.74-.76-2.72-.76-2.72-2.59-7.93-.81-23.48-.81-23.48a47.77,47.77,0,0,0,1.85-6.06c-5,8.94-7.26-5.54-7.26-5.54a50,50,0,0,1-1.55,11.69l.81,3.15c2.41,2.49-.56,3.81-.56,3.81,1.32,2.89-.11,4.46-.11,4.46.67,5.12-1.88,5.12-1.88,5.12,0,5.65-7.65,4.47-7.65,4.47,7.92,28.62,17.92,5.1,17.92,5.1Z"/><path class="cls-3" d="M91,168.2c7,15,6,49,6,49-1.78,4.8-2.68,14.39-2.68,14.39-1.33,14.18,5.37,5.28,5.37,5.28,0,4.18-5.37,15.23-5.37,15.23,15.1-19.13,9.88-30.38,9.84-30.46a12.92,12.92,0,0,0-2.87-1.7c1.82-25.65-6.66-56.06-7.68-59.62l-4.41.39Z"/><path class="cls-3" d="M78.2,244.25S68.8,258,62.92,262.13c0,0,6.2-2.82,9.84-6.59,0,0-5.56,9.73-4.92,24.16,0,0,4.17-22.38,10.36-28Z"/><path class="cls-3" d="M78.2,238.19s-6,7.31-9.19,10.66c0,0,7.27-4.29,9.19-6.59Z"/><path class="cls-3" d="M78.2,251.68l-3.93,1.78C70.33,265.69,83,268.11,83,268.11,70.48,260.22,78.2,251.68,78.2,251.68Z"/><path class="cls-3" d="M72.13,277.28s17.81.81,32.92-30.26C105.05,247,95,286.3,72.13,277.28Z"/><path class="cls-3" d="M111.56,235.57a8.36,8.36,0,0,0-1.85-2.27s-14.82,25-20.52,30.62C89.19,263.92,105.13,247.7,111.56,235.57Z"/><path class="cls-3" d="M86.11,302.4s5.6-17.87,12.51-21.09c0,0-.46,11.11,6.43-6.6a24.68,24.68,0,0,1,0,10s3.11-8.37,3-15.78c0,0,1.36-6,3.56-7.89l-1.26,14.17s3.79-9,8.56-10.47c0,0-1.82-7.34,4.44-1.9,0,0-2.14-8-5.1-12.93h0c-4,6.23-5.57,2.13-5.57,2.13S94,283.08,70.57,281.79c0,0,8.69,4.35,20.84-3.36-4.9,3.3-15.58,10-21.62,10,0,0,2.18,4.92,10.24,3.31,0,0-9.88,14.82-6.42,3.54,0,0-5.32,5.62-7.18,5.31h0c-.16,2.41.36,3.19.36,3.19,2.12,2.26,6,5.71,8.93,8.23C78.1,310.72,81.46,307.93,86.11,302.4ZM94,276.64s-.75.55-2,1.4C92.67,277.6,93.33,277.15,94,276.64Z"/><path class="cls-3" d="M79.11,320.56s12.85-20,19.51-39.25h3.58S86.92,325,79.11,320.56Z"/><path class="cls-3" d="M117,270.22s-9.06,25.12-11.92,18.11c0,0-4.16,14.12,6.51,2.32C111.56,290.65,119.17,281.68,117,270.22Z"/><path class="cls-3" d="M76.68,347.86s8.09-6.15,11.43-13.95c0,0-7.18,16.27-2.09,27.74,0,0,4.25-20.76,11.55-33.14,0,0,14.47-13.32,17.36-27.42,0,0,3.83-12,0-19.78,0,0-13,32.49-28.91,41.8a13.73,13.73,0,0,0,13.29.11S79.51,334,69,338.52h0a5.52,5.52,0,0,0,.76,2.21,10.44,10.44,0,0,0,.24,1.11c4-1.31,10.06-3.61,12.95-6.44C83,335.4,79.91,344.37,76.68,347.86Z"/><path class="cls-3" d="M117,270.22s4.47,6.89-1.33,28.12l-2.4-4.7,2.68-7.14-1.78-2.22,3-7.42Z"/><path class="cls-3" d="M74.17,330.28c15.15-11.84,26.2-19.18,26.2-19.18-15.26,12.76-29.54,12.65-29.54,12.65C73.17,325.06,74.17,330.28,74.17,330.28Z"/><path class="cls-3" d="M125.25,265s6.74,9.77,0,43.7C125.25,308.67,138.72,276.6,125.25,265Z"/><path class="cls-3" d="M123.3,274.74s2.45,13.42-8.53,44.92C114.77,319.66,131.83,293.53,123.3,274.74Z"/><path class="cls-3" d="M128.24,271.44l.95-11.42s-2-.66-3.94-5.23c0,0,2.53,4.09,6,.82,0,0,1,18-.34,31.57Z"/><path class="cls-3" d="M128.24,247s1.95,4.85-3.84,5.11c0,0-3.5-.34-2.59-5.86,0,0,5.79-2.09,8.23-9.69,0,0-2.9-.3-4.19-2.09,0,0,20.49-3.88,27.05-15.06,0,0,3.2,6.26-8.69,11.48,0,0-9.91,4.62-9.6,9.84,0,0-1.62-1.93-3-1.19C131.59,239.56,131.47,245.52,128.24,247Z"/><path class="cls-3" d="M164.46,282l5.84,1.4,2.16,9.79,8.92.38-4.8-21.1,4.15-4.92c-2.11-2.7-6-20-6-20a41.2,41.2,0,0,0,1-11.9,7.25,7.25,0,0,0,1.62-6.35c-6.36,8.56-24.42-9.9-24.42-9.9a4,4,0,0,0,.12,3.75c6.21,5.25,16.34,10.72,16.34,10.72-.16,7-2.44,7-2.44,7a2.23,2.23,0,0,1,2,1.64c1.07,3.73-1.53,14-1.53,14-4.26,11-15.39,10.19-15.39,10.19-17.21,0-18.13-5.22-18.13-5.22C130.5,267.3,164.46,282,164.46,282Z"/><path class="cls-3" d="M139.51,241.85s-3.06-1.12-3.26-1.87c0,0,2.88-.56,3.26-2.25,0,0,7.85,0,6.51-1.95,0,0,5.36-2,4.41,4.76C150.43,240.54,142.25,236.47,139.51,241.85Z"/><path class="cls-3" d="M149,250.37a5,5,0,0,1,3.7,0A3.87,3.87,0,0,0,157,250V237.45s5.64-7.83,8.9,0c0,0-6.3-1.57-6.4,2.74l-.6,1.66v7.94s.7,3.72-.6,4.41c0,0-2.5,2.05-3.71,0C154.58,254.2,151.58,250.28,149,250.37Z"/><path class="cls-3" d="M169.58,236.18a3.3,3.3,0,0,1-4.19-.07c-.56-.47-.94-1.07-1.7-1.2-1.11-.19-1.31,1.05-2.2,1.66l.8.58a4.1,4.1,0,0,1,2.8,1.26c.49.57.52,2.08,1,2.37a3.27,3.27,0,0,0,3.18-.66C169.88,239.13,169.63,237.3,169.58,236.18Z"/><path class="cls-3" d="M158.77,254c-.74-.11-1.41.32-2.11.33s-1.28-.29-2.08-.33a6.94,6.94,0,0,0-3.89,1.14c-1.51,1-1.55,1.39-3.55,1.39l.49.79A10.71,10.71,0,0,0,151,257c1.07-.34,2-1.14,3.22-1.26,2.41-.25,4.43,1.3,6.76,1.08C160.83,255.49,160.19,254.22,158.77,254Z"/><path class="cls-3" d="M160.22,256.53c-.36-.1-.76-.57-1.15-.51s-.73.88-1,1.15a3.8,3.8,0,0,1-2.88.85c-1.08,0-2.16-.08-3.2-.18a7.91,7.91,0,0,1-2-.1c-.37-.15-.65-.61-1-.79l-.65.22c.59.92.89,2.28,2.18,2.57a19.92,19.92,0,0,0,3.86,0,20.39,20.39,0,0,0,4.14-.14,1.46,1.46,0,0,0,1.33-1.21A4.61,4.61,0,0,0,160.22,256.53Z"/><polygon class="cls-3" points="148.36 274.18 148.98 291.01 150.83 273.35 148.98 273.35 148.36 274.18"/><polygon class="cls-3" points="152.51 276.36 152.51 291.78 155.51 277.86 155.51 274.74 152.51 276.36"/><path class="cls-3" d="M165.89,297.33s3.71-4.24,6.57-4.12H170.3l-5.84-2V282l3.33.8.34-4.66-6,2.81s-.32,11-6.6,12.62C155.51,293.59,156.3,296.53,165.89,297.33Z"/><path class="cls-3" d="M123.79,354.94s22.25-18.86,23.35-32.33c0,0,14.12-11.19,18.75-21.52,0,0-7,14.46-23.38,35.73L154,322.61S137.23,344.7,123.79,354.94Z"/><path class="cls-3" d="M147.14,322.61s-23.46,13.51-35.14,39c0,0,18.2-27.2,33-38.49Z"/><path class="cls-3" d="M97.57,345.74s-4.69,12.35-5.08,21.8l5.08-7.88S96.87,350.73,97.57,345.74Z"/><path class="cls-3" d="M115.92,325.16s-10.54,15.07-10.74,26.36l5-5.78S115.53,330.15,115.92,325.16Z"/><path class="cls-3" d="M133.62,319.66s-13.11,6.74-13,16.49l4.18-3.69S128.11,331.68,133.62,319.66Z"/><path class="cls-3" d="M137.47,284.28s11.79,30.46,20,18.93C157.5,303.21,150.47,323.85,137.47,284.28Z"/><path class="cls-3" d="M133.39,291s11.78,30.47,20,18.94C153.41,310,146.38,330.59,133.39,291Z"/><path class="cls-3" d="M170.3,325.16s-16,18.76-31.54,29.78c0,0-22.75,15.19-26.76,23.6,0,0,13.29-9.15,31.73-20.21C143.73,358.33,165.23,347.32,170.3,325.16Z"/><path class="cls-3" d="M85.85,506.65s13.58-33.15,29.74-65.18c0,0,35.49-74.24,41.61-98.71l-4.34,3s-24.69,53-34.2,75.51C118.66,421.25,84.7,488,85.85,506.65Z"/><path class="cls-3" d="M179.65,301.09s-4.39,22.22-20.3,55.55C159.35,356.64,187.05,327,179.65,301.09Z"/><path class="cls-3" d="M165.89,299.41s4.72-4.25,12.79,0C178.68,299.41,169.86,298.2,165.89,299.41Z"/><path class="cls-3" d="M179.65,301.09l-8,21.52S180,313.1,179.65,301.09Z"/><path class="cls-3" d="M178.68,299.41s-6.74,0-12.79,18.83C165.89,318.24,173.1,306.09,178.68,299.41Z"/><path class="cls-3" d="M165.89,307.35s2.68-10.23,12.79-7.94A15.43,15.43,0,0,0,165.89,307.35Z"/><path class="cls-3" d="M188.72,311.85s-5.14-3.9-5.14-7.17c0,0,15.94-1.91,20.3,15s0,1.69,0,1.69S193.86,306,188.72,311.85Z"/><path class="cls-3" d="M187.37,354.94a81.21,81.21,0,0,0,.9-17.51,2.15,2.15,0,0,0,.45-.92c2.16-4.36,10.67-13.34-.51-22.52a33.86,33.86,0,0,1,3.4,8c0,1.54-4.69.74-5.11,2.21-.11.38-.25.78-.41,1.18-1-3.05,2.16-3.61.16-5.93.6,2.15-3.29,5-2.68,16.7,0,0-5.65,54.26,5.4,67.33C189,403.48,184.55,377.05,187.37,354.94Z"/><path class="cls-3" d="M173.8,326.88l-1.85,5.6S169,378.23,157.2,400.85c0,0-10.63,68.67-22.3,96.27,0,0,12.07-13,26.36-93.64C161.26,403.48,175.67,372.89,173.8,326.88Z"/><path class="cls-3" d="M211.78,376.8s-10.17-35.86-16.4-47.14c0,0,.76,17.68-2,27,0,0,4.54-7.23,4.54-11.43a11.84,11.84,0,0,1,0,11.43s8.33.23,14.63,46.84c0,0-9.08-41.49-15.38-40.25,0,0-6.94,1.47-8.83,5.43,0,0,8.83-.74,9.84,8.63,0,0,1.48,20.89-8.09,28.71,0,0-22,16-8.45,19.91,0,0-5.78-5.92,9.54-16.78,0,0,9.7-5.86,10-23.69,0,0,6.54,19.25,9.31,37,0,0-1.26-16.53-2.52-22.21,0,0,10.85,15.06,13.87,29.61C221.86,429.86,222.12,411.6,211.78,376.8Z"/><path class="cls-3" d="M215,372.36a52,52,0,0,0,6.91-8.14s-4.74,3.45-6.91,3.45c0,0-2.94-8.68.22-11.62C212.9,352.56,208,351,208,351s10.54,59.15,13.82,78.89C221.86,429.86,218.84,392.34,215,372.36Z"/><path class="cls-3" d="M151.19,216.44h.29c1.43-.05,2.77,0,4,0V205a39.82,39.82,0,0,0-5.06.08Z"/><path class="cls-3" d="M145.81,217.16c1.52-.31,2.8-.49,3.77-.6l-.73-11.3a37.54,37.54,0,0,0-5.45,1h0Z"/><path class="cls-3" d="M176.29,215.65l-3.39,7a14.46,14.46,0,0,1,1,1.08l3.47-6.26C177,216.82,176.67,216.22,176.29,215.65Z"/><path class="cls-3" d="M137.51,208.88l3.1,9.75a37.21,37.21,0,0,1,3.63-1.1l-2.38-10.66C140.33,207.5,138.87,208.16,137.51,208.88Z"/><path class="cls-3" d="M173.6,212.32l-3.69,8a20.65,20.65,0,0,1,1.75,1.23l3.56-7.32A21,21,0,0,0,173.6,212.32Z"/><path class="cls-3" d="M162.91,206.17,162,217.22a29.38,29.38,0,0,1,3.47,1l2.91-9.79A26,26,0,0,0,162.91,206.17Z"/><path class="cls-3" d="M132.6,211.88l4,8.47c.86-.43,1.71-.81,2.55-1.15l-3-9.52C134.85,210.38,133.69,211.12,132.6,211.88Z"/><path class="cls-3" d="M157.13,205.13v11.4c1.17.09,2.27.22,3.31.39l.89-11.14A33.45,33.45,0,0,0,157.13,205.13Z"/><path class="cls-3" d="M169.83,209.25,167,218.76c.53.23,1,.46,1.51.71l3.86-8.31A20.82,20.82,0,0,0,169.83,209.25Z"/><path class="cls-3" d="M130.14,224.49c.6-.5,1.21-1,1.82-1.41l-4.67-6.75c-.74.73-1.43,1.48-2.08,2.23Z"/><path class="cls-3" d="M128.46,215.22l4.83,7c.61-.39,1.22-.75,1.83-1.09l-3.84-8.25Q129.78,214,128.46,215.22Z"/><path class="cls-3" d="M117.52,232.24c-.18.54-.34,1.07-.48,1.58a12.56,12.56,0,0,0,3,6,38.55,38.55,0,0,1,1.63-4.26Z"/><path class="cls-3" d="M175,225.09a14.07,14.07,0,0,1,2.46,6.49l1.34-11.3c-.17-.39-.34-.75-.52-1.12Z"/><path class="cls-3" d="M119.91,226.48c-.26.5-.5,1-.72,1.49l4.73,3.55.41-.64Z"/><path class="cls-3" d="M118.07,230.65l4.36,3.43c.21-.41.43-.8.66-1.19l-4.55-3.43C118.37,229.86,118.21,230.26,118.07,230.65Z"/><path class="cls-3" d="M128.94,225.54l-4.77-5.74c-.36.46-.71.93-1,1.39l4.68,5.44C128.18,226.25,128.56,225.89,128.94,225.54Z"/><path class="cls-3" d="M120.69,225l4.58,4.56c.47-.61,1-1.21,1.44-1.77l-4.52-5.25C121.65,223.38,121.14,224.2,120.69,225Z"/><path class="cls-3" d="M175.7,235.68,180,245.92s-1.46,2.07-5.29,1.66l-1.83-1.77v-6.45Z"/><path class="cls-2" d="M92.93,43.48a9.2,9.2,0,0,1-1.08-6.18c4-18.32-4.55-22.91-4.55-22.91,2.94,9.88,0,15.25,0,15.25C87.58,26,85.5,25,85.5,25a11,11,0,0,1-3.94,7.16A7,7,0,0,0,77,26.82a15,15,0,0,1-1.32,11.29,5.93,5.93,0,0,0-7.34-3.67c5.57,4.24,2.34,7.63,2.34,7.63-10.55,9.6,0,18.14,0,18.14H86.84C101.45,48.42,92.93,43.48,92.93,43.48Z"/><path class="cls-4" d="M92.93,43.48a9.2,9.2,0,0,1-1.08-6.18c4-18.32-4.55-22.91-4.55-22.91,2.94,9.88,0,15.25,0,15.25C87.58,26,85.5,25,85.5,25a11,11,0,0,1-3.94,7.16A7,7,0,0,0,77,26.82a15,15,0,0,1-1.32,11.29,5.93,5.93,0,0,0-7.34-3.67c5.57,4.24,2.34,7.63,2.34,7.63-7.13,6.49-4.62,12.5-2.24,15.7a21,21,0,0,0,3.77.23A14.28,14.28,0,0,0,78,56.73c2.6-1.06,5.66-.85,8.12-2.12h-1c1.6-.18,3.62-1.31,5-2a21.52,21.52,0,0,0,5.12-3.49A5.48,5.48,0,0,0,92.93,43.48Z"/><path class="cls-5" d="M88.59,48.72a9.58,9.58,0,0,0-2-6.26,7.7,7.7,0,0,1-3.2,6.26A7.83,7.83,0,0,0,82,43.39c0,3.94-4.62,7.71-4.62,7.71,0-3.3-2.72-5.86-2.72-5.86,0,2.32-2.73,4.41-2.73,4.41a10.43,10.43,0,0,1,1.19-5.56,12.28,12.28,0,0,0-6.88,9.09,14.3,14.3,0,0,0,4.44,7H86.84c14.61-11.79,6.09-16.73,6.09-16.73A5.08,5.08,0,0,1,88.59,48.72Z"/><path class="cls-3" d="M140.49,240.51s.75,2,5.92,1.34a9.57,9.57,0,0,1-6.9,0l-.54-1.34.78-.49Z"/><path class="cls-3" d="M165.58,239.66s.55,2.32-2.27,2.83c0,0,2.88.86,4.37-1.41l-.69-2.4Z"/><text class="cls-6" transform="translate(329.74 153.9)"><tspan xml:space="preserve">American Info Systems  Inc</tspan><tspan class="cls-7"><tspan x="33.65" y="55.2">Partner with Confidence</tspan></tspan></text><line class="cls-8" x1="-0.02" y1="346" x2="309.42" y2="345.72"/><line class="cls-8" x1="8.02" y1="351.43" x2="6.83"/><line class="cls-8" x1="306.49" y1="350.55" x2="305.33" y2="-0.48"/><line class="cls-8" x1="4.44" y1="6.58" x2="308.91" y2="6.58"/></svg>