<svg xmlns="http://www.w3.org/2000/svg" viewBox="0 0 400 300"><defs><style>.cls-1{isolation:isolate;}.cls-2{fill:#dff1fb;}.cls-3{fill:#40577e;}.cls-4{fill:#657ca3;}.cls-5{fill:#223749;}.cls-6{fill:#4a5a7d;}.cls-7{fill:#010101;}.cls-8{fill:#1f2b46;}.cls-21,.cls-9{opacity:0.5;}.cls-10{fill:#177594;}.cls-11{fill:#81c17d;}.cls-12{opacity:0.3;}.cls-12,.cls-21{mix-blend-mode:multiply;}.cls-13{opacity:0.8;}.cls-14{fill:#d64662;}.cls-15{fill:#fff;}.cls-16{fill:#fbc686;}.cls-17{fill:#0b161e;}.cls-18{fill:#90d1f4;}.cls-19{fill:#122330;}.cls-20{fill:#21121d;}.cls-22{fill:#4db7d8;}.cls-23{fill:#f49e75;}.cls-24{fill:#ee7263;}.cls-25{fill:#e83d4f;}.cls-26{fill:#e12843;}.cls-27{fill:#eb5a7f;}.cls-28{fill:#f9d2df;}.cls-29{fill:#f3914a;}</style></defs><g class="cls-1"><g id="Layer_1" data-name="Layer 1"><path class="cls-2" d="M25.89,277.06c.32.32-2.34.1-2,.4s.41.37.62.54H46.66a36.61,36.61,0,0,0,3.54-1.88l.17-.11,2.36.11,21.16.94,192.33-.94,41.08-.21c57.09-74.33,46.39-129.52,23.44-164C304.35,72.35,226.23,78.53,213.68,78.57S193.63,70,185.56,49.62,156.4,30.31,128.23,36.76,7.38,92.55,2,173.11C-1.25,220.7,11.38,262.13,25.89,277.06Z"/><rect class="cls-3" x="38.44" y="185.68" width="153.09" height="62.67" transform="translate(229.97 434.04) rotate(180)"/><rect class="cls-4" x="38.44" y="185.68" width="34.18" height="90.43" transform="translate(111.06 461.8) rotate(180)"/><rect class="cls-5" x="29.47" y="182.68" width="187.83" height="3.01" transform="translate(246.77 368.36) rotate(180)"/><rect class="cls-6" x="172.41" y="185.68" width="38.61" height="90.43"/><rect class="cls-4" x="169.3" y="185.68" width="3.11" height="90.43"/><rect class="cls-6" x="37.07" y="185.68" width="2.75" height="90.43"/><rect class="cls-7" x="82.1" y="182.64" width="135.2" height="0.21" transform="translate(-0.19 0.15) rotate(-0.06)"/><rect class="cls-7" x="35.03" y="182.64" width="57.51" height="0.21"/><rect class="cls-7" x="82.28" y="185.58" width="135.02" height="0.21"/><rect class="cls-7" x="63.73" y="156.93" width="0.21" height="57.62" transform="translate(-121.99 249.33) rotate(-89.93)"/><polygon class="cls-7" points="29.42 185.79 56.71 185.79 56.71 185.58 29.52 185.58 29.52 182.78 60.34 182.78 60.34 182.57 29.42 182.57 29.42 185.79"/><path class="cls-7" d="M210.93,206.17h.21s0-20.14,0-20.49h-.21C210.91,186,210.93,206.17,210.93,206.17Z"/><rect class="cls-7" x="169.2" y="185.68" width="0.21" height="90.43"/><rect class="cls-7" x="172.3" y="185.68" width="0.21" height="44.17"/><polygon class="cls-7" points="175.99 193.1 179.52 189.94 179.38 189.79 175.85 192.95 175.99 193.1"/><polygon class="cls-7" points="175.54 195.53 179.07 192.37 178.93 192.22 175.4 195.38 175.54 195.53"/><rect class="cls-7" x="125.9" y="248.25" width="43.41" height="0.21"/><rect class="cls-7" x="39.71" y="185.68" width="0.21" height="90.43"/><rect class="cls-8" x="246.93" y="22" width="144.57" height="254.12"/><rect class="cls-6" x="226.6" y="22" width="144.57" height="254.12"/><rect class="cls-8" x="234.78" y="27.96" width="130.27" height="65.21"/><rect class="cls-8" x="302.18" y="122.44" width="62.87" height="28.35"/><rect class="cls-8" x="234.78" y="122.44" width="61.82" height="28.35"/><rect class="cls-3" x="300.37" y="37.95" width="61.42" height="17.22" rx="2.29"/><g class="cls-9"><rect class="cls-10" x="300.37" y="50.28" width="61.42" height="1.09" transform="translate(662.16 101.65) rotate(180)"/></g><rect class="cls-10" x="318.39" y="40.55" width="0.73" height="8.14" transform="translate(637.51 89.25) rotate(180)"/><rect class="cls-10" x="313.81" y="40.55" width="0.73" height="8.14" transform="translate(628.35 89.25) rotate(180)"/><rect class="cls-10" x="309.23" y="40.55" width="0.73" height="8.14" transform="translate(619.19 89.25) rotate(180)"/><rect class="cls-10" x="304.65" y="40.55" width="0.73" height="8.14" transform="translate(610.04 89.25) rotate(180)"/><g class="cls-9"><circle class="cls-11" cx="353.78" cy="44.62" r="2.18" transform="translate(253.07 386.69) rotate(-80.78)"/></g><g class="cls-9"><circle class="cls-11" cx="347.09" cy="44.62" r="2.18" transform="translate(247.45 380.09) rotate(-80.78)"/></g><g class="cls-9"><circle class="cls-11" cx="340.4" cy="44.62" r="2.18" transform="matrix(0.07, -1, 1, 0.07, 271.76, 381)"/></g><path class="cls-7" d="M302.66,55.27v-.2a2.18,2.18,0,0,1-2.18-2.18V40.24a2.18,2.18,0,0,1,2.18-2.19H359.5a2.19,2.19,0,0,1,2.18,2.19V52.89h.21V40.24a2.39,2.39,0,0,0-2.39-2.39H302.66a2.39,2.39,0,0,0-2.39,2.39V52.89A2.39,2.39,0,0,0,302.66,55.27Z"/><rect class="cls-7" x="300.37" y="50.17" width="61.42" height="0.21"/><path class="cls-7" d="M353.78,46.91a2.29,2.29,0,1,0,0-4.57v.21a2.08,2.08,0,1,1,0,4.15Z"/><path class="cls-7" d="M349.32,45.14a2.33,2.33,0,0,0-.29-1.73,2.3,2.3,0,0,0-1.42-1,2.28,2.28,0,0,0-2.74,1.71l.2,0a2.07,2.07,0,0,1,3.78-.64,2,2,0,0,1,.26,1.57Z"/><path class="cls-7" d="M340.38,46.89a2.3,2.3,0,0,0,1.22-.35,2.26,2.26,0,0,0,1-1.43l-.2,0a2.1,2.1,0,0,1-2.48,1.57,2.11,2.11,0,0,1-1.3-.92,2,2,0,0,1-.27-1.56l-.2,0a2.21,2.21,0,0,0,.3,1.72,2.26,2.26,0,0,0,1.42,1A2.21,2.21,0,0,0,340.38,46.89Z"/><rect class="cls-7" x="319.01" y="40.55" width="0.21" height="8.14"/><rect class="cls-7" x="314.43" y="40.55" width="0.21" height="8.14"/><rect class="cls-7" x="309.85" y="40.55" width="0.21" height="8.14"/><rect class="cls-7" x="305.28" y="40.55" width="0.21" height="8.14"/><rect class="cls-7" x="329.96" y="41.63" width="0.21" height="4.04" transform="translate(133.2 312.16) rotate(-61.29)"/><rect class="cls-7" x="328.98" y="42.61" width="0.21" height="4.04" transform="translate(131.88 311.84) rotate(-61.3)"/><rect class="cls-3" x="300.37" y="55.18" width="61.42" height="17.22" rx="2.29"/><g class="cls-9"><rect class="cls-10" x="300.37" y="67.5" width="61.42" height="1.09" transform="translate(662.16 136.1) rotate(180)"/></g><rect class="cls-10" x="318.39" y="57.78" width="0.73" height="8.14" transform="translate(637.51 123.7) rotate(180)"/><rect class="cls-10" x="313.81" y="57.78" width="0.73" height="8.14" transform="translate(628.35 123.7) rotate(180)"/><rect class="cls-10" x="309.23" y="57.78" width="0.73" height="8.14" transform="translate(619.19 123.7) rotate(180)"/><rect class="cls-10" x="304.65" y="57.78" width="0.73" height="8.14" transform="translate(610.04 123.7) rotate(180)"/><g class="cls-9"><path class="cls-11" d="M351.61,61.85a2.18,2.18,0,1,0,2.17-2.18A2.18,2.18,0,0,0,351.61,61.85Z"/></g><g class="cls-9"><path class="cls-11" d="M344.91,61.85a2.18,2.18,0,1,0,2.18-2.18A2.19,2.19,0,0,0,344.91,61.85Z"/></g><g class="cls-9"><path class="cls-11" d="M338.22,61.85a2.18,2.18,0,1,0,2.18-2.18A2.19,2.19,0,0,0,338.22,61.85Z"/></g><path class="cls-7" d="M302.66,72.5v-.21a2.18,2.18,0,0,1-2.18-2.18V57.46a2.18,2.18,0,0,1,2.18-2.18H359.5a2.19,2.19,0,0,1,2.18,2.18V70.11h.21V57.46a2.39,2.39,0,0,0-2.39-2.39H302.66a2.39,2.39,0,0,0-2.39,2.39V70.11A2.39,2.39,0,0,0,302.66,72.5Z"/><rect class="cls-7" x="300.37" y="67.4" width="61.42" height="0.21"/><path class="cls-7" d="M353.78,64.13a2.28,2.28,0,1,0,0-4.56v.2a2.08,2.08,0,1,1,0,4.15Z"/><path class="cls-7" d="M349.32,62.36a2.31,2.31,0,0,0-.29-1.72,2.27,2.27,0,0,0-1.42-1,2.33,2.33,0,0,0-1.73.29,2.26,2.26,0,0,0-1,1.42l.2.05a2.08,2.08,0,0,1,2.49-1.55,2.07,2.07,0,0,1,1.55,2.49Z"/><path class="cls-7" d="M340.38,64.12a2.26,2.26,0,0,0,2.22-1.78l-.2-.05a2.07,2.07,0,0,1-.92,1.3,2,2,0,0,1-1.56.27,2.09,2.09,0,0,1-1.3-.91,2.07,2.07,0,0,1-.27-1.57l-.2,0a2.29,2.29,0,0,0,2.23,2.78Z"/><rect class="cls-7" x="319.01" y="57.78" width="0.21" height="8.14"/><rect class="cls-7" x="314.43" y="57.78" width="0.21" height="8.14"/><rect class="cls-7" x="309.85" y="57.78" width="0.21" height="8.14"/><rect class="cls-7" x="305.28" y="57.78" width="0.21" height="8.14"/><polygon class="cls-7" points="331.79 61.94 331.89 61.76 328.35 59.81 328.25 59.99 331.79 61.94"/><rect class="cls-7" x="328.98" y="59.84" width="0.21" height="4.04" transform="translate(116.76 320.78) rotate(-61.29)"/><rect class="cls-3" x="300.37" y="72.39" width="61.42" height="17.22" rx="2.29"/><g class="cls-9"><rect class="cls-10" x="300.37" y="84.72" width="61.42" height="1.09" transform="translate(662.16 170.53) rotate(180)"/></g><rect class="cls-10" x="318.39" y="74.99" width="0.73" height="8.14" transform="translate(637.51 158.13) rotate(180)"/><rect class="cls-10" x="313.81" y="74.99" width="0.73" height="8.14" transform="translate(628.35 158.13) rotate(180)"/><rect class="cls-10" x="309.23" y="74.99" width="0.73" height="8.14" transform="translate(619.19 158.13) rotate(180)"/><rect class="cls-10" x="304.65" y="74.99" width="0.73" height="8.14" transform="translate(610.04 158.13) rotate(180)"/><g class="cls-9"><path class="cls-11" d="M351.61,79.06a2.18,2.18,0,1,0,2.17-2.17A2.17,2.17,0,0,0,351.61,79.06Z"/></g><g class="cls-9"><path class="cls-11" d="M344.91,79.06a2.18,2.18,0,1,0,2.18-2.17A2.18,2.18,0,0,0,344.91,79.06Z"/></g><g class="cls-9"><path class="cls-11" d="M338.22,79.06a2.18,2.18,0,1,0,2.18-2.17A2.18,2.18,0,0,0,338.22,79.06Z"/></g><path class="cls-7" d="M302.66,89.72v-.21a2.18,2.18,0,0,1-2.18-2.18V74.68a2.17,2.17,0,0,1,2.18-2.18H359.5a2.18,2.18,0,0,1,2.18,2.18V87.33h.21V74.68a2.39,2.39,0,0,0-2.39-2.39H302.66a2.39,2.39,0,0,0-2.39,2.39V87.33A2.4,2.4,0,0,0,302.66,89.72Z"/><rect class="cls-7" x="300.37" y="84.62" width="61.42" height="0.21"/><path class="cls-7" d="M353.78,81.35a2.29,2.29,0,1,0,0-4.57V77a2.08,2.08,0,1,1,0,4.15Z"/><path class="cls-7" d="M349.32,79.58a2.3,2.3,0,0,0-.29-1.72,2.28,2.28,0,0,0-4.16.69l.2,0a2.07,2.07,0,0,1,3.78-.63,2,2,0,0,1,.26,1.56Z"/><path class="cls-7" d="M340.38,81.34a2.29,2.29,0,0,0,2.22-1.79l-.2,0a2.07,2.07,0,0,1-3.78.65,2,2,0,0,1-.27-1.56l-.2,0a2.3,2.3,0,0,0,2.23,2.79Z"/><rect class="cls-7" x="319.01" y="74.99" width="0.21" height="8.14"/><rect class="cls-7" x="314.43" y="74.99" width="0.21" height="8.14"/><rect class="cls-7" x="309.85" y="74.99" width="0.21" height="8.14"/><rect class="cls-7" x="305.28" y="74.99" width="0.21" height="8.14"/><rect class="cls-7" x="329.96" y="76.07" width="0.21" height="4.04" transform="translate(102.98 330.03) rotate(-61.28)"/><rect class="cls-7" x="328.98" y="77.05" width="0.21" height="4.04" transform="translate(101.64 329.71) rotate(-61.29)"/><rect class="cls-3" x="237.38" y="37.95" width="61.42" height="17.22" rx="2.29"/><g class="cls-9"><rect class="cls-10" x="237.38" y="50.28" width="61.42" height="1.09" transform="translate(536.17 101.65) rotate(180)"/></g><rect class="cls-10" x="255.4" y="40.55" width="0.73" height="8.14" transform="translate(511.52 89.25) rotate(180)"/><rect class="cls-10" x="250.82" y="40.55" width="0.73" height="8.14" transform="translate(502.36 89.25) rotate(180)"/><rect class="cls-10" x="246.24" y="40.55" width="0.73" height="8.14" transform="translate(493.21 89.25) rotate(180)"/><rect class="cls-10" x="241.66" y="40.55" width="0.73" height="8.14" transform="translate(484.05 89.25) rotate(180)"/><g class="cls-9"><circle class="cls-11" cx="290.79" cy="44.62" r="2.18" transform="translate(200.16 324.51) rotate(-80.78)"/></g><g class="cls-9"><circle class="cls-11" cx="284.1" cy="44.62" r="2.18" transform="translate(194.54 317.91) rotate(-80.78)"/></g><g class="cls-9"><circle class="cls-11" cx="277.41" cy="44.62" r="2.18" transform="translate(213.23 318.17) rotate(-85.94)"/></g><path class="cls-7" d="M239.66,55.27v-.2a2.19,2.19,0,0,1-2.18-2.18V40.24a2.19,2.19,0,0,1,2.18-2.19h56.85a2.19,2.19,0,0,1,2.18,2.19V52.89h.21V40.24a2.39,2.39,0,0,0-2.39-2.39H239.66a2.4,2.4,0,0,0-2.39,2.39V52.89A2.39,2.39,0,0,0,239.66,55.27Z"/><rect class="cls-7" x="237.38" y="50.17" width="61.42" height="0.21"/><path class="cls-7" d="M290.79,46.91a2.29,2.29,0,0,0,0-4.57v.21a2.08,2.08,0,1,1,0,4.15Z"/><path class="cls-7" d="M286.32,45.14a2.28,2.28,0,0,0-.28-1.73,2.32,2.32,0,0,0-1.43-1,2.22,2.22,0,0,0-1.72.29,2.25,2.25,0,0,0-1,1.42l.21,0a2.07,2.07,0,0,1,3.78-.64,2.11,2.11,0,0,1,.26,1.57Z"/><path class="cls-7" d="M277.38,46.89a2.3,2.3,0,0,0,1.22-.35,2.28,2.28,0,0,0,1-1.43l-.21,0a2,2,0,0,1-.91,1.29,2,2,0,0,1-1.56.28,2.08,2.08,0,0,1-1.3-.92,2,2,0,0,1-.27-1.56l-.21,0a2.29,2.29,0,0,0,1.73,2.73A2.18,2.18,0,0,0,277.38,46.89Z"/><rect class="cls-7" x="256.02" y="40.55" width="0.21" height="8.14"/><rect class="cls-7" x="251.44" y="40.55" width="0.21" height="8.14"/><rect class="cls-7" x="246.86" y="40.55" width="0.21" height="8.14"/><rect class="cls-7" x="242.28" y="40.55" width="0.21" height="8.14"/><rect class="cls-7" x="266.97" y="41.63" width="0.21" height="4.04" transform="translate(100.48 256.91) rotate(-61.29)"/><rect class="cls-7" x="265.99" y="42.61" width="0.21" height="4.04" transform="translate(99.14 256.59) rotate(-61.3)"/><rect class="cls-3" x="237.38" y="55.18" width="61.42" height="17.22" rx="2.29"/><g class="cls-9"><rect class="cls-10" x="237.38" y="67.5" width="61.42" height="1.09" transform="translate(536.17 136.1) rotate(180)"/></g><rect class="cls-10" x="255.4" y="57.78" width="0.73" height="8.14" transform="translate(511.52 123.7) rotate(180)"/><rect class="cls-10" x="250.82" y="57.78" width="0.73" height="8.14" transform="translate(502.36 123.7) rotate(180)"/><rect class="cls-10" x="246.24" y="57.78" width="0.73" height="8.14" transform="translate(493.21 123.7) rotate(180)"/><rect class="cls-10" x="241.66" y="57.78" width="0.73" height="8.14" transform="translate(484.05 123.7) rotate(180)"/><g class="cls-9"><path class="cls-11" d="M288.61,61.85a2.18,2.18,0,1,0,2.18-2.18A2.19,2.19,0,0,0,288.61,61.85Z"/></g><g class="cls-9"><path class="cls-11" d="M281.92,61.85a2.18,2.18,0,1,0,2.18-2.18A2.19,2.19,0,0,0,281.92,61.85Z"/></g><g class="cls-9"><path class="cls-11" d="M275.23,61.85a2.18,2.18,0,1,0,2.18-2.18A2.18,2.18,0,0,0,275.23,61.85Z"/></g><path class="cls-7" d="M239.66,72.5v-.21a2.19,2.19,0,0,1-2.18-2.18V57.46a2.19,2.19,0,0,1,2.18-2.18h56.85a2.19,2.19,0,0,1,2.18,2.18V70.11h.21V57.46a2.39,2.39,0,0,0-2.39-2.39H239.66a2.4,2.4,0,0,0-2.39,2.39V70.11A2.4,2.4,0,0,0,239.66,72.5Z"/><rect class="cls-7" x="237.38" y="67.4" width="61.42" height="0.21"/><path class="cls-7" d="M290.79,64.13a2.28,2.28,0,0,0,0-4.56v.2a2.08,2.08,0,1,1,0,4.15Z"/><path class="cls-7" d="M286.32,62.36a2.26,2.26,0,0,0-.28-1.72,2.29,2.29,0,0,0-4.17.69l.21.05a2.08,2.08,0,0,1,3.78-.63,2.11,2.11,0,0,1,.26,1.57Z"/><path class="cls-7" d="M277.38,64.12a2.28,2.28,0,0,0,2.23-1.78l-.21-.05a2.07,2.07,0,0,1-3.77.66,2,2,0,0,1-.27-1.57l-.21,0a2.32,2.32,0,0,0,.3,1.72,2.29,2.29,0,0,0,1.43,1A2.2,2.2,0,0,0,277.38,64.12Z"/><rect class="cls-7" x="256.02" y="57.78" width="0.21" height="8.14"/><rect class="cls-7" x="251.44" y="57.78" width="0.21" height="8.14"/><rect class="cls-7" x="246.86" y="57.78" width="0.21" height="8.14"/><rect class="cls-7" x="242.28" y="57.78" width="0.21" height="8.14"/><polygon class="cls-7" points="268.8 61.94 268.89 61.76 265.35 59.81 265.25 59.99 268.8 61.94"/><rect class="cls-7" x="265.99" y="59.84" width="0.21" height="4.04" transform="translate(84.03 265.53) rotate(-61.29)"/><rect class="cls-3" x="237.38" y="72.39" width="61.42" height="17.22" rx="2.29"/><g class="cls-9"><rect class="cls-10" x="237.38" y="84.72" width="61.42" height="1.09" transform="translate(536.17 170.53) rotate(180)"/></g><rect class="cls-10" x="255.4" y="74.99" width="0.73" height="8.14" transform="translate(511.52 158.13) rotate(180)"/><rect class="cls-10" x="250.82" y="74.99" width="0.73" height="8.14" transform="translate(502.36 158.13) rotate(180)"/><rect class="cls-10" x="246.24" y="74.99" width="0.73" height="8.14" transform="translate(493.21 158.13) rotate(180)"/><rect class="cls-10" x="241.66" y="74.99" width="0.73" height="8.14" transform="translate(484.05 158.13) rotate(180)"/><g class="cls-9"><path class="cls-11" d="M288.61,79.06a2.18,2.18,0,1,0,2.18-2.17A2.18,2.18,0,0,0,288.61,79.06Z"/></g><g class="cls-9"><path class="cls-11" d="M281.92,79.06a2.18,2.18,0,1,0,2.18-2.17A2.18,2.18,0,0,0,281.92,79.06Z"/></g><g class="cls-9"><path class="cls-11" d="M275.23,79.06a2.18,2.18,0,1,0,2.18-2.17A2.17,2.17,0,0,0,275.23,79.06Z"/></g><path class="cls-7" d="M239.66,89.72v-.21a2.19,2.19,0,0,1-2.18-2.18V74.68a2.18,2.18,0,0,1,2.18-2.18h56.85a2.18,2.18,0,0,1,2.18,2.18V87.33h.21V74.68a2.39,2.39,0,0,0-2.39-2.39H239.66a2.4,2.4,0,0,0-2.39,2.39V87.33A2.4,2.4,0,0,0,239.66,89.72Z"/><rect class="cls-7" x="237.38" y="84.62" width="61.42" height="0.21"/><path class="cls-7" d="M290.79,81.35a2.29,2.29,0,0,0,0-4.57V77a2.08,2.08,0,1,1,0,4.15Z"/><path class="cls-7" d="M286.32,79.58a2.26,2.26,0,0,0-.28-1.72,2.29,2.29,0,0,0-1.43-1,2.29,2.29,0,0,0-2.74,1.71l.21,0A2.08,2.08,0,0,1,284.57,77a2.1,2.1,0,0,1,1.29.93,2.08,2.08,0,0,1,.26,1.56Z"/><path class="cls-7" d="M277.38,81.34A2.23,2.23,0,0,0,278.6,81a2.25,2.25,0,0,0,1-1.43l-.21,0a2.06,2.06,0,0,1-.91,1.3,2.09,2.09,0,0,1-1.56.27,2,2,0,0,1-1.3-.92,2,2,0,0,1-.27-1.56l-.21,0a2.3,2.3,0,0,0,.3,1.72,2.27,2.27,0,0,0,1.43,1A2.2,2.2,0,0,0,277.38,81.34Z"/><rect class="cls-7" x="256.02" y="74.99" width="0.21" height="8.14"/><rect class="cls-7" x="251.44" y="74.99" width="0.21" height="8.14"/><rect class="cls-7" x="246.86" y="74.99" width="0.21" height="8.14"/><rect class="cls-7" x="242.28" y="74.99" width="0.21" height="8.14"/><rect class="cls-7" x="266.97" y="76.07" width="0.21" height="4.04" transform="translate(70.26 274.79) rotate(-61.28)"/><rect class="cls-7" x="265.99" y="77.05" width="0.21" height="4.04" transform="translate(68.91 274.46) rotate(-61.29)"/><rect class="cls-8" x="234.78" y="154.9" width="130.27" height="65.21"/><rect class="cls-8" x="234.78" y="225.35" width="130.27" height="20.55"/><rect class="cls-8" x="234.78" y="248.08" width="130.27" height="20.87"/><rect class="cls-3" x="300.37" y="164.89" width="61.42" height="17.22" rx="2.29"/><g class="cls-9"><rect class="cls-10" x="300.37" y="177.22" width="61.42" height="1.09" transform="translate(662.16 355.53) rotate(180)"/></g><rect class="cls-10" x="318.39" y="167.49" width="0.73" height="8.14" transform="translate(637.51 343.13) rotate(180)"/><rect class="cls-10" x="313.81" y="167.49" width="0.73" height="8.14" transform="translate(628.35 343.13) rotate(180)"/><rect class="cls-10" x="309.23" y="167.49" width="0.73" height="8.14" transform="translate(619.19 343.13) rotate(180)"/><rect class="cls-10" x="304.65" y="167.49" width="0.73" height="8.14" transform="translate(610.04 343.13) rotate(180)"/><g class="cls-9"><circle class="cls-11" cx="353.78" cy="171.57" r="2.18"/></g><g class="cls-9"><circle class="cls-11" cx="347.09" cy="171.57" r="2.18"/></g><g class="cls-9"><circle class="cls-11" cx="340.4" cy="171.57" r="2.18"/></g><path class="cls-7" d="M302.66,182.22V182a2.18,2.18,0,0,1-2.18-2.18V167.18a2.17,2.17,0,0,1,2.18-2.18H359.5a2.18,2.18,0,0,1,2.18,2.18v12.65h.21V167.18a2.39,2.39,0,0,0-2.39-2.39H302.66a2.39,2.39,0,0,0-2.39,2.39v12.65A2.4,2.4,0,0,0,302.66,182.22Z"/><rect class="cls-7" x="300.37" y="177.12" width="61.42" height="0.21"/><path class="cls-7" d="M353.78,173.85a2.29,2.29,0,1,0,0-4.57v.21a2.08,2.08,0,1,1,0,4.15Z"/><path class="cls-7" d="M349.32,172.08a2.3,2.3,0,0,0-.29-1.72,2.28,2.28,0,0,0-4.16.69l.2,0a2.07,2.07,0,0,1,3.78-.63,2,2,0,0,1,.26,1.56Z"/><path class="cls-7" d="M340.38,173.84a2.29,2.29,0,0,0,2.22-1.79l-.2,0a2.07,2.07,0,0,1-3.78.65,2,2,0,0,1-.27-1.56l-.2,0a2.3,2.3,0,0,0,2.23,2.79Z"/><rect class="cls-7" x="319.01" y="167.49" width="0.21" height="8.14"/><rect class="cls-7" x="314.43" y="167.49" width="0.21" height="8.14"/><rect class="cls-7" x="309.85" y="167.49" width="0.21" height="8.14"/><rect class="cls-7" x="305.28" y="167.49" width="0.21" height="8.14"/><rect class="cls-7" x="329.96" y="168.57" width="0.21" height="4.04" transform="translate(21.87 378.11) rotate(-61.29)"/><rect class="cls-7" x="328.98" y="169.55" width="0.21" height="4.04" transform="translate(20.53 377.8) rotate(-61.29)"/><rect class="cls-3" x="300.37" y="182.12" width="61.42" height="17.22" rx="2.29"/><g class="cls-9"><rect class="cls-10" x="300.37" y="194.45" width="61.42" height="1.09" transform="translate(662.16 389.98) rotate(180)"/></g><rect class="cls-10" x="318.39" y="184.72" width="0.73" height="8.14" transform="translate(637.51 377.58) rotate(180)"/><rect class="cls-10" x="313.81" y="184.72" width="0.73" height="8.14" transform="translate(628.35 377.58) rotate(180)"/><rect class="cls-10" x="309.23" y="184.72" width="0.73" height="8.14" transform="translate(619.19 377.58) rotate(180)"/><rect class="cls-10" x="304.65" y="184.72" width="0.73" height="8.14" transform="translate(610.04 377.58) rotate(180)"/><g class="cls-9"><path class="cls-11" d="M351.61,188.79a2.18,2.18,0,1,0,2.17-2.18A2.18,2.18,0,0,0,351.61,188.79Z"/></g><g class="cls-9"><path class="cls-11" d="M344.91,188.79a2.18,2.18,0,1,0,2.18-2.18A2.19,2.19,0,0,0,344.91,188.79Z"/></g><g class="cls-9"><path class="cls-11" d="M338.22,188.79a2.18,2.18,0,1,0,2.18-2.18A2.19,2.19,0,0,0,338.22,188.79Z"/></g><path class="cls-7" d="M302.66,199.44v-.21a2.17,2.17,0,0,1-2.18-2.18V184.4a2.18,2.18,0,0,1,2.18-2.18H359.5a2.19,2.19,0,0,1,2.18,2.18v12.65h.21V184.4A2.4,2.4,0,0,0,359.5,182H302.66a2.4,2.4,0,0,0-2.39,2.39v12.65A2.39,2.39,0,0,0,302.66,199.44Z"/><rect class="cls-7" x="300.37" y="194.34" width="61.42" height="0.21"/><path class="cls-7" d="M353.78,191.07a2.28,2.28,0,1,0,0-4.56v.21a2.08,2.08,0,1,1,0,4.15Z"/><path class="cls-7" d="M349.32,189.3a2.31,2.31,0,0,0-.29-1.72,2.22,2.22,0,0,0-1.42-1,2.26,2.26,0,0,0-2.74,1.71l.2,0a2.08,2.08,0,0,1,2.49-1.55,2.07,2.07,0,0,1,1.55,2.49Z"/><path class="cls-7" d="M340.38,191.06a2.26,2.26,0,0,0,2.22-1.78l-.2-.05a2.07,2.07,0,0,1-.92,1.3,2,2,0,0,1-1.56.27,2.07,2.07,0,0,1-1.57-2.48l-.2,0a2.23,2.23,0,0,0,.3,1.72,2.26,2.26,0,0,0,1.42,1A2.94,2.94,0,0,0,340.38,191.06Z"/><rect class="cls-7" x="319.01" y="184.72" width="0.21" height="8.14"/><rect class="cls-7" x="314.43" y="184.72" width="0.21" height="8.14"/><rect class="cls-7" x="309.85" y="184.72" width="0.21" height="8.14"/><rect class="cls-7" x="305.28" y="184.72" width="0.21" height="8.14"/><polygon class="cls-7" points="331.79 188.88 331.89 188.7 328.35 186.75 328.25 186.94 331.79 188.88"/><rect class="cls-7" x="328.98" y="186.78" width="0.21" height="4.04" transform="translate(5.43 386.76) rotate(-61.3)"/><rect class="cls-3" x="300.37" y="199.33" width="61.42" height="17.22" rx="2.29"/><g class="cls-9"><rect class="cls-10" x="300.37" y="211.66" width="61.42" height="1.09" transform="translate(662.16 424.41) rotate(180)"/></g><rect class="cls-10" x="318.39" y="201.94" width="0.73" height="8.14" transform="translate(637.51 412.01) rotate(180)"/><rect class="cls-10" x="313.81" y="201.94" width="0.73" height="8.14" transform="translate(628.35 412.01) rotate(180)"/><rect class="cls-10" x="309.23" y="201.94" width="0.73" height="8.14" transform="translate(619.19 412.01) rotate(180)"/><rect class="cls-10" x="304.65" y="201.94" width="0.73" height="8.14" transform="translate(610.04 412.01) rotate(180)"/><g class="cls-9"><path class="cls-11" d="M351.61,206a2.18,2.18,0,1,0,2.17-2.18A2.18,2.18,0,0,0,351.61,206Z"/></g><g class="cls-9"><path class="cls-11" d="M344.91,206a2.18,2.18,0,1,0,2.18-2.18A2.19,2.19,0,0,0,344.91,206Z"/></g><g class="cls-9"><path class="cls-11" d="M338.22,206a2.18,2.18,0,1,0,2.18-2.18A2.19,2.19,0,0,0,338.22,206Z"/></g><path class="cls-7" d="M302.66,216.66v-.21a2.18,2.18,0,0,1-2.18-2.18V201.62a2.18,2.18,0,0,1,2.18-2.18H359.5a2.19,2.19,0,0,1,2.18,2.18v12.65h.21V201.62a2.39,2.39,0,0,0-2.39-2.39H302.66a2.39,2.39,0,0,0-2.39,2.39v12.65A2.39,2.39,0,0,0,302.66,216.66Z"/><rect class="cls-7" x="300.37" y="211.56" width="61.42" height="0.21"/><path class="cls-7" d="M353.78,208.29a2.29,2.29,0,1,0,0-4.57v.21a2.08,2.08,0,1,1,0,4.15Z"/><path class="cls-7" d="M349.32,206.52a2.3,2.3,0,0,0-.29-1.72,2.27,2.27,0,0,0-1.42-1,2.33,2.33,0,0,0-1.73.29,2.26,2.26,0,0,0-1,1.42l.2,0a2.07,2.07,0,0,1,2.49-1.55,2,2,0,0,1,1.29.92,2,2,0,0,1,.26,1.56Z"/><path class="cls-7" d="M340.38,208.28a2.29,2.29,0,0,0,2.22-1.79l-.2,0a2.07,2.07,0,0,1-3.78.65,2,2,0,0,1-.27-1.56l-.2,0a2.28,2.28,0,0,0,1.72,2.73A2.22,2.22,0,0,0,340.38,208.28Z"/><rect class="cls-7" x="319.01" y="201.94" width="0.21" height="8.14"/><rect class="cls-7" x="314.43" y="201.94" width="0.21" height="8.14"/><rect class="cls-7" x="309.85" y="201.94" width="0.21" height="8.14"/><rect class="cls-7" x="305.28" y="201.94" width="0.21" height="8.14"/><rect class="cls-7" x="329.96" y="203.01" width="0.21" height="4.04" transform="translate(-8.35 395.98) rotate(-61.28)"/><rect class="cls-7" x="328.98" y="203.99" width="0.21" height="4.04" transform="translate(-9.69 395.67) rotate(-61.29)"/><rect class="cls-3" x="237.38" y="164.89" width="61.42" height="17.22" rx="2.29"/><g class="cls-9"><rect class="cls-10" x="237.38" y="177.22" width="61.42" height="1.09" transform="translate(536.17 355.53) rotate(180)"/></g><rect class="cls-10" x="255.4" y="167.49" width="0.73" height="8.14" transform="translate(511.52 343.13) rotate(180)"/><rect class="cls-10" x="250.82" y="167.49" width="0.73" height="8.14" transform="translate(502.36 343.13) rotate(180)"/><rect class="cls-10" x="246.24" y="167.49" width="0.73" height="8.14" transform="translate(493.21 343.13) rotate(180)"/><rect class="cls-10" x="241.66" y="167.49" width="0.73" height="8.14" transform="translate(484.05 343.13) rotate(180)"/><g class="cls-9"><circle class="cls-11" cx="290.79" cy="171.57" r="2.18"/></g><g class="cls-9"><circle class="cls-11" cx="284.1" cy="171.57" r="2.18"/></g><g class="cls-9"><circle class="cls-11" cx="277.41" cy="171.57" r="2.18"/></g><path class="cls-7" d="M239.66,182.22V182a2.19,2.19,0,0,1-2.18-2.18V167.18a2.18,2.18,0,0,1,2.18-2.18h56.85a2.18,2.18,0,0,1,2.18,2.18v12.65h.21V167.18a2.39,2.39,0,0,0-2.39-2.39H239.66a2.4,2.4,0,0,0-2.39,2.39v12.65A2.4,2.4,0,0,0,239.66,182.22Z"/><rect class="cls-7" x="237.38" y="177.12" width="61.42" height="0.21"/><path class="cls-7" d="M290.79,173.85a2.29,2.29,0,0,0,0-4.57v.21a2.08,2.08,0,1,1,0,4.15Z"/><path class="cls-7" d="M286.32,172.08a2.26,2.26,0,0,0-.28-1.72,2.29,2.29,0,0,0-1.43-1,2.29,2.29,0,0,0-2.74,1.71l.21,0a2.08,2.08,0,0,1,2.49-1.56,2.1,2.1,0,0,1,1.29.93,2.08,2.08,0,0,1,.26,1.56Z"/><path class="cls-7" d="M277.38,173.84a2.23,2.23,0,0,0,1.22-.36,2.25,2.25,0,0,0,1-1.43l-.21,0a2.06,2.06,0,0,1-.91,1.3,2.09,2.09,0,0,1-1.56.27,2,2,0,0,1-1.3-.92,2,2,0,0,1-.27-1.56l-.21,0a2.3,2.3,0,0,0,.3,1.72,2.27,2.27,0,0,0,1.43,1A2.2,2.2,0,0,0,277.38,173.84Z"/><rect class="cls-7" x="256.02" y="167.49" width="0.21" height="8.14"/><rect class="cls-7" x="251.44" y="167.49" width="0.21" height="8.14"/><rect class="cls-7" x="246.86" y="167.49" width="0.21" height="8.14"/><rect class="cls-7" x="242.28" y="167.49" width="0.21" height="8.14"/><rect class="cls-7" x="266.97" y="168.57" width="0.21" height="4.04" transform="translate(-10.85 322.86) rotate(-61.29)"/><rect class="cls-7" x="265.99" y="169.55" width="0.21" height="4.04" transform="translate(-12.2 322.55) rotate(-61.29)"/><rect class="cls-3" x="237.38" y="182.12" width="61.42" height="17.22" rx="2.29"/><g class="cls-9"><rect class="cls-10" x="237.38" y="194.45" width="61.42" height="1.09" transform="translate(536.17 389.98) rotate(180)"/></g><rect class="cls-10" x="255.4" y="184.72" width="0.73" height="8.14" transform="translate(511.52 377.58) rotate(180)"/><rect class="cls-10" x="250.82" y="184.72" width="0.73" height="8.14" transform="translate(502.36 377.58) rotate(180)"/><rect class="cls-10" x="246.24" y="184.72" width="0.73" height="8.14" transform="translate(493.21 377.58) rotate(180)"/><rect class="cls-10" x="241.66" y="184.72" width="0.73" height="8.14" transform="translate(484.05 377.58) rotate(180)"/><g class="cls-9"><path class="cls-11" d="M288.61,188.79a2.18,2.18,0,1,0,2.18-2.18A2.19,2.19,0,0,0,288.61,188.79Z"/></g><g class="cls-9"><path class="cls-11" d="M281.92,188.79a2.18,2.18,0,1,0,2.18-2.18A2.19,2.19,0,0,0,281.92,188.79Z"/></g><g class="cls-9"><path class="cls-11" d="M275.23,188.79a2.18,2.18,0,1,0,2.18-2.18A2.18,2.18,0,0,0,275.23,188.79Z"/></g><path class="cls-7" d="M239.66,199.44v-.21a2.18,2.18,0,0,1-2.18-2.18V184.4a2.19,2.19,0,0,1,2.18-2.18h56.85a2.19,2.19,0,0,1,2.18,2.18v12.65h.21V184.4a2.4,2.4,0,0,0-2.39-2.39H239.66a2.4,2.4,0,0,0-2.39,2.39v12.65A2.4,2.4,0,0,0,239.66,199.44Z"/><rect class="cls-7" x="237.38" y="194.34" width="61.42" height="0.21"/><path class="cls-7" d="M290.79,191.07a2.28,2.28,0,0,0,0-4.56v.21a2.08,2.08,0,1,1,0,4.15Z"/><path class="cls-7" d="M286.32,189.3a2.29,2.29,0,0,0-3.43-2.45,2.29,2.29,0,0,0-1,1.43l.21,0a2.08,2.08,0,0,1,3.78-.63,2.11,2.11,0,0,1,.26,1.57Z"/><path class="cls-7" d="M277.38,191.06a2.28,2.28,0,0,0,2.23-1.78l-.21-.05a2.06,2.06,0,0,1-2.47,1.57,2.07,2.07,0,0,1-1.57-2.48l-.21,0a2.29,2.29,0,0,0,1.73,2.73A2.92,2.92,0,0,0,277.38,191.06Z"/><rect class="cls-7" x="256.02" y="184.72" width="0.21" height="8.14"/><rect class="cls-7" x="251.44" y="184.72" width="0.21" height="8.14"/><rect class="cls-7" x="246.86" y="184.72" width="0.21" height="8.14"/><rect class="cls-7" x="242.28" y="184.72" width="0.21" height="8.14"/><polygon class="cls-7" points="268.8 188.88 268.89 188.7 265.35 186.75 265.25 186.94 268.8 188.88"/><rect class="cls-7" x="265.99" y="186.78" width="0.21" height="4.04" transform="translate(-27.31 331.51) rotate(-61.3)"/><rect class="cls-3" x="237.38" y="199.33" width="61.42" height="17.22" rx="2.29"/><g class="cls-9"><rect class="cls-10" x="237.38" y="211.66" width="61.42" height="1.09" transform="translate(536.17 424.41) rotate(180)"/></g><rect class="cls-10" x="255.4" y="201.94" width="0.73" height="8.14" transform="translate(511.52 412.01) rotate(180)"/><rect class="cls-10" x="250.82" y="201.94" width="0.73" height="8.14" transform="translate(502.36 412.01) rotate(180)"/><rect class="cls-10" x="246.24" y="201.94" width="0.73" height="8.14" transform="translate(493.21 412.01) rotate(180)"/><rect class="cls-10" x="241.66" y="201.94" width="0.73" height="8.14" transform="translate(484.05 412.01) rotate(180)"/><g class="cls-9"><path class="cls-11" d="M288.61,206a2.18,2.18,0,1,0,2.18-2.18A2.19,2.19,0,0,0,288.61,206Z"/></g><g class="cls-9"><path class="cls-11" d="M281.92,206a2.18,2.18,0,1,0,2.18-2.18A2.19,2.19,0,0,0,281.92,206Z"/></g><g class="cls-9"><path class="cls-11" d="M275.23,206a2.18,2.18,0,1,0,2.18-2.18A2.18,2.18,0,0,0,275.23,206Z"/></g><path class="cls-7" d="M239.66,216.66v-.21a2.19,2.19,0,0,1-2.18-2.18V201.62a2.19,2.19,0,0,1,2.18-2.18h56.85a2.19,2.19,0,0,1,2.18,2.18v12.65h.21V201.62a2.39,2.39,0,0,0-2.39-2.39H239.66a2.4,2.4,0,0,0-2.39,2.39v12.65A2.4,2.4,0,0,0,239.66,216.66Z"/><rect class="cls-7" x="237.38" y="211.56" width="61.42" height="0.21"/><path class="cls-7" d="M290.79,208.29a2.29,2.29,0,0,0,0-4.57v.21a2.08,2.08,0,1,1,0,4.15Z"/><path class="cls-7" d="M286.32,206.52a2.26,2.26,0,0,0-.28-1.72,2.29,2.29,0,0,0-4.17.69l.21,0a2.07,2.07,0,1,1,4,.93Z"/><path class="cls-7" d="M277.38,208.28a2.23,2.23,0,0,0,1.22-.36,2.25,2.25,0,0,0,1-1.43l-.21,0a2.06,2.06,0,0,1-.91,1.3,2.09,2.09,0,0,1-1.56.27,2,2,0,0,1-1.3-.92,2,2,0,0,1-.27-1.56l-.21,0a2.33,2.33,0,0,0,.3,1.73,2.29,2.29,0,0,0,1.43,1A2.2,2.2,0,0,0,277.38,208.28Z"/><rect class="cls-7" x="256.02" y="201.94" width="0.21" height="8.14"/><rect class="cls-7" x="251.44" y="201.94" width="0.21" height="8.14"/><rect class="cls-7" x="246.86" y="201.94" width="0.21" height="8.14"/><rect class="cls-7" x="242.28" y="201.94" width="0.21" height="8.14"/><rect class="cls-7" x="266.97" y="203.01" width="0.21" height="4.04" transform="translate(-41.07 340.73) rotate(-61.28)"/><rect class="cls-7" x="265.99" y="203.99" width="0.21" height="4.04" transform="translate(-42.42 340.43) rotate(-61.29)"/><rect class="cls-8" x="234.78" y="95.33" width="130.27" height="24.94"/><rect class="cls-3" x="238.71" y="99.52" width="123.08" height="16.98" transform="translate(600.5 216.03) rotate(180)"/><g class="cls-12"><rect class="cls-3" x="311.18" y="101.85" width="47.69" height="12.33" transform="translate(670.06 216.03) rotate(180)"/></g><g class="cls-12"><rect class="cls-3" x="307.04" y="101.85" width="1.1" height="12.33" transform="translate(615.17 216.03) rotate(180)"/></g><g class="cls-9"><rect class="cls-11" x="302.43" y="101.85" width="1.1" height="12.33" transform="translate(605.95 216.03) rotate(180)"/></g><g class="cls-13"><rect class="cls-14" x="297.82" y="101.85" width="1.1" height="12.33" transform="translate(596.73 216.03) rotate(180)"/></g><g class="cls-12"><rect class="cls-3" x="293.2" y="101.85" width="1.1" height="12.33" transform="translate(587.51 216.03) rotate(180)"/></g><g class="cls-9"><rect class="cls-11" x="288.59" y="101.85" width="1.1" height="12.33" transform="translate(578.29 216.03) rotate(180)"/></g><g class="cls-12"><rect class="cls-3" x="283.98" y="101.85" width="1.1" height="12.33" transform="translate(569.06 216.03) rotate(180)"/></g><g class="cls-12"><rect class="cls-3" x="279.37" y="101.85" width="1.1" height="12.33" transform="translate(559.84 216.03) rotate(180)"/></g><g class="cls-12"><rect class="cls-3" x="274.76" y="101.85" width="1.1" height="12.33" transform="translate(550.62 216.03) rotate(180)"/></g><g class="cls-9"><rect class="cls-11" x="270.15" y="101.85" width="1.1" height="12.33" transform="translate(541.4 216.03) rotate(180)"/></g><g class="cls-12"><rect class="cls-3" x="265.54" y="101.85" width="1.1" height="12.33" transform="translate(532.18 216.03) rotate(180)"/></g><g class="cls-9"><rect class="cls-11" x="260.93" y="101.85" width="1.1" height="12.33" transform="translate(522.95 216.03) rotate(180)"/></g><g class="cls-12"><rect class="cls-3" x="256.32" y="101.85" width="1.1" height="12.33" transform="translate(513.73 216.03) rotate(180)"/></g><g class="cls-13"><rect class="cls-14" x="251.71" y="101.85" width="1.1" height="12.33" transform="translate(504.51 216.03) rotate(180)"/></g><g class="cls-13"><rect class="cls-14" x="247.09" y="101.85" width="1.1" height="12.33" transform="translate(495.29 216.03) rotate(180)"/></g><g class="cls-12"><rect class="cls-3" x="242.48" y="101.85" width="1.1" height="12.33" transform="translate(486.07 216.03) rotate(180)"/></g><g class="cls-9"><rect class="cls-15" x="356.85" y="127.82" width="5.01" height="4.64" transform="translate(718.7 260.29) rotate(180)"/><rect class="cls-15" x="349.75" y="127.82" width="5.01" height="4.64" transform="translate(704.5 260.29) rotate(180)"/><rect class="cls-15" x="342.65" y="127.82" width="5.01" height="4.64" transform="translate(690.3 260.29) rotate(180)"/><rect class="cls-15" x="334.66" y="127.82" width="5.01" height="4.64" transform="translate(674.33 260.29) rotate(180)"/><rect class="cls-15" x="327.56" y="127.82" width="5.01" height="4.64" transform="translate(660.14 260.29) rotate(180)"/><rect class="cls-15" x="320.46" y="127.82" width="5.01" height="4.64" transform="translate(645.94 260.29) rotate(180)"/><rect class="cls-15" x="312.48" y="127.82" width="5.01" height="4.64" transform="translate(629.97 260.29) rotate(180)"/><rect class="cls-15" x="305.38" y="127.82" width="5.01" height="4.64" transform="translate(615.77 260.29) rotate(180)"/></g><rect class="cls-3" x="237.27" y="227.8" width="125.29" height="15.64" rx="5.91" transform="translate(599.84 471.25) rotate(180)"/><rect class="cls-3" x="237.27" y="250.69" width="125.29" height="15.64" rx="5.91" transform="translate(599.84 517.02) rotate(-180)"/><g class="cls-12"><circle class="cls-3" cx="352.35" cy="235.21" r="3.3"/></g><g class="cls-12"><circle class="cls-3" cx="245.83" cy="235.21" r="3.3" transform="translate(-47.46 62.77) rotate(-13.28)"/></g><g class="cls-12"><circle class="cls-3" cx="352.35" cy="257.89" r="3.3" transform="translate(-49.83 87.85) rotate(-13.28)"/></g><g class="cls-12"><circle class="cls-3" cx="245.83" cy="257.89" r="3.3"/></g><g class="cls-12"><rect class="cls-3" x="251.42" y="234.6" width="95.33" height="1.22" transform="translate(598.17 470.42) rotate(180)"/></g><g class="cls-12"><rect class="cls-3" x="251.42" y="257.28" width="95.33" height="1.22" transform="translate(598.17 515.78) rotate(180)"/></g><path class="cls-16" d="M352.69,135.8l.45,0c4.23-.34,6.75-5.24,6.86-5.45a.43.43,0,0,0-.18-.56.44.44,0,0,0-.57.18c0,.05-2.42,4.7-6.18,5-2.47.19-5-1.5-7.58-5a.42.42,0,0,0-.58-.1.43.43,0,0,0-.1.59C347.41,134,350.06,135.8,352.69,135.8Z"/><path class="cls-15" d="M345.94,135.75l.45,0c4.19-.33,6.69-5.19,6.8-5.4a.42.42,0,0,0-.19-.56.43.43,0,0,0-.56.18c0,.05-2.4,4.65-6.12,4.94-2.44.19-5-1.49-7.5-5a.43.43,0,0,0-.59-.1.42.42,0,0,0-.09.59C340.71,134,343.33,135.75,345.94,135.75Z"/><path class="cls-16" d="M337.9,135.75l.45,0c4.19-.33,6.7-5.19,6.8-5.4a.42.42,0,0,0-.18-.56.44.44,0,0,0-.57.18c0,.05-2.4,4.65-6.12,4.94-2.44.19-5-1.49-7.5-5a.42.42,0,0,0-.58-.1.43.43,0,0,0-.1.59C332.67,134,335.3,135.75,337.9,135.75Z"/><path class="cls-15" d="M323.13,135.8l.45,0c4.23-.34,6.76-5.24,6.86-5.45a.42.42,0,0,0-.18-.56.44.44,0,0,0-.57.18c0,.05-2.42,4.7-6.18,5-2.47.19-5-1.5-7.58-5a.42.42,0,0,0-.58-.1.43.43,0,0,0-.1.59C317.85,134,320.5,135.8,323.13,135.8Z"/><path class="cls-16" d="M316.38,135.75l.45,0c4.19-.33,6.7-5.19,6.8-5.4a.42.42,0,0,0-.18-.56.44.44,0,0,0-.57.18c0,.05-2.4,4.65-6.12,4.94-2.44.2-5-1.49-7.5-5a.42.42,0,1,0-.68.49C311.15,134,313.78,135.75,316.38,135.75Z"/><g class="cls-9"><rect class="cls-15" x="356.85" y="139.05" width="5.01" height="4.64" transform="translate(718.7 282.75) rotate(180)"/><rect class="cls-15" x="349.75" y="139.05" width="5.01" height="4.64" transform="translate(704.5 282.75) rotate(180)"/><rect class="cls-15" x="342.65" y="139.05" width="5.01" height="4.64" transform="translate(690.3 282.75) rotate(180)"/><rect class="cls-15" x="334.66" y="139.05" width="5.01" height="4.64" transform="translate(674.33 282.75) rotate(180)"/><rect class="cls-15" x="327.56" y="139.05" width="5.01" height="4.64" transform="translate(660.14 282.75) rotate(180)"/><rect class="cls-15" x="320.46" y="139.05" width="5.01" height="4.64" transform="translate(645.94 282.75) rotate(180)"/><rect class="cls-15" x="312.48" y="139.05" width="5.01" height="4.64" transform="translate(629.97 282.75) rotate(180)"/><rect class="cls-15" x="305.38" y="139.05" width="5.01" height="4.64" transform="translate(615.77 282.75) rotate(180)"/></g><path class="cls-16" d="M352.69,147l.45,0c4.23-.34,6.75-5.24,6.86-5.45a.43.43,0,0,0-.18-.56.44.44,0,0,0-.57.18s-2.42,4.7-6.18,5c-2.47.2-5-1.5-7.58-5a.42.42,0,0,0-.58-.1.43.43,0,0,0-.1.59C347.41,145.21,350.06,147,352.69,147Z"/><path class="cls-15" d="M345.94,147l.45,0c4.19-.33,6.69-5.19,6.8-5.4A.42.42,0,0,0,353,141a.43.43,0,0,0-.56.18s-2.4,4.65-6.12,4.94c-2.44.2-5-1.49-7.5-5a.43.43,0,0,0-.59-.1.42.42,0,0,0-.09.59C340.71,145.18,343.33,147,345.94,147Z"/><path class="cls-16" d="M337.9,147l.45,0c4.19-.33,6.7-5.19,6.8-5.4A.42.42,0,0,0,345,141a.44.44,0,0,0-.57.18s-2.4,4.65-6.12,4.94c-2.44.2-5-1.49-7.5-5a.42.42,0,0,0-.58-.1.43.43,0,0,0-.1.59C332.67,145.18,335.3,147,337.9,147Z"/><path class="cls-15" d="M323.13,147l.45,0c4.23-.34,6.76-5.24,6.86-5.45a.42.42,0,0,0-.18-.56.44.44,0,0,0-.57.18s-2.42,4.7-6.18,5c-2.47.2-5-1.5-7.58-5a.42.42,0,0,0-.58-.1.43.43,0,0,0-.1.59C317.85,145.21,320.5,147,323.13,147Z"/><path class="cls-16" d="M316.38,147l.45,0c4.19-.33,6.7-5.19,6.8-5.4a.42.42,0,0,0-.18-.56.44.44,0,0,0-.57.18s-2.4,4.65-6.12,4.94c-2.44.19-5-1.49-7.5-5a.42.42,0,1,0-.68.49C311.15,145.18,313.78,147,316.38,147Z"/><g class="cls-9"><rect class="cls-15" x="288.77" y="127.82" width="5.01" height="4.64" transform="translate(582.54 260.29) rotate(180)"/><rect class="cls-15" x="281.67" y="127.82" width="5.01" height="4.64" transform="translate(568.34 260.29) rotate(180)"/><rect class="cls-15" x="274.57" y="127.82" width="5.01" height="4.64" transform="translate(554.15 260.29) rotate(180)"/><rect class="cls-15" x="266.58" y="127.82" width="5.01" height="4.64" transform="translate(538.18 260.29) rotate(180)"/><rect class="cls-15" x="259.49" y="127.82" width="5.01" height="4.64" transform="translate(523.98 260.29) rotate(180)"/><rect class="cls-15" x="252.39" y="127.82" width="5.01" height="4.64" transform="translate(509.78 260.29) rotate(180)"/><rect class="cls-15" x="244.4" y="127.82" width="5.01" height="4.64" transform="translate(493.81 260.29) rotate(180)"/><rect class="cls-15" x="237.3" y="127.82" width="5.01" height="4.64" transform="translate(479.61 260.29) rotate(180)"/></g><path class="cls-16" d="M284.61,135.8l.45,0c4.23-.34,6.76-5.24,6.86-5.45a.42.42,0,0,0-.18-.56.44.44,0,0,0-.57.18c0,.05-2.42,4.7-6.18,5-2.47.19-5-1.5-7.58-5a.42.42,0,0,0-.58-.1.43.43,0,0,0-.1.59C279.33,134,282,135.8,284.61,135.8Z"/><path class="cls-15" d="M277.86,135.75l.45,0c4.19-.33,6.7-5.19,6.8-5.4a.42.42,0,0,0-.18-.56.44.44,0,0,0-.57.18c0,.05-2.4,4.65-6.12,4.94-2.44.2-5-1.49-7.5-5a.42.42,0,1,0-.68.49C272.63,134,275.25,135.75,277.86,135.75Z"/><path class="cls-16" d="M269.83,135.75l.44,0c4.19-.33,6.7-5.19,6.8-5.4a.41.41,0,0,0-.18-.56.42.42,0,0,0-.56.18c0,.05-2.41,4.65-6.13,4.94-2.44.2-5-1.49-7.5-5a.42.42,0,0,0-.58-.1.43.43,0,0,0-.1.59C264.6,134,267.22,135.75,269.83,135.75Z"/><path class="cls-15" d="M255.05,135.8l.45,0c4.23-.34,6.76-5.24,6.86-5.45a.42.42,0,0,0-.74-.38c0,.05-2.43,4.7-6.19,5-2.47.2-5-1.5-7.58-5a.42.42,0,1,0-.67.49C249.77,134,252.42,135.8,255.05,135.8Z"/><path class="cls-16" d="M248.3,135.75l.45,0c4.19-.33,6.7-5.19,6.8-5.4a.42.42,0,0,0-.18-.56.44.44,0,0,0-.57.18c0,.05-2.4,4.65-6.12,4.94-2.44.2-5-1.49-7.5-5a.42.42,0,0,0-.58-.1.43.43,0,0,0-.1.59C243.07,134,245.7,135.75,248.3,135.75Z"/><g class="cls-9"><rect class="cls-15" x="288.77" y="139.05" width="5.01" height="4.64" transform="translate(582.54 282.75) rotate(180)"/><rect class="cls-15" x="281.67" y="139.05" width="5.01" height="4.64" transform="translate(568.34 282.75) rotate(180)"/><rect class="cls-15" x="274.57" y="139.05" width="5.01" height="4.64" transform="translate(554.15 282.75) rotate(180)"/><rect class="cls-15" x="266.58" y="139.05" width="5.01" height="4.64" transform="translate(538.18 282.75) rotate(180)"/><rect class="cls-15" x="259.49" y="139.05" width="5.01" height="4.64" transform="translate(523.98 282.75) rotate(180)"/><rect class="cls-15" x="252.39" y="139.05" width="5.01" height="4.64" transform="translate(509.78 282.75) rotate(180)"/><rect class="cls-15" x="244.4" y="139.05" width="5.01" height="4.64" transform="translate(493.81 282.75) rotate(180)"/><rect class="cls-15" x="237.3" y="139.05" width="5.01" height="4.64" transform="translate(479.61 282.75) rotate(180)"/></g><path class="cls-16" d="M284.61,147l.45,0c4.23-.34,6.76-5.24,6.86-5.45a.42.42,0,0,0-.18-.56.44.44,0,0,0-.57.18s-2.42,4.7-6.18,5c-2.47.2-5-1.5-7.58-5a.42.42,0,0,0-.58-.1.43.43,0,0,0-.1.59C279.33,145.21,282,147,284.61,147Z"/><path class="cls-15" d="M277.86,147l.45,0c4.19-.33,6.7-5.19,6.8-5.4a.42.42,0,0,0-.18-.56.44.44,0,0,0-.57.18s-2.4,4.65-6.12,4.94c-2.44.19-5-1.49-7.5-5a.42.42,0,1,0-.68.49C272.63,145.18,275.25,147,277.86,147Z"/><path class="cls-16" d="M269.83,147l.44,0c4.19-.33,6.7-5.19,6.8-5.4a.41.41,0,0,0-.18-.56.42.42,0,0,0-.56.18s-2.41,4.65-6.13,4.94c-2.44.19-5-1.49-7.5-5a.42.42,0,0,0-.58-.1.43.43,0,0,0-.1.59C264.6,145.18,267.22,147,269.83,147Z"/><path class="cls-15" d="M255.05,147l.45,0c4.23-.34,6.76-5.24,6.86-5.45a.42.42,0,1,0-.74-.38s-2.43,4.7-6.19,5c-2.47.2-5-1.5-7.58-5a.42.42,0,1,0-.67.49C249.77,145.21,252.42,147,255.05,147Z"/><path class="cls-16" d="M248.3,147l.45,0c4.19-.33,6.7-5.19,6.8-5.4a.42.42,0,0,0-.18-.56.44.44,0,0,0-.57.18s-2.4,4.65-6.12,4.94c-2.44.19-5-1.49-7.5-5a.42.42,0,0,0-.58-.1.43.43,0,0,0-.1.59C243.07,145.18,245.7,147,248.3,147Z"/><path class="cls-16" d="M237.39,228.28c.66,0,1.32,0,2-.06a38.52,38.52,0,0,0,24-9.83c5.41-4.8,10-11.31,13.63-19.37a97.75,97.75,0,0,0,7.52-27.42.42.42,0,0,0-.38-.45.42.42,0,0,0-.46.38,96.59,96.59,0,0,1-7.45,27.16c-5.63,12.46-16.61,27.55-36.9,28.69s-33.38-15.95-40.8-30.49a141.71,141.71,0,0,1-11.4-32.32.41.41,0,0,0-.49-.33.42.42,0,0,0-.33.49,142.12,142.12,0,0,0,11.46,32.52c4.79,9.38,10.28,16.76,16.34,21.94C221.16,225.23,229,228.28,237.39,228.28Z"/><path class="cls-16" d="M233.85,200.65a36.37,36.37,0,0,0,15.68-3.84,63.87,63.87,0,0,0,14.62-10,93.44,93.44,0,0,0,13.6-15,.42.42,0,0,0-.69-.47,93.58,93.58,0,0,1-13.48,14.89c-7.52,6.66-19.14,14.42-31.77,13.52-14.13-1-26.71-12.44-37.38-34a.42.42,0,1,0-.75.37c10.81,21.82,23.62,33.4,38.07,34.43C232.45,200.62,233.15,200.65,233.85,200.65Z"/><path class="cls-15" d="M244.91,220c9.3,0,17.28-2.27,23.83-6.79A38.58,38.58,0,0,0,281.6,197.6a37,37,0,0,0,2.91-8.74.41.41,0,0,0-.34-.48.42.42,0,0,0-.49.34c0,.15-2.61,14.95-15.42,23.79-9.41,6.49-21.88,8.23-37,5.17-23.85-4.81-33.88-26.71-38.1-44.23a142.4,142.4,0,0,1-3.49-37.37.42.42,0,0,0-.39-.45.42.42,0,0,0-.44.39,142.6,142.6,0,0,0,3.5,37.63c2.72,11.28,6.86,20.67,12.3,27.91a42.92,42.92,0,0,0,26.45,16.94A70.1,70.1,0,0,0,244.91,220Z"/><path class="cls-17" d="M146.49,180.2h10.08l-5.8-28.29h14.32l5.81,28.29h10a4.11,4.11,0,0,1,3.53,2.57H144.89C144.35,181.35,145.07,180.2,146.49,180.2Z"/><path class="cls-8" d="M115.53,169.4l.91-6.59,5.69-41.1a4.2,4.2,0,0,1,4-3.54h79.7v-.1a3.1,3.1,0,0,1,3.14,3.64l-6.61,47.69a2.83,2.83,0,0,1-2.48,2.58H117.19l0-.1C116.09,171.88,115.34,170.77,115.53,169.4Z"/><polygon class="cls-5" points="154.77 181.91 169.09 181.91 162.93 151.91 148.61 151.91 154.77 181.91"/><path class="cls-6" d="M113.89,162.81l5.69-41.1a4.21,4.21,0,0,1,4-3.54H203.3a3,3,0,0,1,3,3.54l-5.69,41.1Z"/><path class="cls-8" d="M200.66,162.81l-.92,6.59a2.71,2.71,0,0,1-2.36,2.48H114.66c-1.12,0-1.87-1.11-1.68-2.48l.91-6.59Z"/><path class="cls-18" d="M116.17,161l5.43-39.21a2.24,2.24,0,0,1,2.18-1.86h78.85a1.61,1.61,0,0,1,1.67,1.86L198.87,161Z"/><path class="cls-19" d="M142.73,182.77c-.54-1.42.18-2.57,1.6-2.57h34.46a4.11,4.11,0,0,1,3.53,2.57H142.73Z"/><path class="cls-20" d="M114.65,172h82.71a2.84,2.84,0,0,0,2.49-2.58l6.6-47.69a3.1,3.1,0,0,0-3.14-3.64l0,.21a2.92,2.92,0,0,1,3,3.43l-6.6,47.69a2.59,2.59,0,0,1-2.25,2.37H114.68Z"/><polygon class="cls-20" points="118.78 167.41 118.96 167.28 117.37 164.53 117.18 164.66 118.78 167.41"/><polygon class="cls-20" points="118.6 168.71 118.78 168.58 117.18 165.91 116.99 166.03 118.6 168.71"/><polygon class="cls-20" points="163.99 174.29 164.15 174.19 162.81 172.47 162.66 172.57 163.99 174.29"/><polygon class="cls-20" points="164.03 175.28 164.19 175.18 162.99 173.66 162.83 173.77 164.03 175.28"/><path class="cls-20" d="M116.05,161.13h82.81l0-.21h-82.6l5.41-39.1a2.13,2.13,0,0,1,2.07-1.76l0-.2a2.36,2.36,0,0,0-2.3,2Z"/><g class="cls-21"><polygon class="cls-22" points="172.61 158.91 194.55 158.91 199.69 123.02 177.75 123.02 172.61 158.91"/><polygon class="cls-22" points="148.14 158.91 170.08 158.91 175.23 123.02 153.29 123.02 148.14 158.91"/><polygon class="cls-22" points="128.28 124.01 150.22 124.01 150.36 123.02 128.42 123.02 128.28 124.01"/><polygon class="cls-22" points="127.9 126.64 149.84 126.64 149.98 125.65 128.04 125.65 127.9 126.64"/><polygon class="cls-22" points="127.52 129.27 149.46 129.27 149.6 128.28 127.67 128.28 127.52 129.27"/><polygon class="cls-22" points="127.15 131.9 149.09 131.9 149.23 130.91 127.29 130.91 127.15 131.9"/><polygon class="cls-22" points="126.77 134.53 148.71 134.53 148.85 133.54 126.91 133.54 126.77 134.53"/><polygon class="cls-22" points="126.39 137.16 148.33 137.16 148.47 136.17 126.53 136.17 126.39 137.16"/><polygon class="cls-22" points="126.02 139.79 147.96 139.79 148.1 138.8 126.16 138.8 126.02 139.79"/><polygon class="cls-22" points="125.64 142.42 147.58 142.42 147.72 141.43 125.78 141.43 125.64 142.42"/><polygon class="cls-22" points="125.26 145.05 147.2 145.05 147.34 144.06 125.4 144.06 125.26 145.05"/><polygon class="cls-22" points="124.89 147.68 146.82 147.68 146.97 146.69 125.03 146.69 124.89 147.68"/><polygon class="cls-22" points="124.51 150.31 146.45 150.31 146.59 149.32 124.65 149.32 124.51 150.31"/><polygon class="cls-22" points="124.13 152.94 146.07 152.94 146.21 151.95 124.27 151.95 124.13 152.94"/><polygon class="cls-22" points="123.75 155.57 145.69 155.57 145.84 154.58 123.89 154.58 123.75 155.57"/></g><path class="cls-23" d="M100.64,130v8.63s.12,2.92-2.44,3.28l.48,3.9A3,3,0,0,1,96.6,149a7.82,7.82,0,0,1-2.41.37,4.87,4.87,0,0,1-4.74-3.28c-.25-1.09.48-6.32.48-6.32l-.08-2.57.33-10Z"/><path class="cls-20" d="M90.52,127.76l2,2.88s6.17,2.4,9.33-.44,2.19-4.2,1.27-5.62a4.53,4.53,0,0,0-5.32-.94c-1.46.65-2.54-1.28-4.24-.31s-3.71,2.66-3.49,3.32S90.52,127.76,90.52,127.76Z"/><path class="cls-20" d="M90.64,126.55a3.61,3.61,0,0,0-3.59,2.56c-.78,2.71.27,4.12.3,4.93s-.52,6.23,3.29,5.83l1-9-1.33-3.58Z"/><path class="cls-20" d="M98.76,130.8a14.78,14.78,0,0,1,0,3.23c-.24.69-3,2.54-3,2.54s-.23,4.84-.69,5.07-4.56-.66-5.85-1.94.08-11.43.08-11.43a5.2,5.2,0,0,1,2.31-1.62c1.15-.23,6.68-.69,6.45,0S98.76,130.8,98.76,130.8Z"/><ellipse class="cls-23" cx="95.92" cy="135.23" rx="2.14" ry="2.19"/><path class="cls-24" d="M95.76,136.57a.91.91,0,0,1-.84-.69.87.87,0,0,1,.34-1,1,1,0,0,1,1.12,0,1,1,0,0,0-.43-.54,1.36,1.36,0,0,0-1-.06.05.05,0,0,1-.07,0,0,0,0,0,1,0-.07,1.43,1.43,0,0,1,1.05.07,1.21,1.21,0,0,1,.55.8l0,.21-.15-.16a.94.94,0,0,0-1.14-.14.74.74,0,0,0-.28.86.76.76,0,0,0,.72.6h0a.05.05,0,0,1,.06.06.06.06,0,0,1-.06.06Z"/><polygon class="cls-25" points="99.63 146.24 99.17 143.97 88.66 142.32 87.94 145.06 92.65 146.24 99.63 146.24"/><path class="cls-23" d="M155.74,176.85s6.76,0,8.53,1.57a8,8,0,0,1,2.19,4.26H153.11Z"/><polygon class="cls-23" points="101.15 270.21 88.26 268.19 91 254.42 105.01 256.23 101.15 270.21"/><path class="cls-26" d="M88.05,273.28h12.13l4.92-5.49,9,5.49H116a1.42,1.42,0,0,1,0,2.84H87.87a.39.39,0,0,1-.37-.39v-1.88A.55.55,0,0,1,88.05,273.28Z"/><path class="cls-27" d="M88.15,273.3v-5.11a4.27,4.27,0,0,1,5.16-1.38s4.7,3.42,8.85-.72l10.3,4.69s2.83,1,3.59,2.52Z"/><rect class="cls-7" x="88.05" y="268.19" width="0.21" height="5.08"/><path class="cls-7" d="M97.53,268.25a4.65,4.65,0,0,0,.64,0l0-.21a7.21,7.21,0,0,1-4.77-1.28l-.12.18A7.5,7.5,0,0,0,97.53,268.25Z"/><polygon class="cls-7" points="90.66 272.35 90.78 272.17 89.46 271.26 89.35 271.43 90.66 272.35"/><polygon class="cls-7" points="91.61 272.09 91.72 271.91 90.41 271 90.29 271.18 91.61 272.09"/><path class="cls-7" d="M117.05,275.87a1.54,1.54,0,0,0,.52-1.16,1.5,1.5,0,0,0-1.48-1.52H88.19a.8.8,0,0,0-.79.81v1.42h.2V274a.6.6,0,0,1,.59-.6h27.9a1.29,1.29,0,0,1,1.27,1.31,1.32,1.32,0,0,1-.45,1Z"/><path class="cls-7" d="M116,273.34l.19-.09a5.13,5.13,0,0,0-2.7-2.16c-2.07-.91-11.18-5.06-11.27-5.1l-.09.2c.09,0,9.21,4.18,11.28,5.09A5,5,0,0,1,116,273.34Z"/><polygon class="cls-23" points="135.1 270.21 122.21 268.19 124.96 254.42 138.96 256.23 135.1 270.21"/><path class="cls-25" d="M122,273.28h12.13l4.92-5.49,9,5.49H150a1.42,1.42,0,0,1,0,2.84H121.83a.39.39,0,0,1-.38-.39v-1.88A.56.56,0,0,1,122,273.28Z"/><path class="cls-27" d="M122.11,273.3v-5.11a4.25,4.25,0,0,1,5.15-1.38s4.71,3.42,8.86-.72l10.3,4.69s2.82,1,3.59,2.52Z"/><rect class="cls-7" x="122" y="268.19" width="0.21" height="5.08"/><path class="cls-7" d="M131.48,268.25a4.65,4.65,0,0,0,.64,0l0-.21a7.21,7.21,0,0,1-4.77-1.28l-.12.18A7.5,7.5,0,0,0,131.48,268.25Z"/><polygon class="cls-7" points="124.61 272.35 124.73 272.17 123.41 271.26 123.3 271.43 124.61 272.35"/><polygon class="cls-7" points="125.56 272.09 125.67 271.91 124.36 271 124.24 271.18 125.56 272.09"/><path class="cls-7" d="M151,275.87a1.54,1.54,0,0,0,.52-1.16,1.5,1.5,0,0,0-1.48-1.52h-27.9a.8.8,0,0,0-.79.81v1.42h.2V274a.6.6,0,0,1,.59-.6H150a1.3,1.3,0,0,1,1.28,1.31,1.33,1.33,0,0,1-.46,1Z"/><path class="cls-7" d="M149.94,273.34l.19-.09a5.13,5.13,0,0,0-2.7-2.16c-2.07-.91-11.18-5.06-11.27-5.1l-.09.2c.1,0,9.21,4.18,11.28,5.09A5,5,0,0,1,149.94,273.34Z"/><path class="cls-22" d="M114.45,203.44C111.17,194.69,101,192.6,101,192.6s-21.77-2.88-25.33,3.12c-7.35,12.37.22,22.81,6.69,24.25,1.57.35,4.23.15,7.21.24,2.4.07,6.46-.09,6.46-.09l-6.63,37.55c5.91,1.43,15.91,1.72,15.91,1.72C113.34,240.27,115.81,207.07,114.45,203.44Z"/><path class="cls-22" d="M148.06,212c.33-10.19-36.47-12.09-36.47-12.09s-20.71-7.28-24.28-1.28C80,211,87.53,221.45,94,222.89c1.58.35,4.23.14,7.22.24,8.57.3,20.5.13,22.32.11h0l5.74-.2-6.63,37.55c5.91,1.44,15.91,1.72,15.91,1.72C146.62,243.19,147.94,215.89,148.06,212Z"/><path class="cls-28" d="M156.23,175.91l-26-3.67s-16.14-20.55-18.35-22-11.74-5.51-28.25-5.14-19.45,36-19.45,36,26,29.91,27.16,30.08C107,213.57,112.59,200,112.59,200l-1.52-24.11,8.32,6.81h36.84Z"/><path class="cls-7" d="M82.6,201.77a.22.22,0,0,0,.19-.21c-.08-8.91-.47-46.88-.47-47a.2.2,0,0,0-.4,0c0,.13.39,38.11.46,47a.2.2,0,0,0,.21.2Z"/><path class="cls-29" d="M101,155.7l4.74,62.62c.23,3-.53,5.41-1.7,5.41H69.11c-1.17,0-2.3-2.42-2.52-5.41L61.85,155.7c-.22-3,.54-5.41,1.7-5.41H98.48C99.64,150.29,100.77,152.71,101,155.7Z"/><path class="cls-16" d="M99,155.7l4.73,62.62c.23,3-.53,5.41-1.7,5.41H67.1c-1.17,0-2.29-2.42-2.52-5.41L59.84,155.7c-.22-3,.54-5.41,1.7-5.41H96.47C97.63,150.29,98.76,152.71,99,155.7Z"/><path class="cls-29" d="M126,219.52H70.91a2.11,2.11,0,0,0,0,4.21H126a2.12,2.12,0,0,0,0-4.21Z"/><path class="cls-16" d="M103.67,219.52H71a2.11,2.11,0,0,0,0,4.21h32.64c.06,0,.31,0,.36,0a1.92,1.92,0,0,0,1.67-2.1A2.08,2.08,0,0,0,103.67,219.52Z"/><polygon class="cls-29" points="103.69 217.94 104.03 223.73 107.82 223.73 105.5 219.52 103.69 217.94"/><path class="cls-8" d="M109.06,272.8H95.58V223.73h-3V272.8H79.45a3.31,3.31,0,0,0-3.31,3.32h36.24A3.31,3.31,0,0,0,109.06,272.8Z"/><path class="cls-7" d="M63.26,203.19l-3.44-45.52a13.1,13.1,0,0,1,.5-6.61,1.4,1.4,0,0,1,1.51-.95h34v.35H61.78a1.06,1.06,0,0,0-1.13.72,12.77,12.77,0,0,0-.48,6.45l3.44,45.53Z"/><rect class="cls-7" x="101.41" y="166.46" width="0.35" height="47.16" transform="translate(-14.05 8.2) rotate(-4.33)"/><rect class="cls-7" x="67.1" y="223.56" width="58.92" height="0.35"/><rect class="cls-7" x="74.29" y="204.54" width="0.35" height="5.77" transform="translate(-106.12 81.1) rotate(-35.28)"/><rect class="cls-7" x="74.29" y="208.66" width="0.35" height="5.77" transform="translate(-108.5 81.85) rotate(-35.28)"/><polygon class="cls-7" points="109.06 272.98 95.41 272.98 95.41 223.73 95.76 223.73 95.76 272.62 109.06 272.62 109.06 272.98"/><path class="cls-7" d="M156.06,180.3h.35v-4.54l-26.13-3.68c-.85-1.07-13.43-16.92-16.28-19.94a17.42,17.42,0,0,0-2.68-2.43c-1.08-.7-5.34-3.08-15-4.16l0,.36c9.54,1.06,13.74,3.4,14.8,4.1a17.22,17.22,0,0,1,2.62,2.37c2.93,3.1,16.17,19.8,16.3,20l.05.06,26,3.65Z"/><path class="cls-7" d="M108.45,206.11c2.06-1.78,4.2-5.88,4.29-6.05l0-.05-1.53-24.15-.35,0,1.52,24.06c-.24.45-2.29,4.26-4.19,5.9Z"/><rect class="cls-7" x="114.31" y="172.34" width="0.35" height="12.66" transform="translate(-96.31 154.27) rotate(-50.75)"/><rect class="cls-22" x="22.92" y="276.12" width="375.63" height="1.88"/></g></g></svg>