<svg id="Layer_1" data-name="Layer 1" xmlns="http://www.w3.org/2000/svg" xmlns:xlink="http://www.w3.org/1999/xlink" viewBox="0 0 1199 1192"><defs><style>.cls-1,.cls-28,.cls-3,.cls-46,.cls-6{opacity:0.95;}.cls-1{fill:url(#linear-gradient);}.cls-2{fill:#97bfe6;}.cls-3{fill:url(#linear-gradient-2);}.cls-4{fill:#5094d0;}.cls-5{fill:url(#linear-gradient-3);}.cls-6{fill:url(#linear-gradient-4);}.cls-7{fill:#39546a;}.cls-8{fill:#eea886;}.cls-9{fill:#444;}.cls-10{fill:#a77961;}.cls-11{fill:#0e2d3d;}.cls-12{fill:#183442;}.cls-13{fill:#1d3b54;}.cls-14{fill:#295173;}.cls-15{fill:#fbbd57;}.cls-16{fill:#193d59;}.cls-17{fill:#626262;}.cls-18{fill:#e0cec7;}.cls-19{fill:#eea987;}.cls-20{fill:url(#linear-gradient-5);}.cls-21{fill:url(#linear-gradient-6);}.cls-22{fill:url(#linear-gradient-7);}.cls-23{fill:url(#linear-gradient-8);}.cls-24{fill:url(#linear-gradient-9);}.cls-25{fill:#fff;}.cls-26{fill:url(#linear-gradient-10);}.cls-27{fill:url(#linear-gradient-11);}.cls-28{fill:url(#linear-gradient-12);}.cls-29{fill:#354153;}.cls-30{fill:#e94847;}.cls-31{fill:#3a3d63;}.cls-32{fill:#decbc4;}.cls-33{fill:#e9754e;}.cls-34{fill:#3d4145;}.cls-35{fill:#52575d;}.cls-36{fill:#f6e3da;}.cls-37{fill:#d44141;}.cls-38{fill:#2f3234;}.cls-39{fill:#2a2c48;}.cls-40{fill:#434873;}.cls-41{fill:#3a4047;}.cls-42{fill:#e3d3cc;}.cls-43{fill:#323657;}.cls-44{fill:#ffdf69;}.cls-45{fill:#ac9648;}.cls-47{fill:url(#linear-gradient-13);}.cls-48{fill:url(#linear-gradient-14);}.cls-49{fill:url(#linear-gradient-15);}.cls-50{fill:url(#linear-gradient-16);}.cls-51{fill:url(#linear-gradient-17);}.cls-52{fill:url(#linear-gradient-18);}.cls-53{fill:url(#linear-gradient-19);}.cls-54{fill:url(#linear-gradient-20);}.cls-55{fill:url(#linear-gradient-21);}.cls-56{fill:url(#linear-gradient-22);}.cls-57{fill:url(#linear-gradient-23);}</style><linearGradient id="linear-gradient" x1="606.78" y1="800.22" x2="583.52" y2="378.51" gradientUnits="userSpaceOnUse"><stop offset="0" stop-color="#d1d7e0"/><stop offset="1" stop-color="#ebeaf6"/></linearGradient><linearGradient id="linear-gradient-2" x1="990.88" y1="922.17" x2="990.88" y2="484.23" xlink:href="#linear-gradient"/><linearGradient id="linear-gradient-3" x1="1.54" y1="1048.71" x2="1130.55" y2="1048.71" gradientUnits="userSpaceOnUse"><stop offset="0.01" stop-color="#242953"/><stop offset="1" stop-color="#515ba6"/></linearGradient><linearGradient id="linear-gradient-4" x1="585.5" y1="651.73" x2="585.5" y2="331.51" xlink:href="#linear-gradient"/><linearGradient id="linear-gradient-5" x1="-4531.02" y1="835.11" x2="-4458.43" y2="835.11" gradientTransform="matrix(-1, 0, 0, 1, -4273.54, 0)" gradientUnits="userSpaceOnUse"><stop offset="0" stop-color="#3277a2"/><stop offset="1" stop-color="#59bcb0"/></linearGradient><linearGradient id="linear-gradient-6" x1="-4474.62" y1="895.03" x2="-4342.67" y2="895.03" xlink:href="#linear-gradient-5"/><linearGradient id="linear-gradient-7" x1="-4463.34" y1="914.21" x2="-4364.3" y2="914.21" xlink:href="#linear-gradient-5"/><linearGradient id="linear-gradient-8" x1="-4583.06" y1="813.6" x2="-4434.33" y2="813.6" xlink:href="#linear-gradient-5"/><linearGradient id="linear-gradient-9" x1="220.97" y1="975.95" x2="134.37" y2="716.17" gradientTransform="matrix(1, 0, 0, 1, 0, 0)" xlink:href="#linear-gradient-5"/><linearGradient id="linear-gradient-10" x1="153.97" y1="1145.61" x2="197.26" y2="958.97" gradientUnits="userSpaceOnUse"><stop offset="0" stop-color="#cac5c2"/><stop offset="1" stop-color="#fff6df"/></linearGradient><linearGradient id="linear-gradient-11" x1="126.06" y1="999.96" x2="232.5" y2="999.96" gradientTransform="translate(19.53)" xlink:href="#linear-gradient-10"/><linearGradient id="linear-gradient-12" x1="875.7" y1="381.01" x2="875.7" y2="200.63" xlink:href="#linear-gradient"/><linearGradient id="linear-gradient-13" x1="1125.54" y1="330.31" x2="1147.97" y2="330.31" xlink:href="#linear-gradient"/><linearGradient id="linear-gradient-14" x1="1117.5" y1="330.31" x2="1126.85" y2="330.31" xlink:href="#linear-gradient"/><linearGradient id="linear-gradient-15" x1="1061.12" y1="320.05" x2="1132.97" y2="320.05" xlink:href="#linear-gradient"/><linearGradient id="linear-gradient-16" x1="662.08" y1="144.49" x2="691.55" y2="144.49" xlink:href="#linear-gradient"/><linearGradient id="linear-gradient-17" x1="662.08" y1="165.79" x2="691.55" y2="165.79" xlink:href="#linear-gradient"/><linearGradient id="linear-gradient-18" x1="662.08" y1="187.09" x2="691.55" y2="187.09" xlink:href="#linear-gradient"/><linearGradient id="linear-gradient-19" x1="703.71" y1="144.49" x2="712.1" y2="144.49" xlink:href="#linear-gradient"/><linearGradient id="linear-gradient-20" x1="703.71" y1="165.79" x2="712.1" y2="165.79" xlink:href="#linear-gradient"/><linearGradient id="linear-gradient-21" x1="703.71" y1="187.09" x2="712.1" y2="187.09" xlink:href="#linear-gradient"/><linearGradient id="linear-gradient-22" x1="586.96" y1="618.77" x2="627.22" y2="618.77" xlink:href="#linear-gradient"/><linearGradient id="linear-gradient-23" x1="572.53" y1="618.77" x2="589.32" y2="618.77" xlink:href="#linear-gradient"/></defs><rect class="cls-1" x="435.23" y="264.24" width="300.54" height="300.54" rx="58.67"/><rect class="cls-2" x="515.93" y="496.36" width="139.15" height="6.87"/><rect class="cls-2" x="535.64" y="518.02" width="99.73" height="6.87"/><rect class="cls-3" x="785.22" y="368.48" width="411.33" height="482.8" rx="69.12"/><rect class="cls-4" x="971.72" y="653.3" width="32.62" height="6.04"/><rect class="cls-2" x="847.86" y="708.67" width="189.83" height="11.7"/><rect class="cls-2" x="847.86" y="764.83" width="153.51" height="11.7"/><rect class="cls-2" x="847.86" y="736.75" width="89.99" height="11.7"/><path class="cls-4" d="M1087.35,416.63v5.91h34.79v32.64h5.91V416.63ZM851.13,455.18H857V422.54h34.78v-5.91H851.13Zm271,168.46V656.3h-34.79v5.91h40.7V623.64Zm-265.1,0h-5.91v38.57h40.69V656.3H857Z"/><path class="cls-4" d="M1109.63,777.39a34.79,34.79,0,1,1,34.79-34.79A34.83,34.83,0,0,1,1109.63,777.39Zm0-62.85a28.06,28.06,0,1,0,28.06,28.06A28.09,28.09,0,0,0,1109.63,714.54Z"/><polygon class="cls-4" points="1107.41 756.29 1091.61 740.49 1096.37 735.73 1107.41 746.77 1122.89 731.29 1127.66 736.05 1107.41 756.29"/><path class="cls-5" d="M1130.55,1048.71c0,14.59-252.73,26.42-564.5,26.42S1.54,1063.3,1.54,1048.71s252.74-26.42,564.51-26.42S1130.55,1034.11,1130.55,1048.71Z"/><rect class="cls-6" x="484.21" y="275.48" width="202.58" height="173.81"/><path class="cls-7" d="M662.88,381.29c-6.67-17.65-22.7-25.75-30.27-28.28-2.69-.89-7.5-2.46-12.57-4.1-9.14-3-19.12-6.17-19.12-6.17H569.39s-10.92,3.66-22.52,7.73h0c-10.69,3.75-22,7.83-25.75,9.74-7.92,4-21.25,32.25-23.95,35.49-1.39,1.67-7.58,12.69-13.66,25h34c3.59-6.17,6.36-10.95,6.36-10.95s2.15,4.71,4.75,10.95H637.39c1.72-7.24,2.79-16.36,2.79-16.36s5.83,7.92,12.19,16.36h31.36C676.1,407.91,666.64,391.25,662.88,381.29Z"/><path class="cls-8" d="M588.91,256.1s24.65,3.89,20.9,42.46-25.52,35.41-27,35.37-21.84.7-23.43-46.39C559.41,287.54,558.71,252.72,588.91,256.1Z"/><path class="cls-8" d="M610.19,287.66s2.7-2.88,3.69,0-3.68,15.94-3.85,16.55c0,0-.5,1.13-1.14.51S610.19,287.66,610.19,287.66Z"/><path class="cls-8" d="M560.07,287.18s-2.64-2.94-3.69,0,3.34,16,3.53,16.62c0,0,.47,1.14,1.13.53S560.07,287.18,560.07,287.18Z"/><path class="cls-9" d="M610.18,293.58l-3.53,4.72s.1-10.35-.47-12-1.43-6.58-1.91-7.74-21.17-7-39.45,1.69c0,0,.81,7.44-1,8.1S563,300.5,563,300.5l-2.9-3.28s-4.44-29.67-3.35-32.77,4.6-21.69,42.1-10.65c0,0,11.7-2.47,14,5.6S610.18,293.58,610.18,293.58Z"/><path class="cls-8" d="M604,342.05s-3.16-1.56-3.16-1.56c-1.54-3.43-.39-17.92-.39-17.92s-31.4-8-30.51-1.88-2.7,20.31-2.7,20.31l-16.11,8s17.16,46.09,36.89,40.14,27.17-41.8,27.17-41.8Z"/><path class="cls-10" d="M570.37,327.48A18.59,18.59,0,0,0,584.2,334c5.78,0,9.93-1.62,15.68-7.23,0,0-2.49,10.65-15.64,11.64C584.24,338.42,574.71,339.63,570.37,327.48Z"/><path class="cls-11" d="M479.72,482.21s18.12,8.86,13.64,33-6.46,27.36-1.45,36.78,10.92,49.6,6.41,57.22-55.81-33.47-62.93-67.94,4.51-49.8,8.62-55.52S463.73,474.09,479.72,482.21Z"/><path class="cls-12" d="M472.89,1041.66H477V1022.3s8.05,5.37,13.11,12.79,12,6.79,22.58,6.32,10.1-4.74,9.16-10.74-11.69-7.9-15.16-8.84-11.36-14.54-13.9-17.85a45.18,45.18,0,0,1-5.29-8.84s-2-8-11.76,0-7,23.53-5.84,25S472.89,1041.66,472.89,1041.66Z"/><path class="cls-8" d="M493.57,1021.83c3.63,2.36,13.11,0,13.11,0-2.69-3.48-19.19-26.69-19.19-26.69-10-5.84-14,2.2-14,2.2C477.59,998.59,489.94,1019.46,493.57,1021.83Z"/><path class="cls-8" d="M599.15,664.61s6.58,1.26,8.82-1.83c1.91-2.62,6.28-4.64,7.62-5.26,1.8-.83,6.36-5.45,7.43-3.19s-7.15,8-8.64,9.5,8.07,2.23,9.72,3.73-.38,17.25-6.88,16-12.64-6.83-13.82-6.82a40.52,40.52,0,0,1-4.77-.71Z"/><path class="cls-8" d="M622.65,666.91s19.65,5.08,20.68,6.52.68,2.48-1.17,2.08S623,671.15,623,671.15s22.25,9.92,23.34,10.91c.65.58.11,2.65-.9,2.53s-23.63-8.69-23.63-8.69,20.76,9.3,21.43,10.4a1.57,1.57,0,0,1-2,2.16c-1.58-.58-21.34-8.12-21.34-8.12s14.69,7.71,14.7,9c0,.78-.36,2.59-4.09.48s-13-6.17-13-6.17Z"/><path class="cls-12" d="M419.69,1043h2.52v-14.22a30.92,30.92,0,0,1,6.55,11.42c2.05,6.79,9.4,8.8,20.61,8.48s11.37-4.74,10.43-11.37-10.43-10.11-10.43-10.11c-4.26-3.79-14.84-19.5-14.84-19.5s-6.79-1.81-12.12,2.49-3.67,14-3.51,16.54S419.69,1043,419.69,1043Z"/><path class="cls-13" d="M427.42,704.43s-13.36,17.37-17,38,2.14,89.77,2,100-9.63,35.53-7.73,54.72,9.37,114.67,9.37,114.67l20.47-4.06s-1.18-97.35,0-105.4,3.56-37.41,4-40.73,30.08-90.39,30.08-105.24S459.64,680.19,427.42,704.43Z"/><path class="cls-13" d="M494.53,711.22s22,83.77,24.56,95.38,6.38,21.18,6.38,26.1c0,11.44-4.25,29.8-4.25,29.8L493.35,995.8H466.8s14.79-80,15.19-95.61,12.47-37.93,10.1-44.56S454,772.49,454,772.49,426.87,686.9,494.53,711.22Z"/><path class="cls-8" d="M449.37,1027.19l-14.84-19.5-12.12,2.49a54.87,54.87,0,0,0,9.15,15.29C438.54,1033.25,449.37,1027.19,449.37,1027.19Z"/><path class="cls-14" d="M485.47,568.86A27.45,27.45,0,0,1,501.36,577c6.83,7.33,13.25,19,15,22.92s26.9,40.12,28.2,40.93,13.92,5,22.28,7.85c12.9,4.34,38.77,13.74,38.77,13.74l-5.14,16.26s-48.63-15.91-60.81-18.91c-14.9-3.67-49.18-47.66-49.18-47.66S465,582.21,485.47,568.86Z"/><path class="cls-15" d="M469.68,562.52s11.72,5.53,15.79,6.34,19.86,21.33,22.63,28.82,0,18.72-5.7,31.91-.32,17.58-2.93,30.77-1.77,62.52-1.28,69.85-76.2,18.43-91.34,5.08c0,0,10.25-44.46,22.38-57.15,2.63-2.75,2.35-21,.56-25.6s-22-38.58-22-38.58-1.48-34.51,7.33-41.35c7.65-5.94,28.5-8.06,32.25-9.36S462,561.38,469.68,562.52Z"/><path class="cls-8" d="M475.27,549s-.34,3.23-.75,7.59c-.15,1.72-.33,3.63-.48,5.58a132.47,132.47,0,0,0-.62,15.33s-12.18,12.21-26-14.24c0,0,5.83-10.91,1.44-25.76S475.27,549,475.27,549Z"/><path class="cls-16" d="M509.37,634.45s2.93-19.5-.19-31.36c0,0,0,10.2-5.59,24.68Z"/><path class="cls-8" d="M438,565.12s8.38,24.75,31.38,22.93,10.91-20.9,10.91-20.9-5.73-3.28-7.35-3.59-25.43-.62-25.43-.62Z"/><path class="cls-14" d="M480.32,567.15s12.05,33.33,12.05,67.3,1,89.31,5.18,106.78,16.18,71.51,16.18,71.51l9.38-4.85s-22.57-86.25-24.27-92.46,1.29-71.92,2.91-77.43,8.5-30,7.43-36.78c-1.35-8.56-9.36-21.24-22.3-32.13Z"/><path class="cls-14" d="M442.58,564.08a346.24,346.24,0,0,1,11.28,54.69c3.8,30.71-11.65,173.26-22,205.62l-40.13-6.47s8.64-100.76,20.36-119.1,15.46-34.56,2.8-72.83,5.55-57.23,5.55-57.23S439.06,564.48,442.58,564.08Z"/><polygon class="cls-17" points="485.87 665.77 437.21 750.04 383.13 718.81 429.67 633.32 485.87 665.77"/><polygon class="cls-18" points="480 668.67 436.79 743.51 388.76 715.78 430.09 639.85 480 668.67"/><polygon class="cls-17" points="464.06 661.95 467.09 656.69 447.67 645.48 443.88 650.3 464.06 661.95"/><path class="cls-8" d="M461.74,721.74a10,10,0,0,1-3.18-.46s-1.7-1-2.95-1.62c-.4-.19-.75-.36-1-.44a18.32,18.32,0,0,1-5.43-2.29c-2.15-1.49-9.77-10.31-9.77-10.31l3.6-5.48,2.64-5.6s16,1,18.16,2.19a6.83,6.83,0,0,1,.6.37c1.74,1.15,2.54,2.75,3.38,3.46.31.26,3.2,3.08,3.09,4.29a3.91,3.91,0,0,1-1.91,3.31s-.41,3.26-2,4.78a5.83,5.83,0,0,1-2.82,4.33S463.52,721.3,461.74,721.74Z"/><path class="cls-14" d="M428.77,568.86s-14.77-4.23-23.24,12-8.42,23.23-9.55,31.18c-1.07,7.51-5.89,28-6.38,30.12s-11.41,27.35-6.4,36.17,56.17,35,55.84,36.92,8.86-19.73,8.86-19.73S427.21,684,423.82,680.48c-5.51-5.76-17.12-12-14.73-19.13,2.8-8.41,11.22-36.77,13.17-40.92S441.23,574.16,428.77,568.86Z"/><path class="cls-19" d="M477.09,484.88s26.31,8.27,12,53.66-50.2-5.26-46.45-32.92S477.09,484.88,477.09,484.88Z"/><path class="cls-11" d="M491.81,511.37a59.39,59.39,0,0,1-34.95,14.43s-8.4,9.85-9.05,13.72c0,0-19.51-33.26,4.48-53.2S500.62,503.15,491.81,511.37Z"/><path class="cls-19" d="M457.13,526.7c-.17-3.3-2.21-10.82-7.12-8.72s.3,17.42,3.56,16.47C453.57,534.45,457.53,534.52,457.13,526.7Z"/><path class="cls-10" d="M474.52,556.58c-.15,1.72-.33,3.63-.48,5.58,0,0-11.61-.69-19.37-18C455.17,545,463.68,557.45,474.52,556.58Z"/><path class="cls-20" d="M186.49,971.68c16.87-11.86,36.61-94.52,37.79-143.75.6-25.22,8.05-35.72,14.63-45,6.29-8.87,11.72-16.52,8.56-34.09-6.05-33.58,9.84-48.07,10-48.22l-1.84-2.09c-.7.62-17.25,15.57-10.91,50.81,3,16.41-1.92,23.28-8.08,32-6.47,9.12-14.53,20.47-15.15,46.54C220.22,880.7,200,958.75,184.89,969.4Z"/><path class="cls-21" d="M151.14,947.57c-1.59-3.6-3.24-7.34-5.1-11.27-9.64-20.34-18.17-23.69-32.31-29.24-3.46-1.36-7.37-2.89-11.67-4.82-20.26-9.11-16.33-22.52-12.87-34.36.48-1.65,1-3.3,1.38-4.94,1.78-7-1.64-10.45-6.82-15.74-3.85-3.92-8.64-8.81-12.34-16.54-4-8.45-2-13,.46-15.29,5.14-4.87,17-4,28.17,2.13,3.48,1.9,6.34,4.89,9.37,8.07,7.13,7.46,16,16.76,38.45,16.86,12.8.06,19.81,1.83,23.44,5.91,4.12,4.63,3.34,11.56,2.27,21.15-.37,3.32-.79,7.08-1,11.15-1.53,24.24,12.78,41.73,12.93,41.9,8.55,10.18,19.08,31.3,14.53,44.3-1.9,5.45-6.16,8.88-12.66,10.2a36.35,36.35,0,0,1-7.14.77C164.48,977.81,158.74,964.79,151.14,947.57ZM98.71,820c-10-5.45-20.7-6.55-24.92-2.56-3.2,3-1.69,8.24.14,12.07,3.49,7.3,7.91,11.81,11.81,15.79,5.42,5.53,9.7,9.9,7.53,18.39-.42,1.66-.91,3.34-1.41,5-3.44,11.78-6.7,22.91,11.34,31,4.24,1.91,8.12,3.43,11.55,4.77,14.27,5.61,23.7,9.31,33.81,30.64,1.88,4,3.53,7.72,5.13,11.35,8.73,19.77,14,31.71,33.07,27.85,5.47-1.1,9-3.92,10.59-8.38,4-11.45-5.58-31.51-14-41.59-.62-.74-15.17-18.48-13.57-43.87.26-4.13.68-7.93,1.06-11.28,1-8.87,1.71-15.29-1.58-19-3-3.38-9.6-4.91-21.37-5-23.63-.11-33-9.88-40.46-17.73-3-3.14-5.59-5.85-8.68-7.54Z"/><path class="cls-22" d="M187,993.91l2.79-.14c-.14-2.62-3.65-64.3-28.42-82.36-27.17-19.81-35.74-41.09-39.82-55.38-4.81-16.83-29.28-21.33-30.32-21.52l-.48,2.75c.23,0,23.79,4.38,28.12,19.54,4.19,14.68,13,36.55,40.86,56.86C183.44,930.94,187,993.29,187,993.91Z"/><path class="cls-23" d="M182.3,1007.79c-5.83-2.9-5.62-14.57-5.3-32.24.41-22.32,1-52.89-10.72-81-12.42-29.87-1.35-38.6,9.36-47,12-9.46,23.31-18.39,1.58-58.7-10-18.51-13.15-31-10-39.41s12-11.5,21.29-14.91c16.1-5.9,34.36-12.58,32-46.66-.73-10.45.5-16.88,3.86-20.22,3.65-3.64,9-3.25,15.26-2.79,9.41.69,20.07,1.47,29.36-10.65,1-3,9.85-30,20.47-34.68a7.49,7.49,0,0,1,6.49,0h0c7.34,3.5,11.59,7.66,13,12.71,2.47,8.79-4,18.69-11.41,30.16-11.7,18-25,38.45-11.21,62.77,18.19,32.14,8.58,43.39-4.72,59-7.62,8.92-16.25,19-22,35.52-4.64,13.26,3.28,25.91,10.94,38.13,9.61,15.34,19.55,31.21-1.38,45-34.58,22.76-68.74,97-69.09,97.79l-.14.31-.26.21c-6.38,5-11,7.38-14.51,7.38A6.31,6.31,0,0,1,182.3,1007.79Zm85.34-107.37c18.64-12.27,10.26-25.65.55-41.15-7.64-12.2-16.3-26-11.21-40.54,5.95-17,14.76-27.31,22.54-36.41,13-15.26,21.64-25.34,4.41-55.78-14.59-25.78-.24-47.89,11.3-65.66,7.08-10.9,13.2-20.32,11.07-27.88-1.19-4.23-5-7.82-11.53-11h0a4.79,4.79,0,0,0-4.18,0c-9.85,4.29-18.9,32.9-19,33.19l-.07.23-.15.19c-10.24,13.53-22.26,12.65-31.93,11.94-5.78-.42-10.34-.76-13.09,2s-3.7,8.6-3.05,18c2.5,36.18-17.64,43.55-33.82,49.47-9.1,3.33-17,6.21-19.64,13.29-2.87,7.56.25,19.35,9.82,37.1,22.85,42.37,10.06,52.46-2.3,62.21-10.35,8.16-20.12,15.86-8.52,43.78,11.91,28.65,11.35,59.56,10.94,82.12-.28,15.41-.5,27.57,3.75,29.69,2.49,1.24,7.25-.85,14.15-6.22C200.45,993.06,233.17,923.1,267.64,900.42Z"/><path class="cls-24" d="M127.7,684c17.61-6,14,27.9,21.39,53s82.75,11,51.14,73.82,40,21,18.59,75.88-1.86,113.53-25.1,98.6-13.06-84-37.24-92.21-28.12-17.78-4.18-40.1S89.58,808.53,111,763.47,107.36,691,127.7,684Z"/><path class="cls-25" d="M185.61,981.71c2.22-9.39,21.13-92,3.48-102-15.54-8.8-15.16-43-12.74-75.39,2.15-28.62-34.61-42-36.18-42.56l-.93,2.63c.36.13,36.32,13.23,34.33,39.72-2.49,33.22-2.76,68.46,14.15,78,13.39,7.59,1.06,74-4.82,99Z"/><polygon class="cls-26" points="252.03 952.28 226.9 1047.64 170.73 1047.64 145.6 952.28 252.03 952.28"/><path class="cls-27" d="M252,952.28s-55.33,10.39-55.33,95.36h-26L145.6,952.28Z"/><rect class="cls-28" x="765.3" y="152.95" width="220.81" height="198.87" rx="48.23"/><rect class="cls-4" x="866.11" y="314.2" width="17.51" height="3.24"/><path class="cls-29" d="M890.7,135.53s14.11,7.75,9.63,26.8-6.18,21.57-2.54,29.27,6.84,40,3,45.86-43.24-28.79-47.61-56.54,5.47-39.54,9-43.94S878.25,128.46,890.7,135.53Z"/><path class="cls-8" d="M917.19,293h-15.1c-.74-7.45-1.41-12.64-1.27-13.41.22-1.27-15-41.28-16.46-44.59s-7-12.18-7.76-20.53,10.17-11.74,10.17-11.74c14.71,2.64,19.69,23,19.69,23s6.17,41.26,9.3,52.87C916.56,281.57,917,286.83,917.19,293Z"/><path class="cls-30" d="M909.59,235.66l-22.5,9.48s-20.68-51.31-3.34-45.58S908.8,216,909.59,235.66Z"/><path class="cls-30" d="M904.58,259.82c-.65,5.09-3.35,23.14-2.74,28,.1.8.43,2.65.93,5.17H848.53c1.44-5.15,2.75-9.71,3.55-12.36,2.63-8.74.11-11.08-1.22-18.07-.52-2.74-2.34-7.93-4.33-13.8-.67-2-1.35-4-2-6.06a126.31,126.31,0,0,1-4.18-19.36c-3.27-20.87,12.78-22.87,12.78-22.87,6-1.1,16.38-4.32,16.38-4.32l16.32,3.39a17.89,17.89,0,0,1,3.82,2.26h0a29.36,29.36,0,0,1,3.67,3.22c1.78,1.83,5.34,7.07,8.88,12.83,1.08,1.77,2.17,3.58,3.2,5.36,3.31,5.74,5.67,10.37,5.6,15.6S905.24,254.72,904.58,259.82Z"/><path class="cls-8" d="M885.82,199.56s10.23,17.47,6.42,18.78-23.83-3.11-31.66-19.62C860.58,198.72,873.73,192.74,885.82,199.56Z"/><path class="cls-8" d="M884.36,207.54s-9.08,3.84-17.3-8.81c0,0,2.2-14.36-2.47-22.67S885,186,885,186s-.4,1.71-.82,4.24c-.22,1.29-.44,2.8-.61,4.4-.14,1.33-.25,2.73-.3,4.12A22.63,22.63,0,0,0,884.36,207.54Z"/><path class="cls-31" d="M861.81,227.11c-1.87,9.61-15.28,21.66-15.28,21.66-.66-2-1.35-4-2-6.05C853.78,236.81,861.81,227.11,861.81,227.11Z"/><path class="cls-8" d="M858.45,234.76c-.85,3.5-4.76,39-4.34,40.21.25.69,2.15,8.9,4,18H840.64c-1.79-5.88-2.86-10.76-2.6-13.53,1.12-12-2.94-50.14-2.94-50.14s-3.63-23.08,15.53-26c0,0,11.31,1.49,12,9.85S859.3,231.27,858.45,234.76Z"/><path class="cls-30" d="M833.69,239.66l23.77,5.56s18.86-36.62,1.88-43.31C841.43,194.87,829.4,219.69,833.69,239.66Z"/><path class="cls-19" d="M888.5,137.56s20.66,7.59,7.57,43.24-39.83-6.09-35.79-28S888.5,137.56,888.5,137.56Z"/><path class="cls-29" d="M899.24,159.24a47.38,47.38,0,0,1-28.41,10.18s-4.09,10-4.75,13c0,0-17.29-29.68,2.59-44.68S906.58,153,899.24,159.24Z"/><path class="cls-19" d="M873.19,171.56c0-2.64-1.35-8.71-5.34-7.22s-.42,13.9,2.22,13.27C870.07,177.61,873.22,177.81,873.19,171.56Z"/><path class="cls-10" d="M883.31,198.17c-9.71-2.69-13.47-11.94-13.58-12.25,7.89,10.2,13.85,8.74,13.85,8.74C883.44,196,883.43,196.82,883.31,198.17Z"/><path class="cls-4" d="M928.18,188.94v3.17h18.68v17.52H950V188.94ZM801.37,209.63h3.17V192.11h18.68v-3.17H801.37Zm145.49,90.44V317.6H928.18v3.17H950v-20.7Zm-142.32,0h-3.17v20.7h21.85V317.6H804.54Z"/><rect class="cls-4" x="573.81" y="462.78" width="23.39" height="4.33"/><path class="cls-4" d="M655.6,295.46v4.24h24.95v23.41h4.23V295.46ZM486.22,323.11h4.24V299.7H515.4v-4.24H486.22ZM680.55,443.9v23.42H655.6v4.24h29.18V443.9Zm-190.09,0h-4.24v27.66H515.4v-4.24H490.46Z"/><path class="cls-32" d="M1108,620.94h-19.79c-.36-.79-.65-1.48-.9-2-5.87-13.87-36.12-45.65-36.12-45.65v.07a0,0,0,0,0,0,0v0l0,.14c0,.07,0,.16-.07.26a.53.53,0,0,0,0,.17.78.78,0,0,1,0,.14c-1.24,4.63-7.33,27.71-10.38,46.84H906.72c-.31-1.77-.67-3.46-1.08-5a108,108,0,0,1-2.59-13.84c0-.23,0-.43-.06-.66-.11-.81-.19-1.62-.26-2.41a126.39,126.39,0,0,1-.23-22.16c-.38.81-3.08,10.73-6.63,23-1.94,6.72-4.15,14.14-6.33,21.13H857.92L897.6,506.48c.87-.69,11.17-5.67,18.68-9.25,7.66-3.65,16.91-9,25.26-13.59,4.27-2.34,8.3-4.46,11.8-6.06l.53-.24v0l9.61-4.37h0l2.49-.24c8.06-.78,33.07-3.12,41.44-3.6.69-.05,1.27-.07,1.72-.09h.84c1,.07,6.22,1.86,13,4.45.25.08.51.18.77.29l1,.36,1.8.69,3.72,1.46,1.32.52c13.55,5.37,29.09,12,32.77,14.69,2.45,1.74,10,16,18.84,33.75C1092.63,555.57,1104.22,599.34,1108,620.94Z"/><path class="cls-8" d="M1009.77,465.13c-.35,18-35.2,27.84-35.2,27.84S960,474.7,963.48,473c1.36-.69,1.92-3.41,2.09-6.47a63.06,63.06,0,0,0-.2-8.17c-.1-1.27-.2-2.09-.2-2.09s5-5.25,11.31-11.51c11.07-10.94,26.29-25,26.31-19.39a5,5,0,0,1-.13,1.06C1000,438.93,1009.77,465.13,1009.77,465.13Z"/><path class="cls-10" d="M996.35,438.76h0c-.07.11-1.54,2.32-4.07,5.49-5.35,6.73-15.4,17.79-26.71,22.23a63.06,63.06,0,0,0-.2-8.17,17.67,17.67,0,0,1-3.46-.41,106.78,106.78,0,0,1,7.58-11.1l7-2.09Z"/><path class="cls-8" d="M1003,425.57c-3,6.55-5.87,11.31-6.69,13.19h0a23.26,23.26,0,0,1-4.07,5.49c-5.74,6.19-16.41,14.35-26.91,14.06a17.67,17.67,0,0,1-3.46-.41c-4.24-.93-9.24-2.9-12-8.29-21.74-42.56-6-77.37-6-77.37s59.44-16.81,68.74,1.09C1019.19,385.88,1010.13,410.16,1003,425.57Z"/><path class="cls-33" d="M943.92,372.24s-5.52-.3-6.89-10.77,1.38-13.21,1.38-13.21S963,338,971.76,336.66s30.49-2.62,35.56,3.19c0,0,12.35-2.87,15.71,17.62,5.33,32.5-18.18,64.06-18.18,64.06s.2-21.24-4.48-24-8.72,3.88-8.72,3.88l-9.58,1.71s14.55-31.41-2.91-32.57S953.91,374.07,943.92,372.24Z"/><path class="cls-8" d="M991.91,392.89c.91-9.35,17.83-12.92,16.69-3.12s-9.46,19.23-13.31,18.9S991.21,400,991.91,392.89Z"/><path class="cls-34" d="M1090.93,526.11c-5.51-17.65-10.28-31.62-12.4-33.13-3.7-2.66-33-10.73-47-16.19l-1.32-.52-3.72-1.46-1.8-.69-1-.36c-.26-.11-.52-.21-.77-.29,0,0,0,0-.07.06a230.85,230.85,0,0,0-15.38,19.67c-14.4,20.46-33.15,53.61-30.27,84.21.93,9.81,2.06,23.92,4,39.74.14,1.26.3,2.51.47,3.79h65c.8-16.57,2.21-38.38,4.34-46.84a.78.78,0,0,0,0-.14.53.53,0,0,1,0-.17c0-.09.05-.17.07-.26l0-.14v0a0,0,0,0,1,0,0s15.72,24.57,16.53,47.61h40.88C1106.63,599.53,1100.38,556.4,1090.93,526.11Z"/><path class="cls-34" d="M953.61,477.79s-4.91,16.32-11.24,57.08v0c-.23,1.36-.43,2.75-.66,4.18,0,.16-.05.33-.07.5-.15.93-.29,1.9-.43,2.86,0,.12,0,.23-.05.35-.1.63-.2,1.29-.29,2-.24,1.6-.48,3.25-.72,4.92-2.38,16.64-5.55,43.07-8.77,71.28H905.71c-1.4-7.84-2.71-15-2.6-19.86a1.66,1.66,0,0,0-.12.33c-2,5.68-4.31,11.87-6.6,17.88l-.62,1.65H851.51L895.6,505.62c.88-.69,12.22-6.81,19.73-10.37,7.84-3.74,17.74-8.34,26.52-12.38,4.2-1.95,8.15-3.76,11.49-5.29Z"/><path class="cls-35" d="M1013.32,518.12l-17,9.57,7.25,7.39-15.91,85.86h-6c-2.21-17.36-3.46-32.94-4.44-43.53-4.43-47.32,42.79-100.69,45.72-103.94,2.27.86,4.71,1.8,7.25,2.8Z"/><path class="cls-35" d="M953.87,477.34s-6.34,20.68-13.71,72.32c-2.37,16.62-5.56,43.07-8.78,71.28h-2.5l-3.28-81.13,8.07-8.74-7.18-9,15.36-39.23c4.2-1.95,8.15-3.76,11.49-5.29Z"/><path class="cls-36" d="M1023.83,473.67l-14.06-8.54s-.39,7.71-35.2,27.84l9.89,27.85Z"/><path class="cls-36" d="M965.31,469s.55,8.32,9.26,24l-19.29,25.16-1.41-40.8Z"/><path class="cls-37" d="M974.62,493s3.74,15,2.4,19.15c0,0-8.22,3-14.13-.75C962.89,511.37,967.07,500.9,974.62,493Z"/><path class="cls-37" d="M970.09,543.83c-3.94,26.86-3.94,54-2.48,77.11H951.13c-.22-3.26-.43-6.65-.63-10.2C947.43,557.55,966.24,510,966.24,510l8.38-2.1S971.92,531.43,970.09,543.83Z"/><path class="cls-38" d="M903.64,577c-.63,12.77-.54,24.1-.54,24.1h0c0,.06,0,.41,0,1,0-.22,0-.43-.08-.64-2,5.68-4.31,11.85-6.59,17.87a190.3,190.3,0,0,1-.51-19.48c.91-35.78,12.17-54.55,12.17-54.55C905.47,551.5,904.23,564.88,903.64,577Z"/><polygon class="cls-39" points="749.6 621.09 696.95 650.03 644.07 566.83 708.03 544.61 749.6 621.09"/><polygon class="cls-25" points="746.26 618.59 697.02 645.66 647.57 567.84 707.38 547.07 746.26 618.59"/><path class="cls-8" d="M764.3,604s-9.17-4.38-13.19-6.67-14.37-5.44-15.21-6.19-30.67-2.58-32.48-4.15-3.57,3.66,4.16,5.36,18.5,5.83,19.09,8.86-7.95,3.73-8.81,6.22.24,1.93,1.47,2.47,10.14-4.41,14.07-3,9.92-.54,12.93.49,17.64,6,17.64,6Z"/><path class="cls-8" d="M694.38,639.59s-7.7-6.93-11.42-9.82-10.72-11.43-11.75-11.93-14.38-27.9-16.56-29,2.06-4.79,6.67,1.84,12.7,15.15,15.78,14.53.43-8.94,2.44-10.72,1.91-.53,2.89.42-.2,11.28,2.65,14.43,3.35,9.56,5.49,12,12.48,14.3,12.48,14.3Z"/><path class="cls-40" d="M860.19,1010s1.67,11.56,1.88,13.3,18.52-1,18.52-1l1.49-13.76S862.48,1008.34,860.19,1010Z"/><path class="cls-39" d="M861.87,1021.8s-5.8,7-11.42,10S836,1036,832.7,1039.18c-2.4,2.27-8.73,12,14.59,11.84s34.55,1.38,37.05-2.37-3.61-27.64-3.61-27.64S875.2,1023,861.87,1021.8Z"/><path class="cls-40" d="M728.94,1010s1.66,11.56,1.87,13.3,18.53-1,18.53-1l1.48-13.76S731.23,1008.34,728.94,1010Z"/><path class="cls-39" d="M730.62,1021.8s-5.81,7-11.42,10-26.27,5.53-29.59,8.67c-2.4,2.27-6.38,11.4,26.42,10.55,23.31-.61,34.56,1.38,37.05-2.37s-3.61-27.64-3.61-27.64S744.27,1023.14,730.62,1021.8Z"/><path class="cls-39" d="M845,712.93S862.24,740.28,861,765s6.24,51.71,8.83,77.53c2.88,28.79,14.68,96.94,15.11,112.34s-1.84,64.58-1.84,64.58l-23.61.54s-19.83-119.15-25-131.31S803.86,789.85,803,780.12,845,712.93,845,712.93Z"/><path class="cls-39" d="M754.41,716.64s-13,67.75-14.68,82.88-2.86,73.22-3.71,82.67-5.71,123.75-10.27,137.8h30.19s23.17-83.09,23.17-122.4S797,812.14,808.57,786.2s38-26.55,45.12-74.67C853.69,711.53,764,701.37,754.41,716.64Z"/><path class="cls-8" d="M816.3,483s-23.1-8.63-33.76,9-9.62,52.79,2,57.12,29.14,2.07,35.11-8.94,11.34-26.91,11.08-37.54S822.37,486.08,816.3,483Z"/><path class="cls-8" d="M787.07,549.9s1,6.23-.63,9.31,29.94,3.15,29.94,3.15,2.55-16.71,7.41-30.84S787.07,549.9,787.07,549.9Z"/><path class="cls-41" d="M823.79,531.52s-2.18,3.59-11.06,2.2-19.71-13.21-23.42-14.5-3.75-3.48-3.75-3.48l-2.32,3.39-3.93.25s3.59-10.57-1.83-14.88,5.62-34.21,34.1-24.25c0,0,21.88,6,21.08,18.47S828.68,525.33,823.79,531.52Z"/><path class="cls-42" d="M784.57,558.84s.1-5.87,2.76-6.44,29.38-3.13,32.64-1.84v6.83S813.68,561.27,784.57,558.84Z"/><path class="cls-8" d="M786.15,511.22c.5-2.09,5.81-8.05,7.84-1.67s-3.07,15-5.92,14.24S784.89,516.51,786.15,511.22Z"/><path class="cls-43" d="M678.56,628.2h0C678.42,628.28,678.39,628.29,678.56,628.2Z"/><path class="cls-44" d="M864.44,778.08s-14.17,4.17-38.33,6.83-84.53-1-84.91-3.81,13-106.29,12.23-111.62-1.17-24.3-1.17-24.3c-.3,5.2-5.6,26.44-12,38-2.31,4.18-10.07,17.3-13.8,14.31-18.09-14.44-46.09-68.85-47.87-69.31,1.49-.65,13.27-6.07,14.93-6.62,1.44-.49,14.49,13.33,22.4,21.89,3.52,3.82,6,6.59,6,6.59,2.29-5.13,10.6-37.49,13.19-48.69,5.82-25.25,4.93-26.3,4.93-26.3,17.67-5.35,44.5-16.23,44.5-16.23l35.4-1.45s32.5,7.16,45.29,12.94c1.21.54,1.22,29,4.55,36.44L859.2,629.15s-6.13,44.33-7.4,64.05C851.22,702.25,864.44,778.08,864.44,778.08Z"/><path class="cls-44" d="M871.28,643.69c-.92,3-5.12,5.5-7.85,6.61a10.22,10.22,0,0,1-5.66.57l-1.39-.26h0l-24.26-4.5s-5.31-61.14,33.14-75.78C866.28,570.66,879.77,616.32,871.28,643.69Z"/><path class="cls-45" d="M863.43,650.29h0a10.22,10.22,0,0,1-5.66.57l-1.39-.26h0l2.39-31.24Z"/><path class="cls-45" d="M722,650.06l-3,12.56s-3.22-12.6-3.06-19.15C719.45,647.29,722,650.06,722,650.06Z"/><path class="cls-41" d="M822.88,485.08s30.28-3.79.51,46.79Z"/><polygon class="cls-39" points="668.41 562.36 665.34 557.07 689.58 548.71 692.65 553.97 668.41 562.36"/><g class="cls-46"><polygon class="cls-47" points="1130.8 335.76 1147.97 335.76 1142.72 324.86 1125.54 324.86 1130.8 335.76"/><polygon class="cls-48" points="1122.76 335.76 1126.85 335.76 1121.6 324.86 1117.5 324.86 1122.76 335.76"/><polygon class="cls-49" points="1063.42 322.77 1132.97 322.77 1130.66 317.32 1061.12 317.32 1063.42 322.77"/></g><rect class="cls-50" x="662.08" y="140.05" width="29.47" height="8.88" rx="1.61"/><rect class="cls-51" x="662.08" y="161.35" width="29.47" height="8.88" rx="1.61"/><rect class="cls-52" x="662.08" y="182.65" width="29.47" height="8.88" rx="1.61"/><path class="cls-53" d="M705.32,140.05h5.17a1.61,1.61,0,0,1,1.61,1.61v5.67a1.6,1.6,0,0,1-1.6,1.6h-5.18a1.6,1.6,0,0,1-1.6-1.6v-5.67A1.61,1.61,0,0,1,705.32,140.05Z"/><path class="cls-54" d="M705.32,161.35h5.17A1.61,1.61,0,0,1,712.1,163v5.67a1.61,1.61,0,0,1-1.61,1.61h-5.17a1.6,1.6,0,0,1-1.6-1.6V163A1.61,1.61,0,0,1,705.32,161.35Z"/><path class="cls-55" d="M705.32,182.65h5.17a1.61,1.61,0,0,1,1.61,1.61v5.67a1.61,1.61,0,0,1-1.61,1.61h-5.17a1.6,1.6,0,0,1-1.6-1.6v-5.67A1.61,1.61,0,0,1,705.32,182.65Z"/><polygon class="cls-56" points="596.4 628.56 627.23 628.56 617.79 608.99 586.96 608.99 596.4 628.56"/><polygon class="cls-57" points="581.97 628.56 589.32 628.56 579.88 608.99 572.53 608.99 581.97 628.56"/></svg>