<svg id="Layer_1" data-name="Layer 1" xmlns="http://www.w3.org/2000/svg" xmlns:xlink="http://www.w3.org/1999/xlink" viewBox="0 0 2000 800"><defs><style>.cls-1{fill:none;}.cls-2,.cls-26{fill:#fff;}.cls-3{fill:#e7f3fd;}.cls-4{fill:#cde0f5;}.cls-28,.cls-5{fill:#a3c5e9;}.cls-26,.cls-5{opacity:0.5;}.cls-6{fill:#313c60;}.cls-7{fill:#4577bb;}.cls-8{fill:#3f6cac;}.cls-9{fill:#f19a5a;}.cls-10{fill:#a5daee;}.cls-11{fill:#97d0e0;}.cls-12{fill:#e38540;}.cls-13{fill:#f5dd95;}.cls-14{fill:#abcced;}.cls-15{fill:#95bae3;}.cls-16{fill:#77a0d5;}.cls-17{fill:#2f5c9b;}.cls-18{fill:#6791c9;}.cls-19{fill:#ee726a;}.cls-20{fill:#d54b41;}.cls-21{fill:#f2e5de;}.cls-22{fill:#a86b49;}.cls-23{fill:#7b4f35;}.cls-24{fill:#74b570;}.cls-25{fill:#9ecd98;}.cls-27{fill:#96bbe4;}.cls-29{fill:#f39993;}.cls-30{font-size:13.61px;}.cls-30,.cls-35{fill:#1d1d1b;font-family:MyriadPro-Regular, Myriad Pro;}.cls-31{clip-path:url(#clip-path);}.cls-32{fill:#f6b6b4;}.cls-33{letter-spacing:-0.01em;}.cls-34{letter-spacing:-0.01em;}.cls-35{font-size:12px;}.cls-36{letter-spacing:-0.01em;}.cls-37{letter-spacing:-0.01em;}.cls-38{fill:#f18b31;}</style><clipPath id="clip-path"><path id="SVGID" class="cls-1" d="M775.12,77.62c-28.87,0-52.27,23.12-52.27,51.64s23.4,51.64,52.27,51.64,52.27-23.12,52.27-51.64S804,77.62,775.12,77.62Zm0,79a27.36,27.36,0,1,1,27.69-27.36A27.53,27.53,0,0,1,775.12,156.62Z"/></clipPath></defs><rect class="cls-2" x="704.42" y="-0.42" width="1295.58" height="800"/><path class="cls-3" d="M852.9,71.37C1042.38,1.88,1235,63.32,1365.56,197.14s404.72-92.37,550.09,41.24c99.21,91.17,53.77,325.59-82.27,427.12-184.9,138-873.73,142.15-988,94.8-195.3-80.93-1.25-230.79-92.41-374.44C645.4,216.38,769.17,102.09,852.9,71.37Z"/><path class="cls-4" d="M1919.45,720.4c-94.85-4.58-417.5,3.18-515.62,6.2s-212-4-271.2-14.31-401.18.88-385.66,28.63,152.38,12.41,307.58,23.56,504.26-1.4,583,0,150.94-2.79,252.4-8.36S1974.43,723.05,1919.45,720.4Z"/><path class="cls-5" d="M1713.75,109.69a90.84,90.84,0,0,0,.57-10.09c0-1.8-.06-3.58-.16-5.35l-16.87-5.4a72.43,72.43,0,0,0-6-20l11.19-13.6a89.89,89.89,0,0,0-8.86-12.73L1676.77,48a75.12,75.12,0,0,0-16.7-12.68l1-17.51a91.05,91.05,0,0,0-14.73-5.16l-10.42,14.2a75.81,75.81,0,0,0-21.06-.54l-9.64-14.73a91.68,91.68,0,0,0-15,4.37l0,17.54a74.65,74.65,0,0,0-17.35,11.8L1556.3,39a90.45,90.45,0,0,0-9.53,12.24l10.45,14.17a72.78,72.78,0,0,0-7,19.62L1533,89.52a90.66,90.66,0,0,0-.57,10.08c0,1.8.06,3.59.17,5.36l16.87,5.39a72,72,0,0,0,6,20l-11.19,13.6a90.72,90.72,0,0,0,8.86,12.73l16.87-5.44a75,75,0,0,0,16.71,12.68l-1,17.51a90.94,90.94,0,0,0,14.72,5.16l10.42-14.2a76.64,76.64,0,0,0,12.49,1,75.72,75.72,0,0,0,8.57-.49l9.65,14.73a91.86,91.86,0,0,0,15-4.37l0-17.54a74.92,74.92,0,0,0,17.36-11.8l16.55,6.31A91.08,91.08,0,0,0,1700,148l-10.45-14.17a72.41,72.41,0,0,0,7-19.63Zm-90.35,25.15a35.24,35.24,0,1,1,35.66-35.24A35.46,35.46,0,0,1,1623.4,134.84Z"/><path class="cls-2" d="M1672,140.29a1.87,1.87,0,0,1-1.18-.42,1.81,1.81,0,0,1-.24-2.56,58.51,58.51,0,0,0,10.55-56.93,1.82,1.82,0,0,1,1.13-2.31,1.85,1.85,0,0,1,2.34,1.13,62.12,62.12,0,0,1-11.19,60.43A1.85,1.85,0,0,1,1672,140.29Z"/><path class="cls-2" d="M1666.87,57.13a1.86,1.86,0,0,1-1.26-.5,59.56,59.56,0,0,0-20.56-12.51,1.83,1.83,0,0,1-1.1-2.33,1.85,1.85,0,0,1,2.36-1.09A63.15,63.15,0,0,1,1668.13,54a1.8,1.8,0,0,1,.08,2.57A1.88,1.88,0,0,1,1666.87,57.13Z"/><path class="cls-2" d="M1609.56,42.44a1.84,1.84,0,0,1-1.78-1.37,1.81,1.81,0,0,1,1.33-2.2A64.08,64.08,0,0,1,1624.68,37a1.82,1.82,0,1,1,0,3.63,60.63,60.63,0,0,0-14.67,1.8A2.3,2.3,0,0,1,1609.56,42.44Z"/><rect class="cls-5" x="1000.13" y="11.83" width="568.27" height="337.23"/><rect class="cls-2" x="1027.82" y="20.06" width="534.64" height="309.58"/><path class="cls-6" d="M1483.71,180.06c25.48-24,69-23.42,68.1,13.07s2.14,39.91,12.62,59.05c36.38,66.42-43.36,62.51-76.62,64.69s-30.5-59.72-24.62-94S1476.26,187.07,1483.71,180.06Z"/><path class="cls-7" d="M1495.59,389.26c-8.17,67.77-23,117.87-24.67,150s-8.26,158.63-8.26,158.63,18.18-1.26,19.84-4,34.17-74.06,32.52-118.17,32.48-111.17,32.48-111.17l-8.23-65.81Z"/><path class="cls-8" d="M1503.43,418.76,1490.66,424c-3.48,21.49-7.33,40.82-10.71,57.95,20.33,13,30.83,56.25,35.33,82.69,2.29-29.59,16.42-65.35,25.19-85.12Z"/><path class="cls-7" d="M1562.42,382.43s27.53,34.69,26.67,74.06c-1.32,59.92-7.93,77,3.58,139.85,4.49,24.54-9.92,104.81-9.92,104.81s-12.32,1-18.93-2.3c.55-5.89-8-101.84-24.54-145.94-8-21.36-19.3-81.18-25.37-115.48s-7.16-41.39-5-41.39S1562.42,382.43,1562.42,382.43Z"/><path class="cls-9" d="M1405.56,286.07s1.23-18-.73-23.5S1386,252.18,1386,252.18s-.73,25.66,1,28.81,11.76,12.1,11.76,12.1Z"/><path class="cls-10" d="M1500.61,273c-38.7,41.15-51.33,58.47-54.27,58.47-9.19-16-39.7-49.9-39.7-49.9l-13,8.26s30.07,77.61,49.18,78.41,58-26.76,58.44-29.93S1500.61,273,1500.61,273Z"/><path class="cls-11" d="M1460.24,364.21c18.94-7.62,40.63-23.55,41-25.91.49-3.16-.63-65.31-.63-65.31-8.44,9-15.8,16.93-22.2,23.89C1471.48,322.39,1471.93,350.16,1460.24,364.21Z"/><path class="cls-10" d="M1539.93,245.89s37,18.34,45.12,50.81-15.83,72.58-18.77,94-70.55,25.17-70.55,2.26c0-22-16.94-68.59-16-80.47,2.25-27.87,43.48-62,43.48-62Z"/><path class="cls-9" d="M1529.17,203.83l15.9,48.44s-17,13-46,44.08c1.13-20.72,18.7-43.3,18.7-43.3l-12-45.75Z"/><path class="cls-12" d="M1536.59,226.43l-7.42-22.6-23.46,3.47,12,45.75s-1.18,1.85-2.91,4.75A55.87,55.87,0,0,0,1536.59,226.43Z"/><path class="cls-9" d="M1520.41,214.76c-4.29,15.42-20.9,23.91-32.7,20.7s-14.32-16.88-10-32.3,17.33-25.31,29.13-22.11S1524.7,199.35,1520.41,214.76Z"/><path class="cls-10" d="M1492.77,371.22c5.15,32.23-14,101.2-14,101.2s11.4,2.55,45.58-.71,49.24-37,54.38-37.91,7.79,31.36,10.33,33.91,2.92-40.79-3.71-57.82c-11.76-30.21-9.46-43-5.07-61.32C1588.13,316,1492.77,371.22,1492.77,371.22Z"/><path class="cls-7" d="M1463.48,682c3.08,12.36-3,22.16-11.13,29.3-6.61,5.81-26.94,8.28-26,11.18s25,3.83,33.07,2.62,10.29-5.09,20.35-5.08c6.6,0,7.82-5.3,4.88-11.85s-4-10.17-1.31-16.05S1463.48,682,1463.48,682Z"/><path class="cls-7" d="M1583.45,682c-.49,12.83-2,22.39,1.19,28.33,12.3,10.17,22.53,21.71,18.62,22.51-18.62,3.8-25.72-7.23-36.26-10.36-12.92-3.84,1.23-19.89-3.84-40.48-2.81-11.44,19.52-8.7,19.52-8.7Z"/><path class="cls-11" d="M1588.15,420.4a60.33,60.33,0,0,0-2.77-10.51c-11.76-30.21-9.46-43-5.07-61.32a14.13,14.13,0,0,0,.45-3.82c1-3.26,1.92-6.57,2.73-9.9l-4-35.59-28.78-33.76c-21.57,31.22-7,70.06-10.25,91.48s-39.37,48.74-39.37,48.74l1.18,7.59a19.49,19.49,0,0,0,22,16.22c14.9-2,34.44-6.14,43.13-14.11C1575.78,407.7,1583.23,413.67,1588.15,420.4Z"/><path class="cls-9" d="M1509.55,404.49s-16,4.41-17.86,5.4-3,6.19-3,6.19-9.13,7.83-5.63,10.61,9.74,9.8,18,6.53c5.07-2,9-20.41,12.32-20.56S1509.55,404.49,1509.55,404.49Z"/><path class="cls-10" d="M1554.73,261.38c17.07.48,32.55,30.86,38,57.22s11.07,63.83,11.07,63.83-28.3,22.06-56.25,28.51c-24.39,5.62-36.84,7.82-36.84,7.82l-5-13.75,58.35-33.87s-21.45-39.93-23.59-70.07S1541.75,261,1554.73,261.38Z"/><polygon class="cls-13" points="1395.91 272.85 1353.35 281.28 1347.93 254.58 1390.49 246.14 1395.91 272.85"/><path class="cls-9" d="M1395.32,283.89c.59-11.05-5-26.11-8.13-26.09s1,9.87-.74,16.41C1385.52,277.75,1395.32,283.89,1395.32,283.89Z"/><path class="cls-6" d="M1480.8,185.87c1,30.25,36.72,27.93,46.52,26.07s-11.93,63.82,6.73,67.61c13.71,2.79,10.62-18.4,25.85-17,6.74.63,13.51,10.91,13.51,10.91a20.51,20.51,0,0,0-6.16-10.91c-5.15-4.58-18.63-32.65-22.18-52.74s-27.55-33.08-34.66-33.49-24.5,7.59-24.5,7.59Z"/><path class="cls-6" d="M1533.74,286.4a7.51,7.51,0,0,1-1.48-.15c-6-1.26-8.87-7.46-9.12-19.53-.21-10.34,1.52-23.6,3.36-37.65.74-5.68,1.5-11.55,2.13-17.23a.9.9,0,0,1,1.78.19c-.63,5.7-1.4,11.58-2.14,17.26-3.54,27.18-6.89,52.86,4.36,55.23a5.33,5.33,0,0,0,1,.1c6.46,0,12.29-12.44,15.68-24.56a.9.9,0,0,1,1.1-.62.87.87,0,0,1,.62,1.09C1548.84,268.53,1542.82,286.4,1533.74,286.4Z"/><path class="cls-6" d="M1531.35,293.43a7.13,7.13,0,0,1-5.3-2.32c-12.19-12.74-.13-76.62.39-79.34a.9.9,0,0,1,1.76.33c-.13.66-12.41,65.71-.85,77.79a5.39,5.39,0,0,0,4.87,1.72c6.33-.83,10-9.32,13.21-16.81,3.13-7.26,6.07-14.12,11.32-13.94a.89.89,0,1,1-.07,1.77h-.13c-3.93,0-6.62,6.25-9.47,12.87-3.41,7.92-7.28,16.9-14.62,17.86A8.48,8.48,0,0,1,1531.35,293.43Z"/><path class="cls-9" d="M1528.64,217.75c-2.52,3.21-6.47,4.35-8.82,2.54s-2.21-5.86.31-9.07,6.47-4.35,8.82-2.55S1531.16,214.54,1528.64,217.75Z"/><path class="cls-6" d="M1250.74,329.78c8.73,17.25,1.5,37.12-15.67,44.13s-36.19,3.06-44.92-14.19-2.25-37.94,14.48-46.21S1242,312.53,1250.74,329.78Z"/><path class="cls-6" d="M1203.67,376c-1.93,0-5.73-.68-10.56-4.91-4-3.47-6.81-8.8-8-15-1.52-7.82-.53-16.81,2.94-26.72a.9.9,0,0,1,1.14-.55.88.88,0,0,1,.55,1.13c-3.36,9.61-4.33,18.3-2.87,25.81,1.13,5.82,3.77,10.79,7.44,14,6.12,5.37,10.23,4.39,10.27,4.38a.9.9,0,0,1,1.1.62.88.88,0,0,1-.62,1.08A5.12,5.12,0,0,1,1203.67,376Z"/><path class="cls-14" d="M1230.37,396.91c9.94,2.2,22.48,29.48,28.63,47s16.7,39.5,23.58,46.3,52.07,22.55,52.07,22.55-111.67.21-109.38,0S1230.37,396.91,1230.37,396.91Z"/><path class="cls-15" d="M1289.65,504c-6.11-.86-28.16,1.94-18.77-1.94s8.08-8.85,8.08-8.85-13.32,11-15.73,1.39c-2.07-8.3-2.86-37.59-10.72-66.94-6.49-14.56-15-29.12-22.14-30.7,0,0-.25,10.33-.67,24.83,2.75,32.07,7.4,79.18,8.58,91.06,14.8,0,39.58,0,60.3,0l13.78-.65S1295.77,504.81,1289.65,504Z"/><path class="cls-14" d="M1193.83,390.86s-31.61,17.45-39,21.17,20.65,112.64,26.88,117.31,61.08.8,67.32-5.08-4.79-23.93.61-60.08-16.48-67.34-19.29-67.27-21.16-6.05-21.16-6.05Z"/><path class="cls-15" d="M1181.73,529.34c6.23,4.67,45.48,4.77,62.18-.37,1.89-.58,10.45-4,10.65-7.11-2-.38-10,.57-13.27-.17-11.3-2.56-17.52-16.39-17.52-16.39s-6.22-2.21-20.14-8-8.19-23.46-8.52-31.22-13.76-33.17-39-52.42l-2.31,1C1152,432.34,1176,525,1181.73,529.34Z"/><path class="cls-16" d="M1398.91,443.87h-76.12l-34.66,72.89H1372l31.38-66A4.85,4.85,0,0,0,1398.91,443.87Z"/><path class="cls-8" d="M1292.66,517.79h-45.8a5.08,5.08,0,1,1,0-10.16h42.52l28.75-61.13A5.17,5.17,0,0,1,1325,444a5.05,5.05,0,0,1,2.5,6.75l-30.13,64.07A5.15,5.15,0,0,1,1292.66,517.79Z"/><path class="cls-9" d="M1213.23,502.22c19.87,3.67,24.76,8.18,35.59,9.9,12.28,2,10.82,4.64,1.7,4.64s-32,.35-39.9-1.38S1213.23,502.22,1213.23,502.22Z"/><path class="cls-14" d="M1152.37,414.07c-15.23,48.1-36.82,102.69-33.38,102.69s90.88,3.49,94.32.58,2.46-14.07,2-15.52-49.72-10.09-49.72-10.09,6.49-12.48,8.94-36.87S1155.26,405,1152.37,414.07Z"/><path class="cls-9" d="M1205.41,349.06l-12.27,44.29s20.73,32,26.43,29.13-3.18-26-3.18-29.13,8.88-35.59,8.88-35.59Z"/><path class="cls-12" d="M1216.81,395.61a12,12,0,0,1-.42-2.26c0-3.14,8.88-35.59,8.88-35.59l-19.86-8.7-4.06,14.66A76.07,76.07,0,0,0,1216.81,395.61Z"/><path class="cls-9" d="M1251.31,348.33c2.34,12.84.8,29.9-10.74,34.24s-25.45-4-31.06-18.54-.8-29.9,10.75-34.23S1248.52,333,1251.31,348.33Z"/><path class="cls-9" d="M1212.25,355.56c1.61,4.49.21,9.08-3.14,10.26s-7.38-1.51-9-6-.21-9.09,3.14-10.27S1210.63,351.07,1212.25,355.56Z"/><path class="cls-6" d="M1251.45,332.2c-3.93,30.13-41,26.25-41,26.25s-7.65-9.93-11.09-4.72,4.77-30.56,26-31.68C1232.4,321.68,1251.45,332.2,1251.45,332.2Z"/><ellipse class="cls-6" cx="1193.71" cy="319.45" rx="20.07" ry="18.61"/><polygon class="cls-17" points="1153.72 735.74 1158.32 735.74 1187.95 600.07 1177.86 600.07 1153.72 735.74"/><polygon class="cls-17" points="1296.43 735.74 1291.84 735.74 1257.35 595.27 1267.44 595.27 1296.43 735.74"/><path class="cls-17" d="M1206.09,605.15c-18.38,0-30-3.27-37.46-10.42-9.22-8.87-11.13-22.61-11.15-40.51,0-14.08-.36-23.26-1.14-30.67a5.15,5.15,0,0,1,10.24-1c.81,7.77,1.16,17.25,1.19,31.7,0,18.14,2.35,27.77,8,33.24s16.37,7.92,34.16,7.48a204.4,204.4,0,0,0,38.52-4.7c12.51-2.51,21.54-4.32,32.25.73a5.06,5.06,0,0,1,2.43,6.78,5.17,5.17,0,0,1-6.86,2.39c-7.61-3.58-14.06-2.29-25.77.06a214,214,0,0,1-40.31,4.91C1208.81,605.13,1207.44,605.15,1206.09,605.15Z"/><path class="cls-17" d="M1164.32,517.34l28.15,1.16-7.5,76.77s-21-13.23-20.65-27.47S1164.32,517.34,1164.32,517.34Z"/><path class="cls-9" d="M1303.26,524.5c23.8-3.57,31.89-2.45,46.45,24.33s34,75,45.1,81.23c16.79,9.38,22.36,32.37,29.25,31.34s11.33,2,3.83,8.13-19.62,11.41-23.76,10.31-7.35-18.77-18.17-24.51-7.57-10.46-6.86-15.54-31.58-28.46-55.92-57.54c-14.88-17.77-22.54-29.5-23.67-40.13A27.58,27.58,0,0,1,1303.26,524.5Z"/><path class="cls-12" d="M1362.26,621.6c-5.53-13.85-11.07-36.72-16.28-57.68-7.42-29.81-15.18-36.89-20.1-40.07-6-1.47-13-.8-22.62.65a27.58,27.58,0,0,0-3.75,17.62c1.13,10.63,8.79,22.36,23.67,40.13,12.81,15.31,27.83,29,39.08,39.35Z"/><path class="cls-17" d="M1310.51,548.07s-6.33,47.2-12.23,52c-4.22,3.43-7.21,3.66-10.15-10.42s4.58-66.62,4.58-66.62Z"/><polygon class="cls-9" points="1305.46 573.61 1246.86 583.34 1279.94 536.47 1305.12 531.4 1320.22 534.83 1305.46 573.61"/><path class="cls-17" d="M1379.1,639.79c-1.9,7.56-1.67,13.16,1.63,16s15.77,23.62,15.77,23.62l3.89-.58-9-19Z"/><path class="cls-17" d="M1404.13,679.84c4.14,1.1,16.26-4.15,23.76-10.31s3.06-9.17-3.83-8.13a3,3,0,0,1-1.16-.06c-3.44,7.6-14.76,13.3-18.42,5.27s-19.14-23.79-25.39-27.17a1.38,1.38,0,0,1,0,.35c-.71,5.08-4,9.79,6.86,15.54S1400,678.75,1404.13,679.84Z"/><path class="cls-12" d="M1183.65,526.39c-20.8,36.86-6.59,60.29,18.68,62.68s65.16-2.17,88.42-21.27,42.34-39.27,39.67-42.29S1183.65,526.39,1183.65,526.39Z"/><path class="cls-9" d="M1301.55,553.89c4.26-12.62,9.17-22.3,18.67-22.48,10-.18,16.14,5,16.57,21.1.51,19.23,1.19,82.92.29,111.24-.68,21.43,5.65,28.3,5.11,50.64-.4,16.83,17.76,8.33,10.75,17.06-4.83,6-19.19,4-28,2.93-7.86-1,4.07-24.26-6.81-30.48-9.33-5.34-9.52-14-3.62-20.57s.65-26-3.28-39.57-10-28.29-14-60.42C1296.05,574.18,1299,561.6,1301.55,553.89Z"/><path class="cls-17" d="M1346.72,724.58a41.17,41.17,0,0,1-10,2c-6.55.22-8.52-6.9-9-16.57-.38-8.44-6.59-21.74-13-27.13a4.94,4.94,0,0,1-.36.44c-5.9,6.56-5.71,15.23,3.62,20.57,10.88,6.22-1,29.49,6.81,30.48,8.82,1.11,23.18,3.07,28-2.93C1357.49,725.78,1351.84,725.33,1346.72,724.58Z"/><path class="cls-17" d="M1316,680.93s-9.55,9.85-8.68,14,3.82,14.46,4.31,22.44.93,17.14.93,17.14,3.44,0,3.71-1,2.19-32.45,2.19-32.45Z"/><path class="cls-16" d="M1173.63,523s-12.33,51.71,3.25,66,80.29,1.44,95.53.58c10.31-.58,20.3,11.86,20.3,11.86s-7.2-28.85-2.29-52.15,12.84-24.86,12.84-24.86L1292.71,523Z"/><path class="cls-14" d="M1170.84,509.51c5.27,11-5.68,30.14-1.84,35.64s25.81.77,40.21-10.67,41.64-14,41.64-14Z"/><path class="cls-17" d="M1193.14,603.72c43.57,1.62,89.42.86,89.42-5.56s-2-10.94-35.7-8.35S1190.2,596,1180,593.69,1193.14,603.72,1193.14,603.72Z"/><rect class="cls-17" x="1039.18" y="516.76" width="623.24" height="11.72" rx="5.16"/><path class="cls-9" d="M1739.23,359.74c4.22,14.7-6.09,29.85-17.44,33s-19.46-6.81-23.68-21.51,1.56-29.19,12.92-32.37S1735,345,1739.23,359.74Z"/><path class="cls-9" d="M1675.57,644.57s29.1,44.65,33,46.6,13.75,2.42,10.07,9.7-5.16,35.92-8.6,37.37-32.91,4.86-28.49,0,7.14-2.42,9.37-11.16,5.37-25.24,1.19-28.63-29.72-34-29.72-34Z"/><path class="cls-9" d="M1529.11,663.75s-35.37,57.6-41.92,62.77-28.17,13-10.48,14.24,26.2-5.82,37.33-9.06,24.9-5.18,19.66-13.59-3.07-26.78,8.23-38.43S1529.11,663.75,1529.11,663.75Z"/><path class="cls-18" d="M1709.62,530.18s-87.56-2.26-122.28,25.89c-20.31,30.42-69.43,120.16-73.25,130,2.62,2.59,17.36,7.26,23.91,6.62,19.32-22.77,44.86-42.45,55-60.3,12.52-22,16.38-33,36.69-35s66.16-8.41,79.91-8.41S1709.62,530.18,1709.62,530.18Z"/><polygon class="cls-17" points="1785.98 740.92 1781.39 740.92 1748.48 605.24 1758.57 605.24 1785.98 740.92"/><polygon class="cls-17" points="1648.48 740.92 1653.07 740.92 1690.84 600.45 1680.74 600.45 1648.48 740.92"/><path class="cls-16" d="M1759.51,524.26l-50.91,8.68s-67.65.61-98.58,6.3c-28.13,5.18-32.28,36.76,0,80.25,18.34,24.71,33.84,44.41,65.55,66.63,8.06-5.85,11.15-8.06,13.38-22.13-2.3-3.11-8.24-22.57-10.08-26.38-17.54-36.21-40.95-49.38-41.27-53,3.93-6.31,104.1,32.89,124,9.83C1780.64,572.48,1759.51,524.26,1759.51,524.26Z"/><path class="cls-19" d="M1761.62,410.39a53.77,53.77,0,0,0-39.83,9.79c-11.16,11.24-23.79,29.78-23,60.35,1,38.83-6.08,41.32,1.29,52,30.73,12.54,83.3,66.41,70.92,8.66-9-41.82,19.66-73-3.43-119.39C1765.67,418,1763.32,414.37,1761.62,410.39Z"/><path class="cls-20" d="M1698.76,495.14c-.59,20.25-3.49,26.21-1.27,32.55,12.52,1.27,35.44,6.22,41.17,14.14,6.55,9.06,13.1,10.36,10,3.67s-11.14-16.18,1.31-48.75,18.34-54.58,6.11-77.23Z"/><path class="cls-9" d="M1761.62,410.39c-8.26-19.31-10.28-41-10.28-41l-21.62,6.3s12.28,27.18.49,36.89c-2.5,2.07-5.41,4.57-8.42,7.6A53.77,53.77,0,0,1,1761.62,410.39Z"/><path class="cls-12" d="M1752,374.53l-4.57-4-17.63,5.14,0,.1c.43,1,4.92,11.31,5.51,21.27,5.26-3.15,11-8.28,17.59-17.25C1752.49,377.8,1752.21,376,1752,374.53Z"/><path class="cls-9" d="M1746.42,416.46c-22.26,7.7-19.79,30.87-40.28,65-10.6,17.69-20.45,17.42-20.45,17.42a480.1,480.1,0,0,1-55-3.43c-18.83-2.28-20,3.26-6.93,7.89,26.42,9.33,53.84,19.38,75.94,17s59.92-58.15,61.87-72.66C1764.32,427.61,1757.64,412.59,1746.42,416.46Z"/><path class="cls-17" d="M1735,610.33c-1.38,0-2.79,0-4.24-.06a213.33,213.33,0,0,1-40.32-4.9c-11.71-2.35-18.16-3.65-25.76-.06a5.17,5.17,0,0,1-6.86-2.39,5.05,5.05,0,0,1,2.42-6.78c10.71-5.06,19.75-3.24,32.25-.73a204.4,204.4,0,0,0,38.52,4.7c19.36.47,31.2-2.39,37.24-9,5.41-5.92,7-15.78,5-31.05-.67-5.17-1.35-9.47-1.94-13.26-1.66-10.64-2.76-17.67-1.41-28.51,1.27-10.1,4.66-23.58,12.52-49.73a5.16,5.16,0,0,1,6.4-3.42,5.09,5.09,0,0,1,3.47,6.32c-14.7,48.91-14,53.69-10.81,73.79.6,3.85,1.29,8.22,2,13.52,2.39,18.42,0,30.86-7.58,39.15C1768.06,606.44,1755.35,610.33,1735,610.33Z"/><path class="cls-20" d="M1531.52,712.29c-23.48,11.34-36.11,17.84-43.63,17.22-1.78-.14-3.25-.32-4.49-.51-8.37,4.88-21.73,10.66-6.69,11.76,17.68,1.29,26.2-5.82,37.33-9.06s24.9-5.18,19.66-13.59A17.24,17.24,0,0,1,1531.52,712.29Z"/><path class="cls-20" d="M1711.16,692.11c-.58,18.36-3.13,36.55-14.5,40a19.33,19.33,0,0,1-8.19.72c-1.78,2.19-4,2.21-6.89,5.42-4.42,4.86,25.05,1.46,28.49,0s4.91-30.09,8.6-37.37C1721.7,694.89,1715.61,693.5,1711.16,692.11Z"/><path class="cls-16" d="M1620.75,517.79h-74.56a5.15,5.15,0,0,1-4.67-2.94l-30.13-64.07a5.05,5.05,0,0,1,2.5-6.75,5.17,5.17,0,0,1,6.83,2.47l28.75,61.13h71.28a5.08,5.08,0,1,1,0,10.16Z"/><path class="cls-9" d="M1636.35,496.13c-15.07-.22-30-9.09-37.43-7.8s-31.66,17.91-28.61,18.56,22.28-9.2,22.93-9.35,4.8,6.82,15.07,9.38.07-7.6,31.88,1.89C1660.88,515,1636.35,496.13,1636.35,496.13Z"/><path class="cls-21" d="M1759.4,392.77l2.22,17.62s-19.49,1.15-29.2,6.54-24,21-24,21l11.7-19.9,1.69-12.73Z"/><path class="cls-21" d="M1751.11,414.34c-14.48-2.68-21.18,10.14-30.57,31.07s-25.42,46.34-28.61,49.61-53.71,0-53.71,0-1.53,14.46,0,16.18,10.26,1.51,10.26,1.51,3.5,2.76,6.77,4.94,31,6.28,43.89,5.63,24.67-1.72,26.42-3.67,36.9-55.44,39.09-74.64S1758.5,415.71,1751.11,414.34Z"/><path class="cls-6" d="M1708.4,326.33c-27.38,1.29-23.09,42-23.09,42s7.12,2.17,22-.26c-1.15-4.37-.66-15.53-.66-15.53s1.73,9.06,3.93,14.56c3.15,1.43,6.72.16,12.78-1.29,3.11,12.94,11.9,18.4,17.92,20.27,6.65,2.07,13.69,4.53,21.55.65s3.54-43.58-.63-51.56c-6.27-12-16.68-22.7-34.69-17A134.5,134.5,0,0,0,1708.4,326.33Z"/><path class="cls-6" d="M1756,374.67l11.2,16.16s-12.41,30.63,23.68,44.51c28.27,10.87,24.94,30,12.16,49.28s7.65,36.08,7.65,36.08,3.11-21.34,30.57-25.36c37.45-5.5,48-55.17,20.08-80-23.14-20.56-30.18-3.54-45.85-22s-45.24-6-45.24-6l-10.84-15.62Z"/><path class="cls-6" d="M1874.26,465.27a.91.91,0,0,1-.43-.1.88.88,0,0,1-.36-1.21c9.44-17,1.74-37.68-2.14-43.28-.41-.59-.79-1.19-1.2-1.82-3.81-5.87-8.55-13.18-33.81-17.67-6-1.08-11-4.64-16.15-8.4-10.77-7.82-23-16.67-49.52-4.61a.91.91,0,0,1-1.19-.43.89.89,0,0,1,.44-1.18c27.49-12.5,40.16-3.31,51.33,4.79,5,3.64,9.77,7.09,15.41,8.09,26,4.63,31,12.3,35,18.46.41.62.79,1.21,1.18,1.77,2.34,3.38,5.22,10.36,6.4,18.35,1,6.94,1.13,17.22-4.17,26.78A.88.88,0,0,1,1874.26,465.27Z"/><path class="cls-6" d="M1750.05,391.13a40.85,40.85,0,0,1-5.8-.46c-9.55-1.42-22.35-6.78-23.36-36.92a.89.89,0,0,1,.87-.91.88.88,0,0,1,.92.85c.42,12.48,2.92,21.71,7.45,27.45,3.45,4.36,8,6.83,14.39,7.78,8.91,1.31,14.82-.32,17.56-4.86a.9.9,0,0,1,1.23-.3.87.87,0,0,1,.31,1.21C1761.14,389.07,1756.59,391.13,1750.05,391.13Z"/><path class="cls-11" d="M895.32,412.51c-31.79,18-76,92.61-66.67,104.79s59.45-19.85,59.45-19.85Z"/><path class="cls-6" d="M954.71,325.94c-12.14-.32-7.64-9.24-21.59-5.68-7.34,1.87-1.93,4.86-11.46,3.89s-14.22-1.95-15.43,4.2-1.78,8.09-6.36,9.06-6.66,9.06,0,14.56,3.42,7.77,1.94,12.3,3.55,4.85,6.28,9.06-2.51,5,1.42,8.65S919,385.3,919,385.3L935.5,354Z"/><path class="cls-17" d="M1202,702.14s17.68.48,31.44-4.86,23.08-13.59,20.63-3.88-13.76,26.36-23.58,28-13.27,12.3-18.67,12.3-13.26-12.3-27-18.45C1172.27,709.63,1202,702.14,1202,702.14Z"/><path class="cls-17" d="M1062.63,700.5A67.77,67.77,0,0,0,1083,717.68c13.36,7.28,28.79,10.79,19.23,14.08s-23.55,5.85-37.19,1.94c-9.57-2.75-20.78-3.32-23.75-7.79s3.49-15.67.81-32.43C1040,680.05,1062.63,700.5,1062.63,700.5Z"/><path class="cls-8" d="M979.82,537.62s102.45,37.9,110.7,48.49,115.94,107.11,115.94,114.23-18.34,20.06-18.34,20.06-92.36-56-115.29-84.46S994,593.74,964.21,591.1,979.82,537.62,979.82,537.62Z"/><path class="cls-7" d="M983.75,537.62s70.09-2.59,85.15,0,48.12,2.56,26.5,62.83c-16.94,47.24-22.53,107-22.53,107l-33.69,8.18s1.34-107.54,17.41-136.18a545.8,545.8,0,0,0-63,14c-55.24,15.61-85.53,7.79-85.53,7.79l-8.22-28.48Z"/><polygon class="cls-22" points="925.22 358.83 908.09 408.82 929.73 422.9 941.99 379.7 925.22 358.83"/><path class="cls-23" d="M931.66,416.08,942,379.7l-16.77-20.87L919,377.12C921.12,393.63,926.34,407.29,931.66,416.08Z"/><path class="cls-22" d="M968.9,367.29c.56,15.21-7,28.37-19,29.54s-23-10.16-24.49-25.3,7-28.36,19-29.53S968,343.3,968.9,367.29Z"/><path class="cls-10" d="M899.87,407.36c-52.57,35.08-19.88,91.76-8.33,133.18,9.83,35.28,9.51,56.6,11,56.6s37.63-5.34,58.26-23.78a314.1,314.1,0,0,0,34.59-36.31s-26.44-4.65-35.08-38.44c-4.38-17.15-2.39-26.46-12.39-53.64S899.87,407.36,899.87,407.36Z"/><path class="cls-10" d="M899.87,407.36l5.63-13.61s17.85,11.65,25,17.15S942,417.7,942,417.7s2.57,19.51.9,17.74C921.82,413.13,899.87,407.36,899.87,407.36Z"/><polygon class="cls-17" points="876.57 740.92 881.16 740.92 914.07 605.24 903.98 605.24 876.57 740.92"/><polygon class="cls-17" points="1014.07 740.92 1009.48 740.92 971.71 600.45 981.8 600.45 1014.07 740.92"/><path class="cls-17" d="M927.7,610.32c-18.39,0-30-3.26-37.47-10.41C881,591,879.11,577.3,879.08,559.4,879,521.77,876.92,514,866.19,491a5.07,5.07,0,0,1,2.52-6.74,5.18,5.18,0,0,1,6.83,2.49c11.33,24.29,13.77,33.22,13.83,72.63,0,18.14,2.36,27.77,8,33.24,5.83,5.61,16.37,7.92,34.17,7.48a204.62,204.62,0,0,0,38.52-4.7c12.5-2.51,21.54-4.33,32.25.73a5.05,5.05,0,0,1,2.42,6.78,5.17,5.17,0,0,1-6.86,2.39c-7.6-3.59-14-2.29-25.76.06a213.45,213.45,0,0,1-40.32,4.9C930.42,610.31,929,610.32,927.7,610.32Z"/><path class="cls-8" d="M1154.84,517.21h-74.56a5.09,5.09,0,1,1,0-10.17h71.28l28.75-61.13a5.18,5.18,0,0,1,6.83-2.47,5.06,5.06,0,0,1,2.5,6.76l-30.13,64.07A5.17,5.17,0,0,1,1154.84,517.21Z"/><path class="cls-11" d="M901.81,458.43s13.1,39.48,29.32,55.82,48.84,21.83,59,21.19c-8.14-3.23-23.65-12.44-29.89-36.83-4.38-17.15-2.39-26.46-12.39-53.64-7.42-20.18-30.29-31.12-41.58-35.42,14.09,10,31.72,26.48,37.14,39C949.47,462.48,901.81,458.43,901.81,458.43Z"/><path class="cls-22" d="M1082.64,493.08s22.59-10.19,25-9.22,27.51,15.91,27.51,18.39-22.11-9.23-22.11-9.23,2.46,6.47,1,9.58-18.47,3.1-33.8,2.13S1082.64,493.08,1082.64,493.08Z"/><path class="cls-10" d="M902.54,427.93c-20.84,42.18,50.62,84.95,93,88.75s92.76-9.91,92.76-9.91l-5.67-13.69s-84.94-10.95-87.09-12.49S910.17,412.48,902.54,427.93Z"/><path class="cls-22" d="M929.62,360.25c1.93,5,.51,10.21-3.16,11.59s-8.23-1.57-10.16-6.58-.51-10.21,3.17-11.59S927.69,355.24,929.62,360.25Z"/><path class="cls-6" d="M968.93,328.14c5.76-2.38,12.24-4.92,10.23,4.74-.87,4.21,0,3,1.53,6.91s-3.85,6.93-5.6,9.09,2.54,4.5-1,7.08-8.1-.95-11.35,0c-9.72,2.87-8.52-4.68-14-6.25s-8.13-1.33-9.17,2.12,3.82,14.81-.33,13.73-5.08,8.09-6.19,13.27-4-3.57-3.78-9.49c.28-9.09-2-12.9-5.39-15.45s-4.83-25.65,11.55-26.51S952,325,959,323.5,966.31,329.22,968.93,328.14Z"/><path class="cls-24" d="M1887.05,592c10.44,9.42,5.9,18.84-1.82,36.33s-9.08,82.08-9.08,82.08l6.36-.9s-.91-66.38,7.72-84.32,12.25-26.91,20-21.08S1887.05,592,1887.05,592Z"/><path class="cls-25" d="M1881.31,579.83c1.27-5.58,8.8-11.62,18.87-16.74-1.5,8.23-6.3,21.69-1.33,24.45,6.7,3.73.65-15.07,3.24-25.4A125.37,125.37,0,0,1,1933.4,552l-.05.11c-5.9,14.8-13.61,20.63-10.44,22.88,2.39,1.68,10.18-15.41,20.46-24.18,7.72-.41,14.25.63,18.12,3.65,6,4.67,10,8.81,4,23a27.08,27.08,0,0,1-13,4.67c-13.62,1.35-20,1.8-10.44,6.28,4.67,2.2,12.49-.12,18.84-1.54-2.06,3.75-4.59,8-7.66,12.82a47.65,47.65,0,0,1-6.38,8c-4.39.83-8.22.84-10.25,0-6.35-2.69-22.7-11.22-26.78-7.63s30.27,5.74,27.89,14.66c-16.61,9.46-35.61,5-39-3.72C1894.15,599.38,1877.49,596.64,1881.31,579.83Z"/><path class="cls-24" d="M1915.65,643.61c-18.16-13.46-36.77-.9-46.31,13.46s-2.72,46.64-2.72,46.64,3.63,0,3.63-1.34-10-38.13,13.62-54.72c14.77-10.38,25.42-5.39,26.79-.45s-5.91,13.9-5.91,13.9Z"/><path class="cls-25" d="M1873.88,616c18.16,0,24.06,27.81,19.07,44s-11.8,46.19-11.8,46.19l-4.54-4.48s17.25-42.16,13.16-61-14.07-22-15.89-22S1873.88,616,1873.88,616Z"/><path class="cls-24" d="M1889.11,660a13.24,13.24,0,0,1,4.78-4,33.85,33.85,0,0,1-.94,3.85c-2.28,7.35-4.93,17.6-7.14,26.57l-1-5.65c-.11-.65-.2-1.35-.26-2.09A174.76,174.76,0,0,0,1889.11,660Z"/><path class="cls-25" d="M1894.08,660.17c34.5-14.36,16.32-34,46.74-21,2.14.92,4.75,3.23,7.37,6.42a22.92,22.92,0,0,1-9.64.76c-9.08-1.34-5.9,5.83,9.08,7.63a33.56,33.56,0,0,1,7,1.46c7.14,13.54,10.35,31.36-4.75,37.56a34.56,34.56,0,0,1-10.75,2.18c-4.66-3.66,1.14-24.84-6.05-21.92-6.9,2.81,2.16,18.16.92,22a100.66,100.66,0,0,1-21.55-3c-2.85-1.58-5-3.7-5.7-6.48-2.27-9.42,12.71-15.25,13.17-23.32.41-7.42-5.49,16.33-21.15,19.82C1884.64,675.74,1878,666.88,1894.08,660.17Z"/><path class="cls-25" d="M1869.49,634.79c3.64-7.63-5.9-9.42-5.44-3.59.4,5.17.44,17.73-4.92,21.15a84.92,84.92,0,0,1-31.35-10.29,3.8,3.8,0,0,1,.4-2.34c4.09-8.07,30.42-14.8,22.25-17.49-6.51-2.14-17.92,10.51-27.1,16.88-5.52-4.14-9.22-9.07-9.22-14.57,0-7.46,9.16-15.89,21-19.92,5.34.53,10.29,3.41,18,7.74,11.43,6.4,8.79-3.94-2-10.09a32.7,32.7,0,0,1,25.5,13.83s-.65,4,3.66,10.24c11.75,17-1.82,26.89-18,26.24C1863.18,648.11,1867,640.06,1869.49,634.79Z"/><path class="cls-24" d="M1914.56,642.85c8.87,6.78,18.74,14.7,30.84,20.08s9.69,22.93,9.69,22.93,1.82-15.15-8.27-20.33-16.75-11.37-24.42-12.56a111.39,111.39,0,0,1-11.9-2.4s2.42-4.78,1-6.57S1914.56,642.85,1914.56,642.85Z"/><path class="cls-24" d="M1958.32,563.26c-32.49,8.57-56.3,29.1-60.74,34.09s-4.44,6.38-4.44,6.38l3.43,6.38,1.62-.8s-2.63-5.38,4.23-12.36c11.84-12,26.24-21.53,36.12-25.72S1958.32,563.26,1958.32,563.26Z"/><path class="cls-16" d="M1872,697h5.73A19.32,19.32,0,0,1,1897,716.27v24.64a0,0,0,0,1,0,0h-44.37a0,0,0,0,1,0,0V716.27A19.32,19.32,0,0,1,1872,697Z" transform="translate(3749.7 1437.87) rotate(-180)"/><rect class="cls-2" x="1852.66" y="701.99" width="44.37" height="3.09"/><rect class="cls-2" x="1852.66" y="707.62" width="44.37" height="1.82"/><path class="cls-13" d="M1342.24,108.62c0-33.23-27-60.21-60.57-60.63-33.68-.43-61.63,26.37-62.16,59.64a60,60,0,0,0,16.23,42.08,27.32,27.32,0,0,1,7.38,18.64v27.19c0,17.58,14.56,32,32.36,32h10.79c17.79,0,32.36-14.39,32.36-32V168.36a27.63,27.63,0,0,1,7.48-18.77A60,60,0,0,0,1342.24,108.62Z"/><path class="cls-26" d="M1333.67,112.69c0-28.59-23.27-51.8-52.11-52.17s-53,22.69-53.48,51.32a51.6,51.6,0,0,0,14,36.2,23.48,23.48,0,0,1,6.34,16v23.38A27.76,27.76,0,0,0,1276.23,215h9.28a27.76,27.76,0,0,0,27.84-27.51V164.08a23.78,23.78,0,0,1,6.44-16.15A51.62,51.62,0,0,0,1333.67,112.69Z"/><path class="cls-27" d="M1289.94,179.26h-20.21a1.84,1.84,0,0,1-1.83-1.65c0-.39-3.81-38.94-21.25-49.73a1.82,1.82,0,0,1-.59-2.51,1.87,1.87,0,0,1,2.54-.57c17,10.53,21.85,43,22.78,50.83H1288a58.72,58.72,0,0,1,1.65-14.56c2.09-8.95,7.22-22.46,19.77-36a1.85,1.85,0,0,1,2.6-.11,1.82,1.82,0,0,1,.11,2.57c-22.94,24.67-20.39,49.42-20.36,49.67a1.8,1.8,0,0,1-.46,1.41A1.83,1.83,0,0,1,1289.94,179.26Z"/><path class="cls-27" d="M1305.07,130.36c-6.82,0-16.12-4.79-25.92-10-12.66,6.66-24.47,12.63-31.09,8.67-3.11-1.87-4.6-5.51-4.54-11.15,0-5.3,1.58-8.88,4.57-10.62,6.63-3.88,18.47,2.3,31.06,9,12.85-6.76,24.94-13.06,31.54-9.09,3,1.78,4.43,5.41,4.36,10.77-.07,5.59-1.69,9.35-4.83,11.17A10,10,0,0,1,1305.07,130.36Zm-22-12c10.09,5.3,20.65,10.37,25.31,7.66,2-1.13,3-3.85,3-8.08,0-4-.82-6.56-2.6-7.63C1304.28,107.56,1293.34,112.94,1283.05,118.32Zm-30-8.63a6.08,6.08,0,0,0-3.1.71c-1.8,1.06-2.73,3.59-2.77,7.54,0,4.18.9,6.88,2.77,8,4.54,2.72,15.13-2.33,25.29-7.63C1267,114,1258.41,109.69,1253.06,109.69Z"/><rect class="cls-27" x="1268.08" y="220.16" width="26.83" height="15.97" rx="7.04"/><path class="cls-27" d="M1241.33,176v19.22c0,18.42,15.25,33.49,33.89,33.49h11.3c18.64,0,33.89-15.07,33.89-33.49V176Z"/><rect class="cls-28" x="1238.25" y="172.84" width="86.23" height="9.2" rx="4.05"/><path class="cls-28" d="M1320.35,188.93l-76.83,9.38a4.41,4.41,0,0,1-4.91-3.79l-.06-.48a4.38,4.38,0,0,1,3.83-4.86l76.83-9.37a4.41,4.41,0,0,1,4.92,3.79l.06.48A4.37,4.37,0,0,1,1320.35,188.93Z"/><path class="cls-28" d="M1320.35,202.22l-76.83,9.37a4.4,4.4,0,0,1-4.91-3.79l-.06-.48a4.37,4.37,0,0,1,3.83-4.85l76.83-9.38a4.42,4.42,0,0,1,4.92,3.79l.06.48A4.38,4.38,0,0,1,1320.35,202.22Z"/><path class="cls-28" d="M1315.61,216.43l-64,7.81a4,4,0,0,1-4.51-3.47l-.15-1.2a4,4,0,0,1,3.52-4.45l64-7.81a4,4,0,0,1,4.51,3.47l.15,1.2A4,4,0,0,1,1315.61,216.43Z"/><path class="cls-28" d="M1869.62,233.67h41.24c0,22.35-18.61,40.75-41.24,40.75s-41.24-18.4-41.24-40.75,18.62-40.75,41.24-40.75Z"/><path class="cls-29" d="M1917.77,228c0-22.5-18.46-40.74-41.24-40.74V228Z"/><path class="cls-29" d="M1835.29,228c0,22.51,18.46,40.75,41.24,40.75C1853.9,268.71,1835.29,250.32,1835.29,228Z"/><path class="cls-29" d="M1876.53,187.22c-22.78,0-41.24,18.24-41.24,40.74C1835.29,205.61,1853.9,187.22,1876.53,187.22Z"/><path class="cls-29" d="M1876.53,268.71c22.78,0,41.24-18.24,41.24-40.75C1917.77,250.32,1899.15,268.71,1876.53,268.71Z"/><rect class="cls-28" x="1062.44" y="206.72" width="9.01" height="25.75"/><rect class="cls-28" x="1177.89" y="215.09" width="9.01" height="17.37"/><rect class="cls-28" x="1100.61" y="172.22" width="9.01" height="60.25"/><rect class="cls-28" x="1119.7" y="205.39" width="9.01" height="27.08"/><rect class="cls-28" x="1138.79" y="197.72" width="9.01" height="34.75"/><rect class="cls-28" x="1081.52" y="189.71" width="9.01" height="42.75"/><text class="cls-30" transform="translate(1157.94 189.48) scale(1.01 1)">L<tspan x="0" y="16.34">o</tspan><tspan x="0" y="32.67">r</tspan></text><g class="cls-31"><path class="cls-10" d="M822.36,157.8l-47.24-28.54-8.55,54.05A55.68,55.68,0,0,0,822.36,157.8Z"/><path class="cls-25" d="M822.41,157.74l.29-.48a54.15,54.15,0,0,0,1.22-53.86c-16.72,8.66-6.76,3.4-48.8,25.86C822.44,157.85,815.09,153.44,822.41,157.74Z"/><path class="cls-28" d="M723.19,110.36l51.93,18.9,48.71-26C801.05,61.6,739.71,66.6,723.19,110.36Z"/><path class="cls-29" d="M766.57,183.31l8.55-54.05-51.93-18.9C710.84,143.06,732.76,178.05,766.57,183.31Z"/><path class="cls-2" d="M719.79,119.3a5.46,5.46,0,0,1,2.63.67,50.9,50.9,0,0,1,1.88-7.28L752.5,123v0a4.87,4.87,0,0,1,1.22-3.39l-2.82-1-25.32-9.22a53.66,53.66,0,0,1,8.16-13.55,5.47,5.47,0,0,1-2.81-2.33A56.87,56.87,0,0,0,722.14,108h0l-.64,1.69-.65,1.71h0a55.88,55.88,0,0,0-2.06,8A4.79,4.79,0,0,1,719.79,119.3Z"/><path class="cls-3" d="M826.29,104h0l-.87-1.6-.06-.09-.71-1.32,0,0A56.22,56.22,0,0,0,801.83,79.1,58.68,58.68,0,0,0,738.37,86a5.58,5.58,0,0,1,2.34,2.81,54,54,0,0,1,30.93-12.2,52.87,52.87,0,0,1,49.68,26l-14.39,7.68-14.08,7.52-17.23,9.21-.44.24-1.45-.88-.08.5-10.13-3.69a5,5,0,0,1-1.36,3.38l10.91,4-8,50.75a53.54,53.54,0,0,1-36.18-25.47,52,52,0,0,1-7.29-25.86,5.25,5.25,0,0,1-1.79.33,5.38,5.38,0,0,1-1.89-.35,55.57,55.57,0,0,0,7.8,27.71,57.22,57.22,0,0,0,38.78,27.23v0l1.81.28,1.82.29v0a57.58,57.58,0,0,0,31.11-4.85A56.91,56.91,0,0,0,823,160.19l0,0,.36-.58s.59-.95.59-.95.19-.33.26-.43l0-.06,0-.05.59-.94,0,0A56.14,56.14,0,0,0,826.29,104Zm-57.61,77.79,7.83-49.54,20.38,12.31,15.88,9.59,7,4.26A53.59,53.59,0,0,1,768.68,181.77Zm53.08-26.53-.35-.2c-1.93-1.13-2.77-1.62-6.62-3.94l-36-21.74,29.88-16c4.38-2.34,6.18-3.27,10.64-5.57l3.82-2A52.57,52.57,0,0,1,821.76,155.24Z"/></g><rect class="cls-28" x="922.71" y="68.57" width="158.34" height="70.7" rx="8.17"/><rect class="cls-2" x="927.04" y="87.14" width="149.68" height="48.81" rx="6.6"/><rect class="cls-2" x="929.23" y="73.77" width="6.2" height="5.52" rx="2.43"/><rect class="cls-2" x="940.51" y="73.77" width="6.2" height="5.52" rx="2.43"/><rect class="cls-2" x="951.79" y="73.77" width="6.2" height="5.52" rx="2.43"/><path class="cls-28" d="M1070.63,97.84H991.45a2.34,2.34,0,1,1,0-4.68h79.18a2.34,2.34,0,1,1,0,4.68Z"/><path class="cls-28" d="M1011.08,133.94H931.9a2.34,2.34,0,1,1,0-4.68h79.18a2.34,2.34,0,1,1,0,4.68Z"/><rect class="cls-28" x="1016.66" y="129.26" width="9.81" height="4.68" rx="2.06"/><rect class="cls-28" x="1029.01" y="129.26" width="9.81" height="4.68" rx="2.06"/><path class="cls-28" d="M1071.39,108H940.28a1.59,1.59,0,1,1,0-3.17h131.11a1.59,1.59,0,1,1,0,3.17Z"/><path class="cls-28" d="M1071.39,114.89H940.28a1.59,1.59,0,1,1,0-3.18h131.11a1.59,1.59,0,1,1,0,3.18Z"/><path class="cls-32" d="M1466.94,94.25h-67.61V55.31h50.84l16.77,16.56Z"/><polygon class="cls-29" points="1448.93 55.31 1448.93 76.09 1466.94 76.09 1466.94 72.1 1450.06 55.42 1448.93 55.31"/><polygon class="cls-32" points="1450.17 55.31 1450.17 72.1 1466.94 72.1 1450.17 55.31"/><path class="cls-2" d="M1437.08,69.92H1407a1.18,1.18,0,1,1,0-2.36h30.13a1.18,1.18,0,1,1,0,2.36Z"/><path class="cls-2" d="M1437.08,76H1407a1.18,1.18,0,1,1,0-2.36h30.13a1.18,1.18,0,1,1,0,2.36Z"/><path class="cls-2" d="M1437.08,82.31H1407a1.18,1.18,0,1,1,0-2.36h30.13a1.18,1.18,0,1,1,0,2.36Z"/><ellipse class="cls-8" cx="1431.11" cy="58.3" rx="2.02" ry="2"/><text class="cls-30" transform="translate(1130.63 75.16) scale(1.01 1)"><tspan class="cls-33">L</tspan><tspan x="6.24" y="0">o</tspan><tspan class="cls-34" x="13.71" y="0">r</tspan><tspan x="18.03" y="0">em </tspan><tspan x="-3.16" y="16.34">ipsum </tspan></text><path class="cls-28" d="M1167.28,78.94l-22.37-4.27a1.09,1.09,0,0,1-.88-1.27,1.12,1.12,0,0,1,1.29-.87l22.37,4.27a1.09,1.09,0,1,1-.41,2.14Z"/><path class="cls-28" d="M1166.2,84.47l-22.37-4.27a1.09,1.09,0,1,1,.41-2.14l22.37,4.27a1.1,1.1,0,0,1,.88,1.28A1.12,1.12,0,0,1,1166.2,84.47Z"/><path class="cls-28" d="M1165.09,90.15l-22.37-4.27a1.09,1.09,0,1,1,.41-2.14L1165.5,88a1.09,1.09,0,0,1,.88,1.27A1.12,1.12,0,0,1,1165.09,90.15Z"/><path class="cls-8" d="M1152.13,55.9a1.83,1.83,0,0,1-2.15,1.44,1.8,1.8,0,0,1-1.45-2.13,1.83,1.83,0,0,1,3.6.69Z"/><path class="cls-28" d="M1498.15,148.72l-65.3-6.79,4.31-40.44,51.77,5.39c4.73,5.76,7.38,9,12.1,14.77Z"/><polygon class="cls-2" points="1488.01 109.76 1439.4 104.7 1435.76 138.82 1496.19 145.11 1498.32 125.13 1486.5 123.9 1488.01 109.76"/><path class="cls-28" d="M1481.42,122.16l-31.49-3.28a1.3,1.3,0,1,1,.28-2.59l31.48,3.28a1.3,1.3,0,0,1,1.18,1.43A1.33,1.33,0,0,1,1481.42,122.16Z"/><path class="cls-28" d="M1480.69,129l-31.49-3.27a1.31,1.31,0,1,1,.28-2.6l31.48,3.28a1.3,1.3,0,1,1-.27,2.59Z"/><path class="cls-28" d="M1479.92,136.17l-31.48-3.28a1.3,1.3,0,1,1,.27-2.59l31.49,3.28a1.3,1.3,0,0,1,1.17,1.43A1.32,1.32,0,0,1,1479.92,136.17Z"/><ellipse class="cls-8" cx="1461.59" cy="110.83" rx="2.02" ry="2"/><path class="cls-25" d="M1822.58,79.28A22.54,22.54,0,1,1,1800,57,22.41,22.41,0,0,1,1822.58,79.28Z"/><path class="cls-2" d="M1797.8,86.91h0a1.09,1.09,0,0,1-.78-.37l-6.13-6.88a1.07,1.07,0,0,1,.1-1.53,1.11,1.11,0,0,1,1.56.09l5.35,6,12.25-11.85a1.11,1.11,0,0,1,1.56,0,1.08,1.08,0,0,1,0,1.54L1798.57,86.6A1.09,1.09,0,0,1,1797.8,86.91Z"/><rect class="cls-28" x="778.23" y="228.19" width="142.09" height="57.85" rx="16.48" transform="translate(1698.55 514.23) rotate(180)"/><path class="cls-28" d="M903.16,277.31v31.92l-37.23-36.78S902.4,277.31,903.16,277.31Z"/><rect class="cls-2" x="785.58" y="233.93" width="127.39" height="46.38" rx="13.97" transform="translate(1698.55 514.23) rotate(180)"/><path class="cls-28" d="M843.6,245.4h57.54a2.5,2.5,0,1,0,0-5H843.6a2.5,2.5,0,1,0,0,5Z"/><rect class="cls-28" x="794.13" y="252.13" width="109.53" height="2.8" rx="1.23" transform="translate(1697.8 507.06) rotate(-180)"/><rect class="cls-28" x="794.13" y="257.56" width="109.53" height="2.8" rx="1.23" transform="translate(1697.8 517.92) rotate(180)"/><rect class="cls-28" x="1742.97" y="234.93" width="12.02" height="10.69" rx="4.71" transform="translate(3497.96 480.56) rotate(180)"/><rect class="cls-28" x="1721.11" y="234.93" width="12.02" height="10.69" rx="4.71" transform="translate(3454.25 480.56) rotate(-180)"/><rect class="cls-28" x="1699.26" y="234.93" width="12.02" height="10.69" rx="4.71" transform="translate(3410.54 480.56) rotate(180)"/><text class="cls-35" transform="translate(1273.02 89.72) scale(1.01 1)"><tspan class="cls-36">L</tspan><tspan x="5.5" y="0">o</tspan><tspan class="cls-37" x="12.08" y="0">r</tspan><tspan x="15.89" y="0">em ipsum</tspan></text><path class="cls-38" d="M136.45,337c0-21.62,14.47-34.16,31.14-34.16a28,28,0,0,1,19.84,8.46l-7.87,9.45c-3.31-3-6.87-5.19-11.64-5.19-9,0-16.19,7.88-16.19,20.95,0,13.4,6.31,21.18,16,21.18,5.42,0,9.68-2.63,12.91-6.09l7.86,9.25a27.29,27.29,0,0,1-21.3,9.57C150.42,370.44,136.45,359,136.45,337Z"/><path class="cls-38" d="M194.32,344.45c0-16.5,11.75-26,24.46-26s24.46,9.53,24.46,26-11.76,26-24.46,26S194.32,360.91,194.32,344.45Zm33.67,0c0-8.59-3.06-14.16-9.21-14.16s-9.21,5.57-9.21,14.16,3.05,14.12,9.21,14.12S228,353,228,344.45Z"/><path class="cls-38" d="M253.41,319.62h12.14l1.07,6.28H267c4.23-4,9.29-7.48,16.13-7.48,10.92,0,15.58,7.61,15.58,20v30.8H283.82V340.32c0-7.14-1.94-9.38-6.24-9.38-3.73,0-6,1.72-9.29,4.83v33.47H253.41Z"/><path class="cls-38" d="M306.87,363.51l6.69-9.16c4.55,3.4,8.75,5.21,12.95,5.21,4.43,0,6.35-1.67,6.35-4.27,0-3.27-5-4.75-10.15-6.75-6.15-2.35-13.28-6.39-13.28-14.59,0-9.23,7.59-15.53,19.18-15.53a28.76,28.76,0,0,1,17.7,6.29l-6.66,8.82c-3.57-2.56-7.1-4.23-10.58-4.23-3.84,0-5.73,1.48-5.73,4,0,3.16,4.7,4.37,9.9,6.24,6.36,2.33,13.53,5.86,13.53,14.94s-7.17,16-20.63,16A32.81,32.81,0,0,1,306.87,363.51Z"/><path class="cls-38" d="M355.67,350.42v-30.8h14.88v28.92c0,7.14,1.94,9.37,6.23,9.37,3.74,0,6-1.55,8.93-5.45V319.62h14.88v49.62H388.45l-1.07-6.89H387c-4.19,4.95-8.92,8.09-15.77,8.09C360.32,370.44,355.67,362.82,355.67,350.42Z"/><path class="cls-38" d="M413.63,353.82V299.18h14.88v55.24c0,3.15,1.48,4.15,2.69,4.15a6.6,6.6,0,0,0,1.83-.2l1.77,10.84a19.29,19.29,0,0,1-7.47,1.23C417.12,370.44,413.63,363.86,413.63,353.82Z"/><path class="cls-38" d="M444.6,351.2v-20h-6.86v-11l7.69-.57,1.74-13.18h12.3v13.18h12v11.54h-12V351c0,5.63,2.59,7.88,6.5,7.88a15.1,15.1,0,0,0,4.78-.94l2.34,10.68a35.85,35.85,0,0,1-11.15,1.8C449.53,370.44,444.6,362.69,444.6,351.2Z"/><path class="cls-38" d="M480.19,304.68c0-4.51,3.62-7.69,8.62-7.69s8.61,3.18,8.61,7.69-3.62,7.68-8.61,7.68S480.19,309.15,480.19,304.68Zm1.16,14.94h14.88v49.62H481.35Z"/><path class="cls-38" d="M509.28,319.62h12.14l1.07,6.28h.37c4.23-4,9.29-7.48,16.14-7.48,10.92,0,15.57,7.61,15.57,20v30.8H539.69V340.32c0-7.14-1.94-9.38-6.23-9.38-3.74,0-6,1.72-9.3,4.83v33.47H509.28Z"/><path class="cls-38" d="M564.09,377.75c0-4.11,2.51-7.44,7.13-10v-.4a9.6,9.6,0,0,1-4.59-8.43c0-3.57,2.41-7.07,5.6-9.29v-.4a15.8,15.8,0,0,1-6.74-12.87c0-11.91,10-18,20.77-18a24.84,24.84,0,0,1,7.77,1.2h18.36v10.71h-8.07a12.89,12.89,0,0,1,1.7,6.54c0,11.41-8.78,16.67-19.76,16.67a21.79,21.79,0,0,1-6.14-1,4.23,4.23,0,0,0-1.74,3.69c0,2.45,2,3.63,7.51,3.63H594c12.31,0,19.17,3.73,19.17,12.62,0,10.31-10.87,17.81-28.1,17.81C573.42,390.33,564.09,386.58,564.09,377.75ZM599,375c0-3.12-2.72-3.84-7.66-3.84h-5.21a26.82,26.82,0,0,1-7-.64c-1.85,1.56-2.71,3.08-2.71,4.87,0,3.77,4.41,5.69,11.13,5.69S599,378.46,599,375Zm-5.85-38.64c0-5.29-2.9-8.07-6.85-8.07s-6.86,2.76-6.86,8.07,2.94,8.26,6.86,8.26S593.11,341.81,593.11,336.38Z"/><path class="cls-38" d="M200.74,481l8.57-10.11c4.69,4,10.77,6.81,16.2,6.81,6.22,0,9.27-2.42,9.27-6.29,0-4.1-3.75-5.42-9.51-7.76l-8.57-3.61c-6.84-2.75-13.32-8.3-13.32-17.77,0-10.8,9.77-19.42,23.5-19.42a30.7,30.7,0,0,1,21.22,8.54l-7.53,9.29c-4.34-3.3-8.48-5.11-13.69-5.11s-8.42,2.12-8.42,5.84c0,4,4.32,5.46,10.08,7.72l8.4,3.36C245,455.72,250,461,250,470.23c0,10.83-9.13,20.21-24.85,20.21A36.55,36.55,0,0,1,200.74,481Z"/><path class="cls-38" d="M257.12,464.45c0-16.1,11.63-26,23.69-26,14.3,0,21.39,10.27,21.39,23.82a33.27,33.27,0,0,1-.62,6.49h-30c1.33,7.2,6.32,10.5,13,10.5A21.17,21.17,0,0,0,295.42,476l4.92,8.86a33,33,0,0,1-17.82,5.59C268.21,490.44,257.12,480.87,257.12,464.45ZM289.49,459c0-5.46-2.41-9.38-8.35-9.38-4.7,0-8.76,3.11-9.77,9.38Z"/><path class="cls-38" d="M312.47,439.62h12.14l1.07,8.67h.37c3.66-6.62,9.15-9.87,14.27-9.87a14.21,14.21,0,0,1,6,1l-2.48,12.69a20.51,20.51,0,0,0-5.42-.8c-3.79,0-8.38,2.41-11.06,9.17v28.76H312.47Z"/><path class="cls-38" d="M348.13,439.62h14.95L369.61,463c1.29,4.93,2.61,10.06,3.9,15.25h.4c1.29-5.19,2.61-10.32,3.89-15.25l6.54-23.42h14.25L382.2,489.24H365.05Z"/><path class="cls-38" d="M405.24,424.68c0-4.51,3.62-7.68,8.62-7.68s8.61,3.17,8.61,7.68-3.62,7.69-8.61,7.69S405.24,429.15,405.24,424.68Zm1.16,14.94h14.88v49.62H406.4Z"/><path class="cls-38" d="M431.42,464.45c0-16.5,12.29-26,26.16-26a22,22,0,0,1,14.67,5.34l-7,9.45c-2.4-2-4.42-2.92-6.81-2.92-7.15,0-11.75,5.57-11.75,14.16s4.79,14.12,11.25,14.12c3.3,0,6.45-1.61,9.06-3.65l5.83,9.61a25.29,25.29,0,0,1-16.56,5.91C442.23,490.44,431.42,480.91,431.42,464.45Z"/><path class="cls-38" d="M475.85,464.45c0-16.1,11.62-26,23.69-26,14.3,0,21.38,10.27,21.38,23.82a32.5,32.5,0,0,1-.62,6.49h-30c1.34,7.2,6.33,10.5,13,10.5A21.23,21.23,0,0,0,514.15,476l4.91,8.86a32.93,32.93,0,0,1-17.81,5.59C486.94,490.44,475.85,480.87,475.85,464.45ZM508.21,459c0-5.46-2.4-9.38-8.34-9.38-4.7,0-8.76,3.11-9.77,9.38Z"/><path class="cls-38" d="M526.76,483.51l6.69-9.16c4.55,3.4,8.75,5.21,12.95,5.21,4.43,0,6.35-1.67,6.35-4.27,0-3.26-5-4.75-10.15-6.75-6.15-2.35-13.28-6.39-13.28-14.59,0-9.23,7.59-15.53,19.18-15.53a28.76,28.76,0,0,1,17.7,6.29l-6.66,8.82C556,451,552.44,449.3,549,449.3c-3.85,0-5.74,1.48-5.74,4,0,3.16,4.7,4.37,9.91,6.24,6.35,2.33,13.52,5.86,13.52,14.93s-7.17,16-20.62,16A32.84,32.84,0,0,1,526.76,483.51Z"/></svg>