<svg xmlns="http://www.w3.org/2000/svg" xmlns:xlink="http://www.w3.org/1999/xlink" viewBox="0 0 2000 300"><defs><style>.cls-1{fill:none;}.cls-2{isolation:isolate;}.cls-3{fill:url(#Áåçûìÿííûé_ãðàäèåíò_40);}.cls-4{fill:#fff;}.cls-228,.cls-240,.cls-5{opacity:0.5;}.cls-5{mix-blend-mode:multiply;}.cls-6{clip-path:url(#clip-path);}.cls-7{fill:#feffff;}.cls-8{fill:#fdfeff;}.cls-9{fill:#fcfeff;}.cls-10{fill:#fcfdff;}.cls-11{fill:#fbfdff;}.cls-12{fill:#fbfdfd;}.cls-13{fill:#fbfdfe;}.cls-14{fill:#fafcfe;}.cls-15{fill:#f9fcfe;}.cls-16{fill:#f9fbfe;}.cls-17{fill:#f8fbfc;}.cls-18{fill:#f7fbfd;}.cls-19{fill:#f7fafc;}.cls-20{fill:#f6fafd;}.cls-21{fill:#f5f9fc;}.cls-22{fill:#f4f8fb;}.cls-23{fill:#f2f7fb;}.cls-24{fill:#f0f7fc;}.cls-25{fill:#f0f6fa;}.cls-26{fill:#eff5fa;}.cls-27{fill:#eef5fa;}.cls-28{fill:#edf4f9;}.cls-29{fill:#ecf3f9;}.cls-30{fill:#eaf3f9;}.cls-31{fill:#eaf2f8;}.cls-32{fill:#e9f2f9;}.cls-33{fill:#e8f1f8;}.cls-34{fill:#e7f0f8;}.cls-35{fill:#e6f0f7;}.cls-36{fill:#e6eff7;}.cls-37{fill:#e5eff8;}.cls-38{fill:#e4eff7;}.cls-39{fill:#e4eef6;}.cls-40{fill:#e3eef7;}.cls-41{fill:#e2edf7;}.cls-42{fill:#e1eef7;}.cls-43{fill:#e1ecf6;}.cls-44{fill:#dfecf6;}.cls-45{fill:#e0ecf6;}.cls-46{fill:#deebf5;}.cls-47{fill:#ddeaf4;}.cls-48{fill:#dcebf4;}.cls-49{fill:#ddeaf5;}.cls-50{fill:#dbeaf3;}.cls-51{fill:#dae9f4;}.cls-52{fill:#dae8f3;}.cls-53{fill:#d8e7f3;}.cls-54{fill:#d8e7f2;}.cls-55{fill:#d7e6f2;}.cls-56{fill:#d6e6f2;}.cls-57{fill:#d4e4f2;}.cls-58{fill:#d3e4f1;}.cls-59{fill:#d2e4f1;}.cls-60{fill:#d2e3f0;}.cls-61{fill:#d1e3f0;}.cls-62{fill:#d0e2f0;}.cls-63{fill:#cfe2f0;}.cls-64{fill:#cde1f0;}.cls-65{fill:#cde0ef;}.cls-66{fill:#cce0ef;}.cls-67{fill:#cce0ee;}.cls-68{fill:#cadfef;}.cls-69{fill:#c9deee;}.cls-70{fill:#c8dfee;}.cls-71{fill:#c7ddee;}.cls-72{fill:#c6dced;}.cls-73{fill:#c5dbec;}.cls-74{fill:#c5dcec;}.cls-75{fill:#c4dbed;}.cls-76{fill:#c3dbec;}.cls-77{fill:#c2daeb;}.cls-78{fill:#c1d9eb;}.cls-79{fill:#c0d8ea;}.cls-80{fill:#bed7e9;}.cls-81{fill:#bdd7e9;}.cls-82{fill:#bcd6e8;}.cls-83{fill:#bbd5e8;}.cls-84{fill:#bad4e8;}.cls-85{fill:#b9d4e8;}.cls-86{fill:#b8d4e8;}.cls-87{fill:#b7d3e8;}.cls-88{fill:#b6d2e8;}.cls-89{fill:#b5d2e7;}.cls-90{fill:#b4d1e7;}.cls-91{fill:#b3d1e7;}.cls-92{fill:#b2d0e6;}.cls-93{fill:#b1cfe6;}.cls-94{fill:#b0cfe6;}.cls-95{fill:#afcee5;}.cls-96{fill:#aecde5;}.cls-97{fill:#adcde5;}.cls-98{fill:#accde5;}.cls-99{fill:#abcce5;}.cls-100{fill:#aacbe5;}.cls-101{fill:#a9cae4;}.cls-102{fill:#a8cae4;}.cls-103{fill:#a7c9e4;}.cls-104{fill:#a6c8e3;}.cls-105{fill:#a4c8e2;}.cls-106{fill:#a3c7e2;}.cls-107{fill:#a3c6e1;}.cls-108{fill:#a1c6e1;}.cls-109{fill:#a0c5df;}.cls-110{fill:#9fc3df;}.cls-111{fill:#9ec3df;}.cls-112{fill:#9dc2de;}.cls-113{fill:#9cc2df;}.cls-114{fill:#9bc2de;}.cls-115{fill:#9ac1de;}.cls-116{fill:#99c0de;}.cls-117{fill:#98bfde;}.cls-118{fill:#97bfdd;}.cls-119{fill:#95bedd;}.cls-120{fill:#95bddc;}.cls-121{fill:#92bddc;}.cls-122{fill:#91bcdc;}.cls-123{fill:#90bcdb;}.cls-124{fill:#8fbadb;}.cls-125{fill:#8ebadc;}.cls-126{fill:#8db9da;}.cls-127{fill:#8bb8da;}.cls-128{fill:#8ab8da;}.cls-129{fill:#89b7d9;}.cls-130{fill:#89b7da;}.cls-131{fill:#88b6d8;}.cls-132{fill:#86b5d9;}.cls-133{fill:#85b5d8;}.cls-134{fill:#84b4d8;}.cls-135{fill:#83b2d7;}.cls-136{fill:#82b2d6;}.cls-137{fill:#7fb1d6;}.cls-138{fill:#7eb0d6;}.cls-139{fill:#7dafd5;}.cls-140{fill:#7cafd6;}.cls-141{fill:#79aed4;}.cls-142{fill:#7aadd5;}.cls-143{fill:#78acd5;}.cls-144{fill:#77acd3;}.cls-145{fill:#75abd3;}.cls-146{fill:#73abd3;}.cls-147{fill:#74a9d3;}.cls-148{fill:#73a9d3;}.cls-149{fill:#71a8d2;}.cls-150{fill:#70a7d2;}.cls-151{fill:#6fa7d1;}.cls-152{fill:#6da6d1;}.cls-153{fill:#6da6d0;}.cls-154{fill:#6ba5d0;}.cls-155{fill:#69a3cf;}.cls-156{fill:#69a3ce;}.cls-157{fill:#68a2cf;}.cls-158{fill:#67a2ce;}.cls-159{fill:#65a0cd;}.cls-160{fill:#63a0cd;}.cls-161{fill:#629fcd;}.cls-162{fill:#619ece;}.cls-163{fill:#5e9ccc;}.cls-164{fill:#5e9ccb;}.cls-165{fill:#5b9aca;}.cls-166{fill:#5a9aca;}.cls-167{fill:#5899c9;}.cls-168{fill:#5897c8;}.cls-169{fill:#5697c9;}.cls-170{fill:#5597c8;}.cls-171{fill:#5396c8;}.cls-172{fill:#5295c7;}.cls-173{fill:#5194c6;}.cls-174{fill:#4e93c6;}.cls-175{fill:#4f92c6;}.cls-176{fill:#4d92c5;}.cls-177{fill:#4c91c5;}.cls-178{fill:#4990c5;}.cls-179{fill:#488fc4;}.cls-180{fill:#478ec4;}.cls-181{fill:#468dc3;}.cls-182{fill:#458cc4;}.cls-183{fill:#438cc2;}.cls-184{fill:#428bc2;}.cls-185{fill:#418bc2;}.cls-186{fill:#3f8ac2;}.cls-187{fill:#3e89c1;}.cls-188{fill:#3b87c1;}.cls-189{fill:#3a87c1;}.cls-190{fill:#3986c0;}.cls-191{fill:#3785c0;}.cls-192{fill:#3585bf;}.cls-193{fill:#3484bf;}.cls-194{fill:#3283be;}.cls-195{fill:#3382be;}.cls-196{fill:#3081bd;}.cls-197{fill:#2f80bd;}.cls-198{fill:#2e7fbc;}.cls-199{fill:#2c7ebd;}.cls-200{fill:#2b7cbb;}.cls-201{fill:#2a7cbc;}.cls-202{fill:#287bba;}.cls-203{fill:#267bbb;}.cls-204{fill:#257ab9;}.cls-205{fill:#2379ba;}.cls-206{fill:#2278b9;}.cls-207{fill:#2177b8;}.cls-208{fill:#2176b7;}.cls-209{fill:#1f75b7;}.cls-210{fill:#1d74b7;}.cls-211{fill:#1c73b6;}.cls-212{fill:#1a72b6;}.cls-213{fill:#1871b5;}.cls-214{fill:#1770b5;}.cls-215{fill:#176fb4;}.cls-216{fill:#116fb4;}.cls-217{fill:#116eb3;}.cls-218{fill:#146db3;}.cls-219{fill:#116cb2;}.cls-220{fill:#0f6bb2;}.cls-221{fill:#0f6ab1;}.cls-222{fill:#0e69b1;}.cls-223{fill:#0c68b0;}.cls-224{fill:#1067af;}.cls-225{fill:#0b66ae;}.cls-226{fill:#0865ae;}.cls-227{fill:#0d64ad;}.cls-229,.cls-240{fill:#84d0f5;}.cls-230{fill:url(#Áåçûìÿííûé_ãðàäèåíò_17);}.cls-231{fill:url(#Áåçûìÿííûé_ãðàäèåíò_5);}.cls-232{fill:url(#Áåçûìÿííûé_ãðàäèåíò_5-2);}.cls-233{fill:url(#Áåçûìÿííûé_ãðàäèåíò_24);}.cls-234{fill:url(#Áåçûìÿííûé_ãðàäèåíò_17-2);}.cls-235{fill:url(#Áåçûìÿííûé_ãðàäèåíò_17-3);}.cls-236{fill:url(#Áåçûìÿííûé_ãðàäèåíò_5-3);}.cls-237{fill:url(#Áåçûìÿííûé_ãðàäèåíò_5-4);}.cls-238{fill:url(#Áåçûìÿííûé_ãðàäèåíò_24-2);}.cls-239{fill:url(#Áåçûìÿííûé_ãðàäèåíò_17-4);}</style><radialGradient id="Áåçûìÿííûé_ãðàäèåíò_40" cx="888.06" cy="141.81" r="356.25" gradientTransform="translate(-3138.59 4.73) scale(4.14 0.83)" gradientUnits="userSpaceOnUse"><stop offset="0" stop-color="#3c9bd5"/><stop offset="1" stop-color="#0d64ad"/></radialGradient><clipPath id="clip-path"><ellipse id="SVGID" class="cls-1" cx="1371.83" cy="267.1" rx="131.55" ry="17.17"/></clipPath><linearGradient id="Áåçûìÿííûé_ãðàäèåíò_17" x1="-6659.2" y1="1614.9" x2="-6545.98" y2="1614.9" gradientTransform="matrix(0.78, 0.45, -0.2, 1.04, 7008.55, 1382.05)" gradientUnits="userSpaceOnUse"><stop offset="0" stop-color="#84d0f5"/><stop offset="1" stop-color="#5ebdec"/></linearGradient><linearGradient id="Áåçûìÿííûé_ãðàäèåíò_5" x1="-6525.23" y1="1668.04" x2="-6580.93" y2="1607.64" gradientTransform="matrix(0.78, 0.45, -0.2, 1.04, 7008.55, 1382.05)" gradientUnits="userSpaceOnUse"><stop offset="0.77" stop-color="#5ebdec"/><stop offset="0.85" stop-color="#59b8e9"/><stop offset="0.93" stop-color="#4cabe0"/><stop offset="1" stop-color="#3c9bd5"/></linearGradient><linearGradient id="Áåçûìÿííûé_ãðàäèåíò_5-2" x1="472.36" y1="1674.64" x2="412.44" y2="1609.67" gradientTransform="matrix(-0.78, -0.45, -0.2, 1.04, 2157.41, -1420.08)" xlink:href="#Áåçûìÿííûé_ãðàäèåíò_5"/><linearGradient id="Áåçûìÿííûé_ãðàäèåíò_24" x1="-6603.37" y1="1707.49" x2="-6603.37" y2="1616.58" gradientTransform="matrix(0.78, 0.45, -0.2, 1.04, 7008.55, 1382.05)" gradientUnits="userSpaceOnUse"><stop offset="0.77" stop-color="#3c9bd5"/><stop offset="0.84" stop-color="#3996d2"/><stop offset="0.92" stop-color="#3289c9"/><stop offset="1" stop-color="#2673ba"/></linearGradient><linearGradient id="Áåçûìÿííûé_ãðàäèåíò_17-2" x1="-6637.24" y1="1570.58" x2="-6543.31" y2="1620.36" xlink:href="#Áåçûìÿííûé_ãðàäèåíò_17"/><linearGradient id="Áåçûìÿííûé_ãðàäèåíò_17-3" x1="-2664.65" y1="-98.41" x2="-2378.64" y2="-98.41" gradientTransform="matrix(-0.78, 0.45, 0.2, 1.04, -593.42, 1382.05)" xlink:href="#Áåçûìÿííûé_ãðàäèåíò_17"/><linearGradient id="Áåçûìÿííûé_ãðàäèåíò_5-3" x1="-2326.23" y1="35.82" x2="-2466.93" y2="-116.75" gradientTransform="matrix(-0.78, 0.45, 0.2, 1.04, -593.42, 1382.05)" xlink:href="#Áåçûìÿííûé_ãðàäèåíò_5"/><linearGradient id="Áåçûìÿííûé_ãðàäèåíò_5-4" x1="-3484.58" y1="52.31" x2="-3635.95" y2="-111.84" gradientTransform="matrix(0.78, -0.45, 0.2, 1.04, 4257.71, -1420.08)" xlink:href="#Áåçûìÿííûé_ãðàäèåíò_5"/><linearGradient id="Áåçûìÿííûé_ãðàäèåíò_24-2" x1="-2523.61" y1="135.48" x2="-2523.61" y2="-94.18" gradientTransform="matrix(-0.78, 0.45, 0.2, 1.04, -593.42, 1382.05)" xlink:href="#Áåçûìÿííûé_ãðàäèåíò_24"/><linearGradient id="Áåçûìÿííûé_ãðàäèåíò_17-4" x1="-2609.19" y1="-210.38" x2="-2371.91" y2="-84.61" gradientTransform="matrix(-0.78, 0.45, 0.2, 1.04, -593.42, 1382.05)" xlink:href="#Áåçûìÿííûé_ãðàäèåíò_17"/></defs><g class="cls-2"><g id="Layer_1" data-name="Layer 1"><rect class="cls-3" y="0.28" width="2000" height="300"/><path class="cls-4" d="M1275.74,168.31l4.6-2.35,4.57,2.34-4.59,2.36Z"/><path class="cls-4" d="M1285.51,173.32l4.59-2.36,4.58,2.35-4.59,2.35Z"/><path class="cls-4" d="M1295.28,178.32l4.59-2.35,4.58,2.34-4.59,2.36Z"/><path class="cls-4" d="M1305.05,183.33l4.59-2.36,4.57,2.35-4.59,2.35Z"/><path class="cls-4" d="M1314.81,188.33l4.6-2.35,4.57,2.34-4.59,2.36Z"/><g class="cls-5"><g class="cls-6"><rect class="cls-4" x="1240.29" y="249.93" width="263.09" height="34.34"/><ellipse class="cls-4" cx="1371.52" cy="267.82" rx="117.78" ry="14.03" transform="translate(-1.32 6.84) rotate(-0.29)"/><ellipse class="cls-4" cx="1371.12" cy="267.82" rx="117.32" ry="13.98" transform="translate(-1.32 6.84) rotate(-0.29)"/><ellipse class="cls-4" cx="1370.72" cy="267.82" rx="116.86" ry="13.92" transform="translate(-1.32 6.84) rotate(-0.29)"/><ellipse class="cls-4" cx="1370.31" cy="267.82" rx="116.39" ry="13.87" transform="translate(-1.32 6.84) rotate(-0.29)"/><ellipse class="cls-4" cx="1369.91" cy="267.83" rx="115.93" ry="13.81" transform="translate(-1.32 6.84) rotate(-0.29)"/><ellipse class="cls-4" cx="1369.51" cy="267.83" rx="115.47" ry="13.76" transform="translate(-1.32 6.83) rotate(-0.29)"/><ellipse class="cls-4" cx="1369.1" cy="267.83" rx="115.01" ry="13.7" transform="translate(-1.32 6.83) rotate(-0.29)"/><ellipse class="cls-4" cx="1368.7" cy="267.83" rx="114.55" ry="13.65" transform="translate(-1.32 6.83) rotate(-0.29)"/><ellipse class="cls-4" cx="1368.3" cy="267.83" rx="114.09" ry="13.59" transform="translate(-1.32 6.83) rotate(-0.29)"/><ellipse class="cls-4" cx="1367.89" cy="267.84" rx="113.62" ry="13.54" transform="translate(-1.32 6.83) rotate(-0.29)"/><ellipse class="cls-7" cx="1367.49" cy="267.84" rx="113.16" ry="13.48" transform="translate(-1.32 6.82) rotate(-0.29)"/><ellipse class="cls-7" cx="1367.09" cy="267.84" rx="112.7" ry="13.43" transform="translate(-1.32 6.82) rotate(-0.29)"/><ellipse class="cls-7" cx="1366.68" cy="267.84" rx="112.24" ry="13.37" transform="translate(-1.32 6.82) rotate(-0.29)"/><ellipse class="cls-7" cx="1366.28" cy="267.84" rx="111.78" ry="13.32" transform="translate(-1.32 6.82) rotate(-0.29)"/><ellipse class="cls-8" cx="1365.88" cy="267.84" rx="111.31" ry="13.26" transform="translate(-1.32 6.81) rotate(-0.29)"/><ellipse class="cls-8" cx="1365.47" cy="267.85" rx="110.85" ry="13.21" transform="translate(-1.32 6.81) rotate(-0.29)"/><ellipse class="cls-8" cx="1365.07" cy="267.85" rx="110.39" ry="13.15" transform="translate(-1.32 6.81) rotate(-0.29)"/><ellipse class="cls-9" cx="1364.67" cy="267.85" rx="109.93" ry="13.1" transform="translate(-1.32 6.81) rotate(-0.29)"/><path class="cls-9" d="M1473.73,267.3c0,7.21-48.93,13.29-109.38,13.59s-109.51-5.29-109.55-12.49,48.92-13.29,109.38-13.59S1473.68,260.1,1473.73,267.3Z"/><ellipse class="cls-10" cx="1363.86" cy="267.85" rx="109" ry="12.99" transform="translate(-1.32 6.8) rotate(-0.29)"/><ellipse class="cls-11" cx="1363.46" cy="267.86" rx="108.54" ry="12.93" transform="translate(-1.32 6.8) rotate(-0.29)"/><ellipse class="cls-12" cx="1363.05" cy="267.86" rx="108.08" ry="12.88" transform="translate(-1.32 6.8) rotate(-0.29)"/><ellipse class="cls-12" cx="1362.65" cy="267.86" rx="107.62" ry="12.82" transform="translate(-1.32 6.8) rotate(-0.29)"/><ellipse class="cls-13" cx="1362.25" cy="267.86" rx="107.16" ry="12.77" transform="translate(-1.32 6.8) rotate(-0.29)"/><ellipse class="cls-14" cx="1361.84" cy="267.86" rx="106.7" ry="12.71" transform="translate(-1.32 6.8) rotate(-0.29)"/><ellipse class="cls-15" cx="1361.44" cy="267.86" rx="106.23" ry="12.66" transform="matrix(1, 0, 0, 1, -1.32, 6.79)"/><ellipse class="cls-15" cx="1361.04" cy="267.87" rx="105.77" ry="12.6" transform="matrix(1, 0, 0, 1, -1.32, 6.79)"/><ellipse class="cls-16" cx="1360.63" cy="267.87" rx="105.31" ry="12.55" transform="translate(-1.32 6.79) rotate(-0.29)"/><path class="cls-17" d="M1465.08,267.34c0,6.9-46.87,12.73-104.77,13s-104.88-5.07-104.93-12,46.87-12.72,104.77-13S1465,260.45,1465.08,267.34Z"/><ellipse class="cls-17" cx="1359.83" cy="267.87" rx="104.39" ry="12.44" transform="translate(-1.32 6.79) rotate(-0.29)"/><ellipse class="cls-18" cx="1359.42" cy="267.87" rx="103.92" ry="12.38" transform="matrix(1, 0, 0, 1, -1.32, 6.78)"/><path class="cls-19" d="M1462.48,267.36c0,6.81-46.24,12.56-103.38,12.84s-103.5-5-103.54-11.81,46.24-12.56,103.38-12.84S1462.44,260.55,1462.48,267.36Z"/><ellipse class="cls-20" cx="1358.62" cy="267.88" rx="103" ry="12.27" transform="translate(-1.32 6.78) rotate(-0.29)"/><ellipse class="cls-20" cx="1358.21" cy="267.88" rx="102.54" ry="12.22" transform="translate(-1.32 6.78) rotate(-0.29)"/><ellipse class="cls-21" cx="1357.81" cy="267.88" rx="102.08" ry="12.16" transform="translate(-1.32 6.78) rotate(-0.29)"/><ellipse class="cls-21" cx="1357.41" cy="267.88" rx="101.61" ry="12.11" transform="translate(-1.32 6.77) rotate(-0.29)"/><ellipse class="cls-22" cx="1357" cy="267.88" rx="101.15" ry="12.05" transform="translate(-1.32 6.77) rotate(-0.29)"/><ellipse class="cls-22" cx="1356.6" cy="267.89" rx="100.69" ry="12" transform="translate(-1.32 6.77) rotate(-0.29)"/><ellipse class="cls-23" cx="1356.2" cy="267.89" rx="100.23" ry="11.94" transform="translate(-1.32 6.77) rotate(-0.29)"/><ellipse class="cls-23" cx="1355.79" cy="267.89" rx="99.77" ry="11.89" transform="translate(-1.32 6.76) rotate(-0.29)"/><path class="cls-24" d="M1454.69,267.39c0,6.54-44.38,12.06-99.22,12.33s-99.34-4.8-99.38-11.33,44.38-12.06,99.23-12.33S1454.65,260.86,1454.69,267.39Z"/><ellipse class="cls-25" cx="1354.99" cy="267.89" rx="98.84" ry="11.78" transform="translate(-1.32 6.76) rotate(-0.29)"/><ellipse class="cls-25" cx="1354.58" cy="267.9" rx="98.38" ry="11.72" transform="translate(-1.32 6.76) rotate(-0.29)"/><path class="cls-25" d="M1452.1,267.41c0,6.44-43.77,11.88-97.85,12.15s-98-4.73-98-11.17,43.77-11.89,97.85-12.16S1452.06,261,1452.1,267.41Z"/><path class="cls-26" d="M1451.23,267.41c0,6.41-43.56,11.83-97.38,12.1s-97.49-4.71-97.53-11.12,43.56-11.83,97.38-12.1S1451.19,261,1451.23,267.41Z"/><path class="cls-27" d="M1450.37,267.42c0,6.38-43.35,11.77-96.92,12s-97-4.69-97.07-11.07,43.35-11.78,96.92-12.05S1450.33,261,1450.37,267.42Z"/><path class="cls-27" d="M1449.5,267.42c0,6.35-43.14,11.72-96.46,12s-96.56-4.66-96.6-11,43.14-11.72,96.46-12S1449.46,261.07,1449.5,267.42Z"/><ellipse class="cls-28" cx="1352.57" cy="267.9" rx="96.07" ry="11.45" transform="translate(-1.32 6.75) rotate(-0.29)"/><path class="cls-28" d="M1447.77,267.43c0,6.29-42.73,11.6-95.53,11.87s-95.64-4.62-95.68-10.92,42.73-11.6,95.53-11.87S1447.73,261.14,1447.77,267.43Z"/><ellipse class="cls-29" cx="1351.76" cy="267.91" rx="95.15" ry="11.34" transform="translate(-1.32 6.75) rotate(-0.29)"/><ellipse class="cls-30" cx="1351.36" cy="267.91" rx="94.69" ry="11.28" transform="translate(-1.32 6.74) rotate(-0.29)"/><path class="cls-30" d="M1445.18,267.44c0,6.2-42.12,11.44-94.15,11.7s-94.26-4.56-94.3-10.76,42.11-11.43,94.15-11.69S1445.14,261.24,1445.18,267.44Z"/><path class="cls-31" d="M1444.31,267.44c0,6.17-41.91,11.39-93.69,11.65s-93.79-4.54-93.83-10.71,41.91-11.38,93.69-11.64S1444.27,261.27,1444.31,267.44Z"/><ellipse class="cls-31" cx="1350.15" cy="267.92" rx="93.3" ry="11.12" transform="translate(-1.32 6.74) rotate(-0.29)"/><ellipse class="cls-32" cx="1349.74" cy="267.92" rx="92.84" ry="11.06" transform="translate(-1.32 6.73) rotate(-0.29)"/><path class="cls-33" d="M1441.72,267.46c0,6.08-41.29,11.21-92.31,11.47S1257,274.46,1257,268.38s41.28-11.21,92.3-11.47S1441.68,261.38,1441.72,267.46Z"/><path class="cls-33" d="M1440.85,267.46c0,6.05-41.08,11.16-91.84,11.41s-92-4.44-92-10.49,41.09-11.16,91.85-11.41S1440.81,261.41,1440.85,267.46Z"/><ellipse class="cls-34" cx="1348.53" cy="267.92" rx="91.45" ry="10.9" transform="matrix(1, 0, 0, 1, -1.32, 6.73)"/><ellipse class="cls-35" cx="1348.13" cy="267.92" rx="90.99" ry="10.84" transform="translate(-1.32 6.73) rotate(-0.29)"/><ellipse class="cls-36" cx="1347.73" cy="267.93" rx="90.53" ry="10.79" transform="translate(-1.32 6.72) rotate(-0.29)"/><ellipse class="cls-37" cx="1347.32" cy="267.93" rx="90.07" ry="10.73" transform="translate(-1.32 6.72) rotate(-0.29)"/><ellipse class="cls-38" cx="1346.92" cy="267.93" rx="89.61" ry="10.68" transform="translate(-1.32 6.72) rotate(-0.29)"/><ellipse class="cls-39" cx="1346.52" cy="267.93" rx="89.14" ry="10.62" transform="translate(-1.32 6.72) rotate(-0.29)"/><path class="cls-40" d="M1434.8,267.49c0,5.84-39.64,10.76-88.62,11s-88.71-4.29-88.75-10.12,39.64-10.77,88.62-11S1434.76,261.65,1434.8,267.49Z"/><path class="cls-41" d="M1433.93,267.49c0,5.81-39.43,10.71-88.15,11s-88.25-4.27-88.29-10.07,39.43-10.71,88.15-11S1433.89,261.69,1433.93,267.49Z"/><ellipse class="cls-42" cx="1345.31" cy="267.94" rx="87.76" ry="10.46" transform="translate(-1.32 6.71) rotate(-0.29)"/><path class="cls-43" d="M1432.2,267.5c0,5.75-39,10.6-87.23,10.84s-87.32-4.22-87.36-10,39-10.6,87.23-10.84S1432.16,261.76,1432.2,267.5Z"/><path class="cls-43" d="M1431.33,267.51c0,5.71-38.81,10.54-86.76,10.78s-86.87-4.2-86.9-9.91,38.81-10.55,86.77-10.79S1431.3,261.79,1431.33,267.51Z"/><path class="cls-44" d="M1430.47,267.51c0,5.68-38.6,10.48-86.31,10.72s-86.4-4.17-86.43-9.86,38.6-10.48,86.3-10.72S1430.43,261.83,1430.47,267.51Z"/><path class="cls-45" d="M1429.6,267.51c0,5.66-38.39,10.43-85.84,10.67s-85.94-4.15-86-9.81,38.39-10.42,85.84-10.66S1429.57,261.86,1429.6,267.51Z"/><ellipse class="cls-46" cx="1343.29" cy="267.95" rx="85.45" ry="10.18" transform="translate(-1.32 6.7) rotate(-0.29)"/><ellipse class="cls-47" cx="1342.89" cy="267.95" rx="84.99" ry="10.13" transform="translate(-1.32 6.7) rotate(-0.29)"/><path class="cls-48" d="M1427,267.53c0,5.56-37.78,10.26-84.46,10.49s-84.55-4.08-84.59-9.65,37.78-10.26,84.46-10.49S1427,262,1427,267.53Z"/><ellipse class="cls-49" cx="1342.08" cy="267.95" rx="84.06" ry="10.02" transform="translate(-1.32 6.7) rotate(-0.29)"/><ellipse class="cls-50" cx="1341.68" cy="267.95" rx="83.6" ry="9.96" transform="translate(-1.32 6.69) rotate(-0.29)"/><path class="cls-51" d="M1424.41,267.54c0,5.47-37.16,10.09-83.07,10.32s-83.17-4-83.2-9.49,37.16-10.09,83.07-10.32S1424.38,262.07,1424.41,267.54Z"/><path class="cls-52" d="M1423.55,267.54c0,5.44-37,10-82.62,10.27s-82.7-4-82.73-9.44,37-10,82.61-10.26S1423.51,262.1,1423.55,267.54Z"/><ellipse class="cls-53" cx="1340.47" cy="267.96" rx="82.22" ry="9.8" transform="translate(-1.32 6.69) rotate(-0.29)"/><ellipse class="cls-54" cx="1340.07" cy="267.96" rx="81.75" ry="9.74" transform="translate(-1.32 6.69) rotate(-0.29)"/><path class="cls-55" d="M1421,267.56c0,5.34-36.33,9.86-81.23,10.09s-81.31-3.93-81.35-9.28,36.33-9.87,81.23-10.09S1420.92,262.21,1421,267.56Z"/><path class="cls-56" d="M1420.09,267.56c0,5.32-36.13,9.81-80.77,10s-80.86-3.91-80.89-9.23,36.13-9.81,80.77-10S1420.05,262.24,1420.09,267.56Z"/><ellipse class="cls-57" cx="1338.86" cy="267.97" rx="80.37" ry="9.58" transform="translate(-1.32 6.68) rotate(-0.29)"/><path class="cls-58" d="M1418.36,267.57c0,5.26-35.72,9.7-79.85,9.92s-79.93-3.86-80-9.12,35.71-9.7,79.84-9.92S1418.32,262.31,1418.36,267.57Z"/><path class="cls-58" d="M1417.49,267.57c0,5.23-35.51,9.65-79.38,9.87s-79.47-3.84-79.5-9.07,35.5-9.65,79.38-9.87S1417.46,262.34,1417.49,267.57Z"/><ellipse class="cls-59" cx="1337.65" cy="267.97" rx="78.98" ry="9.41" transform="translate(-1.32 6.67) rotate(-0.29)"/><ellipse class="cls-60" cx="1337.24" cy="267.97" rx="78.52" ry="9.36" transform="translate(-1.32 6.67) rotate(-0.29)"/><ellipse class="cls-61" cx="1336.84" cy="267.98" rx="78.06" ry="9.3" transform="matrix(1, 0, 0, 1, -1.32, 6.67)"/><ellipse class="cls-62" cx="1336.44" cy="267.98" rx="77.6" ry="9.25" transform="translate(-1.32 6.67) rotate(-0.29)"/><path class="cls-63" d="M1413.17,267.59c0,5.08-34.48,9.37-77.08,9.58s-77.16-3.73-77.19-8.8,34.47-9.37,77.07-9.58S1413.13,262.52,1413.17,267.59Z"/><ellipse class="cls-64" cx="1335.63" cy="267.98" rx="76.67" ry="9.14" transform="translate(-1.32 6.66) rotate(-0.29)"/><path class="cls-64" d="M1411.44,267.6c0,5-34.07,9.25-76.16,9.46s-76.23-3.68-76.26-8.7,34.06-9.25,76.15-9.46S1411.4,262.59,1411.44,267.6Z"/><ellipse class="cls-65" cx="1334.82" cy="267.98" rx="75.75" ry="9.03" transform="translate(-1.32 6.66) rotate(-0.29)"/><ellipse class="cls-66" cx="1334.42" cy="267.99" rx="75.29" ry="8.97" transform="translate(-1.32 6.66) rotate(-0.29)"/><ellipse class="cls-67" cx="1334.02" cy="267.99" rx="74.83" ry="8.92" transform="translate(-1.32 6.66) rotate(-0.29)"/><ellipse class="cls-68" cx="1333.61" cy="267.99" rx="74.36" ry="8.86" transform="translate(-1.32 6.65) rotate(-0.29)"/><path class="cls-69" d="M1407.11,267.62c0,4.86-33,9-73.84,9.18s-73.93-3.58-74-8.44,33-9,73.84-9.17S1407.08,262.76,1407.11,267.62Z"/><path class="cls-70" d="M1406.24,267.63c0,4.83-32.82,8.91-73.38,9.11s-73.46-3.55-73.49-8.38,32.82-8.91,73.38-9.12S1406.21,262.79,1406.24,267.63Z"/><ellipse class="cls-71" cx="1332.4" cy="268" rx="72.98" ry="8.7" transform="translate(-1.32 6.65) rotate(-0.29)"/><ellipse class="cls-72" cx="1332" cy="268" rx="72.52" ry="8.64" transform="translate(-1.32 6.65) rotate(-0.29)"/><path class="cls-72" d="M1403.65,267.64c0,4.74-32.21,8.74-72,8.94s-72.08-3.48-72.11-8.22,32.21-8.75,72-8.95S1403.62,262.9,1403.65,267.64Z"/><path class="cls-73" d="M1402.78,267.64c0,4.71-32,8.69-71.53,8.89s-71.62-3.46-71.65-8.17,32-8.69,71.54-8.89S1402.75,262.93,1402.78,267.64Z"/><ellipse class="cls-74" cx="1330.79" cy="268" rx="71.13" ry="8.48" transform="translate(-1.32 6.64) rotate(-0.29)"/><path class="cls-75" d="M1401.05,267.65c0,4.65-31.58,8.58-70.61,8.77s-70.69-3.41-70.72-8.06,31.58-8.58,70.61-8.78S1401,263,1401.05,267.65Z"/><path class="cls-76" d="M1400.19,267.65c0,4.62-31.38,8.53-70.15,8.72s-70.23-3.39-70.26-8,31.38-8.52,70.15-8.72S1400.16,263,1400.19,267.65Z"/><ellipse class="cls-77" cx="1329.58" cy="268.01" rx="69.74" ry="8.31" transform="matrix(1, 0, 0, 1, -1.32, 6.63)"/><ellipse class="cls-78" cx="1329.18" cy="268.01" rx="69.28" ry="8.26" transform="translate(-1.32 6.63) rotate(-0.29)"/><path class="cls-79" d="M1397.59,267.67c0,4.53-30.76,8.35-68.77,8.54s-68.84-3.32-68.87-7.85,30.76-8.36,68.77-8.55S1397.56,263.14,1397.59,267.67Z"/><ellipse class="cls-80" cx="1328.37" cy="268.01" rx="68.36" ry="8.15" transform="translate(-1.32 6.63) rotate(-0.29)"/><path class="cls-81" d="M1395.86,267.68c0,4.46-30.34,8.24-67.84,8.43s-67.92-3.29-68-7.75,30.35-8.25,67.84-8.43S1395.83,263.21,1395.86,267.68Z"/><ellipse class="cls-82" cx="1327.56" cy="268.02" rx="67.44" ry="8.03" transform="matrix(1, 0, 0, 1, -1.32, 6.62)"/><path class="cls-83" d="M1394.13,267.68c0,4.41-29.93,8.13-66.92,8.32s-67-3.24-67-7.65,29.93-8.13,66.92-8.31S1394.1,263.28,1394.13,267.68Z"/><path class="cls-84" d="M1393.27,267.69c0,4.37-29.73,8.07-66.46,8.26s-66.54-3.22-66.56-7.6,29.72-8.07,66.46-8.25S1393.24,263.31,1393.27,267.69Z"/><ellipse class="cls-85" cx="1326.35" cy="268.02" rx="66.05" ry="7.87" transform="translate(-1.32 6.62) rotate(-0.29)"/><ellipse class="cls-86" cx="1325.95" cy="268.02" rx="65.59" ry="7.81" transform="translate(-1.32 6.62) rotate(-0.29)"/><path class="cls-87" d="M1390.67,267.7c0,4.29-29.11,7.91-65.07,8.09s-65.15-3.15-65.18-7.44,29.11-7.9,65.08-8.08S1390.64,263.41,1390.67,267.7Z"/><path class="cls-88" d="M1389.81,267.7c0,4.26-28.91,7.85-64.62,8s-64.68-3.12-64.71-7.38,28.9-7.85,64.61-8S1389.78,263.45,1389.81,267.7Z"/><ellipse class="cls-89" cx="1324.74" cy="268.03" rx="64.2" ry="7.65" transform="translate(-1.32 6.61) rotate(-0.29)"/><path class="cls-90" d="M1388.08,267.71c0,4.2-28.49,7.74-63.7,7.92s-63.76-3.08-63.78-7.28,28.49-7.74,63.69-7.91S1388.05,263.52,1388.08,267.71Z"/><ellipse class="cls-91" cx="1323.93" cy="268.03" rx="63.28" ry="7.54" transform="translate(-1.32 6.61) rotate(-0.29)"/><path class="cls-92" d="M1386.35,267.72c0,4.13-28.08,7.63-62.77,7.8s-62.84-3-62.87-7.17,28.08-7.63,62.77-7.8S1386.32,263.59,1386.35,267.72Z"/><path class="cls-93" d="M1385.48,267.73c0,4.1-27.87,7.56-62.31,7.74s-62.37-3-62.4-7.12,27.87-7.57,62.31-7.74S1385.45,263.62,1385.48,267.73Z"/><path class="cls-94" d="M1384.62,267.73c0,4.07-27.67,7.51-61.85,7.68s-61.91-3-61.94-7.06,27.66-7.51,61.85-7.69S1384.59,263.66,1384.62,267.73Z"/><path class="cls-95" d="M1383.75,267.73c0,4-27.46,7.46-61.38,7.63s-61.45-3-61.48-7,27.46-7.46,61.38-7.63S1383.72,263.69,1383.75,267.73Z"/><path class="cls-96" d="M1382.88,267.74c0,4-27.25,7.4-60.92,7.57s-61-2.95-61-7,27.25-7.4,60.92-7.57S1382.86,263.73,1382.88,267.74Z"/><path class="cls-97" d="M1382,267.74c0,4-27,7.35-60.46,7.51s-60.53-2.92-60.55-6.9,27-7.35,60.46-7.51S1382,263.76,1382,267.74Z"/><ellipse class="cls-98" cx="1321.11" cy="268.05" rx="60.04" ry="7.15" transform="translate(-1.32 6.59) rotate(-0.29)"/><path class="cls-99" d="M1380.29,267.75c0,3.92-26.63,7.23-59.54,7.4s-59.6-2.88-59.63-6.8,26.64-7.24,59.54-7.4S1380.26,263.83,1380.29,267.75Z"/><path class="cls-100" d="M1379.42,267.75c0,3.89-26.42,7.18-59.07,7.34s-59.14-2.85-59.17-6.74,26.43-7.18,59.08-7.34S1379.4,263.86,1379.42,267.75Z"/><path class="cls-101" d="M1378.56,267.76c0,3.86-26.22,7.12-58.62,7.28s-58.67-2.83-58.7-6.69,26.22-7.13,58.62-7.29S1378.53,263.9,1378.56,267.76Z"/><ellipse class="cls-102" cx="1319.5" cy="268.05" rx="58.2" ry="6.93" transform="translate(-1.32 6.58) rotate(-0.29)"/><path class="cls-103" d="M1376.83,267.77c0,3.8-25.81,7-57.69,7.16s-57.76-2.79-57.78-6.59,25.8-7,57.69-7.16S1376.8,264,1376.83,267.77Z"/><path class="cls-104" d="M1376,267.77c0,3.77-25.6,7-57.23,7.11s-57.29-2.77-57.31-6.54,25.6-6.95,57.23-7.11S1375.94,264,1376,267.77Z"/><path class="cls-105" d="M1375.1,267.77c0,3.74-25.39,6.9-56.77,7.06s-56.83-2.75-56.85-6.49,25.39-6.89,56.76-7S1375.07,264,1375.1,267.77Z"/><path class="cls-106" d="M1374.23,267.78c0,3.71-25.18,6.84-56.3,7s-56.37-2.73-56.4-6.44,25.19-6.84,56.31-7S1374.21,264.07,1374.23,267.78Z"/><path class="cls-107" d="M1373.37,267.78c0,3.68-25,6.79-55.85,6.94s-55.9-2.7-55.93-6.38,25-6.78,55.85-6.94S1373.34,264.11,1373.37,267.78Z"/><path class="cls-108" d="M1372.5,267.79c0,3.64-24.77,6.73-55.38,6.88s-55.45-2.68-55.47-6.33,24.77-6.73,55.39-6.88S1372.48,264.14,1372.5,267.79Z"/><ellipse class="cls-109" cx="1316.67" cy="268.07" rx="54.96" ry="6.55" transform="translate(-1.32 6.57) rotate(-0.29)"/><path class="cls-110" d="M1370.77,267.8c0,3.58-24.36,6.61-54.46,6.76s-54.52-2.63-54.54-6.22,24.36-6.61,54.46-6.77S1370.75,264.21,1370.77,267.8Z"/><path class="cls-111" d="M1369.91,267.8c0,3.56-24.16,6.56-54,6.71s-54.06-2.61-54.08-6.17,24.15-6.56,54-6.71S1369.88,264.24,1369.91,267.8Z"/><path class="cls-112" d="M1369,267.8c0,3.53-24,6.51-53.54,6.66s-53.59-2.59-53.61-6.12,23.94-6.5,53.53-6.65S1369,264.28,1369,267.8Z"/><path class="cls-113" d="M1368.18,267.81c0,3.49-23.74,6.45-53.08,6.59s-53.13-2.57-53.16-6.06,23.75-6.45,53.08-6.6S1368.15,264.31,1368.18,267.81Z"/><ellipse class="cls-114" cx="1314.66" cy="268.08" rx="52.65" ry="6.27" transform="translate(-1.32 6.56) rotate(-0.29)"/><path class="cls-115" d="M1366.45,267.82c0,3.43-23.33,6.33-52.16,6.48s-52.21-2.53-52.23-6,23.33-6.34,52.15-6.48S1366.42,264.38,1366.45,267.82Z"/><path class="cls-116" d="M1365.58,267.82c0,3.4-23.12,6.28-51.69,6.42s-51.75-2.5-51.77-5.9,23.12-6.28,51.69-6.42S1365.56,264.42,1365.58,267.82Z"/><path class="cls-117" d="M1364.72,267.82c0,3.38-22.92,6.23-51.23,6.37s-51.29-2.48-51.31-5.85,22.91-6.23,51.23-6.37S1364.69,264.45,1364.72,267.82Z"/><ellipse class="cls-118" cx="1313.04" cy="268.08" rx="50.81" ry="6.05" transform="translate(-1.32 6.55) rotate(-0.29)"/><path class="cls-119" d="M1363,267.83c0,3.32-22.51,6.11-50.31,6.25s-50.36-2.43-50.38-5.74,22.5-6.11,50.3-6.25S1363,264.52,1363,267.83Z"/><path class="cls-120" d="M1362.12,267.84c0,3.28-22.3,6.05-49.84,6.19s-49.9-2.41-49.93-5.69,22.3-6.06,49.85-6.2S1362.1,264.55,1362.12,267.84Z"/><path class="cls-121" d="M1361.26,267.84c0,3.25-22.09,6-49.39,6.14s-49.44-2.39-49.46-5.64,22.09-6,49.39-6.14S1361.23,264.59,1361.26,267.84Z"/><path class="cls-122" d="M1360.39,267.84c0,3.23-21.88,6-48.92,6.08s-49-2.36-49-5.58,21.88-5.95,48.92-6.08S1360.37,264.62,1360.39,267.84Z"/><path class="cls-123" d="M1359.52,267.85c0,3.19-21.67,5.89-48.46,6s-48.51-2.34-48.53-5.54,21.68-5.88,48.46-6S1359.5,264.66,1359.52,267.85Z"/><path class="cls-124" d="M1358.66,267.85c0,3.16-21.47,5.83-48,6s-48.05-2.32-48.07-5.49,21.47-5.83,48-6S1358.64,264.69,1358.66,267.85Z"/><path class="cls-125" d="M1357.79,267.86c0,3.13-21.26,5.77-47.53,5.9s-47.59-2.3-47.61-5.43,21.26-5.77,47.53-5.9S1357.77,264.73,1357.79,267.86Z"/><path class="cls-126" d="M1356.93,267.86c0,3.1-21.06,5.72-47.08,5.85s-47.12-2.28-47.14-5.38,21-5.72,47.07-5.85S1356.91,264.76,1356.93,267.86Z"/><path class="cls-127" d="M1356.06,267.87c0,3.07-20.85,5.66-46.61,5.79s-46.67-2.26-46.69-5.33,20.86-5.66,46.62-5.79S1356,264.8,1356.06,267.87Z"/><path class="cls-128" d="M1355.2,267.87c0,3-20.65,5.61-46.15,5.73s-46.21-2.23-46.23-5.27,20.65-5.6,46.16-5.73S1355.18,264.83,1355.2,267.87Z"/><ellipse class="cls-129" cx="1308.61" cy="268.1" rx="45.73" ry="5.45" transform="translate(-1.32 6.53) rotate(-0.29)"/><path class="cls-130" d="M1353.47,267.88c0,3-20.23,5.49-45.23,5.62s-45.28-2.19-45.3-5.17,20.23-5.49,45.23-5.62S1353.45,264.9,1353.47,267.88Z"/><ellipse class="cls-131" cx="1307.8" cy="268.11" rx="44.8" ry="5.34" transform="translate(-1.32 6.53) rotate(-0.29)"/><path class="cls-132" d="M1351.74,267.89c0,2.91-19.82,5.38-44.31,5.5s-44.35-2.14-44.37-5.06,19.82-5.38,44.3-5.5S1351.72,265,1351.74,267.89Z"/><path class="cls-133" d="M1350.87,267.89c0,2.89-19.61,5.33-43.84,5.45s-43.9-2.12-43.91-5,19.61-5.33,43.84-5.45S1350.85,265,1350.87,267.89Z"/><path class="cls-134" d="M1350,267.89c0,2.86-19.41,5.27-43.39,5.4s-43.43-2.1-43.45-5,19.41-5.27,43.39-5.39S1350,265,1350,267.89Z"/><path class="cls-135" d="M1349.14,267.9c0,2.83-19.2,5.21-42.92,5.33s-43-2.07-43-4.9,19.2-5.22,42.93-5.33S1349.12,265.07,1349.14,267.9Z"/><path class="cls-136" d="M1348.28,267.9c0,2.8-19,5.16-42.46,5.28s-42.51-2.06-42.53-4.85,19-5.16,42.46-5.28S1348.26,265.11,1348.28,267.9Z"/><path class="cls-137" d="M1347.41,267.91c0,2.76-18.78,5.1-42,5.22s-42-2-42.06-4.8,18.79-5.1,42-5.22S1347.39,265.14,1347.41,267.91Z"/><path class="cls-138" d="M1346.55,267.91c0,2.74-18.58,5-41.54,5.16s-41.58-2-41.6-4.74,18.58-5.05,41.54-5.16S1346.53,265.18,1346.55,267.91Z"/><path class="cls-139" d="M1345.68,267.92c0,2.7-18.37,5-41.07,5.1s-41.13-2-41.14-4.69,18.37-5,41.07-5.11S1345.66,265.21,1345.68,267.92Z"/><path class="cls-140" d="M1344.82,267.92c0,2.67-18.17,4.93-40.62,5.05s-40.66-2-40.67-4.64,18.16-4.94,40.61-5.05S1344.8,265.24,1344.82,267.92Z"/><path class="cls-141" d="M1344,267.92c0,2.65-18,4.88-40.15,5s-40.2-1.94-40.22-4.58,18-4.88,40.16-5S1343.93,265.28,1344,267.92Z"/><ellipse class="cls-142" cx="1303.36" cy="268.13" rx="39.72" ry="4.73" transform="translate(-1.32 6.5) rotate(-0.29)"/><path class="cls-143" d="M1342.22,267.93c0,2.59-17.55,4.77-39.23,4.88s-39.27-1.9-39.29-4.49,17.55-4.76,39.23-4.87S1342.2,265.35,1342.22,267.93Z"/><path class="cls-144" d="M1341.36,267.94c0,2.55-17.34,4.71-38.77,4.81s-38.81-1.87-38.83-4.43,17.34-4.71,38.77-4.81S1341.34,265.38,1341.36,267.94Z"/><ellipse class="cls-145" cx="1302.16" cy="268.13" rx="38.34" ry="4.57" transform="translate(-1.32 6.5) rotate(-0.29)"/><path class="cls-146" d="M1339.63,267.94c0,2.5-16.93,4.6-37.85,4.71s-37.89-1.83-37.9-4.33,16.93-4.59,37.84-4.7S1339.61,265.45,1339.63,267.94Z"/><path class="cls-147" d="M1338.76,268c0,2.46-16.72,4.54-37.38,4.64s-37.43-1.81-37.44-4.27,16.72-4.54,37.38-4.64S1338.74,265.49,1338.76,268Z"/><path class="cls-148" d="M1337.9,268c0,2.43-16.52,4.49-36.93,4.59s-37-1.79-37-4.22,16.52-4.48,36.93-4.59S1337.88,265.52,1337.9,268Z"/><path class="cls-149" d="M1337,268c0,2.4-16.31,4.43-36.46,4.53s-36.5-1.77-36.52-4.17,16.31-4.43,36.46-4.53S1337,265.56,1337,268Z"/><path class="cls-150" d="M1336.17,268c0,2.37-16.11,4.37-36,4.47s-36-1.74-36.06-4.11,16.1-4.37,36-4.47S1336.15,265.59,1336.17,268Z"/><ellipse class="cls-151" cx="1299.74" cy="268.14" rx="35.57" ry="4.24" transform="translate(-1.32 6.49) rotate(-0.29)"/><path class="cls-152" d="M1334.43,268c0,2.31-15.68,4.26-35.07,4.36s-35.12-1.7-35.13-4,15.69-4.26,35.08-4.36S1334.42,265.66,1334.43,268Z"/><path class="cls-153" d="M1333.57,268c0,2.28-15.48,4.21-34.62,4.3s-34.65-1.67-34.66-3.95,15.48-4.21,34.61-4.3S1333.56,265.69,1333.57,268Z"/><path class="cls-154" d="M1332.7,268c0,2.25-15.27,4.15-34.15,4.24s-34.19-1.65-34.2-3.9,15.27-4.15,34.15-4.24S1332.69,265.73,1332.7,268Z"/><path class="cls-155" d="M1331.84,268c0,2.22-15.07,4.09-33.69,4.19s-33.73-1.63-33.75-3.85,15.08-4.09,33.7-4.19S1331.83,265.76,1331.84,268Z"/><path class="cls-156" d="M1331,268c0,2.18-14.86,4-33.23,4.12s-33.26-1.6-33.28-3.79,14.87-4,33.23-4.13S1331,265.8,1331,268Z"/><path class="cls-157" d="M1330.11,268c0,2.16-14.66,4-32.77,4.07s-32.8-1.58-32.82-3.74,14.66-4,32.77-4.07S1330.1,265.83,1330.11,268Z"/><path class="cls-158" d="M1329.24,268c0,2.13-14.45,3.93-32.3,4s-32.35-1.56-32.36-3.69,14.45-3.93,32.31-4S1329.23,265.87,1329.24,268Z"/><path class="cls-159" d="M1328.38,268c0,2.1-14.25,3.87-31.85,3.95s-31.88-1.54-31.89-3.63,14.24-3.87,31.84-4S1328.37,265.9,1328.38,268Z"/><path class="cls-160" d="M1327.51,268c0,2.07-14,3.81-31.38,3.9s-31.42-1.52-31.43-3.58,14-3.82,31.38-3.9S1327.5,265.94,1327.51,268Z"/><path class="cls-161" d="M1326.65,268c0,2-13.83,3.75-30.92,3.84s-31-1.5-31-3.53,13.83-3.76,30.92-3.85S1326.64,266,1326.65,268Z"/><ellipse class="cls-162" cx="1295.3" cy="268.16" rx="30.48" ry="3.63" transform="translate(-1.32 6.46) rotate(-0.29)"/><path class="cls-163" d="M1324.92,268c0,2-13.42,3.65-30,3.73s-30-1.45-30.05-3.42,13.42-3.65,30-3.73S1324.91,266,1324.92,268Z"/><path class="cls-164" d="M1324.05,268c0,1.94-13.21,3.59-29.54,3.67s-29.57-1.43-29.58-3.38,13.21-3.58,29.54-3.67S1324,266.07,1324.05,268Z"/><path class="cls-165" d="M1323.19,268c0,1.92-13,3.54-29.08,3.62s-29.11-1.41-29.12-3.33,13-3.53,29.08-3.61S1323.18,266.11,1323.19,268Z"/><path class="cls-166" d="M1322.32,268c0,1.88-12.8,3.47-28.61,3.55s-28.65-1.38-28.66-3.27,12.8-3.47,28.61-3.55S1322.31,266.14,1322.32,268Z"/><path class="cls-167" d="M1321.46,268c0,1.86-12.6,3.42-28.16,3.5s-28.18-1.36-28.19-3.22,12.59-3.42,28.15-3.5S1321.45,266.18,1321.46,268Z"/><path class="cls-168" d="M1320.59,268c0,1.82-12.38,3.36-27.69,3.44s-27.72-1.34-27.73-3.17,12.38-3.36,27.69-3.44S1320.58,266.21,1320.59,268Z"/><ellipse class="cls-169" cx="1292.48" cy="268.18" rx="27.25" ry="3.25" transform="translate(-1.32 6.45) rotate(-0.29)"/><path class="cls-170" d="M1318.86,268c0,1.77-12,3.26-26.77,3.33s-26.8-1.3-26.81-3.06,12-3.25,26.77-3.32S1318.85,266.28,1318.86,268Z"/><path class="cls-171" d="M1318,268.05c0,1.73-11.77,3.19-26.31,3.27s-26.34-1.28-26.35-3,11.77-3.19,26.31-3.27S1318,266.32,1318,268.05Z"/><path class="cls-172" d="M1317.13,268.05c0,1.7-11.56,3.14-25.84,3.21s-25.88-1.25-25.89-2.95,11.56-3.14,25.85-3.21S1317.12,266.35,1317.13,268.05Z"/><path class="cls-173" d="M1316.27,268.06c0,1.67-11.36,3.08-25.39,3.15s-25.41-1.23-25.42-2.9,11.35-3.08,25.38-3.15S1316.26,266.38,1316.27,268.06Z"/><path class="cls-174" d="M1315.4,268.06c0,1.64-11.15,3-24.92,3.1s-25-1.21-25-2.85,11.15-3,24.92-3.1S1315.39,266.42,1315.4,268.06Z"/><path class="cls-175" d="M1314.54,268.06c0,1.61-11,3-24.47,3s-24.48-1.18-24.49-2.79,10.94-3,24.46-3S1314.53,266.45,1314.54,268.06Z"/><path class="cls-176" d="M1313.67,268.07c0,1.58-10.73,2.91-24,3s-24-1.16-24-2.74,10.73-2.92,24-3S1313.66,266.49,1313.67,268.07Z"/><path class="cls-177" d="M1312.81,268.07c0,1.55-10.53,2.86-23.54,2.93s-23.57-1.14-23.58-2.69,10.53-2.86,23.54-2.93S1312.8,266.52,1312.81,268.07Z"/><path class="cls-178" d="M1311.94,268.08c0,1.52-10.32,2.8-23.08,2.86s-23.1-1.11-23.11-2.63,10.32-2.81,23.08-2.87S1311.93,266.56,1311.94,268.08Z"/><path class="cls-179" d="M1311.07,268.08c0,1.49-10.11,2.75-22.61,2.81s-22.64-1.09-22.65-2.58,10.12-2.75,22.62-2.81S1311.07,266.59,1311.07,268.08Z"/><ellipse class="cls-180" cx="1288.04" cy="268.2" rx="22.17" ry="2.64" transform="translate(-1.32 6.43) rotate(-0.29)"/><path class="cls-181" d="M1309.34,268.09c0,1.43-9.7,2.63-21.69,2.69s-21.71-1-21.72-2.47,9.7-2.64,21.69-2.7S1309.34,266.66,1309.34,268.09Z"/><path class="cls-182" d="M1308.48,268.09c0,1.4-9.5,2.58-21.23,2.64s-21.25-1-21.26-2.42,9.49-2.58,21.23-2.64S1308.47,266.69,1308.48,268.09Z"/><path class="cls-183" d="M1307.61,268.1c0,1.36-9.29,2.52-20.76,2.58s-20.8-1-20.8-2.37,9.28-2.53,20.76-2.59S1307.61,266.73,1307.61,268.1Z"/><path class="cls-184" d="M1306.75,268.1c0,1.34-9.08,2.47-20.31,2.52s-20.33-1-20.34-2.32,9.09-2.46,20.31-2.52S1306.74,266.76,1306.75,268.1Z"/><path class="cls-185" d="M1305.88,268.11c0,1.3-8.87,2.41-19.84,2.46s-19.87-1-19.88-2.27,8.88-2.41,19.85-2.46S1305.88,266.8,1305.88,268.11Z"/><path class="cls-186" d="M1305,268.11c0,1.28-8.67,2.35-19.39,2.41s-19.4-.94-19.41-2.22,8.67-2.35,19.39-2.4S1305,266.83,1305,268.11Z"/><path class="cls-187" d="M1304.15,268.11c0,1.25-8.46,2.3-18.92,2.35s-18.94-.91-19-2.16,8.46-2.3,18.92-2.35S1304.15,266.87,1304.15,268.11Z"/><path class="cls-188" d="M1303.29,268.12c0,1.21-8.26,2.24-18.46,2.29s-18.48-.89-18.49-2.11,8.26-2.24,18.46-2.29S1303.28,266.9,1303.29,268.12Z"/><ellipse class="cls-189" cx="1284.41" cy="268.21" rx="18.01" ry="2.15" transform="translate(-1.32 6.41) rotate(-0.29)"/><path class="cls-190" d="M1301.56,268.13c0,1.15-7.85,2.13-17.54,2.18s-17.56-.85-17.56-2,7.84-2.13,17.53-2.18S1301.55,267,1301.56,268.13Z"/><ellipse class="cls-191" cx="1283.6" cy="268.22" rx="17.09" ry="2.04" transform="translate(-1.32 6.4) rotate(-0.29)"/><ellipse class="cls-192" cx="1283.2" cy="268.22" rx="16.63" ry="1.98" transform="translate(-1.32 6.4) rotate(-0.29)"/><path class="cls-193" d="M1299,268.14c0,1.06-7.22,2-16.15,2s-16.17-.79-16.18-1.85,7.23-2,16.15-2S1299,267.07,1299,268.14Z"/><path class="cls-194" d="M1298.1,268.14c0,1-7,1.91-15.69,1.95s-15.71-.76-15.72-1.79,7-1.91,15.69-1.95S1298.09,267.11,1298.1,268.14Z"/><path class="cls-195" d="M1297.23,268.15c0,1-6.81,1.85-15.23,1.89s-15.25-.74-15.25-1.74,6.81-1.85,15.23-1.89S1297.23,267.14,1297.23,268.15Z"/><path class="cls-196" d="M1296.37,268.15c0,1-6.61,1.79-14.77,1.84s-14.79-.72-14.79-1.69,6.6-1.8,14.77-1.84S1296.36,267.18,1296.37,268.15Z"/><path class="cls-197" d="M1295.5,268.16c0,.94-6.4,1.73-14.31,1.77s-14.32-.69-14.32-1.63,6.39-1.74,14.3-1.78S1295.5,267.21,1295.5,268.16Z"/><path class="cls-198" d="M1294.64,268.16c0,.91-6.2,1.68-13.85,1.72s-13.86-.67-13.87-1.58,6.2-1.68,13.85-1.72S1294.63,267.25,1294.64,268.16Z"/><path class="cls-199" d="M1293.77,268.16c0,.88-6,1.63-13.38,1.67s-13.4-.65-13.41-1.53,6-1.63,13.39-1.67S1293.77,267.28,1293.77,268.16Z"/><ellipse class="cls-200" cx="1279.97" cy="268.23" rx="12.93" ry="1.54" transform="translate(-1.32 6.39) rotate(-0.29)"/><path class="cls-201" d="M1292,268.17c0,.82-5.57,1.52-12.46,1.55s-12.48-.6-12.48-1.42,5.57-1.52,12.46-1.55S1292,267.35,1292,268.17Z"/><path class="cls-202" d="M1291.18,268.18c0,.79-5.37,1.45-12,1.49s-12-.58-12-1.37,5.37-1.46,12-1.5S1291.17,267.39,1291.18,268.18Z"/><path class="cls-203" d="M1290.31,268.18c0,.76-5.16,1.4-11.54,1.43s-11.55-.55-11.55-1.31,5.16-1.41,11.53-1.44S1290.31,267.42,1290.31,268.18Z"/><path class="cls-204" d="M1289.45,268.18c0,.73-5,1.35-11.08,1.38s-11.09-.54-11.09-1.27,5-1.34,11.07-1.37S1289.44,267.45,1289.45,268.18Z"/><path class="cls-205" d="M1288.58,268.19c0,.7-4.75,1.29-10.61,1.32s-10.63-.52-10.64-1.22S1272.08,267,1278,267,1288.58,267.49,1288.58,268.19Z"/><path class="cls-206" d="M1287.72,268.19c0,.67-4.55,1.24-10.16,1.26s-10.16-.49-10.17-1.16,4.54-1.23,10.16-1.26S1287.71,267.52,1287.72,268.19Z"/><path class="cls-207" d="M1286.85,268.2c0,.63-4.34,1.17-9.69,1.2s-9.7-.47-9.71-1.11,4.34-1.17,9.69-1.2S1286.85,267.56,1286.85,268.2Z"/><path class="cls-208" d="M1286,268.2c0,.61-4.12,1.12-9.23,1.15s-9.24-.45-9.24-1.06,4.13-1.12,9.23-1.14S1286,267.59,1286,268.2Z"/><path class="cls-209" d="M1285.12,268.2c0,.58-3.92,1.07-8.77,1.09s-8.78-.42-8.78-1,3.92-1.06,8.77-1.09S1285.12,267.63,1285.12,268.2Z"/><path class="cls-210" d="M1284.25,268.21c0,.55-3.71,1-8.3,1s-8.32-.4-8.32-.95,3.71-1,8.3-1S1284.25,267.66,1284.25,268.21Z"/><path class="cls-211" d="M1283.39,268.21c0,.52-3.51,1-7.85,1s-7.85-.38-7.85-.9,3.5-1,7.84-1S1283.39,267.7,1283.39,268.21Z"/><path class="cls-212" d="M1282.52,268.22c0,.48-3.3.89-7.38.91s-7.39-.35-7.4-.84,3.31-.9,7.39-.92S1282.52,267.73,1282.52,268.22Z"/><path class="cls-213" d="M1281.66,268.22c0,.46-3.1.84-6.92.86s-6.93-.33-6.94-.79,3.1-.84,6.93-.86S1281.66,267.77,1281.66,268.22Z"/><path class="cls-214" d="M1280.79,268.23c0,.42-2.89.78-6.46.8s-6.47-.31-6.47-.74,2.89-.78,6.46-.8S1280.79,267.8,1280.79,268.23Z"/><path class="cls-215" d="M1279.93,268.23c0,.39-2.69.73-6,.74s-6-.29-6-.68,2.68-.73,6-.75S1279.93,267.83,1279.93,268.23Z"/><path class="cls-216" d="M1279.06,268.23c0,.37-2.47.68-5.54.69s-5.54-.27-5.54-.63,2.48-.67,5.54-.69S1279.06,267.87,1279.06,268.23Z"/><path class="cls-217" d="M1278.2,268.24c0,.33-2.27.61-5.08.63s-5.08-.25-5.08-.58,2.27-.62,5.07-.63S1278.2,267.9,1278.2,268.24Z"/><path class="cls-218" d="M1277.33,268.24c0,.31-2.06.56-4.61.58s-4.62-.23-4.62-.53,2.06-.56,4.61-.58S1277.33,267.94,1277.33,268.24Z"/><path class="cls-219" d="M1276.47,268.25c0,.27-1.86.5-4.16.51s-4.15-.2-4.16-.47,1.86-.51,4.16-.52S1276.47,268,1276.47,268.25Z"/><path class="cls-220" d="M1275.6,268.25c0,.24-1.65.45-3.69.46s-3.7-.18-3.7-.42,1.65-.45,3.69-.46S1275.6,268,1275.6,268.25Z"/><path class="cls-221" d="M1274.74,268.25c0,.22-1.45.4-3.23.41s-3.24-.16-3.24-.37,1.45-.4,3.23-.4S1274.74,268,1274.74,268.25Z"/><path class="cls-222" d="M1273.87,268.26c0,.18-1.24.33-2.77.34s-2.77-.13-2.77-.31,1.24-.34,2.77-.35S1273.87,268.08,1273.87,268.26Z"/><path class="cls-223" d="M1273,268.26a5.18,5.18,0,0,1-2.31.29,5.06,5.06,0,0,1-2.31-.26,5,5,0,0,1,2.31-.29A5.1,5.1,0,0,1,1273,268.26Z"/><path class="cls-224" d="M1272.14,268.27a4.13,4.13,0,0,1-1.84.23,4.19,4.19,0,0,1-1.85-.21c0-.13.82-.23,1.84-.23S1272.14,268.14,1272.14,268.27Z"/><path class="cls-225" d="M1271.28,268.27a3,3,0,0,1-1.39.17c-.76,0-1.38-.06-1.38-.16a5.89,5.89,0,0,1,2.77,0Z"/><path class="cls-226" d="M1270.41,268.27c0,.07-.41.12-.92.12a2.09,2.09,0,0,1-.93-.11,2.09,2.09,0,0,1,.93-.11A2.11,2.11,0,0,1,1270.41,268.27Z"/><path class="cls-227" d="M1269.55,268.28a1,1,0,0,1-.47.06,1,1,0,0,1-.46-.06,1.07,1.07,0,0,1,.46,0A.94.94,0,0,1,1269.55,268.28Z"/></g></g><g class="cls-228"><polygon class="cls-229" points="1223.87 135.58 1208.66 128 1201.13 129.88 1216.33 137.46 1223.87 135.58"/><polygon class="cls-229" points="1220.22 93.47 1222.43 100.44 1237.64 108.02 1235.43 101.05 1220.22 93.47"/><polygon class="cls-229" points="1140.24 99.55 1155.45 107.13 1153.34 100.44 1138.13 92.86 1140.24 99.55"/><polygon class="cls-229" points="1225.16 109.06 1229.51 122.81 1218.37 125.58 1233.58 133.16 1244.72 130.39 1240.37 116.64 1225.16 109.06"/><polygon class="cls-229" points="1150.61 91.82 1147.48 81.94 1198.1 69.32 1182.89 61.74 1132.27 74.36 1135.4 84.24 1150.61 91.82"/><polygon class="cls-229" points="1186.37 133.56 1165.47 138.77 1159.6 120.22 1144.39 112.64 1156.93 152.27 1201.58 141.14 1186.37 133.56"/><polygon class="cls-229" points="1192.61 59.32 1207.81 66.9 1212.56 69.26 1227.77 76.84 1220.06 52.47 1192.61 59.32"/><polygon class="cls-229" points="1215.29 77.88 1217.5 84.85 1232.71 92.43 1230.5 85.46 1215.29 77.88"/></g><path class="cls-4" d="M1284.48,136.3h-29.42l10.58-9.38h29.42Zm-24-2h23.06l6.08-5.4h-23.06Z"/><path class="cls-4" d="M1290.25,83.75h-29.42l-10.93-9.7h29.42Zm-28.49-2h23.06l-6.43-5.71h-23.06Z"/><path class="cls-4" d="M1181.69,136.3h-29.42l-10.58-9.38h29.42Zm-28.49-2h23.06l-6.08-5.4h-23.06Z"/><path class="cls-4" d="M1303.54,119.39h-29.42l13.43-11.92-18.24-16.19h29.42L1317,107.47Zm-24-2h23.06l11.18-9.92-16-14.19h-23.06l16,14.19Z"/><path class="cls-4" d="M1162.63,119.39h-29.42l-13.43-11.92,57.06-50.64h29.42l-57.06,50.64Zm-28.49-2h23.06L1146,107.47l54.81-48.65h-23.06L1123,107.47Z"/><path class="cls-4" d="M1218.37,195l-52-46.19h29.42l22.63,20.08L1241,148.78h29.42Zm-46.62-44.2,46.62,41.38L1265,150.77h-23.06l-23.57,20.92-23.56-20.92Z"/><path class="cls-4" d="M1251.43,49.3h-66.11l33-29.34Zm-60.68-2H1246l-27.63-24.51Z"/><path class="cls-4" d="M1270.84,66.53h-29.42l-10.93-9.7h29.42Zm-28.49-2h23.06L1259,58.82h-23.06Z"/><g class="cls-228"><path class="cls-4" d="M1588.72,77h0a.91.91,0,0,0-.07-.14l0-.1a.93.93,0,0,1,0-.1,6.26,6.26,0,0,0-2.68-2.92l-.32-.16h0l-39.48-20.24L1506.6,33.08h0l-.33-.17a3.61,3.61,0,0,0-3.27-.13l-.07,0a.2.2,0,0,0-.08,0l-5.21,2.66,3,1.14-10.43,49.06a6.3,6.3,0,0,0,.57,3.92l0,.1s0,.07.05.1a6.17,6.17,0,0,0,2.67,2.91l78.75,40.37-.73,3.08,4.94-2.54.08,0a3.64,3.64,0,0,0,2-2.62l10.67-50.24A6.18,6.18,0,0,0,1588.72,77Z"/><path class="cls-230" d="M1568,136.19l-79.61-40.81a7,7,0,0,1-3.26-7.39l10.52-49.52c.61-2.85,3-4.16,5.46-2.93l79.61,40.81a7,7,0,0,1,3.26,7.4l-10.52,49.52C1572.89,136.12,1570.45,137.43,1568,136.19Z"/><path class="cls-231" d="M1580.44,76.19,1541,56l-12.38,58.21L1567.72,136c2.59,1.32,5.14.25,5.7-2.41l10.68-50.23A7,7,0,0,0,1580.44,76.19Z"/><path class="cls-232" d="M1501.47,35.71,1541,56l-12.3,57.85-39.9-18.25a7,7,0,0,1-3.67-7.2l10.68-50.24C1496.33,35.46,1498.89,34.38,1501.47,35.71Z"/><path class="cls-233" d="M1485.59,92.12a7.19,7.19,0,0,0,3.17,3.43l79,40.48a4.19,4.19,0,0,0,3.85.17l-35.38-57.85Z"/><path class="cls-234" d="M1583.6,79.61a7.2,7.2,0,0,0-3.16-3.42l-79-40.48a4.13,4.13,0,0,0-3.85-.17L1533,93.39Z"/></g><path class="cls-4" d="M1219.92,119.58h0c0-.12.11-.24.17-.36a2.72,2.72,0,0,1,.11-.25c0-.09.09-.18.13-.26a15.71,15.71,0,0,1,6.76-7.36l.82-.42h0l99.73-51.13,99.74-51.12h0l.82-.42a9.12,9.12,0,0,1,8.25-.34,1.76,1.76,0,0,0,.2.09,1.24,1.24,0,0,0,.2.1L1450,14.85l-7.59,2.86,26.34,123.94a15.77,15.77,0,0,1-1.43,9.9l-.12.26-.12.25a15.67,15.67,0,0,1-6.76,7.36l-198.93,102,1.84,7.78-12.48-6.41-.19-.1a9.15,9.15,0,0,1-5-6.63l-27-126.91A15.65,15.65,0,0,1,1219.92,119.58Z"/><path class="cls-235" d="M1272.15,269.16l201.12-103.09c6.08-3.12,9.77-11.48,8.24-18.68l-26.59-125.1c-1.53-7.2-7.7-10.51-13.78-7.39L1240,118c-6.08,3.12-9.77,11.48-8.24,18.68l26.59,125.1C1259.9,269,1266.07,272.28,1272.15,269.16Z"/><path class="cls-236" d="M1240.85,117.57l99.73-51.13,31.25,147.06L1273,268.74c-6.53,3.35-13,.63-14.41-6.07l-27-126.9C1230.17,129.07,1234.31,120.92,1240.85,117.57Z"/><path class="cls-237" d="M1440.32,15.32l-99.74,51.12,31.06,146.14,100.8-46.09c6.54-3.35,10.68-11.5,9.26-18.2l-27-126.9C1453.31,14.69,1446.85,12,1440.32,15.32Z"/><path class="cls-238" d="M1480.43,157.83a18,18,0,0,1-8,8.66L1273,268.74c-3.53,1.81-7,1.83-9.73.43L1352.61,123Z"/><path class="cls-239" d="M1232.86,126.22a18.06,18.06,0,0,1,8-8.65L1440.32,15.32c3.53-1.81,7-1.84,9.73-.43L1360.68,161Z"/><polygon class="cls-4" points="1573.19 159.03 1571.3 157.35 1573.19 155.67 1575.08 157.35 1573.19 159.03"/><polygon class="cls-4" points="1580.02 159.01 1578.13 157.33 1580.02 155.65 1581.91 157.33 1580.02 159.01"/><polygon class="cls-4" points="1576.61 155.99 1574.72 154.31 1576.61 152.63 1578.5 154.31 1576.61 155.99"/><polygon class="cls-4" points="1576.59 162.05 1574.7 160.37 1576.59 158.69 1578.48 160.37 1576.59 162.05"/><path class="cls-4" d="M1726.91,144.42l-3.14-2.79,8.07-7.15-8.07-7.16,3.14-2.79,11.21,9.95Zm-2.23-2.79,2.23,2,10.3-9.14-10.3-9.15-2.23,2,8.06,7.16Z"/><polygon class="cls-240" points="1714.41 124.93 1711.72 127.32 1719.79 134.48 1711.72 141.63 1714.41 144.02 1722.48 136.86 1725.16 134.48 1714.41 124.93"/><path class="cls-4" d="M1021.4,144.42l-11.21-9.94,11.21-9.95,3.14,2.79-8.07,7.16,8.07,7.15Zm-10.3-9.94,10.3,9.14,2.23-2-8.06-7.15,8.06-7.16-2.23-2Z"/><polygon class="cls-240" points="1033.9 144.02 1036.59 141.63 1028.52 134.48 1036.59 127.32 1033.9 124.93 1025.83 132.09 1023.15 134.48 1033.9 144.02"/><rect class="cls-4" x="1509.28" y="209.11" width="28.4" height="4.09"/><rect class="cls-4" x="1544.23" y="209.11" width="28.4" height="4.09"/><path class="cls-4" d="M1534.1,223.48h-24.91v-5.35h24.91Zm-23.48-1.27h22.05v-2.82h-22.05Z"/><rect class="cls-4" x="1509.28" y="228.18" width="7.69" height="4.09"/><path class="cls-4" d="M570.62,140.16c0-19.65,13.52-30.83,28.3-30.83a25.88,25.88,0,0,1,18.21,7.75L609,127c-2.89-2.52-5.77-4.33-9.74-4.33-6.85,0-12.79,6.31-12.79,17,0,11,5,17.12,12.61,17.12a14.63,14.63,0,0,0,10.64-5l8.11,9.73a24.71,24.71,0,0,1-19.29,8.65C583.6,170.08,570.62,160.17,570.62,140.16Z"/><path class="cls-4" d="M622.36,146.47c0-15,10.82-23.62,22.35-23.62s22.36,8.66,22.36,23.62-10.82,23.61-22.36,23.61S622.36,161.43,622.36,146.47Zm28.84,0c0-6.85-1.8-11.18-6.49-11.18s-6.48,4.33-6.48,11.18,1.8,11.17,6.48,11.17S651.2,153.32,651.2,146.47Z"/><path class="cls-4" d="M675.18,123.93H687.8l1.08,5.41h.36c3.61-3.42,8.12-6.49,14.25-6.49,9.91,0,14.06,7.21,14.06,18.39V169H702V143.22c0-5.77-1.44-7.21-4.5-7.21-2.89,0-4.51,1.26-6.85,3.43V169H675.18Z"/><path class="cls-4" d="M729.63,151.7V136h-6V124.48l6.85-.55,1.8-11.71h12.8v11.71H755.4V136H745.13v15.41c0,5,2.52,6.58,5.41,6.58a12.94,12.94,0,0,0,4-.72l2.35,11.18a34.14,34.14,0,0,1-10.64,1.62C734.49,170.08,729.63,162.69,729.63,151.7Z"/><path class="cls-4" d="M760.1,156.2c0-9.37,7.21-14.6,24.51-16.4-.36-3.25-2.34-4.69-6.31-4.69-3.24,0-6.67,1.26-11.35,3.79l-5.41-10.1c6.31-3.78,12.8-6,19.83-6,11.71,0,18.74,6.31,18.74,21.09V169H787.5l-1.09-4.33h-.36c-3.6,3.25-7.57,5.41-12.43,5.41C765.14,170.08,760.1,163.59,760.1,156.2Zm24.51-1.08V149c-7.39,1.08-9.73,3.43-9.73,5.95,0,2.07,1.44,3.24,4.14,3.24C781.55,158.18,783,156.92,784.61,155.12Z"/><path class="cls-4" d="M807.87,146.47c0-15,11.36-23.62,24.15-23.62a19.83,19.83,0,0,1,13.16,4.69L838,137.45c-2-1.62-3.42-2.16-5-2.16-5.77,0-9.2,4.33-9.2,11.18s3.79,11.17,8.65,11.17a12.59,12.59,0,0,0,7.22-2.88l5.94,10.09a22.63,22.63,0,0,1-15,5.23C817.78,170.08,807.87,161.43,807.87,146.47Z"/><path class="cls-4" d="M853.84,151.7V136h-6V124.48l6.85-.55,1.8-11.71h12.8v11.71h10.28V136H869.34v15.41c0,5,2.53,6.58,5.41,6.58a13.07,13.07,0,0,0,4-.72l2.34,11.18a34.08,34.08,0,0,1-10.64,1.62C858.71,170.08,853.84,162.69,853.84,151.7Z"/><path class="cls-4" d="M906.84,140.7V110.41h15.5V142.5c0,10.46,2.71,14.24,8.84,14.24s9-3.78,9-14.24V110.41h15V140.7c0,20-7.57,29.38-24,29.38S906.84,160.71,906.84,140.7Z"/><path class="cls-4" d="M962,163.77l6.85-9.55c4.14,3.06,7.84,4.51,11,4.51s4.51-.91,4.51-2.71c0-2.34-4.15-3.42-8.65-5.23-5.23-2.07-11.36-5.94-11.36-13.34,0-8.83,7.21-14.6,17.85-14.6,7.39,0,12.62,3,16.58,6l-6.85,9.2c-3.24-2.35-6.4-3.79-9.19-3.79-2.62,0-4,.72-4,2.52,0,2.35,4,3.25,8.47,4.87,5.41,2,11.54,5.41,11.54,13.52,0,8.47-6.67,15-19.29,15A30,30,0,0,1,962,163.77Z"/></g></g></svg>