<svg id="Layer_1" data-name="Layer 1" xmlns="http://www.w3.org/2000/svg" viewBox="0 0 2000 800"><defs><style>.cls-1{fill:#e7f3fd;}.cls-2{fill:#b4d5da;}.cls-3{fill:#82c1d0;}.cls-4{fill:#f7eadb;}.cls-5{fill:#006a88;}.cls-6{fill:#1e2527;}.cls-7{fill:#008aa6;}.cls-8{fill:#f18b31;}</style></defs><rect class="cls-1" x="-2.26" y="1.3" width="2000" height="800"/><path class="cls-2" d="M896.73,525.72c34.94,104.91,141,182.29,254.31,171C1303.65,689.43,1450.48,549,1603.7,618c113,61.08,237.18,34.59,255-105.8,25.21-114.8-67.35-276.53-164.61-337.36-112-67.11-247.13-93.19-377-94.57C1081.62,69.91,815.79,275.76,896.73,525.72Z"/><path class="cls-3" d="M1274.72,613.5v73.24c0,10.48-62.93,19-140.55,19s-140.56-8.49-140.56-19V613.5c0,10.48,62.93,19,140.56,19S1274.72,624,1274.72,613.5Z"/><ellipse class="cls-4" cx="1134.17" cy="613.5" rx="140.56" ry="18.97"/><path class="cls-5" d="M1247.42,576.9v35.26c0,5.05-50.71,9.14-113.25,9.14s-113.25-4.09-113.25-9.14V576.9c0-5,50.7-9.14,113.25-9.14S1247.42,571.85,1247.42,576.9Z"/><path class="cls-3" d="M1274.72,512.16V585.4c0,10.48-62.93,19-140.55,19s-140.56-8.49-140.56-19V512.16c0,10.48,62.93,19,140.56,19S1274.72,522.64,1274.72,512.16Z"/><ellipse class="cls-4" cx="1134.17" cy="512.16" rx="140.56" ry="18.97"/><path class="cls-5" d="M1247.42,475.55v35.27c0,5.05-50.71,9.14-113.25,9.14s-113.25-4.09-113.25-9.14V475.55c0-5,50.7-9.13,113.25-9.13S1247.42,470.51,1247.42,475.55Z"/><path class="cls-3" d="M1274.72,398.26V471.5c0,10.48-62.93,19-140.55,19s-140.56-8.49-140.56-19V398.26c0,10.48,62.93,19,140.56,19S1274.72,408.74,1274.72,398.26Z"/><ellipse class="cls-4" cx="1134.17" cy="398.26" rx="140.56" ry="18.97"/><path class="cls-6" d="M1021.41,461a18,18,0,1,1,18-18A18,18,0,0,1,1021.41,461Zm0-34.41a16.41,16.41,0,1,0,16.4,16.4A16.42,16.42,0,0,0,1021.41,426.61Z"/><circle class="cls-7" cx="1020.92" cy="558.26" r="17.2"/><path class="cls-6" d="M1020.92,677.61a18,18,0,1,1,18-18A18,18,0,0,1,1020.92,677.61Zm0-34.41a16.41,16.41,0,1,0,16.4,16.41A16.43,16.43,0,0,0,1020.92,643.2Z"/><rect class="cls-4" x="1068.88" y="438.69" width="157.16" height="5.67" rx="1.77"/><rect class="cls-4" x="1068.88" y="454.55" width="157.16" height="5.67" rx="1.77"/><rect class="cls-4" x="1066.88" y="553.94" width="157.16" height="5.67" rx="1.77"/><rect class="cls-4" x="1066.88" y="569.8" width="157.16" height="5.67" rx="1.77"/><rect class="cls-4" x="1066.88" y="654.23" width="157.16" height="5.67" rx="1.77"/><rect class="cls-4" x="1066.88" y="670.08" width="157.16" height="5.67" rx="1.77"/><path class="cls-3" d="M1785.33,643.46v50.47c0,7.23-43.37,13.08-96.86,13.08s-96.86-5.85-96.86-13.08V643.46c0,7.22,43.37,13.07,96.86,13.07S1785.33,650.68,1785.33,643.46Z"/><ellipse class="cls-4" cx="1688.47" cy="643.46" rx="96.86" ry="13.07"/><path class="cls-5" d="M1766.52,618.23v24.31c0,3.48-35,6.29-78,6.29s-78-2.81-78-6.29V618.23c0-3.47,34.95-6.29,78-6.29S1766.52,614.76,1766.52,618.23Z"/><path class="cls-3" d="M1785.33,573.62V624.1c0,7.22-43.37,13.07-96.86,13.07s-96.86-5.85-96.86-13.07V573.62c0,7.22,43.37,13.07,96.86,13.07S1785.33,580.84,1785.33,573.62Z"/><ellipse class="cls-4" cx="1688.47" cy="573.62" rx="96.86" ry="13.07"/><path class="cls-5" d="M1766.52,548.4v24.3c0,3.48-35,6.29-78,6.29s-78-2.81-78-6.29V548.4c0-3.48,34.95-6.3,78-6.3S1766.52,544.92,1766.52,548.4Z"/><path class="cls-3" d="M1785.33,495.13V545.6c0,7.22-43.37,13.07-96.86,13.07s-96.86-5.85-96.86-13.07V495.13c0,7.22,43.37,13.07,96.86,13.07S1785.33,502.35,1785.33,495.13Z"/><ellipse class="cls-4" cx="1688.47" cy="495.13" rx="96.86" ry="13.07"/><path class="cls-6" d="M1610.76,538.63A12.66,12.66,0,1,1,1623.42,526,12.67,12.67,0,0,1,1610.76,538.63Zm0-23.72A11.06,11.06,0,1,0,1621.82,526,11.07,11.07,0,0,0,1610.76,514.91Z"/><circle class="cls-7" cx="1610.42" cy="605.39" r="11.86"/><path class="cls-6" d="M1610.42,687.89a12.66,12.66,0,1,1,12.66-12.66A12.67,12.67,0,0,1,1610.42,687.89Zm0-23.71a11.06,11.06,0,1,0,11.06,11.05A11.07,11.07,0,0,0,1610.42,664.18Z"/><path class="cls-4" d="M1305.56,175.71h0a.75.75,0,0,1-.65-.38l-11.42-19.77a.77.77,0,0,1,0-.75L1304.91,135a.74.74,0,0,1,.65-.37h0a.74.74,0,0,1,.64.37l11.45,19.77a.77.77,0,0,1,0,.75l-11.45,19.77A.75.75,0,0,1,1305.56,175.71ZM1295,155.19l10.56,18.28,10.58-18.28-10.58-18.28Z"/><path class="cls-4" d="M1279.67,149.78a6.43,6.43,0,1,1,6.43-6.43A6.43,6.43,0,0,1,1279.67,149.78Zm0-11.37a4.94,4.94,0,1,0,4.94,4.94A4.94,4.94,0,0,0,1279.67,138.41Z"/><path class="cls-4" d="M1300,124.41a5.56,5.56,0,1,1,5.56-5.56A5.56,5.56,0,0,1,1300,124.41Zm0-9.63a4.07,4.07,0,1,0,4.07,4.07A4.08,4.08,0,0,0,1300,114.78Z"/><path class="cls-4" d="M1274,127.18a4,4,0,1,1,4-4A4,4,0,0,1,1274,127.18Zm0-6.5a2.51,2.51,0,1,0,2.51,2.51A2.51,2.51,0,0,0,1274,120.68Z"/><path class="cls-4" d="M1501.53,211.28h0a.74.74,0,0,1-.65-.37l-8.74-15.13a.77.77,0,0,1,0-.75l8.74-15.12a.75.75,0,0,1,.65-.38h0a.74.74,0,0,1,.64.37l8.76,15.13a.72.72,0,0,1,0,.75l-8.76,15.13A.74.74,0,0,1,1501.53,211.28Zm-7.88-15.87,7.88,13.64,7.89-13.64-7.89-13.64Z"/><path class="cls-4" d="M1480.85,188.57a6.43,6.43,0,1,1,6.43-6.43A6.44,6.44,0,0,1,1480.85,188.57Zm0-11.37a4.94,4.94,0,1,0,4.94,4.94A4.94,4.94,0,0,0,1480.85,177.2Z"/><path class="cls-4" d="M1501.19,171.51a5.56,5.56,0,1,1,5.56-5.56A5.56,5.56,0,0,1,1501.19,171.51Zm0-9.63a4.07,4.07,0,1,0,4.07,4.07A4.08,4.08,0,0,0,1501.19,161.88Z"/><path class="cls-4" d="M1480.85,165.13a4,4,0,1,1,4-4A4,4,0,0,1,1480.85,165.13Zm0-6.5a2.51,2.51,0,1,0,2.5,2.51A2.5,2.5,0,0,0,1480.85,158.63Z"/><path class="cls-4" d="M1500.85,360.46h0a.76.76,0,0,1-.65-.37l-11.42-19.77a.77.77,0,0,1,0-.75l11.42-19.77a.76.76,0,0,1,.65-.37h0a.74.74,0,0,1,.64.37l11.45,19.77a.72.72,0,0,1,0,.75l-11.45,19.77A.74.74,0,0,1,1500.85,360.46Zm-10.56-20.52,10.56,18.28,10.58-18.28-10.58-18.28Z"/><path class="cls-4" d="M1496.79,311.4a5.56,5.56,0,1,1,5.56-5.56A5.57,5.57,0,0,1,1496.79,311.4Zm0-9.63a4.07,4.07,0,1,0,4.07,4.07A4.08,4.08,0,0,0,1496.79,301.77Z"/><path class="cls-4" d="M1523.16,334.12a4,4,0,1,1,4-4A4,4,0,0,1,1523.16,334.12Zm0-6.5a2.51,2.51,0,1,0,2.5,2.5A2.5,2.5,0,0,0,1523.16,327.62Z"/><path class="cls-4" d="M1524.59,313.44h0a.76.76,0,0,1-.65-.37l-7.17-12.42a.75.75,0,0,1,0-.74l7.17-12.42a.76.76,0,0,1,.65-.37h0a.76.76,0,0,1,.65.37l7.18,12.42a.7.7,0,0,1,0,.74l-7.18,12.42A.76.76,0,0,1,1524.59,313.44Zm-6.31-13.16,6.31,10.93,6.33-10.93-6.33-10.93Z"/><path class="cls-4" d="M1478.74,327.42a4,4,0,1,1,4-4A4,4,0,0,1,1478.74,327.42Zm0-6.5a2.5,2.5,0,1,0,2.51,2.5A2.5,2.5,0,0,0,1478.74,320.92Z"/><path class="cls-4" d="M998.07,297.15h0a.73.73,0,0,1-.64-.37l-8.74-15.13a.72.72,0,0,1,0-.75l8.74-15.12a.74.74,0,0,1,.64-.38h0a.76.76,0,0,1,.65.37l8.76,15.13a.77.77,0,0,1,0,.75l-8.76,15.13A.76.76,0,0,1,998.07,297.15Zm-7.88-15.87,7.88,13.64,7.9-13.64-7.9-13.64Z"/><path class="cls-4" d="M977.39,274.44a6.44,6.44,0,1,1,6.44-6.43A6.44,6.44,0,0,1,977.39,274.44Zm0-11.37a4.94,4.94,0,1,0,5,4.94A4.94,4.94,0,0,0,977.39,263.07Z"/><path class="cls-4" d="M997.74,257.38a5.56,5.56,0,1,1,5.56-5.56A5.57,5.57,0,0,1,997.74,257.38Zm0-9.63a4.07,4.07,0,1,0,4.06,4.07A4.07,4.07,0,0,0,997.74,247.75Z"/><path class="cls-4" d="M977.39,251a4,4,0,1,1,4-4A4,4,0,0,1,977.39,251Zm0-6.5A2.51,2.51,0,1,0,979.9,247,2.5,2.5,0,0,0,977.39,244.5Z"/><path class="cls-6" d="M1778.7,479.17h-9.6a.8.8,0,1,1,0-1.6h9.6a.8.8,0,0,1,0,1.6Zm-19.2,0h-9.6a.8.8,0,0,1,0-1.6h9.6a.8.8,0,0,1,0,1.6Zm-19.19-.16h-.1a21.33,21.33,0,0,1-9.25-3.45.79.79,0,0,1-.22-1.11.8.8,0,0,1,1.11-.22,19.73,19.73,0,0,0,8.56,3.2.79.79,0,0,1,.69.89A.8.8,0,0,1,1740.31,479Zm48-.09a.8.8,0,0,1-.13-1.59,16.89,16.89,0,0,0,8.2-3.83.81.81,0,0,1,1.13.09.8.8,0,0,1-.09,1.13,18.49,18.49,0,0,1-9,4.19Zm-102.59-2a.8.8,0,0,1-.8-.8v-9.6a.8.8,0,0,1,1.6,0v9.6A.8.8,0,0,1,1685.7,476.93Zm39.24-8.23a.8.8,0,0,1-.7-.4,21.37,21.37,0,0,1-2.72-9.5.8.8,0,0,1,.76-.84.77.77,0,0,1,.83.77,19.6,19.6,0,0,0,2.53,8.78.81.81,0,0,1-.31,1.09A.78.78,0,0,1,1724.94,468.7Zm77.26-1.64a.78.78,0,0,1-.26,0,.8.8,0,0,1-.5-1,16.82,16.82,0,0,0,.88-5.42v-3.82a.8.8,0,0,1,1.6,0v3.82a18.66,18.66,0,0,1-1,5.94A.81.81,0,0,1,1802.2,467.06Zm-116.48-9.33h0a.8.8,0,0,1-.76-.84,19.07,19.07,0,0,1,3-9.43.8.8,0,0,1,1.35.87,17.55,17.55,0,0,0-2.77,8.64A.79.79,0,0,1,1685.72,457.73Zm34.58-7.45a.83.83,0,0,1-.72-.43,17.46,17.46,0,0,0-6.08-6.74.8.8,0,0,1-.23-1.11.79.79,0,0,1,1.1-.23,19.18,19.18,0,0,1,6.64,7.35.8.8,0,0,1-.35,1.07A.77.77,0,0,1,1720.3,450.28Zm82.82-2.32a.8.8,0,0,1-.8-.8v-9.6a.8.8,0,0,1,1.6,0v9.6A.8.8,0,0,1,1803.12,448Zm-107.48-5.64a.83.83,0,0,1-.72-.43.81.81,0,0,1,.35-1.08,18.89,18.89,0,0,1,9.68-2.08.8.8,0,0,1,.76.84.75.75,0,0,1-.84.76,17.33,17.33,0,0,0-8.87,1.9A.8.8,0,0,1,1695.64,442.32Zm107.48-13.56a.8.8,0,0,1-.8-.8v-9.6a.8.8,0,0,1,1.6,0V428A.8.8,0,0,1,1803.12,428.76Zm0-19.2a.8.8,0,0,1-.8-.8v-9.6a.8.8,0,0,1,1.6,0v9.6A.8.8,0,0,1,1803.12,409.56Zm0-19.2a.8.8,0,0,1-.8-.8V380a.8.8,0,1,1,1.6,0v9.6A.8.8,0,0,1,1803.12,390.36Zm0-19.2a.8.8,0,0,1-.8-.8v-9.6a.8.8,0,0,1,1.6,0v9.6A.8.8,0,0,1,1803.12,371.16Zm-.27-19.18a.8.8,0,0,1-.79-.67,19.54,19.54,0,0,0-3.56-8.41.8.8,0,1,1,1.29-.95,21.15,21.15,0,0,1,3.85,9.1.8.8,0,0,1-.66.92Zm-11-14.89a.8.8,0,0,1-.36-.09,19.42,19.42,0,0,0-8.81-2.08.84.84,0,0,1-.84-.8.76.76,0,0,1,.76-.8,21.16,21.16,0,0,1,9.61,2.25.8.8,0,0,1-.36,1.52Z"/><path class="cls-6" d="M944.14,570.6h0c-.68,0-1.34,0-2-.1a.8.8,0,0,1-.72-.87.82.82,0,0,1,.87-.72c.61.06,1.23.09,1.85.09h0a18.8,18.8,0,0,0,7.16-1.41.8.8,0,0,1,1.05.43.81.81,0,0,1-.44,1.05A20.42,20.42,0,0,1,944.14,570.6Zm-10.89-3.28a.8.8,0,0,1-.44-.13,20.66,20.66,0,0,1-6.68-7.29.8.8,0,1,1,1.4-.77,19,19,0,0,0,6.17,6.73.8.8,0,0,1,.22,1.1A.78.78,0,0,1,933.25,567.32Zm26-3.82a.77.77,0,0,1-.51-.19.79.79,0,0,1-.1-1.12,18.87,18.87,0,0,0,4-8.21.8.8,0,0,1,1.57.32,20.51,20.51,0,0,1-4.3,8.91A.81.81,0,0,1,959.26,563.5Zm-34.81-12.38a.79.79,0,0,1-.8-.79v-9.61a.8.8,0,0,1,1.6,0v9.59a.81.81,0,0,1-.79.81Zm39.36-5.75a.8.8,0,0,1-.8-.8V535a.8.8,0,0,1,1.6,0v9.6A.8.8,0,0,1,963.81,545.37Zm-39.36-13.45a.8.8,0,0,1-.8-.8v-9.6a.8.8,0,1,1,1.6,0v9.6A.8.8,0,0,1,924.45,531.92Zm39.36-5.75a.8.8,0,0,1-.8-.8v-9.6a.8.8,0,1,1,1.6,0v9.6A.8.8,0,0,1,963.81,526.17Zm-39.36-13.45a.8.8,0,0,1-.8-.8v-9.6a.8.8,0,1,1,1.6,0v9.6A.8.8,0,0,1,924.45,512.72ZM963.81,507a.8.8,0,0,1-.8-.8v-9.6a.8.8,0,0,1,1.6,0v9.6A.8.8,0,0,1,963.81,507Zm-39.36-13.45a.8.8,0,0,1-.8-.8v-9.6a.8.8,0,1,1,1.6,0v9.6A.8.8,0,0,1,924.45,493.52Zm39.36-5.75a.8.8,0,0,1-.8-.8v-9.6a.8.8,0,0,1,1.6,0V487A.8.8,0,0,1,963.81,487.77Zm-39.36-13.45a.8.8,0,0,1-.8-.8v-9.6a.8.8,0,1,1,1.6,0v9.6A.8.8,0,0,1,924.45,474.32Zm39.36-5.75a.8.8,0,0,1-.8-.8v-9.6a.8.8,0,0,1,1.6,0v9.6A.8.8,0,0,1,963.81,468.57Zm-39.36-13.45a.8.8,0,0,1-.8-.8v-9.6a.8.8,0,1,1,1.6,0v9.6A.8.8,0,0,1,924.45,455.12Zm39.36-5.75a.8.8,0,0,1-.8-.8V439a.8.8,0,0,1,1.6,0v9.6A.8.8,0,0,1,963.81,449.37Zm-39.36-13.45a.8.8,0,0,1-.8-.8v-9.6a.8.8,0,1,1,1.6,0v9.6A.8.8,0,0,1,924.45,435.92Zm39.36-5.75a.8.8,0,0,1-.8-.8v-9.6a.8.8,0,1,1,1.6,0v9.6A.8.8,0,0,1,963.81,430.17Zm-39.36-13.45a.8.8,0,0,1-.8-.8v-9.6a.8.8,0,1,1,1.6,0v9.6A.8.8,0,0,1,924.45,416.72ZM963.81,411a.8.8,0,0,1-.8-.8v-9.6a.8.8,0,0,1,1.6,0v9.6A.8.8,0,0,1,963.81,411Zm-39.36-13.45a.8.8,0,0,1-.8-.8v-1.37a18.7,18.7,0,0,0-1.63-7.67.8.8,0,0,1,1.47-.65,20.47,20.47,0,0,1,1.76,8.32v1.37A.8.8,0,0,1,924.45,397.52Zm39.72-5.72-.15,0a.79.79,0,0,1-.63-.94,20.43,20.43,0,0,1,4.19-9,.8.8,0,0,1,1.24,1,18.82,18.82,0,0,0-3.86,8.26A.8.8,0,0,1,964.17,391.8Zm-47.26-11.14a.75.75,0,0,1-.49-.17,18.92,18.92,0,0,0-8.32-3.73.8.8,0,0,1,.28-1.58,20.61,20.61,0,0,1,9,4.05.82.82,0,0,1,.13,1.13A.8.8,0,0,1,916.91,380.66Zm58.88-3.2a.8.8,0,0,1-.32-1.53,20.39,20.39,0,0,1,8-1.63c.54,0,1.08,0,1.61-.07a.8.8,0,1,1,.13,1.6c-.57,0-1.15.07-1.74.07a18.71,18.71,0,0,0-7.39,1.5A.85.85,0,0,1,975.79,377.46Zm-77.13-1h-9.6a.8.8,0,0,1,0-1.6h9.6a.8.8,0,1,1,0,1.6Zm95.56-3.55a.79.79,0,0,1-.68-.39.8.8,0,0,1,.26-1.1,20.07,20.07,0,0,0,6.53-6.4.8.8,0,0,1,1.36.85,21.71,21.71,0,0,1-7.06,6.92A.78.78,0,0,1,994.22,372.91Zm9.89-15.66H1004a.81.81,0,0,1-.72-.88c.06-.65.1-1.32.1-2v-7.53a.8.8,0,1,1,1.6,0v7.53c0,.73,0,1.44-.11,2.15A.8.8,0,0,1,1004.11,357.25Zm.1-19.2a.79.79,0,0,1-.8-.8v-8.5q0-.57,0-1.14a.8.8,0,0,1,1.59.09c0,.34,0,.7,0,1.05v8.5A.8.8,0,0,1,1004.21,338.05Zm2.69-18.72a.86.86,0,0,1-.4-.11.81.81,0,0,1-.3-1.09,21.76,21.76,0,0,1,6.72-7.24.8.8,0,0,1,.9,1.32,20,20,0,0,0-6.22,6.71A.81.81,0,0,1,1006.9,319.33ZM1022.27,309a.8.8,0,0,1-.1-1.59,20.94,20.94,0,0,1,2.75-.18h6.94a.8.8,0,1,1,0,1.6h-6.94a21.69,21.69,0,0,0-2.55.16Z"/><rect class="cls-6" x="1344.8" y="618.02" width="142.11" height="62.05"/><path class="cls-5" d="M1337.68,356.11l-63.94,8.14a58,58,0,0,0-49.09,43.95l-9.43,77.64h66.27l-9.71,102.6,60.12,33.8h142.63l-16.31-113.86,9.19-36.18h53.08L1507,410.79a58.06,58.06,0,0,0-45.33-44.46l-51.14-10.22Z"/><path class="cls-4" d="M1359.19,539.21v45.08H1235.43a22.39,22.39,0,0,1-22.34-23.88l5-74.57h67l-4.73,37.95Z"/><polygon class="cls-6" points="1296.54 486.64 1258.07 486.64 1258.07 485.04 1295.2 485.04 1302.2 446.41 1303.78 446.69 1296.54 486.64"/><rect class="cls-6" x="1432.83" y="475.33" width="66.35" height="1.6" transform="translate(659.7 1789.8) rotate(-76.45)"/><rect class="cls-4" x="1612.78" y="330.1" width="18.31" height="73.63" rx="5.72" transform="translate(169.69 -443.2) rotate(16.41)"/><rect class="cls-4" x="1620.59" y="366.9" width="18.31" height="45.1" rx="5.72" transform="translate(244.21 -552.91) rotate(20.78)"/><rect class="cls-4" x="1632.52" y="376.27" width="18.31" height="45.84" rx="5.72" transform="translate(248.44 -556.5) rotate(20.78)"/><rect class="cls-4" x="1646.79" y="387.71" width="18.31" height="34.74" rx="5.72" transform="translate(595.87 -930.02) rotate(37.8)"/><rect class="cls-4" x="1609.65" y="367.59" width="18.31" height="45.84" rx="5.72" transform="translate(898.89 1892.09) rotate(-77.95)"/><path class="cls-4" d="M1652.44,415.56c-4.19,20.77-28.37,33.14-28.37,33.14l-71.37,80.49a54.17,54.17,0,0,1-43.07,21.28l-46.82-.73-6.67-45.81,10.3-32h45.7l1.79,5.9L1586.12,424l10.27-38.27Z"/><path class="cls-6" d="M1629.75,413.48h0a.79.79,0,0,1-.77-.83,9.91,9.91,0,0,1,.63-3.13l2.12-6.44a.8.8,0,1,1,1.52.5l-2.13,6.47a8.35,8.35,0,0,0-.54,2.66A.81.81,0,0,1,1629.75,413.48Z"/><path class="cls-6" d="M1636.74,422a9.9,9.9,0,0,1-8.55-4.95.8.8,0,0,1,.29-1.09.79.79,0,0,1,1.09.29,8.3,8.3,0,0,0,4.25,3.61,8.43,8.43,0,0,0,9.6-2.72.81.81,0,0,1,1.12-.15.8.8,0,0,1,.14,1.12A10,10,0,0,1,1636.74,422Z"/><path class="cls-6" d="M1650.88,421.51a9.84,9.84,0,0,1-6.07-2.07,11,11,0,0,1-1.36-1.28.8.8,0,1,1,1.2-1.06,8.36,8.36,0,0,0,12.86-.41.8.8,0,0,1,1.27,1,9.9,9.9,0,0,1-6.62,3.76A9.26,9.26,0,0,1,1650.88,421.51Z"/><path class="cls-6" d="M1629.09,421.21h0a.79.79,0,0,1-.78-.82,23.12,23.12,0,0,0-.2-3.64.79.79,0,0,1,.69-.89.78.78,0,0,1,.9.68,25.1,25.1,0,0,1,.21,3.89A.81.81,0,0,1,1629.09,421.21Z"/><path class="cls-6" d="M1628.88,417.45a.8.8,0,0,1-.79-.7c-1.56-11.68-11.92-17.26-12-17.31a.8.8,0,0,1-.37-1,.78.78,0,0,1,.94-.48l13.93,3.6a8.36,8.36,0,0,0,3.45-16.35l-26.92-5.75a.8.8,0,0,1-.62-.94.81.81,0,0,1,1-.62l26.93,5.75a10,10,0,0,1,7.65,11.81,10,10,0,0,1-11.81,7.66l-9.62-2.49a25.09,25.09,0,0,1,9.11,15.91.8.8,0,0,1-.69.9Z"/><path class="cls-6" d="M1626.78,383.65a.83.83,0,0,1-.22,0,.79.79,0,0,1-.54-1l4.23-14.38a.8.8,0,0,1,1.53.45l-4.23,14.38A.79.79,0,0,1,1626.78,383.65Z"/><path class="cls-6" d="M1639.9,388.38a.87.87,0,0,1-.28-.05.8.8,0,0,1-.47-1l3.72-9.92a.8.8,0,0,1,1-.47.81.81,0,0,1,.47,1l-3.72,9.92A.82.82,0,0,1,1639.9,388.38Z"/><path class="cls-6" d="M1644.05,418.43a.72.72,0,0,1-.29-.06.79.79,0,0,1-.45-1l9.7-24.66a.81.81,0,0,1,1-.45.8.8,0,0,1,.45,1l-9.7,24.65A.78.78,0,0,1,1644.05,418.43Z"/><path class="cls-6" d="M1456,246.53c-6.76,13.3-21.51,20.47-36.06,20a41.61,41.61,0,0,1-3.49,9.72,42.31,42.31,0,0,1-23,20.34c-9.11,3.28-20.11,3.39-27.56-3a44.22,44.22,0,0,1-22-1.79c-16.53-5.64-27.8-21.95-27.9-39.34,0-8.7,2.37-17.8,8.2-24.46,4.93-5.62,12.3-8.91,19.6-8.16a22.31,22.31,0,0,1-.21-5.17c.77-9.77,8.77-17.09,18.06-19,8.14-1.64,16.5,1.71,22.22,7.51a29.23,29.23,0,0,1,2.56-4.59c6.43-9.3,18.65-13.08,29.36-9.86a26.84,26.84,0,0,1,18.35,21.46,22.11,22.11,0,0,1,10.24,1.07C1458.49,216.12,1462.2,234.26,1456,246.53Z"/><path class="cls-4" d="M1321.48,301.2c4.35,11,12.35,17.17,22.7,14.41l-6.5,40.5,50,50,23.22-43-.93-18.29,7.8-7.19a58.41,58.41,0,0,0,18.65-47l-2.69-38.52a1.43,1.43,0,0,1-.27.09c-6.75,1.91-13.9,1.87-20.87,1.21-8.07-.75-16.12-2.35-23.45-5.78a9.82,9.82,0,0,1-2.62,6.11c-2.78,2.9-6.91,4.09-10.91,4.41a31.62,31.62,0,0,1-16.37-3.19q-3.78,10.69-8.26,21.12v.18l-.06-.05a22,22,0,0,0-13.74-5.37,19.7,19.7,0,0,0-7.66,1.39C1318.61,276.55,1316.82,289.42,1321.48,301.2Z"/><ellipse class="cls-6" cx="1424.74" cy="283.71" rx="5.76" ry="6.37" transform="translate(-16.29 99.81) rotate(-3.99)"/><ellipse class="cls-6" cx="1389.8" cy="286.15" rx="5.76" ry="6.37" transform="translate(-16.54 97.38) rotate(-3.99)"/><path class="cls-6" d="M1418.94,269.18a13.68,13.68,0,0,1,13,1.47,1.77,1.77,0,0,1-1.88,3,12.6,12.6,0,0,0-1.15-.75c-.19-.1-.39-.21-.59-.3l-.07,0-.32-.13a9.43,9.43,0,0,0-1.3-.43l-.66-.16-.11,0-.37-.05a12.44,12.44,0,0,0-1.36-.1h-.69l-.34,0h0s0,0,0,0a12.13,12.13,0,0,0-1.34.24l-.66.18-.33.11,0,0-.07,0a1.82,1.82,0,0,1-2.39-.71A1.78,1.78,0,0,1,1418.94,269.18Z"/><path class="cls-6" d="M1394.54,273.23a1.81,1.81,0,0,1-2.27,1l-.07,0h-.06l-.33-.06-.68-.08a12.56,12.56,0,0,0-1.37-.06h0l-.34,0-.68.08a12.12,12.12,0,0,0-1.33.29l-.36.1-.11,0-.63.24a10.05,10.05,0,0,0-1.23.61l-.3.17-.06,0c-.19.12-.37.25-.55.39a10.76,10.76,0,0,0-1,.89,1.77,1.77,0,0,1-2.27-2.71A13.67,13.67,0,0,1,1393.5,271,1.79,1.79,0,0,1,1394.54,273.23Z"/><polygon class="cls-6" points="1422.74 309.6 1403.72 308.47 1403.81 306.87 1420.52 307.86 1412.14 281 1413.67 280.52 1422.74 309.6"/><path class="cls-6" d="M1339.39,310.52a11.38,11.38,0,0,1-9.21-18.13,8.26,8.26,0,0,1,5.27-3.46,5.94,5.94,0,0,1,4.2.89,20,20,0,0,0-1.15-5.48,10.06,10.06,0,0,0-4.72-5.57,4.74,4.74,0,0,0-3.81-.36c-1.54.62-2.45,2.3-3.31,4.11l-1.45-.69c1-2,2.09-4.07,4.16-4.9a6.3,6.3,0,0,1,5.12.41,11.6,11.6,0,0,1,5.5,6.42,24.81,24.81,0,0,1,1.38,8.18l.12,3.44-1.62-3a4.05,4.05,0,0,0-4.17-1.84,6.85,6.85,0,0,0-4.23,2.83,9.78,9.78,0,0,0,8.56,15.55l.11,1.6Z"/><path class="cls-6" d="M1397.37,350.78a21.67,21.67,0,0,1-9.51-2.45,56.5,56.5,0,0,1-10.06-7l1-1.25a55.69,55.69,0,0,0,9.76,6.81c2.72,1.36,6.88,2.83,11.21,2.08,3.58-.62,6.74-2.56,10.39-5.29l1,1.28c-3.32,2.48-7,4.88-11.08,5.59A16.33,16.33,0,0,1,1397.37,350.78Z"/><path class="cls-6" d="M1403.09,322.73a20.66,20.66,0,0,1-16.19-13.36l1.51-.52a19,19,0,0,0,14.91,12.3Z"/><rect class="cls-3" x="1296.02" y="596.15" width="151.52" height="14.53"/><polygon class="cls-3" points="1545.17 610.68 1328.58 610.68 1360.58 480.8 1577.17 480.8 1545.17 610.68"/><rect class="cls-6" x="1296.02" y="595.35" width="252.28" height="1.6"/><path class="cls-5" d="M1607.55,718.59a40.67,40.67,0,0,1-35.34,17.64l-114.58-5-13.93-11.89,7.85-41.6,15.87-1.31,97.35-21.26a40.72,40.72,0,0,1,39.6,13.29l.52.61A40.69,40.69,0,0,1,1607.55,718.59Z"/><path class="cls-4" d="M1581.13,734.67,1580,733.5a54,54,0,0,0,15.81-26,44.18,44.18,0,0,0-2.91-30,37.38,37.38,0,0,0-22.71-19.28l.43-1.54a39,39,0,0,1,23.72,20.11,45.9,45.9,0,0,1,3,31.1A55.61,55.61,0,0,1,1581.13,734.67Z"/><path class="cls-6" d="M1464.17,722l-1.6,0A340.63,340.63,0,0,1,1466,683l1.59.23A339.78,339.78,0,0,0,1464.17,722Z"/><path class="cls-4" d="M1495,719.82a73.71,73.71,0,0,1,.37-37.11l1.55.42a71.9,71.9,0,0,0-.36,36.3Z"/><path class="cls-4" d="M1505.8,719a62.34,62.34,0,0,1,1.26-35.36l1.52.51a60.83,60.83,0,0,0-1.24,34.44Z"/><path class="cls-4" d="M1515.23,718.29a58.16,58.16,0,0,1,3.54-34.58l1.47.63A56.5,56.5,0,0,0,1516.8,718Z"/><path class="cls-6" d="M1557.07,727.6a48,48,0,0,1,.69-59.33l1.25,1a46.37,46.37,0,0,0-.67,57.36Z"/><path class="cls-6" d="M1434.42,657.69l-24.07,77.73-212.92-55.74a56.58,56.58,0,1,1,36.38-106.85Z"/><path class="cls-6" d="M1344.8,694.41l23,65,251.07-100.71a56.59,56.59,0,1,0-53.49-99.4Z"/><rect class="cls-4" x="1336.96" y="648.11" width="171.35" height="1.6" transform="translate(-128.3 847.81) rotate(-31.83)"/><rect class="cls-4" x="1377.86" y="589.93" width="1.6" height="88.93" transform="translate(251.12 1650.17) rotate(-66.72)"/><path class="cls-5" d="M1210.05,764.06a40.54,40.54,0,0,0,37.77,11.58L1360,751.83l11.78-14-14.59-39.74-15.86,1.31-99.53-4.92a40.69,40.69,0,0,0-36.87,19.63l-.41.68A40.7,40.7,0,0,0,1210.05,764.06Z"/><path class="cls-4" d="M1238.76,775.57a55.63,55.63,0,0,1-20.47-23.76,45.79,45.79,0,0,1-2.13-31.17,39,39,0,0,1,20.07-23.74l.69,1.44a37.36,37.36,0,0,0-19.23,22.76,44.19,44.19,0,0,0,2.07,30.07,54,54,0,0,0,19.88,23.07Z"/><path class="cls-6" d="M1352,743.81a337.33,337.33,0,0,0-9.74-37.66l1.53-.49a340.53,340.53,0,0,1,9.78,37.84Z"/><path class="cls-4" d="M1344.22,760.23a10,10,0,0,1-6-2.31c-4-3.16-6.37-8.31-7.42-15.75-.24-1.68-.41-3.37-.58-5.07a51.39,51.39,0,0,0-2.12-11.76l.41-.14,0-.16-.59-.48.43-.53c-1.84-11.38-3.59-23.11-2-34.8.39-2.87,1.28-6.88,4.48-8.66a7.74,7.74,0,0,1,8.55,1.18,13.38,13.38,0,0,1,4.14,7.53c1.72,7.65-.71,15-3,19.79-2.74,5.64-6.61,10.62-10.45,15.41,0,.16,0,.33.08.49,10.17,4.6,17.84,13.86,20.08,24.26.47,2.16,1.16,7.46-2.47,10A6,6,0,0,1,1344.22,760.23Zm-14-33.43a62.87,62.87,0,0,1,1.59,10.14c.17,1.68.33,3.35.57,5,1,7,3.23,11.83,6.84,14.72,2.07,1.67,5.32,2.75,7.58,1.2,2.82-2,2.2-6.46,1.81-8.3C1346.52,739.93,1339.53,731.31,1330.21,726.8Zm3.82-45.44a5,5,0,0,0-2.45.6c-2.58,1.44-3.33,5-3.68,7.48-1.5,11,0,22.09,1.76,32.91a77.49,77.49,0,0,0,9.35-14c2.22-4.57,4.53-11.54,2.92-18.74a11.79,11.79,0,0,0-3.61-6.65A6.77,6.77,0,0,0,1334,681.36Z"/><path class="cls-4" d="M1321.24,746.74l-1.6-.13a72,72,0,0,0-6.34-35.75l1.46-.66A73.64,73.64,0,0,1,1321.24,746.74Z"/><path class="cls-4" d="M1310.48,747.66l-1.59-.14a60.81,60.81,0,0,0-6.9-33.76l1.41-.76A62.37,62.37,0,0,1,1310.48,747.66Z"/><path class="cls-4" d="M1301.06,748.56l-1.6-.07a56.5,56.5,0,0,0-8.93-32.59l1.34-.87A58.15,58.15,0,0,1,1301.06,748.56Z"/><path class="cls-6" d="M1261.33,764.64l-1.41-.75a46.39,46.39,0,0,0-10.11-56.47l1.06-1.19a48,48,0,0,1,10.46,58.41Z"/><path class="cls-6" d="M1771.94,434.71H1572.6V193.44h199.34Zm-197.74-1.6h196.14V195H1574.2Z"/><rect class="cls-5" x="1578.87" y="199.14" width="186.81" height="26.02"/><path class="cls-4" d="M1731.61,221a1.16,1.16,0,0,1-.7-.24l-9.72-7.77a1.09,1.09,0,0,1-.42-.87,1.11,1.11,0,0,1,.42-.88l9.6-7.67a1.12,1.12,0,0,1,1.4,1.75l-8.51,6.8,8.63,6.89a1.12,1.12,0,0,1-.7,2Z"/><path class="cls-4" d="M1746.5,221a1.12,1.12,0,0,1-.69-2l8.62-6.89-8.5-6.8a1.12,1.12,0,0,1-.18-1.57,1.14,1.14,0,0,1,1.58-.18l9.6,7.67a1.14,1.14,0,0,1,.42.88,1.12,1.12,0,0,1-.42.87l-9.73,7.77A1.12,1.12,0,0,1,1746.5,221Z"/><path class="cls-4" d="M1736.87,223a1.15,1.15,0,0,1-.48,0,1.12,1.12,0,0,1-.74-1.4l6-19.57a1.12,1.12,0,1,1,2.14.66l-6,19.57A1.12,1.12,0,0,1,1736.87,223Z"/><rect class="cls-3" x="1578.87" y="243.17" width="100.43" height="8.23"/><rect class="cls-5" x="1683.85" y="243.17" width="48.88" height="8.23"/><rect class="cls-6" x="1737.75" y="243.17" width="27.93" height="8.23"/><polyline class="cls-3" points="1765.93 270.08 1697.51 270.08 1697.51 261.85 1765.93 261.85"/><rect class="cls-5" x="1644.07" y="261.85" width="48.88" height="8.23" transform="translate(3337.02 531.93) rotate(180)"/><polyline class="cls-6" points="1579.12 261.85 1639.05 261.85 1639.05 270.08 1579.12 270.08"/><rect class="cls-5" x="1579.12" y="282.09" width="36.43" height="8.23"/><rect class="cls-3" x="1620.11" y="282.09" width="101.68" height="8.23"/><rect class="cls-6" x="1726.81" y="282.09" width="39.13" height="8.23"/><polyline class="cls-3" points="1766.19 309 1736.16 309 1736.16 300.77 1766.19 300.77"/><rect class="cls-5" x="1644.32" y="300.77" width="87.28" height="8.23" transform="translate(3375.93 609.77) rotate(180)"/><polyline class="cls-6" points="1579.38 300.77 1639.3 300.77 1639.3 309 1579.38 309"/><rect class="cls-3" x="1579.38" y="332.06" width="100.43" height="8.23"/><rect class="cls-5" x="1684.36" y="332.06" width="48.88" height="8.23"/><rect class="cls-6" x="1738.26" y="332.06" width="27.93" height="8.23"/><polyline class="cls-3" points="1766.44 358.98 1698.01 358.98 1698.01 350.75 1766.44 350.75"/><rect class="cls-5" x="1644.58" y="350.75" width="48.88" height="8.23" transform="translate(3338.03 709.72) rotate(180)"/><polyline class="cls-6" points="1579.63 350.75 1639.56 350.75 1639.56 358.98 1579.63 358.98"/><rect class="cls-5" x="1579.63" y="370.98" width="36.43" height="8.23"/><rect class="cls-3" x="1620.61" y="370.98" width="101.68" height="8.23"/><rect class="cls-6" x="1727.31" y="370.98" width="39.13" height="8.23"/><polyline class="cls-3" points="1766.69 397.89 1736.67 397.89 1736.67 389.67 1766.69 389.67"/><rect class="cls-5" x="1644.83" y="389.67" width="87.28" height="8.23" transform="translate(3376.94 787.56) rotate(180)"/><polyline class="cls-6" points="1579.88 389.67 1639.81 389.67 1639.81 397.89 1579.88 397.89"/><path class="cls-6" d="M1237.6,363.53H1038.26V122.26H1237.6Zm-197.74-1.6H1236V123.86H1039.86Z"/><rect class="cls-5" x="1044.53" y="127.96" width="186.81" height="26.02"/><path class="cls-4" d="M1197.27,149.8a1.16,1.16,0,0,1-.7-.24l-9.72-7.77a1.09,1.09,0,0,1-.42-.87,1.11,1.11,0,0,1,.42-.88l9.6-7.67a1.12,1.12,0,0,1,1.4,1.75l-8.51,6.8,8.63,6.89a1.12,1.12,0,0,1,.18,1.57A1.11,1.11,0,0,1,1197.27,149.8Z"/><path class="cls-4" d="M1212.16,149.8a1.12,1.12,0,0,1-.7-2l8.63-6.89-8.5-6.8a1.12,1.12,0,0,1-.18-1.57,1.14,1.14,0,0,1,1.58-.18l9.6,7.67a1.14,1.14,0,0,1,.42.88,1.12,1.12,0,0,1-.42.87l-9.73,7.77A1.12,1.12,0,0,1,1212.16,149.8Z"/><path class="cls-4" d="M1202.53,151.86a1.13,1.13,0,0,1-.48,0,1.12,1.12,0,0,1-.74-1.4l6-19.56a1.12,1.12,0,1,1,2.14.65l-6,19.57A1.12,1.12,0,0,1,1202.53,151.86Z"/><rect class="cls-3" x="1044.53" y="171.99" width="100.43" height="8.23"/><rect class="cls-5" x="1149.51" y="171.99" width="48.88" height="8.23"/><rect class="cls-4" x="1203.41" y="171.99" width="27.93" height="8.23"/><polyline class="cls-3" points="1231.59 198.9 1163.17 198.9 1163.17 190.67 1231.59 190.67"/><rect class="cls-5" x="1109.73" y="190.67" width="48.88" height="8.23" transform="translate(2268.34 389.57) rotate(180)"/><polyline class="cls-4" points="1044.78 190.67 1104.71 190.67 1104.71 198.9 1044.78 198.9"/><rect class="cls-5" x="1044.78" y="210.91" width="36.43" height="8.23"/><rect class="cls-3" x="1085.77" y="210.91" width="101.68" height="8.23"/><rect class="cls-4" x="1192.47" y="210.91" width="39.13" height="8.23"/><polyline class="cls-3" points="1231.85 237.82 1201.82 237.82 1201.82 229.59 1231.85 229.59"/><rect class="cls-5" x="1109.98" y="229.59" width="87.28" height="8.23" transform="translate(2307.24 467.41) rotate(180)"/><polyline class="cls-4" points="1045.04 229.59 1104.96 229.59 1104.96 237.82 1045.04 237.82"/><rect class="cls-3" x="1045.04" y="260.89" width="100.43" height="8.23"/><rect class="cls-5" x="1150.02" y="260.89" width="48.88" height="8.23"/><rect class="cls-4" x="1203.92" y="260.89" width="27.93" height="8.23"/><polyline class="cls-3" points="1232.1 287.8 1163.67 287.8 1163.67 279.57 1232.1 279.57"/><rect class="cls-5" x="1110.24" y="279.57" width="48.88" height="8.23" transform="translate(2269.35 567.36) rotate(180)"/><polyline class="cls-4" points="1045.29 279.57 1105.22 279.57 1105.22 287.8 1045.29 287.8"/><rect class="cls-5" x="1045.29" y="299.8" width="36.43" height="8.23"/><rect class="cls-3" x="1086.27" y="299.8" width="101.68" height="8.23"/><rect class="cls-4" x="1192.97" y="299.8" width="39.13" height="8.23"/><polyline class="cls-3" points="1232.35 326.71 1202.33 326.71 1202.33 318.49 1232.35 318.49"/><rect class="cls-5" x="1110.49" y="318.49" width="87.28" height="8.23" transform="translate(2308.26 645.2) rotate(180)"/><polyline class="cls-4" points="1045.54 318.49 1105.47 318.49 1105.47 326.71 1045.54 326.71"/><path class="cls-3" d="M1768.71,107.14v36.33a19.26,19.26,0,0,1-19.2,19.2h-34.69l-28.53,26.83,4.11-26.83h-98a19.26,19.26,0,0,1-19.2-19.2V107.14a19.26,19.26,0,0,1,19.2-19.2h157.12A19.26,19.26,0,0,1,1768.71,107.14Z"/><path class="cls-4" d="M1642.76,130.3a14.36,14.36,0,0,1-2.3,8,15.07,15.07,0,0,1-6.62,5.46,24.72,24.72,0,0,1-10.16,1.94,40.68,40.68,0,0,1-8.15-.68,30.18,30.18,0,0,1-6.86-2.38V131a39.72,39.72,0,0,0,7.82,3,29.26,29.26,0,0,0,7.46,1.08,7.21,7.21,0,0,0,4.29-1,3.11,3.11,0,0,0,1.37-2.61,2.94,2.94,0,0,0-.55-1.75,6.47,6.47,0,0,0-1.77-1.51c-.81-.51-3-1.55-6.47-3.13a31.26,31.26,0,0,1-7.14-4.19,13.09,13.09,0,0,1-3.53-4.66A15.61,15.61,0,0,1,1609,110a12.47,12.47,0,0,1,4.89-10.48q4.89-3.77,13.44-3.76a37.77,37.77,0,0,1,15.42,3.49l-4,10.15q-6.82-3.12-11.78-3.12a6.13,6.13,0,0,0-3.73.89,2.73,2.73,0,0,0-1.17,2.23,3.25,3.25,0,0,0,1.48,2.57,56.76,56.76,0,0,0,8,4.12q6.3,2.83,8.74,6.08A13.2,13.2,0,0,1,1642.76,130.3Z"/><path class="cls-4" d="M1695.81,120.68q0,16.55-10.52,22.3l11.89,13.68H1680.8l-8.59-10.82,0,0v0l0,0q-11.46,0-17.56-6.42t-6.11-18.71q0-12.15,6.08-18.55t17.65-6.41q11.63,0,17.61,6.36T1695.81,120.68Zm-33.48,0q0,14.12,9.82,14.11,5,0,7.4-3.42t2.41-10.69q0-7.29-2.44-10.77a8.34,8.34,0,0,0-7.31-3.47Q1662.32,106.44,1662.33,120.68Z"/><path class="cls-4" d="M1704.6,145.08V96.42h13.14v38h18.74v10.62Z"/><path class="cls-8" d="M70.6,362.6H89c19.91,0,32.74,9.91,32.74,32.31s-12.83,32.87-31.91,32.87H70.6Zm17.53,53.32c11.05,0,18.52-5.42,18.52-21s-7.47-20.44-18.52-20.44h-2.8v41.45Z"/><path class="cls-8" d="M130.59,414c0-10.45,8.32-16.11,27.94-18.18-.29-4.34-2.46-7.17-7.84-7.17-4.17,0-8.32,1.75-13.13,4.48l-5.23-9.65c6.3-3.85,13.39-6.53,21.19-6.53,12.69,0,19.71,7.25,19.71,22.45v28.36h-12l-1.06-5.08h-.37c-4.17,3.67-8.85,6.28-14.43,6.28C136.33,429,130.59,422.38,130.59,414Zm27.94-.65V404.7c-10.45,1.41-13.86,4.4-13.86,8.15,0,3.2,2.2,4.77,5.69,4.77C153.69,417.62,155.92,416,158.53,413.37Z"/><path class="cls-8" d="M185.76,409.75V389.7H179v-11l7.6-.56L188.3,365h12.16v13.18h11.9V389.7h-11.9v19.87c0,5.62,2.56,7.88,6.42,7.88a14.72,14.72,0,0,0,4.72-.94l2.32,10.67a34.81,34.81,0,0,1-11,1.8C190.63,429,185.76,421.24,185.76,409.75Z"/><path class="cls-8" d="M217.79,414c0-10.45,8.32-16.11,27.94-18.18-.29-4.34-2.46-7.17-7.84-7.17-4.17,0-8.32,1.75-13.13,4.48l-5.23-9.65c6.3-3.85,13.39-6.53,21.19-6.53,12.69,0,19.71,7.25,19.71,22.45v28.36h-12l-1.06-5.08H247c-4.18,3.67-8.86,6.28-14.44,6.28C223.53,429,217.79,422.38,217.79,414Zm27.94-.65V404.7c-10.45,1.41-13.86,4.4-13.86,8.15,0,3.2,2.2,4.77,5.69,4.77C240.89,417.62,243.12,416,245.73,413.37Z"/><path class="cls-8" d="M285.86,422.49h-.36l-1.23,5.29h-11.5V357.72h14.7v17.12l-.36,7.62A20.11,20.11,0,0,1,300.24,377c12,0,19.44,9.93,19.44,25.14,0,17.11-10.13,26.87-20.87,26.87C294.38,429,289.8,426.75,285.86,422.49Zm18.76-20.13c0-8.91-2.75-13.36-8.62-13.36-3,0-5.66,1.35-8.53,4.44v20.38a11.84,11.84,0,0,0,7.92,3.14C300.51,417,304.62,412.63,304.62,402.36Z"/><path class="cls-8" d="M326.69,414c0-10.45,8.32-16.11,27.94-18.18-.29-4.34-2.46-7.17-7.84-7.17-4.17,0-8.32,1.75-13.13,4.48l-5.23-9.65c6.3-3.85,13.39-6.53,21.19-6.53,12.69,0,19.71,7.25,19.71,22.45v28.36h-12l-1.06-5.08h-.36c-4.18,3.67-8.86,6.28-14.44,6.28C332.43,429,326.69,422.38,326.69,414Zm27.94-.65V404.7c-10.45,1.41-13.86,4.4-13.86,8.15,0,3.2,2.2,4.77,5.69,4.77C349.79,417.62,352,416,354.63,413.37Z"/><path class="cls-8" d="M377.28,422.05l6.62-9.15c4.49,3.4,8.65,5.21,12.8,5.21,4.37,0,6.27-1.67,6.27-4.27,0-3.27-4.92-4.75-10-6.75-6.08-2.35-13.13-6.39-13.13-14.59,0-9.24,7.51-15.53,19-15.53a28.27,28.27,0,0,1,17.49,6.28l-6.58,8.83c-3.53-2.57-7-4.24-10.45-4.24-3.8,0-5.67,1.49-5.67,4,0,3.16,4.65,4.37,9.79,6.24,6.28,2.33,13.36,5.86,13.36,14.93s-7.08,16-20.38,16A32.17,32.17,0,0,1,377.28,422.05Z"/><path class="cls-8" d="M423.09,403c0-16.09,11.48-26,23.4-26,14.13,0,21.13,10.27,21.13,23.81a33.47,33.47,0,0,1-.61,6.5H437.33c1.32,7.2,6.25,10.5,12.87,10.5a20.68,20.68,0,0,0,10.73-3.25l4.86,8.87a32.34,32.34,0,0,1-17.6,5.58C434,429,423.09,419.42,423.09,403Zm32-5.43c0-5.46-2.38-9.39-8.25-9.39-4.64,0-8.65,3.12-9.65,9.39Z"/><path class="cls-8" d="M494.78,419.56l8.46-10.11c4.64,4,10.65,6.81,16,6.81,6.15,0,9.16-2.42,9.16-6.29,0-4.1-3.71-5.42-9.4-7.76l-8.47-3.61c-6.76-2.75-13.16-8.3-13.16-17.77,0-10.8,9.65-19.43,23.22-19.43a30.12,30.12,0,0,1,21,8.55l-7.44,9.28c-4.3-3.29-8.38-5.1-13.53-5.1s-8.32,2.11-8.32,5.84c0,4,4.27,5.45,10,7.72l8.3,3.36c8,3.22,12.93,8.52,12.93,17.73,0,10.83-9,20.2-24.55,20.2A35.91,35.91,0,0,1,494.78,419.56Z"/><path class="cls-8" d="M550.49,403c0-16.09,11.48-26,23.4-26C588,377,595,387.24,595,400.78a33.47,33.47,0,0,1-.61,6.5H564.73c1.32,7.2,6.25,10.5,12.87,10.5a20.68,20.68,0,0,0,10.73-3.25l4.86,8.87a32.37,32.37,0,0,1-17.6,5.58C561.44,429,550.49,419.42,550.49,403Zm32-5.43c0-5.46-2.37-9.39-8.24-9.39-4.64,0-8.66,3.12-9.66,9.39Z"/><path class="cls-8" d="M605.17,378.17h12l1.06,8.67h.37c3.61-6.62,9-9.87,14.09-9.87a13.69,13.69,0,0,1,5.92,1l-2.45,12.69a20,20,0,0,0-5.35-.8c-3.74,0-8.28,2.41-10.93,9.17v28.75h-14.7Z"/><path class="cls-8" d="M640.4,378.17h14.77l6.46,23.42c1.27,4.93,2.57,10.06,3.84,15.25h.4c1.27-5.19,2.58-10.32,3.85-15.25l6.46-23.42h14.07l-16.19,49.61H657.12Z"/><path class="cls-8" d="M696.83,363.23c0-4.51,3.57-7.69,8.5-7.69s8.51,3.18,8.51,7.69-3.57,7.68-8.51,7.68S696.83,367.7,696.83,363.23ZM698,378.17h14.7v49.61H698Z"/><path class="cls-8" d="M722.68,403c0-16.49,12.15-26,25.85-26a21.6,21.6,0,0,1,14.5,5.34l-6.95,9.45c-2.37-2-4.36-2.93-6.72-2.93-7.07,0-11.61,5.58-11.61,14.16s4.73,14.13,11.11,14.13c3.26,0,6.38-1.61,8.95-3.66l5.76,9.62a24.76,24.76,0,0,1-16.35,5.9C733.37,429,722.68,419.45,722.68,403Z"/><path class="cls-8" d="M766.58,403c0-16.09,11.49-26,23.41-26,14.13,0,21.13,10.27,21.13,23.81a33.47,33.47,0,0,1-.61,6.5H780.82c1.32,7.2,6.25,10.5,12.87,10.5a20.65,20.65,0,0,0,10.73-3.25l4.86,8.87a32.34,32.34,0,0,1-17.6,5.58C777.54,429,766.58,419.42,766.58,403Zm32-5.43c0-5.46-2.38-9.39-8.25-9.39-4.64,0-8.65,3.12-9.65,9.39Z"/><path class="cls-8" d="M816.88,422.05l6.61-9.15c4.49,3.4,8.65,5.21,12.8,5.21,4.37,0,6.27-1.67,6.27-4.27,0-3.27-4.92-4.75-10-6.75-6.08-2.35-13.12-6.39-13.12-14.59,0-9.24,7.5-15.53,19-15.53a28.27,28.27,0,0,1,17.49,6.28l-6.58,8.83c-3.53-2.57-7-4.24-10.45-4.24-3.8,0-5.67,1.49-5.67,4,0,3.16,4.65,4.37,9.79,6.24,6.28,2.33,13.37,5.86,13.37,14.93s-7.09,16-20.39,16A32.12,32.12,0,0,1,816.88,422.05Z"/></svg>