<svg id="Layer_1" data-name="Layer 1" xmlns="http://www.w3.org/2000/svg" viewBox="0 0 2000 800"><defs><style>.cls-1{fill:#fff;}.cls-2{fill:#e7f3fd;}.cls-3{fill:#a3c5e9;}.cls-4{opacity:0.8;}.cls-5{fill:#ee726a;}.cls-6{fill:#cde0f5;}.cls-14,.cls-7{fill:#9bbae3;}.cls-8{fill:#9cd6e7;}.cls-9{fill:#3b384d;}.cls-10{fill:#f19a5a;}.cls-11{fill:#e38540;}.cls-12{fill:#7b4f35;}.cls-13{fill:#d54b41;}.cls-14{opacity:0.2;}.cls-15{fill:#2f2e3e;}.cls-16{fill:#d5e0e8;}.cls-17{fill:#bdccd4;}.cls-18{fill:#2f5c9b;}.cls-19{fill:#6791c9;}.cls-20{fill:#77a0d5;}.cls-21{fill:#f2e5de;}.cls-22{fill:#313c60;}.cls-23{fill:#74b570;}.cls-24{fill:#9ecd98;}.cls-25{fill:#f18b31;}</style></defs><rect class="cls-1" x="300.04" y="-0.42" width="1400" height="800"/><path class="cls-2" d="M176.44,97c166.19-61.7,335.1-7.15,449.66,111.65s355-82,482.48,36.61c87,80.94,47.15,289.05-72.16,379.19C874.25,747,381.05,684.82,274.37,664,151.46,640,61.6,567.07,25.09,478.61-62.88,265.48,103,124.28,176.44,97Z"/><path class="cls-2" d="M923.41,124.74c166.19-61.7,335.1-7.15,449.65,111.65s355-82,482.48,36.61c87,80.94,47.16,289-72.15,379.19-162.18,122.52-655.37,60.35-762.06,39.5-122.91-24-212.77-96.9-249.28-185.36C684.09,293.2,850,152,923.41,124.74Z"/><path class="cls-3" d="M1491.45,210.45a138.39,138.39,0,0,0,.86-15.32c0-2.73-.09-5.44-.25-8.14l-25.31-8.18a111.36,111.36,0,0,0-9-30.33l16.78-20.65a136.81,136.81,0,0,0-13.29-19.33L1436,116.76A112.11,112.11,0,0,0,1410.9,97.5l1.44-26.6a136.51,136.51,0,0,0-22.09-7.83l-15.63,21.57a113.46,113.46,0,0,0-31.6-.83l-14.48-22.36a135.06,135.06,0,0,0-22.48,6.64l0,26.64a112.06,112.06,0,0,0-26,17.91l-24.83-9.58a136.89,136.89,0,0,0-14.31,18.59l15.68,21.52A111.14,111.14,0,0,0,1246,173l-25.71,6.84a138.39,138.39,0,0,0-.86,15.32c0,2.74.09,5.45.25,8.14l25.31,8.19a111.57,111.57,0,0,0,9,30.33l-16.78,20.65a136,136,0,0,0,13.3,19.32l25.31-8.26a112.67,112.67,0,0,0,25.06,19.27l-1.44,26.59a134.41,134.41,0,0,0,22.1,7.83l15.63-21.57a112.27,112.27,0,0,0,18.73,1.57,113.91,113.91,0,0,0,12.87-.74l14.47,22.37a135.74,135.74,0,0,0,22.48-6.64l0-26.64a112.33,112.33,0,0,0,26-17.91l24.83,9.58a136.73,136.73,0,0,0,14.3-18.6l-15.67-21.51a111.07,111.07,0,0,0,10.56-29.81Zm-135.57,38.19a53.51,53.51,0,1,1,53.51-53.51A53.51,53.51,0,0,1,1355.88,248.64Z"/><path class="cls-1" d="M1428.86,256.16a2,2,0,0,1-1.27-.46,2,2,0,0,1-.26-2.82,90.56,90.56,0,0,0,16-87.19,2,2,0,0,1,3.78-1.31,94.55,94.55,0,0,1-16.66,91.06A2,2,0,0,1,1428.86,256.16Z"/><path class="cls-1" d="M1421.12,129.86a2,2,0,0,1-1.37-.54,89.84,89.84,0,0,0-31.12-19.17,2,2,0,0,1,1.37-3.76,93.83,93.83,0,0,1,32.49,20,2,2,0,0,1,.08,2.82A2,2,0,0,1,1421.12,129.86Z"/><path class="cls-1" d="M1335.13,107.56a2,2,0,0,1-.49-3.94,94.8,94.8,0,0,1,23.17-2.86,2,2,0,0,1,0,4,90.76,90.76,0,0,0-22.19,2.74A2.12,2.12,0,0,1,1335.13,107.56Z"/><path class="cls-3" d="M1061.37,549.27a95.5,95.5,0,0,0,.6-10.61c0-1.9-.06-3.78-.17-5.64l-17.53-5.67a77.08,77.08,0,0,0-6.21-21l11.62-14.3a95.66,95.66,0,0,0-9.2-13.39l-17.54,5.72A77.92,77.92,0,0,0,1005.58,471l1-18.42a93.19,93.19,0,0,0-15.3-5.42l-10.83,14.94a78.13,78.13,0,0,0-13-1.09,79.54,79.54,0,0,0-8.91.51l-10-15.49a93.44,93.44,0,0,0-15.57,4.6l0,18.45a77.79,77.79,0,0,0-18,12.41l-17.2-6.64a94,94,0,0,0-9.91,12.88l10.86,14.9a76.89,76.89,0,0,0-7.32,20.65l-17.81,4.74a95.24,95.24,0,0,0-.59,10.61c0,1.89.06,3.77.17,5.63L890.68,550a77,77,0,0,0,6.21,21l-11.63,14.3a95.14,95.14,0,0,0,9.21,13.39L912,592.94a78.09,78.09,0,0,0,17.35,13.34l-1,18.42a93.82,93.82,0,0,0,15.3,5.43l10.83-14.94a78.1,78.1,0,0,0,13,1.08,79.58,79.58,0,0,0,8.92-.51l10,15.49a93.72,93.72,0,0,0,15.57-4.6l0-18.45a77.79,77.79,0,0,0,18-12.41l17.2,6.64a94.79,94.79,0,0,0,9.91-12.88l-10.86-14.9a77.23,77.23,0,0,0,7.32-20.65Zm-93.9,26.45a37.07,37.07,0,1,1,37.07-37.06A37.06,37.06,0,0,1,967.47,575.72Z"/><path class="cls-1" d="M1018,581.54a2,2,0,0,1-1.27-.46,2,2,0,0,1-.26-2.82,62.11,62.11,0,0,0,10.94-59.8,2,2,0,1,1,3.78-1.3,66.09,66.09,0,0,1-11.65,63.66A2,2,0,0,1,1018,581.54Z"/><path class="cls-1" d="M1012.66,494.06a2,2,0,0,1-1.37-.54A61.62,61.62,0,0,0,990,480.37a2,2,0,0,1,1.36-3.76,65.56,65.56,0,0,1,22.72,14,2,2,0,0,1,.08,2.82A2,2,0,0,1,1012.66,494.06Z"/><path class="cls-1" d="M953.1,478.62a2,2,0,0,1-.49-3.94,66.2,66.2,0,0,1,16.2-2,2,2,0,0,1,0,4,62.57,62.57,0,0,0-15.22,1.88A1.71,1.71,0,0,1,953.1,478.62Z"/><path class="cls-3" d="M1573.15,312.36c0-1,0-2.06-.08-3.08l13.13-10.55a70,70,0,0,0-4.77-15.09l-17-1.28a56.46,56.46,0,0,0-14.68-15.58l-.06-16.9a69.72,69.72,0,0,0-15-5.8l-11.59,12.47a58.22,58.22,0,0,0-6.08-.33,56.11,56.11,0,0,0-14.76,2L1489,247.66a70.41,70.41,0,0,0-14.06,8.15l2.51,16.76a56.15,56.15,0,0,0-11.84,17.28L1449,293.68a70.87,70.87,0,0,0-2.44,15.94l14.57,8.42a55.62,55.62,0,0,0,6.23,20.58l-7.3,15.27a71,71,0,0,0,10.72,11.66l15.62-6.11a56,56,0,0,0,20.59,8.17l7.36,15.15c.88,0,1.76.06,2.64.06a70.37,70.37,0,0,0,12.91-1.19l5-16.05a56.05,56.05,0,0,0,19.38-11.25L1570.7,358a69.82,69.82,0,0,0,8.74-12.92l-9.51-14A56.11,56.11,0,0,0,1573.15,312.36Zm-56.75,24.73A23.65,23.65,0,1,1,1540,313.45,23.64,23.64,0,0,1,1516.4,337.09Z"/><g class="cls-4"><path class="cls-3" d="M1791.71,176.15h-20.33a14.25,14.25,0,0,1-14.23-14.23V141.6a14.25,14.25,0,0,1,14.23-14.23h20.33a14.25,14.25,0,0,1,14.23,14.23v20.32A14.25,14.25,0,0,1,1791.71,176.15ZM1771.38,133a8.64,8.64,0,0,0-8.63,8.63v20.32a8.64,8.64,0,0,0,8.63,8.63h20.33a8.64,8.64,0,0,0,8.63-8.63V141.6a8.64,8.64,0,0,0-8.63-8.63Z"/></g><g class="cls-4"><path class="cls-3" d="M1696.09,176.15h-20.32a14.25,14.25,0,0,1-14.23-14.23V141.6a14.24,14.24,0,0,1,14.23-14.23h20.32a14.24,14.24,0,0,1,14.23,14.23v20.32A14.25,14.25,0,0,1,1696.09,176.15ZM1675.77,133a8.64,8.64,0,0,0-8.63,8.63v20.32a8.64,8.64,0,0,0,8.63,8.63h20.32a8.64,8.64,0,0,0,8.63-8.63V141.6a8.64,8.64,0,0,0-8.63-8.63Z"/></g><path class="cls-5" d="M1687.2,164.32h-.12a2.42,2.42,0,0,1-1.78-.94l-14.61-19a2.4,2.4,0,1,1,3.81-2.92l12.88,16.8,33.63-36a2.4,2.4,0,1,1,3.51,3.27L1689,163.56A2.45,2.45,0,0,1,1687.2,164.32Z"/><path class="cls-6" d="M1858.87,700.92c-83.18-4.06-366.18,2.83-452.25,5.51s-186-3.54-237.87-12.7-351.87.78-338.25,25.41,133.65,11,269.78,20.92,442.28-1.24,511.33,0S1744,737.58,1833,732.63,1907.09,703.28,1858.87,700.92Z"/><rect class="cls-7" x="834.68" y="185.86" width="173.9" height="285.03"/><rect class="cls-1" x="843.78" y="191.67" width="159.07" height="268.36"/><path class="cls-8" d="M891.37,299.28c6-12.88,16.12-17,32.76-17,19.81,0,30.1,7.18,33,17.63C921.66,300.39,891.37,299.28,891.37,299.28Z"/><path class="cls-9" d="M917.21,219.63c-8.39,2.35-8,7.07-10.82,11.44s-8.87,7.29-9.6,10.21,1.87,9-1.21,12.39-4.13,5.1-2.92,8.51,3.89,8.75,4.13,9.47,3.65,5.84,7.78,6.57,11.91,1.94,15.8,3.64,16.39-2.18,23.33-1.93,11.66-4.87,11.18-8.28,5.11-10.2,5.1-16c0-6.27-7.29-10.94-9.24-15.07s.25-11.42-7-15.74c-4.61-2.73-7.78-2.49-11.43-3.7S922.55,218.13,917.21,219.63Z"/><path class="cls-10" d="M927.41,292.56c-1.89,2.8-3.28,2.91-5.34,0-1.64-2.32-4.86-7.59-4.86-10.27V255.62a4.87,4.87,0,0,1,4.86-4.87h5.34a4.87,4.87,0,0,1,4.86,4.87v26.67C932.27,285,929.12,290,927.41,292.56Z"/><path class="cls-11" d="M927.41,250.75h-5.34a4.87,4.87,0,0,0-4.86,4.87v23.8c6,1.91,11.48-1.89,15.06-6.17V255.62A4.87,4.87,0,0,0,927.41,250.75Z"/><ellipse class="cls-10" cx="924.74" cy="251.02" rx="16.16" ry="22.02"/><path class="cls-9" d="M932.27,233.5C922.07,250.75,907,249.05,907,249.05s.36-22.84,12.33-24.06,19,3.59,21.45,11.52,0,13.15,0,13.15a21,21,0,0,1-5.83-7.9A56.5,56.5,0,0,1,932.27,233.5Z"/><ellipse class="cls-10" cx="906.39" cy="252.51" rx="4.25" ry="6.38" transform="translate(-20.68 413.27) rotate(-25.41)"/><path class="cls-10" d="M938.52,250.69c-1.51,3.18-1,6.57,1.1,7.58s5.07-.75,6.58-3.94,1-6.57-1.1-7.58S940,247.5,938.52,250.69Z"/><path class="cls-1" d="M930.82,263s-2.72,3.52-6.08,3.52-6.07-3.52-6.07-3.52Z"/><path class="cls-7" d="M944,334.21H903.17a4.75,4.75,0,1,1,0-9.49H944a4.75,4.75,0,0,1,0,9.49Z"/><path class="cls-7" d="M951.45,348.79H895.69a4.75,4.75,0,0,1,0-9.49h55.76a4.75,4.75,0,1,1,0,9.49Z"/><path class="cls-7" d="M991.39,401.23H855.76a2.76,2.76,0,1,1,0-5.51H991.39a2.76,2.76,0,0,1,0,5.51Z"/><path class="cls-7" d="M991.39,414H855.76a2.76,2.76,0,1,1,0-5.51H991.39a2.76,2.76,0,0,1,0,5.51Z"/><path class="cls-7" d="M991.39,426.83H855.76a2.76,2.76,0,1,1,0-5.51H991.39a2.76,2.76,0,0,1,0,5.51Z"/><path class="cls-7" d="M972.42,302.44H874.73a4.92,4.92,0,0,1-4.92-4.91v-90a4.92,4.92,0,0,1,4.92-4.91h97.69a4.91,4.91,0,0,1,4.91,4.91v90A4.91,4.91,0,0,1,972.42,302.44Zm-97.69-95.86a.93.93,0,0,0-.92.91v90a.93.93,0,0,0,.92.91h97.69a.93.93,0,0,0,.91-.91v-90a.93.93,0,0,0-.91-.91Z"/><polygon class="cls-7" points="888.82 361.17 891.65 366.9 897.98 367.82 893.4 372.28 894.48 378.58 888.82 375.61 883.17 378.58 884.25 372.28 879.67 367.82 886 366.9 888.82 361.17"/><polygon class="cls-7" points="911.99 361.17 914.82 366.9 921.14 367.82 916.57 372.28 917.65 378.58 911.99 375.61 906.33 378.58 907.41 372.28 902.84 367.82 909.16 366.9 911.99 361.17"/><polygon class="cls-7" points="935.15 361.17 937.98 366.9 944.31 367.82 939.73 372.28 940.81 378.58 935.15 375.61 929.5 378.58 930.58 372.28 926 367.82 932.33 366.9 935.15 361.17"/><polygon class="cls-7" points="958.32 361.17 961.15 366.9 967.47 367.82 962.9 372.28 963.98 378.58 958.32 375.61 952.66 378.58 953.75 372.28 949.17 367.82 955.49 366.9 958.32 361.17"/><rect class="cls-7" x="1222.36" y="185.86" width="173.9" height="285.03"/><rect class="cls-1" x="1231.47" y="191.67" width="159.07" height="268.36"/><path class="cls-12" d="M1286.61,249.57c0,12.77,7.68,33.37,25.82,32.71s22.14-20.3,22.84-25.84S1286.61,249.57,1286.61,249.57Z"/><path class="cls-13" d="M1279.05,299.28c6-12.88,16.12-17,32.76-17,19.82,0,30.1,7.18,33,17.63C1309.35,300.39,1279.05,299.28,1279.05,299.28Z"/><path class="cls-10" d="M1315.1,292.56c-1.9,2.8-3.29,2.91-5.35,0-1.63-2.32-4.86-7.59-4.86-10.27V255.62a4.88,4.88,0,0,1,4.86-4.87h5.35a4.88,4.88,0,0,1,4.86,4.87v26.67C1320,285,1316.8,290,1315.1,292.56Z"/><path class="cls-11" d="M1315.1,250.75h-5.35a4.88,4.88,0,0,0-4.86,4.87v23.8c6,1.91,11.48-1.89,15.07-6.17V255.62A4.88,4.88,0,0,0,1315.1,250.75Z"/><ellipse class="cls-10" cx="1312.43" cy="251.02" rx="16.16" ry="22.02"/><path class="cls-12" d="M1321.31,234.29c-1.92,6.77-6.13,6.69-12,8.91s-8.67,4.47-10.59,8.8c-2.45,5.52,1.11,21.63,1.11,21.63S1285,262.51,1286.69,245s12-24.26,21.73-24.26,13.4,5.92,13.4,5.92,5.16,0,10,5.81c6.57,7.78,4.55,26.69,0,33.46s-7.58,8.89-7.48,8.59,4.25-15.86,2-25.47S1321.31,234.29,1321.31,234.29Z"/><path class="cls-1" d="M1318.5,263s-2.72,3.52-6.07,3.52-6.08-3.52-6.08-3.52Z"/><path class="cls-7" d="M1331.66,334.21h-40.81a4.75,4.75,0,0,1,0-9.49h40.81a4.75,4.75,0,1,1,0,9.49Z"/><path class="cls-7" d="M1339.14,348.79h-55.76a4.75,4.75,0,1,1,0-9.49h55.76a4.75,4.75,0,0,1,0,9.49Z"/><path class="cls-7" d="M1379.07,401.23H1243.44a2.76,2.76,0,0,1,0-5.51h135.63a2.76,2.76,0,1,1,0,5.51Z"/><path class="cls-7" d="M1379.07,414H1243.44a2.76,2.76,0,0,1,0-5.51h135.63a2.76,2.76,0,1,1,0,5.51Z"/><path class="cls-7" d="M1379.07,426.83H1243.44a2.76,2.76,0,0,1,0-5.51h135.63a2.76,2.76,0,1,1,0,5.51Z"/><path class="cls-7" d="M1360.1,302.44h-97.69a4.91,4.91,0,0,1-4.91-4.91v-90a4.91,4.91,0,0,1,4.91-4.91h97.69a4.92,4.92,0,0,1,4.92,4.91v90A4.92,4.92,0,0,1,1360.1,302.44Zm-97.69-95.86a.93.93,0,0,0-.91.91v90a.93.93,0,0,0,.91.91h97.69a.93.93,0,0,0,.92-.91v-90a.93.93,0,0,0-.92-.91Z"/><polygon class="cls-7" points="1276.51 361.17 1279.34 366.9 1285.66 367.82 1281.09 372.28 1282.17 378.58 1276.51 375.61 1270.85 378.58 1271.93 372.28 1267.36 367.82 1273.68 366.9 1276.51 361.17"/><polygon class="cls-7" points="1299.67 361.17 1302.5 366.9 1308.83 367.82 1304.25 372.28 1305.33 378.58 1299.67 375.61 1294.02 378.58 1295.1 372.28 1290.52 367.82 1296.85 366.9 1299.67 361.17"/><polygon class="cls-7" points="1322.84 361.17 1325.67 366.9 1331.99 367.82 1327.42 372.28 1328.5 378.58 1322.84 375.61 1317.18 378.58 1318.26 372.28 1313.69 367.82 1320.01 366.9 1322.84 361.17"/><polygon class="cls-7" points="1346.01 361.17 1348.84 366.9 1355.16 367.82 1350.58 372.28 1351.66 378.58 1346.01 375.61 1340.35 378.58 1341.43 372.28 1336.85 367.82 1343.18 366.9 1346.01 361.17"/><polygon class="cls-14" points="1241.91 468.04 967.47 468.04 986.89 186.92 1251.81 186.92 1241.91 468.04"/><rect class="cls-7" x="996.3" y="133.72" width="237.52" height="389.31"/><rect class="cls-1" x="1008.74" y="141.65" width="217.27" height="366.53"/><path class="cls-15" d="M1097.13,218.64c-.15-.45-4-22.29-4.41-30.78s13.64-9.7,13.64-9.7,11.53-6.22,19.87-3a33.62,33.62,0,0,1,17.8,15.21c3.79,6.67-3.33,27.46-3.33,27.46Z"/><path class="cls-16" d="M1071,288.79c-.06-.36,1-9,1-9.3,1.92-18.09,24.22-23.18,46.47-23.18,26.15,0,43.89,4.79,46.72,23.59.08.55,1.59,9.16,1.52,9.74C1118.25,290.31,1071,288.79,1071,288.79Z"/><path class="cls-10" d="M1123,270.35c-2.59,3.83-4.49,4-7.3,0-2.23-3.16-9.7-10.39-9.7-14L1109,219.9a6.66,6.66,0,0,1,6.64-6.64h7.3a6.66,6.66,0,0,1,6.64,6.64l1.43,36.41C1131,260,1125.29,266.92,1123,270.35Z"/><path class="cls-11" d="M1123,213.26h-7.3a6.66,6.66,0,0,0-6.64,6.64l-2.66,32.3c8.2,2.61,19.27-2.69,24.17-8.54l-.93-23.76A6.66,6.66,0,0,0,1123,213.26Z"/><path class="cls-17" d="M1094.25,259,1106,280.6s6.27-5.15,6.87-4.14-1.11,13.77-1.11,13.77,14,.19,14.56-.42-2.83-13.86-1.42-13.86,5.67,3.85,5.67,3.85L1143.6,259l-2.87-.7-21.42,11.52-22.9-11.27Z"/><polygon class="cls-13" points="1107.64 268.94 1116.34 274.77 1113.64 290.25 1125.37 289.6 1122.44 275.52 1129.64 268.94 1126.26 265.75 1111.03 265.75 1107.64 268.94"/><path class="cls-16" d="M1106.57,248.36l-10.76,10.23s11,19.49,11.56,19.49,9.3-10.75,9.3-10.75l5.57-.09,8.79,9.22,10.21-18.07-10.42-11s-8.89,17.18-10.51,17.59-1.63.6-2.93-.41S1106.57,248.36,1106.57,248.36Z"/><ellipse class="cls-10" cx="1119.31" cy="213.63" rx="22.07" ry="30.08"/><path class="cls-10" d="M1099.5,213.17c2.06,4.34,1.39,9-1.51,10.36s-6.92-1-9-5.38-1.38-9,1.51-10.36S1097.43,208.82,1099.5,213.17Z"/><path class="cls-10" d="M1138.13,213.17c-2.06,4.34-1.39,9,1.51,10.36s6.92-1,9-5.38,1.38-9-1.51-10.36S1140.2,208.82,1138.13,213.17Z"/><path class="cls-1" d="M1129.11,226s-4.39,7.1-9.8,7.1-9.79-7.1-9.79-7.1Z"/><path class="cls-15" d="M1106.36,193.17c9.1-6.37,13.19-5.31,20,5.15s15,10.65,15,10.65l1.06-10.85s-10.16-19.66-23.81-17.08-21.4,14.86-21.4,14.86-.66,23,1.24,23.8,2.12-7.43,3.49-9.09-1.37-9.56.45-13.19S1106.36,193.17,1106.36,193.17Z"/><path class="cls-15" d="M1135.63,205c3.17,3.47,2,17.28,3.63,17.13s2.28-13.19,1.82-14.56S1135.63,205,1135.63,205Z"/><path class="cls-7" d="M1168.41,336.35H1067a6.49,6.49,0,0,1,0-13h101.39a6.49,6.49,0,1,1,0,13Z"/><path class="cls-7" d="M1155.8,356.26h-76.16a6.48,6.48,0,0,1,0-13h76.16a6.48,6.48,0,1,1,0,13Z"/><path class="cls-7" d="M1210.34,427.89H1025.09a3.77,3.77,0,0,1,0-7.53h185.25a3.77,3.77,0,0,1,0,7.53Z"/><path class="cls-7" d="M1210.34,445.37H1025.09a3.77,3.77,0,0,1,0-7.53h185.25a3.77,3.77,0,0,1,0,7.53Z"/><path class="cls-7" d="M1210.34,462.85H1025.09a3.77,3.77,0,0,1,0-7.53h185.25a3.77,3.77,0,0,1,0,7.53Z"/><path class="cls-7" d="M1184.43,292.23H1051a6,6,0,0,1-6-6v-123a6,6,0,0,1,6-6h133.43a6,6,0,0,1,6,6v123A6,6,0,0,1,1184.43,292.23ZM1051,161.28a2,2,0,0,0-2,2v123a2,2,0,0,0,2,2h133.43a2,2,0,0,0,2-2v-123a2,2,0,0,0-2-2Z"/><polygon class="cls-7" points="1054.18 373.17 1058.05 381 1066.69 382.25 1060.43 388.35 1061.91 396.95 1054.18 392.89 1046.46 396.95 1047.93 388.35 1041.68 382.25 1050.32 381 1054.18 373.17"/><polygon class="cls-7" points="1085.83 373.17 1089.69 381 1098.33 382.25 1092.08 388.35 1093.55 396.95 1085.83 392.89 1078.1 396.95 1079.58 388.35 1073.32 382.25 1081.96 381 1085.83 373.17"/><polygon class="cls-7" points="1117.47 373.17 1121.33 381 1129.97 382.25 1123.72 388.35 1125.19 396.95 1117.47 392.89 1109.74 396.95 1111.22 388.35 1104.96 382.25 1113.6 381 1117.47 373.17"/><polygon class="cls-7" points="1149.11 373.17 1152.97 381 1161.61 382.25 1155.36 388.35 1156.83 396.95 1149.11 392.89 1141.38 396.95 1142.86 388.35 1136.61 382.25 1145.24 381 1149.11 373.17"/><polygon class="cls-7" points="1181.25 373.17 1185.11 381 1193.75 382.25 1187.5 388.35 1188.98 396.95 1181.25 392.89 1173.53 396.95 1175 388.35 1168.75 382.25 1177.39 381 1181.25 373.17"/><rect class="cls-18" x="1307.18" y="498.91" width="311.42" height="11.6" rx="5.8"/><path class="cls-10" d="M1693.76,343.38c4.13,14.56-6,29.57-17.07,32.72s-19-6.74-23.17-21.3,1.53-28.92,12.64-32.07S1689.63,328.82,1693.76,343.38Z"/><path class="cls-10" d="M1631.46,625.5s28.48,44.23,32.33,46.15,13.46,2.41,9.85,9.62-5.05,35.57-8.41,37-32.21,4.8-27.88,0,7-2.41,9.17-11.06,5.25-25,1.16-28.36-29.08-33.66-29.08-33.66Z"/><path class="cls-10" d="M1488.15,644.5s-34.62,57-41,62.18-27.56,12.82-10.26,14.1,25.64-5.77,36.54-9,24.36-5.12,19.23-13.46-3-26.52,8.06-38.06S1488.15,644.5,1488.15,644.5Z"/><path class="cls-19" d="M1664.79,512.21s-85.69-2.24-119.66,25.64c-19.87,30.12-68,119-71.68,128.81,2.56,2.57,17,7.19,23.39,6.55,18.91-22.55,43.91-42,53.85-59.72,12.25-21.8,16-32.7,35.89-34.62s64.75-8.33,78.21-8.33S1664.79,512.21,1664.79,512.21Z"/><polygon class="cls-18" points="1739.51 720.93 1735.02 720.93 1702.81 586.55 1712.69 586.55 1739.51 720.93"/><polygon class="cls-18" points="1604.96 720.93 1609.45 720.93 1646.41 581.8 1636.53 581.8 1604.96 720.93"/><path class="cls-20" d="M1713.61,506.34l-49.82,8.6s-66.21.6-96.47,6.24c-27.53,5.13-31.59,36.41,0,79.49,18,24.46,33.12,44,64.14,66,7.9-5.79,10.92-8,13.1-21.93-2.25-3.08-8.06-22.35-9.86-26.12-17.17-35.87-40.07-48.91-40.39-52.44,3.85-6.25,101.87,32.57,121.36,9.73C1734.28,554.1,1713.61,506.34,1713.61,506.34Z"/><path class="cls-5" d="M1715.67,393.55a52.13,52.13,0,0,0-39,9.7c-10.92,11.13-23.28,29.49-22.52,59.77,1,38.46-6,40.93,1.26,51.51,30.08,12.42,81.52,65.78,69.4,8.57-8.77-41.42,19.24-72.3-3.35-118.24C1719.64,401.12,1717.34,397.49,1715.67,393.55Z"/><path class="cls-13" d="M1654.16,477.5c-.58,20.05-3.41,25.95-1.25,32.24,12.26,1.25,34.69,6.16,40.3,14,6.41,9,12.82,10.26,9.83,3.64s-10.9-16,1.28-48.29,18-54.06,6-76.5Z"/><path class="cls-10" d="M1715.67,393.55c-8.08-19.12-10.06-40.61-10.06-40.61l-21.15,6.25s12,26.92.48,36.53c-2.45,2-5.3,4.53-8.25,7.53A52.13,52.13,0,0,1,1715.67,393.55Z"/><path class="cls-11" d="M1706.25,358c-1.25-1.12-2.82-2.51-4.47-4l-17.25,5.1,0,.09c.42.95,4.81,11.21,5.39,21.07,5.14-3.12,10.77-8.21,17.21-17.09C1706.74,361.27,1706.46,359.51,1706.25,358Z"/><path class="cls-10" d="M1700.8,399.57c-21.78,7.62-19.37,30.57-39.42,64.42-10.37,17.51-20,17.25-20,17.25a463.31,463.31,0,0,1-53.77-3.4c-18.43-2.26-19.6,3.23-6.78,7.81,25.85,9.25,52.68,19.2,74.31,16.79s58.64-57.6,60.54-72C1718.31,410.61,1711.78,395.73,1700.8,399.57Z"/><path class="cls-18" d="M1689.58,592.15c-1.35,0-2.74,0-4.16,0a207.45,207.45,0,0,1-39.55-4.87c-11.34-2.31-17.59-3.57-24.86-.1a5.6,5.6,0,0,1-4.83-10.11c10.66-5.09,19.58-3.28,31.92-.77a196.69,196.69,0,0,0,37.6,4.65c18.76.47,30.21-2.32,36-8.75,5.16-5.73,6.68-15.36,4.75-30.3-.65-5.11-1.31-9.37-1.89-13.12-1.64-10.59-2.72-17.58-1.38-28.39,1.24-10,4.57-23.42,12.27-49.35a5.6,5.6,0,0,1,10.74,3.19c-14.35,48.32-13.63,53-10.56,72.84.59,3.82,1.26,8.15,1.93,13.4,2.37,18.43,0,30.9-7.55,39.23C1722.28,588.24,1709.71,592.15,1689.58,592.15Z"/><path class="cls-13" d="M1490.5,692.58c-23,11.23-35.33,17.67-42.69,17.06-1.74-.15-3.18-.33-4.39-.51-8.19,4.84-21.27,10.56-6.56,11.65,17.31,1.28,25.64-5.77,36.54-9s24.36-5.12,19.23-13.46A17.52,17.52,0,0,1,1490.5,692.58Z"/><path class="cls-13" d="M1666.29,672.59c-.56,18.19-3.06,36.21-14.18,39.61a18.87,18.87,0,0,1-8,.72c-1.74,2.16-3.88,2.18-6.74,5.37-4.33,4.8,24.51,1.44,27.88,0s4.81-29.81,8.41-37C1676.6,675.35,1670.64,674,1666.29,672.59Z"/><path class="cls-20" d="M1577.82,500.5h-73a5.61,5.61,0,0,1-5.08-3.24l-29.49-63.46a5.6,5.6,0,0,1,10.16-4.72l28,60.22h69.39a5.6,5.6,0,1,1,0,11.2Z"/><path class="cls-10" d="M1593.09,478.47c-14.75-.21-29.37-9-36.63-7.72s-31,17.74-28,18.38,21.79-9.11,22.43-9.25,4.7,6.75,14.75,9.28.07-7.53,31.2,1.88C1617.09,497.15,1593.09,478.47,1593.09,478.47Z"/><path class="cls-21" d="M1713.51,376.1l2.16,17.45s-19.07,1.14-28.57,6.48-23.5,20.77-23.5,20.77L1675,401.1l1.65-12.61Z"/><path class="cls-21" d="M1705.39,397.46c-14.18-2.65-20.73,10.05-29.92,30.77s-24.87,45.9-28,49.15-52.56,0-52.56,0-1.5,14.31,0,16,10,1.5,10,1.5,3.42,2.73,6.62,4.89,30.35,6.22,43,5.58,24.15-1.71,25.86-3.63,36.11-54.92,38.24-73.93S1712.62,398.82,1705.39,397.46Z"/><path class="cls-22" d="M1663.6,310.29c-26.8,1.28-22.6,41.6-22.6,41.6s7,2.15,21.54-.26c-1.12-4.32-.64-15.38-.64-15.38a101.29,101.29,0,0,0,3.85,14.42c3.08,1.41,6.57.16,12.5-1.27,3,12.81,11.65,18.22,17.54,20.07,6.51,2,13.4,4.49,21.09.64s3.46-43.16-.62-51.06c-6.13-11.87-16.32-22.49-34-16.88A130.53,130.53,0,0,0,1663.6,310.29Z"/><path class="cls-22" d="M1710.2,358.17l11,16s-12.14,30.35,23.18,44.09c27.66,10.77,24.4,29.74,11.9,48.81s7.48,35.74,7.48,35.74,3-21.13,29.92-25.12c36.64-5.44,47-54.64,19.65-79.24-22.65-20.36-29.54-3.5-44.87-21.77s-44.27-5.92-44.27-5.92l-10.61-15.47Z"/><path class="cls-22" d="M1825.89,448a1,1,0,0,1-.46-.12,1,1,0,0,1-.39-1.32c9.21-16.84,1.7-37.24-2.09-42.77-.4-.58-.78-1.18-1.18-1.81-3.71-5.8-8.34-13-33-17.45-5.94-1.07-10.76-4.61-15.85-8.35-10.52-7.72-22.45-16.47-48.36-4.55a1,1,0,0,1-.81-1.77c27-12.41,39.37-3.29,50.32,4.75,4.91,3.6,9.55,7,15,8,25.51,4.59,30.39,12.2,34.31,18.32.4.62.77,1.2,1.15,1.76,4,5.79,11.84,27.17,2.19,44.8A1,1,0,0,1,1825.89,448Z"/><path class="cls-22" d="M1704.35,374.57a38,38,0,0,1-5.69-.46c-9.38-1.4-22-6.73-22.94-36.65a1,1,0,0,1,2-.07c.4,12.34,2.85,21.46,7.27,27.12,3.36,4.31,7.81,6.74,14,7.67,8.68,1.3,14.43-.3,17.09-4.76a1,1,0,0,1,1.68,1C1715.27,372.51,1710.79,374.57,1704.35,374.57Z"/><polygon class="cls-18" points="1339.85 720.93 1347.05 720.93 1375.06 506.81 1359.22 506.81 1339.85 720.93"/><polygon class="cls-18" points="1584.19 720.93 1576.99 720.93 1548.98 506.81 1564.82 506.81 1584.19 720.93"/><path class="cls-23" d="M1866.57,540.19c12.46,11.38,7,22.75-2.17,43.88s-10.83,99.12-10.83,99.12l7.58-1.08s-1.08-80.17,9.21-101.83,14.63-32.5,23.84-25.46S1866.57,540.19,1866.57,540.19Z"/><path class="cls-24" d="M1859.73,525.47c1.51-6.75,10.5-14,22.51-20.23-1.79,10-7.51,26.2-1.59,29.54,8,4.49.78-18.2,3.87-30.68a148.34,148.34,0,0,1,37.35-12.25s0,.09,0,.14c-7,17.87-16.25,24.91-12.46,27.62,2.85,2,12.15-18.61,24.41-29.19,9.21-.5,17,.75,21.61,4.4,7.13,5.64,11.91,10.65,4.74,27.82a32.25,32.25,0,0,1-15.55,5.64c-16.25,1.62-23.83,2.16-12.46,7.58,5.57,2.65,14.91-.15,22.48-1.86-2.46,4.53-5.48,9.65-9.15,15.48a56.93,56.93,0,0,1-7.61,9.69c-5.24,1-9.8,1-12.22,0-7.58-3.25-27.08-13.54-32-9.21s36.12,6.93,33.28,17.71c-19.81,11.42-42.49,6-46.5-4.5C1875.05,549.07,1855.17,545.76,1859.73,525.47Z"/><path class="cls-23" d="M1900.7,602.48c-21.67-16.25-43.88-1.08-55.25,16.25s-3.25,56.33-3.25,56.33,4.33,0,4.33-1.62-11.92-46,16.25-66.08c17.62-12.54,30.33-6.5,32-.54s-7,16.79-7,16.79Z"/><path class="cls-24" d="M1850.86,569.08c21.67,0,28.71,33.58,22.75,53.08S1859.53,678,1859.53,678l-5.42-5.41s20.59-50.92,15.71-73.67-16.79-26.54-19-26.54S1850.86,569.08,1850.86,569.08Z"/><path class="cls-23" d="M1869,622.31a15.86,15.86,0,0,1,5.71-4.79,42.52,42.52,0,0,1-1.13,4.64c-2.71,8.89-5.88,21.26-8.52,32.09l-1.18-6.82c-.13-.78-.24-1.63-.31-2.52A210.12,210.12,0,0,0,1869,622.31Z"/><path class="cls-24" d="M1875,622.48c41.16-17.34,19.48-41.12,55.77-25.41,2.55,1.1,5.67,3.89,8.79,7.74a26.86,26.86,0,0,1-11.5.92c-10.83-1.62-7,7,10.83,9.21a40.11,40.11,0,0,1,8.38,1.77c8.51,16.35,12.35,37.87-5.67,45.35a40.78,40.78,0,0,1-12.83,2.64c-5.56-4.42,1.36-30-7.21-26.47-8.23,3.39,2.58,21.93,1.1,26.6a118.93,118.93,0,0,1-25.72-3.61c-3.4-1.9-6-4.46-6.8-7.82-2.71-11.38,15.17-18.42,15.71-28.17.5-9-6.55,19.72-25.23,23.94C1863.7,641.28,1855.72,630.58,1875,622.48Z"/><path class="cls-24" d="M1845.63,591.83c4.33-9.21-7-11.37-6.5-4.33.48,6.24.53,21.4-5.87,25.53-11-1.19-26-5.64-37.4-12.42a4.56,4.56,0,0,1,.48-2.82c4.87-9.75,36.29-17.88,26.54-21.13-7.77-2.58-21.37,12.69-32.34,20.39-6.58-5-11-10.95-11-17.6,0-9,10.94-19.19,25.08-24.06,6.36.65,12.27,4.13,21.51,9.36,13.64,7.73,10.48-4.77-2.41-12.19a38.88,38.88,0,0,1,30.42,16.7s-.78,4.86,4.36,12.37c14,20.5-2.16,32.47-21.51,31.69C1838.09,607.92,1842.63,598.19,1845.63,591.83Z"/><path class="cls-23" d="M1899.39,601.56c10.59,8.19,22.36,17.76,36.81,24.26s11.55,27.69,11.55,27.69,2.17-18.3-9.87-24.56-20-13.72-29.13-15.17a130.5,130.5,0,0,1-14.2-2.89s2.89-5.77,1.2-7.94S1899.39,601.56,1899.39,601.56Z"/><path class="cls-23" d="M1951.6,505.45c-38.76,10.35-67.16,35.15-72.46,41.16s-5.3,7.71-5.3,7.71l4.1,7.7,1.92-1s-3.13-6.5,5.06-14.93c14.11-14.53,31.29-26,43.09-31S1951.6,505.45,1951.6,505.45Z"/><path class="cls-20" d="M1852,666.9h0a26.47,26.47,0,0,1,26.47,26.47V720a0,0,0,0,1,0,0h-52.94a0,0,0,0,1,0,0V693.37A26.47,26.47,0,0,1,1852,666.9Z" transform="translate(3704.03 1386.89) rotate(-180)"/><rect class="cls-1" x="1825.55" y="672.98" width="52.94" height="3.73"/><rect class="cls-1" x="1825.55" y="679.78" width="52.94" height="2.19"/><rect class="cls-3" x="874.04" y="653.61" width="22.29" height="20.06" rx="10.03" transform="translate(1770.37 1327.29) rotate(-180)"/><rect class="cls-3" x="833.51" y="653.61" width="22.29" height="20.06" rx="10.03" transform="translate(1689.31 1327.29) rotate(-180)"/><rect class="cls-3" x="792.97" y="653.61" width="22.29" height="20.06" rx="10.03" transform="translate(1608.24 1327.29) rotate(180)"/><rect class="cls-3" x="1930.11" y="283.44" width="22.29" height="20.06" rx="10.03" transform="translate(2234.73 -1647.78) rotate(90)"/><rect class="cls-3" x="1930.11" y="323.97" width="22.29" height="20.06" rx="10.03" transform="translate(2275.26 -1607.25) rotate(90)"/><rect class="cls-3" x="1930.11" y="364.5" width="22.29" height="20.06" rx="10.03" transform="translate(2315.79 -1566.72) rotate(90)"/><path class="cls-25" d="M98.12,426.23l8.46-10.11c4.64,4,10.65,6.81,16,6.81,6.15,0,9.16-2.42,9.16-6.29,0-4.1-3.7-5.42-9.4-7.76l-8.47-3.61c-6.75-2.75-13.15-8.3-13.15-17.77,0-10.8,9.65-19.42,23.22-19.42a30.09,30.09,0,0,1,21,8.54l-7.43,9.28c-4.3-3.29-8.38-5.1-13.53-5.1s-8.32,2.11-8.32,5.84c0,4,4.27,5.45,10,7.72l8.31,3.36c8,3.22,12.93,8.52,12.93,17.73,0,10.83-9,20.21-24.56,20.21A35.91,35.91,0,0,1,98.12,426.23Z"/><path class="cls-25" d="M155.9,416.42V396.37h-6.78v-11l7.6-.56,1.72-13.18H170.6v13.18h11.89v11.53H170.6v19.87c0,5.62,2.55,7.88,6.42,7.88a14.83,14.83,0,0,0,4.72-.94l2.32,10.68a35.21,35.21,0,0,1-11,1.8C160.77,435.66,155.9,427.91,155.9,416.42Z"/><path class="cls-25" d="M187.93,420.69c0-10.45,8.31-16.11,27.94-18.18-.3-4.34-2.46-7.17-7.85-7.17-4.16,0-8.31,1.75-13.13,4.48l-5.22-9.65c6.29-3.85,13.39-6.53,21.19-6.53,12.68,0,19.71,7.25,19.71,22.45v28.37h-12l-1-5.09h-.37c-4.18,3.67-8.86,6.29-14.43,6.29C193.67,435.66,187.93,429.05,187.93,420.69Zm27.94-.65v-8.67c-10.46,1.42-13.87,4.4-13.87,8.15,0,3.2,2.2,4.77,5.69,4.77C211,424.29,213.26,422.64,215.87,420Z"/><path class="cls-25" d="M238.85,385.4l7.42-.56h54.41v11.53H238.85Zm6.6-2.78c0-10.17,5.29-18.43,18.79-18.43a28.27,28.27,0,0,1,10.27,1.8l-2.64,10.84a13.26,13.26,0,0,0-5.85-1.1c-3.36,0-5.87,2.13-5.87,6.79v51.94h-14.7Zm31.6-.35c0-10.47,4.86-19.08,18.26-19.08A28.52,28.52,0,0,1,305.2,365l-2.65,10.84a14.25,14.25,0,0,0-5.14-1.07c-3.58,0-5.66,2-5.66,7.11v52.62h-14.7Z"/><path class="cls-25" d="M307.47,369.9c0-4.51,3.57-7.69,8.5-7.69s8.51,3.18,8.51,7.69-3.57,7.68-8.51,7.68S307.47,374.37,307.47,369.9Zm1.14,14.94h14.7v49.62h-14.7Z"/><path class="cls-25" d="M336.21,384.84h12l1.06,6.28h.36c4.18-4,9.18-7.48,15.94-7.48,10.79,0,15.39,7.61,15.39,20v30.81h-14.7V405.54c0-7.14-1.91-9.38-6.16-9.38-3.69,0-5.95,1.72-9.18,4.82v33.48h-14.7Z"/><path class="cls-25" d="M390.36,443c0-4.12,2.47-7.44,7-10v-.4a9.62,9.62,0,0,1-4.53-8.42c0-3.58,2.38-7.07,5.53-9.29v-.4a15.9,15.9,0,0,1-6.66-12.88c0-11.9,9.84-17.95,20.52-17.95a24,24,0,0,1,7.69,1.2h18.14v10.71h-8a13,13,0,0,1,1.68,6.54c0,11.41-8.69,16.67-19.54,16.67a21.57,21.57,0,0,1-6.05-1,4.23,4.23,0,0,0-1.73,3.69c0,2.44,2,3.63,7.42,3.63h8.05c12.16,0,18.94,3.73,18.94,12.62,0,10.3-10.74,17.81-27.77,17.81C399.57,455.55,390.36,451.8,390.36,443Zm34.45-2.73c0-3.13-2.69-3.84-7.57-3.84h-5.15a26.14,26.14,0,0,1-6.95-.64c-1.84,1.55-2.68,3.08-2.68,4.87,0,3.76,4.35,5.69,11,5.69S424.81,443.68,424.81,440.24ZM419,401.59c0-5.28-2.87-8.06-6.78-8.06s-6.77,2.76-6.77,8.06,2.91,8.27,6.77,8.27S419,407,419,401.59Z"/><path class="cls-25" d="M463.82,426.23l8.46-10.11c4.63,4,10.65,6.81,16,6.81,6.15,0,9.16-2.42,9.16-6.29,0-4.1-3.7-5.42-9.4-7.76l-8.47-3.61c-6.75-2.75-13.15-8.3-13.15-17.77,0-10.8,9.65-19.42,23.21-19.42a30.1,30.1,0,0,1,21,8.54l-7.44,9.28c-4.29-3.29-8.37-5.1-13.53-5.1s-8.31,2.11-8.31,5.84c0,4,4.26,5.45,9.95,7.72l8.31,3.36c8,3.22,12.93,8.52,12.93,17.73,0,10.83-9,20.21-24.56,20.21A35.89,35.89,0,0,1,463.82,426.23Z"/><path class="cls-25" d="M519.52,409.67c0-16.1,11.49-26,23.4-26,14.14,0,21.14,10.27,21.14,23.81a33.47,33.47,0,0,1-.61,6.5H533.76c1.32,7.2,6.25,10.5,12.87,10.5a20.68,20.68,0,0,0,10.73-3.25l4.86,8.87a32.35,32.35,0,0,1-17.6,5.59C530.48,435.66,519.52,426.09,519.52,409.67Zm32-5.44c0-5.46-2.38-9.39-8.25-9.39-4.64,0-8.65,3.12-9.65,9.39Z"/><path class="cls-25" d="M574.2,384.84h12l1.06,8.67h.36c3.61-6.62,9-9.87,14.1-9.87a13.67,13.67,0,0,1,5.91,1l-2.44,12.69a20.11,20.11,0,0,0-5.36-.8c-3.74,0-8.28,2.41-10.93,9.17v28.76H574.2Z"/><path class="cls-25" d="M609.43,384.84H624.2l6.46,23.42c1.27,4.93,2.58,10.06,3.85,15.25h.4c1.27-5.19,2.57-10.32,3.84-15.25l6.46-23.42h14.08L643.1,434.46h-17Z"/><path class="cls-25" d="M665.86,369.9c0-4.51,3.58-7.69,8.51-7.69s8.51,3.18,8.51,7.69-3.58,7.68-8.51,7.68S665.86,374.37,665.86,369.9ZM667,384.84h14.7v49.62H667Z"/><path class="cls-25" d="M691.72,409.67c0-16.5,12.14-26,25.85-26A21.58,21.58,0,0,1,732.06,389l-6.94,9.45c-2.38-2-4.36-2.93-6.73-2.93-7.07,0-11.61,5.58-11.61,14.17s4.73,14.12,11.12,14.12c3.26,0,6.37-1.61,9-3.66l5.75,9.62a24.76,24.76,0,0,1-16.35,5.91C702.4,435.66,691.72,426.12,691.72,409.67Z"/><path class="cls-25" d="M735.62,409.67c0-16.1,11.48-26,23.4-26,14.13,0,21.13,10.27,21.13,23.81a33.47,33.47,0,0,1-.61,6.5H749.86c1.32,7.2,6.25,10.5,12.87,10.5a20.68,20.68,0,0,0,10.73-3.25l4.86,8.87a32.39,32.39,0,0,1-17.61,5.59C746.57,435.66,735.62,426.09,735.62,409.67Zm32-5.44c0-5.46-2.37-9.39-8.24-9.39-4.65,0-8.66,3.12-9.66,9.39Z"/><path class="cls-25" d="M785.91,428.73l6.61-9.16c4.5,3.4,8.65,5.21,12.8,5.21,4.38,0,6.27-1.67,6.27-4.27,0-3.27-4.92-4.75-10-6.75-6.08-2.35-13.13-6.39-13.13-14.59,0-9.24,7.51-15.53,19-15.53a28.21,28.21,0,0,1,17.48,6.28l-6.58,8.83c-3.53-2.56-7-4.24-10.45-4.24-3.79,0-5.66,1.49-5.66,4,0,3.16,4.64,4.37,9.79,6.24,6.28,2.33,13.36,5.86,13.36,14.93s-7.08,16-20.38,16A32.21,32.21,0,0,1,785.91,428.73Z"/></svg>