<svg id="Layer_1" data-name="Layer 1" xmlns="http://www.w3.org/2000/svg" viewBox="0 0 1199 1192"><defs><style>.cls-1{fill:#a4b0bd;}.cls-2{fill:#c6d2dc;}.cls-3{fill:#122b42;}.cls-4{fill:#342f6b;}.cls-5{fill:#92a1ad;}.cls-6{fill:#708491;}.cls-7{fill:#ffd255;}.cls-8{fill:#7d95c9;}.cls-9{fill:#2071b5;}.cls-10{fill:#f7a70e;}.cls-11{fill:#fff;}.cls-12{fill:#e8e9eb;}.cls-13{fill:#e7a988;}.cls-14{fill:#d98568;}.cls-15{fill:#98a8d7;}.cls-16{fill:#20629e;}.cls-17{fill:#25b2e4;}.cls-18{fill:#2a2a64;}</style></defs><path class="cls-1" d="M1019.73,911H227.78c-98.6,11.28-159.45,26.74-159.45,43.81,0,34.51,248.67,62.48,555.42,62.48s555.43-28,555.43-62.48C1179.18,937.73,1118.32,922.27,1019.73,911Z"/><path class="cls-2" d="M1194,912.31c4.72-15,0-33.72-7.88-48.35-10.33-19.3-25.21-37.21-27.68-59-4.69-41.41,36.9-76.44,35.17-118.09-2.06-49.66-63.61-81.61-63.83-131.31-.21-46.54,54.49-82.45,46.87-128.34-6.83-41.13-56.51-56.07-86.62-84.57-29.59-28-34.93-76.32-66.17-102.55-24.73-20.76-52.18-35.84-85.2-36.69-21.71-.56-39.85,6.11-60.39,11.33-52.93,13.45-107.06-23.4-157.55-33.89A284.8,284.8,0,0,0,600,182.36c-28.26,6.56-55.54,16.62-83.58,24-28.5,7.52-51.54,7.57-80.27,1.3-67.12-14.65-170.25,27.56-217.49,67.9-52.37,44.74-54.7,102.46-79.43,167.22-23.93,62.68-30.06,131.54-57.53,192.72C66.57,669.26,45.22,700,31.51,734.31,9,790.67,8.76,855.72,30.68,912.31Z"/><path class="cls-3" d="M885.46,972.35a8.68,8.68,0,0,0,8.16-11.81c-6.63-16.33-25.38-27.52-43.2-32.87-31.37-9.41-64.67-9.25-97.4-10.72s-66.42-5-95.17-20.66a103.9,103.9,0,0,1-25.46-19.65V679.72H584.67V876.64a103.9,103.9,0,0,1-25.46,19.65C530.46,912,496.76,915.48,464,917s-66,1.31-97.4,10.72c-17.82,5.35-36.56,16.54-43.2,32.87a8.68,8.68,0,0,0,8.16,11.81h12.95l-.69-.12c.53-5.3,4.73-9.66,9.57-11.9S363.69,954.44,369,954c26.1-2.3,453-2.3,479.08,0,5.3.47,10.73,4.13,15.56,6.36s9,6.6,9.58,11.9l-.7.12Z"/><rect class="cls-4" x="596.45" y="810.65" width="27.55" height="84.63" rx="13.64"/><path class="cls-3" d="M1105.33,871.51a3405.7,3405.7,0,0,0-1007.81,0A14.73,14.73,0,0,1,80.59,857V247.33a14.73,14.73,0,0,1,16.93-14.55,3405,3405,0,0,0,1007.81,0,14.72,14.72,0,0,1,16.92,14.55V857A14.72,14.72,0,0,1,1105.33,871.51Z"/><path class="cls-1" d="M1094.41,867.73A3281,3281,0,0,0,91,867.73V247.5a3281,3281,0,0,0,1003.43,0Z"/><rect class="cls-5" x="819.52" y="274.65" width="237.17" height="139.74"/><path class="cls-2" d="M99.71,242V862.27q39.89-6.16,79.83-11.3L335.06,269.73Q217.19,260.12,99.71,242Z"/><path class="cls-5" d="M268.52,688.88C241,691,211.45,686.77,186.08,676.2c-38.34-16.67-60.91-50.44-86.37-80.56V862.27a3280.57,3280.57,0,0,1,1003.42,0V368C861.94,471,621.84,564.47,376.32,659.29,340.38,674.09,306.56,686.77,268.52,688.88Z"/><rect class="cls-6" x="388.35" y="277.6" width="421.24" height="419.7"/><rect class="cls-5" x="98.59" y="365.02" width="281.35" height="230.76"/><rect class="cls-6" x="820.5" y="449.82" width="282.44" height="241.1"/><rect class="cls-4" x="810.09" y="429.72" width="373.42" height="246.6"/><path class="cls-7" d="M887.56,458.82a42.74,42.74,0,1,0,42.74,42.74A42.75,42.75,0,0,0,887.56,458.82Zm0,68.62a25.88,25.88,0,1,1,25.88-25.88A25.87,25.87,0,0,1,887.56,527.44Z"/><path class="cls-8" d="M887.56,527.44a25.87,25.87,0,0,1-25.86-25.09H844.83a42.73,42.73,0,0,0,85.45,0H913.42A25.87,25.87,0,0,1,887.56,527.44Z"/><path class="cls-9" d="M908.4,464.25,901,479.45a25.87,25.87,0,0,1,12.42,22.11c0,.26,0,.52,0,.79h16.86c0-.27,0-.53,0-.79A42.73,42.73,0,0,0,908.4,464.25Z"/><path class="cls-7" d="M988.73,458.82a42.74,42.74,0,1,0,42.74,42.74A42.74,42.74,0,0,0,988.73,458.82Zm0,68.62a25.88,25.88,0,1,1,25.88-25.88A25.88,25.88,0,0,1,988.73,527.44Z"/><path class="cls-7" d="M988.73,475.68a25.8,25.8,0,0,1,19.18,8.53l12.46-11.36a42.7,42.7,0,0,0-54.64-7.31L976.17,479A25.76,25.76,0,0,1,988.73,475.68Z"/><path class="cls-8" d="M1031.43,500a42.52,42.52,0,0,0-11.06-27.14l-12.46,11.36a25.74,25.74,0,0,1,6.65,15.78Z"/><path class="cls-8" d="M976.17,479l-10.44-13.41A42.7,42.7,0,0,0,946,500c0,.52,0,1.05,0,1.57a42.53,42.53,0,0,0,11.23,28.87l12.46-11.36a25.77,25.77,0,0,1-6.83-17.51c0-.53,0-1.05,0-1.57A25.87,25.87,0,0,1,976.17,479Z"/><path class="cls-9" d="M1031.47,501.56c0-.52,0-1.05,0-1.57h-16.87c0,.52.05,1,.05,1.57a25.81,25.81,0,0,1-7,17.74L1018,532.7A42.62,42.62,0,0,0,1031.47,501.56Z"/><path class="cls-7" d="M1089.9,458.82a42.74,42.74,0,1,0,42.74,42.74A42.74,42.74,0,0,0,1089.9,458.82Zm0,68.62a25.88,25.88,0,1,1,25.88-25.88A25.88,25.88,0,0,1,1089.9,527.44Z"/><path class="cls-8" d="M1115.78,501.56a25.86,25.86,0,0,1-12.28,22L1115.26,536a42.75,42.75,0,0,0,3.35-66.07l-12.17,11.76A25.8,25.8,0,0,1,1115.78,501.56Z"/><rect class="cls-10" x="832.65" y="622.83" width="47.91" height="7.06"/><rect class="cls-1" x="832.65" y="638.42" width="24.69" height="2.87"/><rect class="cls-1" x="861.37" y="638.42" width="15.77" height="2.87"/><polygon class="cls-1" points="868.22 646.09 868.22 648 866.61 648 866.61 646.09 841.11 646.09 841.11 648.96 879.09 648.96 879.09 646.09 868.22 646.09"/><rect class="cls-1" x="832.65" y="646.09" width="6.44" height="2.87"/><rect class="cls-1" x="880.56" y="646.09" width="6.04" height="2.87"/><rect class="cls-1" x="832.65" y="653.75" width="49.93" height="2.87"/><rect class="cls-1" x="832.65" y="661.41" width="36.37" height="2.87"/><rect class="cls-1" x="871.44" y="661.41" width="15.16" height="2.87"/><rect class="cls-5" x="871.6" y="557.77" width="30" height="7.13"/><rect class="cls-7" x="871.53" y="570.67" width="30.13" height="1.97"/><rect class="cls-7" x="871.53" y="578.89" width="30.13" height="1.97"/><rect class="cls-5" x="973.73" y="557.77" width="30" height="7.13"/><rect class="cls-7" x="973.66" y="570.67" width="30.13" height="1.97"/><rect class="cls-7" x="973.66" y="578.89" width="30.13" height="1.97"/><rect class="cls-5" x="1075.86" y="557.77" width="30" height="7.13"/><rect class="cls-7" x="1075.79" y="570.67" width="30.13" height="1.97"/><rect class="cls-7" x="1075.79" y="578.89" width="30.13" height="1.97"/><rect class="cls-11" x="396.55" y="216.24" width="406.48" height="455.14"/><rect class="cls-12" x="471.83" y="231.03" width="103.52" height="11.82"/><rect class="cls-12" x="726.08" y="231.03" width="45.4" height="11.82"/><rect class="cls-12" x="726.08" y="258.51" width="45.4" height="3.89"/><path class="cls-7" d="M459.42,474.85a30.09,30.09,0,1,0,30.09,30.09A30.09,30.09,0,0,0,459.42,474.85Zm0,48.31a18.22,18.22,0,1,1,18.22-18.22A18.22,18.22,0,0,1,459.42,523.16Z"/><path class="cls-7" d="M459.42,492.93a12,12,0,1,0,12,12A12,12,0,0,0,459.42,492.93Zm0,22.6A10.59,10.59,0,1,1,470,504.94,10.59,10.59,0,0,1,459.42,515.53Z"/><path class="cls-7" d="M526.13,474.85a30.09,30.09,0,1,0,30.09,30.09A30.09,30.09,0,0,0,526.13,474.85Zm0,48.31a18.22,18.22,0,1,1,18.22-18.22A18.22,18.22,0,0,1,526.13,523.16Z"/><path class="cls-7" d="M526.13,492.93a12,12,0,1,0,12,12A12,12,0,0,0,526.13,492.93Zm0,22.6a10.59,10.59,0,1,1,10.59-10.59A10.59,10.59,0,0,1,526.13,515.53Z"/><polygon class="cls-7" points="438.77 597.61 438.02 595.79 540.92 553.89 563.28 563.77 590.84 524.03 609.33 535.65 629.4 506.83 631.02 507.96 609.87 538.32 591.38 526.7 563.98 566.22 540.89 556.02 438.77 597.61"/><rect class="cls-8" x="469.53" y="575.07" width="18.05" height="72.21"/><rect class="cls-8" x="498.79" y="586.28" width="18.05" height="61"/><rect class="cls-8" x="528.05" y="573.2" width="18.05" height="74.08"/><rect class="cls-8" x="557.3" y="593.75" width="18.05" height="53.53"/><rect class="cls-8" x="586.56" y="543.33" width="18.05" height="103.96"/><rect class="cls-8" x="615.82" y="533.37" width="18.05" height="113.92"/><rect class="cls-12" x="476.43" y="279.96" width="23.52" height="178.85"/><rect class="cls-12" x="510.59" y="279.96" width="23.52" height="178.85"/><rect class="cls-12" x="544.76" y="279.96" width="23.52" height="178.85"/><rect class="cls-12" x="578.92" y="279.96" width="23.52" height="178.85"/><rect class="cls-12" x="613.08" y="279.96" width="23.52" height="178.85"/><rect class="cls-12" x="647.25" y="279.96" width="23.52" height="178.85"/><rect class="cls-12" x="681.41" y="279.96" width="23.52" height="178.85"/><rect class="cls-12" x="715.58" y="279.96" width="23.52" height="178.85"/><rect class="cls-12" x="749.74" y="279.96" width="23.52" height="178.85"/><rect class="cls-11" x="483.67" y="291.94" width="2.95" height="165.81"/><rect class="cls-11" x="518.11" y="291.94" width="2.95" height="165.81"/><rect class="cls-11" x="552.55" y="291.94" width="2.95" height="165.81"/><rect class="cls-11" x="586.99" y="291.94" width="2.95" height="165.81"/><rect class="cls-11" x="621.43" y="291.94" width="2.95" height="165.81"/><rect class="cls-11" x="655.88" y="291.94" width="2.95" height="165.81"/><rect class="cls-11" x="690.32" y="291.94" width="2.95" height="165.81"/><rect class="cls-11" x="724.76" y="291.94" width="2.95" height="165.81"/><rect class="cls-11" x="759.2" y="291.94" width="2.95" height="165.81"/><rect class="cls-10" x="479.74" y="375.09" width="10.82" height="82.66"/><rect class="cls-10" x="514.18" y="375.09" width="10.82" height="82.66"/><rect class="cls-10" x="548.62" y="401.9" width="10.82" height="55.84"/><rect class="cls-10" x="583.06" y="346.06" width="10.82" height="111.69"/><rect class="cls-7" x="583.06" y="346.06" width="10.82" height="23.33"/><rect class="cls-10" x="617.5" y="328.84" width="10.82" height="128.91"/><rect class="cls-10" x="651.94" y="375.09" width="10.82" height="82.66"/><rect class="cls-10" x="686.38" y="341.14" width="10.82" height="116.61"/><rect class="cls-7" x="686.38" y="341.14" width="10.82" height="7.93"/><rect class="cls-10" x="720.82" y="353.93" width="10.82" height="103.81"/><rect class="cls-10" x="755.26" y="375.09" width="10.82" height="82.66"/><rect class="cls-12" x="442.88" y="450.66" width="22.12" height="6.41"/><rect class="cls-12" x="442.88" y="424.2" width="22.12" height="6.41"/><rect class="cls-12" x="442.88" y="397.75" width="22.12" height="6.41"/><rect class="cls-12" x="442.88" y="371.3" width="22.12" height="6.41"/><rect class="cls-12" x="442.88" y="344.84" width="22.12" height="6.41"/><rect class="cls-12" x="442.88" y="318.39" width="22.12" height="6.41"/><rect class="cls-12" x="442.88" y="291.94" width="22.12" height="6.41"/><rect class="cls-1" x="476.43" y="271.5" width="23.52" height="2.52"/><rect class="cls-1" x="510.59" y="271.5" width="23.52" height="2.52"/><rect class="cls-1" x="544.76" y="271.5" width="23.52" height="2.52"/><rect class="cls-1" x="578.92" y="271.5" width="23.52" height="2.52"/><rect class="cls-1" x="613.08" y="271.5" width="23.52" height="2.52"/><rect class="cls-1" x="647.25" y="271.5" width="23.52" height="2.52"/><rect class="cls-1" x="681.41" y="271.5" width="23.52" height="2.52"/><rect class="cls-1" x="715.58" y="271.5" width="23.52" height="2.52"/><rect class="cls-1" x="749.74" y="271.5" width="23.52" height="2.52"/><rect class="cls-11" x="3.85" y="346.32" width="383.28" height="230.76"/><circle class="cls-10" cx="324.98" cy="427.68" r="57.34"/><path class="cls-7" d="M324.77,370.34A57.16,57.16,0,0,0,284,387.58l38.15,40.94L349,375.58A57.06,57.06,0,0,0,324.77,370.34Z"/><path class="cls-4" d="M374.25,398.35A57.63,57.63,0,0,0,349,375.58l-26.81,52.94.55.59Z"/><path class="cls-8" d="M284,387.58a57.33,57.33,0,0,0-8.23,69.53l45.71-27.27.67-1.32Z"/><polygon class="cls-10" points="322.15 428.51 321.48 429.84 322.7 429.11 322.15 428.51"/><path class="cls-4" d="M362.09,471.38,322.7,429.11l-1.22.73-24.3,48a57.33,57.33,0,0,0,64.91-6.44Z"/><path class="cls-12" d="M275.77,457.11a57.72,57.72,0,0,0,21.41,20.71l24.3-48Z"/><path class="cls-8" d="M374.25,398.35,322.7,429.11l39.39,42.27a57.32,57.32,0,0,0,12.16-73Z"/><circle class="cls-11" cx="324.98" cy="427.68" r="40.02"/><path class="cls-10" d="M325,462.36a34.69,34.69,0,1,1,34.69-34.68A34.72,34.72,0,0,1,325,462.36Zm0-67.4a32.72,32.72,0,1,0,32.72,32.72A32.76,32.76,0,0,0,325,395Z"/><rect class="cls-10" x="323.66" y="497.63" width="17.03" height="3.92"/><rect class="cls-1" x="323.66" y="508.08" width="25.23" height="3.92"/><rect class="cls-1" x="352.24" y="508.08" width="12.43" height="3.92"/><rect class="cls-1" x="365.66" y="508.08" width="7.95" height="3.92"/><rect class="cls-1" x="323.66" y="518.53" width="12.05" height="3.92"/><rect class="cls-1" x="338.94" y="518.53" width="30.95" height="3.92"/><rect class="cls-1" x="359.45" y="528.98" width="14.17" height="3.92"/><rect class="cls-1" x="323.66" y="528.98" width="34.42" height="3.92"/><rect class="cls-1" x="323.66" y="539.43" width="21.75" height="3.92"/><rect class="cls-1" x="348.76" y="539.43" width="9.32" height="3.92"/><rect class="cls-1" x="359.45" y="539.43" width="5.4" height="3.92"/><rect class="cls-10" x="47.98" y="530.67" width="43.63" height="2.68"/><rect class="cls-1" x="47.98" y="537.81" width="52.48" height="2.68"/><rect class="cls-1" x="68.05" y="544.95" width="32.42" height="2.68"/><rect class="cls-1" x="47.98" y="544.95" width="15.28" height="2.68"/><rect class="cls-1" x="47.98" y="552.08" width="52.48" height="2.68"/><rect class="cls-1" x="47.98" y="559.22" width="52.48" height="2.68"/><rect class="cls-3" x="47" y="383.89" width="1.97" height="128.3"/><rect class="cls-3" x="83.49" y="383.89" width="1.97" height="128.3"/><rect class="cls-3" x="119.98" y="383.89" width="1.97" height="128.3"/><rect class="cls-3" x="156.47" y="383.89" width="1.97" height="128.3"/><rect class="cls-3" x="192.96" y="383.89" width="1.97" height="128.3"/><rect class="cls-3" x="229.45" y="383.89" width="1.97" height="128.3"/><rect class="cls-1" x="42.05" y="434.86" width="11.87" height="77.32"/><rect class="cls-1" x="78.88" y="461.38" width="11.87" height="50.81"/><rect class="cls-1" x="115.08" y="439.09" width="11.87" height="73.1"/><rect class="cls-1" x="151.52" y="411.22" width="11.87" height="100.96"/><rect class="cls-1" x="188.01" y="453.86" width="11.87" height="58.33"/><rect class="cls-12" x="22.98" y="514.62" width="214.59" height="1.64"/><polygon class="cls-7" points="243.01 411.84 230.44 390.07 217.87 411.84 224.5 411.84 224.5 512.19 236.37 512.19 236.37 411.84 243.01 411.84"/><path class="cls-12" d="M38.3,505.9a1.5,1.5,0,0,1-1.5,1.5H24.47A1.5,1.5,0,0,1,23,505.9h0a1.5,1.5,0,0,1,1.49-1.5H36.8a1.5,1.5,0,0,1,1.5,1.5Z"/><path class="cls-12" d="M38.3,484.52a1.5,1.5,0,0,1-1.5,1.5H24.47a1.5,1.5,0,0,1-1.49-1.5h0a1.5,1.5,0,0,1,1.49-1.5H36.8a1.5,1.5,0,0,1,1.5,1.5Z"/><path class="cls-12" d="M38.3,463.14a1.5,1.5,0,0,1-1.5,1.5H24.47a1.5,1.5,0,0,1-1.49-1.5h0a1.5,1.5,0,0,1,1.49-1.5H36.8a1.5,1.5,0,0,1,1.5,1.5Z"/><path class="cls-12" d="M38.3,441.76a1.5,1.5,0,0,1-1.5,1.5H24.47a1.5,1.5,0,0,1-1.49-1.5h0a1.5,1.5,0,0,1,1.49-1.5H36.8a1.5,1.5,0,0,1,1.5,1.5Z"/><path class="cls-12" d="M38.3,420.38a1.5,1.5,0,0,1-1.5,1.5H24.47a1.5,1.5,0,0,1-1.49-1.5h0a1.5,1.5,0,0,1,1.49-1.5H36.8a1.5,1.5,0,0,1,1.5,1.5Z"/><path class="cls-12" d="M38.3,399a1.5,1.5,0,0,1-1.5,1.5H24.47A1.5,1.5,0,0,1,23,399h0a1.5,1.5,0,0,1,1.49-1.5H36.8a1.5,1.5,0,0,1,1.5,1.5Z"/><path class="cls-12" d="M38.3,377.62a1.5,1.5,0,0,1-1.5,1.5H24.47a1.5,1.5,0,0,1-1.49-1.5h0a1.5,1.5,0,0,1,1.49-1.5H36.8a1.5,1.5,0,0,1,1.5,1.5Z"/><rect class="cls-11" x="834.89" y="241.23" width="239.55" height="158.19"/><rect class="cls-8" x="858.05" y="314.66" width="20.58" height="57.93"/><rect class="cls-8" x="883.96" y="332.26" width="20.58" height="40.33"/><rect class="cls-8" x="909.87" y="291.94" width="20.58" height="80.65"/><rect class="cls-8" x="935.79" y="314.66" width="20.58" height="57.93"/><rect class="cls-8" x="961.7" y="291.94" width="20.58" height="80.65"/><rect class="cls-8" x="987.62" y="298.34" width="20.58" height="74.25"/><rect class="cls-8" x="1013.53" y="282.29" width="20.58" height="90.3"/><rect class="cls-9" x="858.05" y="366.79" width="20.58" height="5.8"/><rect class="cls-9" x="883.96" y="349.4" width="20.58" height="23.19"/><rect class="cls-9" x="909.87" y="360.99" width="20.58" height="11.59"/><rect class="cls-9" x="935.79" y="349.4" width="20.58" height="23.19"/><rect class="cls-9" x="961.7" y="335.47" width="20.58" height="37.12"/><rect class="cls-9" x="987.62" y="349.4" width="20.58" height="23.19"/><rect class="cls-9" x="1013.53" y="314.66" width="20.58" height="57.93"/><rect class="cls-10" x="1026.87" y="248.34" width="32.5" height="4.79"/><rect class="cls-1" x="1026.87" y="258.92" width="16.75" height="1.95"/><rect class="cls-1" x="1046.35" y="258.92" width="10.7" height="1.95"/><polygon class="cls-1" points="1051 264.12 1051 265.42 1049.9 265.42 1049.9 264.12 1032.61 264.12 1032.61 266.07 1058.37 266.07 1058.37 264.12 1051 264.12"/><rect class="cls-1" x="1026.87" y="264.12" width="4.37" height="1.95"/><rect class="cls-1" x="1059.37" y="264.12" width="4.1" height="1.95"/><rect class="cls-10" x="860.17" y="274.89" width="16.64" height="4.05" rx="2.01"/><rect class="cls-10" x="885.93" y="274.89" width="16.64" height="4.05" rx="2.01"/><rect class="cls-10" x="911.84" y="274.89" width="16.64" height="4.05" rx="2.01"/><rect class="cls-10" x="937.76" y="274.89" width="16.64" height="4.05" rx="2.01"/><rect class="cls-10" x="963.67" y="274.89" width="16.64" height="4.05" rx="2.01"/><rect class="cls-10" x="989.59" y="274.89" width="16.64" height="4.05" rx="2.01"/><rect class="cls-10" x="1015.04" y="274.89" width="16.64" height="4.05" rx="2.01"/><path class="cls-10" d="M186.93,662.71c.77,2.1.22,4.58,1.31,6.54a5.82,5.82,0,0,0,4.9,2.68,15.36,15.36,0,0,0,5.69-1.14,100.36,100.36,0,0,0,10-4c2.35-1.11,4.77-2.39,6.22-4.55,1.57-2.33,1.76-5.29,2-8.09a234.34,234.34,0,0,1,5.6-37.35c.71-3,1.48-6.12,1.25-9.22s-1.68-6.3-4.41-7.8a11.25,11.25,0,0,0-5.83-1.05A12.57,12.57,0,0,0,206,601c-3.05,2.46-3.88,6.67-4.89,10.46A61.76,61.76,0,0,1,188,636.12c-2.47,2.83-5.23,5.49-7,8.81s-2.29,7.6-.22,10.73C182.58,658.27,185.87,659.77,186.93,662.71Z"/><path class="cls-3" d="M206.43,660.25a10.77,10.77,0,0,1-2.84,7.34c-2,2-4.94,2.72-7.71,3.37-2.32.54-4.87,1.07-7,0-2.39-1.16-3.53-3.88-4.47-6.36a32.92,32.92,0,0,1-2.36-8.42A11.1,11.1,0,0,1,184.2,648a10.18,10.18,0,0,1,6.39-3.3,13.8,13.8,0,0,1,11.51,4.07A15.74,15.74,0,0,1,206.43,660.25Z"/><path class="cls-13" d="M195.22,671.06c-4.44,1.61-9.34-.12-13.43-2.57a43.45,43.45,0,0,1-12.87-11.88,16.34,16.34,0,0,0,9.16-11.69c3.62,2,7.79,2.44,11.78,3.33s8.15,2.5,10.54,6.06a11.66,11.66,0,0,1,1.34,9.77A11,11,0,0,1,195.22,671.06Z"/><path class="cls-14" d="M200.4,654.31c-2.39-3.56-6.55-5.16-10.54-6.06s-8.16-1.31-11.78-3.33A16.75,16.75,0,0,1,171.62,655c8.3,5.75,21.7,4.76,25.29,11.94a11.6,11.6,0,0,1,1.08,2.51,11.21,11.21,0,0,0,3.75-5.4A11.66,11.66,0,0,0,200.4,654.31Z"/><rect class="cls-3" x="177.36" y="586.4" width="13.47" height="99.61" transform="translate(-152.7 65.93) rotate(-14.43)"/><path class="cls-13" d="M166.16,640.27a18.19,18.19,0,0,1,.48-3.68c1.2-4.52,5.87-14.13,6.13-18.83,4.4,6,1.4,10.63,1.66,12.94a27.33,27.33,0,0,1,6.82.45c.73.17,1.57.54,1.7,1.33a1.54,1.54,0,0,1-.65,1.44,4.13,4.13,0,0,1-1.47.57,7.54,7.54,0,0,1,2,1.55,2.93,2.93,0,0,1,.7,2.5,1.57,1.57,0,0,1-1.93,1.22,4.14,4.14,0,0,1,1.53,2.13c.18.9-.5,2-1.33,1.81a2.43,2.43,0,0,1,.34,3,15.49,15.49,0,0,1-2,2.48c-1.22,1.49-1.84,3.42-2.73,5.17s-2.23,3.43-4.05,3.75-3.71-.92-5.16-2.28a7.36,7.36,0,0,1-1.72-2.16,8.7,8.7,0,0,1-.55-3.56Q165.89,645.17,166.16,640.27Z"/><path class="cls-14" d="M182.88,636a7.54,7.54,0,0,0-2-1.55,4.13,4.13,0,0,0,1.47-.57,1.57,1.57,0,0,0,.66-1.44c-.14-.79-1-1.16-1.71-1.33a23.76,23.76,0,0,0-5.65-.47c3,9.52,3.25,19-2.23,27.41h0c1.82-.32,3.16-2,4.05-3.75s1.51-3.68,2.73-5.17a15.49,15.49,0,0,0,2-2.48,2.43,2.43,0,0,0-.34-3c.83.2,1.51-.91,1.33-1.81a4.14,4.14,0,0,0-1.53-2.13,1.57,1.57,0,0,0,1.93-1.22A2.93,2.93,0,0,0,182.88,636Z"/><path class="cls-3" d="M182.48,640.59a16.51,16.51,0,0,0-7.4-2l0-1a17.66,17.66,0,0,1,7.85,2.14Z"/><path class="cls-3" d="M182.47,644.18a22.79,22.79,0,0,0-7.64-1.65l0-1a23.42,23.42,0,0,1,8,1.72Z"/><path class="cls-3" d="M180.74,650a3.52,3.52,0,0,1-2.13-2.61,1,1,0,0,0-.11-.45.6.6,0,0,0-.3-.06,11.89,11.89,0,0,0-2.86.13l-.17-1a12.36,12.36,0,0,1,3.1-.14,1.37,1.37,0,0,1,.89.31,1.49,1.49,0,0,1,.41.91,2.56,2.56,0,0,0,1.54,2Z"/><path class="cls-13" d="M227.1,553.17c4.14-.49,9.19-3.19,13.21-4.38,1.12,5.33,3.69,18.91,7.23,25.28l1.37,2c-9.71,7.42-19.68,11.08-31.21,14.23C231,582.87,226.54,566.1,227.1,553.17Z"/><path class="cls-14" d="M238.33,549.46c-3.62,1.32-7.74,3.3-11.23,3.71-.56,12.93,3.92,29.7-9.4,37.15a129.49,129.49,0,0,0,13.59-4.42A81.87,81.87,0,0,0,238.33,549.46Z"/><path class="cls-3" d="M238.42,549.2c-3.78,1.31-8.23,3.53-12,4,.27,5.53,1,11.79.85,17.75C236.3,569,237.73,558.59,238.42,549.2Z"/><path class="cls-4" d="M223.37,578.42a16.45,16.45,0,0,0-6.4,4.84c-2.6,3.67-2.28,8.6-3.65,12.89A51.17,51.17,0,0,1,232.6,584.3,122.22,122.22,0,0,1,254.76,579a4.75,4.75,0,0,0-2.41-4.79,11.42,11.42,0,0,0-5.51-1.3A49,49,0,0,0,223.37,578.42Z"/><path class="cls-13" d="M241.09,531.34a25.35,25.35,0,0,0-14.9-8.7l-3.78-.08c-2.34,2.7-3.72,2.88-5.56,6l-.57,2.44c-.43,1.59-1.39,3.52-3.1,4.23a28.24,28.24,0,0,0-5.82,3.62,2.18,2.18,0,0,0-.4,3.87c1,1.08,2.12,2.11,3.22,3.12-.38,3.56.18,7.26.34,10.89.09,2,.09,4.24,1.27,5.83a7,7,0,0,0,4.69,2.3A28,28,0,0,0,236.54,560c3.88-2.68,7.31-6.48,8.67-11.23C246.93,542.8,245,536,241.09,531.34Z"/><path class="cls-14" d="M241.09,531.34a25.35,25.35,0,0,0-14.9-8.7l-3.78-.08c-2.34,2.7-3.72,2.88-5.56,6l-.3,1.28c.68,10.82,12,22.25,14.88,33a29.24,29.24,0,0,0,5.11-2.81c3.88-2.68,7.31-6.48,8.67-11.23C246.93,542.8,245,536,241.09,531.34Z"/><path class="cls-11" d="M216.28,531a7.41,7.41,0,0,0,.28-1.52Z"/><path class="cls-3" d="M266,521.75q-2.18-4.11-4.73-8c-.79-1.2-1.77-2.49-3.19-2.7s-2.68.66-3.8,1.5l-3.5,2.6a44,44,0,0,0-5.38-2.67,23.27,23.27,0,0,0-17.39.69l-5.23-1.67c-3.28,2.15-4.79,6.46-5.22,10.57a33.31,33.31,0,0,0,4.69,20.37c3.6,6,10,13.46,16,16.59,3.27,1.72,6.13.78,9.46-.45.3-.11.57-.28.86-.41a19.82,19.82,0,0,0,4.7-2.39c4.46-3.07,7.92-7.37,11-11.84,2.62-3.87,5.06-8.21,4.9-12.87C269,527.78,267.53,524.67,266,521.75Z"/><path class="cls-9" d="M223.32,527.48a14.94,14.94,0,0,0,2.12,7.42l.54-5.5a10.9,10.9,0,0,0,4.18,2.57l.78-3.51a4.88,4.88,0,0,0,2.68,2.27c.34-.75.68-1.49,1-2.24a1.75,1.75,0,0,0,1.87,1l.54-2a1.67,1.67,0,1,0,3.16-1l2.21,1.48a.94.94,0,0,0-.05-1.33,17.25,17.25,0,0,0,8.68.15,15.51,15.51,0,0,1-5.64-7.67,3.1,3.1,0,0,1-4.86,2.9l-2.26,2.46a3.53,3.53,0,0,0-3-1,21.24,21.24,0,0,0-3.22.77,13.88,13.88,0,0,1-10-1.35,18.94,18.94,0,0,0,1.45,13.78A20.28,20.28,0,0,1,223.32,527.48Z"/><path class="cls-7" d="M251.53,515.45a47.67,47.67,0,0,0,2.18,10.09c-2.67-1.36-3.93-4.41-5-7.22a3.27,3.27,0,0,1-.27-2.26C249.17,514.26,250.56,517.1,251.53,515.45Z"/><path class="cls-13" d="M168.79,927.05c9.38-5.23,15.46-14.2,20.63-23.45,6.26-77.57,0-72.56,3.25-106.22h24.88c1,21.13.5,40.27-4.16,60.27-3.6,15.49-6.78,27.39-10.3,45.94-.66,3.47-1.39,8.49-.5,12,.65,2.56,1,4.94-.2,6.91-2.93,4.6-5.82,3.49-11.06,5.42-6.13,2.25-4.87,6.89-17.26,7.25-2.36.07-4.87.13-7-1.34a3.83,3.83,0,0,1-1.65-2.29C165,929.28,167.14,928,168.79,927.05Z"/><path class="cls-14" d="M206.9,885.18c2.13-9.45,4.22-17.78,6.49-27.52,4.66-20,5.18-39.14,4.16-60.27H192.67c-3,31,2.09,29.2-2,89.59C199,891.74,203.68,888.63,206.9,885.18Z"/><path class="cls-3" d="M188.66,924a22.27,22.27,0,0,1-8.21,4.23,12.14,12.14,0,0,1-8.84-1c-.38-.21-.75-.45-1.11-.68.66-.55,1.33-1.09,2-1.63a1.36,1.36,0,0,1,.78-.41,1.65,1.65,0,0,1,.85.32,8.13,8.13,0,0,0,3.81.68C181.56,925.5,185.3,925.52,188.66,924Z"/><path class="cls-7" d="M168.79,927.05c.92-.52,1.79-1.1,2.65-1.68a11.6,11.6,0,0,0,9.45,2.57c8-1,15.16-6.92,21.83-11.83.56,2.35.81,4.54-.33,6.37-2.93,4.6-5.82,3.49-11.06,5.42-6.13,2.25-4.87,6.89-17.26,7.25-2.36.07-4.87.13-7-1.34a3.83,3.83,0,0,1-1.65-2.29C165,929.28,167.14,928,168.79,927.05Z"/><path class="cls-4" d="M191.38,722.43c.46,11.82-.95,26.19-1.4,38-.47,12-1.88,24-2,36.07-.24,28.28,6.73,57,.84,84.5a45.52,45.52,0,0,0,32.09-1.33c3.81-44.92,8.67-105.09,16.15-153.67C223.35,726.87,204.16,728.14,191.38,722.43Z"/><path class="cls-3" d="M233.42,733.3a46.25,46.25,0,0,1-6.95-.11,16.92,16.92,0,0,1-.39,8.17c-7,19.92-19.91,49.31-19.91,67.24,0,26.21,0,46.75-.43,74.71a43.87,43.87,0,0,0,15.18-3.64C224.73,834.75,225.94,781.88,233.42,733.3Z"/><path class="cls-13" d="M226.14,934.82s5-4.17,5-4.2a22.76,22.76,0,0,0,4-16.82c-4.26-34.22-15.62-76.64-20.92-110.46h30.78c4.54,35.63,9.68,78.07,2.83,111.74a36.91,36.91,0,0,0-.34,12.45q.57,4,1,8.09c.26,2.58.38,5.5-1,7.22-1.14,1.39-5.37.68-8.68,2.24-8.68,4.06-18.49,5-24.66,1.7C210.51,944,218.35,939.32,226.14,934.82Z"/><path class="cls-14" d="M245.06,803.34H214.28c5.12,32.64,15.86,73.27,20.43,106.83,6.45,2.67,12.11-.92,14.73-4.5C253.78,873.73,249.19,835.73,245.06,803.34Z"/><path class="cls-3" d="M246.34,933.44a5.22,5.22,0,0,0,.16-2.19,15.47,15.47,0,0,0-1.38,3.21.76.76,0,0,0,.81-.2A1.87,1.87,0,0,0,246.34,933.44Z"/><path class="cls-3" d="M229.69,943.82a15.64,15.64,0,0,1-4.71.89,9.1,9.1,0,0,1-7.56-4.51l2.61-1.88c3.54,2.87,8.41,3,12.77,2.1s8.59-2.57,13-2.89A164.88,164.88,0,0,1,229.69,943.82Z"/><path class="cls-7" d="M218.77,939.31a9.12,9.12,0,0,0,5.41,3.39c3.52.89,8.57-.68,11.88-2,4-1.55,8.23-4.2,12.46-5.1.26,2.58.38,5.49-1,7.2-1.14,1.39-5.37.68-8.68,2.24-8.68,4.06-18.49,5-24.66,1.7C211.73,944.94,214.41,942.24,218.77,939.31Z"/><path class="cls-4" d="M254.37,728.1c5.26,19.68-1.79,40.39-4.29,60.69-4.41,35.86,15,77.23,8.13,112.63-10.62,5.18-22.1,9.28-34.08,2.88,2-21.26-4.27-49.21-7.87-70.23-1.85-10.79-4.65-21.42-5.61-32.34-2.36-26.8,6.4-54.53-.62-80.35l37.68-1.86Z"/><path class="cls-3" d="M241.65,736.61a17.86,17.86,0,0,0,6.64-2c2-1.23,3.52-3.46,3.23-5.77q-29-1.85-57.79-5.85a5.43,5.43,0,0,0,.24,5.6,12.39,12.39,0,0,0,4.37,3.88c6.35,3.8,13.8,5.51,21.2,5.87S234.33,737.77,241.65,736.61Z"/><path class="cls-3" d="M250.08,788.79c2.5-20.3,9.55-41,4.29-60.69l-6.66-8.58-6.84.34c4.76,7.69,8.37,15.78,7.21,23.87-7.87,45.27,0,84.64,5.91,127.94a103.1,103.1,0,0,1,1.14,31.2c1-.47,2.06-1,3.08-1.45C265.1,866,245.67,824.65,250.08,788.79Z"/><path class="cls-7" d="M261,579.9c5,5.17,6.29,13.32,5.46,20.71-1.14,10.16-4.82,19.92-9.62,28.75-4.44,8.14-8,17.84-5.69,29.61,1.14,5.83,3.42,11.31,5.51,16.82a124.64,124.64,0,0,1,8.06,44.58c0,2.49-.17,5.2-1.71,7-1.73,2.08-4.6,2.38-7.18,2.52-18.25.95-44,1.93-65-5.93,1.05-28.6,12.38-52.73,13.44-81.33.5-13.63-6.33-23.06-.94-35.4,4.83-11,20.87-24.7,31.22-29.6C243.12,573.61,254.23,572.85,261,579.9Z"/><path class="cls-10" d="M209.75,684.39c.65-15,5.8-29.62,5.08-44.59a128.11,128.11,0,0,0,39.45-24.18c-6.57,15.38-13.28,31.79-10.7,48.32,1.65,10.54,7,20.08,11,30s6.7,23.8,3.11,33.84c-17.47,2-33.38,2.26-49.22-2.45C212.31,712.14,209.16,698.07,209.75,684.39Z"/><path class="cls-3" d="M207.5,650.41c.42-3.89,1.15-7.91,3.47-11,2.11-2.85,5.3-4.66,8.41-6.35q18.69-10.15,38.31-18.48a141.56,141.56,0,0,1-41.82,55.3c-1.58,1.26-3.53,2.56-5.48,2-2.49-.72-3.18-3.88-3.31-6.47A95.8,95.8,0,0,1,207.5,650.41Z"/><path class="cls-3" d="M195.43,725.81c-2.25-12.78,1.24-25.63,4.61-38.06,1.33-4.89,2.7-10,3.7-14.93,1.71-8.51,2.41-17.33,3.1-25.86.6-7.61,1.23-15.48,2.57-23.13,2.41-13.74,8.48-32.2,23.74-42.11l.54.83c-15,9.72-20.94,27.91-23.31,41.45-1.33,7.61-2,15.45-2.56,23-.69,8.56-1.39,17.4-3.11,26-1,5-2.39,10.09-3.72,15-3.35,12.32-6.8,25.07-4.59,37.63Z"/><path class="cls-13" d="M255.56,582c-5.87-1.25-12,1.61-17.05,4.63-7.57,4.55-14.71,9.86-22,14.88s-15.4,9.35-24.06,9.8c-12.22-13.7-19.8-17.18-31.75-30.28a27.16,27.16,0,0,1-3-6.41c-1.24-3.55-2.21-7.27-4.2-10.4a3.23,3.23,0,0,0-1.51-1.44,6,6,0,0,0-1.74-.08,6.79,6.79,0,0,1-3.64-1.84l-12.33-9.74c-1.69,3.34,1.56,5,7,10.22-1.16-.13-3.26,1.82-3.24,3.07s.43,2.54.07,3.73c-.31,1-1.14,2-.74,2.95.22.54.76.84,1,1.37.33.72,0,1.58-.06,2.39a5.72,5.72,0,0,0,1.58,3.56A16.22,16.22,0,0,0,144,582.6c1.21.72,2.59,1.09,3.81,1.81a10.52,10.52,0,0,1,4.41,5.07c.22.45,1.44,2.94,1.6,3.29,0,0,11.95,23.59,24.54,40.31a8.29,8.29,0,0,0,7.27,3.23c20.8-1.51,41.19-8,60.07-17.56a53.29,53.29,0,0,0,12.5-8.11c4.25-4,7.83-9.19,7.42-15.54C265.24,588.94,261.28,583.18,255.56,582Z"/><path class="cls-14" d="M255.56,582c-5.87-1.25-12,1.61-17.05,4.63-7.57,4.55-14.71,9.86-22,14.88s-15.4,9.35-24.06,9.8c-1.65-1.85-3.21-3.5-4.71-5a13.87,13.87,0,0,1-2.62,1.7c-13.78,7.87-27.55-9.84-33.46-23.62-1.9-3.81-9.32-3.95-13.37-9.3a6.12,6.12,0,0,0,1.56,3.35A16.22,16.22,0,0,0,144,582.6c1.21.72,2.59,1.09,3.81,1.81a10.52,10.52,0,0,1,4.41,5.07c.22.45,1.44,2.94,1.6,3.29,0,0,11.95,23.59,24.54,40.31a8.29,8.29,0,0,0,7.27,3.23c20.8-1.51,41.19-8,60.07-17.56a53.29,53.29,0,0,0,12.5-8.11c4.25-4,7.83-9.19,7.42-15.54C265.24,588.94,261.28,583.18,255.56,582Z"/><path class="cls-7" d="M249.88,580c-5.14.6-9.46,3.94-13.69,6.91a125.43,125.43,0,0,1-33.8,16.73c-2.75.88-5.59,1.68-8,3.31s-4.29,4.28-4.18,7.17c.11,2.59,1.78,5,1.59,7.56-.2,2.82-2.5,4.95-4.32,7.11s-3.31,5.33-1.77,7.7c1,1.46,2.77,2.08,4.45,2.58a31.42,31.42,0,0,1,7.56,2.95,9.6,9.6,0,0,1,4.69,6.36,31,31,0,0,1-.14,5.09c0,1.7.37,3.58,1.73,4.6a4.75,4.75,0,0,0,2.92.82c5.11,0,8.67-4.79,12.09-8.58,11.38-12.64,28.8-18.57,40.13-31.25A34.14,34.14,0,0,0,267.38,604a21.83,21.83,0,0,0-2.7-16.68C261.47,582.5,255.63,579.34,249.88,580Z"/><path class="cls-3" d="M192.76,609.65l-.83-.52c2-3.19,5.69-5.41,10.91-6.61,1.65-.38,3.34-.65,5-.91a48.44,48.44,0,0,0,7.43-1.6c5.3-1.74,9.9-5.39,13.8-8.67l1.46-1.23c3.71-3.14,7.55-6.4,12-8.62,5.71-2.85,11.7-3.38,16.43-1.45l-.37.91c-4.47-1.82-10.16-1.3-15.62,1.42-4.33,2.17-8.13,5.38-11.8,8.5l-1.45,1.23c-4,3.34-8.66,7-14.13,8.85a49,49,0,0,1-7.58,1.63c-1.62.26-3.3.53-4.91.9C198.1,604.62,194.64,606.7,192.76,609.65Z"/><path class="cls-10" d="M211.83,613.48A32.26,32.26,0,0,1,197.26,617c-1.44,0-3.07,0-4.06,1a9.11,9.11,0,0,1-1,7.61c2.13-2.68,5.69-3.63,8.86-4.94A32.72,32.72,0,0,0,211.83,613.48Z"/><path class="cls-10" d="M233.85,619.8a275.83,275.83,0,0,1-30.71,25.13,21.57,21.57,0,0,0-12.83-6.4c8-.47,15.74-3,22.94-6.47A178.34,178.34,0,0,0,233.85,619.8Z"/><path class="cls-10" d="M211.09,655.89c5.42-3.43,9.57-8.76,14.36-13,5.09-4.54,10.81-7.7,16.69-11.16s11.57-8.13,13.61-14.64c-4,6.66-10.68,11.33-17.49,15.12s-14,6.91-20.36,11.48a78.21,78.21,0,0,0-13,12.25,3.24,3.24,0,0,0,3,1.23A7.45,7.45,0,0,0,211.09,655.89Z"/><path class="cls-14" d="M209.77,543.26a3.38,3.38,0,0,1,1.22.59,1.19,1.19,0,0,1,.43,1.21.75.75,0,0,1-1.08.45,14.83,14.83,0,0,1-2.87-2.89C208.24,542.82,209,543,209.77,543.26Z"/><path class="cls-13" d="M950.56,644.8c-.21-1.41-1.17-2.65-1.22-4.07,0-1,.35-1.89.37-2.85,0-1.5-.84-2.84-1.47-4.2a14.26,14.26,0,0,1-1.31-5.29,4.51,4.51,0,0,0-3.16,5.23c.24,1.19,1,2.35.7,3.54a3,3,0,0,1-.61,1.2l-.18-.21a20.42,20.42,0,0,0-3.38-2.66c-3.83-2.79-6.6-6.77-9.57-10.47-.49-.61-1.26-1.27-1.93-.88s-.7,1.85-.45,2.55a30.13,30.13,0,0,0,5.77,9.22,3,3,0,0,1,.75,1.26,2.92,2.92,0,0,1-.44,1.84,43.2,43.2,0,0,0-1.74,4.23,7.2,7.2,0,0,0-.49,4.3,7.59,7.59,0,0,0,1.52,2.52c1.43,1.78,3.14,3.64,5.4,3.9a23.94,23.94,0,0,0,4.11.41A66.74,66.74,0,0,1,954,665.61a35.72,35.72,0,0,1,8.4-6.69q-6.24-5.92-12-12.29A3.92,3.92,0,0,0,950.56,644.8Z"/><path class="cls-14" d="M933.69,648.14a8.14,8.14,0,0,1-.06-4.41l1.23-7.06a8.87,8.87,0,0,0,3.58,1.55,4.44,4.44,0,0,1,3.07,2.24,5.1,5.1,0,0,1,.26,1.29l.81,7.23a6.59,6.59,0,0,1-4.75,1.93A4.71,4.71,0,0,1,933.69,648.14Z"/><path class="cls-13" d="M934.18,640.4c.78.56,1.58,1.09,2.41,1.58a1.69,1.69,0,0,0,1.37.33,1.39,1.39,0,0,0,.75-1.26,4.1,4.1,0,0,0-1.15-2.94,12,12,0,0,0-2.53-2,2.78,2.78,0,0,0-1.42-.59,1.69,1.69,0,0,0-1.54,1.33,2.64,2.64,0,0,0,.51,2.07A6.68,6.68,0,0,0,934.18,640.4Z"/><path class="cls-13" d="M930.84,642.43a3.55,3.55,0,0,0,1.75,1.62l2.48,1.44a5.51,5.51,0,0,0,1.85.79,1.91,1.91,0,0,0,1.82-.62,1.83,1.83,0,0,0,.17-1.66,4.25,4.25,0,0,0-1-1.42,12.78,12.78,0,0,0-5.25-3.36,1.47,1.47,0,0,0-1.07-.05,1.54,1.54,0,0,0-.66,1A3.43,3.43,0,0,0,930.84,642.43Z"/><path class="cls-13" d="M931.08,645.07a2.62,2.62,0,0,0,.32,2.57,4.46,4.46,0,0,0,2.2,1.53,15.82,15.82,0,0,0,2.65.57,4.52,4.52,0,0,0,1.37.08,1.43,1.43,0,0,0,1.11-.73,1.78,1.78,0,0,0-.61-1.91,9.18,9.18,0,0,0-2.34-1.48l-2.27-1.14a2.32,2.32,0,0,0-1.39-.36A1.53,1.53,0,0,0,931.08,645.07Z"/><path class="cls-15" d="M1067.53,688.3l-8.53-2.86a148.57,148.57,0,0,1-104-36.91,2.94,2.94,0,0,0-3.88,0,23.94,23.94,0,0,0-4.62,5.08c-1.7,2.67-2.53,6.08-1.4,9,.92,2.42,3,4.19,5,5.85,13.21,11.1,26.51,22.23,41.34,31s31.38,15.31,48.61,16.28c8.2.46,17-.55,23.43-5.67S1072.69,694.7,1067.53,688.3Z"/><path class="cls-12" d="M1028,689.73a1.35,1.35,0,1,1-1.35-1.35A1.34,1.34,0,0,1,1028,689.73Z"/><path class="cls-12" d="M1008.79,699.33a1.11,1.11,0,1,1-1.1-1.11A1.1,1.1,0,0,1,1008.79,699.33Z"/><circle class="cls-12" cx="1006.33" cy="683.46" r="1.72"/><circle class="cls-12" cx="984.44" cy="674.6" r="0.98"/><path class="cls-12" d="M973.36,673.49a1.35,1.35,0,1,1-1.35-1.35A1.35,1.35,0,0,1,973.36,673.49Z"/><path class="cls-12" d="M961.06,658.49a1.11,1.11,0,1,1-1.1-1.11A1.1,1.1,0,0,1,961.06,658.49Z"/><circle class="cls-12" cx="953.44" cy="664.27" r="1.48"/><path class="cls-8" d="M945.89,654.73a9.86,9.86,0,0,0-.74,7.86c.92,2.42,3,4.19,5,5.85,13.21,11.1,26.51,22.23,41.34,31s31.38,15.31,48.61,16.28c8.2.46,17-.55,23.43-5.67a18.4,18.4,0,0,0,5.93-8.79C1024.57,708.71,975.39,690.18,945.89,654.73Z"/><path class="cls-8" d="M992.21,678.36a11.12,11.12,0,0,0,3.58,11.56A20.45,20.45,0,0,0,992.21,678.36Z"/><path class="cls-3" d="M992.94,955.86a7.29,7.29,0,1,0,7.29,7.28A7.29,7.29,0,0,0,992.94,955.86Z"/><path class="cls-3" d="M1128.36,956.26v-1.34h.07v-1.71a3.15,3.15,0,0,0-2.9-3.15c-8.59-.7-33.87-2.79-43.6-3.93-11.8-1.39-16.65-7.64-16.65-7.64h-1.53V898.2h-1.55V840.39h-5.81V898.2h-1.54v40.3h-1.53s-4.86,6.25-16.65,7.64c-9.73,1.14-35,3.23-43.6,3.93a3.15,3.15,0,0,0-2.9,3.15v1.71l1.15-.09V960H996v-5.53l54.78-4.43a37.8,37.8,0,0,1-3.48,2.63,10.69,10.69,0,0,0-2.75,2.29,5.74,5.74,0,0,0-.8,1.53h-3.58V970h12V956.48h-3.76c0-.35.06-.71.12-1.07a25.05,25.05,0,0,0,12.79-5.9l62.37,5v1.74a7.3,7.3,0,1,0,4.67,0Z"/><path class="cls-10" d="M974.16,856.65c-3.71,3.17-7.12,7.91-5.69,12.57,1.86,6,9.8,7,16.09,6.92l69.61-1.22c15.28-.27,31.83-1,43.69-10.62,8.44-6.88,13.12-17.29,16.73-27.56a179.2,179.2,0,0,0,10-45.59c.81-10.51.41-21.52-4.4-30.9s-15-16.63-25.45-15.17c-7.28,1-13.52,6-17.65,12.1s-6.43,13.18-8.54,20.22c-5.13,17.13-10,35.58-23.45,47.41C1025.46,842.1,994,839.67,974.16,856.65Z"/><path class="cls-7" d="M974.16,852.06c-3.71,3.17-7.12,7.91-5.69,12.57,1.86,6,9.8,7,16.09,6.91l69.61-1.21c15.28-.27,31.83-1,43.69-10.63,8.44-6.87,13.12-17.28,16.73-27.55a179.3,179.3,0,0,0,10-45.59c.81-10.51.41-21.52-4.4-30.9s-15-16.63-25.45-15.17c-7.28,1-13.52,6-17.65,12.1s-6.43,13.18-8.54,20.21c-5.13,17.14-10,35.59-23.45,47.42C1025.46,837.51,994,835.08,974.16,852.06Z"/><path class="cls-4" d="M1106.68,759.81c4.37,1.3,7.21,5.75,7.92,10.25s-.28,9.07-1.36,13.5q-3.85,15.87-8.94,31.4c-4.09,12.5-9.11,25.32-18.91,34.08-10.47,9.35-24.89,12.75-38.79,14.69a294.34,294.34,0,0,1-49.48,2.49c-4.89-.15-10.59-.86-13.09-5.06-1.6-2.68-1.34-6.18,0-9a21.27,21.27,0,0,1,6.1-7c13.35-10.78,31-14.67,45.6-23.63a75.5,75.5,0,0,0,29.07-32.81c2.58-5.65,4.46-11.61,7.19-17.18s6.49-10.89,11.84-14,12.52-3.75,17.65-.24Z"/><path class="cls-13" d="M934.7,948.19c4.12-1.85,11-3.86,15.13-7.71,6.22-5.86,5.86-8.61,6.4-14.71.62-7-1-15.92-1.58-23-.2-2.31-.46-4.62-.7-6.94h20a127.67,127.67,0,0,0,.27,47.45c.62,3.1,1.23,6.69-.8,9.12-1.75,2.08-4.87,2.44-7.54,2s-4.48-1.08-7.16-.64c-8.61,1.44-17.36,4.18-25.47,2-1.52-.41-4.35-1.33-4.67-2.87C928.19,950.92,932.89,949,934.7,948.19Z"/><path class="cls-14" d="M974.24,943.31a127.67,127.67,0,0,1-.27-47.45H954c.24,2.32.49,4.63.7,6.94.25,2.82.65,5.93,1,9.09,7.54,2.83,9.49,12.2,12.79,18.82,3.94,9.84-5.9,15.75-13.77,17.72a116.31,116.31,0,0,1-26.08,4.32s0,.07,0,.11c.32,1.54,3.15,2.46,4.67,2.87,8.11,2.2,16.86-.54,25.47-2,2.68-.44,4.48.15,7.16.64s5.79.12,7.54-2C975.47,950,974.86,946.41,974.24,943.31Z"/><path class="cls-9" d="M936.62,958.3c-2.8-.25-5.68-.83-7.92-2.53-1-.75-1.89-1.9-1.64-3.12a3.69,3.69,0,0,1,1.64-2.06,18.5,18.5,0,0,1,6.75-3.08,3.92,3.92,0,0,0,1.88,3.24A8.91,8.91,0,0,0,941,952c5.78.88,11.67-.13,17.35-1.48s11.32-3,17.14-3.57a6.81,6.81,0,0,1-3.36,7.42c-3.12,1.63-6.88.57-10.39.58-4.21,0-8.23,1.58-12.34,2.52A41,41,0,0,1,936.62,958.3Z"/><path class="cls-8" d="M955.25,912.37c-.07-3.19-.32-6.39-.6-9.57-.2-2.31-.46-4.62-.7-6.94h20a127.22,127.22,0,0,0-1.9,16.51Z"/><path class="cls-9" d="M978,904.14,955,905.21a5.66,5.66,0,0,1-5.58-4.86c-4-27.51-10.15-45.46-5.33-70.33,1.71-8.82,10.72-16.47,19.56-18.09,23.35-4.28,58.66-7.58,60.85-33.64l34.45,6.46c.8,11.94.78,40.11-10.51,56.41l-73.81,5.17C975.46,869,976,880,978,904.14Z"/><path class="cls-16" d="M1057.36,816.75c-30.39,4.59-63.17,1.14-92.85,11.62-5.91,3.93-13.78,9.84-11.81,17.71,2.38,20.24,3.33,39.77,5,59l20.34-.94C976,880,975.46,869,974.59,846.33l73.81-5.17C1053.08,834.4,1055.81,825.59,1057.36,816.75Z"/><path class="cls-13" d="M949.4,968.8c3.67-2.24,10.77-5.36,15.62-7.87,5.19-2.69,7.17-5.56,7.89-10.94.94-7-1.13-19.57-1.75-26.62-.21-2.31-.46-4.62-.7-6.93h20c-.6,16.5-2.79,31.83.28,47.44.61,3.1,1.23,6.7-.81,9.12-2.91,3.47-8.44,2.26-12.37,2.19a103.23,103.23,0,0,0-14.39.73c-4.41.53-9,1.55-13.41.38-1.52-.4-3.12-1.33-3.44-2.87C945.92,971.49,947.71,969.83,949.4,968.8Z"/><path class="cls-14" d="M990.75,963.88c-3.07-15.61-.88-30.94-.28-47.44h-7c2.24,19.82,4.88,40.67,1.12,58.93a7.37,7.37,0,0,0,5.39-2.37C992,970.58,991.36,967,990.75,963.88Z"/><path class="cls-8" d="M971,933.21c-.07-3.19-.62-6.87-.9-10.05-.21-2.31.57-4.41.33-6.72l21.47.18a129.55,129.55,0,0,0-1.44,16.59Z"/><path class="cls-9" d="M943.51,973.93c1.22,2.52,6,4.39,8.76,4.68s5.57-.31,8.34-.76a76.12,76.12,0,0,1,16.52-.88,43.35,43.35,0,0,0,7.89.1c2.62-.33,6.11-1,7.81-3s0-5.93-1.56-8.08c-5.82,4-11.87,5.07-18.9,5.6-3.94.29-7.88.69-11.84.65-2.74,0-7.16.34-7.89-3.15-.27-1.27.27-1.8,1.07-2.68-1.49-.71-3.82,1.74-6.57,3-1,.49-2.76,1-3.46,1.89A2.33,2.33,0,0,0,943.51,973.93Z"/><path class="cls-9" d="M990.15,926.12H971.94a6.42,6.42,0,0,1-6.37-5.58l-6.89-51.8c-1-7.38-2.57-16.79,1-23.32,2.37-4.32,5-8.68,9-11.49,16.87-11.69,40.78-14.79,54-27.62,6.52-6.33,6.92-14.52,9.53-25.42,12.52,2.63,30.67,6.14,40.73,14.26,4,79-45.21,48.45-77.14,63.64,0,20.82.72,41.46-.14,62A5.58,5.58,0,0,1,990.15,926.12Z"/><path class="cls-16" d="M1030.28,786.07c-2.38-1.05-5.27-1.94-7.45-.52-3.29,2.13-2.41,7.74-5.57,10.07A97.8,97.8,0,0,1,1065.94,834c3.08-6.52,1.91-14.45-1.57-20.76s-9-11.25-14.76-15.58A96.94,96.94,0,0,0,1030.28,786.07Z"/><path class="cls-16" d="M1073,795.15a43.8,43.8,0,0,0-10.13-5.84c11.34,43.57-35.28,70.11-74.76,60.71,5.9,21.65,7.87,45.26-3.94,65-3.34,5-10.56,7.17-18.37,6.67a6.41,6.41,0,0,0,6.12,4.48h18.21a5.58,5.58,0,0,0,5.59-5.31c.86-20.56.1-41.2.14-62C1027.81,843.6,1077,874.1,1073,795.15Z"/><path class="cls-4" d="M1017.57,790c1.16-1.74,1.35-6.3,2.51-8,10.35.75,19.56,6.88,27.16,13.94s14.18,15.25,22.35,21.64a8.88,8.88,0,0,1,2.76,2.87c1.33,2.74-.59,5.86-2.42,8.28-5.94-7.71-13.5-14-21-20.23A103.5,103.5,0,0,0,1017.57,790Z"/><path class="cls-15" d="M1028.37,749c-2.48-5-4.79-10-5.26-15.51-.67-7.93,2.58-15.33,6.91-22.2a27.39,27.39,0,0,1,27.25-27.72,114.64,114.64,0,0,1,22.56,2.19c7,1.4,14.32,3.73,18.85,9.25,3.46,4.22,4.82,9.75,5.65,15.15,4.08,26.45-24,53.39-29.23,110.75a2.15,2.15,0,0,1-3.4,1.58c-16.07-11.83-35.68-37.4-53.77-39.32C1022.39,777.62,1026.21,764.58,1028.37,749Z"/><path class="cls-8" d="M1104.33,710.12c-.83-5.4-2.19-10.93-5.65-15.15-4.53-5.52-11.84-7.85-18.85-9.25-2.88-.57-5.8-1-8.72-1.35-6.78,8.66-12.63,17.51-10.9,27.87.49,10.75,1,21.62.82,32.34l-18.72-1.2a35.6,35.6,0,0,1-8.49-1.23,12,12,0,0,1-6.82-4.94c-1-1.67-1.86-4-3.81-4.1a39.49,39.49,0,0,0,8.89,18.64,2.42,2.42,0,0,0,1.35,1c1.46.21,2-2,3.31-2.69a3,3,0,0,1,3.2.66,18.57,18.57,0,0,0,2.66,2.21c2.38,1.24,5.26-.14,7.93.1,4,.35,6.64,4.07,9.81,6.63-1.26,15-4.4,29.49-11.3,42.59,8,7.3,15.64,15.08,22.66,20.25a2.15,2.15,0,0,0,3.4-1.58C1080.31,763.51,1108.41,736.57,1104.33,710.12Z"/><path class="cls-3" d="M1044.55,688.14a9.76,9.76,0,0,0-1.39,5.53c-.15,4.87.64,10.18,4.13,13.58a13.28,13.28,0,0,0,7.56,3.46,24,24,0,0,0,8.39-.56,40.08,40.08,0,0,0,19.46-10.73c2.14-2.14,4.16-5.07,3.32-8-.73-2.5-3.29-4-5.7-5-10-4.27-21.8-5.55-31.79-1.17A9.38,9.38,0,0,0,1044.55,688.14Z"/><path class="cls-12" d="M1037.32,760.63a1.5,1.5,0,1,0-.82,2.11A1.55,1.55,0,0,0,1037.32,760.63Z"/><path class="cls-12" d="M1036.34,721.66a1.47,1.47,0,1,0-2.27-1.25A1.55,1.55,0,0,0,1036.34,721.66Z"/><path class="cls-12" d="M1053,731.23a1.52,1.52,0,1,0,1.08-2.51A1.61,1.61,0,0,0,1053,731.23Z"/><path class="cls-12" d="M1043,780.37a1.54,1.54,0,1,0,1.89,1.49A1.6,1.6,0,0,0,1043,780.37Z"/><path class="cls-12" d="M1068.68,778a4.34,4.34,0,0,0,.88-1.51,1.52,1.52,0,0,0-.44-1.6,1.39,1.39,0,0,0-2,1.09A2.11,2.11,0,0,0,1068.68,778Z"/><path class="cls-12" d="M1066.61,798.23a1.6,1.6,0,1,1-1.6-1.6A1.6,1.6,0,0,1,1066.61,798.23Z"/><circle class="cls-12" cx="1056.03" cy="766.37" r="1.48"/><circle class="cls-12" cx="1038.07" cy="738.57" r="1.48"/><path class="cls-12" d="M1073.25,813.73a1.36,1.36,0,1,1-1.35-1.36A1.36,1.36,0,0,1,1073.25,813.73Z"/><path class="cls-12" d="M1050.62,796.26a1.11,1.11,0,1,1-1.11-1.11A1.11,1.11,0,0,1,1050.62,796.26Z"/><path class="cls-12" d="M1031.18,779a1.85,1.85,0,1,1-1.84-1.85A1.84,1.84,0,0,1,1031.18,779Z"/><path class="cls-7" d="M1071,623.32c-3.3-1.09-5.56-5-9-4.83-3.31.15-5.24,3.89-8.27,5.23-2.86,1.26-6.62.35-8.92,2.48-2.51,2.33-1.43,6.48-2.32,9.79-.8,3-3.21,5.22-5.17,7.62s-3.59,5.59-2.5,8.49c.66,1.74,2.27,3.23,2.1,5.09a11.35,11.35,0,0,1-.75,2.36c-.64,2-.06,4.24.67,6.25s.1,3.77.08,5.9-1.93,3.87-1.45,7.42c21,3.83,41.93,6.34,62.75,1.45-1.53-1.34-1.5-4.92-.53-6.7.63-1.17,1.83-2.31,1.43-3.58s-2.08-1.31-3-2.22c-2.24-2.3-2.52-5.27-1.48-6.19,1.68-1.51,1.62-4.3,1.62-6.56,0-4.74-4.47-8.09-6.79-12.22-1.89-3.36-2.35-7.31-3.56-11s-3.6-7.39-7.36-8.24C1076.07,623.33,1073.4,624.12,1071,623.32Z"/><path class="cls-14" d="M1045.88,635.88c-1.43,1.68-2.66,3.9-2,6,.42,1.36,1.57,2.47,1.69,3.89.28,3.2-4.6,4.8-4.82,8-.13,1.76,1.22,3.24,1.85,4.88.84,2.21.37,4.69-.41,6.92a40.53,40.53,0,0,0-2.21,6.71c-.36,2.33.13,5,2,6.45a9.14,9.14,0,0,0,3.48,1.47,80.7,80.7,0,0,0,20.34,3,43.19,43.19,0,0,0,19.92-4.45,1.16,1.16,0,0,0,.47-.37c.33-.57-.44-1.1-1-1.47-1.41-1-1.83-2.91-1.63-4.61s.91-3.3,1.25-5a5.61,5.61,0,0,0-.86-4.88c-1.66-1.89-4.68-1.57-6.93-2.69-2.71-1.36-3.86-4.58-4.58-7.53s-1.38-6.17-3.66-8.17c-2.51-2.19-6.52-2.45-8.39-5.21-1-1.53-1.16-3.54-2.23-5a6.12,6.12,0,0,0-6.47-2A11.72,11.72,0,0,0,1045.88,635.88Z"/><path class="cls-13" d="M1054.9,684.1c3.27-7.44,3.83-14.58,4.61-22.67a40.41,40.41,0,0,0,16.12,1.23l3.54,23.1a4.39,4.39,0,0,1,2.77,2.85c.4,1.61-.48,3.24-1.39,4.63-3.22,4.9-7.44,9.36-12.82,11.69s-12.07,2.2-16.72-1.39-6.35-10.9-2.87-15.62C1049.19,686.48,1053.32,684.87,1054.9,684.1Z"/><path class="cls-14" d="M1081.55,687.66c-3.84,11.93-16.16,19.36-28.47,14.74-1.82,0-4.46-2.1-6.21-4.94a12.26,12.26,0,0,0,4.14,6.08c4.65,3.59,11.34,3.72,16.72,1.39s9.6-6.79,12.82-11.69c.91-1.39,1.79-3,1.39-4.63A3.46,3.46,0,0,0,1081.55,687.66Z"/><path class="cls-14" d="M1074.17,662.78a39.54,39.54,0,0,1-14.66-1.35c-.78,8.09-1.34,15.23-4.61,22.67-1.58.77-5.71,2.38-6.76,3.82a9.78,9.78,0,0,0-1.84,5.86c6.71-4.47,15.06-7.23,22.52-9.09C1074,683,1073.12,672.08,1074.17,662.78Z"/><path class="cls-3" d="M1057.14,677.55a101.2,101.2,0,0,0,2.37-16.12,38.82,38.82,0,0,0,13.71,1.42C1072.92,672.59,1065.76,676.11,1057.14,677.55Z"/><path class="cls-13" d="M1047.1,646.88a5.17,5.17,0,0,0,.54-3,23.52,23.52,0,0,1,1.3-7.83l1.45-4c8.51-4.43,18.43-2.65,25.81,3.48,3,2.5,5.48,5.92,5.89,9.81s-1.23,7.66-2.85,11.23c-1.8,4-3.69,8.07-6.89,11.06a22.38,22.38,0,0,1-11.06,5.22,51.52,51.52,0,0,1-8.6.8,5,5,0,0,1-4.9-3.53c-1.88-6-3.39-12.05-2.65-18.53A11.62,11.62,0,0,1,1047.1,646.88Z"/><path class="cls-14" d="M1082.09,645.31c-.41-3.89-2.89-7.31-5.89-9.81a24.17,24.17,0,0,0-19.54-5.6,8.89,8.89,0,0,1,2.32,1.65c5.06,3.37,4.34,12.53,10.23,16.32a6,6,0,0,1,2.9,5.5,20.77,20.77,0,0,0,2.46,11.74,44.94,44.94,0,0,0,4.67-8.57C1080.86,653,1082.51,649.2,1082.09,645.31Z"/><path class="cls-7" d="M1087.85,666.72c.47-3.6,1.64-7.14,1.47-10.76a14.7,14.7,0,0,0-2.5-7.53,13.51,13.51,0,0,0-1.16-1.46c0-.41.06-.81.08-1.22.16-3.24,0-6.61-1.34-9.54-1.71-3.61-5.16-6.13-8.8-7.75a32.92,32.92,0,0,0-16.37-2.7l-5.17,2.34c2.18-.55,8.72,1.42,9.86,3.36,1,1.72,1,3.85,1.6,5.74a8.41,8.41,0,0,0,4.82,5.08c1.69.67,3.78.9,4.77,2.44s.38,3.37,0,5a17.66,17.66,0,0,0-.5,7.19,11.45,11.45,0,0,0,1.22,3.54,6.16,6.16,0,0,0,2.55,3.67c1.59,1.19,3.49,2.16,4.42,3.92,1.07,2,.58,4.7,2,6.54s3.68,2.06,5.83,2.2C1087.84,674.41,1087.39,670.32,1087.85,666.72Z"/><path class="cls-10" d="M1036.74,653.41c.49.56,1.19,1,1.39,1.75.23.9-.41,1.77-.79,2.62a5.14,5.14,0,0,0,1.23,5.79,7.48,7.48,0,0,1,.27-5.83c.5-1,1.28-2.09,1.08-3.23-.27-1.53-2.12-2.28-2.67-3.73a4.15,4.15,0,0,1,.65-3.43,10.7,10.7,0,0,0,1.59-3.21,14.35,14.35,0,0,0-3.23,4.22A4.87,4.87,0,0,0,1036.74,653.41Z"/><path class="cls-10" d="M1040.55,666.44a20.5,20.5,0,0,0-2.54,6.31,6.87,6.87,0,0,0,1.92,6.26A21.73,21.73,0,0,1,1040.55,666.44Z"/><path class="cls-10" d="M1078.32,641.68c1.57.38,2.44,2.18,2.41,3.8a17.82,17.82,0,0,1-1.15,4.71,6.05,6.05,0,0,0,.17,4.73c.8,1.35,2.35,2,3.68,2.84s2.63,2.21,2.34,3.75c-.2,1.11-1.19,2-1.15,3.13a3,3,0,0,0,1.27,2.09,8.27,8.27,0,0,1,1.82,1.72,3.91,3.91,0,0,1,.46,2.77,11.59,11.59,0,0,1-.93,2.71,4.4,4.4,0,0,0,.84-6.5,8.08,8.08,0,0,1-1.33-1.6,3.84,3.84,0,0,1,.42-3.16,5.36,5.36,0,0,0,.81-3.14c-.26-1.39-1.63-2.25-2.9-2.88s-2.67-1.34-3.15-2.67c-.57-1.57.42-3.23.77-4.87A6.6,6.6,0,0,0,1078.32,641.68Z"/><path class="cls-10" d="M1093.09,659.34c.69-1.29,1.8-2.54,1.62-4s-1.52-2.38-2.81-3a7.49,7.49,0,0,1,1.6,1.25,2.43,2.43,0,0,1,.64,1.87c-.14,1-1,1.63-1.72,2.35a6.75,6.75,0,0,0-1.09,7.49c.65,1.26,1.69,2.3,2.24,3.6a7.32,7.32,0,0,1-.18,5.55,21.89,21.89,0,0,1-3,4.82,19.64,19.64,0,0,0,3.62-3.61,6.6,6.6,0,0,0,1.29-4.83c-.35-1.93-1.81-3.46-2.55-5.28A7.47,7.47,0,0,1,1093.09,659.34Z"/><path class="cls-10" d="M1059.51,625c2.56.54,4.57,2.44,6.44,4.26a13.58,13.58,0,0,0-14-.73A7.13,7.13,0,0,1,1059.51,625Z"/><path class="cls-10" d="M1072.36,634.71a14.42,14.42,0,0,1-2.07-3.52,13.16,13.16,0,0,0-2.11-3.49,4.57,4.57,0,0,0-3.63-1.59,5.71,5.71,0,0,1,2.78,2.79c.64,1.18,1.1,2.46,1.84,3.58A4.61,4.61,0,0,0,1072.36,634.71Z"/><path class="cls-10" d="M1072.05,629.33a4.27,4.27,0,0,0,2.93,3.37,3.91,3.91,0,0,0-1.28-2.79C1072.92,629.2,1073.1,629.24,1072.05,629.33Z"/><path class="cls-15" d="M1105.08,787.63,1086,790.18a240.19,240.19,0,0,0-2.66-50.54c-2-12.61-5-25.93-.26-37.8,1.81-4.54,5.31-9,10.17-9.5a11.12,11.12,0,0,1,8.84,3.71,24.7,24.7,0,0,1,4.87,8.57c6.07,16.26,4.79,28.71,3.22,46C1109.13,762.33,1109.32,776.19,1105.08,787.63Z"/><path class="cls-8" d="M1082,705.1c-3.09,11-.49,23.07,1.34,34.54a240.19,240.19,0,0,1,2.66,50.54l5.24-.7C1094.22,761.51,1089.85,732.08,1082,705.1Z"/><circle class="cls-12" cx="1090.23" cy="705.11" r="1.23"/><circle class="cls-12" cx="1104.25" cy="715.19" r="1.97"/><path class="cls-12" d="M1095.39,736a1.6,1.6,0,1,1-1.6-1.6A1.59,1.59,0,0,1,1095.39,736Z"/><circle class="cls-12" cx="1107.45" cy="736.6" r="1.48"/><path class="cls-12" d="M1104,759.36a1.35,1.35,0,1,1-1.35-1.36A1.35,1.35,0,0,1,1104,759.36Z"/><path class="cls-13" d="M1082,730.21c-.72,1.06-2.47,1.88-2.85,3.11-.12.37.28.6.27,1a46.44,46.44,0,0,0,.3,6c-3.28,3.25-6.88,3.3-10.42,4.72l-.41-3.77a7.91,7.91,0,0,0-1.1-2.63,12.61,12.61,0,0,0-1.78-1.8,8.7,8.7,0,0,1-2.17-5.15,51.21,51.21,0,0,1-.06-5.68c0-5.54-1.22-11-1.73-16.51a3.68,3.68,0,0,1,.24-2.11c.61-.09,1.52.81,1.68,1.41a70.19,70.19,0,0,1,2.46,10.74c.78-1,.34-2.2.27-3.48a28.9,28.9,0,0,0-.58-4.26,28.25,28.25,0,0,1-.94-6.1,2.56,2.56,0,0,1,1-1.83c.66-.24.93.29,1.1,1-.23-.94,0-.9,0-1.48s.54-1.19,1.11-1.07c1.77,2.14,4,5.8,4.58,8.52a21.3,21.3,0,0,1,.44,7.2,14.17,14.17,0,0,0-.52-8.25,35.2,35.2,0,0,1-1.43-3.64,4.49,4.49,0,0,1,.46-3.76c3.07,4.54,6.27,9.47,6.13,14.94-.06,2.27-.69,4.59-.06,6.77a9.16,9.16,0,0,0,2.83-2.45,27.37,27.37,0,0,0,1.36-2.9,3.1,3.1,0,0,1,2.42-1.87.94.94,0,0,1,.74.25,1.15,1.15,0,0,1,.1.93c-.52,2.71-2.08,5.15-2.49,7.88C1082.75,727.37,1082.84,729,1082,730.21Z"/><path class="cls-14" d="M1065.06,735.54a6.43,6.43,0,0,0,1,1.3,12.61,12.61,0,0,1,1.78,1.8,7.91,7.91,0,0,1,1.1,2.63l.41,3.77c3.54-1.42,7.14-1.47,10.42-4.72a46.44,46.44,0,0,1-.3-6c0-.39-.36-.61-.28-1A27.86,27.86,0,0,1,1065.06,735.54Z"/><path class="cls-13" d="M1082,730.21c.83-1.23.74-2.84,1-4.3.41-2.73,2-5.17,2.49-7.88a1.15,1.15,0,0,0-.1-.93.94.94,0,0,0-.74-.25,3.1,3.1,0,0,0-2.42,1.87,27.37,27.37,0,0,1-1.36,2.9,9.16,9.16,0,0,1-2.83,2.45c-.63-2.18,0-4.5.06-6.77.14-5.47-3.06-10.4-6.13-14.94a4.49,4.49,0,0,0-.46,3.76,35.2,35.2,0,0,0,1.43,3.64,14.17,14.17,0,0,1,.52,8.25,21.3,21.3,0,0,0-.44-7.2c-.57-2.72-2.81-6.38-4.58-8.52-.57-.12-1.12.49-1.11,1.07s-.23.54,0,1.48c-.17-.68-.44-1.21-1.1-1a2.56,2.56,0,0,0-1,1.83,28.25,28.25,0,0,0,.94,6.1,28.9,28.9,0,0,1,.58,4.26c.07,1.28.51,2.46-.27,3.48A70.19,70.19,0,0,0,1064,708.8c-.16-.6-1.07-1.5-1.68-1.41a3.68,3.68,0,0,0-.24,2.11c.51,5.52,1.75,11,1.73,16.51a51.23,51.23,0,0,0,.06,5.68,9.7,9.7,0,0,0,1.21,3.85,27.86,27.86,0,0,0,14.09-2.2v0C1079.54,732.09,1081.29,731.27,1082,730.21Z"/><path class="cls-3" d="M1071,719.06l-1,0a28.17,28.17,0,0,0-3.78-14.53l.86-.5A29.42,29.42,0,0,1,1071,719.06Z"/><path class="cls-15" d="M1097.06,796.07c-4.43.77-9.79-.77-12.49-4.36a43.58,43.58,0,0,1-6.56-13c-3.74-12.95-7.26-26.41-11-39.36,4.84-.24,11.49-2.89,14-7.07,4.36,10.63,9.25,21.09,15.63,30.64,3.69,5.53,8,11,9.17,17.54S1103.61,794.94,1097.06,796.07Z"/><path class="cls-3" d="M1100.34,777.45c0-8.66-4.18-16.81-8.24-23.64-1.18-2-2.37-3.82-3.53-5.61-3.09-4.77-6-9.27-7.82-15.29l.94-.28c1.77,5.88,4.66,10.33,7.71,15,1.16,1.79,2.36,3.64,3.55,5.64,4.12,6.94,8.35,15.24,8.37,24.14Z"/><circle class="cls-12" cx="1088.75" cy="780.64" r="1.48"/><circle class="cls-12" cx="1091.7" cy="763.91" r="1.23"/><path class="cls-12" d="M1079.4,756.9a1.11,1.11,0,1,1-1.11-1.11A1.1,1.1,0,0,1,1079.4,756.9Z"/><path class="cls-12" d="M1081.86,745.33a1.11,1.11,0,1,1-1.11-1.1A1.11,1.11,0,0,1,1081.86,745.33Z"/><path class="cls-3" d="M971.94,926.62a6.94,6.94,0,0,1-6.86-6L958,867.35c-1-7.09-2.17-15.92,1.26-22.17,2.37-4.31,5-8.76,9.2-11.65,7.63-5.29,16.71-8.84,25.5-12.27,10.92-4.27,21.24-8.3,28.46-15.3l.68.7c-7.36,7.14-17.77,11.21-28.78,15.51-8.73,3.41-17.76,6.94-25.3,12.16-4,2.77-6.58,7.11-8.89,11.33-3.28,6-2.1,14.61-1.16,21.56l.2,1.46,6.88,51.8a6,6,0,0,0,5.89,5.15Z"/><path class="cls-13" d="M496.87,579.94a18.91,18.91,0,0,1-3.62,14.41c-1.94,9.52-9.58,17.48-18.67,19.45-8.55-3.66-14.38-13.35-13.86-23s7.34-18.6,16.23-21.24c4.92-1.46,10.78-.86,14.34,3Z"/><path class="cls-14" d="M482.65,568.84a17.4,17.4,0,0,0-5.7.71c-8.89,2.64-15.72,11.58-16.23,21.24s5.31,19.35,13.86,23a22.53,22.53,0,0,0,2.55-.74C474,597.79,473.73,581.16,482.65,568.84Z"/><path class="cls-13" d="M441.14,620.08c-1-1.09-.05-2.75.81-3.91,7-9.39,12.06-19.72,13.78-31.3,7.13,3,14.19,4.27,21.83,5.44a255.1,255.1,0,0,0-6.67,38.61l-28.19-8.06A3.17,3.17,0,0,1,441.14,620.08Z"/><path class="cls-4" d="M503,578.86a12.29,12.29,0,0,0,8.27-9.44,13.1,13.1,0,0,1-9.25,1.24,3.05,3.05,0,0,0,2.37-1c-3.68-.23-7.06-2.11-10-4.31s-5.64-4.79-8.75-6.77-6.82-3.34-10.46-2.76a11.83,11.83,0,0,0-1.3.34,17,17,0,0,0-6.32.36c-7,1.82-12,8.54-13.62,15.64s-2.38,15.44-.46,22.46c7.16,3.4,17.66,3.14,25.27.88a31.14,31.14,0,0,0,3.11-1.12,28.45,28.45,0,0,0,.85-4.32,8.75,8.75,0,0,1,1.92-4.69,3.34,3.34,0,0,1,6.06,2.11,7.07,7.07,0,0,1-.1,1.52,33.44,33.44,0,0,0,4.13-4.2A14.65,14.65,0,0,0,508,578.32,13.74,13.74,0,0,1,503,578.86Z"/><path class="cls-14" d="M487.46,590.28a5.32,5.32,0,0,1,1-.88,2.43,2.43,0,0,0,.71-2.64,1.94,1.94,0,0,0-2.37-1.12,2.49,2.49,0,0,0-1.36,2.3,8.54,8.54,0,0,0,.62,2.93,1.16,1.16,0,0,0-1.38,0,1.17,1.17,0,0,0-.37,1.34,3.69,3.69,0,0,0,.63.84,1,1,0,0,1,.26,1,6.33,6.33,0,0,1-.36.54c-.09.19-.07.48.14.54a.41.41,0,0,0,.37-.13,4.33,4.33,0,0,0,1.69-2.84A4.13,4.13,0,0,1,487.46,590.28Z"/><path class="cls-9" d="M484,566c.86.5.75,1.82,1.39,2.57s2.11.65,3.26.67a8.5,8.5,0,0,1,5.62,2.57,24.94,24.94,0,0,1,3.76,5.05l2.22-3.5-22.6-13.15c.38,1.85.75,3.71,1.13,5.56a2,2,0,0,0,.37,1c.58.66,1.67.3,2.41-.16S483.19,565.52,484,566Z"/><path class="cls-3" d="M398.34,969c-1.74-1-4.58-1.35-6.58-1.54a13,13,0,0,1-5.42-1.81c-1.75-1-3.08-3-2.62-5-5.21-.45-9-2.07-13.61-4.59,0,3.75-2.42,7.1-3.44,10.71a8.57,8.57,0,0,0-.17,2.94A14.37,14.37,0,0,0,367,977a22.89,22.89,0,0,0,14.22,2.81,13.65,13.65,0,0,1,.57-2.35,16.17,16.17,0,0,1,6.93-.59c2.58.43,3.5.91,5.16.74,1.44-.15,2.19-.84,3.51-1.41a6.23,6.23,0,0,0,3.26-3.51C401.09,970.77,400.08,970,398.34,969Z"/><path class="cls-12" d="M382.77,964A57.17,57.17,0,0,0,371,959.45a9.39,9.39,0,0,0-1.29,2.57,3.3,3.3,0,0,0,.35,2.78,4.19,4.19,0,0,0,2.38,1.37A12,12,0,0,0,382.77,964Z"/><path class="cls-9" d="M376.21,917.85c-1.89,4.81-4.45,22.06-7,28.25-1.95,4.79-3.87,7.33-1,11.61s12,8.94,16.74,6.81c13.14-33.93,28.68-66.91,40.92-101.18s21.19-70.22,20.44-106.6L387.32,738c-18.47,44.12-6.27,57.24-4.53,89.53S388,887.74,376.21,917.85Z"/><path class="cls-16" d="M446.37,756.74,403.06,743c-19.66,44-1.61,93.06-5.39,138.51A308.35,308.35,0,0,1,378,964.29c2.6.84,5.17,1.08,7,.23,13.14-33.93,28.68-66.91,40.92-101.18S447.12,793.12,446.37,756.74Z"/><path class="cls-3" d="M401.62,742.55l44.75,14.19c.75,36.38-8.2,72.34-20.44,106.6-8,22.37-17.38,44.18-26.59,66.08,1.53-8.08,2.29-16.28,3.57-23.95C414.75,849.23,372.89,795.83,401.62,742.55Z"/><path class="cls-3" d="M459.09,989.35c-.94-2.18-3.35-3.41-5.7-3.77a45.74,45.74,0,0,0-7.12,0c-9.37.09-18.52-4.75-27.77-3.29,0,4-.64,8-.19,12a18.31,18.31,0,0,0,.39,2.17,44.11,44.11,0,0,0,.78,6,7.07,7.07,0,0,0,1,3,6,6,0,0,0,3.46,2,18.41,18.41,0,0,0,15-2.55,3.82,3.82,0,0,0,1.32-1.3,3.14,3.14,0,0,0,.28-1.28,41.34,41.34,0,0,1,4.28-1.56,32.39,32.39,0,0,0,7.9-3C455.82,996.23,460.48,992.58,459.09,989.35Z"/><path class="cls-12" d="M441,987.75a1.5,1.5,0,0,1,1.82,1.13A2.34,2.34,0,0,1,442,991a5.67,5.67,0,0,1-2.15,1.08,33.62,33.62,0,0,1-10.49,1.2,17.28,17.28,0,0,1-6.24-.91,6.8,6.8,0,0,1-4.26-4.38,4.29,4.29,0,0,1,2.62-5.11Z"/><path class="cls-9" d="M390.9,746.13l1.17-13.28c18.26,8.35,39.2,17.37,59,20.41,0,43.4,4.18,80.39,2.89,120.21-1.2,37-7.66,76.86-13,115.75-8.84,2.17-15,2.75-23.11-3.08-.44-32.88-2.37-58.42-.44-72.93s-5-50.14-9.28-64.25C394.65,804.84,381.75,798.13,390.9,746.13Z"/><path class="cls-16" d="M431.13,867.73C427.51,828,409,784.87,419.7,744.56c-9.55-3.57-18.89-7.71-27.63-11.71l-1.17,13.28c-9.15,52,3.75,58.71,17.24,102.83,4.31,14.11,11.21,49.8,9.28,64.25s0,40,.44,72.93a22.19,22.19,0,0,0,10.6,4.46C431.78,949.8,434.3,909.05,431.13,867.73Z"/><path class="cls-17" d="M436.37,988.12c14.69-73.27,9.63-149.79,2.79-221.59l1.5-.21c5.52,73,11.2,148.31-3.2,221.41C436.91,987.85,436.92,988,436.37,988.12Z"/><path class="cls-3" d="M427.85,616.27c-6.74-1.2-13.37,4-15.92,10.31s-1.89,13.52-.6,20.24c3.59,18.66,11.68,36.29,22.46,51.93,4.26,6.19,9,12.13,14.81,16.89,14.68,12,34.45,15.2,53.21,18l5.52-12.12A117,117,0,0,1,458,670.42c-7.4-15-11.46-31.45-15.46-47.71Z"/><polygon class="cls-3" points="530.54 753.23 492.84 753.23 508.27 690.32 545.98 690.32 530.54 753.23"/><polygon class="cls-11" points="528.8 743.39 496.99 743.39 510.01 690.32 541.82 690.32 528.8 743.39"/><path class="cls-2" d="M510,690.32l-12,49c10.21-12,21.89-20.92,37-21.23l6.8-27.73Z"/><path class="cls-4" d="M430.59,615.44a25.19,25.19,0,0,0,9.72-11.18,45.65,45.65,0,0,1,37,23.78l-18.91-7.16c-7.94-3-16.11-6.06-24.6-5.93Z"/><path class="cls-4" d="M458.21,780.72c.55-6.23-2-19.9-.94-40.86.5-16.89,1.27-10.56,1.65-15.77.94-12.75,5.06-17,11.38-28.12,4.8-8.47,12.16-22.77,17.17-31.12s7.62-19.32,2.6-27.66c-3.09-5.15-8.52-8.39-13.86-11.13a174.11,174.11,0,0,0-24.5-10.29c-9.43-3.13-20.54-5.23-28.7.44a61.94,61.94,0,0,0-15.32,16.66C389,664,391.54,675.34,381.89,729.13c-.8,4.42-15.21,35-17.4,44.71a125.18,125.18,0,0,0,14.33,4.62,166,166,0,0,1,10.56-36.85c0,14.56-4.13,24.66-3.29,38.5C409.2,784.73,433.77,783.69,458.21,780.72Z"/><path class="cls-18" d="M435.05,616.44a124.31,124.31,0,0,1,31.05,6.35,56.83,56.83,0,0,0-29.87-9.52,4.31,4.31,0,0,0-2.36.41,1.55,1.55,0,0,0-.64,2.07A2.33,2.33,0,0,0,435.05,616.44Z"/><path class="cls-16" d="M429.58,614.55a27.13,27.13,0,0,0-15.25,12.35Z"/><path class="cls-16" d="M480.21,634.33l-8.43,11.6A18,18,0,0,1,480.21,634.33Z"/><path class="cls-18" d="M445.61,782.06q6.3-.57,12.6-1.34c.55-6.23-2-19.9-.94-40.86.5-16.89,1.27-10.56,1.65-15.77.94-12.75,5.06-17,11.38-28.12,4.8-8.47,12.16-22.77,17.17-31.12,4.65-7.75,7.22-17.75,3.56-25.83C439.74,666.29,440.33,726.6,445.61,782.06Z"/><path class="cls-13" d="M513.6,641.44a40.54,40.54,0,0,1,9.36-3.75,21.29,21.29,0,0,1-2.13-10.56c.12-2.07.44-4.47-1-6a6.46,6.46,0,0,0-3.15-1.43l-7.84-2c-2.59-.65-3.36.16-4.76-2.11-.55-.9-2.9-3.6-3.57-4.41s-2.46-4.33-4.18-2.73c-.79.73,1,4.22,1.44,5.21,1.08,2.53,2.17,5,3.26,7.58.87,2,1.42,3.39-.21,4.87-.58.52-1.93.55-2.58,1s-.44,2.73-.18,3.46a2.26,2.26,0,0,0,1,1Z"/><path class="cls-15" d="M525.64,638.05l-3.07-5.71a17.39,17.39,0,0,0-12.16,4.52,2.44,2.44,0,0,0-1,1.79,2.64,2.64,0,0,0,.36,1q2,3.84,4,7.68a22.22,22.22,0,0,1,12.72-7.17Z"/><path class="cls-4" d="M542,714.78c3.47-1.24,5.78-4.61,7-8.1,2.24-6.56,1.3-13.83-.87-20.41s-5.53-12.7-8.22-19.08c-3.67-8.7-6.12-17.91-10.37-26.33-.92-1.81-1.93-3.82-3.78-4.64-2.34-1-5.22.19-8.11.56-2,.26-3.79,2.33-5.79,3.22a3,3,0,0,0-1.63,3.47,289.19,289.19,0,0,1,7.13,36.94c.79,6.72,1.39,13.57,3.83,19.89s7.06,12.17,13.49,14.29A11.47,11.47,0,0,0,542,714.78Z"/><path class="cls-18" d="M511.88,640a3,3,0,0,0-1.63,3.47,289.19,289.19,0,0,1,7.13,36.94c.79,6.72,1.39,13.57,3.83,19.89s7.06,12.17,13.49,14.29c.11,0,.23.06.34.09-1.64-26.59-9-52.87-19.45-77.07A34.34,34.34,0,0,1,511.88,640Z"/><path class="cls-4" d="M469.42,658.2a34.55,34.55,0,0,1,14-22.64c1.56-1.09,3.39-2.1,5.26-1.77a7.84,7.84,0,0,1,3.86,2.43c14.13,13.56,24.75,30.43,38.93,43.94,3.88,3.69,8,7.15,11.29,11.42s5.54,9.55,5,14.88-4.56,10.49-9.89,11.13c-4.09.49-8-1.62-11.41-4-6-4.17-11.32-9.29-16.86-14.08a197.63,197.63,0,0,0-29-20.8c-3.21-1.89-6.58-3.78-8.75-6.81C469.07,668.07,468.69,662.92,469.42,658.2Z"/><path class="cls-16" d="M535,683.13a25.73,25.73,0,0,1,8.81,19.9,16.25,16.25,0,0,0-8.81-19.9Z"/><path class="cls-18" d="M533.47,712.24c-16.53-24.8-45.56-34.33-63.76-55.41-.09.46-.22.91-.29,1.37-.73,4.72-.35,9.87,2.44,13.74,2.17,3,5.54,4.92,8.75,6.81a197.63,197.63,0,0,1,29,20.8c5.54,4.79,10.83,9.91,16.86,14.08,3.08,2.13,6.61,4,10.3,4C535.64,715.89,534.54,714.11,533.47,712.24Z"/><path class="cls-18" d="M390.45,733.9a228,228,0,0,1,29.17-102.13A204.06,204.06,0,0,0,390.45,733.9Z"/><path class="cls-3" d="M772.47,963.28c-2.69,5.83,1.39,11,1.41,16.29,5.76.32,10.17.14,15.94.46v-3.76a53.06,53.06,0,0,0,34.56,2.64c.36-2.8-1.8-5.38-4.32-6.53s-5.34-1.24-8.08-1.58a27.49,27.49,0,0,1-11.85-4,16.56,16.56,0,0,1-7.27-10.1l-15.78,1.53c-1.37.13-2.89.34-3.77,1.41S773,962.12,772.47,963.28Z"/><path class="cls-11" d="M778.31,965.89a32.11,32.11,0,0,0,12.86,1,2.18,2.18,0,0,0,1.75-.86,2.35,2.35,0,0,0,.06-1.53c-.35-1.77-.69-3.53-1-5.3a127.26,127.26,0,0,0-17.66,4C775,964.7,776.7,965.43,778.31,965.89Z"/><path class="cls-4" d="M712.72,694.2c-.38,18.84,4.51,37,8.1,54.14,15.47,73.84,32.06,143.53,49.13,218.38,6.26-2.16,19.27-4.45,25.53-6.6C790.55,869.5,780,783.29,764.76,694.2Z"/><path class="cls-18" d="M712.71,694.2c-.37,18.84,4.52,37,8.11,54.14,15.47,73.84,32.06,143.53,49.13,218.38,3.32-1.14,8.55-2.33,13.65-3.51-13.87-92.14-39.31-180.62-69.15-269Z"/><path class="cls-8" d="M775.23,964.83c-2.75-13.45-5.34-25-7.91-37.67C754.85,865.64,744.58,812.79,729,749l.69-.57c15.6,63.84,26.37,117,38.84,178.52,2.57,12.69,4.63,24.12,7.38,37.57Z"/><path class="cls-3" d="M692.89,990.94c1.94-1.31,2-4.15,1.88-6.53l-.57-9.93a4.89,4.89,0,0,0-.82-3c-.88-1-2.4-1.1-3.74-1.09l-19.17.13q-5,12.84-10.1,25.67c-.66,1.7-1.28,3.8-.13,5.2.86,1.06,4,2.21,5.38,2.29a97.54,97.54,0,0,0,11.08.15c1.91,0,8.5-2.82,9.54-4.46,1.49-2.37-.32-4.33,1.56-6.38C689.07,991.66,691.34,992,692.89,990.94Z"/><path class="cls-11" d="M674.65,979.85l5.13.36a21.58,21.58,0,0,0,7.22-.3,7.5,7.5,0,0,0,5.33-4.57,41,41,0,0,0-17.78-2.23,7.85,7.85,0,0,0-3.31.89,3.13,3.13,0,0,0-1.62,2.89,3.16,3.16,0,0,0,1.93,2.37A9.27,9.27,0,0,0,674.65,979.85Z"/><path class="cls-4" d="M680.66,694.2l-.67,6.56c-5.94,55.65-11,92.16-11.31,138s1.65,92-3.43,137.49A108.56,108.56,0,0,1,697,977.72c7.33-86.57,23-161.06,36.56-240.94,2-11.86,1-27.22-.52-42.58Z"/><path class="cls-18" d="M691.91,767.35c12.43-33.74,28.54-3.44,39.14-73.15H680.66l-.67,6.56c-5.94,55.65-11,92.16-11.31,138s1.65,92-3.43,137.49c2.72-.28,5.46-.45,8.2-.52C672.94,915,670.54,824.35,691.91,767.35Z"/><path class="cls-8" d="M691.75,975.49l-.81-.38c6.37-79.08,19.94-149.67,38.37-231.32l.82.44C711.71,825.83,698.11,896.48,691.75,975.49Z"/><path class="cls-11" d="M719.47,712.06c-.05-1.78.07-3.81-.09-5.71q-17,.67-34,2.3-1.47,4.76-2.95,9.53a345,345,0,0,1,37.13-4C719.54,713.5,719.5,712.78,719.47,712.06Z"/><path class="cls-11" d="M721.76,706.26c.14,1.94,0,4,.1,5.8l.09,2.05c1.24-.06,2.49-.12,3.73-.16,0-2.61,0-5.23.07-7.84Z"/><path class="cls-11" d="M750.8,714q7.25.25,14.46.82l-1.5-8.61c-4.36-.15-8.72-.23-13.09-.28C750.73,708.62,750.71,711.32,750.8,714Z"/><path class="cls-11" d="M748.43,713.92c-.09-2.66-.07-5.33-.14-8-1.52,0-3,0-4.57,0a32.92,32.92,0,0,1,.58,7.94Z"/><path class="cls-7" d="M741.31,705.88c-4.39,0-8.78.06-13.17.17,0,2.61-.09,5.22-.07,7.82,4.67-.13,9.34-.14,14-.08A26,26,0,0,0,741.31,705.88Z"/><path class="cls-4" d="M712.55,583.42a3.74,3.74,0,0,1,0,2.17q-1.31,5.82-2.62,11.63c-6.79-5.1-7-15.53-12.9-21.65l13.48,6.17A3.68,3.68,0,0,1,712.55,583.42Z"/><path class="cls-12" d="M747.06,572.57c-23.89-9.68-46-10.59-71.9-7.86-6.46.68-13.47,2.07-17.52,6.8-4.71,5.51-3.74,13.42-2.29,20.33,8.13,38.65,23.75,76.58,22.32,115.94a410.43,410.43,0,0,1,88.82-3.87c-7-32.59-8.3-62.15-2.43-94.93,1.36-7.63.38-18.36-4.64-24.51C756.7,581.13,751.18,574.24,747.06,572.57Z"/><path class="cls-13" d="M716.15,539.62c-7.56,1.34-19.48,2-27,.65,2.12,10.69,3.31,15.37-.38,25.62,47.51,12.36,34.38,9.66,35.26,6.65C717.44,563,717.41,551.13,716.15,539.62Z"/><path class="cls-14" d="M724,572.54c-6.55-9.55-6.58-21.41-7.84-32.92a98,98,0,0,1-24.08,1.06,220.17,220.17,0,0,0,7.17,28C734.14,577.79,723.18,575.3,724,572.54Z"/><path class="cls-4" d="M719.71,563.57c-2.39-7.54-2.67-15.83-3.56-24a98.63,98.63,0,0,1-23.53,1.11C693.83,555.13,706.33,562.46,719.71,563.57Z"/><path class="cls-13" d="M708.79,507.93a19.14,19.14,0,0,0-13-.71c-4.76,1.35-10.66,2.86-13.87,7.13-3.08,4.11-2.94,9.88-1.29,14.75a34.45,34.45,0,0,0,18.49,20.72c9,3.92,15.32,3.56,22.74,2.22a4.58,4.58,0,0,0,3.75-4.91c-.5-5.65-.76-11-2.72-16.17-.66-1.72-2.37-3-2.88-4.63s.25-3.34-.42-5.12C717.38,515.19,714.48,510.47,708.79,507.93Z"/><path class="cls-14" d="M704.7,551.78c6.26,1.72,11.39,1.31,17.19.26a4.58,4.58,0,0,0,3.75-4.91c-.08-.89-.15-1.76-.23-2.64C719.24,550.93,712.1,552.58,704.7,551.78Z"/><path class="cls-14" d="M694.86,521.33c7.14-.33,9.11-.5,15-2.46,3.53-.5,5.73-1.86,7.06-3.45a17.61,17.61,0,0,0-8.2-7.52c-5.21-2.3-11.26-1.28-16.69.42-3.8,1.19-7.69,2.84-10.09,6-3.08,4.11-2.94,9.88-1.29,14.75a35.15,35.15,0,0,0,14.22,18.4C695,538.76,689.94,529.77,694.86,521.33Z"/><path class="cls-4" d="M721,495.37a12.41,12.41,0,0,1-5.8,5.76,6.28,6.28,0,0,0,1.62-4c-2.4,3.32-6.5,5-10.53,5.72s-8.17.6-12.24,1.14-8.23,1.84-11,4.82c-3.12,3.31-7.6,7.81-6.12,12.85a10.09,10.09,0,0,0-2,8.08c.77,3.64,3.72,6.4,6.77,8.53s6.42,3.94,8.81,6.79a29.24,29.24,0,0,0,1.18-8.05c1.09.85,2.13,1.78,3.14,2.71a1.41,1.41,0,0,0,1.51-1.31,12.24,12.24,0,0,0-1.14-4c-1-1.7-1.82-1.3-2.79-3a9.37,9.37,0,0,1-.73-1.57,33.67,33.67,0,0,1,1.12-10.1c.34,0,.68-.1,1-.13,5.43-.52,11-.61,16.09-2.6s9.67-6.45,9.84-11.89L717,507.45A22.71,22.71,0,0,0,721,495.37Z"/><path class="cls-13" d="M696.65,539.26c-.15-1.21-6.12-4.79-7.29-4.41a3.28,3.28,0,0,0-2.05,2.79,7,7,0,0,0,.73,3.54,16.29,16.29,0,0,0,2.7,4.2,6.39,6.39,0,0,0,3,2.13,3,3,0,0,0,3.31-1.15Z"/><path class="cls-4" d="M764.06,609c1.36-7.63.38-18.36-4.64-24.51-2.72-3.34-8.24-10.23-12.36-11.9a127.65,127.65,0,0,0-13-4.46c16,43.18,12.3,89.51,14,135q9.18.18,18.36.77C759.49,671.32,758.19,641.76,764.06,609Z"/><path class="cls-4" d="M737,703.66a.45.45,0,0,1-.22-.85l7.07-4a2.71,2.71,0,0,0-2.24-1,.45.45,0,0,1-.11-.9c1.94-.31,3.16-2.43,3.33-4.27a15,15,0,0,0-1-5.54l-.18-.58c-3.37-11.31-3.67-23.24-4-34.78-.21-8.27-1.21-17.77-2.19-26.95s-2-18.71-2.18-27a.44.44,0,0,1,.44-.46h0a.44.44,0,0,1,.45.44c.21,8.27,1.22,17.77,2.19,26.95s2,18.71,2.19,27c.29,11.47.58,23.35,3.92,34.54l.18.58a15.48,15.48,0,0,1,1,5.88,6,6,0,0,1-2.51,4.48,3.5,3.5,0,0,1,1.68,1.52.46.46,0,0,1-.17.62l-7.5,4.2A.46.46,0,0,1,737,703.66Z"/><path class="cls-4" d="M733.47,582.85c-1.36,2.09-1.2,6.54-3.41,7.67,5,28.88,5.52,53.21.52,82.09,5.67,4.48,10.07,6.55,13.88,9.26.45-7.62,3.17-8.21,3.13-12,0-3.42-1-8.12-1.94-15.67C742.81,630.8,740.42,605.43,733.47,582.85Z"/><path class="cls-8" d="M682.76,560.52c-1.08.08-2.38,3.48-3.48,3.58-2.14.19-1.93.46-4.12.71-6.46.73-13.47,2.21-17.52,7.29-4.71,5.9-3.1,14.28-2.29,21.78,5.68,52.24,29.94,72.65,17.51,152.53,9.8-1.62,22.69-4.47,34.32-6.24a14.32,14.32,0,0,0,12.16-15c-2.15-38.19-3.5-92-8.21-126.48C709,582.88,696.06,568.49,682.76,560.52Z"/><path class="cls-2" d="M680.24,710.39a35.29,35.29,0,0,0,25.45-17.58C697.71,699.34,689,704.88,680.24,710.39Z"/><path class="cls-4" d="M654.66,587.63c.19,2.1.47,4.21.69,6.25a206.05,206.05,0,0,0,5.6,29.83C671.46,648,692.46,666.26,717,677c-.73-15.36-1.55-31-2.63-45.51C688.72,623.19,665.32,611,654.66,587.63Z"/><path class="cls-4" d="M715.91,735.53a.45.45,0,0,1-.46-.44,494,494,0,0,0-18.51-114.67.46.46,0,0,1,.06-.36.44.44,0,0,1,.3-.21,25.6,25.6,0,0,0,8.9-3.48l-8.45-1.09a.47.47,0,0,1-.32-.19.44.44,0,0,1-.07-.35c4-18.75-3.63-38.92-18.92-50.18a.46.46,0,0,1,.54-.74c15.44,11.38,23.18,31.67,19.37,50.62l9.17,1.18a.48.48,0,0,1,.39.35.46.46,0,0,1-.19.48,26.42,26.42,0,0,1-9.77,4.2,495,495,0,0,1,18.41,114.4.45.45,0,0,1-.44.48Z"/><path class="cls-4" d="M673.32,745.73a.44.44,0,0,1-.4-.24.45.45,0,0,1,.19-.61c5.8-3.09,12.5-3.71,19-4.31l2.93-.28c7.07-.71,15-2.16,20.3-7.44a.45.45,0,0,1,.64.64c-5.49,5.49-13.62,7-20.85,7.71l-2.93.28c-6.4.59-13,1.2-18.65,4.2A.38.38,0,0,1,673.32,745.73Z"/><path class="cls-4" d="M680.48,708.88a.48.48,0,0,1-.39-.21.46.46,0,0,1,.15-.63c8.53-5.25,17-10.88,25.1-16.72a.47.47,0,0,1,.64.1.45.45,0,0,1-.11.64c-8.14,5.85-16.61,11.49-25.15,16.75A.44.44,0,0,1,680.48,708.88Z"/><path class="cls-15" d="M750.36,574.53c12.8,10.9,12.11,19.57,18.71,35,4.31,10.09,9,24.53,10.35,35.42,1.12,9.21-1.11,20.73-2.79,29.85-3.63,19.81-3.58,37.17-9.15,56.52-5.45-6.57-11.25-11-12-19.47a39.53,39.53,0,0,1,.85-10.28c2.08-11.79,4.85-23.65,4-35.59s-5.15-23.08-8-34.58c-4.12-16.67-5.15-33.93-6.16-51.07Z"/><path class="cls-4" d="M747.5,599.51a203.2,203.2,0,0,0,4.86,31.92c2.84,11.5,7.17,22.76,8,34.58s-1.93,23.8-4,35.59a39.53,39.53,0,0,0-.85,10.28c.74,8.5,6.54,12.9,12,19.47.39-1.37.75-2.73,1.1-4.08C769.48,682.63,771.2,638.12,747.5,599.51Z"/><path class="cls-15" d="M730,639.84c1.6-9.73-1.64-12.4-7.66-20.22s-11.64-7.31-19.55-13.21c-10-7.49-20.12-25.72-30.16-33.21-2.4-1.79-4.9-3.63-7.82-4.27-5.75-1.27-11.73,2.66-14.32,7.94s-2.4,11.53-1.21,17.29c2.72,13.25,10.34,25.14,19.92,34.68s21.1,16.92,32.88,23.55c6.59,3.7,14.48,7.28,21.42,4.3C728.87,654.4,729.08,645.57,730,639.84Z"/><path class="cls-2" d="M653.6,598.41a28.36,28.36,0,0,1,8.27-25.53c-2.09-1.15-4.65.36-6.27,2.11a19.14,19.14,0,0,0-2,23.42Z"/><path class="cls-2" d="M668,577.9a1.85,1.85,0,1,0-1.67,1A1.88,1.88,0,0,0,668,577.9Z"/><path class="cls-4" d="M701.06,607a32.25,32.25,0,0,0,9,41.63,52.15,52.15,0,0,1-.55-36.91Z"/><path class="cls-13" d="M720.7,548.45a18,18,0,0,1,5.64-1.34,22.41,22.41,0,0,1,7.79-.05c2.77.65,4.61,2.41,7.06,3.26a2,2,0,0,1,1.24,2.46c-.37,1.13-.72,2.19-1.17,3.51-.26.76.08,2.14-.69,2.37a1.76,1.76,0,0,1-2-1.21,5.15,5.15,0,0,1-.05-2.5,20.83,20.83,0,0,1-6.38,4.37,22.82,22.82,0,0,0-.12,8q-6.3-.62-12.52-1.8a3.63,3.63,0,0,1-2.68-1.4,3.69,3.69,0,0,1-.31-1.72c0-3.19.86-5.79.82-9C718.22,551.52,718.82,549.36,720.7,548.45Z"/><path class="cls-14" d="M717,557.65a29.8,29.8,0,0,0-.44,4.74,3.69,3.69,0,0,0,.31,1.72,3.63,3.63,0,0,0,2.68,1.4q6.21,1.18,12.52,1.8a22.5,22.5,0,0,1-.21-5.5A70.81,70.81,0,0,1,717,557.65Z"/><path class="cls-15" d="M721.43,658.73c4-1,7-4.52,8.47-8.4s1.6-8.1,1.74-12.23c.76-23.23,2.62-49.82,3.39-73-5.1-1.59-17-2.23-22.13-3.82-2.67,25.94-12.16,52.91-8.58,78.85.65,4.73,1.79,9.56,4.66,13.38S716.79,659.87,721.43,658.73Z"/><path class="cls-2" d="M712.62,576.73c-3.12,11.8-6.25,23.64-7.83,35.75s-1.55,24.55,1.57,36.35A265.58,265.58,0,0,1,712.62,576.73Z"/><path class="cls-4" d="M734.51,572.69a65.16,65.16,0,0,1-22.37-4,.44.44,0,0,1-.27-.58.45.45,0,0,1,.58-.27,64.31,64.31,0,0,0,22.06,3.89h.33a.45.45,0,0,1,.45.45.46.46,0,0,1-.45.46Z"/><path class="cls-8" d="M766,737.08c2,.32,4.07.61,6,.75-7-34.93-13.78-90.45-7.91-125.58,1.36-8.17,1.65-20.09-3.36-26.68C758,582,752,574.21,747.85,572.42a147.69,147.69,0,0,0-14.07-4.77c3.53,5.47,7.8,12.4,8.64,18.33,6.88,37.81,6.82,97.26,11.5,138.5A14.4,14.4,0,0,0,766,737.08Z"/><path class="cls-4" d="M759.18,732.72a.45.45,0,0,1-.45-.41c-2.87-29.11-4.26-78.73-1.78-106.71l-6.25,1a.46.46,0,0,1-.34-.82l7.68-5.37a169.76,169.76,0,0,0-19-49.82.45.45,0,0,1,.17-.62.46.46,0,0,1,.62.17A170.45,170.45,0,0,1,759,620.53a.45.45,0,0,1-.18.47l-6.3,4.4,4.87-.79a.44.44,0,0,1,.38.12.4.4,0,0,1,.14.37c-2.54,27.82-1.15,77.85,1.74,107.12a.47.47,0,0,1-.41.5Z"/><path class="cls-4" d="M770.28,736.23a20.84,20.84,0,0,1-12.19-4,.46.46,0,0,1-.1-.64.47.47,0,0,1,.64-.1,19.79,19.79,0,0,0,12.47,3.76.47.47,0,0,1,.48.44.46.46,0,0,1-.44.47Z"/><path class="cls-4" d="M764.78,701.25a.46.46,0,0,1-.29-.1l-4.11-3.37a.45.45,0,0,1-.07-.64.46.46,0,0,1,.64-.06l4.12,3.36a.46.46,0,0,1-.29.81Z"/><path class="cls-14" d="M689.08,537.2a8.94,8.94,0,0,1,3.9,2.32,1.06,1.06,0,0,1,.33.53c.07.4-.3.73-.49,1.09a1.41,1.41,0,0,0,.75,1.91c.38.14.93.23.91.63,0,.23-.22.38-.38.54a1.81,1.81,0,0,0-.46,1.91,7.33,7.33,0,0,1-2.21-1.89,2.49,2.49,0,0,1-.16-2.75c.08-.11.17-.26.1-.37a.35.35,0,0,0-.26-.1,2.57,2.57,0,0,1-2-3.82Z"/></svg>