<svg xmlns="http://www.w3.org/2000/svg" xmlns:xlink="http://www.w3.org/1999/xlink" viewBox="0 0 500 500"><defs><linearGradient id="Безымянный_градиент_51" x1="331.03" y1="-69.49" x2="198.67" y2="384.16" gradientUnits="userSpaceOnUse"><stop offset="0" stop-color="#f5f0ff"/><stop offset="1" stop-color="#d2c1f7"/></linearGradient><linearGradient id="Безымянный_градиент_9" x1="235.65" y1="88.98" x2="244.41" y2="434.64" gradientUnits="userSpaceOnUse"><stop offset="0" stop-color="#263681"/><stop offset="1" stop-color="#1a1248"/></linearGradient><radialGradient id="radial-gradient" cx="240.16" cy="266.99" r="133.11" gradientTransform="translate(-26.84 507.15) rotate(-90)" gradientUnits="userSpaceOnUse"><stop offset="0" stop-color="#9571cb"/><stop offset="0.24" stop-color="#8e6aca" stop-opacity="0.99"/><stop offset="0.6" stop-color="#7c55c6" stop-opacity="0.98"/><stop offset="1" stop-color="#6237c0" stop-opacity="0.95"/></radialGradient><clipPath id="clip-path"><path d="M92.71,427.7,75,71.82c68.7-19.2,248.51,28.1,248.51,28.1a3.4,3.4,0,0,1,3.4,3.4V430.67a3.41,3.41,0,0,1-3.4,3.4S190.82,481.51,92.71,427.7Z" style="fill:none"/></clipPath><linearGradient id="Безымянный_градиент_15" x1="293.63" y1="320.49" x2="274.57" y2="312.98" gradientUnits="userSpaceOnUse"><stop offset="0" stop-color="#f5f0ff"/><stop offset="0.7" stop-color="#d2c1f7"/><stop offset="1" stop-color="#dccef9"/></linearGradient><linearGradient id="Безымянный_градиент_29" x1="3481.74" y1="616.69" x2="3492.08" y2="699.06" gradientTransform="matrix(-0.97, -0.24, -0.24, 0.97, 3787.23, 456.16)" gradientUnits="userSpaceOnUse"><stop offset="0" stop-color="#f59513"/><stop offset="0.37" stop-color="#faad1e"/><stop offset="1" stop-color="#f2830b"/></linearGradient><linearGradient id="Безымянный_градиент_2" x1="3565.2" y1="653.66" x2="3538.81" y2="653.66" gradientTransform="matrix(0, -1, -1, 0, 836.89, 3790.99)" gradientUnits="userSpaceOnUse"><stop offset="0" stop-color="#e6971c"/><stop offset="1" stop-color="#de6d0a"/></linearGradient><clipPath id="clip-path-2"><ellipse cx="183.01" cy="239.99" rx="66.94" ry="12.84" transform="translate(-93.85 360.16) rotate(-76.13)" style="fill:none"/></clipPath><radialGradient id="Безымянный_градиент_27" cx="3563.27" cy="654.86" r="24.76" gradientTransform="matrix(-0.85, -0.21, -0.21, 0.85, 3338.6, 431.17)" gradientUnits="userSpaceOnUse"><stop offset="0" stop-color="#ffd042"/><stop offset="1" stop-color="#f2830b"/></radialGradient><linearGradient id="Безымянный_градиент_21" x1="309.87" y1="137.33" x2="333.49" y2="189.81" gradientTransform="translate(431.16 -180.3) rotate(80.71)" gradientUnits="userSpaceOnUse"><stop offset="0" stop-color="#9571cb"/><stop offset="1" stop-color="#6237c0"/></linearGradient><linearGradient id="Безымянный_градиент_51-2" x1="312.08" y1="142.25" x2="331.27" y2="184.89" gradientTransform="translate(85.69 -109.45) rotate(22.21)" xlink:href="#Безымянный_градиент_51"/><linearGradient id="Безымянный_градиент_24" x1="317.44" y1="153.25" x2="328.11" y2="176.97" gradientUnits="userSpaceOnUse"><stop offset="0" stop-color="#faad1e"/><stop offset="1" stop-color="#f2830b"/></linearGradient><linearGradient id="Безымянный_градиент_51-3" x1="246.52" y1="135.98" x2="258.76" y2="163.18" gradientTransform="translate(179.76 -134.83) rotate(45)" xlink:href="#Безымянный_градиент_51"/><linearGradient id="Безымянный_градиент_24-2" x1="250.33" y1="140.8" x2="254.94" y2="151.07" xlink:href="#Безымянный_градиент_24"/><linearGradient id="Безымянный_градиент_24-3" x1="251.79" y1="155.73" x2="253.48" y2="159.49" xlink:href="#Безымянный_градиент_24"/><linearGradient id="Безымянный_градиент_40" x1="402.33" y1="308.11" x2="387.74" y2="358.12" gradientTransform="translate(669.46 -96.34) rotate(80.74)" gradientUnits="userSpaceOnUse"><stop offset="0" stop-color="#ffe14d"/><stop offset="1" stop-color="#f7a523"/></linearGradient><linearGradient id="Безымянный_градиент_24-4" x1="400.59" y1="314.08" x2="388.32" y2="356.13" xlink:href="#Безымянный_градиент_24"/><linearGradient id="Безымянный_градиент_40-2" x1="455.68" y1="143.25" x2="435.28" y2="213.18" gradientTransform="translate(267.33 -254.1) rotate(45)" xlink:href="#Безымянный_градиент_40"/><linearGradient id="Безымянный_градиент_24-5" x1="453.25" y1="151.59" x2="436.09" y2="210.39" gradientTransform="translate(267.33 -254.1) rotate(45)" xlink:href="#Безымянный_градиент_24"/><linearGradient id="Безымянный_градиент_40-3" x1="83.64" y1="238" x2="63.23" y2="307.94" gradientTransform="translate(225.36 36.73) rotate(45)" xlink:href="#Безымянный_градиент_40"/><linearGradient id="Безымянный_градиент_24-6" x1="81.2" y1="246.34" x2="64.05" y2="305.15" xlink:href="#Безымянный_градиент_24"/><linearGradient id="Безымянный_градиент_21-2" x1="382.69" y1="116.05" x2="393.01" y2="138.97" gradientTransform="matrix(1, 0, 0, 1, 0, 0)" xlink:href="#Безымянный_градиент_21"/><linearGradient id="Безымянный_градиент_21-3" x1="54.32" y1="203.47" x2="64.64" y2="226.4" gradientTransform="matrix(1, 0, 0, 1, 0, 0)" xlink:href="#Безымянный_градиент_21"/><linearGradient id="Безымянный_градиент_9-2" x1="359.93" y1="404.28" x2="366.94" y2="419.88" xlink:href="#Безымянный_градиент_9"/><linearGradient id="Безымянный_градиент_9-3" x1="114.98" y1="49.35" x2="122" y2="64.95" xlink:href="#Безымянный_градиент_9"/><linearGradient id="Безымянный_градиент_9-4" x1="394.88" y1="269.66" x2="401.9" y2="285.26" xlink:href="#Безымянный_градиент_9"/><linearGradient id="Безымянный_градиент_8" x1="86.61" y1="101.94" x2="132.95" y2="204.93" gradientUnits="userSpaceOnUse"><stop offset="0" stop-color="#fff"/><stop offset="1" stop-color="#f5f0ff"/></linearGradient><linearGradient id="Degradado_sin_nombre_3" x1="133.32" y1="340.88" x2="168.36" y2="418.75" gradientTransform="translate(499.29 169.16) rotate(80.73)" gradientUnits="userSpaceOnUse"><stop offset="0" stop-color="#9571cb"/><stop offset="0.1" stop-color="#8a64c9"/><stop offset="0.32" stop-color="#744bc4"/><stop offset="0.53" stop-color="#673cc1"/><stop offset="0.69" stop-color="#6237c0"/></linearGradient><linearGradient id="Безымянный_градиент_51-4" x1="136.47" y1="347.89" x2="163.82" y2="408.67" gradientTransform="translate(147.7 -28.7) rotate(21.3)" xlink:href="#Безымянный_градиент_51"/><linearGradient id="Безымянный_градиент_18" x1="194.93" y1="366.6" x2="204.72" y2="407.06" gradientTransform="translate(115.23 -56.82) rotate(22.97)" gradientUnits="userSpaceOnUse"><stop offset="0" stop-color="#ffc085"/><stop offset="1" stop-color="#fa976e"/></linearGradient><linearGradient id="Безымянный_градиент_18-2" x1="190.55" y1="412.71" x2="191.96" y2="402.75" xlink:href="#Безымянный_градиент_18"/><linearGradient id="Безымянный_градиент_18-3" x1="187.85" y1="409.09" x2="189.41" y2="398.13" xlink:href="#Безымянный_градиент_18"/><linearGradient id="Безымянный_градиент_18-4" x1="184.82" y1="404.3" x2="186.45" y2="392.75" xlink:href="#Безымянный_градиент_18"/><linearGradient id="Безымянный_градиент_18-5" x1="174.21" y1="390.74" x2="193.14" y2="390.74" xlink:href="#Безымянный_градиент_18"/><linearGradient id="Безымянный_градиент_51-5" x1="219.54" y1="376.05" x2="225.68" y2="394.25" gradientTransform="translate(115.23 -56.82) rotate(22.97)" xlink:href="#Безымянный_градиент_51"/><linearGradient id="Безымянный_градиент_9-5" x1="222.29" y1="373.24" x2="229.38" y2="392.54" gradientTransform="translate(115.23 -56.82) rotate(22.97)" xlink:href="#Безымянный_градиент_9"/></defs><g style="isolation:isolate"><g id="OBJECTS"><path d="M148.06,51.28A59.72,59.72,0,0,0,97.89,71.51C89,81.86,84,95,75.42,105.65,59.21,125.84,32.16,135,16,155.21-.67,176.07-2.68,206.37,7.29,231.15s30.51,44.27,53.89,57.16c8.2,4.52,17,8.47,23.41,15.3,10.2,10.87,12.46,27.11,11,41.94s-6.15,29.19-7.79,44c-1.16,10.51-.51,22,6,30.32,6,7.65,15.8,11.19,25.3,13.23a125.21,125.21,0,0,0,84.64-12c20.72-11.15,38.1-28.09,59.59-37.67,25.79-11.5,55.27-11.38,83.27-7.72,17.14,2.23,34.22,5.72,51.51,5.65s35.25-4.08,48.52-15.16c12.73-10.63,19.83-26.57,24.23-42.56a177.8,177.8,0,0,0-9.14-118.89c-5.14-11.45-11.65-22.53-21-30.93-9.64-8.68-21.75-14.05-33.63-19.27-37-16.26-78-42.06-118.7-46-12-1.17-24.24.65-36.08-2.28-18.17-4.5-33.7-16.63-48.47-27.52C187.16,66.42,169.36,53.31,148.06,51.28Z" style="fill:url(#Безымянный_градиент_51)"/><path d="M350,355c-1,0-1.93,0-2.9,0a.65.65,0,0,1,0-1.29c1.71,0,3.43,0,5.15,0a.65.65,0,0,1,0,1.29Zm10-.26a.65.65,0,0,1-.65-.62.64.64,0,0,1,.61-.67c1.72-.1,3.43-.21,5.14-.35a.65.65,0,0,1,.69.59.64.64,0,0,1-.59.7c-1.72.14-3.44.25-5.17.34Zm-20.65,0h0c-1.72-.1-3.44-.22-5.16-.37a.64.64,0,1,1,.1-1.28c1.71.14,3.42.26,5.14.36a.65.65,0,0,1,.6.68A.63.63,0,0,1,339.33,354.66Zm33.5-1.09a.64.64,0,0,1-.07-1.28q2.55-.32,5.1-.69a.65.65,0,0,1,.19,1.28c-1.71.25-3.42.48-5.14.69Zm-46.35-.1h-.08c-1.72-.22-3.43-.46-5.13-.73a.64.64,0,0,1-.54-.74.65.65,0,0,1,.74-.54c1.69.27,3.39.51,5.09.73a.65.65,0,0,1,.56.72A.64.64,0,0,1,326.48,353.47Zm59.11-1.88a.65.65,0,0,1-.64-.52.66.66,0,0,1,.52-.76q2.52-.48,5-1a.64.64,0,0,1,.77.49.65.65,0,0,1-.49.77q-2.54.56-5.08,1Zm12.59-2.84a.63.63,0,0,1-.62-.48.65.65,0,0,1,.46-.79q2.49-.64,5-1.36a.64.64,0,0,1,.8.44.65.65,0,0,1-.44.8c-1.66.48-3.32.94-5,1.37A.44.44,0,0,1,398.18,348.75Zm12.37-3.67a.64.64,0,0,1-.61-.44.65.65,0,0,1,.41-.82c1.63-.54,3.25-1.11,4.86-1.69a.64.64,0,1,1,.44,1.21q-2.43.89-4.89,1.71Zm12.1-4.5a.65.65,0,0,1-.25-1.25q2.39-1,4.74-2a.65.65,0,0,1,.85.33.64.64,0,0,1-.33.85q-2.37,1-4.76,2A.79.79,0,0,1,422.65,340.58Zm11.76-5.32a.64.64,0,0,1-.29-1.22q2.31-1.14,4.59-2.35a.66.66,0,0,1,.87.27.63.63,0,0,1-.27.87c-1.53.81-3.06,1.6-4.61,2.36A.62.62,0,0,1,434.41,335.26Zm11.37-6.12a.63.63,0,0,1-.56-.32.64.64,0,0,1,.23-.88c1.48-.87,2.95-1.75,4.41-2.66a.64.64,0,0,1,.89.21.66.66,0,0,1-.21.89q-2.21,1.37-4.44,2.67A.62.62,0,0,1,445.78,329.14Zm10.9-6.9a.65.65,0,0,1-.36-1.18q2.12-1.46,4.2-3a.64.64,0,1,1,.76,1q-2.1,1.53-4.23,3A.7.7,0,0,1,456.68,322.24ZM467,314.49a.65.65,0,0,1-.41-1.14c1.34-1.12,2.64-2.26,3.85-3.39a.65.65,0,0,1,.88,1c-1.23,1.14-2.55,2.29-3.9,3.43A.66.66,0,0,1,467,314.49Zm9.31-8.93a.64.64,0,0,1-.48-1.07c.76-.86,1.51-1.74,2.23-2.64.35-.43.69-.87,1-1.3a.64.64,0,1,1,1,.78c-.34.45-.69.89-1,1.33-.74.92-1.5,1.81-2.28,2.68A.62.62,0,0,1,476.31,305.56ZM484,295.21a.67.67,0,0,1-.34-.09.65.65,0,0,1-.22-.89c.88-1.43,1.73-2.93,2.53-4.45a.64.64,0,1,1,1.14.6c-.81,1.55-1.67,3.07-2.56,4.52A.66.66,0,0,1,484,295.21Zm5.8-11.51a.52.52,0,0,1-.24-.05.64.64,0,0,1-.35-.84c.63-1.55,1.24-3.16,1.81-4.79a.65.65,0,0,1,1.22.42c-.57,1.66-1.19,3.29-1.84,4.86A.64.64,0,0,1,489.79,283.7Zm4.08-12.24-.16,0a.65.65,0,0,1-.46-.79c.43-1.62.83-3.3,1.2-5a.65.65,0,0,1,.76-.5.66.66,0,0,1,.5.77c-.37,1.71-.78,3.41-1.21,5.05A.65.65,0,0,1,493.87,271.46Zm2.62-12.64h-.1a.64.64,0,0,1-.54-.73c.27-1.67.5-3.39.71-5.1a.64.64,0,1,1,1.28.16c-.21,1.72-.45,3.45-.71,5.14A.65.65,0,0,1,496.49,258.82ZM498,246h0a.63.63,0,0,1-.59-.69c.13-1.71.23-3.42.32-5.14a.63.63,0,0,1,.68-.61.64.64,0,0,1,.61.68c-.09,1.72-.2,3.45-.33,5.17A.64.64,0,0,1,498,246ZM380.11,234.86a.64.64,0,0,1-.64-.59.64.64,0,0,1,.59-.7,39.33,39.33,0,0,0,5-.74.65.65,0,0,1,.77.5.64.64,0,0,1-.5.76,40.27,40.27,0,0,1-5.19.77Zm-7.7-.44-.14,0-.8-.19a20.57,20.57,0,0,1-4.2-1.61.65.65,0,0,1,.59-1.15A18.84,18.84,0,0,0,371.8,233q.38.1.75.18a.65.65,0,0,1-.14,1.28Zm126.14-1.32h0a.65.65,0,0,1-.63-.66c0-1.72,0-3.44,0-5.15a.65.65,0,0,1,.64-.65h0a.65.65,0,0,1,.65.65c0,1.72,0,3.45-.05,5.17A.65.65,0,0,1,498.55,233.1Zm-105.87-1a.64.64,0,0,1-.61-.44.65.65,0,0,1,.41-.82c1.56-.51,3.18-1.1,4.82-1.75a.63.63,0,0,1,.83.36.64.64,0,0,1-.36.84c-1.66.65-3.3,1.25-4.88,1.78A.76.76,0,0,1,392.68,232.07ZM361.47,228a.64.64,0,0,1-.48-.21,26.88,26.88,0,0,1-3.15-4.23.65.65,0,0,1,.21-.89.66.66,0,0,1,.89.22,26,26,0,0,0,3,4,.64.64,0,0,1,0,.91A.6.6,0,0,1,361.47,228Zm43.16-.76a.63.63,0,0,1-.58-.37.65.65,0,0,1,.31-.86q2.33-1.09,4.62-2.26a.65.65,0,0,1,.87.29.64.64,0,0,1-.29.86q-2.31,1.17-4.65,2.28A.67.67,0,0,1,404.63,227.2Zm11.52-5.83a.65.65,0,0,1-.3-1.22c1.51-.8,3-1.61,4.54-2.43a.64.64,0,1,1,.62,1.13q-2.28,1.25-4.56,2.44A.56.56,0,0,1,416.15,221.37Zm82.37-1.18a.64.64,0,0,1-.64-.63c0-1.72-.08-3.44-.14-5.16a.65.65,0,0,1,1.29,0c.06,1.72.1,3.45.14,5.17a.65.65,0,0,1-.63.66ZM355.3,216.75a.64.64,0,0,1-.62-.46,32.56,32.56,0,0,1-1.05-5.16.64.64,0,1,1,1.28-.16,30.82,30.82,0,0,0,1,4.95.65.65,0,0,1-.44.81Zm72.16-1.6a.64.64,0,0,1-.56-.32.65.65,0,0,1,.24-.88q2.24-1.29,4.44-2.62a.65.65,0,1,1,.67,1.11q-2.22,1.34-4.46,2.63A.8.8,0,0,1,427.46,215.15Zm11-6.74a.64.64,0,0,1-.35-1.18q2.16-1.41,4.26-2.89a.65.65,0,1,1,.74,1.06q-2.12,1.48-4.29,2.91A.65.65,0,0,1,438.47,208.41ZM498,207.29a.65.65,0,0,1-.65-.6c-.11-1.71-.26-3.42-.43-5.13a.63.63,0,0,1,.58-.7.66.66,0,0,1,.7.58c.18,1.71.32,3.44.44,5.16a.64.64,0,0,1-.6.69ZM354.35,204h-.09a.65.65,0,0,1-.55-.73,38.89,38.89,0,0,1,1.12-5.13.65.65,0,1,1,1.24.36,36.34,36.34,0,0,0-1.08,5A.64.64,0,0,1,354.35,204ZM449,200.92a.66.66,0,0,1-.51-.25.65.65,0,0,1,.11-.91c1.36-1.06,2.71-2.15,4-3.23a.65.65,0,0,1,.84,1c-1.3,1.1-2.66,2.2-4,3.27A.67.67,0,0,1,449,200.92Zm47.58-6.45a.65.65,0,0,1-.64-.55c-.27-1.71-.59-3.41-.93-5a.64.64,0,1,1,1.26-.27c.35,1.66.67,3.38.95,5.11a.66.66,0,0,1-.54.74Zm-37.83-2a.63.63,0,0,1-.46-.2.65.65,0,0,1,0-.91c1.24-1.2,2.45-2.44,3.59-3.66a.65.65,0,0,1,.95.88c-1.16,1.24-2.38,2.49-3.64,3.71A.66.66,0,0,1,458.73,192.47Zm-100.45-.73a.72.72,0,0,1-.28-.07.65.65,0,0,1-.29-.87c.75-1.51,1.62-3,2.57-4.55a.65.65,0,0,1,1.09.69c-.93,1.47-1.77,3-2.51,4.44A.66.66,0,0,1,358.28,191.74Zm109.11-8.83a.61.61,0,0,1-.4-.14.65.65,0,0,1-.11-.9l.52-.67c.86-1.11,1.71-2.27,2.53-3.46a.64.64,0,0,1,.89-.16.63.63,0,0,1,.17.89c-.83,1.21-1.69,2.4-2.57,3.52l-.52.67A.63.63,0,0,1,467.39,182.91Zm26.33-1a.64.64,0,0,1-.62-.46q-.41-1.32-.84-2.64c-.25-.74-.51-1.48-.79-2.21a.65.65,0,0,1,.38-.83.64.64,0,0,1,.83.38c.28.74.55,1.49.8,2.25s.59,1.78.86,2.68a.64.64,0,0,1-.44.8A.57.57,0,0,1,493.72,181.88ZM365.37,181a.65.65,0,0,1-.41-.15.66.66,0,0,1-.09-.91c1.06-1.3,2.22-2.62,3.43-3.91a.64.64,0,0,1,.91,0,.65.65,0,0,1,0,.92c-1.19,1.28-2.32,2.57-3.37,3.85A.63.63,0,0,1,365.37,181Zm109.14-8.82a.71.71,0,0,1-.31-.08.66.66,0,0,1-.26-.88c.82-1.49,1.59-3,2.3-4.57a.65.65,0,1,1,1.18.54c-.73,1.57-1.51,3.13-2.34,4.65A.66.66,0,0,1,474.51,172.16Zm-100.23-.51a.62.62,0,0,1-.47-.21.64.64,0,0,1,0-.91c1.27-1.17,2.58-2.32,3.89-3.43a.65.65,0,0,1,.83,1c-1.3,1.09-2.59,2.24-3.85,3.39A.66.66,0,0,1,374.28,171.65ZM489,169.9a.65.65,0,0,1-.58-.36c-.77-1.53-1.61-3-2.48-4.47a.64.64,0,0,1,.21-.88.65.65,0,0,1,.89.21c.89,1.46,1.74,3,2.53,4.56a.64.64,0,0,1-.28.87A.73.73,0,0,1,489,169.9Zm-104.74-6.47a.65.65,0,0,1-.52-.26.66.66,0,0,1,.13-.91c1.38-1,2.8-2,4.23-3a.64.64,0,1,1,.73,1.06c-1.42,1-2.82,2-4.19,3A.6.6,0,0,1,384.23,163.43Zm95.47-3.08a.76.76,0,0,1-.21,0,.66.66,0,0,1-.4-.82c.29-.86.57-1.73.82-2.59-.58-.67-1.18-1.31-1.78-1.92a.65.65,0,1,1,.93-.91c.43.44.85.9,1.27,1.36.08-.28.15-.56.22-.84a.65.65,0,0,1,1.25.32c-.14.56-.29,1.11-.45,1.67.4.46.79.93,1.17,1.4a.65.65,0,1,1-1,.81l-.6-.73c-.19.62-.39,1.23-.6,1.84A.64.64,0,0,1,479.7,160.35ZM395,156.28a.65.65,0,0,1-.55-.32.63.63,0,0,1,.22-.88c1.48-.88,3-1.74,4.52-2.56a.64.64,0,0,1,.61,1.13c-1.51.81-3,1.67-4.47,2.54A.66.66,0,0,1,395,156.28Zm11.42-6a.65.65,0,0,1-.59-.38.65.65,0,0,1,.32-.86c1.56-.72,3.16-1.42,4.75-2.08a.65.65,0,0,1,.5,1.2c-1.58.65-3.16,1.34-4.71,2.06A.66.66,0,0,1,406.39,150.27Zm66.38-.19a.62.62,0,0,1-.38-.13,46.35,46.35,0,0,0-4.25-2.79.64.64,0,1,1,.64-1.12,44,44,0,0,1,4.38,2.88.65.65,0,0,1,.13.9A.64.64,0,0,1,472.77,150.08Zm9.91-2.27h-.09a.64.64,0,0,1-.56-.72c.23-1.7.39-3.41.48-5.09a.64.64,0,1,1,1.28.07c-.08,1.71-.24,3.46-.48,5.19A.64.64,0,0,1,482.68,147.81Zm-162.1-.65a.64.64,0,0,1-.39-.14.63.63,0,0,1-.12-.9c1-1.34,2.14-2.69,3.31-4a.64.64,0,1,1,1,.85c-1.16,1.31-2.25,2.64-3.26,4A.63.63,0,0,1,320.58,147.16Zm97.79-1.68a.64.64,0,0,1-.2-1.25c1.66-.56,3.33-1.06,5-1.52a.66.66,0,0,1,.8.46.65.65,0,0,1-.46.79c-1.62.44-3.27.95-4.9,1.49A.76.76,0,0,1,418.37,145.48ZM461.44,144a.57.57,0,0,1-.22,0,45.7,45.7,0,0,0-4.87-1.46.65.65,0,0,1-.48-.78.64.64,0,0,1,.78-.47,47.6,47.6,0,0,1,5,1.49.65.65,0,0,1-.22,1.26Zm-30.58-1.74a.65.65,0,0,1-.11-1.28c1.73-.32,3.46-.57,5.15-.76a.64.64,0,1,1,.14,1.28c-1.66.19-3.36.44-5.06.75Zm18-1h-.06c-1.65-.14-3.37-.22-5.1-.22a.65.65,0,1,1,0-1.29h0c1.77,0,3.52.08,5.21.23a.64.64,0,0,1-.05,1.28Zm-119.61-3.67a.63.63,0,0,1-.47-.2.65.65,0,0,1,0-.91c1.2-1.14,2.5-2.31,3.85-3.48a.65.65,0,1,1,.85,1c-1.34,1.15-2.62,2.31-3.81,3.44A.7.7,0,0,1,329.25,137.61ZM483,134.93a.64.64,0,0,1-.64-.59,48.9,48.9,0,0,0-.71-5,.65.65,0,0,1,.51-.76.66.66,0,0,1,.76.51,51.64,51.64,0,0,1,.72,5.18.63.63,0,0,1-.58.7Zm-143.92-5.68a.64.64,0,0,1-.39-1.15q2-1.59,4.12-3.13a.64.64,0,0,1,.77,1c-1.38,1-2.75,2.06-4.1,3.12A.66.66,0,0,1,339.08,129.25Zm141.14-6.89a.66.66,0,0,1-.61-.42c-.44-1.22-.94-2.43-1.48-3.6l-.52-1.08a.64.64,0,1,1,1.15-.57l.54,1.11c.56,1.2,1.07,2.45,1.53,3.7a.64.64,0,0,1-.39.82A.57.57,0,0,1,480.22,122.36Zm-130.77-.8a.62.62,0,0,1-.52-.27.64.64,0,0,1,.14-.9l4.2-3a.63.63,0,0,1,.9.15.64.64,0,0,1-.15.9l-4.19,3A.68.68,0,0,1,349.45,121.56ZM360,114.1a.66.66,0,0,1-.54-.28.65.65,0,0,1,.17-.9q2.14-1.45,4.33-2.85a.64.64,0,0,1,.89.19.66.66,0,0,1-.2.9c-1.44.92-2.87,1.87-4.29,2.83A.61.61,0,0,1,360,114.1Zm114-3a.67.67,0,0,1-.5-.23,24.89,24.89,0,0,0-3.55-3.56.64.64,0,0,1-.1-.9.65.65,0,0,1,.91-.1,25.92,25.92,0,0,1,3.74,3.74.64.64,0,0,1-.09.91A.68.68,0,0,1,474,111.1ZM371,107.29a.64.64,0,0,1-.57-.34.63.63,0,0,1,.26-.87c1.55-.86,3.11-1.66,4.61-2.39a.66.66,0,0,1,.87.3.64.64,0,0,1-.31.86c-1.48.72-3,1.51-4.55,2.36A.71.71,0,0,1,371,107.29Zm92.76-3.71a.74.74,0,0,1-.25,0,48.64,48.64,0,0,0-4.8-1.7.64.64,0,1,1,.37-1.23,46.45,46.45,0,0,1,4.93,1.74.65.65,0,0,1,.35.84A.66.66,0,0,1,463.71,103.58Zm-81-1.69a.65.65,0,0,1-.23-1.25c1.61-.6,3.27-1.16,4.93-1.68a.65.65,0,0,1,.38,1.24c-1.64.5-3.27,1.06-4.85,1.65A1,1,0,0,1,382.66,101.89Zm68.69-2h-.14c-1.67-.4-3.35-.76-5-1.1a.65.65,0,0,1,.26-1.27q2.54.51,5.06,1.11a.64.64,0,0,1-.15,1.27ZM395,98.26A.64.64,0,0,1,394.9,97c1.68-.37,3.4-.7,5.11-1a.64.64,0,0,1,.21,1.27c-1.69.28-3.39.6-5,1Zm43.64-.82h-.09c-1.71-.26-3.42-.48-5.1-.68a.64.64,0,1,1,.15-1.28c1.69.19,3.42.42,5.14.68a.66.66,0,0,1,.54.74A.65.65,0,0,1,438.68,97.44Zm-30.89-1.12a.65.65,0,0,1-.64-.59.64.64,0,0,1,.58-.7c1.7-.16,3.45-.27,5.18-.35a.62.62,0,0,1,.68.62A.65.65,0,0,1,413,96c-1.72.08-3.44.19-5.12.34Zm18.06-.24h0c-1.71-.1-3.44-.17-5.13-.2a.66.66,0,0,1-.64-.66.64.64,0,0,1,.66-.64c1.71,0,3.45.11,5.19.21a.65.65,0,0,1,0,1.29Z" style="fill:#50448c"/><rect x="145.69" y="92.17" width="188.93" height="349.64" rx="8.63" style="fill:url(#Безымянный_градиент_9)"/><rect x="73.08" y="180.27" width="334.15" height="173.44" rx="2.63" transform="translate(507.15 26.84) rotate(90)" style="fill:url(#radial-gradient)"/><path d="M111.7,372.58a.71.71,0,0,1-.28-.06c-1.55-.77-3.09-1.61-4.58-2.49a.64.64,0,0,1-.23-.88.65.65,0,0,1,.89-.23c1.46.87,3,1.69,4.49,2.44a.64.64,0,0,1-.29,1.22Zm-11-6.75a.7.7,0,0,1-.38-.13c-1.38-1-2.75-2.14-4.06-3.27a.65.65,0,0,1-.07-.91.64.64,0,0,1,.91-.06c1.29,1.11,2.63,2.19,4,3.2a.64.64,0,0,1,.13.91A.64.64,0,0,1,100.72,365.83Zm-9.61-8.6a.67.67,0,0,1-.47-.2c-1.18-1.26-2.33-2.58-3.43-3.92a.65.65,0,0,1,.1-.91.66.66,0,0,1,.91.09c1.07,1.32,2.2,2.61,3.37,3.86a.65.65,0,0,1,0,.91A.7.7,0,0,1,91.11,357.23Zm-8-10.13a.66.66,0,0,1-.55-.3c-.95-1.45-1.85-2.95-2.69-4.45a.65.65,0,0,1,.25-.88.64.64,0,0,1,.88.25c.82,1.47,1.71,2.95,2.64,4.38a.63.63,0,0,1-.18.89A.66.66,0,0,1,83.15,347.1Zm-6.06-11.38a.66.66,0,0,1-.6-.4q-.49-1.19-1-2.4c-.31-.82-.6-1.64-.88-2.47a.64.64,0,0,1,.4-.82.65.65,0,0,1,.82.41q.42,1.21.87,2.43c.3.79.61,1.57.94,2.35a.65.65,0,0,1-.34.85A.74.74,0,0,1,77.09,335.72Zm-4-12.28a.64.64,0,0,1-.63-.49c-.38-1.63-.74-3.34-1.06-5.09a.65.65,0,0,1,.52-.75.65.65,0,0,1,.75.52c.31,1.72.67,3.41,1.05,5a.65.65,0,0,1-.48.78Zm-2.19-12.71a.65.65,0,0,1-.64-.57c-.19-1.65-.36-3.38-.51-5.16a.65.65,0,1,1,1.29-.11c.15,1.77.32,3.49.51,5.12a.65.65,0,0,1-.57.71Zm-1-12.87a.65.65,0,0,1-.64-.62c-.08-1.72-.14-3.45-.19-5.17a.64.64,0,0,1,.62-.66.66.66,0,0,1,.67.62c0,1.72.11,3.43.19,5.15a.65.65,0,0,1-.62.68ZM69.6,285a.64.64,0,0,1-.64-.64c0-.86,0-1.72,0-2.58s0-1.73,0-2.59c0-.36.3-.71.65-.64a.65.65,0,0,1,.64.65c0,.86,0,1.72,0,2.58s0,1.71,0,2.57a.64.64,0,0,1-.64.65Zm.25-12.9h0a.65.65,0,0,1-.61-.68c.1-1.78.23-3.52.38-5.18a.65.65,0,0,1,1.29.12c-.16,1.64-.28,3.37-.38,5.13A.65.65,0,0,1,69.85,272.05Zm1.37-12.83h-.11a.64.64,0,0,1-.53-.74c.29-1.74.62-3.45,1-5.11a.65.65,0,1,1,1.26.29c-.37,1.62-.69,3.32-1,5A.64.64,0,0,1,71.22,259.22Zm3-12.54a.69.69,0,0,1-.2,0,.65.65,0,0,1-.41-.82c.54-1.65,1.15-3.29,1.81-4.88a.65.65,0,0,1,1.2.49c-.65,1.56-1.25,3.18-1.79,4.8A.64.64,0,0,1,74.24,246.68Zm67.59-3.11h-.05a31.54,31.54,0,0,1-5.2-.87.65.65,0,0,1-.46-.79.64.64,0,0,1,.78-.47,29.12,29.12,0,0,0,5,.84.64.64,0,0,1,.59.7A.64.64,0,0,1,141.83,243.57Zm7.7-.47a.65.65,0,0,1-.63-.49.66.66,0,0,1,.47-.78,7,7,0,0,0,2.33-1,5.5,5.5,0,0,0,1.48-1.52.65.65,0,0,1,1.08.71,7.09,7.09,0,0,1-1.82,1.88,8.34,8.34,0,0,1-2.75,1.18A.47.47,0,0,1,149.53,243.1Zm-20-3.11a.73.73,0,0,1-.29-.07,41.61,41.61,0,0,1-4.52-2.65.65.65,0,0,1-.18-.9.65.65,0,0,1,.9-.17,40.59,40.59,0,0,0,4.38,2.56.65.65,0,0,1-.29,1.23Zm-50.08-5.11a.72.72,0,0,1-.32-.08.64.64,0,0,1-.24-.88c.86-1.53,1.79-3,2.75-4.43a.65.65,0,1,1,1.07.73c-1,1.38-1.86,2.83-2.7,4.33A.65.65,0,0,1,79.43,234.88Zm75.6-2a.65.65,0,0,1-.64-.56,19.73,19.73,0,0,0-1.28-4.82.64.64,0,1,1,1.19-.49,20.45,20.45,0,0,1,1.37,5.14.64.64,0,0,1-.56.72Zm-36-.32a.66.66,0,0,1-.45-.18l-1.18-1.18c-.81-.84-1.61-1.73-2.39-2.64a.65.65,0,0,1,1-.84c.76.9,1.55,1.76,2.34,2.58.37.39.76.77,1.15,1.14a.66.66,0,0,1,0,.92A.63.63,0,0,1,119,232.52ZM87,224.44a.65.65,0,0,1-.43-.17.64.64,0,0,1,0-.91,47.63,47.63,0,0,1,3.75-3.65.64.64,0,0,1,.91.06.66.66,0,0,1-.06.91,46.89,46.89,0,0,0-3.65,3.55A.64.64,0,0,1,87,224.44Zm23.91-1.89a.66.66,0,0,1-.54-.29c-.92-1.39-1.83-2.88-2.73-4.43a.65.65,0,0,1,1.12-.65c.88,1.54,1.79,3,2.69,4.36a.66.66,0,0,1-.54,1Zm38.68-1.18a.67.67,0,0,1-.48-.22,28.23,28.23,0,0,0-3.7-3.41.64.64,0,1,1,.78-1,27.72,27.72,0,0,1,3.88,3.57.64.64,0,0,1,0,.91A.63.63,0,0,1,149.56,221.37Zm-52.64-5.09a.65.65,0,0,1-.34-1.2c.67-.4,1.35-.78,2-1.15.85-.44,1.73-.87,2.62-1.26a.63.63,0,0,1,.85.33.65.65,0,0,1-.33.85c-.86.38-1.72.79-2.54,1.23-.67.35-1.33.72-2,1.11A.66.66,0,0,1,96.92,216.28Zm42.23-2.39a.67.67,0,0,1-.28-.06,37.39,37.39,0,0,0-4.73-1.84.65.65,0,0,1,.39-1.23,40.59,40.59,0,0,1,4.89,1.9.65.65,0,0,1-.27,1.23Zm-30.33-2.47a.64.64,0,0,1-.62-.5.65.65,0,0,1,.47-.78,48.05,48.05,0,0,1,5.14-1,.65.65,0,0,1,.73.55.66.66,0,0,1-.56.73,45.93,45.93,0,0,0-5,.94Zm-4.28-.12a.66.66,0,0,1-.58-.36c-.76-1.55-1.49-3.11-2.21-4.68a.64.64,0,1,1,1.17-.54c.72,1.56,1.45,3.12,2.2,4.65a.65.65,0,0,1-.29.87A.72.72,0,0,1,104.54,211.3Zm22.23-.92h-.07l-.22,0c-1.62-.18-3.26-.29-4.87-.32a.64.64,0,0,1-.63-.66.6.6,0,0,1,.66-.63c1.65,0,3.33.14,5,.33l.22,0a.64.64,0,0,1,.56.72A.63.63,0,0,1,126.77,210.38ZM99.19,199.56a.65.65,0,0,1-.59-.39c-.68-1.59-1.35-3.18-2-4.79a.65.65,0,1,1,1.2-.48c.63,1.6,1.29,3.18,2,4.76a.64.64,0,0,1-.34.84A.58.58,0,0,1,99.19,199.56Zm-4.6-12.06a.64.64,0,0,1-.62-.45c-.55-1.71-1-3.39-1.43-5a.64.64,0,0,1,1.25-.31c.4,1.58.87,3.24,1.41,4.92a.64.64,0,0,1-.42.81A.63.63,0,0,1,94.59,187.5Zm-2.85-12.57a.65.65,0,0,1-.64-.57,51.85,51.85,0,0,1-.36-5.21.66.66,0,0,1,.64-.66.61.61,0,0,1,.65.64c0,1.65.15,3.36.35,5.08a.66.66,0,0,1-.56.72Z" style="fill:#50448c"/><g style="clip-path:url(#clip-path)"><path d="M282.57,287.25l-17.35,44.48a11.59,11.59,0,0,0,8,15.47h0a11.59,11.59,0,0,0,13.49-6.83l19.9-48.13S288.87,279.82,282.57,287.25Z" style="fill:url(#Безымянный_градиент_15)"/><path d="M199.06,175l36.7,34.36a167.17,167.17,0,0,0,74.12,40.22l6.86,1.69h0a50.88,50.88,0,0,1-10.11,41h0l-6.86-1.69a167,167,0,0,0-84.32,1.11L167,305Z" style="fill:url(#Безымянный_градиент_29)"/><ellipse cx="183.01" cy="239.99" rx="66.94" ry="12.84" transform="translate(-93.85 360.16) rotate(-76.13)" style="fill:url(#Безымянный_градиент_2)"/><g style="clip-path:url(#clip-path-2)"><path d="M185.55,255.86l6.87,1.7a14.81,14.81,0,0,0,17.92-10.82h0a14.79,14.79,0,0,0-10.82-17.91l-6.88-1.7A14.79,14.79,0,0,0,174.73,238h0A14.8,14.8,0,0,0,185.55,255.86Z" style="fill:url(#Безымянный_градиент_27)"/></g></g><path d="M254.53,147.57a.65.65,0,0,1-.64-.61c-.09-1.71-.21-3.44-.37-5.13a.65.65,0,0,1,1.29-.12c.16,1.71.28,3.45.37,5.18a.65.65,0,0,1-.61.68Zm-1.33-12.84a.64.64,0,0,1-.64-.54c-.27-1.71-.58-3.41-.92-5.05a.66.66,0,0,1,.5-.77.67.67,0,0,1,.77.51c.34,1.66.65,3.38.93,5.11a.64.64,0,0,1-.54.73Zm-158-11.56-.15,0a.65.65,0,0,1-.48-.77c.09-.38.18-.76.28-1.13a.63.63,0,0,1,.78-.47.65.65,0,0,1,.47.79c-.1.36-.19.73-.27,1.1A.65.65,0,0,1,95.15,123.17Zm155.3-1a.64.64,0,0,1-.62-.47c-.46-1.65-1-3.3-1.51-4.91a.64.64,0,0,1,.41-.81.66.66,0,0,1,.82.4c.54,1.63,1,3.3,1.52,5a.64.64,0,0,1-.44.8ZM97.79,114.68a.67.67,0,0,1-.24,0,.65.65,0,0,1-.37-.84c.63-1.6,1.32-3.21,2.08-4.78a.64.64,0,1,1,1.16.56c-.74,1.54-1.42,3.12-2,4.69A.66.66,0,0,1,97.79,114.68Zm148.39-4.74a.63.63,0,0,1-.59-.39c-.68-1.58-1.4-3.14-2.15-4.65a.65.65,0,0,1,.29-.87.63.63,0,0,1,.86.29c.77,1.53,1.5,3.12,2.19,4.72a.65.65,0,0,1-.34.85A.6.6,0,0,1,246.18,109.94Zm-142.6-6.77a.63.63,0,0,1-.34-.1.65.65,0,0,1-.2-.89c.91-1.46,1.9-2.91,2.92-4.31a.64.64,0,0,1,1,.76c-1,1.38-2,2.8-2.87,4.24A.65.65,0,0,1,103.58,103.17Zm136.66-4.68a.63.63,0,0,1-.55-.3c-.91-1.45-1.87-2.88-2.86-4.24A.65.65,0,0,1,237,93a.64.64,0,0,1,.9.15c1,1.38,2,2.84,2.91,4.32a.65.65,0,0,1-.2.89A.72.72,0,0,1,240.24,98.49ZM111.38,92.9a.67.67,0,0,1-.44-.17.65.65,0,0,1,0-.91c1.15-1.28,2.37-2.53,3.62-3.74a.65.65,0,1,1,.9.93c-1.23,1.18-2.43,2.42-3.56,3.68A.66.66,0,0,1,111.38,92.9Zm121.08-4.69A.62.62,0,0,1,232,88c-1.16-1.26-2.37-2.48-3.6-3.62a.65.65,0,0,1,0-.92.64.64,0,0,1,.91,0c1.26,1.17,2.5,2.41,3.68,3.7a.65.65,0,0,1,0,.91A.67.67,0,0,1,232.46,88.21ZM120.81,84.1a.64.64,0,0,1-.4-1.15c1.35-1.07,2.77-2.11,4.19-3.08a.64.64,0,1,1,.73,1.06c-1.4,1-2.79,2-4.12,3A.61.61,0,0,1,120.81,84.1Zm102-4.44a.63.63,0,0,1-.37-.12c-1.38-1-2.83-1.92-4.28-2.77a.64.64,0,0,1,.65-1.11c1.49.87,3,1.82,4.38,2.83a.64.64,0,0,1,.15.9A.64.64,0,0,1,222.83,79.66ZM131.57,77a.64.64,0,0,1-.31-1.21c.53-.29,1.07-.58,1.61-.85,1-.52,2-1,3-1.49a.64.64,0,0,1,.85.31.65.65,0,0,1-.31.86c-1,.47-2,1-3,1.46-.53.28-1.06.56-1.58.85A.7.7,0,0,1,131.57,77Zm80-3.6a.74.74,0,0,1-.25,0c-1.53-.66-3.14-1.27-4.78-1.83a.65.65,0,0,1,.42-1.23c1.67.58,3.31,1.2,4.87,1.87a.65.65,0,0,1,.34.85A.67.67,0,0,1,211.58,73.39Zm-68.23-1.65a.64.64,0,0,1-.22-1.25c1.62-.58,3.28-1.12,5-1.6a.65.65,0,0,1,.36,1.24c-1.64.48-3.28,1-4.88,1.57A.52.52,0,0,1,143.35,71.74Zm56-2.36a.47.47,0,0,1-.16,0c-1.61-.39-3.3-.75-5-1.07a.66.66,0,0,1-.52-.76.64.64,0,0,1,.76-.51c1.73.33,3.44.69,5.08,1.09a.63.63,0,0,1,.47.78A.64.64,0,0,1,199.33,69.38Zm-43.55-1.06a.64.64,0,0,1-.63-.52.65.65,0,0,1,.51-.76c1.68-.33,3.4-.63,5.12-.87a.64.64,0,0,1,.73.54.65.65,0,0,1-.55.74c-1.69.24-3.39.53-5.05.86Zm30.84-1.18h-.07c-1.7-.19-3.42-.35-5.11-.46a.64.64,0,1,1,.08-1.28c1.71.11,3.45.26,5.17.46a.64.64,0,0,1-.07,1.28Zm-18.05-.47a.65.65,0,0,1-.64-.61.64.64,0,0,1,.61-.68c1.71-.11,3.46-.17,5.19-.19a.67.67,0,0,1,.65.64.65.65,0,0,1-.64.65c-1.71,0-3.43.08-5.12.18Z" style="fill:#50448c"/><circle cx="321.67" cy="163.56" r="32.33" transform="translate(108.33 454.61) rotate(-80.71)" style="fill:url(#Безымянный_градиент_21)"/><circle cx="321.67" cy="163.56" r="26.27" transform="translate(-37.96 133.72) rotate(-22.21)" style="fill:url(#Безымянный_градиент_51-2)"/><polygon points="321.67 149.58 326.22 158.78 336.38 160.26 329.02 167.43 330.76 177.54 321.67 172.77 312.59 177.54 314.32 167.43 306.97 160.26 317.13 158.78 321.67 149.58" style="fill:url(#Безымянный_градиент_24)"/><circle cx="252.63" cy="149.58" r="16.75" transform="translate(-31.77 222.45) rotate(-45)" style="fill:url(#Безымянный_градиент_51-3)"/><path d="M252.63,152.64h0a2.32,2.32,0,0,1-2.32-2.32v-8.78a2.32,2.32,0,0,1,2.32-2.32h0a2.32,2.32,0,0,1,2.32,2.32v8.78A2.32,2.32,0,0,1,252.63,152.64Z" style="fill:url(#Безымянный_градиент_24-2)"/><path d="M255,157.61a2.32,2.32,0,1,1-2.32-2.32A2.32,2.32,0,0,1,255,157.61Z" style="fill:url(#Безымянный_градиент_24-3)"/><circle cx="391.39" cy="345.58" r="20.72" transform="translate(-12.69 676.24) rotate(-80.74)" style="fill:url(#Безымянный_градиент_40)"/><circle cx="391.39" cy="345.58" r="17.42" style="fill:url(#Безымянный_градиент_24-4)"/><path d="M393.06,355.22v2.95h-2.63V355.3a12.43,12.43,0,0,1-6.55-2.1l1.45-3.21a10.71,10.71,0,0,0,5.1,1.87v-4.39c-2.92-.71-6.18-1.69-6.18-5.45,0-2.79,2-5.18,6.18-5.65v-2.92h2.63v2.87a11.83,11.83,0,0,1,5.34,1.6l-1.32,3.24a10.68,10.68,0,0,0-4-1.37v4.47c2.92.68,6.13,1.66,6.13,5.36C399.19,352.36,397.19,354.73,393.06,355.22Zm-2.63-11.62v-3.73c-1.39.31-1.95,1.07-1.95,1.94S389.27,343.23,390.43,343.6Zm4.52,6.34c0-.92-.76-1.42-1.89-1.82v3.63C394.37,351.46,395,350.78,395,349.94Z" style="fill:#ffc431"/><circle cx="440.4" cy="195.65" r="28.97" transform="translate(-9.36 368.71) rotate(-45)" style="fill:url(#Безымянный_градиент_40-2)"/><circle cx="440.4" cy="195.65" r="24.36" transform="translate(-9.36 368.71) rotate(-45)" style="fill:url(#Безымянный_градиент_24-5)"/><path d="M449.15,200.27l3.79,3.53c-2.43,3-6.11,4.6-10.59,4.6-6.51,0-11.66-3.68-13.35-9.24h-4.16v-3.09h3.6c0-.33,0-.66,0-1s0-.66,0-1h-3.6V191H429c1.69-5.55,6.84-9.23,13.35-9.23,4.48,0,8.16,1.62,10.59,4.56l-3.79,3.53a8.42,8.42,0,0,0-6.51-3,7.94,7.94,0,0,0-7.28,4.16h9.3v3.09H434.44a12.27,12.27,0,0,0,0,2h10.22v3.09h-9.3a7.94,7.94,0,0,0,7.28,4.16A8.35,8.35,0,0,0,449.15,200.27Z" style="fill:#ffc431"/><circle cx="68.35" cy="290.4" r="28.97" transform="translate(-185.33 133.39) rotate(-45)" style="fill:url(#Безымянный_градиент_40-3)"/><circle cx="68.35" cy="290.4" r="24.36" style="fill:url(#Безымянный_градиент_24-6)"/><path d="M52.68,283.77c0-4.34,2.65-7.1,6.4-7.1s6.36,2.72,6.36,7.1-2.61,7.09-6.36,7.09S52.68,288.11,52.68,283.77Zm9.09,0c0-2.76-1.07-4.09-2.69-4.09S56.4,281,56.4,283.77s1.1,4.08,2.68,4.08S61.77,286.52,61.77,283.77ZM74.42,277H78.8L61.22,302.71H56.84ZM70.19,295.9c0-4.34,2.65-7.1,6.36-7.1s6.4,2.76,6.4,7.1-2.65,7.1-6.4,7.1S70.19,300.24,70.19,295.9Zm9,0c0-2.72-1.07-4.08-2.69-4.08s-2.68,1.32-2.68,4.08S75,300,76.55,300,79.24,298.62,79.24,295.9Z" style="fill:#ffc431"/><path d="M387.85,112h0a19.34,19.34,0,0,0,15.49,15.5h0A19.35,19.35,0,0,0,387.85,143h0a19.35,19.35,0,0,0-15.49-15.49h0A19.34,19.34,0,0,0,387.85,112Z" style="fill:url(#Безымянный_градиент_21-2)"/><path d="M59.48,199.44h0A19.35,19.35,0,0,0,75,214.93h0a19.35,19.35,0,0,0-15.49,15.49h0A19.35,19.35,0,0,0,44,214.93h0a19.35,19.35,0,0,0,15.49-15.49Z" style="fill:url(#Безымянный_градиент_21-3)"/><path d="M363.43,401.54h0A13.19,13.19,0,0,0,374,412.08h0a13.17,13.17,0,0,0-10.54,10.53h0a13.14,13.14,0,0,0-10.53-10.53h0a13.17,13.17,0,0,0,10.53-10.54Z" style="fill:url(#Безымянный_градиент_9-2)"/><path d="M118.49,46.61h0A13.14,13.14,0,0,0,129,57.15h0a13.14,13.14,0,0,0-10.54,10.54h0A13.14,13.14,0,0,0,108,57.15h0a13.14,13.14,0,0,0,10.54-10.54Z" style="fill:url(#Безымянный_градиент_9-3)"/><path d="M398.39,266.92h0a13.14,13.14,0,0,0,10.54,10.54h0A13.14,13.14,0,0,0,398.39,288h0a13.14,13.14,0,0,0-10.54-10.54h0a13.14,13.14,0,0,0,10.54-10.54Z" style="fill:url(#Безымянный_градиент_9-4)"/><path d="M162.16,199.44l-18.33-21.6H64.64A17.67,17.67,0,0,1,47,160.17V123.52a17.67,17.67,0,0,1,17.67-17.67h79.85a17.67,17.67,0,0,1,17.67,17.67Z" style="fill:url(#Безымянный_градиент_8)"/><g style="mix-blend-mode:multiply"><path d="M140.78,122.18H68.35a1.94,1.94,0,1,1,0-3.87h72.43a1.94,1.94,0,0,1,0,3.87Z" style="fill:#f0ebff"/></g><g style="mix-blend-mode:multiply"><path d="M140.78,136.8H68.35a1.94,1.94,0,1,1,0-3.87h72.43a1.94,1.94,0,0,1,0,3.87Z" style="fill:#f0ebff"/></g><g style="mix-blend-mode:multiply"><path d="M140.78,151.42H68.35a1.94,1.94,0,0,1,0-3.88h72.43a1.94,1.94,0,0,1,0,3.88Z" style="fill:#f0ebff"/></g><g style="mix-blend-mode:multiply"><path d="M140.78,166H68.35a1.94,1.94,0,1,1,0-3.87h72.43a1.94,1.94,0,0,1,0,3.87Z" style="fill:#f0ebff"/></g><circle cx="150.14" cy="378.27" r="46.08" transform="translate(-247.38 465.52) rotate(-80.73)" style="fill:url(#Degradado_sin_nombre_3)"/><circle cx="150.14" cy="378.27" r="37.44" transform="translate(-127.17 80.4) rotate(-21.3)" style="fill:url(#Безымянный_градиент_51-4)"/><path d="M161.65,373.9c-9.73-1.76-13.61-8.77-13.91-13.44s-2.09-8.06-5.47-6.37-4.18,11.4-2.19,16.51c-8.65-1.34-16.72-.32-17.51,3.94,8.45,7.46,5.51,16,2.36,20.18,4.11,2.89,22.29,4.39,26.74,3.71s8.13-6.89,12.17-6.72l8.08.34.72-17.26A74.35,74.35,0,0,1,161.65,373.9Z" style="fill:url(#Безымянный_градиент_18)"/><path d="M152.9,385.83c-4.55-1.39-8.26-6.41-9.05-8.36C143.89,381.6,149.16,385.92,152.9,385.83Z" style="fill:#f9e6e1;mix-blend-mode:multiply"/><path d="M130.38,396.55c6.16.79,10.32-.13,11.88-2.34s.27-4.13-1.49-5.37Z" style="fill:#f9e6e1;mix-blend-mode:multiply"/><path d="M139.91,389.42c2.05.49,3.6,4.12-.55,5.8s-11,2.2-14.78-.56c-1.69-1.23-2.13-4.29,2.78-5.41A28.69,28.69,0,0,1,139.91,389.42Z" style="fill:url(#Безымянный_градиент_18-2)"/><path d="M126,391c4,1.1,12,2,15.18-.82s-1.17-6.64-1.17-6.64Z" style="fill:#f9e6e1;mix-blend-mode:multiply"/><path d="M138.93,383.63c2.06.5,4.5,5,.35,6.72s-15.29,1.22-16.41-.54-1.16-4.92,3.75-6A28.34,28.34,0,0,1,138.93,383.63Z" style="fill:url(#Безымянный_градиент_18-3)"/><path d="M140,377.43c2.76,2.72,2.33,5.29,1.58,6.34s-3,3.1-13.58,1.64C128.64,385.32,140,377.43,140,377.43Z" style="fill:#f9e6e1;mix-blend-mode:multiply"/><path d="M138.5,377.49c2.22.52,5,5.89.38,7.22-4.22,1.22-16.15,1.15-17.36-.74s-1.25-5.3,4-6.5A28.55,28.55,0,0,1,138.5,377.49Z" style="fill:url(#Безымянный_градиент_18-4)"/><path d="M140.76,372.85c1.52,2.2,1.61,3.88.77,5s-10.36,2-15,.67Z" style="fill:#f9e6e1;mix-blend-mode:multiply"/><path d="M136.82,370.11c4,.58,7.13,6.83,2.32,7.89-4.34.95-15.24,1.19-16.45-.7s-1.85-5.46,3.43-6.66A25.76,25.76,0,0,1,136.82,370.11Z" style="fill:url(#Безымянный_градиент_18-5)"/><path d="M166.38,374.4c-.31.73-1.77,16.4-.67,17.42s8,.18,8,.18,1.47-16.1,1.05-17.26S167.28,374,166.38,374.4Z" style="fill:url(#Безымянный_градиент_51-5)"/><path d="M169.1,373.39c-.36.83-1.66,18.9-.29,20.11s9.73.46,9.73.46,1.3-18.57.76-19.92S170.18,373,169.1,373.39Z" style="fill:url(#Безымянный_градиент_9-5)"/></g></g></svg>