<svg xmlns="http://www.w3.org/2000/svg" xmlns:xlink="http://www.w3.org/1999/xlink" viewBox="0 0 1199 1192"><defs><style>.cls-1{isolation:isolate;}.cls-2{fill:url(#Áåçûìÿííûé_ãðàäèåíò_109);}.cls-10,.cls-104,.cls-109,.cls-11,.cls-110,.cls-112,.cls-118,.cls-119,.cls-12,.cls-120,.cls-121,.cls-13,.cls-14,.cls-15,.cls-16,.cls-17,.cls-18,.cls-19,.cls-20,.cls-21,.cls-22,.cls-23,.cls-24,.cls-25,.cls-26,.cls-27,.cls-29,.cls-3,.cls-31,.cls-33,.cls-38,.cls-39,.cls-4,.cls-40,.cls-41,.cls-42,.cls-43,.cls-44,.cls-46,.cls-47,.cls-48,.cls-5,.cls-53,.cls-6,.cls-64,.cls-65,.cls-67,.cls-68,.cls-69,.cls-7,.cls-70,.cls-71,.cls-72,.cls-73,.cls-74,.cls-75,.cls-76,.cls-77,.cls-78,.cls-8,.cls-87,.cls-89,.cls-9,.cls-90,.cls-99{fill-rule:evenodd;}.cls-3{fill:url(#Áåçûìÿííûé_ãðàäèåíò_118);}.cls-4{fill:url(#Áåçûìÿííûé_ãðàäèåíò_118-2);}.cls-5{fill:url(#Áåçûìÿííûé_ãðàäèåíò_118-3);}.cls-6{fill:url(#Áåçûìÿííûé_ãðàäèåíò_51);}.cls-7{fill:url(#Áåçûìÿííûé_ãðàäèåíò_47);}.cls-8{fill:url(#Áåçûìÿííûé_ãðàäèåíò_24);}.cls-9{fill:url(#Áåçûìÿííûé_ãðàäèåíò_41);}.cls-10{fill:url(#Áåçûìÿííûé_ãðàäèåíò_24-2);}.cls-11{fill:url(#Áåçûìÿííûé_ãðàäèåíò_41-2);}.cls-12{fill:url(#Áåçûìÿííûé_ãðàäèåíò_24-3);}.cls-13{fill:url(#Áåçûìÿííûé_ãðàäèåíò_41-3);}.cls-14{fill:url(#Áåçûìÿííûé_ãðàäèåíò_24-4);}.cls-15{fill:url(#Áåçûìÿííûé_ãðàäèåíò_24-5);}.cls-16{fill:url(#Áåçûìÿííûé_ãðàäèåíò_41-4);}.cls-17{fill:url(#Áåçûìÿííûé_ãðàäèåíò_24-6);}.cls-18{fill:url(#Áåçûìÿííûé_ãðàäèåíò_24-7);}.cls-19{fill:url(#Áåçûìÿííûé_ãðàäèåíò_24-8);}.cls-20{fill:url(#Áåçûìÿííûé_ãðàäèåíò_24-9);}.cls-21{fill:url(#Áåçûìÿííûé_ãðàäèåíò_24-10);}.cls-22{fill:url(#Áåçûìÿííûé_ãðàäèåíò_24-11);}.cls-23{fill:url(#Áåçûìÿííûé_ãðàäèåíò_41-5);}.cls-24{fill:url(#Áåçûìÿííûé_ãðàäèåíò_35);}.cls-25{fill:url(#Áåçûìÿííûé_ãðàäèåíò_24-12);}.cls-26{fill:url(#Áåçûìÿííûé_ãðàäèåíò_41-6);}.cls-112,.cls-27{fill:#ad8faa;}.cls-27,.cls-37,.cls-49,.cls-50,.cls-51,.cls-91,.cls-92,.cls-95{opacity:0.8;}.cls-100,.cls-101,.cls-112,.cls-27,.cls-28,.cls-30,.cls-32,.cls-34,.cls-35,.cls-36,.cls-37,.cls-45,.cls-49,.cls-50,.cls-51,.cls-52,.cls-56,.cls-57,.cls-58,.cls-72,.cls-79,.cls-80,.cls-81,.cls-82,.cls-83,.cls-88,.cls-91,.cls-92,.cls-95,.cls-98,.cls-99{mix-blend-mode:multiply;}.cls-28,.cls-34,.cls-35,.cls-36,.cls-45,.cls-52,.cls-79,.cls-80,.cls-81,.cls-82,.cls-83,.cls-88,.cls-98,.cls-99{opacity:0.91;}.cls-28{fill:url(#Áåçûìÿííûé_ãðàäèåíò_73);}.cls-29{fill:url(#Áåçûìÿííûé_ãðàäèåíò_133);}.cls-30{fill:url(#Áåçûìÿííûé_ãðàäèåíò_73-2);}.cls-31{fill:url(#Áåçûìÿííûé_ãðàäèåíò_133-2);}.cls-32{fill:url(#Áåçûìÿííûé_ãðàäèåíò_73-3);}.cls-33{fill:url(#Áåçûìÿííûé_ãðàäèåíò_40);}.cls-34{fill:url(#Áåçûìÿííûé_ãðàäèåíò_73-4);}.cls-35{fill:url(#Áåçûìÿííûé_ãðàäèåíò_73-5);}.cls-36{fill:url(#Áåçûìÿííûé_ãðàäèåíò_73-6);}.cls-37{fill:url(#Áåçûìÿííûé_ãðàäèåíò_153);}.cls-38{fill:url(#Áåçûìÿííûé_ãðàäèåíò_68);}.cls-39{fill:url(#Áåçûìÿííûé_ãðàäèåíò_93);}.cls-40{fill:#b63d27;}.cls-41{fill:url(#Áåçûìÿííûé_ãðàäèåíò_26);}.cls-42{fill:url(#Áåçûìÿííûé_ãðàäèåíò_26-2);}.cls-43{fill:url(#Áåçûìÿííûé_ãðàäèåíò_93-2);}.cls-44{fill:url(#Áåçûìÿííûé_ãðàäèåíò_184);}.cls-45,.cls-99{fill:#945c9e;}.cls-46{fill:url(#Áåçûìÿííûé_ãðàäèåíò_184-2);}.cls-47{fill:#d2726c;}.cls-48{fill:url(#Áåçûìÿííûé_ãðàäèåíò_40-2);}.cls-49{fill:url(#Áåçûìÿííûé_ãðàäèåíò_153-2);}.cls-50{fill:url(#Áåçûìÿííûé_ãðàäèåíò_285);}.cls-51{fill:url(#Áåçûìÿííûé_ãðàäèåíò_285-2);}.cls-52{fill:url(#Áåçûìÿííûé_ãðàäèåíò_73-7);}.cls-53{fill:url(#Áåçûìÿííûé_ãðàäèåíò_16);}.cls-54{fill:url(#Áåçûìÿííûé_ãðàäèåíò_145);}.cls-55{fill:url(#Áåçûìÿííûé_ãðàäèåíò_145-2);}.cls-107,.cls-56,.cls-57,.cls-58{opacity:0.5;}.cls-56{fill:url(#Áåçûìÿííûé_ãðàäèåíò_2);}.cls-57{fill:url(#Áåçûìÿííûé_ãðàäèåíò_2-2);}.cls-58{fill:url(#Áåçûìÿííûé_ãðàäèåíò_2-3);}.cls-59{fill:url(#Áåçûìÿííûé_ãðàäèåíò_145-3);}.cls-60{fill:url(#Áåçûìÿííûé_ãðàäèåíò_145-4);}.cls-61{fill:url(#Áåçûìÿííûé_ãðàäèåíò_151);}.cls-62{fill:url(#Áåçûìÿííûé_ãðàäèåíò_152);}.cls-102,.cls-103,.cls-105,.cls-106,.cls-108,.cls-63,.cls-75,.cls-77,.cls-78,.cls-85,.cls-86,.cls-96,.cls-97{opacity:0.7;}.cls-102,.cls-103,.cls-105,.cls-106,.cls-107,.cls-108,.cls-63,.cls-75,.cls-77,.cls-78,.cls-84,.cls-85,.cls-86,.cls-93,.cls-94,.cls-96,.cls-97{mix-blend-mode:screen;}.cls-63{fill:url(#Áåçûìÿííûé_ãðàäèåíò_179);}.cls-64{fill:url(#Áåçûìÿííûé_ãðàäèåíò_33);}.cls-65{fill:url(#Áåçûìÿííûé_ãðàäèåíò_77);}.cls-66{fill:url(#Áåçûìÿííûé_ãðàäèåíò_153-3);}.cls-67{fill:url(#Áåçûìÿííûé_ãðàäèåíò_68-2);}.cls-68{fill:url(#Áåçûìÿííûé_ãðàäèåíò_132);}.cls-69{fill:url(#Áåçûìÿííûé_ãðàäèåíò_124);}.cls-70{fill:#51192b;}.cls-71{fill:#4b1124;}.cls-72{fill:#9b2464;opacity:0.6;}.cls-73{fill:url(#Áåçûìÿííûé_ãðàäèåíò_133-3);}.cls-74{fill:#76578a;}.cls-111,.cls-75{fill:#fff;}.cls-76{fill:url(#Áåçûìÿííûé_ãðàäèåíò_133-4);}.cls-77{fill:url(#Áåçûìÿííûé_ãðàäèåíò_179-2);}.cls-78{fill:url(#Áåçûìÿííûé_ãðàäèåíò_179-3);}.cls-79{fill:url(#Áåçûìÿííûé_ãðàäèåíò_73-8);}.cls-80{fill:url(#Áåçûìÿííûé_ãðàäèåíò_73-9);}.cls-81{fill:url(#Áåçûìÿííûé_ãðàäèåíò_73-10);}.cls-82{fill:#94789d;}.cls-83{fill:url(#Áåçûìÿííûé_ãðàäèåíò_73-11);}.cls-84{opacity:0.33;fill:url(#Áåçûìÿííûé_ãðàäèåíò_167);}.cls-85{fill:url(#Áåçûìÿííûé_ãðàäèåíò_172);}.cls-86{fill:url(#Áåçûìÿííûé_ãðàäèåíò_172-2);}.cls-87{fill:url(#Áåçûìÿííûé_ãðàäèåíò_177);}.cls-88{fill:url(#Áåçûìÿííûé_ãðàäèåíò_73-12);}.cls-89{fill:url(#Áåçûìÿííûé_ãðàäèåíò_68-3);}.cls-90{fill:url(#Áåçûìÿííûé_ãðàäèåíò_84);}.cls-91{fill:url(#Áåçûìÿííûé_ãðàäèåíò_153-4);}.cls-92{fill:url(#Áåçûìÿííûé_ãðàäèåíò_153-5);}.cls-93{opacity:0.2;fill:url(#Áåçûìÿííûé_ãðàäèåíò_176);}.cls-112,.cls-94{opacity:0.4;}.cls-94{fill:url(#Áåçûìÿííûé_ãðàäèåíò_163);}.cls-95{fill:url(#Áåçûìÿííûé_ãðàäèåíò_153-6);}.cls-96{fill:url(#Áåçûìÿííûé_ãðàäèåíò_179-4);}.cls-97{fill:url(#Áåçûìÿííûé_ãðàäèåíò_179-5);}.cls-98{fill:url(#Áåçûìÿííûé_ãðàäèåíò_73-13);}.cls-100{fill:url(#Áåçûìÿííûé_ãðàäèåíò_73-14);}.cls-101{fill:url(#Áåçûìÿííûé_ãðàäèåíò_73-15);}.cls-102{fill:url(#Áåçûìÿííûé_ãðàäèåíò_179-6);}.cls-103{fill:url(#Áåçûìÿííûé_ãðàäèåíò_179-7);}.cls-104{fill:url(#Áåçûìÿííûé_ãðàäèåíò_201);}.cls-105{fill:url(#Áåçûìÿííûé_ãðàäèåíò_179-8);}.cls-106{fill:url(#Áåçûìÿííûé_ãðàäèåíò_208);}.cls-107{fill:url(#Áåçûìÿííûé_ãðàäèåíò_210);}.cls-108{fill:url(#Áåçûìÿííûé_ãðàäèåíò_210-2);}.cls-109{fill:#633741;}.cls-110{fill:url(#Áåçûìÿííûé_ãðàäèåíò_123);}.cls-113{fill:#7a5a8b;}.cls-114{fill:url(#Áåçûìÿííûé_ãðàäèåíò_123-2);}.cls-115{fill:url(#Áåçûìÿííûé_ãðàäèåíò_123-3);}.cls-116{fill:url(#Áåçûìÿííûé_ãðàäèåíò_123-4);}.cls-117{fill:url(#Áåçûìÿííûé_ãðàäèåíò_123-5);}.cls-118{fill:url(#Áåçûìÿííûé_ãðàäèåíò_123-6);}.cls-119{fill:url(#Áåçûìÿííûé_ãðàäèåíò_123-7);}.cls-120{fill:url(#Áåçûìÿííûé_ãðàäèåíò_170);}.cls-121{fill:url(#Áåçûìÿííûé_ãðàäèåíò_170-2);}</style><radialGradient id="Áåçûìÿííûé_ãðàäèåíò_109" cx="526.08" cy="479" r="271.74" gradientTransform="translate(-277.64 -243.28) scale(1.46 1.46)" gradientUnits="userSpaceOnUse"><stop offset="0" stop-color="#a8d8d9"/><stop offset="0.98" stop-color="#82cff4"/></radialGradient><linearGradient id="Áåçûìÿííûé_ãðàäèåíò_118" x1="503.81" y1="405.41" x2="503.81" y2="297.88" gradientUnits="userSpaceOnUse"><stop offset="0.02" stop-color="#f0ecf4"/><stop offset="1" stop-color="#fff"/></linearGradient><linearGradient id="Áåçûìÿííûé_ãðàäèåíò_118-2" x1="166.57" y1="398.68" x2="239.55" y2="398.68" xlink:href="#Áåçûìÿííûé_ãðàäèåíò_118"/><linearGradient id="Áåçûìÿííûé_ãðàäèåíò_118-3" x1="745.93" y1="241.57" x2="745.93" y2="170.17" xlink:href="#Áåçûìÿííûé_ãðàäèåíò_118"/><linearGradient id="Áåçûìÿííûé_ãðàäèåíò_51" x1="415.06" y1="646.47" x2="415.06" y2="262.58" gradientTransform="matrix(-1, 0, 0, 1, 1255.95, 0)" gradientUnits="userSpaceOnUse"><stop offset="0.02" stop-color="#8c75b2"/><stop offset="1" stop-color="#dcd8e9"/></linearGradient><linearGradient id="Áåçûìÿííûé_ãðàäèåíò_47" x1="423.53" y1="987.89" x2="423.53" y2="362.23" gradientTransform="matrix(-1, 0, 0, 1, 1255.95, 0)" gradientUnits="userSpaceOnUse"><stop offset="0.02" stop-color="#8269ab"/><stop offset="1" stop-color="#aaa1ca"/></linearGradient><linearGradient id="Áåçûìÿííûé_ãðàäèåíò_24" x1="5" y1="1004.5" x2="1196" y2="1004.5" gradientUnits="userSpaceOnUse"><stop offset="0" stop-color="#948abc"/><stop offset="0.98" stop-color="#b7a9cf"/></linearGradient><linearGradient id="Áåçûìÿííûé_ãðàäèåíò_41" x1="59.95" y1="926.92" x2="1250.95" y2="926.92" gradientTransform="matrix(-1, 0, 0, 1, 1255.95, 0)" gradientUnits="userSpaceOnUse"><stop offset="0.02" stop-color="#d8cfe4"/><stop offset="1" stop-color="#f5f4f9"/></linearGradient><linearGradient id="Áåçûìÿííûé_ãðàäèåíò_24-2" x1="140.29" y1="879.03" x2="1061.13" y2="879.03" xlink:href="#Áåçûìÿííûé_ãðàäèåíò_24"/><linearGradient id="Áåçûìÿííûé_ãðàäèåíò_41-2" x1="194.81" y1="836.4" x2="1115.65" y2="836.4" xlink:href="#Áåçûìÿííûé_ãðàäèåíò_41"/><linearGradient id="Áåçûìÿííûé_ãðàäèåíò_24-3" x1="225.81" y1="804.49" x2="983.85" y2="804.49" xlink:href="#Áåçûìÿííûé_ãðàäèåíò_24"/><linearGradient id="Áåçûìÿííûé_ãðàäèåíò_41-3" x1="272.1" y1="781.92" x2="1030.14" y2="781.92" xlink:href="#Áåçûìÿííûé_ãðàäèåíò_41"/><linearGradient id="Áåçûìÿííûé_ãðàäèåíò_24-4" x1="278.2" y1="761.12" x2="924.89" y2="761.12" xlink:href="#Áåçûìÿííûé_ãðàäèåíò_24"/><linearGradient id="Áåçûìÿííûé_ãðàäèåíò_24-5" x1="318.41" y1="729.05" x2="892.67" y2="729.05" xlink:href="#Áåçûìÿííûé_ãðàäèåíò_24"/><linearGradient id="Áåçûìÿííûé_ãðàäèåíò_41-4" x1="363.28" y1="716.56" x2="937.54" y2="716.56" xlink:href="#Áåçûìÿííûé_ãðàäèåíò_41"/><linearGradient id="Áåçûìÿííûé_ãðàäèåíò_24-6" x1="689.1" y1="974.64" x2="637.02" y2="586.27" gradientTransform="matrix(-1, 0, 0, 1, 1255.95, 0)" xlink:href="#Áåçûìÿííûé_ãðàäèåíò_24"/><linearGradient id="Áåçûìÿííûé_ãðàäèåíò_24-7" x1="692.88" y1="985.04" x2="638.14" y2="576.87" gradientTransform="matrix(-1, 0, 0, 1, 1255.95, 0)" xlink:href="#Áåçûìÿííûé_ãðàäèåíò_24"/><linearGradient id="Áåçûìÿííûé_ãðàäèåíò_24-8" x1="690.89" y1="982.4" x2="636.21" y2="574.65" gradientTransform="matrix(-1, 0, 0, 1, 1255.95, 0)" xlink:href="#Áåçûìÿííûé_ãðàäèåíò_24"/><linearGradient id="Áåçûìÿííûé_ãðàäèåíò_24-9" x1="695.77" y1="977.82" x2="641.5" y2="573.08" gradientTransform="matrix(-1, 0, 0, 1, 1255.95, 0)" xlink:href="#Áåçûìÿííûé_ãðàäèåíò_24"/><linearGradient id="Áåçûìÿííûé_ãðàäèåíò_24-10" x1="694.74" y1="968.05" x2="641.79" y2="573.21" gradientTransform="matrix(-1, 0, 0, 1, 1255.95, 0)" xlink:href="#Áåçûìÿííûé_ãðàäèåíò_24"/><linearGradient id="Áåçûìÿííûé_ãðàäèåíò_24-11" x1="697.98" y1="977.65" x2="643.21" y2="569.24" gradientTransform="matrix(-1, 0, 0, 1, 1255.95, 0)" xlink:href="#Áåçûìÿííûé_ãðàäèåíò_24"/><linearGradient id="Áåçûìÿííûé_ãðàäèåíò_41-5" x1="396.98" y1="691.29" x2="908.94" y2="691.29" xlink:href="#Áåçûìÿííûé_ãðàäèåíò_41"/><linearGradient id="Áåçûìÿííûé_ãðàäèåíò_35" x1="547.26" y1="581.17" x2="547.26" y2="269.65" gradientTransform="matrix(-1, 0, 0, 1, 1255.95, 0)" gradientUnits="userSpaceOnUse"><stop offset="0" stop-color="#b3a5c9"/><stop offset="0.98" stop-color="#fefefe"/></linearGradient><linearGradient id="Áåçûìÿííûé_ãðàäèåíò_24-12" x1="704.66" y1="1004.99" x2="645.61" y2="564.64" gradientTransform="matrix(-1, 0, 0, 1, 1255.95, 0)" xlink:href="#Áåçûìÿííûé_ãðàäèåíò_24"/><linearGradient id="Áåçûìÿííûé_ãðàäèåíò_41-6" x1="331.14" y1="742.65" x2="977.75" y2="742.65" xlink:href="#Áåçûìÿííûé_ãðàäèåíò_41"/><linearGradient id="Áåçûìÿííûé_ãðàäèåíò_73" x1="217.83" y1="703.71" x2="469.89" y2="703.71" gradientUnits="userSpaceOnUse"><stop offset="0.02" stop-color="#cda2cb"/><stop offset="0.99" stop-color="#bb8abd"/></linearGradient><linearGradient id="Áåçûìÿííûé_ãðàäèåíò_133" x1="409.45" y1="743.23" x2="409.45" y2="705.28" gradientUnits="userSpaceOnUse"><stop offset="0" stop-color="#afa8c2"/><stop offset="0.98" stop-color="#8c75b2"/></linearGradient><linearGradient id="Áåçûìÿííûé_ãðàäèåíò_73-2" x1="393.93" y1="725.14" x2="423.78" y2="725.14" xlink:href="#Áåçûìÿííûé_ãðàäèåíò_73"/><linearGradient id="Áåçûìÿííûé_ãðàäèåíò_133-2" x1="230.6" y1="909.72" x2="230.6" y2="868.43" xlink:href="#Áåçûìÿííûé_ãðàäèåíò_133"/><linearGradient id="Áåçûìÿííûé_ãðàäèåíò_73-3" x1="216.01" y1="889.08" x2="245.18" y2="889.08" xlink:href="#Áåçûìÿííûé_ãðàäèåíò_73"/><linearGradient id="Áåçûìÿííûé_ãðàäèåíò_40" x1="407.85" y1="477.24" x2="407.85" y2="427.28" gradientUnits="userSpaceOnUse"><stop offset="0.02" stop-color="#f49e7c"/><stop offset="1" stop-color="#f7af70"/></linearGradient><linearGradient id="Áåçûìÿííûé_ãðàäèåíò_73-4" x1="378.24" y1="475.1" x2="382.23" y2="452.46" xlink:href="#Áåçûìÿííûé_ãðàäèåíò_73"/><linearGradient id="Áåçûìÿííûé_ãðàäèåíò_73-5" x1="424.97" y1="444.95" x2="426.68" y2="435.26" xlink:href="#Áåçûìÿííûé_ãðàäèåíò_73"/><linearGradient id="Áåçûìÿííûé_ãðàäèåíò_73-6" x1="429.24" y1="449.51" x2="430.49" y2="442.4" xlink:href="#Áåçûìÿííûé_ãðàäèåíò_73"/><linearGradient id="Áåçûìÿííûé_ãðàäèåíò_153" x1="400.51" y1="477.77" x2="408.96" y2="429.87" gradientUnits="userSpaceOnUse"><stop offset="0.01" stop-color="#8667aa"/><stop offset="1" stop-color="#fde9dc"/></linearGradient><linearGradient id="Áåçûìÿííûé_ãðàäèåíò_68" x1="379.84" y1="466.52" x2="379.84" y2="439.62" gradientTransform="translate(-35.08 38.77) rotate(-3.85)" gradientUnits="userSpaceOnUse"><stop offset="0.02" stop-color="#e1dbeb"/><stop offset="0.16" stop-color="#e6e1ef"/><stop offset="0.55" stop-color="#f0ebf6"/><stop offset="1" stop-color="#f3eff8"/></linearGradient><radialGradient id="Áåçûìÿííûé_ãðàäèåíò_93" cx="437.73" cy="474.39" r="9.67" gradientTransform="matrix(1.46, -0.1, 0.1, 1.46, -328.89, -186.65)" gradientUnits="userSpaceOnUse"><stop offset="0" stop-color="#4c3273"/><stop offset="0.99" stop-color="#442460"/></radialGradient><linearGradient id="Áåçûìÿííûé_ãðàäèåíò_26" x1="430.76" y1="778.36" x2="430.76" y2="752.85" gradientUnits="userSpaceOnUse"><stop offset="0" stop-color="#fab72e"/><stop offset="1" stop-color="#ed6b30"/></linearGradient><linearGradient id="Áåçûìÿííûé_ãðàäèåíò_26-2" x1="253.76" y1="953.17" x2="253.76" y2="918.52" xlink:href="#Áåçûìÿííûé_ãðàäèåíò_26"/><radialGradient id="Áåçûìÿííûé_ãðàäèåíò_93-2" cx="369.21" cy="605.59" r="102.52" gradientTransform="translate(-277.64 -243.28) scale(1.46 1.46)" xlink:href="#Áåçûìÿííûé_ãðàäèåíò_93"/><linearGradient id="Áåçûìÿííûé_ãðàäèåíò_184" x1="212.36" y1="917.3" x2="293.84" y2="917.3" gradientUnits="userSpaceOnUse"><stop offset="0.01" stop-color="#581034"/><stop offset="1" stop-color="#8e4214"/></linearGradient><linearGradient id="Áåçûìÿííûé_ãðàäèåíò_184-2" x1="388.07" y1="748.85" x2="473.09" y2="748.85" xlink:href="#Áåçûìÿííûé_ãðàäèåíò_184"/><linearGradient id="Áåçûìÿííûé_ãðàäèåíò_40-2" x1="343.21" y1="335.46" x2="343.21" y2="226.84" xlink:href="#Áåçûìÿííûé_ãðàäèåíò_40"/><linearGradient id="Áåçûìÿííûé_ãðàäèåíò_153-2" x1="341.85" y1="332.37" x2="341.85" y2="273.9" xlink:href="#Áåçûìÿííûé_ãðàäèåíò_153"/><linearGradient id="Áåçûìÿííûé_ãðàäèåíò_285" x1="375.74" y1="289.85" x2="382.57" y2="251.08" gradientUnits="userSpaceOnUse"><stop offset="0" stop-color="#fde9dc"/><stop offset="0.99" stop-color="#8667aa"/></linearGradient><linearGradient id="Áåçûìÿííûé_ãðàäèåíò_285-2" x1="362.76" y1="298.38" x2="366.33" y2="278.13" xlink:href="#Áåçûìÿííûé_ãðàäèåíò_285"/><linearGradient id="Áåçûìÿííûé_ãðàäèåíò_73-7" x1="336.17" y1="326.17" x2="342.52" y2="290.11" xlink:href="#Áåçûìÿííûé_ãðàäèåíò_73"/><linearGradient id="Áåçûìÿííûé_ãðàäèåíò_16" x1="341.45" y1="308.19" x2="341.45" y2="218.79" gradientUnits="userSpaceOnUse"><stop offset="0.01" stop-color="#721d3b"/><stop offset="1" stop-color="#a73724"/></linearGradient><linearGradient id="Áåçûìÿííûé_ãðàäèåíò_145" x1="362.21" y1="280.77" x2="366.7" y2="255.33" gradientUnits="userSpaceOnUse"><stop offset="0.01" stop-color="#b03539"/><stop offset="0.99" stop-color="#e06e31"/></linearGradient><linearGradient id="Áåçûìÿííûé_ãðàäèåíò_145-2" x1="371.36" y1="264.71" x2="373.76" y2="251.12" xlink:href="#Áåçûìÿííûé_ãðàäèåíò_145"/><linearGradient id="Áåçûìÿííûé_ãðàäèåíò_2" x1="357.18" y1="228.21" x2="358.79" y2="219.07" gradientUnits="userSpaceOnUse"><stop offset="0.01" stop-color="#bf6988"/><stop offset="1" stop-color="#7f7cba"/></linearGradient><linearGradient id="Áåçûìÿííûé_ãðàäèåíò_2-2" x1="332.55" y1="311.72" x2="347.1" y2="229.21" xlink:href="#Áåçûìÿííûé_ãðàäèåíò_2"/><linearGradient id="Áåçûìÿííûé_ãðàäèåíò_2-3" x1="347.87" y1="237.32" x2="349.23" y2="229.6" xlink:href="#Áåçûìÿííûé_ãðàäèåíò_2"/><linearGradient id="Áåçûìÿííûé_ãðàäèåíò_145-3" x1="355.77" y1="237.04" x2="388.07" y2="237.04" xlink:href="#Áåçûìÿííûé_ãðàäèåíò_145"/><linearGradient id="Áåçûìÿííûé_ãðàäèåíò_145-4" x1="333.25" y1="224.26" x2="357.28" y2="224.26" xlink:href="#Áåçûìÿííûé_ãðàäèåíò_145"/><linearGradient id="Áåçûìÿííûé_ãðàäèåíò_151" x1="358.15" y1="257.72" x2="362.17" y2="234.91" gradientUnits="userSpaceOnUse"><stop offset="0.01" stop-color="#b03539"/><stop offset="0.99" stop-color="#b65031"/></linearGradient><linearGradient id="Áåçûìÿííûé_ãðàäèåíò_152" x1="308.05" y1="248.83" x2="311.39" y2="229.87" gradientUnits="userSpaceOnUse"><stop offset="0.01" stop-color="#e06e31"/><stop offset="0.99" stop-color="#b03539"/></linearGradient><linearGradient id="Áåçûìÿííûé_ãðàäèåíò_179" x1="355.77" y1="244.91" x2="388.55" y2="244.91" gradientUnits="userSpaceOnUse"><stop offset="0" stop-color="#010101"/><stop offset="0.27" stop-color="#2a454c"/><stop offset="0.53" stop-color="#4c7f8c"/><stop offset="0.74" stop-color="#65a8b9"/><stop offset="0.91" stop-color="#74c2d6"/><stop offset="1" stop-color="#7acbe0"/></linearGradient><radialGradient id="Áåçûìÿííûé_ãðàäèåíò_33" cx="366.11" cy="539.73" r="14.95" gradientTransform="translate(-277.64 -243.28) scale(1.46 1.46)" xlink:href="#Áåçûìÿííûé_ãðàäèåíò_133"/><radialGradient id="Áåçûìÿííûé_ãðàäèåíò_77" cx="370.01" cy="439.25" r="67.46" gradientTransform="translate(-277.64 -243.28) scale(1.46 1.46)" gradientUnits="userSpaceOnUse"><stop offset="0" stop-color="#543d7a"/><stop offset="0.99" stop-color="#442460"/></radialGradient><linearGradient id="Áåçûìÿííûé_ãðàäèåíò_153-3" x1="265.58" y1="545.46" x2="303.24" y2="331.89" xlink:href="#Áåçûìÿííûé_ãðàäèåíò_153"/><linearGradient id="Áåçûìÿííûé_ãðàäèåíò_68-2" x1="326.1" y1="327.29" x2="326.1" y2="318.91" gradientTransform="matrix(1, 0, 0, 1, 0, 0)" xlink:href="#Áåçûìÿííûé_ãðàäèåíò_68"/><linearGradient id="Áåçûìÿííûé_ãðàäèåíò_132" x1="199.05" y1="646.5" x2="372.91" y2="646.5" gradientTransform="matrix(1, -0.07, 0.07, 1, -39.96, 35.43)" gradientUnits="userSpaceOnUse"><stop offset="0.01" stop-color="#581034"/><stop offset="1" stop-color="#8a3313"/></linearGradient><linearGradient id="Áåçûìÿííûé_ãðàäèåíò_124" x1="236.22" y1="595.35" x2="372.91" y2="595.35" gradientTransform="matrix(1, -0.07, 0.07, 1, -39.96, 35.43)" gradientUnits="userSpaceOnUse"><stop offset="0" stop-color="#8e4214"/><stop offset="0.99" stop-color="#cc5b33"/></linearGradient><linearGradient id="Áåçûìÿííûé_ãðàäèåíò_133-3" x1="315.7" y1="679.36" x2="315.7" y2="660.07" xlink:href="#Áåçûìÿííûé_ãðàäèåíò_133"/><linearGradient id="Áåçûìÿííûé_ãðàäèåíò_133-4" x1="304.41" y1="705.73" x2="304.41" y2="692.6" xlink:href="#Áåçûìÿííûé_ãðàäèåíò_133"/><linearGradient id="Áåçûìÿííûé_ãðàäèåíò_179-2" x1="343.52" y1="645.5" x2="372.75" y2="645.5" xlink:href="#Áåçûìÿííûé_ãðàäèåíò_179"/><linearGradient id="Áåçûìÿííûé_ãðàäèåíò_179-3" x1="332.27" y1="702.62" x2="357.07" y2="702.62" xlink:href="#Áåçûìÿííûé_ãðàäèåíò_179"/><linearGradient id="Áåçûìÿííûé_ãðàäèåíò_73-8" x1="361.47" y1="410.8" x2="362.02" y2="407.67" xlink:href="#Áåçûìÿííûé_ãðàäèåíò_73"/><linearGradient id="Áåçûìÿííûé_ãðàäèåíò_73-9" x1="293.99" y1="575.65" x2="333.71" y2="350.38" xlink:href="#Áåçûìÿííûé_ãðàäèåíò_73"/><linearGradient id="Áåçûìÿííûé_ãðàäèåíò_73-10" x1="309.81" y1="357.27" x2="316.54" y2="319.09" xlink:href="#Áåçûìÿííûé_ãðàäèåíò_73"/><linearGradient id="Áåçûìÿííûé_ãðàäèåíò_73-11" x1="408.26" y1="588.19" x2="457.24" y2="588.19" xlink:href="#Áåçûìÿííûé_ãðàäèåíò_73"/><linearGradient id="Áåçûìÿííûé_ãðàäèåíò_167" x1="348.43" y1="538.55" x2="472.67" y2="538.55" gradientUnits="userSpaceOnUse"><stop offset="0" stop-color="#010101"/><stop offset="0.24" stop-color="#313341"/><stop offset="0.51" stop-color="#5f6480"/><stop offset="0.73" stop-color="#8188ad"/><stop offset="0.9" stop-color="#969eca"/><stop offset="1" stop-color="#9ea6d4"/></linearGradient><linearGradient id="Áåçûìÿííûé_ãðàäèåíò_172" x1="265.96" y1="870.52" x2="265.96" y2="742.92" gradientUnits="userSpaceOnUse"><stop offset="0" stop-color="#7acbe0"/><stop offset="0.09" stop-color="#74c2d6"/><stop offset="0.26" stop-color="#65a8b9"/><stop offset="0.47" stop-color="#4c7f8c"/><stop offset="0.73" stop-color="#2a454c"/><stop offset="1" stop-color="#010101"/></linearGradient><linearGradient id="Áåçûìÿííûé_ãðàäèåíò_172-2" x1="459.2" y1="686.11" x2="459.2" y2="552.42" xlink:href="#Áåçûìÿííûé_ãðàäèåíò_172"/><linearGradient id="Áåçûìÿííûé_ãðàäèåíò_177" x1="317.52" y1="595.46" x2="317.52" y2="552.46" gradientUnits="userSpaceOnUse"><stop offset="0" stop-color="#f0867d"/><stop offset="0.98" stop-color="#f49d6b"/></linearGradient><linearGradient id="Áåçûìÿííûé_ãðàäèåíò_73-12" x1="313.45" y1="596.52" x2="320.86" y2="554.46" xlink:href="#Áåçûìÿííûé_ãðàäèåíò_73"/><linearGradient id="Áåçûìÿííûé_ãðàäèåíò_68-3" x1="316.38" y1="558.13" x2="316.38" y2="551.71" gradientTransform="matrix(1, 0, 0, 1, 0, 0)" xlink:href="#Áåçûìÿííûé_ãðàäèåíò_68"/><linearGradient id="Áåçûìÿííûé_ãðàäèåíò_84" x1="346.56" y1="556.46" x2="346.56" y2="330.44" gradientUnits="userSpaceOnUse"><stop offset="0" stop-color="#664f86"/><stop offset="0.99" stop-color="#4b2b67"/></linearGradient><linearGradient id="Áåçûìÿííûé_ãðàäèåíò_153-4" x1="325.19" y1="548.21" x2="343.22" y2="445.95" xlink:href="#Áåçûìÿííûé_ãðàäèåíò_153"/><linearGradient id="Áåçûìÿííûé_ãðàäèåíò_153-5" x1="325.53" y1="548.27" x2="334.81" y2="495.61" xlink:href="#Áåçûìÿííûé_ãðàäèåíò_153"/><linearGradient id="Áåçûìÿííûé_ãðàäèåíò_176" x1="317.51" y1="382.62" x2="400.17" y2="382.62" gradientUnits="userSpaceOnUse"><stop offset="0" stop-color="#010101"/><stop offset="0.26" stop-color="#294348"/><stop offset="0.52" stop-color="#4c7d88"/><stop offset="0.74" stop-color="#66a7b5"/><stop offset="0.9" stop-color="#75c0d2"/><stop offset="1" stop-color="#7bcadc"/></linearGradient><linearGradient id="Áåçûìÿííûé_ãðàäèåíò_163" x1="310.58" y1="457.75" x2="315.28" y2="431.08" gradientUnits="userSpaceOnUse"><stop offset="0" stop-color="#6a7078"/><stop offset="0.15" stop-color="#61666e"/><stop offset="0.42" stop-color="#484c52"/><stop offset="0.76" stop-color="#202224"/><stop offset="1" stop-color="#010101"/></linearGradient><linearGradient id="Áåçûìÿííûé_ãðàäèåíò_153-6" x1="299.34" y1="555.25" x2="308.99" y2="500.5" xlink:href="#Áåçûìÿííûé_ãðàäèåíò_153"/><linearGradient id="Áåçûìÿííûé_ãðàäèåíò_179-4" x1="348.36" y1="373.48" x2="399.52" y2="373.48" xlink:href="#Áåçûìÿííûé_ãðàäèåíò_179"/><linearGradient id="Áåçûìÿííûé_ãðàäèåíò_179-5" x1="366.79" y1="536.11" x2="472.62" y2="536.11" xlink:href="#Áåçûìÿííûé_ãðàäèåíò_179"/><linearGradient id="Áåçûìÿííûé_ãðàäèåíò_73-13" x1="263.33" y1="910.84" x2="263.36" y2="910.84" xlink:href="#Áåçûìÿííûé_ãðàäèåíò_73"/><linearGradient id="Áåçûìÿííûé_ãðàäèåíò_73-14" x1="212.36" y1="920.7" x2="293.84" y2="920.7" xlink:href="#Áåçûìÿííûé_ãðàäèåíò_73"/><linearGradient id="Áåçûìÿííûé_ãðàäèåíò_73-15" x1="388.07" y1="751.95" x2="473.09" y2="751.95" xlink:href="#Áåçûìÿííûé_ãðàäèåíò_73"/><linearGradient id="Áåçûìÿííûé_ãðàäèåíò_179-6" x1="439.33" y1="755.25" x2="466.62" y2="755.25" xlink:href="#Áåçûìÿííûé_ãðàäèåíò_179"/><linearGradient id="Áåçûìÿííûé_ãðàäèåíò_179-7" x1="272.33" y1="923.15" x2="288.06" y2="923.15" xlink:href="#Áåçûìÿííûé_ãðàäèåíò_179"/><linearGradient id="Áåçûìÿííûé_ãðàäèåíò_201" x1="314.98" y1="446.84" x2="381.88" y2="446.84" gradientUnits="userSpaceOnUse"><stop offset="0" stop-color="#d41029"/><stop offset="1" stop-color="#e84631"/></linearGradient><linearGradient id="Áåçûìÿííûé_ãðàäèåíò_179-8" x1="358.17" y1="461.71" x2="366.23" y2="416.01" xlink:href="#Áåçûìÿííûé_ãðàäèåíò_179"/><linearGradient id="Áåçûìÿííûé_ãðàäèåíò_208" x1="264.39" y1="483.26" x2="264.39" y2="378.8" gradientUnits="userSpaceOnUse"><stop offset="0" stop-color="#010101"/><stop offset="0.02" stop-color="#070304"/><stop offset="0.3" stop-color="#561f2d"/><stop offset="0.54" stop-color="#96354e"/><stop offset="0.75" stop-color="#c34566"/><stop offset="0.91" stop-color="#e04e75"/><stop offset="1" stop-color="#ea527a"/></linearGradient><linearGradient id="Áåçûìÿííûé_ãðàäèåíò_210" x1="222.59" y1="890.78" x2="222.59" y2="757.67" gradientUnits="userSpaceOnUse"><stop offset="0" stop-color="#ea527a"/><stop offset="0.09" stop-color="#e04e75"/><stop offset="0.25" stop-color="#c34566"/><stop offset="0.46" stop-color="#96354e"/><stop offset="0.7" stop-color="#561f2d"/><stop offset="0.98" stop-color="#070304"/><stop offset="1" stop-color="#010101"/></linearGradient><linearGradient id="Áåçûìÿííûé_ãðàäèåíò_210-2" x1="404.34" y1="714.07" x2="404.34" y2="612.97" xlink:href="#Áåçûìÿííûé_ãðàäèåíò_210"/><radialGradient id="Áåçûìÿííûé_ãðàäèåíò_123" cx="601" cy="741.34" r="260.17" gradientTransform="translate(-277.64 -243.28) scale(1.46 1.46)" gradientUnits="userSpaceOnUse"><stop offset="0" stop-color="#eb5932"/><stop offset="1" stop-color="#e13448"/></radialGradient><radialGradient id="Áåçûìÿííûé_ãðàäèåíò_123-2" cx="943.14" cy="648.72" r="30.23" xlink:href="#Áåçûìÿííûé_ãðàäèåíò_123"/><radialGradient id="Áåçûìÿííûé_ãðàäèåíò_123-3" cx="920.29" cy="580.66" r="19.28" gradientTransform="matrix(1.03, 1.03, -1.03, 1.03, 722.41, -938.13)" xlink:href="#Áåçûìÿííûé_ãðàäèåíò_123"/><radialGradient id="Áåçûìÿííûé_ãðàäèåíò_123-4" cx="857.17" cy="647.8" r="14.74" xlink:href="#Áåçûìÿííûé_ãðàäèåíò_123"/><radialGradient id="Áåçûìÿííûé_ãðàäèåíò_123-5" cx="828.7" cy="592.14" r="12.66" gradientTransform="matrix(1.03, 1.03, -1.03, 1.03, 692.6, -838.55)" xlink:href="#Áåçûìÿííûé_ãðàäèåíò_123"/><radialGradient id="Áåçûìÿííûé_ãðàäèåíò_123-6" cx="815.12" cy="613.85" r="9.91" xlink:href="#Áåçûìÿííûé_ãðàäèåíò_123"/><radialGradient id="Áåçûìÿííûé_ãðàäèåíò_123-7" cx="733.43" cy="559.51" r="8.24" xlink:href="#Áåçûìÿííûé_ãðàäèåíò_123"/><linearGradient id="Áåçûìÿííûé_ãðàäèåíò_170" x1="957.93" y1="387.14" x2="957.93" y2="378.11" gradientUnits="userSpaceOnUse"><stop offset="0" stop-color="#e13448"/><stop offset="1" stop-color="#eb5932"/></linearGradient><linearGradient id="Áåçûìÿííûé_ãðàäèåíò_170-2" x1="874.91" y1="467.63" x2="874.91" y2="449.62" xlink:href="#Áåçûìÿííûé_ãðàäèåíò_170"/></defs><g class="cls-1"><g id="Layer_1" data-name="Layer 1"><circle class="cls-2" cx="536.86" cy="533.09" r="396.96"/><path class="cls-3" d="M327.32,405.41h352.9s2.24-18.62-17.83-27.27S623,399.73,623,399.73s-17-87.41-102.35-100.74-104.28,97.93-104.28,97.93-3.32-14.81-12.5-13.66-14.12,17.61-14.12,17.61S353.61,369.5,327.32,405.41Z"/><path class="cls-4" d="M239.55,405.41h-73S215.05,375.12,239.55,405.41Z"/><path class="cls-5" d="M561.11,239.53l369.65,2s-8.08-25.43-46.67-5.68c0,0-11.94-64.32-71.21-65.7s-75.35,65.24-75.35,65.24-17.92-15.16-35.84-14.24-21.13,14.7-21.13,14.7S654.83,181.68,619,178,561.11,239.53,561.11,239.53Z"/><polygon class="cls-6" points="773.1 262.58 773.51 631.38 857.9 646.47 908.69 345.54 773.1 262.58"/><polygon class="cls-7" points="978.54 987.89 934.78 362.23 864.12 408 693.06 552.46 686.3 595.46 978.54 987.89"/><polygon class="cls-8" points="1177.05 1055.88 1196 953.17 5 953.13 15.01 1037.77 1177.05 1055.88"/><polygon class="cls-9" points="1196 953.17 1059.95 909.48 149.01 900.67 5 953.13 1196 953.17"/><polygon class="cls-10" points="1059.95 909.48 1061.13 848.57 140.29 848.57 149.01 900.67 1059.95 909.48"/><polygon class="cls-11" points="140.29 848.57 230.82 824.23 983.17 824.23 1061.13 848.57 140.29 848.57"/><polygon class="cls-12" points="230.5 824.23 225.81 784.75 983.85 787.71 983.17 824.23 230.5 824.23"/><polygon class="cls-13" points="225.81 784.75 285.42 778.26 924.89 776.13 983.85 787.71 225.81 784.75"/><polygon class="cls-14" points="924.89 776.13 924.8 743.88 278.2 745.23 281.35 778.36 924.89 776.13"/><polygon class="cls-15" points="892.67 742.13 892.67 719.23 318.41 715.98 319.21 742.13 892.67 742.13"/><polygon class="cls-16" points="892.67 719.23 858.97 715.98 347.8 713.9 318.41 715.98 892.67 719.23"/><polygon class="cls-17" points="858.97 715.98 858.97 691.63 347 694.26 347.7 713.9 858.97 715.98"/><polygon class="cls-18" points="830.94 695.75 830.94 671.15 375.89 672.61 376.79 698.92 830.94 695.75"/><polygon class="cls-19" points="813.31 656.86 815.08 677.22 400.16 677.22 399.96 654.3 813.31 656.86"/><polygon class="cls-20" points="788.49 639.25 789.03 660.97 419.9 663.89 419.21 639.25 788.49 639.25"/><polygon class="cls-21" points="771.91 626.54 773.1 644.9 438.75 646.47 438.75 624.28 771.91 626.54"/><polygon class="cls-22" points="756.15 614.35 757.03 629.08 454.61 624.44 454.61 612.54 756.15 614.35"/><polygon class="cls-23" points="347 694.26 376.59 691.4 830.94 688.32 858.97 691.63 347 694.26"/><polygon class="cls-24" points="482.59 600.88 873.34 344.82 773.1 262.58 787.39 263.55 934.78 362.23 723.18 585.58 723.18 585.58 723.18 595.46 722.77 604.61 700.57 609.45 482.59 600.88"/><polygon class="cls-25" points="738.97 616.46 738.97 600.88 469.9 600.88 469.9 616.39 738.97 616.46"/><polygon class="cls-26" points="924.8 743.88 892.67 740.08 313.14 742.13 278.2 745.23 924.8 743.88"/><polygon class="cls-27" points="381.77 783.79 404.34 781.92 463.52 781.92 437.47 785.66 436.9 824.23 352.13 848.57 354.1 902.87 253.1 953.17 253.1 1038.65 49.82 1038.65 55.76 953.17 261.43 901.97 265.96 848.57 378.16 824.23 381.77 783.79"/><path class="cls-28" d="M447.61,686.11S435.3,694.39,433,696.72s-8,13-8.48,14c.72-3.07,24.42-104.73,22.73-110.58s-27.34-2.69-39,12.87c2-8.48,20.45-37,20.45-37-11.46,1.19-64.34,12.62-64.34,12.62-11.48,3-44.16,17.89-44.16,17.89-4.46,30.4-29.68,105.94-40.11,136.41-3.61,2.73-8.27,6.55-10.87,9.93-4.68,6.1-20.83,92.47-17.42,117.67a30.61,30.61,0,0,0-8.49,3c-1.46.88-3.46,3.25-5.23,5.61,4.22-24.71,15.38-92.77,15-117.61a30.82,30.82,0,0,0-35.28-3.83c1.7-3.38,11.88-13.16,18.69-26.74s24.1-123.41,24.1-123.41l-3.09-7.22,6.19-36L355,530.58a74,74,0,0,1,9.87-2.26l-12.76,15.45s-4.44,7,31.56,6.63,86.2-4.46,86.2-4.46S432.75,658.25,447.61,686.11Z"/><path class="cls-29" d="M425,720.86l-1.18,4.19v0l-.14.47s.47,10.13-3.81,15.06a7.29,7.29,0,0,1-5,2.62s-.38-.74-1-1.88c-1.93-3.52-6.07-10.83-8.11-11.57-2.69-1-10.34-.85-10.34-.85s-1.7-3-1.41-4.1,2.4-2.13,2.4-2.13l2.4-8L399.9,711l23-5.67s-.14,1.53-.27,3.65c-.18,2.36-.31,5.43-.25,7.9a11.66,11.66,0,0,0,.52,4Z"/><path class="cls-30" d="M423.78,725.08l-.14.47s.47,10.13-3.81,15.06l-6,.74c-1.93-3.52-6.07-10.83-8.11-11.57-2.69-1-10.34-.85-10.34-.85s-1.7-3-1.41-4.1,2.4-2.13,2.4-2.13l2.4-8,13.43-5.4,10.42-.39c-.18,2.36-.31,5.43-.25,7.9l0,.06s-3.41,5.88-18.9,6l-3.4,1.35s19.3,3.85,23.74.78Z"/><path class="cls-31" d="M244.3,908.74c-3,3.72-27.64-4.42-27.64-4.42L216,890l25.49-21.55-.43,11s2.87.12,3.19,1-2.45,6.16-2.45,6.16S247.26,905,244.3,908.74Z"/><path class="cls-32" d="M244.3,908.74c-3,3.72-27.64-4.42-27.64-4.42L216,890l25.49-21.55-.43,11a48,48,0,0,1-17.15,17.71c1.08-.49,18.14-8.58,20.34-16.74.33.85-2.45,6.16-2.45,6.16S247.26,905,244.3,908.74Z"/><path class="cls-33" d="M445.54,445.19s1.15,1.71.56,2.61c-.33.51-3.76,1.09-8.76,2.17l-.07,0c-.13,0-.47.11-.94.2a5.43,5.43,0,0,1-.67.16l-.34.07c-3.47.8-7.53,1.84-11.79,3.23-11.7,3.78-22,12.3-22,12.3l2.51.85s8.21-1.3,10.85-2.42a42.78,42.78,0,0,0,6.52-3.92s8.41-.85,12.09,3.34l-1.12,3.07a39.58,39.58,0,0,0-17.76,3.19c-8.67,4-15.06,6.83-17,7.17a2,2,0,0,1-.8-.11c-.41-.12-.9-.32-1.48-.56-.27-.14-.58-.27-.9-.43-2.64-1.23-6.25-3.32-8.88-4.64l-1.09-.54a3,3,0,0,1-.3-.13,6.28,6.28,0,0,0-.71-.29,0,0,0,0,0,0,0,2.56,2.56,0,0,0-.56-.18,1.13,1.13,0,0,0-.4-.09,22.13,22.13,0,0,0-4.62,1.22c-2.26.74-4.86,1.7-6.74,2.39-1.57.59-2.63,1-2.63,1L373,455.06l1.68-.58c.31-.12.65-.23,1-.34s.62-.2,1-.34c2.45-.83,5.49-1.92,7.22-2.62,3.18-1.3,20.27-19.64,24.41-21.43s14.53-2.47,14.53-2.47a4,4,0,0,1-.58,2.6c-.5.52-5,2.36-8.59,3.9h0a35.82,35.82,0,0,0-4.24,2,33.43,33.43,0,0,0-3.94,4.3c.42-.24,7-4.19,13.22-5.67.45-.11.9-.2,1.35-.29,6.81-1.21,21.59,1.19,21.59,1.19s.69,3.05-.48,4.08c0,0,4.67.81,5.68,1.59S447,444.34,445.54,445.19Z"/><path class="cls-34" d="M386.18,471.8a15.07,15.07,0,0,0-3.72-1.57,22.13,22.13,0,0,0-4.62,1.22c-2.26.74-4.86,1.7-6.74,2.39l4.23-19.59.54-2.53,5.16.54h0C384.43,457.75,386.18,471.8,386.18,471.8Z"/><path class="cls-35" d="M441.73,437.91s-10.79-.68-17.37,0-14.44,4.39-14.44,4.39,15.9-6.16,31.18-2.92A3.27,3.27,0,0,0,441.73,437.91Z"/><path class="cls-36" d="M445.54,445.2A61.4,61.4,0,0,0,428,443.45c-9.13.55-13.8,3.4-13.8,3.4s10.93-2.5,17.52-2.5S445.54,445.2,445.54,445.2Z"/><path class="cls-37" d="M435.32,450.42c-3.47.8-7.53,1.84-11.79,3.23-11.7,3.78-22,12.3-22,12.3s-5.13,7.85-4.75,11.17c-.41-.12-.9-.32-1.48-.56-.27-.14-.58-.27-.9-.43-2.64-1.23-6.25-3.32-8.88-4.64-.38-.2-.76-.38-1.09-.54a3,3,0,0,1-.3-.13,6.28,6.28,0,0,0-.71-.29,0,0,0,0,0,0,0l-.56-.18a1.13,1.13,0,0,0-.4-.09,22.13,22.13,0,0,0-4.62,1.22l-3.2-17c.31-.12.65-.23,1-.34l1-.34c2.45-.83,5.49-1.92,7.22-2.62,3.18-1.3,20.27-19.64,24.41-21.43L406.74,432l4.55,1.19,2.31.6a35.82,35.82,0,0,0-4.24,2,33.43,33.43,0,0,0-3.94,4.3c.42-.24,7-4.19,13.22-5.67,0,1.23.23,3.86,1.35,4.31,0,0,0,4.7,1.63,5.56,0,0,.07,6.5,4.2,7C428.6,451.61,432.83,450.91,435.32,450.42Z"/><path class="cls-38" d="M374.25,452l5.23-.47s3.28,15.13-3.58,25.13l-7.14,2.55S375.45,457.69,374.25,452Z"/><path class="cls-39" d="M358,451.26l17.82.46s0,22.44-8,32l-15.72,1.05S356.94,460.27,358,451.26Z"/><path class="cls-40" d="M429.78,775.09l-8.36-.63-4.95-.36s.54-1.1,1.34-2.49c1.53-2.48,4-6,6.3-6,1.82,0,3.28,2.51,4.24,4.95l0,0A36,36,0,0,1,429.78,775.09Z"/><path class="cls-41" d="M473.09,752.85l0,0a13.49,13.49,0,0,1-.63,1.5c-10.06,21.93-42.66,20.72-42.66,20.72s-3.29-4.46-4.82-4.24c-.89.11-2.42,2-3.54,3.61-.8,1.14-1.41,2.11-1.41,2.11-10.4,4-29.73,0-29.73,0l-1.86-7.29,29.89-11.74,14.25-1.21Z"/><path class="cls-40" d="M261.43,945.28l-10.4-.6-4.42-.25a18.2,18.2,0,0,1,.25-1.86c.54-3,2.17-8.5,6.9-6.73a12,12,0,0,1,6.5,6.12A14.2,14.2,0,0,1,261.43,945.28Z"/><path class="cls-42" d="M293.84,918.52c-3.38,23.78-32.41,26.76-32.41,26.76-4.95-3.41-8.32-3-8.32-3L251,944.68l-4.6,5.26c-11.34,6.53-31.72,1.15-31.72,1.15l-1-6.41v-1l6.12-10.47,41.05-8.16Z"/><path class="cls-43" d="M472.76,552.42c-1.32,9.5-6.19,26.67-11.43,49-6.89,29.21-13.32,81.35-13.7,84.58l0,.15S435.3,694.39,433,696.72s-8,13-8.48,14v0l0,0c-10.2,11-28.54,6.12-28.54,6.12l.72-2.8c7.08-15.85,9.62-92.61,11.61-101.1s20.45-37,20.45-37c-11.46,1.19-64.34,12.62-64.34,12.62-11.48,3-44.16,17.89-44.16,17.89-3.95,26.88-24.12,89.06-36,124.15v0c-1.55,4.6-2.94,8.72-4.15,12.24,0,0,0,.11-.11.36-2.71,7.93-4.39,12.69-4.39,12.69-10.54,28.76-22.6,106.75-23.7,114,0,.18-.07.36-.09.54a30.61,30.61,0,0,0-8.49,3c-1.46.88-3.46,3.25-5.23,5.61-2.24,3-4.12,6-4.12,6-7.09,6.39-19.33,5.69-19.33,5.69l-.65-4.41c-7.21-54.79,2.13-125.29,3.84-128.7,1.57-3.12,10.38-11.7,17.06-23.69.58-1,1.12-2,1.63-3.05,6.8-13.61,24.1-123.41,24.1-123.41l-3.09-7.22,6.19-36L355,530.58a74,74,0,0,1,9.87-2.26c.62-.11,1.25-.2,1.9-.29l.16,0c35.44-4.88,86.91,8.07,101.66,14.71a.16.16,0,0,1,.11,0c2.31,1.06,3.68,1.93,3.95,2.56C473.23,546.63,473.21,549.05,472.76,552.42Z"/><path class="cls-44" d="M293.84,918.52c-2.82,18.4-30.57,24.88-30.57,24.88s-1.28-.67-3-1.44c-2.51-1.12-6-2.42-7.6-2a39.62,39.62,0,0,0-5.8,2.58c-2.11,1.1-3.86,2.11-3.86,2.11-14.34,3.81-29.32,0-29.32,0s-1.59-3.84-1.28-6.8,4.26-33.56,4.26-33.56,14.91-.24,19.57-4.07c1.08-.88,5.52,7,6.23,5.8,2.38-4-.62-17.82-.62-17.82s13,16,21.49,22.6h0v0a15.23,15.23,0,0,0,4.3,2.58c7.35,2.39,16.14-.59,16.14-.59A12.93,12.93,0,0,1,293.84,918.52Z"/><path class="cls-45" d="M338.86,563.4c-5.92,11.08-6.14,14.75-6.14,14.75s18.63,9.06,31.65,10.47c-11.48,3-44.16,17.89-44.16,17.89-3.95,26.88-24.12,89.06-36,124.15v0a335,335,0,0,0-49.36,3.3c.58-1,1.12-2,1.63-3.05,6.8-13.61,24.1-123.41,24.1-123.41l-3.09-7.22,6.19-36L355,530.58a74,74,0,0,1,9.87-2.26c.62-.11,1.25-.2,1.9-.29l-.09.29-3.2,1.88S344.78,552.33,338.86,563.4Z"/><path class="cls-46" d="M473.09,752.85a11.28,11.28,0,0,1-.65,1.52c-1.32,2.61-4.84,8-12.93,12.22-10.69,5.56-30.31,4.53-30.31,4.53l-.83-.54,0,0c-1.17-.74-3.09-1.93-3.39-1.84s-5.08,2.56-5.08,2.56q-1,.19-2.07.33c-13.83,2-29.39-2.33-29.39-2.33-2.26-13.31,6.95-40.35,6.95-40.35s11.37-3.11,15.92-1.41,7,8.79,9.57,8.79c2,0,2.78-10.76,2.78-10.76s6.21,9.14,12.87,15.15a22.79,22.79,0,0,0,7.06,4.66c8.5,3,21.88,2.83,21.88,2.83C471.55,748.75,473.09,752.85,473.09,752.85Z"/><path class="cls-47" d="M379.1,287.62a71,71,0,0,0,3,7.79c1.13,2.08,1.63,3,1.59,3.53a5.54,5.54,0,0,1-3.89,4.46C376.68,304.25,379.1,287.62,379.1,287.62Z"/><path class="cls-48" d="M382.21,274.87s-3.4,8.36-3.27,11.34,1.79,7.47,1.77,9c-.11,7-3.25,24.55-12.51,34.68-.49.56-1,1.08-1.57,1.6a52.38,52.38,0,0,1-18.27-6.39v3.81s-5.76-.05-13.51.47c-9.69.67-22.49,2.26-31,6a81.85,81.85,0,0,0,4.21-8.18,72.8,72.8,0,0,0,5-14.57,41.53,41.53,0,0,0,.74-4.51v0A33.67,33.67,0,0,0,314,303a40.91,40.91,0,0,0-2.94-12.71c-2.78-7.29-6.54-14.73-7.24-30.4,0,0,15.92-25.49,34.62-32.08s42.61,23,42.61,23A90.25,90.25,0,0,1,382.21,274.87Z"/><path class="cls-49" d="M368.2,329.92l3.72,2.45-37.07-3-26.77-2.13a72.8,72.8,0,0,0,5-14.57,41.53,41.53,0,0,0,.74-4.51v0l38.83-11.5s-.49-12.82,3.12-17.62a13.56,13.56,0,0,1,9.25-5.16c-6.36,2.36-9.3,13.72-9.3,13.72l6.48-1a18.85,18.85,0,0,1,6.52-8.07c2,9.81-2.93,17.95-3.27,18.51.54-.2,8.5-3.18,10,2.72,1.52,6.09-8.28,29.45-8.28,29.45Z"/><path class="cls-50" d="M382.48,263.55s-5.23,8.07-6.08,11.47c0,0,3.25,2.26,5.8-.14L379,286.2l-6.84,3s4.43-29.33,9-38.4A69.07,69.07,0,0,1,382.48,263.55Z"/><path class="cls-51" d="M362.24,286.63a20.56,20.56,0,0,0-2.31,11.25s1-7.85,4.53-11.25c0,0-1.39,3.61,0,5.62,0,0,6.24-6.37,4.29-13.69C368.75,278.56,365.53,280.68,362.24,286.63Z"/><path class="cls-52" d="M348.36,325.13l1-16.95s-11.77-2.49-36.28,4.53A36.83,36.83,0,0,0,314,303a40.91,40.91,0,0,0-2.94-12.71l9.33-4.06,34.32,11s1.19,6.86,5.2,6.19c0,0-.58,15.62,6.7,28.09A52.38,52.38,0,0,1,348.36,325.13Z"/><path class="cls-53" d="M382.48,263.55a65.1,65.1,0,0,0-1.41-12.74s-3.41,12.74-6.1,23.07a113.9,113.9,0,0,0-3.25,19.26l-1.54.85s2-17.42-1.28-20-15.87,4.25-14.17,23.22c0,0-20.67,11.32-42.23,10.94a17.58,17.58,0,0,0-.16-7.64c-2-9.13-13.38-25.81-12.11-54.25l-5.69-4c.65.23,7.33,2.33,21.83-5.2,15.29-7.93,37.8-18.69,40.92-18.27S371.45,229,371.45,229s13.86,8.36,16.41,11.48S382.48,263.55,382.48,263.55Z"/><path class="cls-54" d="M379.28,257.54s-5.85,7.14-20.15,9c0,0-7.93,4.82-9.49,12,0,0,4.67-7.58,11-8.46s13.8-.24,15.82-2.05Z"/><path class="cls-55" d="M380.66,252.34s-8.18,8.54-16.2,11.15c0,0,10.05-2.46,14.82-5.95Z"/><path class="cls-56" d="M371.44,229a110.88,110.88,0,0,0-28.23-3.25s11.38-3.54,14.07-6.94C357.28,218.81,362.81,220.65,371.44,229Z"/><path class="cls-57" d="M387.86,240.48s.79,4.46-1.7,7.35c0,0-5.52-7.35-11-11.05A34.65,34.65,0,0,0,363.05,232c.94.36,8.7,3.49,12.42,7.87a45.35,45.35,0,0,1-31.07,15.4s7-4.15,8.92-8.28c0,0-11.86,1.26-28,9.67,0,0-7.33-5-8.61-7.87l1.9-5.2-6.79,5.11a31.31,31.31,0,0,1-11.57-2.44c-1.27,28.44,10.11,45.12,12.11,54.25a17.58,17.58,0,0,1,.16,7.64c21.56.38,42.23-10.94,42.23-10.94-1.7-19,10.92-25.76,14.17-23.22s1.28,20,1.28,20l1.54-.85A113.9,113.9,0,0,1,375,273.88c2.69-10.33,6.1-23.07,6.1-23.07a65.1,65.1,0,0,1,1.41,12.74S390.42,243.59,387.86,240.48Zm-35.1,21.09c-4,.43-11.3-1.83-11.3-1.83,12.06-1,15.87-5,15.87-5S356.73,261.15,352.76,261.57Z"/><path class="cls-58" d="M334.84,235s2.1-4.42,8.37-5.17,19,2.16,19,2.16S339.2,234,334.84,235Z"/><path class="cls-59" d="M355.77,226.27s20.34-1.25,32.09,14.21c0,0,1.09,4.45-1.7,7.35C386.16,247.83,376.37,234.3,355.77,226.27Z"/><path class="cls-60" d="M333.25,229.73s21.84-5.15,24-10.92C357.28,218.81,352.74,218,333.25,229.73Z"/><path class="cls-61" d="M353.32,247s-4.68,6.68-8.92,8.28c0,0,26-2.67,31.07-15.4a12,12,0,0,0-11-3.82C357.57,237.36,353.32,247,353.32,247Z"/><path class="cls-62" d="M294.54,242.27s5.9,7.35,17.26,6.46l13.82-16.36S304.57,244.92,294.54,242.27Z"/><path class="cls-63" d="M355.77,226.27s20.75,6.77,30.39,21.56l-3.68,15.72s7.3-12.74,5.89-23C388.37,240.59,380.66,227.37,355.77,226.27Z"/><path class="cls-64" d="M232.26,563.41s21.39-.39,39.79-5.28,5.95-29,5.95-29l-12.74-2.23Z"/><path class="cls-65" d="M389.88,390.61a271.54,271.54,0,0,1-18.43,40c-8.22,14.15-16.23,60.31-14.95,63.92,1,2.84,5.47,6.77,7.49,9.43l.25.32a4.38,4.38,0,0,1,.76,1.5c.42,2.35-5.32,9.57-5.09,10.85a35.83,35.83,0,0,0,2.85,5.24c1,1.73,2.15,3.57,3.07,5l0,.07c1.1,1.74,1.88,3,1.88,3l-12.73.58c-30,34.82-96.28,33.83-96.28,33.83l1.7-19.95c-9.35,9.91-30.19,19.95-30.19,19.95s33.2-68,32.79-111.66c0-.58,0-.92,0-.92a66.46,66.46,0,0,0-.6-8.05c-5.94-42.48-3.82-82.54-2.54-83.82s1.41-.85,11.61-5.08a63.31,63.31,0,0,0,6-3l.4-.2,0,0a254.37,254.37,0,0,0,21.9-14.48v-7.65c21.23-13.29,48.55-4.39,48.55-4.39,26.28-.56,50.26,5.8,50.26,5.8C402.12,349.32,396.76,371.71,389.88,390.61Z"/><path class="cls-66" d="M260.71,544.6l-.54-.28c12-23.25,15.39-61.31,18.66-98.11C280.54,427,282.16,408.77,285,394c8-42.07,24.72-60.79,24.89-61l.45.41c-.17.18-16.78,18.79-24.74,60.68-2.8,14.71-4.42,32.88-6.13,52.11C276.16,483.13,272.76,521.24,260.71,544.6Z"/><path class="cls-67" d="M303.84,327.29l3-5.08s27.75-9.11,41.49,2.93C348.37,325.14,325.43,318,303.84,327.29Z"/><path class="cls-68" d="M372.51,625.53s2.23,28.58-5,48.36l-10.45.68s-10.33,39.06-24.35,56.1c0,0-62.32-4.71-113.18-18.69l-16.48-13.39s15.5-70.31,30.36-105C233.42,593.62,307,619,372.51,625.53Z"/><path class="cls-69" d="M233.42,593.62s66.65,22.26,110.1,22.82c0,0,10.18,3.3,29,9.09,0,0-60.8-4.52-115.11-23.31Z"/><path class="cls-70" d="M326.41,593.75s7,5.54,2.47,23.78c0,0,3.57,2.28,9.24.72,0,0,.33-20-1.86-27.59Z"/><path class="cls-71" d="M219.54,712s25-63.56,33.32-107.47l4.91,3.33s2.63,28.24-.44,46.32L261,657s3.46-39.32-3.6-54.82l-24-8.6s-12.54,26.33-30.36,105Z"/><path class="cls-70" d="M273.79,605.09s1.32,2.26,11.36,3.92c0,0,8.43-15.35,14.73-18.86l.1-14.71S282.12,589.26,273.79,605.09Z"/><path class="cls-72" d="M352.4,685.07l-119,8.79L219.54,712l-16.48-13.39,13.29-53.32s-3.52,33.58-1.29,34.46c5.95,2.34,21.15-23.4,26.72-38.53a320,320,0,0,0,11.08-36.69l4.91,3.33a197.58,197.58,0,0,1-.44,46.32L261,657a494.69,494.69,0,0,0,96.07,17.53Z"/><path class="cls-73" d="M311.11,660.07l12.24,2.76a33.68,33.68,0,0,1-3.71,16.53L308,677.21v-3.27L310.14,661Z"/><path class="cls-74" d="M311.11,660.07s2.16,9.28-3.09,17.14v-3.27L310.14,661Z"/><path class="cls-75" d="M311.55,660.41s.36,7,3,8.53,5.77,1.8,7.29.77,1.51-6.55,1.51-6.55Z"/><polygon class="cls-72" points="299.24 692.6 289.32 706.71 302.07 708.87 309.79 696.51 299.24 692.6"/><path class="cls-76" d="M297,704s3.12-3,6.63-11.35l8.14,2.36a20.09,20.09,0,0,1-5.46,10.77Z"/><path class="cls-74" d="M303.65,692.6h-4.41l-3.55,10.72L297,704S302.89,697.92,303.65,692.6Z"/><path class="cls-77" d="M343.52,616.44l25,8.71s4.28,24.5-11.4,49.42c4.53-.22,10.45-.68,10.45-.68s6.55-15.28,5-48.36Z"/><path class="cls-78" d="M332.72,730.67l-.45-6.41s16.37-26.32,24.8-49.69C357.07,674.57,349.07,708.87,332.72,730.67Z"/><path class="cls-79" d="M363.9,408c-1.32.86-2.76,1.66-4.31,2.47C362,409.13,363.54,408.23,363.9,408Z"/><path class="cls-80" d="M371.45,430.62c-8.22,14.15-16.23,60.31-14.95,63.92-3.56,10.28-21.23,27.39-21.23,27.39,22.51-5.29,28.72-18,28.72-18l.25.32a4.38,4.38,0,0,1,.76,1.5c.42,2.35-5.32,9.57-5.09,10.85a35.83,35.83,0,0,0,2.85,5.24L348.43,530l17.4-3.07,0,.07c1.1,1.74,1.88,3,1.88,3l-12.73.58c-30,34.82-96.28,33.83-96.28,33.83l1.7-19.95c-9.35,9.91-30.19,19.95-30.19,19.95s33.2-68,32.79-111.66c.21,5.76,1.6,36.47,9.58,36.47,7.08,0,28-40.12,38.46-61.94,10.65-22.26,16.32-78,16.32-78l-1.3,39.3c8-20.4,20.45-31.66,20.45-31.66l43.33,33.7A271.54,271.54,0,0,1,371.45,430.62Z"/><path class="cls-81" d="M299.81,329.52v7.65a254.37,254.37,0,0,1-21.9,14.48l32.17-18.39s18.11-8.92,38.28-8.13C348.36,325.13,321,316.23,299.81,329.52Z"/><path class="cls-82" d="M252.31,778.37S235.88,855.37,216,890C216,890,247.29,799.06,252.31,778.37Z"/><path class="cls-83" d="M428.71,576l28.53-12.59s-6.58,26.14-10,30.21-28.74-3-38.95,19.35A270,270,0,0,1,428.71,576Z"/><path class="cls-84" d="M364.89,528.32a164.94,164.94,0,0,0-16.46,20.82s65.3,2.57,124.24-3.83C472.67,545.31,432.72,522.82,364.89,528.32Z"/><path class="cls-85" d="M280.1,742.92s0,.11-.11.36c-2.71,7.93-4.39,12.69-4.39,12.69-10.54,28.76-22.6,106.75-23.7,114,0,.18-.07.36-.09.54,0,0,3.72-88.41,15.38-112.51C267.19,758,272.57,746,280.1,742.92Z"/><path class="cls-86" d="M472.76,552.42c-1.32,9.5-6.19,26.67-11.43,49-6.89,29.21-13.32,81.35-13.7,84.58l0,.15C437.58,628.25,469.13,560,472.76,552.42Z"/><path class="cls-87" d="M338.12,587.34l-3.61,6.44-.94,1.68-7.16-.67-2.47-1.11-13.26-.37-2,1.66-8.74-.83-2.44-2.65,2.4-1.34.11-14.71-3.07-7.67s.47-2.15,4.93-12.55l7.69-2.76,22.23,4S338.34,574,338.12,587.34Z"/><path class="cls-88" d="M336,591.12l-2.43,4.34-7.16-.67-2.47-1.11-13.26-.37-2,1.66-8.74-.83-2.44-2.65,2.4-1.34.11-14.71-3.07-7.67s.47-2.15,4.93-12.55l7.69-2.76,22.23,4s-5.35,5.94-23.89,6.95l-3.12,1v26.25l5.32.94,1-.94h15.36l2.26,1.57Z"/><path class="cls-89" d="M300,554.86V557s17.48,2.82,32.68-.58l-.39-4.74A175.17,175.17,0,0,1,300,554.86Z"/><path class="cls-90" d="M393.24,380.63s-27,27-42.68,62.68c-.94,2.15-1.84,4.37-2.69,6.7-8.83,24.13-12.46,57.44-10.63,94.16v.13c.12,2,.23,4.06.36,6.1,0,0-22.62,9.35-38.38,4.82,0,0-12.44-66.27-.82-99.69a.1.1,0,0,1,0,0c.13-.15.65-.85,1.46-2,.2-.29.44-.63.71-1,6.55-9.44,25.94-39.28,29.8-67.75,0,0,18.29-46.91,53.3-53.51v0a45.59,45.59,0,0,1,14.93-.27A100,100,0,0,1,393.24,380.63Z"/><path class="cls-91" d="M347.87,450c-8.83,24.13-12.46,57.44-10.63,94.16v.13a52,52,0,0,0,.36,6.1s-13.74-35.69-14.86-56.92,25.62-46.63,25.62-46.63S348.18,448,347.87,450Z"/><path class="cls-92" d="M337.6,550.4s-14.22-35-14.86-56.92c0,0,7.28,26.13,14,31.43Z"/><path class="cls-93" d="M398.62,330.93s-10.59-9.44-41.55,20.72-39.56,84.06-39.56,84.06,20.41-2.1,46.39-23.6S397,368.21,397,368.21,402.87,340.27,398.62,330.93Z"/><path class="cls-94" d="M298.4,455.53s6.28,2.37,16.59-4,12.49-18.25,12.49-18.25S311.43,430.89,298.4,455.53Z"/><path class="cls-95" d="M300,554.86s-6.73-29.57-1.64-56.23c0,0,5.5,45.17,11.66,57.81C310.06,556.44,304.31,556.87,300,554.86Z"/><path class="cls-96" d="M348.36,325.13s34.27,1.82,44,10.33c0,0,3,27.55-6.22,45.89s-24.43,40.56-24.43,40.56,17.7-27.39,29.59-39.29c0,0,11.39-16.09,7.28-51.69C398.62,330.93,377.71,324.34,348.36,325.13Z"/><path class="cls-97" d="M472.62,545.29c-1.68-.52-57.21-17.85-105.83-17.26l.16,0c35.44-4.88,86.91,8.07,101.66,14.71a.16.16,0,0,1,.11,0Q470.72,544,472.62,545.29Z"/><path class="cls-98" d="M263.36,910.85l0,0h0Z"/><path class="cls-99" d="M327.48,446.85l-24.2,30.27s17.67,14.52,35.58,12.7L343.17,468Z"/><path class="cls-100" d="M293.84,918.52c-3.38,23.78-32.41,26.76-32.41,26.76l-10.4-.6-4.6,5.26c-11.34,6.53-31.72,1.15-31.72,1.15l-1-6.41s-1.59-3.84-1.28-6.8,4.26-33.56,4.26-33.56,14.91-.24,19.57-4.07c1.08-.88,5.52,7,6.23,5.8,2.38-4-.62-17.82-.62-17.82s13,16,21.49,22.6c-.6-.27-10.73-5.12-12.8-4.49-1.65.5,3.34,11.32,10.32,18.74a26.73,26.73,0,0,0,6.45,5.25C277.3,935.87,291.09,928.56,293.84,918.52Z"/><path class="cls-101" d="M473.09,752.85a11.28,11.28,0,0,1-.65,1.52c-10.06,21.93-42.66,20.72-42.66,20.72l-8.36-.63c-.8,1.14-1.41,2.11-1.41,2.11-10.4,4-29.73,0-29.73,0l-1.86-7.29c-2.26-13.31,6.95-40.35,6.95-40.35s11.37-3.11,15.92-1.41,7,8.79,9.57,8.79c2,0,2.78-10.76,2.78-10.76s6.21,9.14,12.87,15.15c-.67,0-7.82-.45-11.55,3.81-1.77,2,1.91,7.11,7.6,11.82,6.84,5.62,16.61,10.71,23.34,9.28a25.77,25.77,0,0,0,17.17-12.74Z"/><path class="cls-102" d="M439.33,752.85s7.33,5.14,15.51,5.67S466.62,752,466.62,752,457.7,757,439.33,752.85Z"/><path class="cls-103" d="M287.91,917.3s-5.38,9.43-15.58,11.27C272.33,928.57,289.89,932.37,287.91,917.3Z"/><path class="cls-104" d="M381.79,417.51s-.14.4-.47,1.16C378,426.88,370.15,441.34,368.9,449c0,0-14.17,27.75-43.33,32.55L315,468.28l15.7-25s28-4,41-16.21c0,0,5.72-8.56,9.26-15A9.45,9.45,0,0,1,381.79,417.51Z"/><path class="cls-105" d="M381.32,418.67C378,426.88,370.15,441.34,368.9,449c0,0-24.93,12.17-25.69,9.84s11.16-13.59,23.42-23.16C376.21,428.22,380.08,421.32,381.32,418.67Z"/><path class="cls-106" d="M258.49,378.8s2,39.71,10.09,56.91-9.25,47.55-9.25,47.55,3.44-18.5,3.69-31.43S256.26,402.79,258.49,378.8Z"/><path class="cls-107" d="M217.83,757.67s-4.13,89.6,1.91,97.49c0,0,5.76.65,14.43-18.87,0,0-12.09,40.36-19.53,54.49C214.64,890.78,204.66,837.24,217.83,757.67Z"/><path class="cls-108" d="M396.65,714.07a173.82,173.82,0,0,0,13.9-45.43c4.36-26.5-2.29-55.67-2.29-55.67S404.34,679.36,396.65,714.07Z"/><polygon class="cls-109" points="83.88 930.05 63.85 772.28 73.87 772.28 90.07 930.05 83.88 930.05"/><polygon class="cls-109" points="1117.12 943.97 1137.15 786.2 1127.13 786.2 1110.93 943.97 1117.12 943.97"/><path class="cls-110" d="M1135.1,802.32l-10.52,82.92S1045,888.54,926,891c-176.45,3.68-439.47,5.57-657.75-7.81-9.34-.56-18.58-1.17-27.72-1.77q-29-2-56.55-4.39c-38.65-3.32-75.09-7.28-108.38-11.93L65.54,785.66l.19,0,.61.05.48,0c.34,0,.78.05,1.26.1l.71,0c7.61.68,28.49,2.43,61.08,4.71l3.64.26v0c21.87,1.5,48.73,3.25,80.11,5q20.16,1.13,42.78,2.33c158,8.17,403.29,16.22,695.38,9.82C1011.07,806.83,1072.3,804.93,1135.1,802.32Z"/><path class="cls-111" d="M516.49,869.59l4.62-10.46a29.19,29.19,0,0,0,14,3.89c4.08,0,5.54-.85,5.54-2.31,0-5.35-23.53-1-23.53-16.9,0-7.9,6.63-14.34,19.82-14.34,5.71,0,11.61,1.21,16,3.7l-4.32,10.4a26.18,26.18,0,0,0-11.85-3.16c-4.2,0-5.53,1.21-5.53,2.67,0,5.11,23.52.85,23.52,16.54,0,7.78-6.63,14.34-19.82,14.34C527.92,874,520.75,872.2,516.49,869.59Z"/><path class="cls-111" d="M567.73,841.56H555.27V830.44h39.27v11.12H582.08V873H567.73Z"/><path class="cls-111" d="M625.11,865.57H608.94L606.08,873H591.49l18.6-42.55H624.2L642.8,873H628Zm-4-10.33L617,844.54l-4.13,10.7Z"/><path class="cls-111" d="M663.34,862.29h-3.89V873H645.1V830.44h20.49c11.85,0,19.39,6.2,19.39,16a14.24,14.24,0,0,1-8,13.37L685.89,873H670.57Zm1.33-20.79h-5.22v10h5.22c4,0,5.84-1.88,5.84-5S668.62,841.5,664.67,841.5Z"/><path class="cls-111" d="M699,841.56H686.55V830.44h39.27v11.12H713.36V873H699Z"/><path class="cls-112" d="M184,877.05c-38.65-3.32-75.09-7.28-108.38-11.93L65.54,785.66l.19,0,.61.05,67.17,5.16v0Z"/><path class="cls-112" d="M268.28,883.21c-9.34-.56-18.58-1.17-27.72-1.77L213.62,796q20.16,1.13,42.78,2.33Z"/><path class="cls-112" d="M1135.1,802.32l-10.52,82.92S1045,888.54,926,891l25.75-82.91C1011.07,806.83,1072.3,804.93,1135.1,802.32Z"/><polygon class="cls-113" points="1088.16 688.89 1060.12 616.83 1061.92 617.19 970.19 712.59 969.34 713.48 968.77 712.39 925.38 629.42 926.66 629.46 909.27 658.59 908.9 659.2 908.31 658.81 788.78 578.99 788.39 578.73 788.66 578.36 874.73 458.5 874.75 458.48 874.76 458.47 957.9 382.6 957.92 382.66 935.94 378.8 957.93 382.59 958 382.6 957.95 382.65 875.05 458.78 875.08 458.75 789.39 578.88 789.28 578.25 909.06 657.68 908.11 657.9 925.4 628.71 926.07 627.59 926.68 628.74 970.33 711.58 968.92 711.38 1060.35 615.68 1061.53 614.45 1062.15 616.04 1090.42 688 1088.16 688.89"/><circle class="cls-114" cx="1089.29" cy="719.23" r="44.17"/><circle class="cls-115" cx="1061.14" cy="616.46" r="28.16" transform="translate(-125.1 930.89) rotate(-45)"/><circle class="cls-116" cx="969.25" cy="711.98" r="21.54"/><circle class="cls-117" cx="926.03" cy="630.26" r="18.5" transform="translate(-174.43 839.4) rotate(-45)"/><path class="cls-118" d="M923.17,659.1a14.48,14.48,0,1,1-14.48-14.48A14.48,14.48,0,0,1,923.17,659.1Z"/><path class="cls-119" d="M801.07,578.62a12,12,0,1,1-12-12A12,12,0,0,1,801.07,578.62Z"/><path class="cls-120" d="M962.44,382.62a4.52,4.52,0,1,1-4.51-4.51A4.51,4.51,0,0,1,962.44,382.62Z"/><path class="cls-121" d="M883.91,458.63a9,9,0,1,1-9-9A9,9,0,0,1,883.91,458.63Z"/><path class="cls-111" d="M1093,705.59V730.5h-8.39V711.92h-4.28v-6.33Z"/><path class="cls-111" d="M1068.83,618.61v4.72h-14.49v-3.74l6.54-6c1.23-1.16,1.42-1.86,1.42-2.48,0-.88-.6-1.42-1.76-1.42a2.94,2.94,0,0,0-2.66,1.68l-4.6-2.3c1.32-2.48,3.93-4.19,7.83-4.19,4.28,0,7.3,2.22,7.3,5.66,0,1.78-.46,3.38-3.09,5.76l-2.59,2.35Z"/><path class="cls-111" d="M975.26,714.35c0,2.53-2,5.06-6.75,5.06a12.6,12.6,0,0,1-5.82-1.33l1.69-3.67a8,8,0,0,0,4,1.07c1.12,0,1.92-.37,1.92-1.13s-.48-1-1.75-1h-2v-3.05l2.17-2.22h-5.27v-3.75h11v3.05l-2.74,2.79A4.19,4.19,0,0,1,975.26,714.35Z"/><path class="cls-111" d="M930.08,633.73h-1.46v1.88H925v-1.88h-5.68v-2.35l4.65-6.73h3.78l-4.13,6.21h1.49v-1.67h3.47v1.67h1.46Z"/><path class="cls-111" d="M913.1,660.75c0,1.75-1.34,3.44-4.47,3.44a8.38,8.38,0,0,1-3.86-.88l1.12-2.44a5.28,5.28,0,0,0,2.61.72c.74,0,1.29-.27,1.29-.77s-.3-.7-1.48-.7h-2.84l.49-5.94h6.5v2.48h-3.79l-.07,1h.5C912,657.63,913.1,659,913.1,660.75Z"/><path class="cls-111" d="M792.26,580.14c0,1.8-1.51,2.94-3.4,2.94-2.4,0-4-1.38-4-4.12a4.33,4.33,0,0,1,4.65-4.66,4.94,4.94,0,0,1,2.6.66l-1,2a2.47,2.47,0,0,0-1.52-.44,1.7,1.7,0,0,0-1.82,1.42,2.77,2.77,0,0,1,1.66-.46A2.71,2.71,0,0,1,792.26,580.14Zm-2.73.13a.87.87,0,1,0-.87.86A.82.82,0,0,0,789.53,580.27Z"/></g></g></svg>