<svg xmlns="http://www.w3.org/2000/svg" xmlns:xlink="http://www.w3.org/1999/xlink" viewBox="0 0 400 300"><defs><style>.cls-1{isolation:isolate;}.cls-2,.cls-3,.cls-4,.cls-5,.cls-57,.cls-58,.cls-6{mix-blend-mode:lighten;}.cls-2{fill:url(#Áåçûìÿííûé_ãðàäèåíò_368);}.cls-3{fill:url(#Áåçûìÿííûé_ãðàäèåíò_368-2);}.cls-4{fill:url(#Áåçûìÿííûé_ãðàäèåíò_368-3);}.cls-5{fill:url(#Áåçûìÿííûé_ãðàäèåíò_368-4);}.cls-6{fill:url(#Áåçûìÿííûé_ãðàäèåíò_368-5);}.cls-22,.cls-54,.cls-7{fill:#fff;}.cls-8{fill:url(#Áåçûìÿííûé_ãðàäèåíò_14);}.cls-9{fill:url(#Áåçûìÿííûé_ãðàäèåíò_14-2);}.cls-10{fill:url(#Áåçûìÿííûé_ãðàäèåíò_17);}.cls-11{fill:url(#Áåçûìÿííûé_ãðàäèåíò_11);}.cls-12{fill:url(#Áåçûìÿííûé_ãðàäèåíò_17-2);}.cls-13{fill:url(#Áåçûìÿííûé_ãðàäèåíò_17-3);}.cls-14{fill:#84d0f5;}.cls-14,.cls-22{opacity:0.5;}.cls-15{fill:url(#Áåçûìÿííûé_ãðàäèåíò_14-3);}.cls-16{fill:url(#Áåçûìÿííûé_ãðàäèåíò_14-4);}.cls-17{fill:url(#Áåçûìÿííûé_ãðàäèåíò_17-4);}.cls-18{fill:url(#Áåçûìÿííûé_ãðàäèåíò_11-2);}.cls-19{fill:url(#Áåçûìÿííûé_ãðàäèåíò_17-5);}.cls-20{fill:url(#Áåçûìÿííûé_ãðàäèåíò_17-6);}.cls-21{fill:#afdef3;}.cls-23{fill:#222a55;opacity:0.6;}.cls-24{fill:url(#Áåçûìÿííûé_ãðàäèåíò_11-3);}.cls-25{fill:url(#Áåçûìÿííûé_ãðàäèåíò_17-7);}.cls-26{fill:url(#Áåçûìÿííûé_ãðàäèåíò_14-5);}.cls-27{fill:url(#Áåçûìÿííûé_ãðàäèåíò_11-4);}.cls-28{fill:url(#Áåçûìÿííûé_ãðàäèåíò_17-8);}.cls-29{fill:#2673ba;}.cls-30{fill:url(#Áåçûìÿííûé_ãðàäèåíò_14-6);}.cls-31{fill:url(#Áåçûìÿííûé_ãðàäèåíò_11-5);}.cls-32{fill:url(#Áåçûìÿííûé_ãðàäèåíò_17-9);}.cls-33{fill:url(#Áåçûìÿííûé_ãðàäèåíò_14-7);}.cls-34{fill:url(#Áåçûìÿííûé_ãðàäèåíò_14-8);}.cls-35{fill:url(#Áåçûìÿííûé_ãðàäèåíò_14-9);}.cls-36{fill:url(#Áåçûìÿííûé_ãðàäèåíò_14-10);}.cls-37{fill:url(#Áåçûìÿííûé_ãðàäèåíò_17-10);}.cls-38{fill:url(#Áåçûìÿííûé_ãðàäèåíò_11-6);}.cls-39{fill:url(#Áåçûìÿííûé_ãðàäèåíò_17-11);}.cls-40{fill:url(#Áåçûìÿííûé_ãðàäèåíò_17-12);}.cls-41{fill:url(#Áåçûìÿííûé_ãðàäèåíò_14-11);}.cls-42{fill:url(#Áåçûìÿííûé_ãðàäèåíò_14-12);}.cls-43{fill:url(#Áåçûìÿííûé_ãðàäèåíò_17-13);}.cls-44{fill:url(#Áåçûìÿííûé_ãðàäèåíò_11-7);}.cls-45{fill:url(#Áåçûìÿííûé_ãðàäèåíò_17-14);}.cls-46{fill:url(#Áåçûìÿííûé_ãðàäèåíò_17-15);}.cls-47{fill:url(#Áåçûìÿííûé_ãðàäèåíò_48);}.cls-48{fill:url(#Áåçûìÿííûé_ãðàäèåíò_14-13);}.cls-49{fill:url(#Áåçûìÿííûé_ãðàäèåíò_11-8);}.cls-50{fill:url(#Áåçûìÿííûé_ãðàäèåíò_17-16);}.cls-51{fill:url(#Áåçûìÿííûé_ãðàäèåíò_14-14);}.cls-52{fill:url(#Áåçûìÿííûé_ãðàäèåíò_11-9);}.cls-53{fill:url(#Áåçûìÿííûé_ãðàäèåíò_17-17);}.cls-54{opacity:0.2;}.cls-55{fill:url(#Áåçûìÿííûé_ãðàäèåíò_2);}.cls-56{fill:url(#Áåçûìÿííûé_ãðàäèåíò_59);}.cls-57,.cls-58{opacity:0.7;}.cls-57{fill:url(#Áåçûìÿííûé_ãðàäèåíò_3);}.cls-58{fill:url(#Áåçûìÿííûé_ãðàäèåíò_3-2);}</style><linearGradient id="Áåçûìÿííûé_ãðàäèåíò_368" x1="1375.16" y1="-38.95" x2="1375.16" y2="-96.95" gradientTransform="matrix(1, -0.58, 0.87, 0.5, -1217.38, 885.06)" gradientUnits="userSpaceOnUse"><stop offset="0" stop-color="#afdef3"/><stop offset="0.02" stop-color="#a7d4eb"/><stop offset="0.14" stop-color="#85a9ca"/><stop offset="0.26" stop-color="#6984ad"/><stop offset="0.38" stop-color="#516696"/><stop offset="0.51" stop-color="#3f4f84"/><stop offset="0.65" stop-color="#323f77"/><stop offset="0.8" stop-color="#2a356f"/><stop offset="1" stop-color="#28326d"/></linearGradient><linearGradient id="Áåçûìÿííûé_ãðàäèåíò_368-2" x1="1298.15" y1="-10.94" x2="1298.15" y2="-68.94" xlink:href="#Áåçûìÿííûé_ãðàäèåíò_368"/><linearGradient id="Áåçûìÿííûé_ãðàäèåíò_368-3" x1="1397.26" y1="-39.27" x2="1397.26" y2="-97.28" xlink:href="#Áåçûìÿííûé_ãðàäèåíò_368"/><linearGradient id="Áåçûìÿííûé_ãðàäèåíò_368-4" x1="1419.36" y1="-39.6" x2="1419.36" y2="-97.6" xlink:href="#Áåçûìÿííûé_ãðàäèåíò_368"/><linearGradient id="Áåçûìÿííûé_ãðàäèåíò_368-5" x1="1446.41" y1="-9.36" x2="1446.41" y2="-67.36" xlink:href="#Áåçûìÿííûé_ãðàäèåíò_368"/><linearGradient id="Áåçûìÿííûé_ãðàäèåíò_14" x1="-1763.54" y1="73.86" x2="-1658.16" y2="105.63" gradientTransform="matrix(-1, 0, 0, 1, -1451.07, 0)" gradientUnits="userSpaceOnUse"><stop offset="0" stop-color="#2673ba"/><stop offset="1" stop-color="#0d64ad"/></linearGradient><linearGradient id="Áåçûìÿííûé_ãðàäèåíò_14-2" x1="-1755.82" y1="85.52" x2="-1647.21" y2="103.33" xlink:href="#Áåçûìÿííûé_ãðàäèåíò_14"/><linearGradient id="Áåçûìÿííûé_ãðàäèåíò_17" x1="-1742" y1="40.43" x2="-1674.71" y2="69.03" gradientTransform="matrix(-1, 0, 0, 1, -1451.07, 0)" gradientUnits="userSpaceOnUse"><stop offset="0" stop-color="#84d0f5"/><stop offset="1" stop-color="#5ebdec"/></linearGradient><linearGradient id="Áåçûìÿííûé_ãðàäèåíò_11" x1="-1760.54" y1="101.75" x2="-1701.59" y2="127.32" gradientTransform="matrix(-1, 0, 0, 1, -1451.07, 0)" gradientUnits="userSpaceOnUse"><stop offset="0" stop-color="#3c9bd5"/><stop offset="1" stop-color="#2673ba"/></linearGradient><linearGradient id="Áåçûìÿííûé_ãðàäèåíò_17-2" x1="-1697.98" y1="70.44" x2="-1672.93" y2="83.92" xlink:href="#Áåçûìÿííûé_ãðàäèåíò_17"/><linearGradient id="Áåçûìÿííûé_ãðàäèåíò_17-3" x1="-1729.8" y1="119.55" x2="-1680.83" y2="119.55" xlink:href="#Áåçûìÿííûé_ãðàäèåíò_17"/><linearGradient id="Áåçûìÿííûé_ãðàäèåíò_14-3" x1="-1742.56" y1="85.96" x2="-1637.18" y2="117.73" xlink:href="#Áåçûìÿííûé_ãðàäèåíò_14"/><linearGradient id="Áåçûìÿííûé_ãðàäèåíò_14-4" x1="-1734.84" y1="97.62" x2="-1626.22" y2="115.43" xlink:href="#Áåçûìÿííûé_ãðàäèåíò_14"/><linearGradient id="Áåçûìÿííûé_ãðàäèåíò_17-4" x1="-1721.01" y1="52.53" x2="-1653.72" y2="81.13" xlink:href="#Áåçûìÿííûé_ãðàäèåíò_17"/><linearGradient id="Áåçûìÿííûé_ãðàäèåíò_11-2" x1="-1739.55" y1="113.85" x2="-1680.61" y2="139.42" xlink:href="#Áåçûìÿííûé_ãðàäèåíò_11"/><linearGradient id="Áåçûìÿííûé_ãðàäèåíò_17-5" x1="-1676.99" y1="82.54" x2="-1651.95" y2="96.02" xlink:href="#Áåçûìÿííûé_ãðàäèåíò_17"/><linearGradient id="Áåçûìÿííûé_ãðàäèåíò_17-6" x1="-1708.81" y1="131.65" x2="-1659.85" y2="131.65" xlink:href="#Áåçûìÿííûé_ãðàäèåíò_17"/><linearGradient id="Áåçûìÿííûé_ãðàäèåíò_11-3" x1="-1696.02" y1="155.02" x2="-1615.32" y2="210.65" xlink:href="#Áåçûìÿííûé_ãðàäèåíò_11"/><linearGradient id="Áåçûìÿííûé_ãðàäèåíò_17-7" x1="-1674.25" y1="127.55" x2="-1583.46" y2="166.56" xlink:href="#Áåçûìÿííûé_ãðàäèåíò_17"/><linearGradient id="Áåçûìÿííûé_ãðàäèåíò_14-5" x1="-1634.28" y1="168.91" x2="-1548.15" y2="194.88" xlink:href="#Áåçûìÿííûé_ãðàäèåíò_14"/><linearGradient id="Áåçûìÿííûé_ãðàäèåíò_11-4" x1="-1696.02" y1="109.16" x2="-1615.32" y2="164.79" xlink:href="#Áåçûìÿííûé_ãðàäèåíò_11"/><linearGradient id="Áåçûìÿííûé_ãðàäèåíò_17-8" x1="-1674.25" y1="81.7" x2="-1583.46" y2="120.71" xlink:href="#Áåçûìÿííûé_ãðàäèåíò_17"/><linearGradient id="Áåçûìÿííûé_ãðàäèåíò_14-6" x1="-1634.28" y1="123.06" x2="-1548.15" y2="149.02" xlink:href="#Áåçûìÿííûé_ãðàäèåíò_14"/><linearGradient id="Áåçûìÿííûé_ãðàäèåíò_11-5" x1="-1692" y1="72.93" x2="-1619.88" y2="122.65" xlink:href="#Áåçûìÿííûé_ãðàäèåíò_11"/><linearGradient id="Áåçûìÿííûé_ãðàäèåíò_17-9" x1="-1674.25" y1="51.14" x2="-1583.46" y2="90.15" xlink:href="#Áåçûìÿííûé_ãðàäèåíò_17"/><linearGradient id="Áåçûìÿííûé_ãðàäèåíò_14-7" x1="-1630.95" y1="85.06" x2="-1551.92" y2="108.89" xlink:href="#Áåçûìÿííûé_ãðàäèåíò_14"/><linearGradient id="Áåçûìÿííûé_ãðàäèåíò_14-8" x1="-1668.62" y1="174.74" x2="-1647.21" y2="189.5" xlink:href="#Áåçûìÿííûé_ãðàäèåíò_14"/><linearGradient id="Áåçûìÿííûé_ãðàäèåíò_14-9" x1="-1614.24" y1="158.91" x2="-1508.86" y2="190.68" xlink:href="#Áåçûìÿííûé_ãðàäèåíò_14"/><linearGradient id="Áåçûìÿííûé_ãðàäèåíò_14-10" x1="-1606.52" y1="170.56" x2="-1497.91" y2="188.38" xlink:href="#Áåçûìÿííûé_ãðàäèåíò_14"/><linearGradient id="Áåçûìÿííûé_ãðàäèåíò_17-10" x1="-1592.7" y1="125.48" x2="-1525.41" y2="154.08" xlink:href="#Áåçûìÿííûé_ãðàäèåíò_17"/><linearGradient id="Áåçûìÿííûé_ãðàäèåíò_11-6" x1="-1611.24" y1="186.8" x2="-1552.29" y2="212.36" xlink:href="#Áåçûìÿííûé_ãðàäèåíò_11"/><linearGradient id="Áåçûìÿííûé_ãðàäèåíò_17-11" x1="-1548.68" y1="155.48" x2="-1523.63" y2="168.97" xlink:href="#Áåçûìÿííûé_ãðàäèåíò_17"/><linearGradient id="Áåçûìÿííûé_ãðàäèåíò_17-12" x1="-1580.5" y1="204.59" x2="-1531.53" y2="204.59" xlink:href="#Áåçûìÿííûé_ãðàäèåíò_17"/><linearGradient id="Áåçûìÿííûé_ãðàäèåíò_14-11" x1="-1593.26" y1="171.01" x2="-1487.88" y2="202.78" xlink:href="#Áåçûìÿííûé_ãðàäèåíò_14"/><linearGradient id="Áåçûìÿííûé_ãðàäèåíò_14-12" x1="-1585.54" y1="182.66" x2="-1476.92" y2="200.48" xlink:href="#Áåçûìÿííûé_ãðàäèåíò_14"/><linearGradient id="Áåçûìÿííûé_ãðàäèåíò_17-13" x1="-1571.71" y1="137.58" x2="-1504.42" y2="166.18" xlink:href="#Áåçûìÿííûé_ãðàäèåíò_17"/><linearGradient id="Áåçûìÿííûé_ãðàäèåíò_11-7" x1="-1590.25" y1="198.9" x2="-1531.31" y2="224.46" xlink:href="#Áåçûìÿííûé_ãðàäèåíò_11"/><linearGradient id="Áåçûìÿííûé_ãðàäèåíò_17-14" x1="-1527.69" y1="167.58" x2="-1502.65" y2="181.07" xlink:href="#Áåçûìÿííûé_ãðàäèåíò_17"/><linearGradient id="Áåçûìÿííûé_ãðàäèåíò_17-15" x1="-1559.51" y1="216.69" x2="-1510.55" y2="216.69" xlink:href="#Áåçûìÿííûé_ãðàäèåíò_17"/><linearGradient id="Áåçûìÿííûé_ãðàäèåíò_48" x1="-1678.21" y1="184.04" x2="-1660.17" y2="196.29" gradientTransform="matrix(-1, 0, 0, 1, -1451.07, 0)" gradientUnits="userSpaceOnUse"><stop offset="0" stop-color="#3c9bd5"/><stop offset="0.25" stop-color="#3796d1"/><stop offset="0.56" stop-color="#2a86c6"/><stop offset="0.9" stop-color="#156db4"/><stop offset="1" stop-color="#0d64ad"/></linearGradient><linearGradient id="Áåçûìÿííûé_ãðàäèåíò_14-13" x1="-1966.31" y1="1193.44" x2="-1949.93" y2="1204.73" gradientTransform="matrix(-0.87, 0.5, 0, 1.15, -1469.19, -209.98)" xlink:href="#Áåçûìÿííûé_ãðàäèåíò_14"/><linearGradient id="Áåçûìÿííûé_ãðàäèåíò_11-8" x1="-1707.89" y1="195.62" x2="-1679.54" y2="215.17" xlink:href="#Áåçûìÿííûé_ãðàäèåíò_11"/><linearGradient id="Áåçûìÿííûé_ãðàäèåíò_17-16" x1="-1700.24" y1="185.97" x2="-1668.34" y2="199.68" xlink:href="#Áåçûìÿííûé_ãðàäèåíò_17"/><linearGradient id="Áåçûìÿííûé_ãðàäèåíò_14-14" x1="-1686.2" y1="200.5" x2="-1655.93" y2="209.63" xlink:href="#Áåçûìÿííûé_ãðàäèåíò_14"/><linearGradient id="Áåçûìÿííûé_ãðàäèåíò_11-9" x1="-1805.55" y1="201.73" x2="-1767.17" y2="201.73" xlink:href="#Áåçûìÿííûé_ãðàäèåíò_11"/><linearGradient id="Áåçûìÿííûé_ãðàäèåíò_17-17" x1="-1778.13" y1="200.79" x2="-1686.99" y2="200.79" xlink:href="#Áåçûìÿííûé_ãðàäèåíò_17"/><linearGradient id="Áåçûìÿííûé_ãðàäèåíò_2" x1="271.01" y1="120.99" x2="380.92" y2="120.99" gradientUnits="userSpaceOnUse"><stop offset="0" stop-color="#5ebdec"/><stop offset="1" stop-color="#84d0f5"/></linearGradient><linearGradient id="Áåçûìÿííûé_ãðàäèåíò_59" x1="188.4" y1="-100.85" x2="298.82" y2="-100.85" gradientTransform="matrix(0.87, -0.5, 0, 1.15, 126.39, 356.77)" gradientUnits="userSpaceOnUse"><stop offset="0" stop-color="#2e2b76"/><stop offset="1" stop-color="#262554"/></linearGradient><linearGradient id="Áåçûìÿííûé_ãðàäèåíò_3" x1="341.98" y1="-11.71" x2="206.77" y2="-123.23" gradientTransform="matrix(0.87, -0.5, 0, 1.15, 126.39, 356.77)" gradientUnits="userSpaceOnUse"><stop offset="0" stop-color="#262554"/><stop offset="0.12" stop-color="#2a2e5a"/><stop offset="0.31" stop-color="#34456c"/><stop offset="0.55" stop-color="#456b88"/><stop offset="0.82" stop-color="#5c9faf"/><stop offset="1" stop-color="#6dc4cb"/></linearGradient><linearGradient id="Áåçûìÿííûé_ãðàäèåíò_3-2" x1="387.14" y1="105.44" x2="367.8" y2="89.48" gradientTransform="matrix(1, 0, 0, 1, 0, 0)" xlink:href="#Áåçûìÿííûé_ãðàäèåíò_3"/></defs><g class="cls-1"><g id="Layer_1" data-name="Layer 1"><polygon class="cls-2" points="129.54 68.39 118.56 74.73 67.85 45.46 78.83 39.12 129.54 68.39"/><polygon class="cls-3" points="76.79 126.86 65.81 133.2 15.1 103.93 26.08 97.59 76.79 126.86"/><polygon class="cls-4" points="151.36 55.47 140.38 61.81 89.67 32.53 100.65 26.2 151.36 55.47"/><polygon class="cls-5" points="173.19 42.55 162.21 48.89 111.5 19.61 122.48 13.27 173.19 42.55"/><polygon class="cls-6" points="226.42 42.05 215.44 48.39 164.73 19.11 175.71 12.77 226.42 42.05"/><path class="cls-7" d="M265.41,201.2l-.29-.17L199.9,163.38l31-17.83.29.17,65.22,37.65ZM202.3,163.38l63.12,36.44L294,183.37l-63.12-36.44Z"/><path class="cls-8" d="M230.89,33.07v74.26l64.32,37.13V70.2Zm7.68,13.29,49,28.27v56.53l-49-28.26Z"/><path class="cls-9" d="M222.09,38.11v74.26L286.4,149.5V75.24Zm7.67,13.29,49,28.27V136.2l-49-28.27Z"/><polygon class="cls-10" points="222.09 38.11 230.9 33.07 295.21 70.2 286.4 75.24 222.09 38.11"/><polygon class="cls-11" points="295.21 70.2 286.4 75.24 286.4 149.5 295.21 144.46 295.21 70.2"/><polygon class="cls-12" points="238.57 102.9 229.76 107.93 229.76 51.4 238.56 56.48 238.57 102.9"/><polygon class="cls-13" points="238.57 102.9 229.76 107.93 278.72 136.2 278.73 126.08 238.57 102.9"/><polygon class="cls-14" points="234.48 105.24 234.48 54.15 278.72 79.67 278.72 130.36 234.48 105.24"/><path class="cls-15" d="M209.91,45.17v74.26l64.31,37.13V82.3Zm7.68,13.29,49,28.27v56.53l-49-28.27Z"/><path class="cls-16" d="M201.1,50.21v74.25l64.31,37.13V87.34Zm7.68,13.29,49,28.27V148.3l-49-28.27Z"/><polygon class="cls-17" points="201.1 50.21 209.91 45.17 274.22 82.3 265.42 87.34 201.1 50.21"/><polygon class="cls-18" points="274.22 82.3 265.42 87.34 265.42 161.59 274.22 156.56 274.22 82.3"/><polygon class="cls-19" points="217.59 115 208.78 120.03 208.78 63.5 217.58 68.58 217.59 115"/><polygon class="cls-20" points="217.59 115 208.78 120.03 257.74 148.3 257.74 138.18 217.59 115"/><polygon class="cls-14" points="213.49 117.34 213.49 66.25 257.74 91.77 257.74 142.46 213.49 117.34"/><polygon class="cls-21" points="265.42 87.34 201.1 50.21 202.62 49.37 266.93 86.5 266.93 160.76 265.42 161.59 265.42 87.34"/><polygon class="cls-21" points="286.4 75.24 222.09 38.11 223.61 37.27 287.92 74.4 287.92 148.66 286.4 149.5 286.4 75.24"/><polygon class="cls-21" points="208.78 63.5 210.3 64.38 210.3 119.2 257.74 146.59 257.74 148.3 208.78 120.03 208.78 63.5"/><polygon class="cls-22" points="209.91 45.17 222.09 38.11 286.4 75.24 286.4 149.5 274.22 156.56 274.22 82.3 209.91 45.17"/><polygon class="cls-22" points="286.4 75.24 274.22 82.3 209.91 45.17 222.09 38.11 286.4 75.24"/><polygon class="cls-23" points="174.97 255.48 238.91 218.56 174.97 181.64 111.03 218.56 174.97 255.48"/><polygon class="cls-24" points="174.97 213.92 239.28 176.79 239.28 148.27 174.97 185.4 174.97 213.92"/><polygon class="cls-25" points="174.97 185.4 239.28 148.27 174.97 111.14 110.66 148.27 174.97 185.4"/><polygon class="cls-7" points="174.97 176.54 223.93 148.27 174.97 120 126.01 148.27 174.97 176.54"/><polygon class="cls-26" points="110.66 176.79 174.97 213.92 174.97 185.4 110.66 148.27 110.66 176.79"/><polygon class="cls-27" points="174.97 168.06 239.28 130.93 239.28 102.41 174.97 139.54 174.97 168.06"/><polygon class="cls-28" points="174.97 139.54 239.28 102.41 174.97 65.28 110.66 102.41 174.97 139.54"/><polygon class="cls-21" points="174.97 138.11 238.04 101.7 239.28 102.41 174.97 139.54 110.66 102.41 111.9 101.7 174.97 138.11"/><polygon class="cls-21" points="174.97 183.97 238.04 147.55 239.28 148.27 174.97 185.4 110.66 148.27 111.9 147.55 174.97 183.97"/><polygon class="cls-7" points="174.97 79.48 220.04 105.5 174.97 131.53 129.9 105.5 174.97 79.48"/><polygon class="cls-29" points="174.97 79.48 129.9 105.5 124.54 102.41 174.97 73.3 225.4 102.41 220.04 105.5 174.97 79.48"/><polygon class="cls-30" points="110.66 130.93 174.97 168.06 174.97 139.54 110.66 102.41 110.66 130.93"/><path class="cls-7" d="M152.53,140.84a8.11,8.11,0,0,0,3.67,6.37c2,1.17,3.68.22,3.68-2.12a8.12,8.12,0,0,0-3.68-6.37C154.17,137.55,152.53,138.5,152.53,140.84Z"/><path class="cls-7" d="M139.14,133.11a8.11,8.11,0,0,0,3.67,6.37c2,1.17,3.68.22,3.68-2.12a8.12,8.12,0,0,0-3.68-6.37C140.78,129.82,139.14,130.77,139.14,133.11Z"/><path class="cls-7" d="M125.75,125.38a8.11,8.11,0,0,0,3.67,6.37c2,1.17,3.68.22,3.68-2.12a8.1,8.1,0,0,0-3.68-6.37C127.39,122.09,125.75,123,125.75,125.38Z"/><path class="cls-21" d="M154.39,138.25a3.42,3.42,0,0,0-.28,1.44,8.12,8.12,0,0,0,3.68,6.37,3.09,3.09,0,0,0,1.81.47c-.55,1.23-1.86,1.57-3.4.68a8.11,8.11,0,0,1-3.67-6.37C152.53,139.26,153.28,138.34,154.39,138.25Z"/><path class="cls-21" d="M141,130.52a3.42,3.42,0,0,0-.28,1.44,8.12,8.12,0,0,0,3.68,6.37,3.09,3.09,0,0,0,1.81.47c-.55,1.23-1.86,1.57-3.4.68a8.11,8.11,0,0,1-3.67-6.37C139.14,131.53,139.89,130.61,141,130.52Z"/><path class="cls-21" d="M127.61,122.79a3.59,3.59,0,0,0-.27,1.44A8.11,8.11,0,0,0,131,130.6a3.09,3.09,0,0,0,1.81.47c-.54,1.23-1.86,1.57-3.4.68a8.11,8.11,0,0,1-3.67-6.37C125.75,123.8,126.5,122.88,127.61,122.79Z"/><path class="cls-7" d="M152.53,186.7a8.13,8.13,0,0,0,3.67,6.37c2,1.17,3.68.22,3.68-2.12a8.12,8.12,0,0,0-3.68-6.37C154.17,183.41,152.53,184.36,152.53,186.7Z"/><path class="cls-7" d="M139.14,179a8.13,8.13,0,0,0,3.67,6.37c2,1.17,3.68.22,3.68-2.12a8.12,8.12,0,0,0-3.68-6.37C140.78,175.68,139.14,176.63,139.14,179Z"/><path class="cls-7" d="M125.75,171.24a8.13,8.13,0,0,0,3.67,6.37c2,1.17,3.68.22,3.68-2.12a8.1,8.1,0,0,0-3.68-6.37C127.39,168,125.75,168.9,125.75,171.24Z"/><path class="cls-21" d="M154.39,184.1a3.5,3.5,0,0,0-.28,1.45,8.14,8.14,0,0,0,3.68,6.37,3.09,3.09,0,0,0,1.81.47c-.55,1.23-1.86,1.57-3.4.68a8.13,8.13,0,0,1-3.67-6.37C152.53,185.12,153.28,184.2,154.39,184.1Z"/><path class="cls-21" d="M141,176.37a3.5,3.5,0,0,0-.28,1.45,8.14,8.14,0,0,0,3.68,6.37,3.09,3.09,0,0,0,1.81.47c-.55,1.23-1.86,1.57-3.4.68a8.13,8.13,0,0,1-3.67-6.37C139.14,177.39,139.89,176.47,141,176.37Z"/><path class="cls-21" d="M127.61,168.64a3.68,3.68,0,0,0-.27,1.45,8.13,8.13,0,0,0,3.67,6.37,3.09,3.09,0,0,0,1.81.47c-.54,1.23-1.86,1.57-3.4.68a8.13,8.13,0,0,1-3.67-6.37C125.75,169.66,126.5,168.74,127.61,168.64Z"/><polygon class="cls-31" points="174.97 120.62 239.28 83.49 239.28 71.85 174.97 108.98 174.97 120.62"/><polygon class="cls-32" points="174.97 108.98 239.28 71.85 174.97 34.72 110.66 71.85 174.97 108.98"/><polygon class="cls-21" points="174.97 107.56 238.04 71.14 239.28 71.85 174.97 108.98 110.66 71.85 111.9 71.14 174.97 107.56"/><polygon class="cls-33" points="110.66 83.49 174.97 120.62 174.97 108.98 110.66 71.85 110.66 83.49"/><polygon class="cls-22" points="239.28 130.93 239.28 148.27 174.97 185.4 174.97 168.06 239.28 130.93"/><polygon class="cls-22" points="110.66 130.93 110.66 148.27 174.97 185.4 174.97 168.06 110.66 130.93"/><path class="cls-7" d="M199.61,188.65l15-8.68a5.78,5.78,0,0,0,2.41-4.61h0c0-1.77-1.08-2.59-2.41-1.82l-15,8.68a5.77,5.77,0,0,0-2.41,4.6h0C197.2,188.6,198.28,189.41,199.61,188.65Z"/><path class="cls-34" d="M212.08,178.33a5.77,5.77,0,0,0,2.41-4.6s0-.07,0-.1l.16-.09c1.33-.77,2.41.05,2.41,1.82h0a5.78,5.78,0,0,1-2.41,4.61l-15,8.68c-1.31.75-2.37,0-2.41-1.73Z"/><path class="cls-7" d="M116.12,286.25,50.6,248.42l31-17.82,65.51,37.82ZM53,248.43l63.12,36.43,28.59-16.44L81.6,232Z"/><path class="cls-35" d="M81.6,118.12v74.25l64.31,37.13V155.25Zm7.67,13.29,49,28.27v56.53l-49-28.27Z"/><path class="cls-36" d="M72.79,123.15v74.26l64.31,37.13V160.28Zm7.68,13.3,48.95,28.26v56.54L80.47,193Z"/><polygon class="cls-37" points="72.79 123.15 81.6 118.11 145.91 155.25 137.1 160.28 72.79 123.15"/><polygon class="cls-38" points="145.91 155.25 137.1 160.28 137.1 234.54 145.91 229.5 145.91 155.25"/><polygon class="cls-39" points="89.27 187.94 80.47 192.98 80.47 136.45 89.27 141.53 89.27 187.94"/><polygon class="cls-40" points="89.27 187.94 80.47 192.98 129.43 221.25 129.43 211.13 89.27 187.94"/><polygon class="cls-14" points="85.18 190.28 85.18 139.2 129.43 164.72 129.43 215.4 85.18 190.28"/><path class="cls-41" d="M60.61,130.21v74.26l64.31,37.13V167.34Zm7.68,13.3,49,28.27v56.53L68.29,200Z"/><path class="cls-42" d="M51.8,135.25v74.26l64.32,37.13V172.38Zm7.68,13.3,49,28.26v56.54l-49-28.27Z"/><polygon class="cls-43" points="51.8 135.25 60.61 130.21 124.92 167.34 116.12 172.38 51.8 135.25"/><polygon class="cls-44" points="124.92 167.34 116.12 172.38 116.12 246.64 124.92 241.6 124.92 167.34"/><polygon class="cls-45" points="68.29 200.04 59.48 205.08 59.48 148.55 68.28 153.63 68.29 200.04"/><polygon class="cls-46" points="68.29 200.04 59.48 205.08 108.44 233.35 108.44 223.22 68.29 200.04"/><polygon class="cls-14" points="64.19 202.38 64.19 151.3 108.44 176.81 108.44 227.5 64.19 202.38"/><polygon class="cls-21" points="116.12 172.38 51.8 135.25 53.32 134.42 117.63 171.55 117.63 245.81 116.12 246.64 116.12 172.38"/><polygon class="cls-21" points="137.1 160.28 72.79 123.15 74.31 122.32 138.62 159.45 138.62 233.71 137.1 234.54 137.1 160.28"/><polygon class="cls-21" points="59.48 148.55 61 149.42 61 204.25 108.44 231.64 108.44 233.35 59.48 205.08 59.48 148.55"/><polygon class="cls-22" points="60.61 130.21 72.79 123.15 137.1 160.28 137.1 234.54 124.92 241.6 124.92 167.34 60.61 130.21"/><polygon class="cls-22" points="137.1 160.28 124.92 167.34 60.61 130.21 72.79 123.15 137.1 160.28"/><path class="cls-47" d="M202.58,191.34a5.31,5.31,0,0,1,2.22-4.24l13.86-8a1.39,1.39,0,0,1,1.51-.08h0l15.31,8.85L218.6,202l-15.27-8.82h0A2,2,0,0,1,202.58,191.34Z"/><path class="cls-48" d="M220.06,201.84l13.86-8a5.34,5.34,0,0,0,2.22-4.25h0c0-1.63-1-2.38-2.22-1.68l-13.86,8a5.28,5.28,0,0,0-2.22,4.24h0C217.84,201.8,218.83,202.55,220.06,201.84Z"/><polygon class="cls-49" points="232.23 216.31 254.83 203.27 254.83 193.25 232.23 206.29 232.23 216.31"/><polygon class="cls-50" points="232.23 206.29 254.83 193.25 232.23 180.2 209.63 193.25 232.23 206.29"/><polygon class="cls-51" points="209.63 203.27 232.23 216.31 232.23 206.29 209.63 193.25 209.63 203.27"/><polygon class="cls-21" points="232.23 205.79 254.39 193 254.83 193.25 232.23 206.29 209.63 193.25 210.07 193 232.23 205.79"/><polygon class="cls-7" points="236.58 208.07 249.69 200.41 260.74 209.26 261.68 216.89 261.68 223.85 313.4 255.01 324.31 261.45 322.65 266.44 315.06 269.45 304.57 266.33 278.04 249.72 254.83 236.84 248.33 231.85 247.91 221.26 247.08 214.82 236.58 208.07"/><path class="cls-7" d="M314.51,271.21a12.63,12.63,0,0,0,12.55-12.57V132.09a1.72,1.72,0,1,0-3.43,0V258.64a9.12,9.12,0,0,1-13.68,7.9L253,233.64a6.48,6.48,0,0,1-3.23-5.6v-7.85a9.93,9.93,0,0,0-4.94-8.57l-6.38-3.68a1.72,1.72,0,0,0-1.72,3l6.38,3.68a6.47,6.47,0,0,1,3.23,5.6V228a9.92,9.92,0,0,0,5,8.57l56.9,32.89A12.49,12.49,0,0,0,314.51,271.21Z"/><path class="cls-7" d="M249.06,201a1.7,1.7,0,0,1,2.34-.62l6.38,3.68a9.92,9.92,0,0,1,5,8.57v7.85a6.48,6.48,0,0,0,3.23,5.6l59.36,34.31a9.12,9.12,0,0,0,3.73,1.19c-.12,1.14-.08,2.29-.17,3.43a12.4,12.4,0,0,1-5.27-1.65l-59.37-34.32a9.91,9.91,0,0,1-4.94-8.56v-7.85a6.48,6.48,0,0,0-3.23-5.6l-6.38-3.69A1.72,1.72,0,0,1,249.06,201Z"/><path class="cls-52" d="M319.45,270.18l5.21-6.52.74-7.72V237.25l0-98.22L339,141.35V135a1.72,1.72,0,1,1,3.43,0V252.53a12.42,12.42,0,0,1-6.27,10.87,12.65,12.65,0,0,1-2.19,1h0Z"/><path class="cls-53" d="M314.51,271.21a12.63,12.63,0,0,0,12.55-12.57V132.09a1.72,1.72,0,1,0-3.43,0V258.64a9.12,9.12,0,0,1-13.68,7.9L253,233.64a6.48,6.48,0,0,1-3.23-5.6v-7.85a9.93,9.93,0,0,0-4.94-8.57l-6.38-3.68a1.72,1.72,0,0,0-1.72,3l6.38,3.68a6.47,6.47,0,0,1,3.23,5.6V228a9.92,9.92,0,0,0,5,8.57l56.9,32.89A12.49,12.49,0,0,0,314.51,271.21Z"/><polygon class="cls-54" points="227.46 211.51 229.77 212.84 229.77 208.21 227.46 206.88 227.46 211.51"/><polygon class="cls-54" points="223.62 209.29 225.93 210.62 225.93 205.99 223.62 204.66 223.62 209.29"/><polygon class="cls-54" points="219.78 207.07 222.09 208.41 222.09 203.77 219.78 202.44 219.78 207.07"/><polygon class="cls-7" points="215.94 204.85 218.25 206.19 218.25 201.55 215.94 200.22 215.94 204.85"/><polygon class="cls-7" points="212.1 202.64 214.4 203.97 214.4 199.34 212.1 198 212.1 202.64"/><path class="cls-55" d="M380.92,89.47,362.2,78.59h0c-2.79-1.66-6.68-1.46-11,1a24.34,24.34,0,0,0-4.06,3l-7.54-4.36h0c-4.14-2.91-10.14-2.79-16.82,1.07-8.44,4.87-15.8,14.46-19.69,24.62a9.15,9.15,0,0,0-4.25,1.35c-5.51,3.18-10,10.92-10,17.28,0,.14,0,.26,0,.39a12.19,12.19,0,0,0-5.14,1.72c-7,4.07-12.76,14-12.76,22.11,0,4,1.4,6.87,3.68,8.22h0l.06,0h0l18.48,10.73,4-19.42,54-31.15c6.89-4,12.73-12.59,14.69-20.93Z"/><path class="cls-7" d="M271.52,147.22c0-8.14,5.71-18,12.76-22.11a12.15,12.15,0,0,1,5.13-1.72c0-.13,0-.25,0-.39,0-6.36,4.46-14.1,10-17.28a9.18,9.18,0,0,1,4.25-1.35c3.9-10.16,11.26-19.75,19.7-24.62,6.68-3.86,12.68-4,16.82-1.07h0L347.68,83a24.27,24.27,0,0,1,4.05-3c4.3-2.49,8.19-2.69,11-1h0l18.05,10.49.16,0L362.2,78.59h0c-2.79-1.66-6.68-1.46-11,1a24.34,24.34,0,0,0-4.06,3l-7.54-4.36h0c-4.14-2.91-10.14-2.79-16.82,1.07-8.44,4.87-15.8,14.46-19.69,24.62a9.15,9.15,0,0,0-4.25,1.35c-5.51,3.18-10,10.92-10,17.28,0,.14,0,.26,0,.39a12.19,12.19,0,0,0-5.14,1.72c-7,4.07-12.76,14-12.76,22.11,0,3.66,1.17,6.33,3.08,7.8C272.48,153,271.52,150.54,271.52,147.22Z"/><path class="cls-56" d="M369.76,90.38a27.38,27.38,0,0,0-6.75,5.7c-2.82-9.09-11.45-11.91-21.66-6-8.44,4.87-15.8,14.46-19.7,24.62A9.15,9.15,0,0,0,317.4,116c-5.51,3.18-10,10.91-10,17.28,0,.13,0,.26,0,.39a12.11,12.11,0,0,0-5.13,1.72c-7.05,4.07-12.77,14-12.77,22.11s5.72,11.43,12.77,7.36L369.76,126c8.51-4.91,15.41-16.86,15.41-26.68S378.27,85.47,369.76,90.38Z"/><path class="cls-57" d="M369.76,90.38a27.38,27.38,0,0,0-6.75,5.7c-2.82-9.09-11.45-11.91-21.66-6-8.44,4.87-15.8,14.46-19.7,24.62A9.15,9.15,0,0,0,317.4,116c-5.51,3.18-10,10.91-10,17.28,0,.13,0,.26,0,.39a12.11,12.11,0,0,0-5.13,1.72c-7.05,4.07-12.77,14-12.77,22.11s5.72,11.43,12.77,7.36L369.76,126c8.51-4.91,15.41-16.86,15.41-26.68S378.27,85.47,369.76,90.38Z"/><path class="cls-7" d="M369.76,90.38a27.38,27.38,0,0,0-6.75,5.7c-2.82-9.09-11.45-11.91-21.66-6-8.44,4.87-15.8,14.46-19.7,24.62A9.15,9.15,0,0,0,317.4,116c-5.51,3.18-10,10.91-10,17.28,0,.13,0,.26,0,.39a12.11,12.11,0,0,0-5.13,1.72c-7.05,4.07-12.77,14-12.77,22.11s5.72,11.43,12.77,7.36L369.76,126c8.51-4.91,15.41-16.86,15.41-26.68S378.27,85.47,369.76,90.38Z"/><path class="cls-58" d="M363.83,97.1a27.55,27.55,0,0,1,6.75-5.69c5.22-3,9.83-2.67,12.61.31-2.63-3.9-7.66-4.67-13.43-1.34a27,27,0,0,0-6.43,5.36C363.51,96.18,363.68,96.63,363.83,97.1Z"/></g></g></svg>