<svg xmlns="http://www.w3.org/2000/svg" xmlns:xlink="http://www.w3.org/1999/xlink" viewBox="0 0 400 300"><defs><style>.cls-1{fill:#c8d4ee;}.cls-2{fill:#dce8f8;}.cls-3{fill:none;}.cls-4{fill:#bfcdea;}.cls-5{isolation:isolate;}.cls-6{fill:#5ec5ec;}.cls-7{mix-blend-mode:overlay;}.cls-21,.cls-8{opacity:0;}.cls-21,.cls-9{fill:#7f8080;}.cls-10{opacity:0.17;}.cls-11{fill:#8e9091;}.cls-12{opacity:0.33;}.cls-13{fill:#9ea1a4;}.cls-109,.cls-14,.cls-24{opacity:0.5;}.cls-15{fill:#b0b4b8;}.cls-16{opacity:0.67;}.cls-17{fill:#c1c7cd;}.cls-18{opacity:0.83;}.cls-19{fill:#d3dbe4;}.cls-20{fill:#e6f1fb;}.cls-22{fill:#909191;opacity:0.17;}.cls-23,.cls-44{fill:#a1a2a5;}.cls-23{opacity:0.33;}.cls-24{fill:#b4b6b9;}.cls-25,.cls-61{fill:#c7cace;}.cls-25{opacity:0.67;}.cls-26{fill:#dbdfe5;opacity:0.83;}.cls-106,.cls-107,.cls-108,.cls-109,.cls-27{fill:#eff6fd;}.cls-28{fill:#818282;opacity:0.02;}.cls-29{fill:#838484;opacity:0.04;}.cls-30{fill:#858686;opacity:0.06;}.cls-31{fill:#878888;opacity:0.08;}.cls-32{fill:#898a8a;opacity:0.1;}.cls-33{fill:#8b8c8c;opacity:0.12;}.cls-34{fill:#8d8e8e;opacity:0.14;}.cls-35{fill:#8f9090;opacity:0.16;}.cls-36{fill:#919293;opacity:0.18;}.cls-37{fill:#939495;opacity:0.2;}.cls-38{fill:#959697;opacity:0.22;}.cls-39{fill:#979899;opacity:0.24;}.cls-40{fill:#999a9b;opacity:0.25;}.cls-41{fill:#9b9c9e;opacity:0.27;}.cls-42{fill:#9d9ea0;opacity:0.29;}.cls-43{fill:#9fa0a2;opacity:0.31;}.cls-44{opacity:0.33;}.cls-45{fill:#a4a5a7;opacity:0.35;}.cls-46{fill:#a6a7a9;opacity:0.37;}.cls-47{fill:#a8a9ac;opacity:0.39;}.cls-48{fill:#aaabae;opacity:0.41;}.cls-49{fill:#acaeb0;opacity:0.43;}.cls-50{fill:#afb0b3;opacity:0.45;}.cls-51{fill:#b1b2b5;opacity:0.47;}.cls-52{fill:#b3b5b8;opacity:0.49;}.cls-53{fill:#b5b7ba;opacity:0.51;}.cls-54{fill:#b8b9bd;opacity:0.53;}.cls-55{fill:#babcbf;opacity:0.55;}.cls-56{fill:#bcbec2;opacity:0.57;}.cls-57{fill:#bec0c4;opacity:0.59;}.cls-58{fill:#c0c3c7;opacity:0.61;}.cls-59{fill:#c3c5c9;opacity:0.63;}.cls-60{fill:#c5c7cc;opacity:0.65;}.cls-61{opacity:0.67;}.cls-62{fill:#c9ccd1;opacity:0.69;}.cls-63{fill:#cbced3;opacity:0.71;}.cls-64{fill:#ced1d6;opacity:0.73;}.cls-65{fill:#d0d3d9;opacity:0.75;}.cls-66{fill:#d2d6db;opacity:0.76;}.cls-67{fill:#d5d8de;opacity:0.78;}.cls-68{fill:#d7dbe1;opacity:0.8;}.cls-69{fill:#dadee4;opacity:0.82;}.cls-70{fill:#dce0e6;opacity:0.84;}.cls-71{fill:#dfe3e9;opacity:0.86;}.cls-72{fill:#e1e6ec;opacity:0.88;}.cls-73{fill:#e3e8ef;opacity:0.9;}.cls-74{fill:#e6ebf2;opacity:0.92;}.cls-75{fill:#e8eef4;opacity:0.94;}.cls-76{fill:#eaf0f7;opacity:0.96;}.cls-77{fill:#edf3fa;opacity:0.98;}.cls-78{fill:#99a3d3;}.cls-79{clip-path:url(#clip-path);}.cls-80{clip-path:url(#clip-path-2);}.cls-81{fill:#458fcd;}.cls-82{clip-path:url(#clip-path-3);}.cls-83{fill:#cfdbf1;}.cls-84{fill:#d5e1f4;}.cls-85{clip-path:url(#clip-path-4);}.cls-86{clip-path:url(#clip-path-5);}.cls-87{clip-path:url(#clip-path-6);}.cls-88{clip-path:url(#clip-path-7);}.cls-89{clip-path:url(#clip-path-8);}.cls-90{clip-path:url(#clip-path-9);}.cls-91{clip-path:url(#clip-path-10);}.cls-92{clip-path:url(#clip-path-11);}.cls-93{clip-path:url(#clip-path-12);}.cls-94{clip-path:url(#clip-path-13);}.cls-95{clip-path:url(#clip-path-14);}.cls-96{clip-path:url(#clip-path-15);}.cls-97{clip-path:url(#clip-path-16);}.cls-98{clip-path:url(#clip-path-17);}.cls-99{clip-path:url(#clip-path-18);}.cls-100{clip-path:url(#clip-path-19);}.cls-101{clip-path:url(#clip-path-20);}.cls-102{clip-path:url(#clip-path-21);}.cls-103{clip-path:url(#clip-path-22);}.cls-104,.cls-108{opacity:0.7;}.cls-105{fill:#58c3e8;}.cls-106{opacity:0.4;}.cls-107{opacity:0.3;}</style><clipPath id="clip-path"><path id="SVGID" class="cls-1" d="M267,129.92l-.22,77.74a1.32,1.32,0,0,1-.78,1.09l.22-77.74A1.33,1.33,0,0,0,267,129.92Z"/></clipPath><clipPath id="clip-path-2"><path id="SVGID-2" data-name="SVGID" class="cls-2" d="M205.57,207.65l.22-77.75a1.35,1.35,0,0,0,.79,1.11l-.22,77.74A1.33,1.33,0,0,1,205.57,207.65Z"/></clipPath><clipPath id="clip-path-3"><path id="SVGID-3" data-name="SVGID" class="cls-3" d="M238.4,147.19l-.22,77.75a4.22,4.22,0,0,1-3.79,0l.22-77.75A4.15,4.15,0,0,0,238.4,147.19Z"/></clipPath><clipPath id="clip-path-4"><path id="SVGID-4" data-name="SVGID" class="cls-1" d="M210.37,128.24l0,2.37a1.13,1.13,0,0,0,.66.93l0-2.37A1.15,1.15,0,0,1,210.37,128.24Z"/></clipPath><clipPath id="clip-path-5"><path id="SVGID-5" data-name="SVGID" class="cls-2" d="M262.44,130.6l0-2.37a1.14,1.14,0,0,1-.67.94l0,2.37A1.14,1.14,0,0,0,262.44,130.6Z"/></clipPath><clipPath id="clip-path-6"><path id="SVGID-6" data-name="SVGID" class="cls-3" d="M234.73,142.94l0,2.37a3.52,3.52,0,0,0,3.22,0l0-2.37A3.58,3.58,0,0,1,234.73,142.94Z"/></clipPath><clipPath id="clip-path-7"><path id="SVGID-7" data-name="SVGID" class="cls-1" d="M222.87,154.25,222.65,232a1.32,1.32,0,0,1-.78,1.08l.22-77.74A1.33,1.33,0,0,0,222.87,154.25Z"/></clipPath><clipPath id="clip-path-8"><path id="SVGID-8" data-name="SVGID" class="cls-2" d="M161.42,232l.22-77.75a1.35,1.35,0,0,0,.79,1.11l-.22,77.74A1.33,1.33,0,0,1,161.42,232Z"/></clipPath><clipPath id="clip-path-9"><path id="SVGID-9" data-name="SVGID" class="cls-3" d="M194.25,171.52,194,249.27a4.22,4.22,0,0,1-3.79,0l.22-77.75A4.15,4.15,0,0,0,194.25,171.52Z"/></clipPath><clipPath id="clip-path-10"><path id="SVGID-10" data-name="SVGID" class="cls-1" d="M166.22,152.57l0,2.38a1.12,1.12,0,0,0,.66.92l0-2.37A1.13,1.13,0,0,1,166.22,152.57Z"/></clipPath><clipPath id="clip-path-11"><path id="SVGID-11" data-name="SVGID" class="cls-2" d="M218.29,154.93l0-2.37a1.14,1.14,0,0,1-.67.94l0,2.37A1.14,1.14,0,0,0,218.29,154.93Z"/></clipPath><clipPath id="clip-path-12"><path id="SVGID-12" data-name="SVGID" class="cls-3" d="M190.58,167.27l0,2.37a3.54,3.54,0,0,0,3.23,0l0-2.37A3.58,3.58,0,0,1,190.58,167.27Z"/></clipPath><clipPath id="clip-path-13"><path id="SVGID-13" data-name="SVGID" class="cls-1" d="M178.26,181.19,178,258.94a1.35,1.35,0,0,1-.78,1.09l.22-77.75A1.32,1.32,0,0,0,178.26,181.19Z"/></clipPath><clipPath id="clip-path-14"><path id="SVGID-14" data-name="SVGID" class="cls-2" d="M116.8,258.92l.22-77.74a1.34,1.34,0,0,0,.8,1.1L117.59,260A1.37,1.37,0,0,1,116.8,258.92Z"/></clipPath><clipPath id="clip-path-15"><path id="SVGID-15" data-name="SVGID" class="cls-3" d="M149.63,198.47l-.22,77.74a4.15,4.15,0,0,1-3.79,0l.22-77.74A4.22,4.22,0,0,0,149.63,198.47Z"/></clipPath><clipPath id="clip-path-16"><path id="SVGID-16" data-name="SVGID" class="cls-1" d="M121.61,179.52l0,2.37a1.13,1.13,0,0,0,.67.93l0-2.38A1.12,1.12,0,0,1,121.61,179.52Z"/></clipPath><clipPath id="clip-path-17"><path id="SVGID-17" data-name="SVGID" class="cls-2" d="M173.67,181.88l0-2.38a1.16,1.16,0,0,1-.67.94l0,2.38A1.14,1.14,0,0,0,173.67,181.88Z"/></clipPath><clipPath id="clip-path-18"><path id="SVGID-18" data-name="SVGID" class="cls-3" d="M146,194.21l0,2.38a3.58,3.58,0,0,0,3.22,0l0-2.38A3.54,3.54,0,0,1,146,194.21Z"/></clipPath><clipPath id="clip-path-19"><path id="SVGID-19" data-name="SVGID" class="cls-4" d="M228.57,19.74l11.32,6.58c-3.78-2.2-9-1.89-14.79,1.45a30.72,30.72,0,0,0-3.62,2.45l-11.32-6.58a30.62,30.62,0,0,1,3.61-2.45C219.55,17.85,224.79,17.54,228.57,19.74Z"/></clipPath><clipPath id="clip-path-20"><path id="SVGID-20" data-name="SVGID" class="cls-4" d="M202,11.84l11.33,6.58c-5.67-3.29-13.52-2.83-22.19,2.18L179.84,14C188.5,9,196.35,8.55,202,11.84Z"/></clipPath><clipPath id="clip-path-21"><path id="SVGID-21" data-name="SVGID" class="cls-4" d="M161,65.14l-11.32-6.58C153,41,165.24,22.44,179.84,14l11.32,6.59C176.57,29,164.35,47.62,161,65.14Z"/></clipPath><clipPath id="clip-path-22"><path id="SVGID-22" data-name="SVGID" class="cls-4" d="M142.72,116.1l-11.33-6.58c-3.73-2.17-6-6.78-6.06-13.34,0-13.19,9.24-29.26,20.72-35.89a23.68,23.68,0,0,1,3.62-1.73L161,65.14a24.13,24.13,0,0,0-3.62,1.73c-11.48,6.63-20.76,22.7-20.72,35.89C136.67,109.32,139,113.93,142.72,116.1Z"/></clipPath></defs><g class="cls-5"><g id="Layer_1" data-name="Layer 1"><g id="_9" data-name="9"><polygon class="cls-6" points="186.52 280.76 186.39 280.69 159.97 265.38 160.22 264.94 186.52 280.18 273.2 230.15 241.47 211.82 241.72 211.39 274.21 230.15 273.83 230.36 186.52 280.76"/><rect class="cls-6" x="165.65" y="264.5" width="0.51" height="1.01" transform="translate(-146.54 276.48) rotate(-60.06)"/><path class="cls-6" d="M190.84,279.66l-1.76-1,.25-.44,1.76,1Zm-3.52-2-1.76-1,.25-.44,1.76,1Zm-3.52-2-1.76-1,.25-.44,1.76,1Zm-3.52-2-1.76-1,.26-.44,1.76,1Zm-3.51-2-1.76-1,.25-.44,1.76,1Zm-3.52-2-1.76-1,.25-.43,1.76,1Zm-3.52-2-1.76-1,.25-.44,1.76,1Z"/><polygon class="cls-6" points="193.6 281.25 192.59 280.67 192.85 280.23 193.6 280.67 194.35 280.23 194.6 280.67 193.6 281.25"/><path class="cls-6" d="M196.31,279.68l-.25-.44,1.71-1,.25.43Zm3.43-2-.26-.44,1.72-1,.25.44Zm3.42-2-.25-.44,1.71-1,.25.44Zm3.43-2-.26-.44,1.72-1,.25.44Zm3.42-2-.25-.43,1.71-1,.25.44Zm3.43-2-.26-.44,1.72-1,.25.44Zm3.42-2-.25-.44,1.71-1,.25.44Zm3.43-2-.26-.44,1.71-1,.26.43Zm3.42-2-.25-.43,1.71-1,.25.44Zm3.42-2-.25-.44,1.71-1,.26.44Zm3.43-2-.25-.44,1.71-1,.25.44Zm3.42-2-.25-.43,1.71-1,.26.43Z"/><polygon class="cls-6" points="237.41 255.96 237.16 255.52 237.66 255.23 237.16 254.93 237.42 254.5 238.66 255.24 237.41 255.96"/><path class="cls-6" d="M235.36,253.87l-1.79-1.06.25-.44,1.8,1.07Zm-3.59-2.12-1.8-1.07.26-.43,1.8,1.06Zm-3.59-2.13-1.8-1.06.26-.44,1.8,1.06Zm-3.59-2.13-1.8-1.06.26-.43,1.79,1.06Zm-3.6-2.12-1.79-1.06.26-.44,1.79,1.06Zm-3.59-2.13-1.79-1.06.25-.44,1.8,1.07Zm-3.59-2.12-1.8-1.07.26-.43,1.8,1.06ZM210.22,239l-1.8-1.06.26-.44,1.8,1.07Zm-3.59-2.12-1.8-1.07.26-.43,1.79,1.06Z"/><rect class="cls-6" x="202.47" y="233.76" width="0.51" height="1.01" transform="matrix(0.51, -0.86, 0.86, 0.51, -102.13, 289.38)"/><rect class="cls-6" x="199.23" y="235.64" width="0.51" height="1.01" transform="matrix(0.51, -0.86, 0.86, 0.51, -105.29, 287.82)"/><path class="cls-6" d="M226.39,252.32l-1.67-1,.26-.44,1.66,1Zm-3.33-2-1.66-1,.26-.44,1.66,1Zm-3.32-2-1.67-1,.26-.43,1.66,1Zm-3.33-2-1.66-1L215,245l1.66,1Zm-3.32-2-1.67-1,.26-.44,1.66,1Zm-3.33-2-1.66-1,.26-.43,1.66,1Zm-3.32-2-1.66-1,.25-.43,1.66,1Zm-3.33-2-1.66-1,.26-.44,1.66,1Z"/><polygon class="cls-6" points="229.05 253.89 228.05 253.3 228.31 252.87 229.05 253.3 229.79 252.87 230.05 253.3 229.05 253.89"/><path class="cls-6" d="M231.78,252.28l-.26-.44,1.74-1,.25.44Zm3.47-2.06-.26-.43,1.73-1,.26.44Zm3.46-2.05-.25-.43,1.73-1,.26.44Zm3.47-2-.26-.43,1.74-1,.25.44Zm3.47-2.05-.26-.43,1.73-1,.26.44Zm3.46-2-.25-.43,1.73-1,.26.44Zm3.47-2.05-.26-.43,1.74-1,.25.44Zm3.47-2.05-.26-.43,1.73-1,.26.44Zm3.46-2-.26-.44,1.74-1,.26.43Zm3.47-2.05-.26-.44,1.73-1,.26.43Zm3.46-2-.25-.44,1.73-1,.26.43Zm3.47-2.05-.26-.44,1.74-1,.25.43Z"/><polygon class="cls-6" points="273.38 227.67 273.12 227.23 273.62 226.94 273.12 226.66 273.37 226.22 274.62 226.93 273.38 227.67"/><path class="cls-6" d="M271.34,225.65l-1.77-1,.25-.44,1.77,1Zm-3.55-2-1.77-1,.25-.44,1.77,1Zm-3.54-2-1.78-1,.25-.44,1.77,1Zm-3.55-2-1.78-1,.25-.44,1.78,1Zm-3.55-2-1.77-1,.25-.44,1.77,1Zm-3.55-2-1.77-1,.25-.44,1.77,1Zm-3.55-2-1.77-1,.25-.44,1.77,1Zm-3.54-2-1.78-1,.25-.44,1.78,1Zm-3.55-2-1.77-1,.24-.44,1.78,1Zm-3.55-2-1.77-1,.25-.44,1.77,1Zm-3.55-2-1.77-1,.25-.44,1.77,1Z"/><rect class="cls-6" x="231.75" y="202.53" width="0.51" height="1.01" transform="translate(-59.07 304.65) rotate(-60.44)"/><g class="cls-7"><g class="cls-8"><path class="cls-9" d="M243.44,51.51c14.59-8.43,26.88-4,30.32,9.62a30.62,30.62,0,0,1,3.61-2.45c11.49-6.63,20.83-1.31,20.86,11.89,0,12.36-8.11,27.25-18.58,34.53l-69.86,40.47c-11.49,6.63-20.83,1.3-20.87-11.89s9.25-29.27,20.73-35.9a23.16,23.16,0,0,1,3.62-1.72C216.62,78.53,228.84,59.94,243.44,51.51Z"/></g><g class="cls-10"><path class="cls-11" d="M234.72,46.36c14.6-8.43,26.88-4,30.33,9.62a30.62,30.62,0,0,1,3.61-2.45c11.48-6.63,20.82-1.31,20.86,11.89,0,12.36-8.11,27.25-18.58,34.53l-69.87,40.46c-11.48,6.63-20.82,1.31-20.86-11.88s9.24-29.27,20.73-35.9a24.57,24.57,0,0,1,3.61-1.73C207.91,73.38,220.13,54.78,234.72,46.36Z"/></g><g class="cls-12"><path class="cls-13" d="M226,41.2c14.6-8.42,26.88-4,30.32,9.63A30.72,30.72,0,0,1,260,48.38c11.48-6.63,20.82-1.31,20.86,11.88,0,12.37-8.11,27.26-18.58,34.54l-69.87,40.46c-11.48,6.63-20.82,1.31-20.86-11.89s9.24-29.26,20.73-35.89a23.59,23.59,0,0,1,3.61-1.73C199.2,68.23,211.42,49.63,226,41.2Z"/></g><g class="cls-14"><path class="cls-15" d="M217.3,36.05c14.59-8.42,26.88-4,30.32,9.62a32.43,32.43,0,0,1,3.62-2.45c11.48-6.63,20.82-1.3,20.86,11.89,0,12.37-8.11,27.25-18.59,34.54l-69.86,40.46c-11.49,6.63-20.83,1.31-20.86-11.89S172,89,183.51,82.32a24.56,24.56,0,0,1,3.62-1.72C190.48,63.08,202.7,44.48,217.3,36.05Z"/></g><g class="cls-16"><path class="cls-17" d="M208.59,30.9c14.59-8.43,26.88-4,30.32,9.62a30.62,30.62,0,0,1,3.61-2.45C254,31.44,263.35,36.76,263.38,50c0,12.36-8.11,27.25-18.58,34.53L174.94,125c-11.49,6.63-20.83,1.3-20.87-11.89s9.25-29.27,20.73-35.9a24.09,24.09,0,0,1,3.62-1.72C181.77,57.93,194,39.33,208.59,30.9Z"/></g><g class="cls-18"><path class="cls-19" d="M199.87,25.75c14.6-8.43,26.88-4,30.33,9.62a30.62,30.62,0,0,1,3.61-2.45c11.48-6.63,20.82-1.31,20.86,11.89,0,12.36-8.11,27.25-18.58,34.53L166.22,119.8c-11.48,6.63-20.82,1.31-20.86-11.88S154.6,78.65,166.09,72a24.57,24.57,0,0,1,3.61-1.73C173.06,52.77,185.28,34.17,199.87,25.75Z"/></g><path class="cls-20" d="M191.16,20.6c14.6-8.43,26.88-4,30.32,9.62a30.72,30.72,0,0,1,3.62-2.45c11.48-6.63,20.82-1.31,20.86,11.88,0,12.37-8.11,27.26-18.58,34.54l-69.87,40.46c-11.48,6.63-20.82,1.31-20.86-11.89s9.24-29.26,20.72-35.89A24.13,24.13,0,0,1,161,65.14C164.35,47.62,176.57,29,191.16,20.6Z"/></g><g class="cls-7"><circle class="cls-21" cx="145.12" cy="181.68" r="72.53" transform="translate(-86.1 206.27) rotate(-57.45)"/><circle class="cls-22" cx="145.12" cy="181.68" r="62.21" transform="matrix(0.56, -0.83, 0.83, 0.56, -86.69, 199.8)"/><path class="cls-23" d="M197,181.22a51.89,51.89,0,1,1-52.35-51.44A51.89,51.89,0,0,1,197,181.22Z"/><path class="cls-24" d="M186.69,181.31a41.57,41.57,0,1,1-41.94-41.21A41.57,41.57,0,0,1,186.69,181.31Z"/><path class="cls-25" d="M176.37,181.4a31.25,31.25,0,1,1-31.53-31A31.25,31.25,0,0,1,176.37,181.4Z"/><path class="cls-26" d="M166.05,181.49a20.93,20.93,0,1,1-21.12-20.75A20.93,20.93,0,0,1,166.05,181.49Z"/><path class="cls-27" d="M155.73,181.58A10.62,10.62,0,1,1,145,171.06,10.62,10.62,0,0,1,155.73,181.58Z"/></g><g class="cls-7"><circle class="cls-21" cx="239.17" cy="127.38" r="72.53" transform="translate(0.59 255.86) rotate(-56.34)"/><circle class="cls-22" cx="239.17" cy="127.38" r="62.21" transform="translate(-2.66 249.62) rotate(-54.86)"/><circle class="cls-23" cx="239.17" cy="127.38" r="51.89" transform="translate(-9.42 235.23) rotate(-51.49)"/><circle class="cls-24" cx="239.17" cy="127.38" r="41.57" transform="translate(-27.34 176.37) rotate(-38.46)"/><path class="cls-25" d="M270.42,127.1a31.25,31.25,0,1,1-31.53-31A31.24,31.24,0,0,1,270.42,127.1Z"/><path class="cls-26" d="M260.1,127.19A20.93,20.93,0,1,1,239,106.44,20.93,20.93,0,0,1,260.1,127.19Z"/><path class="cls-27" d="M249.78,127.28a10.61,10.61,0,1,1-10.7-10.52A10.61,10.61,0,0,1,249.78,127.28Z"/></g><g class="cls-7"><circle class="cls-21" cx="192.15" cy="150.14" r="72.53" transform="translate(-45.27 205.78) rotate(-51.19)"/><circle class="cls-28" cx="192.15" cy="150.14" r="71.32" transform="translate(-45.03 206.78) rotate(-51.44)"/><circle class="cls-29" cx="192.15" cy="150.14" r="70.11" transform="translate(-44.78 207.83) rotate(-51.69)"/><circle class="cls-30" cx="192.15" cy="150.14" r="68.89" transform="translate(-44.51 208.92) rotate(-51.95)"/><circle class="cls-31" cx="192.15" cy="150.14" r="67.68" transform="translate(-44.22 210.06) rotate(-52.23)"/><circle class="cls-32" cx="192.15" cy="150.14" r="66.46" transform="translate(-43.92 211.25) rotate(-52.52)"/><circle class="cls-33" cx="192.15" cy="150.14" r="65.25" transform="translate(-43.59 212.5) rotate(-52.82)"/><circle class="cls-34" cx="192.15" cy="150.14" r="64.03" transform="translate(-43.24 213.8) rotate(-53.14)"/><circle class="cls-35" cx="192.15" cy="150.14" r="62.82" transform="translate(-42.87 215.16) rotate(-53.47)"/><circle class="cls-36" cx="192.15" cy="150.14" r="61.61" transform="translate(-42.47 216.58) rotate(-53.81)"/><circle class="cls-37" cx="192.15" cy="150.14" r="60.39" transform="translate(-42.05 218.07) rotate(-54.18)"/><circle class="cls-38" cx="192.15" cy="150.14" r="59.18" transform="translate(-41.59 219.63) rotate(-54.56)"/><circle class="cls-39" cx="192.15" cy="150.14" r="57.96" transform="translate(-41.09 221.28) rotate(-54.96)"/><circle class="cls-40" cx="192.15" cy="150.14" r="56.75" transform="translate(-40.56 223) rotate(-55.39)"/><circle class="cls-41" cx="192.15" cy="150.14" r="55.54" transform="translate(-39.99 224.81) rotate(-55.84)"/><circle class="cls-42" cx="192.15" cy="150.14" r="54.32" transform="translate(-39.36 226.71) rotate(-56.31)"/><circle class="cls-43" cx="192.15" cy="150.14" r="53.11" transform="translate(-38.69 228.72) rotate(-56.8)"/><circle class="cls-44" cx="192.15" cy="150.14" r="51.89" transform="translate(-37.96 230.83) rotate(-57.33)"/><circle class="cls-45" cx="192.15" cy="150.14" r="50.68" transform="translate(-37.17 233.05) rotate(-57.88)"/><circle class="cls-46" cx="192.15" cy="150.14" r="49.47" transform="translate(-36.31 235.39) rotate(-58.47)"/><circle class="cls-47" cx="192.15" cy="150.14" r="48.25" transform="translate(-35.37 237.86) rotate(-59.09)"/><circle class="cls-48" cx="192.15" cy="150.14" r="47.04" transform="translate(-34.35 240.47) rotate(-59.75)"/><circle class="cls-49" cx="192.15" cy="150.14" r="45.82" transform="translate(-33.23 243.22) rotate(-60.44)"/><circle class="cls-50" cx="192.15" cy="150.14" r="44.61" transform="translate(-32.01 246.12) rotate(-61.18)"/><circle class="cls-51" cx="192.15" cy="150.14" r="43.4" transform="translate(-30.68 249.18) rotate(-61.97)"/><circle class="cls-52" cx="192.15" cy="150.14" r="42.18" transform="translate(-29.22 252.41) rotate(-62.8)"/><circle class="cls-53" cx="192.15" cy="150.14" r="40.97" transform="translate(-27.61 255.82) rotate(-63.69)"/><circle class="cls-54" cx="192.15" cy="150.14" r="39.75" transform="translate(-25.85 259.4) rotate(-64.62)"/><circle class="cls-55" cx="192.15" cy="150.14" r="38.54" transform="translate(-23.92 263.17) rotate(-65.62)"/><circle class="cls-56" cx="192.15" cy="150.14" r="37.32" transform="translate(-21.8 267.13) rotate(-66.67)"/><circle class="cls-57" cx="192.15" cy="150.14" r="36.11" transform="translate(-19.48 271.28) rotate(-67.79)"/><circle class="cls-58" cx="192.15" cy="150.14" r="34.9" transform="matrix(0.36, -0.93, 0.93, 0.36, -16.93, 275.62)"/><path class="cls-59" d="M225.83,149.84a33.69,33.69,0,1,1-34-33.38A33.7,33.7,0,0,1,225.83,149.84Z"/><path class="cls-60" d="M224.61,149.85a32.47,32.47,0,1,1-32.75-32.18A32.46,32.46,0,0,1,224.61,149.85Z"/><path class="cls-61" d="M223.4,149.86a31.26,31.26,0,1,1-31.53-31A31.26,31.26,0,0,1,223.4,149.86Z"/><path class="cls-62" d="M222.18,149.87a30,30,0,1,1-30.3-29.77A30,30,0,0,1,222.18,149.87Z"/><path class="cls-63" d="M221,149.88a28.83,28.83,0,1,1-29.08-28.57A28.83,28.83,0,0,1,221,149.88Z"/><path class="cls-64" d="M219.76,149.89a27.62,27.62,0,1,1-27.86-27.36A27.62,27.62,0,0,1,219.76,149.89Z"/><path class="cls-65" d="M218.54,149.9a26.4,26.4,0,1,1-26.63-26.16A26.39,26.39,0,0,1,218.54,149.9Z"/><path class="cls-66" d="M217.33,149.91a25.19,25.19,0,1,1-25.41-25A25.19,25.19,0,0,1,217.33,149.91Z"/><path class="cls-67" d="M216.11,149.93a24,24,0,1,1-24.18-23.76A24,24,0,0,1,216.11,149.93Z"/><path class="cls-68" d="M214.9,149.94a22.76,22.76,0,1,1-23-22.56A22.76,22.76,0,0,1,214.9,149.94Z"/><path class="cls-69" d="M213.69,150A21.54,21.54,0,1,1,192,128.6,21.56,21.56,0,0,1,213.69,150Z"/><path class="cls-70" d="M212.47,150A20.33,20.33,0,1,1,192,129.81,20.33,20.33,0,0,1,212.47,150Z"/><path class="cls-71" d="M211.26,150A19.12,19.12,0,1,1,192,131,19.12,19.12,0,0,1,211.26,150Z"/><path class="cls-72" d="M210,150a17.9,17.9,0,1,1-18-17.74A17.9,17.9,0,0,1,210,150Z"/><path class="cls-73" d="M208.83,150A16.69,16.69,0,1,1,192,133.45,16.69,16.69,0,0,1,208.83,150Z"/><path class="cls-74" d="M207.62,150A15.47,15.47,0,1,1,192,134.67,15.48,15.48,0,0,1,207.62,150Z"/><path class="cls-75" d="M206.4,150A14.26,14.26,0,1,1,192,135.88,14.26,14.26,0,0,1,206.4,150Z"/><path class="cls-76" d="M205.19,150A13,13,0,1,1,192,137.09,13.05,13.05,0,0,1,205.19,150Z"/><path class="cls-77" d="M204,150A11.83,11.83,0,1,1,192,138.31,11.82,11.82,0,0,1,204,150Z"/><path class="cls-27" d="M202.76,150a10.62,10.62,0,1,1-10.71-10.52A10.61,10.61,0,0,1,202.76,150Z"/></g><polygon class="cls-6" points="246.35 254.72 213.61 235.68 213.86 235.25 246.36 254.13 269.91 240.54 270.16 240.97 246.35 254.72"/><rect class="cls-6" x="220.46" y="230.38" width="0.51" height="46.59" transform="translate(-109.33 317.98) rotate(-60)"/><polygon class="cls-6" points="189.26 289.79 174.79 281.39 187.96 273.79 161.14 258.23 161.4 257.79 188.97 273.79 175.8 281.39 189.51 289.36 189.26 289.79"/><path class="cls-6" d="M297.08,234.51,270,219l-12.53,7.3-.12-.08c-7.41-4.4-18.64-11-19.24-11.22l.1-.5c.51.07,14.7,8.5,19.27,11.21l12.52-7.3,27.35,15.69Z"/><path class="cls-6" d="M239.45,264.52a3.13,3.13,0,0,1,2.84,0,.87.87,0,0,1,0,1.64,3.15,3.15,0,0,1-2.85,0A.87.87,0,0,1,239.45,264.52Z"/><path class="cls-6" d="M268.6,239.89a3.15,3.15,0,0,1,2.85,0,.87.87,0,0,1,0,1.64,3.15,3.15,0,0,1-2.85,0A.87.87,0,0,1,268.6,239.89Z"/><path class="cls-6" d="M295.2,233.18a3.13,3.13,0,0,1,2.84,0,.86.86,0,0,1,0,1.64,3.12,3.12,0,0,1-2.85,0A.86.86,0,0,1,295.2,233.18Z"/><path class="cls-6" d="M188,288.77a3.15,3.15,0,0,1,2.85,0,.87.87,0,0,1,0,1.64,3.12,3.12,0,0,1-2.85,0A.87.87,0,0,1,188,288.77Z"/><path class="cls-78" d="M266.23,128.81l-28-16.18a4.13,4.13,0,0,0-3.78,0l-27.85,16.18a1.34,1.34,0,0,0-.78,1.1h0l-.22,77.75a1.33,1.33,0,0,0,.79,1.1l28,16.19a2.68,2.68,0,0,0,.42.19l.15.05a2.8,2.8,0,0,0,.31.09l.19,0,.3.05H236l.27,0h0l.3,0h.22l.3-.05.2,0,.31-.1.16,0,.43-.2L266,208.75a1.18,1.18,0,0,0,.22-.14l.06-.05.14-.12,0,0,.13-.17s0,0,0,0a1.09,1.09,0,0,0,.08-.15s0,0,0,0v0a.56.56,0,0,0,0-.12.07.07,0,0,0,0,0,.88.88,0,0,0,0-.17l.22-77.74v0A1.33,1.33,0,0,0,266.23,128.81Zm.77,1.28a.11.11,0,0,1,0,0,.13.13,0,0,0,0-.06Zm-.34.6,0,0Zm-.18.16,0,0Zm.48-.6,0,0Zm-61.09,0,0,.07Zm-.07-.29v0Zm0,.15s0,0,0,.06S205.83,130.16,205.82,130.14Zm.23.43,0,.06Zm-.1-.14,0,.06Zm.4.42.05,0Zm-.17-.15a.34.34,0,0,0,.06.06A.34.34,0,0,1,206.18,130.7Z"/><g class="cls-5"><g class="cls-5"><path id="SVGID-23" data-name="SVGID" class="cls-1" d="M267,129.92l-.22,77.74a1.32,1.32,0,0,1-.78,1.09l.22-77.74A1.33,1.33,0,0,0,267,129.92Z"/><g class="cls-79"><g class="cls-5"><path class="cls-1" d="M267,129.92l-.22,77.74a.94.94,0,0,1-.07.37l.22-77.75A.92.92,0,0,0,267,129.92Z"/><path class="cls-1" d="M267,130.28,266.73,208a1.63,1.63,0,0,1-.71.72l.22-77.74A1.64,1.64,0,0,0,267,130.28Z"/></g></g></g><path id="SVGID-24" data-name="SVGID" class="cls-2" d="M205.57,207.65l.22-77.75a1.35,1.35,0,0,0,.79,1.11l-.22,77.74A1.33,1.33,0,0,1,205.57,207.65Z"/><g class="cls-80"><g class="cls-5"><path class="cls-2" d="M206.58,131l-.22,77.74a1.33,1.33,0,0,1-.79-1.1l.22-77.75A1.35,1.35,0,0,0,206.58,131Z"/></g></g><polygon class="cls-1" points="266.24 131.01 266.02 208.75 238.18 224.94 238.4 147.19 266.24 131.01"/><polygon class="cls-81" points="239.45 147.8 265.18 132.84 264.97 208.14 239.24 223.1 239.45 147.8"/><polygon class="cls-2" points="234.61 147.19 234.39 224.94 206.36 208.75 206.58 131.01 234.61 147.19"/><g class="cls-5"><g class="cls-82"><g class="cls-5"><path class="cls-83" d="M238.4,147.19l-.22,77.75a3.86,3.86,0,0,1-1.94.45l.22-77.75A3.86,3.86,0,0,0,238.4,147.19Z"/><path class="cls-84" d="M236.46,147.64l-.22,77.75a4,4,0,0,1-1.85-.45l.22-77.75A3.73,3.73,0,0,0,236.46,147.64Z"/></g></g></g><path class="cls-20" d="M266.23,128.81a1.16,1.16,0,0,1,0,2.2L238.4,147.19a4.15,4.15,0,0,1-3.79,0l-28-16.18a1.16,1.16,0,0,1,0-2.2l27.85-16.18a4.13,4.13,0,0,1,3.78,0Z"/></g><polygon class="cls-27" points="244.41 147.11 241.12 149.01 241.12 151.62 244.41 149.72 244.41 147.11"/><polygon class="cls-27" points="256.16 142.94 263.3 138.81 263.3 136.21 256.16 140.33 256.16 142.94"/><polygon class="cls-27" points="245.76 148.94 254.58 143.84 254.58 141.24 245.76 146.33 245.76 148.94"/><polygon class="cls-27" points="252.52 149.1 250.73 150.14 250.73 147.53 252.52 146.5 252.52 149.1"/><polygon class="cls-27" points="263.3 142.88 261.51 143.91 261.51 141.31 263.3 140.27 263.3 142.88"/><polygon class="cls-27" points="260.27 142.02 253.63 145.86 253.63 148.46 260.27 144.63 260.27 142.02"/><polygon class="cls-27" points="260.27 149.44 253.63 153.27 253.63 155.87 260.27 152.04 260.27 149.44"/><polygon class="cls-27" points="249.5 148.24 241.12 153.08 241.12 155.68 249.5 150.85 249.5 148.24"/><polygon class="cls-27" points="248.12 152.61 241.12 156.72 241.12 159.32 248.12 155.21 248.12 152.61"/><polygon class="cls-27" points="260.06 145.78 260.06 148.39 263.3 146.52 263.3 143.91 260.06 145.78"/><polygon class="cls-27" points="250.79 151.13 250.79 153.74 254.58 151.55 254.58 148.95 250.79 151.13"/><polygon class="cls-27" points="263.3 150.34 261.51 151.38 261.51 148.78 263.3 147.74 263.3 150.34"/><polygon class="cls-27" points="252.52 153.88 241.12 160.55 241.12 163.15 252.52 156.48 252.52 153.88"/><polygon class="cls-27" points="244.41 192.89 241.12 194.79 241.12 197.4 244.41 195.49 244.41 192.89"/><polygon class="cls-27" points="256.16 188.71 263.3 184.59 263.3 181.99 256.16 186.11 256.16 188.71"/><polygon class="cls-27" points="252.52 194.88 250.73 195.91 250.73 193.31 252.52 192.27 252.52 194.88"/><polygon class="cls-27" points="263.3 188.65 261.51 189.69 261.51 187.09 263.3 186.05 263.3 188.65"/><polygon class="cls-27" points="260.27 187.8 253.63 191.63 253.63 194.24 260.27 190.41 260.27 187.8"/><polygon class="cls-27" points="260.27 195.21 253.63 199.05 253.63 201.65 260.27 197.82 260.27 195.21"/><polygon class="cls-27" points="249.5 194.02 241.12 198.86 241.12 201.46 249.5 196.62 249.5 194.02"/><polygon class="cls-27" points="260.06 191.56 260.06 194.16 263.3 192.29 263.3 189.69 260.06 191.56"/><polygon class="cls-27" points="250.79 196.91 250.79 199.51 254.58 197.33 254.58 194.72 250.79 196.91"/><polygon class="cls-27" points="263.3 196.12 261.51 197.16 261.51 194.55 263.3 193.52 263.3 196.12"/><polygon class="cls-27" points="252.52 199.65 241.12 206.32 241.12 208.93 252.52 202.26 252.52 199.65"/><polygon class="cls-27" points="244.41 177.63 241.12 179.53 241.12 182.14 244.41 180.24 244.41 177.63"/><polygon class="cls-27" points="256.16 173.45 263.3 169.33 263.3 166.72 256.16 170.85 256.16 173.45"/><polygon class="cls-27" points="245.76 179.45 254.58 174.36 254.58 171.76 245.76 176.85 245.76 179.45"/><polygon class="cls-27" points="252.52 179.62 250.73 180.66 250.73 178.05 252.52 177.01 252.52 179.62"/><polygon class="cls-27" points="263.3 173.39 261.51 174.43 261.51 171.83 263.3 170.79 263.3 173.39"/><polygon class="cls-27" points="260.27 172.54 253.63 176.38 253.63 178.98 260.27 175.15 260.27 172.54"/><polygon class="cls-27" points="260.27 179.96 253.63 183.79 253.63 186.39 260.27 182.56 260.27 179.96"/><polygon class="cls-27" points="249.5 178.76 241.12 183.6 241.12 186.2 249.5 181.37 249.5 178.76"/><polygon class="cls-27" points="248.12 183.12 241.12 187.24 241.12 189.84 248.12 185.73 248.12 183.12"/><polygon class="cls-27" points="258.34 177.29 256.16 178.55 256.16 181.16 258.34 179.9 258.34 177.29"/><polygon class="cls-27" points="263.3 180.86 261.51 181.9 261.51 179.29 263.3 178.26 263.3 180.86"/><polygon class="cls-27" points="252.52 184.39 241.12 191.06 241.12 193.67 252.52 187 252.52 184.39"/><polygon class="cls-27" points="256.16 158.19 263.3 154.07 263.3 151.47 256.16 155.59 256.16 158.19"/><polygon class="cls-27" points="245.76 164.19 254.58 159.1 254.58 156.5 245.76 161.59 245.76 164.19"/><polygon class="cls-27" points="252.52 164.36 250.73 165.4 250.73 162.79 252.52 161.75 252.52 164.36"/><polygon class="cls-27" points="263.3 158.13 261.51 159.17 261.51 156.57 263.3 155.53 263.3 158.13"/><polygon class="cls-27" points="260.27 157.28 253.63 161.12 253.63 163.72 260.27 159.89 260.27 157.28"/><polygon class="cls-27" points="260.27 164.69 253.63 168.53 253.63 171.13 260.27 167.3 260.27 164.69"/><polygon class="cls-27" points="249.5 163.5 241.12 168.34 241.12 170.94 249.5 166.11 249.5 163.5"/><polygon class="cls-27" points="248.12 167.87 241.12 171.98 241.12 174.58 248.12 170.47 248.12 167.87"/><polygon class="cls-27" points="263.3 165.6 261.51 166.64 261.51 164.03 263.3 163 263.3 165.6"/><polygon class="cls-27" points="252.52 169.13 241.12 175.81 241.12 178.41 252.52 171.74 252.52 169.13"/><polygon class="cls-27" points="260.27 203.13 253.63 206.97 253.63 209.57 260.27 205.74 260.27 203.13"/><polygon class="cls-27" points="248.12 206.31 241.12 210.42 241.12 213.02 248.12 208.91 248.12 206.31"/><polygon class="cls-27" points="263.3 204.04 261.51 205.08 261.51 202.48 263.3 201.44 263.3 204.04"/><polygon class="cls-27" points="252.52 207.57 241.12 214.25 241.12 216.85 252.52 210.18 252.52 207.57"/><polygon class="cls-78" points="232.36 158.67 208.61 144.96 208.61 146.54 232.36 160.25 232.36 158.67"/><polygon class="cls-78" points="232.36 164.18 208.61 150.46 208.61 152.04 232.36 165.76 232.36 164.18"/><polygon class="cls-78" points="232.36 177.66 208.61 163.95 208.61 165.53 232.36 179.24 232.36 177.66"/><polygon class="cls-78" points="232.36 185.95 208.61 172.24 208.61 173.82 232.36 187.53 232.36 185.95"/><polygon class="cls-78" points="232.36 191.15 208.61 177.44 208.61 179.02 232.36 192.73 232.36 191.15"/><polygon class="cls-78" points="232.36 204.64 208.61 190.93 208.61 192.51 232.36 206.22 232.36 204.64"/><polygon class="cls-78" points="232.36 212.42 208.61 198.71 208.61 200.29 232.36 214 232.36 212.42"/><path class="cls-78" d="M210.38,128.26v0l0,2.37s0,.1,0,.15,0,0,0,0a.19.19,0,0,0,0,.1v0l0,0a.67.67,0,0,0,.06.12l0,0a.75.75,0,0,0,.12.14l0,0,.12.11,0,0,.19.12,23.7,13.77a2,2,0,0,0,.36.17l.13,0,.27.08.17,0,.26,0h.18l.26,0h0l.22,0h.18l.25,0,.17,0,.26-.08.13,0a3,3,0,0,0,.36-.17l23.85-13.77a1.14,1.14,0,0,0,.67-.94l0-2.37a1.13,1.13,0,0,0-.66-.93l-23.69-13.77a3.58,3.58,0,0,0-3.22,0L211.05,127.3A1.11,1.11,0,0,0,210.38,128.26Zm0,.12s0,0,0,.05S210.39,128.4,210.39,128.38Zm.26.49,0,0Zm.15.14,0,0Zm-.37-.48v0Zm51.95.08s0,0,0-.06S262.39,128.59,262.38,128.61Zm.08-.25a.13.13,0,0,0,0-.06A.13.13,0,0,1,262.46,128.36Zm0,.12,0,0Zm-.22.37a.21.21,0,0,0,0-.06A.21.21,0,0,1,262.21,128.85Zm.1-.12,0,0Zm-.35.34s0,0,0,0S262,129.06,262,129.07Zm.14-.11s0,0,0-.05S262.11,128.94,262.1,129Z"/><g class="cls-5"><g class="cls-5"><path id="SVGID-25" data-name="SVGID" class="cls-1" d="M210.37,128.24l0,2.37a1.13,1.13,0,0,0,.66.93l0-2.37A1.15,1.15,0,0,1,210.37,128.24Z"/><g class="cls-85"><g class="cls-5"><path class="cls-1" d="M210.37,128.24l0,2.37a.91.91,0,0,0,.06.32l0-2.38A.82.82,0,0,1,210.37,128.24Z"/><path class="cls-1" d="M210.44,128.55l0,2.38a1.45,1.45,0,0,0,.6.61l0-2.37A1.31,1.31,0,0,1,210.44,128.55Z"/></g></g></g><path id="SVGID-26" data-name="SVGID" class="cls-2" d="M262.44,130.6l0-2.37a1.14,1.14,0,0,1-.67.94l0,2.37A1.14,1.14,0,0,0,262.44,130.6Z"/><g class="cls-86"><g class="cls-5"><path class="cls-2" d="M261.8,129.17l0,2.37a1.14,1.14,0,0,0,.67-.94l0-2.37A1.14,1.14,0,0,1,261.8,129.17Z"/></g></g><polygon class="cls-1" points="211.04 129.17 211 131.54 234.69 145.31 234.73 142.94 211.04 129.17"/><polygon class="cls-2" points="237.95 142.94 237.92 145.31 261.77 131.54 261.8 129.17 237.95 142.94"/><g class="cls-5"><g class="cls-87"><g class="cls-5"><path class="cls-83" d="M234.73,142.94l0,2.37a3.38,3.38,0,0,0,1.65.39l0-2.38A3.27,3.27,0,0,1,234.73,142.94Z"/><path class="cls-84" d="M236.38,143.32l0,2.38a3.35,3.35,0,0,0,1.57-.39l0-2.37A3.2,3.2,0,0,1,236.38,143.32Z"/></g></g></g><path class="cls-27" d="M211.05,127.3a1,1,0,0,0,0,1.87l23.69,13.77a3.58,3.58,0,0,0,3.22,0l23.85-13.77a1,1,0,0,0,0-1.87l-23.69-13.77a3.58,3.58,0,0,0-3.22,0Z"/><path class="cls-2" d="M254.88,128.91l-1.11.64-16.23,9.38a2.63,2.63,0,0,1-2.35,0l-16.12-9.37-1.11-.65a.72.72,0,0,1,0-1.36l17.34-10a2.56,2.56,0,0,1,2.35,0l17.23,10A.72.72,0,0,1,254.88,128.91Z"/><path class="cls-1" d="M253.77,129.55l-16.23,9.38a2.63,2.63,0,0,1-2.35,0l-16.12-9.37,16.24-9.38a2.63,2.63,0,0,1,2.35,0Z"/></g><path class="cls-78" d="M222.08,153.15l-28-16.19a4.22,4.22,0,0,0-3.79,0l-27.84,16.19a1.32,1.32,0,0,0-.78,1.09h0L161.42,232a1.33,1.33,0,0,0,.79,1.1l28,16.19a3,3,0,0,0,.41.19l.16,0a1.58,1.58,0,0,0,.31.09l.19,0,.3.05h.21l.27,0h.32l.22,0,.3-.05.2,0,.31-.09.16-.05.43-.2,27.84-16.19a1.64,1.64,0,0,0,.22-.14l.06-.05.14-.12,0,0a1.09,1.09,0,0,0,.13-.17l0,0a1,1,0,0,0,.08-.14v0a0,0,0,0,0,0,0,.76.76,0,0,0,0-.11s0,0,0-.06a.88.88,0,0,0,0-.16l.22-77.75v0A1.31,1.31,0,0,0,222.08,153.15Zm.77,1.27a.09.09,0,0,1,0,.05.11.11,0,0,0,0-.05Zm-.34.61,0-.05Zm-.18.15,0,0Zm.47-.6v0S222.8,154.6,222.8,154.58Zm-61.08,0,0,.07Zm-.07-.29v0Zm0,.15a.64.64,0,0,1,0,.07A.64.64,0,0,0,161.67,154.47Zm.23.43,0,.06Zm-.1-.14a.21.21,0,0,0,0,.06A.21.21,0,0,1,161.8,154.76Zm.4.42,0,0ZM162,155l.06.06Z"/><g class="cls-5"><g class="cls-5"><path id="SVGID-27" data-name="SVGID" class="cls-1" d="M222.87,154.25,222.65,232a1.32,1.32,0,0,1-.78,1.08l.22-77.74A1.33,1.33,0,0,0,222.87,154.25Z"/><g class="cls-88"><g class="cls-5"><path class="cls-1" d="M222.87,154.25,222.65,232a.78.78,0,0,1-.08.36l.23-77.74A1,1,0,0,0,222.87,154.25Z"/><path class="cls-1" d="M222.8,154.62l-.23,77.74a1.5,1.5,0,0,1-.7.72l.22-77.74A1.68,1.68,0,0,0,222.8,154.62Z"/></g></g></g><path id="SVGID-28" data-name="SVGID" class="cls-2" d="M161.42,232l.22-77.75a1.35,1.35,0,0,0,.79,1.11l-.22,77.74A1.33,1.33,0,0,1,161.42,232Z"/><g class="cls-89"><g class="cls-5"><path class="cls-2" d="M162.43,155.34l-.22,77.74a1.33,1.33,0,0,1-.79-1.1l.22-77.75A1.35,1.35,0,0,0,162.43,155.34Z"/></g></g><polygon class="cls-1" points="222.09 155.34 221.87 233.08 194.03 249.27 194.25 171.52 222.09 155.34"/><polygon class="cls-81" points="195.3 172.13 221.03 157.18 220.82 232.48 195.09 247.43 195.3 172.13"/><polygon class="cls-2" points="190.46 171.52 190.24 249.27 162.21 233.08 162.43 155.34 190.46 171.52"/><g class="cls-5"><g class="cls-90"><g class="cls-5"><path class="cls-83" d="M194.25,171.52,194,249.27a3.86,3.86,0,0,1-1.94.45l.22-77.74A4,4,0,0,0,194.25,171.52Z"/><path class="cls-84" d="M192.31,172l-.22,77.74a4,4,0,0,1-1.85-.45l.22-77.75A3.84,3.84,0,0,0,192.31,172Z"/></g></g></g><path class="cls-20" d="M222.08,153.14a1.16,1.16,0,0,1,0,2.2l-27.84,16.18a4.15,4.15,0,0,1-3.79,0l-28-16.18a1.16,1.16,0,0,1,0-2.19L190.26,137a4.22,4.22,0,0,1,3.79,0Z"/></g><polygon class="cls-27" points="200.26 171.44 196.97 173.34 196.97 175.95 200.26 174.05 200.26 171.44"/><polygon class="cls-27" points="212.01 167.27 219.15 163.14 219.15 160.54 212.01 164.66 212.01 167.27"/><polygon class="cls-27" points="201.61 173.27 210.43 168.18 210.43 165.57 201.61 170.66 201.61 173.27"/><polygon class="cls-27" points="208.37 173.43 206.57 174.47 206.57 171.86 208.37 170.83 208.37 173.43"/><polygon class="cls-27" points="219.15 167.21 217.36 168.24 217.36 165.64 219.15 164.6 219.15 167.21"/><polygon class="cls-27" points="216.12 166.36 209.48 170.19 209.48 172.79 216.12 168.96 216.12 166.36"/><polygon class="cls-27" points="216.12 173.77 209.48 177.6 209.48 180.21 216.12 176.37 216.12 173.77"/><polygon class="cls-27" points="205.35 172.57 196.97 177.41 196.97 180.01 205.35 175.18 205.35 172.57"/><polygon class="cls-27" points="203.97 176.94 196.97 181.05 196.97 183.66 203.97 179.54 203.97 176.94"/><polygon class="cls-27" points="215.91 170.11 215.91 172.72 219.15 170.85 219.15 168.24 215.91 170.11"/><polygon class="cls-27" points="206.64 175.47 206.64 178.07 210.43 175.88 210.43 173.28 206.64 175.47"/><polygon class="cls-27" points="219.15 174.68 217.36 175.71 217.36 173.11 219.15 172.07 219.15 174.68"/><polygon class="cls-27" points="208.37 178.21 196.97 184.88 196.97 187.48 208.37 180.81 208.37 178.21"/><polygon class="cls-27" points="200.26 217.22 196.97 219.12 196.97 221.73 200.26 219.83 200.26 217.22"/><polygon class="cls-27" points="212.01 213.04 219.15 208.92 219.15 206.32 212.01 210.44 212.01 213.04"/><polygon class="cls-27" points="208.37 219.21 206.57 220.25 206.57 217.64 208.37 216.61 208.37 219.21"/><polygon class="cls-27" points="219.15 212.99 217.36 214.02 217.36 211.42 219.15 210.38 219.15 212.99"/><polygon class="cls-27" points="216.12 212.13 209.48 215.97 209.48 218.57 216.12 214.74 216.12 212.13"/><polygon class="cls-27" points="216.12 219.55 209.48 223.38 209.48 225.98 216.12 222.15 216.12 219.55"/><polygon class="cls-27" points="205.35 218.35 196.97 223.19 196.97 225.79 205.35 220.96 205.35 218.35"/><polygon class="cls-27" points="215.91 215.89 215.91 218.5 219.15 216.63 219.15 214.02 215.91 215.89"/><polygon class="cls-27" points="206.64 221.24 206.64 223.85 210.43 221.66 210.43 219.06 206.64 221.24"/><polygon class="cls-27" points="219.15 220.45 217.36 221.49 217.36 218.89 219.15 217.85 219.15 220.45"/><polygon class="cls-27" points="208.37 223.98 196.97 230.66 196.97 233.26 208.37 226.59 208.37 223.98"/><polygon class="cls-27" points="200.26 201.96 196.97 203.86 196.97 206.47 200.26 204.57 200.26 201.96"/><polygon class="cls-27" points="212.01 197.78 219.15 193.66 219.15 191.06 212.01 195.18 212.01 197.78"/><polygon class="cls-27" points="201.61 203.79 210.43 198.7 210.43 196.09 201.61 201.18 201.61 203.79"/><polygon class="cls-27" points="208.37 203.95 206.57 204.99 206.57 202.38 208.37 201.35 208.37 203.95"/><polygon class="cls-27" points="219.15 197.73 217.36 198.76 217.36 196.16 219.15 195.12 219.15 197.73"/><polygon class="cls-27" points="216.12 196.87 209.48 200.71 209.48 203.31 216.12 199.48 216.12 196.87"/><polygon class="cls-27" points="216.12 204.29 209.48 208.12 209.48 210.72 216.12 206.89 216.12 204.29"/><polygon class="cls-27" points="205.35 203.09 196.97 207.93 196.97 210.53 205.35 205.7 205.35 203.09"/><polygon class="cls-27" points="203.97 207.46 196.97 211.57 196.97 214.17 203.97 210.06 203.97 207.46"/><polygon class="cls-27" points="214.19 201.63 212.01 202.89 212.01 205.49 214.19 204.23 214.19 201.63"/><polygon class="cls-27" points="219.15 205.19 217.36 206.23 217.36 203.63 219.15 202.59 219.15 205.19"/><polygon class="cls-27" points="208.37 208.72 196.97 215.4 196.97 218 208.37 211.33 208.37 208.72"/><polygon class="cls-27" points="212.01 182.53 219.15 178.4 219.15 175.8 212.01 179.92 212.01 182.53"/><polygon class="cls-27" points="201.61 188.53 210.43 183.44 210.43 180.83 201.61 185.92 201.61 188.53"/><polygon class="cls-27" points="208.37 188.69 206.57 189.73 206.57 187.12 208.37 186.09 208.37 188.69"/><polygon class="cls-27" points="219.15 182.47 217.36 183.5 217.36 180.9 219.15 179.86 219.15 182.47"/><polygon class="cls-27" points="216.12 181.62 209.48 185.45 209.48 188.05 216.12 184.22 216.12 181.62"/><polygon class="cls-27" points="216.12 189.03 209.48 192.86 209.48 195.46 216.12 191.63 216.12 189.03"/><polygon class="cls-27" points="205.35 187.83 196.97 192.67 196.97 195.27 205.35 190.44 205.35 187.83"/><polygon class="cls-27" points="203.97 192.2 196.97 196.31 196.97 198.91 203.97 194.8 203.97 192.2"/><polygon class="cls-27" points="219.15 189.94 217.36 190.97 217.36 188.37 219.15 187.33 219.15 189.94"/><polygon class="cls-27" points="208.37 193.47 196.97 200.14 196.97 202.74 208.37 196.07 208.37 193.47"/><polygon class="cls-27" points="216.12 227.47 209.48 231.3 209.48 233.9 216.12 230.07 216.12 227.47"/><polygon class="cls-27" points="203.97 230.64 196.97 234.75 196.97 237.35 203.97 233.24 203.97 230.64"/><polygon class="cls-27" points="219.15 228.38 217.36 229.41 217.36 226.81 219.15 225.77 219.15 228.38"/><polygon class="cls-27" points="208.37 231.91 196.97 238.58 196.97 241.18 208.37 234.51 208.37 231.91"/><polygon class="cls-78" points="188.21 183 164.46 169.29 164.46 170.87 188.21 184.59 188.21 183"/><polygon class="cls-78" points="188.21 188.51 164.46 174.79 164.46 176.37 188.21 190.09 188.21 188.51"/><polygon class="cls-78" points="188.21 202 164.46 188.28 164.46 189.86 188.21 203.58 188.21 202"/><polygon class="cls-78" points="188.21 210.28 164.46 196.57 164.46 198.15 188.21 211.86 188.21 210.28"/><polygon class="cls-78" points="188.21 215.49 164.46 201.77 164.46 203.35 188.21 217.06 188.21 215.49"/><polygon class="cls-78" points="188.21 228.97 164.46 215.26 164.46 216.84 188.21 230.55 188.21 228.97"/><polygon class="cls-78" points="188.21 236.75 164.46 223.04 164.46 224.62 188.21 238.33 188.21 236.75"/><path class="cls-78" d="M166.23,152.59v0l0,2.38a.71.71,0,0,0,0,.14.06.06,0,0,1,0,0,.3.3,0,0,0,0,.1v0l0,0a.67.67,0,0,0,.06.12l0,0a.76.76,0,0,0,.11.14.08.08,0,0,1,0,0,1.27,1.27,0,0,0,.12.1l0,0,.19.12,23.69,13.77a2.48,2.48,0,0,0,.37.17l.13,0,.27.08a.86.86,0,0,0,.17,0l.25,0h.46l.23,0h.18l.25,0,.17,0,.26-.08.13,0a2,2,0,0,0,.36-.17l23.85-13.77a1.14,1.14,0,0,0,.67-.94l0-2.37h0a1.14,1.14,0,0,0-.66-.93L194,137.86a3.6,3.6,0,0,0-3.23,0L166.9,151.63A1.12,1.12,0,0,0,166.23,152.59Zm0,.13s0,0,0,0Zm.26.48h0l0,0Zm.15.14a.05.05,0,0,0,0,0Zm-.37-.48v0Zm51.95.08s0,0,0-.06S218.24,152.92,218.23,152.94Zm.08-.25a.13.13,0,0,0,0-.06A.13.13,0,0,1,218.31,152.69Zm0,.13s0,0,0-.06S218.29,152.8,218.28,152.82Zm-.22.36,0-.05Zm.09-.12,0-.05Zm-.34.34,0,0Zm.13-.11.06,0Z"/><g class="cls-5"><g class="cls-5"><path id="SVGID-29" data-name="SVGID" class="cls-1" d="M166.22,152.57l0,2.38a1.12,1.12,0,0,0,.66.92l0-2.37A1.13,1.13,0,0,1,166.22,152.57Z"/><g class="cls-91"><g class="cls-5"><path class="cls-1" d="M166.22,152.57l0,2.38a.89.89,0,0,0,.06.31l0-2.38A.82.82,0,0,1,166.22,152.57Z"/><path class="cls-1" d="M166.29,152.88l0,2.38a1.4,1.4,0,0,0,.6.61l0-2.37A1.33,1.33,0,0,1,166.29,152.88Z"/></g></g></g><path id="SVGID-30" data-name="SVGID" class="cls-2" d="M218.29,154.93l0-2.37a1.14,1.14,0,0,1-.67.94l0,2.37A1.14,1.14,0,0,0,218.29,154.93Z"/><g class="cls-92"><g class="cls-5"><path class="cls-2" d="M217.65,153.5l0,2.37a1.14,1.14,0,0,0,.67-.94l0-2.37A1.14,1.14,0,0,1,217.65,153.5Z"/></g></g><polygon class="cls-1" points="166.88 153.5 166.85 155.87 190.54 169.64 190.58 167.27 166.88 153.5"/><polygon class="cls-2" points="193.8 167.27 193.77 169.64 217.62 155.87 217.65 153.5 193.8 167.27"/><g class="cls-5"><g class="cls-93"><g class="cls-5"><path class="cls-83" d="M190.58,167.27l0,2.37a3.34,3.34,0,0,0,1.66.39l0-2.37A3.38,3.38,0,0,1,190.58,167.27Z"/><path class="cls-84" d="M192.23,167.66l0,2.37a3.38,3.38,0,0,0,1.57-.39l0-2.37A3.32,3.32,0,0,1,192.23,167.66Z"/></g></g></g><path class="cls-27" d="M166.9,151.63a1,1,0,0,0,0,1.87l23.7,13.77a3.58,3.58,0,0,0,3.22,0l23.85-13.77a1,1,0,0,0,0-1.87L194,137.86a3.6,3.6,0,0,0-3.23,0Z"/><path class="cls-2" d="M210.73,153.24l-1.11.64-16.23,9.38a2.63,2.63,0,0,1-2.35,0l-16.12-9.37-1.11-.65a.71.71,0,0,1,0-1.35l17.35-10a2.61,2.61,0,0,1,2.34,0l17.24,10A.71.71,0,0,1,210.73,153.24Z"/><path class="cls-1" d="M209.62,153.88l-16.23,9.38a2.63,2.63,0,0,1-2.35,0l-16.12-9.37,16.24-9.38a2.61,2.61,0,0,1,2.34,0Z"/></g><path class="cls-78" d="M177.47,180.09l-28-16.18a4.15,4.15,0,0,0-3.79,0L117.8,180.09a1.3,1.3,0,0,0-.77,1.09l-.23,77.74a1.37,1.37,0,0,0,.79,1.11l28,16.18a2.71,2.71,0,0,0,.42.2l.16,0,.3.09.2,0,.29.05.22,0,.26,0H148l.3-.05.2,0c.11,0,.21-.06.32-.09l.16,0a2.71,2.71,0,0,0,.42-.2L177.26,260l.22-.15.05,0,.14-.12,0-.05.14-.16,0,0,.08-.15v0a0,0,0,0,1,0,0l0-.12a.09.09,0,0,1,0-.05,1,1,0,0,0,0-.17l.22-77.75v0A1.33,1.33,0,0,0,177.47,180.09Zm.77,1.27a.43.43,0,0,1,0,0,.43.43,0,0,0,0,0Zm-.35.61,0,0h0Zm-.18.15,0,0Zm.48-.59,0,0Zm-61.08,0,0,.07Zm-.08-.3a.17.17,0,0,0,0,.07A.17.17,0,0,1,117,181.26Zm0,.15s0,.05,0,.07S117.06,181.43,117.06,181.41Zm.22.44,0,.06Zm-.1-.15,0,.07Zm.4.43,0,0Zm-.17-.15.06.06Z"/><g class="cls-5"><g class="cls-5"><path id="SVGID-31" data-name="SVGID" class="cls-1" d="M178.26,181.19,178,258.94a1.35,1.35,0,0,1-.78,1.09l.22-77.75A1.32,1.32,0,0,0,178.26,181.19Z"/><g class="cls-94"><g class="cls-5"><path class="cls-1" d="M178.26,181.19,178,258.94a1,1,0,0,1-.08.37l.22-77.75A1,1,0,0,0,178.26,181.19Z"/><path class="cls-1" d="M178.18,181.56,178,259.31a1.65,1.65,0,0,1-.7.72l.22-77.75A1.55,1.55,0,0,0,178.18,181.56Z"/></g></g></g><path id="SVGID-32" data-name="SVGID" class="cls-2" d="M116.8,258.92l.22-77.74a1.34,1.34,0,0,0,.8,1.1L117.59,260A1.37,1.37,0,0,1,116.8,258.92Z"/><g class="cls-95"><g class="cls-5"><path class="cls-2" d="M117.82,182.28,117.59,260a1.37,1.37,0,0,1-.79-1.11l.22-77.74A1.34,1.34,0,0,0,117.82,182.28Z"/></g></g><polygon class="cls-1" points="177.48 182.28 177.26 260.03 149.41 276.21 149.63 198.47 177.48 182.28"/><polygon class="cls-81" points="150.69 199.07 176.42 184.12 176.2 259.42 150.47 274.37 150.69 199.07"/><polygon class="cls-2" points="145.84 198.47 145.62 276.21 117.59 260.03 117.81 182.28 145.84 198.47"/><g class="cls-5"><g class="cls-96"><g class="cls-5"><path class="cls-83" d="M149.63,198.47l-.22,77.74a4,4,0,0,1-1.94.46l.22-77.75A3.84,3.84,0,0,0,149.63,198.47Z"/><path class="cls-84" d="M147.69,198.92l-.22,77.75a3.87,3.87,0,0,1-1.85-.46l.22-77.74A4,4,0,0,0,147.69,198.92Z"/></g></g></g><path class="cls-20" d="M177.47,180.09a1.16,1.16,0,0,1,0,2.19l-27.85,16.19a4.22,4.22,0,0,1-3.79,0l-28-16.19a1.16,1.16,0,0,1,0-2.19l27.85-16.18a4.15,4.15,0,0,1,3.79,0Z"/></g><polygon class="cls-27" points="155.65 198.39 152.35 200.29 152.35 202.89 155.65 200.99 155.65 198.39"/><polygon class="cls-27" points="167.39 194.21 174.54 190.09 174.54 187.48 167.39 191.61 167.39 194.21"/><polygon class="cls-27" points="157 200.21 165.82 195.12 165.82 192.52 157 197.61 157 200.21"/><polygon class="cls-27" points="163.75 200.38 161.96 201.41 161.96 198.81 163.75 197.77 163.75 200.38"/><polygon class="cls-27" points="174.54 194.15 172.74 195.19 172.74 192.58 174.54 191.55 174.54 194.15"/><polygon class="cls-27" points="171.5 193.3 164.86 197.13 164.86 199.74 171.5 195.9 171.5 193.3"/><polygon class="cls-27" points="171.5 200.71 164.86 204.54 164.86 207.15 171.5 203.32 171.5 200.71"/><polygon class="cls-27" points="160.73 199.52 152.35 204.35 152.35 206.96 160.73 202.12 160.73 199.52"/><polygon class="cls-27" points="159.35 203.88 152.35 208 152.35 210.6 159.35 206.49 159.35 203.88"/><polygon class="cls-27" points="171.3 197.06 171.3 199.66 174.54 197.79 174.54 195.19 171.3 197.06"/><polygon class="cls-27" points="162.03 202.41 162.03 205.01 165.82 202.83 165.82 200.22 162.03 202.41"/><polygon class="cls-27" points="174.54 201.62 172.74 202.66 172.74 200.05 174.54 199.02 174.54 201.62"/><polygon class="cls-27" points="163.75 205.15 152.35 211.82 152.35 214.43 163.75 207.75 163.75 205.15"/><polygon class="cls-27" points="155.65 244.17 152.35 246.07 152.35 248.67 155.65 246.77 155.65 244.17"/><polygon class="cls-27" points="167.39 239.99 174.54 235.87 174.54 233.26 167.39 237.38 167.39 239.99"/><polygon class="cls-27" points="163.75 246.15 161.96 247.19 161.96 244.59 163.75 243.55 163.75 246.15"/><polygon class="cls-27" points="174.54 239.93 172.74 240.97 172.74 238.36 174.54 237.33 174.54 239.93"/><polygon class="cls-27" points="171.5 239.08 164.86 242.91 164.86 245.51 171.5 241.68 171.5 239.08"/><polygon class="cls-27" points="171.5 246.49 164.86 250.32 164.86 252.93 171.5 249.09 171.5 246.49"/><polygon class="cls-27" points="160.73 245.29 152.35 250.13 152.35 252.74 160.73 247.9 160.73 245.29"/><polygon class="cls-27" points="171.3 242.84 171.3 245.44 174.54 243.57 174.54 240.97 171.3 242.84"/><polygon class="cls-27" points="162.03 248.19 162.03 250.79 165.82 248.6 165.82 246 162.03 248.19"/><polygon class="cls-27" points="174.54 247.4 172.74 248.43 172.74 245.83 174.54 244.79 174.54 247.4"/><polygon class="cls-27" points="163.75 250.93 152.35 257.6 152.35 260.2 163.75 253.53 163.75 250.93"/><polygon class="cls-27" points="155.65 228.91 152.35 230.81 152.35 233.41 155.65 231.51 155.65 228.91"/><polygon class="cls-27" points="167.39 224.73 174.54 220.6 174.54 218 167.39 222.13 167.39 224.73"/><polygon class="cls-27" points="157 230.73 165.82 225.64 165.82 223.03 157 228.13 157 230.73"/><polygon class="cls-27" points="163.75 230.9 161.96 231.93 161.96 229.33 163.75 228.29 163.75 230.9"/><polygon class="cls-27" points="174.54 224.67 172.74 225.71 172.74 223.1 174.54 222.07 174.54 224.67"/><polygon class="cls-27" points="171.5 223.82 164.86 227.65 164.86 230.25 171.5 226.42 171.5 223.82"/><polygon class="cls-27" points="171.5 231.23 164.86 235.06 164.86 237.67 171.5 233.84 171.5 231.23"/><polygon class="cls-27" points="160.73 230.04 152.35 234.87 152.35 237.48 160.73 232.64 160.73 230.04"/><polygon class="cls-27" points="159.35 234.4 152.35 238.51 152.35 241.12 159.35 237 159.35 234.4"/><polygon class="cls-27" points="169.58 228.57 167.39 229.83 167.39 232.44 169.58 231.17 169.58 228.57"/><polygon class="cls-27" points="174.54 232.14 172.74 233.18 172.74 230.57 174.54 229.53 174.54 232.14"/><polygon class="cls-27" points="163.75 235.67 152.35 242.34 152.35 244.94 163.75 238.27 163.75 235.67"/><polygon class="cls-27" points="167.39 209.47 174.54 205.35 174.54 202.74 167.39 206.87 167.39 209.47"/><polygon class="cls-27" points="157 215.47 165.82 210.38 165.82 207.78 157 212.87 157 215.47"/><polygon class="cls-27" points="163.75 215.64 161.96 216.67 161.96 214.07 163.75 213.03 163.75 215.64"/><polygon class="cls-27" points="174.54 209.41 172.74 210.45 172.74 207.84 174.54 206.81 174.54 209.41"/><polygon class="cls-27" points="171.5 208.56 164.86 212.39 164.86 215 171.5 211.16 171.5 208.56"/><polygon class="cls-27" points="171.5 215.97 164.86 219.8 164.86 222.41 171.5 218.57 171.5 215.97"/><polygon class="cls-27" points="160.73 214.78 152.35 219.61 152.35 222.22 160.73 217.38 160.73 214.78"/><polygon class="cls-27" points="159.35 219.14 152.35 223.25 152.35 225.86 159.35 221.75 159.35 219.14"/><polygon class="cls-27" points="174.54 216.88 172.74 217.92 172.74 215.31 174.54 214.28 174.54 216.88"/><polygon class="cls-27" points="163.75 220.41 152.35 227.08 152.35 229.69 163.75 223.01 163.75 220.41"/><polygon class="cls-27" points="171.5 254.41 164.86 258.24 164.86 260.85 171.5 257.02 171.5 254.41"/><polygon class="cls-27" points="159.35 257.58 152.35 261.69 152.35 264.3 159.35 260.19 159.35 257.58"/><polygon class="cls-27" points="174.54 255.32 172.74 256.36 172.74 253.75 174.54 252.72 174.54 255.32"/><polygon class="cls-27" points="163.75 258.85 152.35 265.52 152.35 268.13 163.75 261.45 163.75 258.85"/><polygon class="cls-78" points="143.6 209.95 119.84 196.24 119.84 197.81 143.6 211.53 143.6 209.95"/><polygon class="cls-78" points="143.6 215.45 119.84 201.74 119.84 203.32 143.6 217.03 143.6 215.45"/><polygon class="cls-78" points="143.6 228.94 119.84 215.23 119.84 216.81 143.6 230.52 143.6 228.94"/><polygon class="cls-78" points="143.6 237.23 119.84 223.51 119.84 225.09 143.6 238.81 143.6 237.23"/><polygon class="cls-78" points="143.6 242.43 119.84 228.72 119.84 230.29 143.6 244.01 143.6 242.43"/><polygon class="cls-78" points="143.6 255.92 119.84 242.2 119.84 243.78 143.6 257.5 143.6 255.92"/><polygon class="cls-78" points="143.6 263.7 119.84 249.98 119.84 251.56 143.6 265.28 143.6 263.7"/><path class="cls-78" d="M121.61,179.53h0l0,2.37a.59.59,0,0,0,0,.14s0,0,0,.05l0,.1v0a.83.83,0,0,0,.07.13s0,0,0,0l.12.15,0,0,.12.1,0,0,.19.13,23.69,13.77a3,3,0,0,0,.36.17l.14,0,.26.08.17,0,.26,0H148l.25,0,.17,0,.25-.08.14,0a2.21,2.21,0,0,0,.35-.16L173,182.82a1.14,1.14,0,0,0,.67-.94l0-2.38a1.12,1.12,0,0,0-.66-.92l-23.7-13.77a3.52,3.52,0,0,0-3.22,0l-23.85,13.77A1.11,1.11,0,0,0,121.61,179.53Zm0,.13a.08.08,0,0,1,0,0A.06.06,0,0,0,121.62,179.66Zm.26.48,0,0Zm.16.14,0,0Zm-.37-.48v0Zm51.94.08,0,0Zm.09-.25v0Zm0,.13a.13.13,0,0,1,0-.06A.13.13,0,0,0,173.67,179.76Zm-.23.36s0,0,.05-.05S173.46,180.11,173.44,180.12Zm.1-.11,0-.06Zm-.35.33,0,0Zm.14-.1,0-.05Z"/><g class="cls-5"><g class="cls-5"><path id="SVGID-33" data-name="SVGID" class="cls-1" d="M121.61,179.52l0,2.37a1.13,1.13,0,0,0,.67.93l0-2.38A1.12,1.12,0,0,1,121.61,179.52Z"/><g class="cls-97"><g class="cls-5"><path class="cls-1" d="M121.61,179.52l0,2.37a.87.87,0,0,0,.07.31l0-2.37A.85.85,0,0,1,121.61,179.52Z"/><path class="cls-1" d="M121.67,179.83l0,2.37a1.31,1.31,0,0,0,.6.62l0-2.38A1.4,1.4,0,0,1,121.67,179.83Z"/></g></g></g><path id="SVGID-34" data-name="SVGID" class="cls-2" d="M173.67,181.88l0-2.38a1.16,1.16,0,0,1-.67.94l0,2.38A1.14,1.14,0,0,0,173.67,181.88Z"/><g class="cls-98"><g class="cls-5"><path class="cls-2" d="M173,180.44l0,2.38a1.14,1.14,0,0,0,.67-.94l0-2.38A1.16,1.16,0,0,1,173,180.44Z"/></g></g><polygon class="cls-1" points="122.27 180.44 122.23 182.82 145.93 196.59 145.96 194.21 122.27 180.44"/><polygon class="cls-2" points="149.19 194.21 149.15 196.59 173 182.82 173.03 180.44 149.19 194.21"/><g class="cls-5"><g class="cls-99"><g class="cls-5"><path class="cls-83" d="M146,194.21l0,2.38a3.27,3.27,0,0,0,1.65.38l0-2.37A3.22,3.22,0,0,1,146,194.21Z"/><path class="cls-84" d="M147.61,194.6l0,2.37a3.2,3.2,0,0,0,1.57-.38l0-2.38A3.39,3.39,0,0,1,147.61,194.6Z"/></g></g></g><path class="cls-27" d="M122.28,178.58a1,1,0,0,0,0,1.86L146,194.21a3.54,3.54,0,0,0,3.23,0L173,180.44a1,1,0,0,0,0-1.86l-23.7-13.77a3.52,3.52,0,0,0-3.22,0Z"/><path class="cls-2" d="M166.11,180.19l-1.1.64-16.24,9.37a2.56,2.56,0,0,1-2.35,0l-16.12-9.37-1.11-.64a.72.72,0,0,1,0-1.36l17.35-10a2.54,2.54,0,0,1,2.34,0l17.23,10A.72.72,0,0,1,166.11,180.19Z"/><path class="cls-1" d="M165,180.83l-16.24,9.37a2.56,2.56,0,0,1-2.35,0l-16.12-9.37,16.25-9.37a2.54,2.54,0,0,1,2.34,0Z"/></g><rect class="cls-6" x="192.27" y="85.4" width="1.01" height="68.95"/><polygon class="cls-6" points="148.11 180.7 147.1 180.7 147.1 138.9 147.35 138.75 236.8 87.27 236.8 129.55 235.79 129.55 235.79 89.02 148.11 139.49 148.11 180.7"/><path class="cls-6" d="M150.05,179.71a5.51,5.51,0,0,0-5,0c-1.39.8-1.39,2.1,0,2.9a5.57,5.57,0,0,0,5,0C151.43,181.81,151.43,180.51,150.05,179.71Z"/><path class="cls-6" d="M196.46,154.22c-.64-2.74-6.73-2.74-7.37,0C189.73,157,195.82,157,196.46,154.22Z"/><path class="cls-6" d="M240,129.55c-.64-2.73-6.73-2.73-7.37,0C233.25,132.29,239.34,132.29,240,129.55Z"/><g class="cls-7"><ellipse class="cls-21" cx="240.88" cy="265.28" rx="27.84" ry="16.07"/><ellipse class="cls-22" cx="240.88" cy="265.28" rx="23.44" ry="13.53"/><ellipse class="cls-23" cx="240.88" cy="265.28" rx="19.04" ry="10.99"/><path class="cls-24" d="M251.23,259.3c5.71,3.3,5.71,8.65,0,11.95s-15,3.3-20.7,0-5.72-8.65,0-11.95S245.51,256,251.23,259.3Z"/><path class="cls-25" d="M248.11,261.1c4,2.31,4,6,0,8.35a16,16,0,0,1-14.47,0c-4-2.3-4-6,0-8.35A16,16,0,0,1,248.11,261.1Z"/><path class="cls-26" d="M245,262.9c2.28,1.31,2.28,3.44,0,4.76a9.15,9.15,0,0,1-8.25,0c-2.27-1.32-2.27-3.45,0-4.76A9.09,9.09,0,0,1,245,262.9Z"/><path class="cls-27" d="M241.89,264.69a.62.62,0,0,1,0,1.17,2.25,2.25,0,0,1-2,0,.62.62,0,0,1,0-1.17A2.25,2.25,0,0,1,241.89,264.69Z"/></g><g class="cls-7"><ellipse class="cls-21" cx="296.63" cy="233.76" rx="27.84" ry="16.07"/><ellipse class="cls-22" cx="296.63" cy="233.76" rx="23.44" ry="13.53"/><path class="cls-23" d="M310.09,226c7.43,4.29,7.43,11.25,0,15.54s-19.49,4.29-26.92,0-7.44-11.25,0-15.54S302.65,221.69,310.09,226Z"/><path class="cls-24" d="M307,227.78c5.71,3.3,5.71,8.65,0,11.95s-15,3.3-20.7,0-5.71-8.65,0-11.95S301.26,224.48,307,227.78Z"/><path class="cls-25" d="M303.86,229.58c4,2.31,4,6,0,8.35a16,16,0,0,1-14.47,0c-4-2.3-4-6,0-8.35A16,16,0,0,1,303.86,229.58Z"/><path class="cls-26" d="M300.75,231.38c2.28,1.31,2.28,3.44,0,4.76a9.15,9.15,0,0,1-8.25,0c-2.27-1.32-2.27-3.45,0-4.76A9.09,9.09,0,0,1,300.75,231.38Z"/><path class="cls-27" d="M297.64,233.17c.56.33.56.85,0,1.17a2.25,2.25,0,0,1-2,0c-.56-.32-.56-.84,0-1.17A2.25,2.25,0,0,1,297.64,233.17Z"/></g><g class="cls-7"><path class="cls-21" d="M276.45,48.79a1.07,1.07,0,1,1-1.07-1.07A1.07,1.07,0,0,1,276.45,48.79Z"/><path class="cls-22" d="M276.47,62.49a1.09,1.09,0,1,1-1.09-1.09A1.08,1.08,0,0,1,276.47,62.49Z"/><path class="cls-23" d="M276.48,76.18a1.1,1.1,0,1,1-1.1-1.1A1.11,1.11,0,0,1,276.48,76.18Z"/><path class="cls-24" d="M276.5,89.88a1.12,1.12,0,1,1-1.12-1.12A1.12,1.12,0,0,1,276.5,89.88Z"/><path class="cls-25" d="M276.52,103.58a1.14,1.14,0,1,1-1.14-1.14A1.14,1.14,0,0,1,276.52,103.58Z"/><path class="cls-26" d="M276.53,117.27a1.15,1.15,0,0,1-2.3,0,1.15,1.15,0,1,1,2.3,0Z"/><path class="cls-27" d="M276.55,131a1.17,1.17,0,1,1-1.17-1.17A1.17,1.17,0,0,1,276.55,131Z"/></g><g class="cls-7"><path class="cls-21" d="M110.87,143.93a1.07,1.07,0,1,1-1.07-1.06A1.06,1.06,0,0,1,110.87,143.93Z"/><path class="cls-22" d="M110.89,157.63a1.09,1.09,0,1,1-1.09-1.09A1.09,1.09,0,0,1,110.89,157.63Z"/><path class="cls-23" d="M110.9,171.33a1.1,1.1,0,1,1-1.1-1.11A1.1,1.1,0,0,1,110.9,171.33Z"/><path class="cls-24" d="M110.92,185a1.12,1.12,0,1,1-1.12-1.12A1.12,1.12,0,0,1,110.92,185Z"/><path class="cls-25" d="M110.93,198.72a1.14,1.14,0,0,1-2.27,0,1.14,1.14,0,1,1,2.27,0Z"/><path class="cls-26" d="M111,212.42a1.15,1.15,0,1,1-1.15-1.16A1.15,1.15,0,0,1,111,212.42Z"/><path class="cls-27" d="M111,226.11a1.17,1.17,0,1,1-1.17-1.17A1.17,1.17,0,0,1,111,226.11Z"/></g><g class="cls-7"><path class="cls-21" d="M158.44,226.39a1.07,1.07,0,1,1-1.07-1.07A1.07,1.07,0,0,1,158.44,226.39Z"/><path class="cls-22" d="M158.46,233.39a1.09,1.09,0,1,1-1.09-1.09A1.08,1.08,0,0,1,158.46,233.39Z"/><path class="cls-23" d="M158.47,240.38a1.1,1.1,0,1,1-1.1-1.1A1.11,1.11,0,0,1,158.47,240.38Z"/><path class="cls-24" d="M158.49,247.38a1.12,1.12,0,1,1-1.12-1.12A1.12,1.12,0,0,1,158.49,247.38Z"/><path class="cls-25" d="M158.51,254.38a1.14,1.14,0,1,1-1.14-1.14A1.14,1.14,0,0,1,158.51,254.38Z"/><path class="cls-26" d="M158.52,261.37a1.15,1.15,0,1,1-1.15-1.15A1.14,1.14,0,0,1,158.52,261.37Z"/><path class="cls-27" d="M158.54,268.37a1.17,1.17,0,1,1-1.17-1.17A1.17,1.17,0,0,1,158.54,268.37Z"/></g><g class="cls-7"><path class="cls-21" d="M140.53,100.76a1.07,1.07,0,1,1-1.07-1.07A1.07,1.07,0,0,1,140.53,100.76Z"/><path class="cls-22" d="M140.54,107.75a1.09,1.09,0,1,1-1.08-1.08A1.08,1.08,0,0,1,140.54,107.75Z"/><path class="cls-23" d="M140.56,114.75a1.1,1.1,0,1,1-1.1-1.1A1.1,1.1,0,0,1,140.56,114.75Z"/><path class="cls-24" d="M140.58,121.75a1.12,1.12,0,1,1-1.12-1.12A1.12,1.12,0,0,1,140.58,121.75Z"/><path class="cls-25" d="M140.59,128.74a1.14,1.14,0,1,1-1.13-1.13A1.14,1.14,0,0,1,140.59,128.74Z"/><path class="cls-26" d="M140.61,135.74a1.15,1.15,0,1,1-1.15-1.15A1.15,1.15,0,0,1,140.61,135.74Z"/><path class="cls-27" d="M140.63,142.74a1.17,1.17,0,1,1-1.17-1.17A1.17,1.17,0,0,1,140.63,142.74Z"/></g><path id="SVGID-35" data-name="SVGID" class="cls-4" d="M228.57,19.74l11.32,6.58c-3.78-2.2-9-1.89-14.79,1.45a30.72,30.72,0,0,0-3.62,2.45l-11.32-6.58a30.62,30.62,0,0,1,3.61-2.45C219.55,17.85,224.79,17.54,228.57,19.74Z"/><g class="cls-100"><path class="cls-4" d="M221.48,30.22l-11.32-6.58a30.62,30.62,0,0,1,3.61-2.45,21.67,21.67,0,0,1,6.33-2.53l11.33,6.58a21.46,21.46,0,0,0-6.33,2.53A30.72,30.72,0,0,0,221.48,30.22Z"/><path class="cls-4" d="M231.43,25.24,220.1,18.66a11.88,11.88,0,0,1,8.1.87l11.32,6.58A11.86,11.86,0,0,0,231.43,25.24Z"/><path class="cls-4" d="M239.52,26.11,228.2,19.53l.37.21,11.32,6.58Z"/></g><path id="SVGID-36" data-name="SVGID" class="cls-4" d="M202,11.84l11.33,6.58c-5.67-3.29-13.52-2.83-22.19,2.18L179.84,14C188.5,9,196.35,8.55,202,11.84Z"/><g class="cls-101"><path class="cls-4" d="M191.16,20.6,179.84,14a32.7,32.7,0,0,1,9.48-3.78l11.32,6.58A32.47,32.47,0,0,0,191.16,20.6Z"/><path class="cls-4" d="M200.64,16.81l-11.32-6.58a17.82,17.82,0,0,1,12.15,1.31l11.32,6.58A17.82,17.82,0,0,0,200.64,16.81Z"/><path class="cls-4" d="M212.79,18.12l-11.32-6.58.55.3,11.33,6.58Z"/></g><path id="SVGID-37" data-name="SVGID" class="cls-4" d="M161,65.14l-11.32-6.58C153,41,165.24,22.44,179.84,14l11.32,6.59C176.57,29,164.35,47.62,161,65.14Z"/><g class="cls-102"><path class="cls-4" d="M161,65.14l-11.32-6.58a65.45,65.45,0,0,1,4.58-14.32l11.32,6.58A65.45,65.45,0,0,0,161,65.14Z"/><path class="cls-4" d="M165.57,50.82l-11.32-6.58a75.69,75.69,0,0,1,10.48-17l11.33,6.58A75.37,75.37,0,0,0,165.57,50.82Z"/><path class="cls-4" d="M176.06,33.81l-11.33-6.58A56.68,56.68,0,0,1,179.84,14l11.32,6.59A56.75,56.75,0,0,0,176.06,33.81Z"/></g><path id="SVGID-38" data-name="SVGID" class="cls-4" d="M142.72,116.1l-11.33-6.58c-3.73-2.17-6-6.78-6.06-13.34,0-13.19,9.24-29.26,20.72-35.89a23.68,23.68,0,0,1,3.62-1.73L161,65.14a24.13,24.13,0,0,0-3.62,1.73c-11.48,6.63-20.76,22.7-20.72,35.89C136.67,109.32,139,113.93,142.72,116.1Z"/><g class="cls-103"><path class="cls-4" d="M142.72,116.1l-11.33-6.58c-3.73-2.17-6-6.78-6.06-13.34A39.19,39.19,0,0,1,129,80.44L140.31,87a39.36,39.36,0,0,0-3.66,15.74C136.67,109.32,139,113.93,142.72,116.1Z"/><path class="cls-4" d="M140.31,87,129,80.44a50.25,50.25,0,0,1,7-11.35l11.33,6.58A50.29,50.29,0,0,0,140.31,87Z"/><path class="cls-4" d="M147.31,75.67,136,69.09a37.87,37.87,0,0,1,10.07-8.8,23.68,23.68,0,0,1,3.62-1.73L161,65.14a24.13,24.13,0,0,0-3.62,1.73A38,38,0,0,0,147.31,75.67Z"/></g><path class="cls-27" d="M191.16,20.6c14.6-8.43,26.88-4,30.32,9.62a30.72,30.72,0,0,1,3.62-2.45c11.48-6.63,20.82-1.31,20.86,11.88,0,12.37-8.11,27.26-18.58,34.54l-69.87,40.46c-11.48,6.63-20.82,1.31-20.86-11.89s9.24-29.26,20.72-35.89A24.13,24.13,0,0,1,161,65.14C164.35,47.62,176.57,29,191.16,20.6Z"/><g class="cls-104"><path class="cls-105" d="M179.7,66.59a2.53,2.53,0,0,1-.7.27c-1.15.21-1.77-.87-1.38-2.42A38.38,38.38,0,0,1,189,45.59c7.85-6.9,15.9-7,19.13-.34.49,1,0,2.79-1.13,4s-2.4,1.36-2.89.36c-2.37-4.9-8.26-4.79-14,.25a28,28,0,0,0-8.34,13.81A4.9,4.9,0,0,1,179.7,66.59Z"/><polygon class="cls-105" points="174.7 65.16 180.31 72.77 185.64 58.66 174.7 65.16"/><path class="cls-105" d="M193.65,82.07c-6,3.48-11.79,2.93-14.62-1.8-.56-.93-.13-2.7.95-4s2.4-1.54,3-.61c2.54,4.24,8.29,3.88,13.68-.85a28,28,0,0,0,8.4-14,4.41,4.41,0,0,1,2.76-3.23c1.15-.24,1.79.81,1.42,2.36a38.34,38.34,0,0,1-11.47,19.19A26,26,0,0,1,193.65,82.07Z"/><polygon class="cls-105" points="212.08 59.76 207.31 51.15 201.17 65.16 212.08 59.76"/></g><g class="cls-7"><polygon class="cls-106" points="254.95 45.31 257.37 43.92 257.37 41.13 254.95 42.52 254.95 45.31"/><polygon class="cls-107" points="209.83 95.14 212.24 93.75 212.24 90.96 209.83 92.36 209.83 95.14"/><polygon class="cls-27" points="154.44 125.89 156.85 124.5 156.85 121.72 154.44 123.11 154.44 125.89"/><polygon class="cls-108" points="216.45 97.23 218.86 95.84 218.86 93.05 216.45 94.44 216.45 97.23"/><polygon class="cls-27" points="98.95 199.77 101.37 198.38 101.37 195.6 98.95 196.99 98.95 199.77"/><polygon class="cls-109" points="116.61 165.09 119.02 163.69 119.02 160.91 116.61 162.3 116.61 165.09"/></g></g></g></g></svg>