<svg id="Layer_1" data-name="Layer 1" xmlns="http://www.w3.org/2000/svg" xmlns:xlink="http://www.w3.org/1999/xlink" viewBox="0 0 400 300"><defs><style>.cls-1{opacity:0.4;}.cls-2,.cls-3,.cls-4{fill:#fff;}.cls-3{opacity:0.2;}.cls-27,.cls-4{opacity:0.5;}.cls-5{fill:#7ec3eb;}.cls-6{fill:url(#Áåçûìÿííûé_ãðàäèåíò_3);}.cls-7{fill:url(#Áåçûìÿííûé_ãðàäèåíò_9);}.cls-8{fill:url(#Áåçûìÿííûé_ãðàäèåíò_13);}.cls-9{fill:url(#Áåçûìÿííûé_ãðàäèåíò_3-2);}.cls-10{fill:url(#Áåçûìÿííûé_ãðàäèåíò_9-2);}.cls-11{fill:url(#Áåçûìÿííûé_ãðàäèåíò_13-2);}.cls-12{fill:url(#Áåçûìÿííûé_ãðàäèåíò_3-3);}.cls-13{fill:url(#Áåçûìÿííûé_ãðàäèåíò_9-3);}.cls-14{fill:url(#Áåçûìÿííûé_ãðàäèåíò_13-3);}.cls-15{fill:url(#Áåçûìÿííûé_ãðàäèåíò_3-4);}.cls-16{fill:url(#Áåçûìÿííûé_ãðàäèåíò_9-4);}.cls-17{fill:url(#Áåçûìÿííûé_ãðàäèåíò_13-4);}.cls-18{fill:url(#Áåçûìÿííûé_ãðàäèåíò_18);}.cls-19{fill:url(#Áåçûìÿííûé_ãðàäèåíò_9-5);}.cls-20{fill:#5793ce;}.cls-21{fill:url(#Áåçûìÿííûé_ãðàäèåíò_441);}.cls-22,.cls-27{fill:#1a3e78;}.cls-23{fill:#3a6dac;}.cls-24{fill:#1a1a38;opacity:0.3;}.cls-25{fill:#d5ecfb;}.cls-26{fill:#e93e8f;}.cls-28{fill:url(#Áåçûìÿííûé_ãðàäèåíò_13-5);}.cls-29{fill:url(#Áåçûìÿííûé_ãðàäèåíò_45);}.cls-30{fill:url(#Áåçûìÿííûé_ãðàäèåíò_13-6);}.cls-31{fill:url(#Áåçûìÿííûé_ãðàäèåíò_45-2);}.cls-32{fill:url(#Áåçûìÿííûé_ãðàäèåíò_13-7);}.cls-33{fill:url(#Áåçûìÿííûé_ãðàäèåíò_45-3);}</style><radialGradient id="Áåçûìÿííûé_ãðàäèåíò_3" cx="83.24" cy="241.21" r="30.6" gradientTransform="translate(7.59 5.69) scale(0.96 0.96)" gradientUnits="userSpaceOnUse"><stop offset="0" stop-color="#284f8a"/><stop offset="1" stop-color="#1a3e78"/></radialGradient><linearGradient id="Áåçûìÿííûé_ãðàäèåíò_9" x1="69.78" y1="227.07" x2="121.88" y2="227.07" gradientUnits="userSpaceOnUse"><stop offset="0" stop-color="#d5ecfb"/><stop offset="0.24" stop-color="#d1eafa"/><stop offset="0.46" stop-color="#c6e2f6"/><stop offset="0.67" stop-color="#b3d6f0"/><stop offset="0.88" stop-color="#99c5e7"/><stop offset="1" stop-color="#87b9e1"/></linearGradient><radialGradient id="Áåçûìÿííûé_ãðàäèåíò_13" cx="39.24" cy="209.54" r="55.32" gradientTransform="translate(7.59 5.69) scale(0.96 0.96)" gradientUnits="userSpaceOnUse"><stop offset="0" stop-color="#6b9ed2"/><stop offset="0.27" stop-color="#6497cd"/><stop offset="0.64" stop-color="#5285bf"/><stop offset="1" stop-color="#3a6dac"/></radialGradient><radialGradient id="Áåçûìÿííûé_ãðàäèåíò_3-2" cx="313.15" cy="113.51" r="30.6" xlink:href="#Áåçûìÿííûé_ãðàäèåíò_3"/><linearGradient id="Áåçûìÿííûé_ãðàäèåíò_9-2" x1="290.98" y1="104.21" x2="343.08" y2="104.21" xlink:href="#Áåçûìÿííûé_ãðàäèåíò_9"/><radialGradient id="Áåçûìÿííûé_ãðàäèåíò_13-2" cx="269.15" cy="81.84" r="55.32" xlink:href="#Áåçûìÿííûé_ãðàäèåíò_13"/><radialGradient id="Áåçûìÿííûé_ãðàäèåíò_3-3" cx="313.15" cy="241.21" r="30.6" xlink:href="#Áåçûìÿííûé_ãðàäèåíò_3"/><linearGradient id="Áåçûìÿííûé_ãðàäèåíò_9-3" x1="290.98" y1="227.07" x2="343.08" y2="227.07" xlink:href="#Áåçûìÿííûé_ãðàäèåíò_9"/><radialGradient id="Áåçûìÿííûé_ãðàäèåíò_13-3" cx="269.15" cy="209.54" r="55.32" xlink:href="#Áåçûìÿííûé_ãðàäèåíò_13"/><radialGradient id="Áåçûìÿííûé_ãðàäèåíò_3-4" cx="83.24" cy="113.51" r="30.6" xlink:href="#Áåçûìÿííûé_ãðàäèåíò_3"/><linearGradient id="Áåçûìÿííûé_ãðàäèåíò_9-4" x1="69.78" y1="104.21" x2="121.88" y2="104.21" xlink:href="#Áåçûìÿííûé_ãðàäèåíò_9"/><radialGradient id="Áåçûìÿííûé_ãðàäèåíò_13-4" cx="39.24" cy="81.84" r="55.32" xlink:href="#Áåçûìÿííûé_ãðàäèåíò_13"/><radialGradient id="Áåçûìÿííûé_ãðàäèåíò_18" cx="178.24" cy="109.52" r="110.11" gradientTransform="translate(7.59 5.69) scale(0.96 0.96)" gradientUnits="userSpaceOnUse"><stop offset="0" stop-color="#3a6dac"/><stop offset="1" stop-color="#284f8a"/></radialGradient><linearGradient id="Áåçûìÿííûé_ãðàäèåíò_9-5" x1="145.75" y1="35.91" x2="244.53" y2="96.09" xlink:href="#Áåçûìÿííûé_ãðàäèåíò_9"/><linearGradient id="Áåçûìÿííûé_ãðàäèåíò_441" x1="-169.35" y1="1314.25" x2="-111.29" y2="1301.09" gradientTransform="matrix(0.87, 0.5, 0, 1.15, 289.54, -1309.83)" gradientUnits="userSpaceOnUse"><stop offset="0" stop-color="#3b3c90"/><stop offset="1" stop-color="#4c4797"/></linearGradient><radialGradient id="Áåçûìÿííûé_ãðàäèåíò_13-5" cx="165.98" cy="240.13" r="39.65" xlink:href="#Áåçûìÿííûé_ãðàäèåíò_13"/><linearGradient id="Áåçûìÿííûé_ãðàäèåíò_45" x1="174.47" y1="224.49" x2="234.22" y2="260.11" gradientUnits="userSpaceOnUse"><stop offset="0" stop-color="#d5ecfb"/><stop offset="0.2" stop-color="#d1eafa"/><stop offset="0.39" stop-color="#c6e2f6"/><stop offset="0.57" stop-color="#b3d6f0"/><stop offset="0.74" stop-color="#99c5e7"/><stop offset="0.84" stop-color="#87b9e1"/></linearGradient><radialGradient id="Áåçûìÿííûé_ãðàäèåíò_13-6" cx="280.93" cy="160.22" r="39.65" xlink:href="#Áåçûìÿííûé_ãðàäèåíò_13"/><linearGradient id="Áåçûìÿííûé_ãðàäèåíò_45-2" x1="285.07" y1="147.61" x2="344.82" y2="183.23" xlink:href="#Áåçûìÿííûé_ãðàäèåíò_45"/><radialGradient id="Áåçûìÿííûé_ãðàäèåíò_13-7" cx="51.02" cy="160.22" r="39.65" xlink:href="#Áåçûìÿííûé_ãðàäèåíò_13"/><linearGradient id="Áåçûìÿííûé_ãðàäèåíò_45-3" x1="63.88" y1="147.61" x2="123.63" y2="183.23" xlink:href="#Áåçûìÿííûé_ãðàäèåíò_45"/></defs><g class="cls-1"><path class="cls-2" d="M332.08,87.29l-27.36-15.8L332.08,55.7l.24.14,27.12,15.65Zm-25.42-15.8,25.42,14.68L357.5,71.49,332.08,56.81Z"/><path class="cls-2" d="M279.3,87.28,251.94,71.49l27.36-15.8,27.36,15.8ZM253.88,71.49,279.3,86.17l25.42-14.68L279.3,56.81Z"/><path class="cls-2" d="M305.69,102.52l-.24-.14L278.33,86.73l27.36-15.8,27.36,15.8ZM280.27,86.73l25.42,14.67,25.42-14.67L305.69,72.05Z"/><path class="cls-2" d="M332.08,117.76l-.24-.14L304.72,102l27.36-15.79.24.14L359.44,102ZM306.66,102l25.42,14.68L357.5,102,332.08,87.29Z"/><path class="cls-2" d="M226.52,87.28l-.24-.14L199.16,71.49l27.36-15.8.24.14,27.12,15.66ZM201.1,71.49l25.42,14.68,25.42-14.68L226.52,56.81Z"/><path class="cls-2" d="M252.91,102.52l-27.36-15.8,27.36-15.79,27.36,15.8Zm-25.42-15.8,25.42,14.68,25.42-14.67L252.91,72.05Z"/><path class="cls-2" d="M279.3,117.76l-.24-.14L251.94,102,279.3,86.17l.24.14L306.66,102ZM253.88,102l25.42,14.68L304.72,102,279.3,87.28Z"/><path class="cls-2" d="M305.69,133l-.24-.14L278.33,117.2l27.36-15.8.24.14,27.12,15.66ZM280.27,117.2l25.42,14.67,25.42-14.67-25.42-14.68Z"/><path class="cls-2" d="M332.08,148.23l-.24-.14-27.12-15.66,27.36-15.79,27.36,15.79Zm-25.42-15.8,25.42,14.68,25.42-14.68-25.42-14.67Z"/><path class="cls-2" d="M173.74,87.28l-.24-.14L146.39,71.49l27.35-15.8.24.14L201.1,71.49ZM148.32,71.49l25.42,14.68,25.42-14.68L173.74,56.81Z"/><path class="cls-2" d="M200.13,102.52l-.24-.14L172.78,86.72l27.35-15.79.24.14,27.12,15.65Zm-25.42-15.8,25.42,14.68,25.42-14.68L200.13,72.05Z"/><path class="cls-2" d="M226.52,117.76l-.24-.14L199.17,102l27.35-15.79L253.88,102ZM201.1,102l25.42,14.68L251.94,102,226.52,87.28Z"/><path class="cls-2" d="M252.91,133,225.55,117.2l27.36-15.8.24.14,27.12,15.66ZM227.49,117.2l25.42,14.67,25.42-14.67-25.42-14.68Z"/><path class="cls-2" d="M279.3,148.23l-.24-.14-27.12-15.66,27.36-15.79.24.14,27.12,15.65Zm-25.42-15.8,25.42,14.68,25.42-14.68L279.3,117.76Z"/><path class="cls-2" d="M305.69,163.46l-.24-.14-27.12-15.65,27.36-15.8.24.14,27.12,15.66Zm-25.42-15.79,25.42,14.68,25.42-14.68L305.69,133Z"/><path class="cls-2" d="M332.08,178.7l-.24-.14-27.12-15.65,27.36-15.8.24.14,27.12,15.66Zm-25.42-15.79,25.42,14.67,25.42-14.67-25.42-14.68Z"/><path class="cls-2" d="M121,87.28l-.25-.14L93.61,71.49,121,55.69l.25.14,27.11,15.66ZM95.54,71.49,121,86.16l25.42-14.67L121,56.81Z"/><path class="cls-2" d="M147.35,102.52,120,86.72l27.35-15.79.25.14,27.11,15.65Zm-25.42-15.8,25.42,14.68,25.43-14.68L147.35,72.05Z"/><path class="cls-2" d="M173.74,117.76l-.24-.14L146.39,102l27.35-15.79.25.14L201.1,102ZM148.32,102l25.42,14.68L199.17,102,173.74,87.28Z"/><path class="cls-2" d="M200.13,133l-.24-.14L172.78,117.2l27.35-15.8.25.14,27.11,15.66ZM174.71,117.2l25.42,14.67,25.42-14.67-25.42-14.68Z"/><path class="cls-2" d="M226.52,148.23l-27.35-15.8,27.35-15.79,27.36,15.79Zm-25.42-15.8,25.42,14.68,25.42-14.68-25.42-14.67Z"/><path class="cls-2" d="M252.91,163.46l-.24-.14-27.12-15.65,27.36-15.8.24.14,27.12,15.66Zm-25.42-15.79,25.42,14.67,25.42-14.67L252.91,133Z"/><path class="cls-2" d="M279.3,178.7l-27.36-15.8,27.36-15.79.24.14,27.12,15.66Zm-25.42-15.8,25.42,14.68,25.42-14.67L279.3,148.23Z"/><path class="cls-2" d="M305.69,193.94l-.24-.14-27.12-15.66,27.36-15.79.24.14,27.12,15.65Zm-25.42-15.8,25.42,14.68,25.42-14.68-25.42-14.68Z"/><path class="cls-2" d="M332.08,209.17l-.24-.14-27.12-15.65,27.36-15.8.24.14,27.12,15.66Zm-25.42-15.79,25.42,14.67,25.42-14.67L332.08,178.7Z"/><path class="cls-2" d="M68.19,87.28l-.25-.14L40.83,71.49l27.36-15.8.24.14L95.54,71.49ZM42.77,71.49,68.19,86.16,93.61,71.49,68.19,56.81Z"/><path class="cls-2" d="M94.58,102.52l-.25-.14L67.22,86.72,94.58,70.93l.24.14,27.11,15.65ZM69.15,86.72,94.58,101.4,120,86.72,94.58,72.05Z"/><path class="cls-2" d="M121,117.76l-.25-.15L93.61,102,121,86.16,148.32,102ZM95.54,102,121,116.64,146.39,102,121,87.28Z"/><path class="cls-2" d="M147.36,133,120,117.2l27.35-15.8.25.14,27.11,15.66ZM121.93,117.2l25.43,14.67,25.42-14.67-25.43-14.68Z"/><path class="cls-2" d="M173.75,148.23l-.25-.14-27.11-15.66,27.35-15.79.25.14,27.11,15.65Zm-25.43-15.8,25.43,14.68,25.42-14.68-25.43-14.67Z"/><path class="cls-2" d="M200.13,163.46l-27.35-15.79,27.35-15.8,27.36,15.8Zm-25.42-15.79,25.42,14.67,25.42-14.67L200.13,133Z"/><path class="cls-2" d="M226.52,178.7l-.24-.14L199.17,162.9l27.35-15.79.24.14,27.12,15.65ZM201.1,162.9l25.42,14.68,25.42-14.68-25.42-14.67Z"/><path class="cls-2" d="M252.91,193.94l-.24-.14-27.11-15.66,27.35-15.8,27.36,15.8Zm-25.42-15.8,25.42,14.68,25.42-14.68-25.42-14.68Z"/><path class="cls-2" d="M279.3,209.17,252,193.38l27.35-15.8.24.14,27.12,15.66Zm-25.42-15.79,25.42,14.67,25.42-14.67L279.3,178.7Z"/><path class="cls-2" d="M305.69,224.41l-.24-.14-27.11-15.66,27.35-15.79.24.14,27.12,15.65Zm-25.42-15.8,25.42,14.68,25.42-14.68-25.42-14.67Z"/><path class="cls-2" d="M332.08,239.64l-.24-.14-27.12-15.65,27.36-15.8.24.14,27.12,15.66Zm-25.42-15.79,25.42,14.68,25.42-14.68-25.42-14.68Z"/><path class="cls-2" d="M68.19,117.76l-.24-.15L40.83,102l27.36-15.8.24.14L95.54,102ZM42.77,102l25.42,14.68L93.61,102,68.19,87.28Z"/><path class="cls-2" d="M94.58,133l-.24-.14L67.22,117.2l27.36-15.8.24.14,27.11,15.66ZM69.16,117.2l25.42,14.67L120,117.2,94.58,102.52Z"/><path class="cls-2" d="M121,148.23l-.24-.14L93.61,132.43,121,116.64l27.35,15.79Zm-25.42-15.8L121,147.11l25.42-14.68L121,117.76Z"/><path class="cls-2" d="M147.36,163.46l-.25-.14L120,147.67l27.36-15.8.24.14,27.11,15.66Zm-25.42-15.79,25.42,14.67,25.42-14.67L147.36,133Z"/><path class="cls-2" d="M173.75,178.7l-27.36-15.8,27.36-15.79L201.1,162.9Zm-25.42-15.8,25.42,14.68,25.42-14.68-25.42-14.67Z"/><path class="cls-2" d="M200.14,193.94l-27.36-15.8,27.35-15.8.25.14,27.11,15.66Zm-25.43-15.8,25.43,14.68,25.42-14.68-25.43-14.68Z"/><path class="cls-2" d="M226.52,209.17l-.24-.14-27.11-15.65,27.35-15.8.25.14,27.11,15.66ZM201.1,193.38l25.42,14.67L252,193.38,226.52,178.7Z"/><path class="cls-2" d="M252.91,224.41l-.24-.14-27.11-15.66,27.35-15.79,27.36,15.79Zm-25.42-15.8,25.42,14.68,25.43-14.68-25.43-14.67Z"/><path class="cls-2" d="M279.3,239.64l-.24-.14L252,223.85l27.35-15.8.25.14,27.11,15.66Zm-25.42-15.79,25.42,14.67,25.42-14.67L279.3,209.17Z"/><path class="cls-2" d="M305.69,254.88l-27.35-15.8,27.35-15.79.24.14,27.12,15.65Zm-25.42-15.8,25.42,14.68,25.42-14.68-25.42-14.67Z"/><path class="cls-2" d="M332.08,270.12l-.24-.14-27.11-15.66,27.35-15.79.24.14,27.12,15.65Zm-25.42-15.8L332.08,269l25.42-14.68-25.42-14.68Z"/><path class="cls-2" d="M68.19,148.23l-27.36-15.8,27.36-15.79.24.14,27.12,15.65Zm-25.42-15.8,25.42,14.68,25.42-14.68L68.19,117.76Z"/><path class="cls-2" d="M94.58,163.46l-.24-.14L67.22,147.67l27.36-15.8.24.14,27.12,15.66ZM69.16,147.67l25.42,14.67L120,147.67,94.58,133Z"/><path class="cls-2" d="M121,178.7l-.24-.14L93.61,162.9,121,147.11l.24.14,27.12,15.65ZM95.55,162.9,121,177.58l25.42-14.68L121,148.23Z"/><path class="cls-2" d="M147.36,193.93l-.24-.14L120,178.14l27.36-15.8,27.35,15.8Zm-25.42-15.79,25.42,14.68,25.42-14.68-25.42-14.68Z"/><path class="cls-2" d="M173.75,209.17l-27.36-15.79,27.36-15.8,27.35,15.8Zm-25.42-15.79,25.42,14.67,25.42-14.67L173.75,178.7Z"/><path class="cls-2" d="M200.14,224.41l-27.36-15.8,27.36-15.79.24.14,27.11,15.65Zm-25.43-15.8,25.43,14.68,25.42-14.68-25.42-14.67Z"/><path class="cls-2" d="M226.53,239.64l-.25-.14-27.11-15.65,27.35-15.8.25.14,27.11,15.66ZM201.1,223.85l25.43,14.67L252,223.85l-25.43-14.68Z"/><path class="cls-2" d="M252.92,254.88l-.25-.14-27.11-15.66,27.35-15.79.25.14,27.11,15.65Zm-25.43-15.8,25.43,14.68,25.42-14.68-25.43-14.67Z"/><path class="cls-2" d="M279.31,270.11l-.25-.14L252,254.32l27.35-15.8,27.36,15.8Zm-25.43-15.79L279.31,269l25.42-14.68L279.3,239.64Z"/><path class="cls-2" d="M68.19,178.7,40.83,162.9l27.36-15.79.24.14L95.55,162.9ZM42.77,162.9l25.42,14.68L93.61,162.9,68.19,148.23Z"/><path class="cls-2" d="M94.58,193.93l-.24-.14L67.22,178.14l27.36-15.8.24.14,27.12,15.66ZM69.16,178.14l25.42,14.68L120,178.14,94.58,163.46Z"/><path class="cls-2" d="M121,209.17l-.24-.14L93.61,193.38,121,177.58l.24.14,27.12,15.66ZM95.55,193.38,121,208.05l25.42-14.67L121,178.7Z"/><path class="cls-2" d="M147.36,224.41,120,208.61l27.36-15.79,27.35,15.79Zm-25.42-15.8,25.42,14.68,25.42-14.68-25.42-14.68Z"/><path class="cls-2" d="M173.75,239.64l-.24-.14-27.12-15.65,27.36-15.8,27.35,15.8Zm-25.42-15.79,25.42,14.67,25.42-14.67-25.42-14.68Z"/><path class="cls-2" d="M200.14,254.88l-27.36-15.8,27.36-15.79.24.14,27.11,15.65Zm-25.42-15.8,25.42,14.68,25.42-14.68-25.42-14.67Z"/><path class="cls-2" d="M226.53,270.11l-.25-.14-27.11-15.65,27.36-15.8.24.14,27.11,15.66Zm-25.42-15.79L226.53,269,252,254.32l-25.42-14.68Z"/><path class="cls-2" d="M68.19,209.17,68,209,40.83,193.37l27.36-15.79.24.14,27.12,15.66Zm-25.42-15.8,25.42,14.68,25.42-14.67L68.19,178.7Z"/><path class="cls-2" d="M94.58,224.41l-27.36-15.8,27.36-15.79.24.14,27.12,15.65Zm-25.42-15.8,25.42,14.68L120,208.61,94.58,193.93Z"/><path class="cls-2" d="M121,239.64l-.24-.14L93.61,223.85,121,208.05l27.36,15.8ZM95.55,223.85,121,238.52l25.42-14.67L121,209.17Z"/><path class="cls-2" d="M147.36,254.88,120,239.08l27.36-15.79.24.14,27.12,15.65Zm-25.42-15.8,25.42,14.68,25.42-14.68-25.42-14.67Z"/><path class="cls-2" d="M173.75,270.11l-.24-.14-27.12-15.65,27.36-15.8,27.36,15.8Zm-25.42-15.79L173.75,269l25.42-14.68-25.42-14.68Z"/><path class="cls-2" d="M68.19,239.64,68,239.5,40.83,223.85l27.36-15.8,27.36,15.8ZM42.77,223.85l25.42,14.67,25.42-14.67L68.19,209.17Z"/><path class="cls-2" d="M94.58,254.88l-.24-.14L67.22,239.08l27.36-15.79.24.14,27.12,15.65Zm-25.42-15.8,25.42,14.68L120,239.08,94.58,224.41Z"/><path class="cls-2" d="M121,270.11,93.61,254.32,121,238.52l27.36,15.8ZM95.55,254.32,121,269l25.42-14.68L121,239.64Z"/><path class="cls-2" d="M68.19,270.11,68,270,40.83,254.32l27.36-15.8.24.14,27.12,15.66ZM42.77,254.32,68.19,269l25.42-14.67L68.19,239.64Z"/></g><path class="cls-2" d="M251.13,229.54a5.64,5.64,0,0,1-2.56,4.42c-1.41.81-2.55.15-2.55-1.47a5.66,5.66,0,0,1,2.55-4.43C250,227.25,251.13,227.91,251.13,229.54Z"/><path class="cls-2" d="M259.4,224.76a5.63,5.63,0,0,1-2.55,4.42c-1.41.82-2.56.16-2.56-1.47a5.64,5.64,0,0,1,2.56-4.42C258.26,222.47,259.4,223.13,259.4,224.76Z"/><path class="cls-2" d="M267.67,220a5.66,5.66,0,0,1-2.55,4.43c-1.41.81-2.55.15-2.55-1.48a5.63,5.63,0,0,1,2.55-4.42C266.53,217.7,267.67,218.36,267.67,220Z"/><path class="cls-2" d="M276,215.21a5.67,5.67,0,0,1-2.56,4.42c-1.41.81-2.55.15-2.55-1.48a5.66,5.66,0,0,1,2.55-4.42C274.8,212.92,276,213.58,276,215.21Z"/><path class="cls-2" d="M132,275.17a5.64,5.64,0,0,1-2.55,4.42c-1.41.81-2.55.15-2.55-1.48a5.66,5.66,0,0,1,2.55-4.42C130.81,272.88,132,273.54,132,275.17Z"/><path class="cls-2" d="M139,271.1a5.64,5.64,0,0,1-2.56,4.42c-1.41.82-2.55.16-2.55-1.47a5.63,5.63,0,0,1,2.55-4.42C137.85,268.81,139,269.47,139,271.1Z"/><path class="cls-2" d="M132,267a5.66,5.66,0,0,1-2.55,4.42c-1.41.81-2.55.15-2.55-1.48a5.66,5.66,0,0,1,2.55-4.42C130.81,264.75,132,265.41,132,267Z"/><path class="cls-2" d="M139,263a5.64,5.64,0,0,1-2.56,4.42c-1.41.82-2.55.16-2.55-1.47a5.63,5.63,0,0,1,2.55-4.42C137.85,260.68,139,261.34,139,263Z"/><polygon class="cls-2" points="108.3 71.41 103.2 74.36 103.2 68.46 108.3 65.52 108.3 71.41"/><polygon class="cls-2" points="115.39 67.27 110.28 70.22 110.28 64.32 115.39 61.37 115.39 67.27"/><polygon class="cls-2" points="108.35 79.06 103.24 82.01 103.24 76.11 108.35 73.16 108.35 79.06"/><polygon class="cls-2" points="115.39 74.99 110.28 77.94 110.28 72.05 115.39 69.1 115.39 74.99"/><path class="cls-3" d="M316.57,12.94a9.8,9.8,0,0,0-2.49,2.15c-.12-4.92-3.65-6.88-8-4.38a14.68,14.68,0,0,0-3.84,3.35c-1.93-3.38-5.94-4.16-10.58-1.48-6.53,3.77-11.83,12.94-11.83,20.48a14,14,0,0,0,.12,1.76,4.44,4.44,0,0,0-3.31.67,12.49,12.49,0,0,0-5.66,9.8c0,3.61,2.53,5.07,5.66,3.26l39.92-23A12,12,0,0,0,322,16.08C322,12.61,319.58,11.21,316.57,12.94Z"/><path class="cls-4" d="M323.69,19.21a9.84,9.84,0,0,0-2.5,2.15c-.11-4.92-3.64-6.89-8-4.38a14.68,14.68,0,0,0-3.84,3.35c-1.93-3.38-5.94-4.16-10.58-1.48C292.25,22.62,287,31.79,287,39.33a14.09,14.09,0,0,0,.11,1.76,4.44,4.44,0,0,0-3.31.67,12.5,12.5,0,0,0-5.65,9.8c0,3.6,2.53,5.07,5.65,3.26l39.93-23a12,12,0,0,0,5.44-9.42C329.13,18.88,326.69,17.48,323.69,19.21Z"/><path class="cls-2" d="M330.8,25.48a10,10,0,0,0-2.49,2.14c-.12-4.91-3.65-6.88-8-4.37a14.49,14.49,0,0,0-3.84,3.35c-1.94-3.38-5.94-4.16-10.59-1.48-6.53,3.77-11.82,12.94-11.82,20.48a14,14,0,0,0,.12,1.76,4.44,4.44,0,0,0-3.31.67,12.49,12.49,0,0,0-5.66,9.8c0,3.6,2.53,5.07,5.66,3.26L330.8,38a12,12,0,0,0,5.44-9.42C336.24,25.15,333.81,23.75,330.8,25.48Z"/><path class="cls-2" d="M99,201.56a1.23,1.23,0,0,1-.62-.17,1.24,1.24,0,0,1-.62-1.07V184.51a1.24,1.24,0,0,1,.62-1.07l13.7-7.91a1.23,1.23,0,0,1,1.23,0,1.24,1.24,0,0,1,.62,1.07v15.82a1.26,1.26,0,0,1-.62,1.07l-13.7,7.9A1.22,1.22,0,0,1,99,201.56Zm1.23-16.34v13l11.23-6.49v-13Zm12.46,7.2h0Z"/><polygon class="cls-5" points="89.54 278.77 69.78 267.36 89.54 255.96 109.29 267.36 89.54 278.77"/><path class="cls-2" d="M89.54,271.7a1.43,1.43,0,0,1-.75-.2L69,260.1a1.51,1.51,0,0,1,0-2.61l19.76-11.4a1.49,1.49,0,0,1,1.5,0L110,257.49a1.5,1.5,0,0,1,0,2.61L90.29,271.5A1.43,1.43,0,0,1,89.54,271.7ZM72.79,258.8l16.75,9.67,16.75-9.67-16.75-9.68Z"/><polygon class="cls-6" points="109.29 249.88 89.54 261.29 89.54 238.48 109.29 227.07 109.29 249.88"/><polygon class="cls-7" points="89.54 238.48 69.78 227.07 89.54 215.67 109.29 227.07 89.54 238.48"/><polygon class="cls-8" points="89.54 261.29 69.78 249.88 69.78 227.07 89.54 238.48 89.54 261.29"/><polygon class="cls-2" points="82.42 248.97 76.9 245.78 76.9 239.4 82.42 242.59 82.42 248.97"/><polygon class="cls-5" points="310.73 155.91 290.98 144.5 310.73 133.09 330.49 144.5 310.73 155.91"/><path class="cls-2" d="M310.73,148.84a1.53,1.53,0,0,1-.75-.2l-19.75-11.4a1.5,1.5,0,0,1,0-2.61L310,123.23a1.49,1.49,0,0,1,1.5,0l19.76,11.4a1.51,1.51,0,0,1,0,2.61l-19.76,11.4A1.53,1.53,0,0,1,310.73,148.84ZM294,135.93l16.75,9.68,16.75-9.68-16.75-9.67Z"/><polygon class="cls-9" points="330.49 127.02 310.73 138.43 310.73 115.62 330.49 104.21 330.49 127.02"/><polygon class="cls-10" points="310.73 115.62 290.98 104.21 310.73 92.81 330.49 104.21 310.73 115.62"/><polygon class="cls-11" points="310.73 138.43 290.98 127.02 290.98 104.21 310.73 115.62 310.73 138.43"/><polygon class="cls-2" points="303.62 126.11 298.09 122.92 298.09 116.54 303.62 119.73 303.62 126.11"/><polygon class="cls-2" points="305.21 104.28 310.69 101.02 316.26 104.15 310.77 107.4 305.21 104.28"/><polygon class="cls-5" points="310.73 278.77 290.98 267.36 310.73 255.96 330.49 267.36 310.73 278.77"/><path class="cls-2" d="M310.73,271.7a1.43,1.43,0,0,1-.75-.2l-19.75-11.4a1.5,1.5,0,0,1,0-2.61L310,246.09a1.49,1.49,0,0,1,1.5,0l19.76,11.4a1.51,1.51,0,0,1,0,2.61l-19.76,11.4A1.43,1.43,0,0,1,310.73,271.7ZM294,258.8l16.75,9.67,16.75-9.67-16.75-9.68Z"/><polygon class="cls-12" points="330.49 249.88 310.73 261.29 310.73 238.48 330.49 227.07 330.49 249.88"/><polygon class="cls-13" points="310.73 238.48 290.98 227.07 310.73 215.67 330.49 227.07 310.73 238.48"/><polygon class="cls-14" points="310.73 261.29 290.98 249.88 290.98 227.07 310.73 238.48 310.73 261.29"/><polygon class="cls-2" points="303.62 248.97 298.09 245.78 298.09 239.4 303.62 242.59 303.62 248.97"/><polygon class="cls-5" points="89.54 155.91 69.78 144.5 89.54 133.09 109.29 144.5 89.54 155.91"/><path class="cls-2" d="M89.54,148.84a1.53,1.53,0,0,1-.75-.2L69,137.24a1.51,1.51,0,0,1,0-2.61l19.76-11.4a1.49,1.49,0,0,1,1.5,0L110,134.63a1.5,1.5,0,0,1,0,2.61l-19.75,11.4A1.53,1.53,0,0,1,89.54,148.84ZM72.79,135.93l16.75,9.68,16.75-9.68-16.75-9.67Z"/><polygon class="cls-15" points="109.29 127.02 89.54 138.43 89.54 115.62 109.29 104.21 109.29 127.02"/><polygon class="cls-16" points="89.54 115.62 69.78 104.21 89.54 92.81 109.29 104.21 89.54 115.62"/><polygon class="cls-17" points="89.54 138.43 69.78 127.02 69.78 104.21 89.54 115.62 89.54 138.43"/><polygon class="cls-2" points="82.42 126.11 76.9 122.92 76.9 116.54 82.42 119.73 82.42 126.11"/><rect class="cls-2" x="238.68" y="136.72" width="66.34" height="3" transform="translate(-32.69 154.4) rotate(-29.99)"/><path class="cls-5" d="M195.47,236.46l-50.66-29.25c-1.86-1.07-1.62-2.94.52-4.18L199,172a8,8,0,0,1,7.24-.3l50.67,29.25c1.85,1.07,1.62,2.94-.53,4.18l-53.69,31.08A8,8,0,0,1,195.47,236.46Z"/><path class="cls-2" d="M198.63,226.85a8,8,0,0,1-3.91-.91l-50.66-29.25a3.65,3.65,0,0,1-2-3.12,4.42,4.42,0,0,1,2.53-3.67l53.7-31.08c2.59-1.5,6.44-1.63,8.74-.3l50.67,29.25a3.64,3.64,0,0,1,2,3.12,4.41,4.41,0,0,1-2.52,3.66l-53.7,31.08A9.88,9.88,0,0,1,198.63,226.85Zm-2.41-3.52A6.58,6.58,0,0,0,202,223L255.66,192c.75-.43,1-.87,1-1.06s-.16-.32-.51-.52l-50.66-29.25a6.63,6.63,0,0,0-5.74.3l-53.7,31.08c-.75.44-1,.88-1,1.07s.15.31.5.51Z"/><path class="cls-18" d="M199.13,82.5s-27.82,2.65-44.57,3.93L199,213l58.77-33.9h0l.1-.06h0a3.25,3.25,0,0,0,1.2-2.9V52.41a9,9,0,0,0-1-3.95Z"/><path class="cls-19" d="M255.46,45.46,203.77,15.61a2.33,2.33,0,0,0-2.35-.2h0l-59,34,2.78,10.29L160,101.88l2.78,1.61,95.31-55A7.21,7.21,0,0,0,255.46,45.46Z"/><path class="cls-20" d="M196.5,212.87,144.81,183c-2-1.16-3.64-4.28-3.64-7V52.38c0-2.68,1.63-3.91,3.64-2.75L196.5,79.47c2,1.16,3.63,4.28,3.63,7V210.12C200.13,212.8,198.51,214,196.5,212.87Z"/><path class="cls-2" d="M197.6,78.85,145.92,49a2.16,2.16,0,0,0-2.87.21,2.7,2.7,0,0,1,1.76.41L196.5,79.47c2,1.16,3.63,4.28,3.63,7V210.12a3.81,3.81,0,0,1-.77,2.54c1.12-.18,1.88-1.33,1.88-3.16V85.8C201.24,83.12,199.61,80,197.6,78.85Z"/><path class="cls-21" d="M193.24,205.42l-45.18-26.09a7.59,7.59,0,0,1-3.18-6.07V58.38c0-2.34,1.42-3.42,3.18-2.4l45.18,26.08a7.63,7.63,0,0,1,3.19,6.08V203C196.43,205.36,195,206.44,193.24,205.42Z"/><path class="cls-21" d="M193.24,205.42l-45.18-26.09a7.59,7.59,0,0,1-3.18-6.07V58.38c0-2.34,1.42-3.42,3.18-2.4l45.18,26.08a7.63,7.63,0,0,1,3.19,6.08V203C196.43,205.36,195,206.44,193.24,205.42Z"/><path class="cls-22" d="M193.24,205.42l-45.18-26.09a7.59,7.59,0,0,1-3.18-6.07V58.38c0-2.34,1.42-3.42,3.18-2.4l45.18,26.08a7.63,7.63,0,0,1,3.19,6.08V203C196.43,205.36,195,206.44,193.24,205.42Z"/><path class="cls-23" d="M194.72,204.55l-45.19-26.08a7.65,7.65,0,0,1-3.18-6.08V57.51a3.62,3.62,0,0,1,.46-1.91c-1.14,0-1.93,1-1.93,2.78V173.26a7.59,7.59,0,0,0,3.18,6.07l45.18,26.09a1.84,1.84,0,0,0,2.73-.49A2.49,2.49,0,0,1,194.72,204.55Z"/><path class="cls-22" d="M193.24,152.68,176.45,143l-26.79,15.46,46.77,27V158.76A7.63,7.63,0,0,0,193.24,152.68Z"/><path class="cls-22" d="M193.24,129.14l-16.79-9.69-26.79,15.46,46.77,27V135.22A7.63,7.63,0,0,0,193.24,129.14Z"/><path class="cls-22" d="M193.24,105.6l-16.79-9.69-26.79,15.46,46.77,27V111.68A7.63,7.63,0,0,0,193.24,105.6Z"/><path class="cls-22" d="M193.24,82.06l-16.79-9.69L149.66,87.83l46.77,27V88.14A7.63,7.63,0,0,0,193.24,82.06Z"/><path class="cls-22" d="M193.24,82.06,156.06,60.6l-6.4,3.69,46.77,27V88.14A7.63,7.63,0,0,0,193.24,82.06Z"/><polygon class="cls-20" points="196.43 91.29 149.66 64.29 149.66 79.17 196.43 106.17 196.43 91.29"/><polygon class="cls-20" points="196.43 114.83 149.66 87.83 149.66 102.71 196.43 129.71 196.43 114.83"/><polygon class="cls-20" points="196.43 138.37 149.66 111.37 149.66 126.25 196.43 153.25 196.43 138.37"/><polygon class="cls-20" points="196.43 161.91 149.66 134.91 149.66 149.79 196.43 176.79 196.43 161.91"/><polygon class="cls-20" points="196.43 185.45 149.66 158.45 149.66 173.33 196.43 200.33 196.43 185.45"/><path class="cls-22" d="M192.3,100.87,157.08,80.53a4.31,4.31,0,0,1-1.8-3.44v-4c0-1.33.81-1.94,1.8-1.36L192.3,92.08a4.3,4.3,0,0,1,1.8,3.44v4C194.1,100.83,193.3,101.44,192.3,100.87Z"/><path class="cls-24" d="M158.86,79.77a4.31,4.31,0,0,1-1.8-3.44v-4a3.32,3.32,0,0,1,.06-.57l0,0c-1-.58-1.8,0-1.8,1.36v4a4.31,4.31,0,0,0,1.8,3.44l35.22,20.34a1.08,1.08,0,0,0,1.74-.79Z"/><path class="cls-2" d="M181.25,90l-21.2-12.24a1.5,1.5,0,0,1-.63-1.21h0c0-.47.28-.68.63-.48l21.2,12.24a1.5,1.5,0,0,1,.63,1.21h0C181.88,89.93,181.6,90.15,181.25,90Z"/><path class="cls-22" d="M192.3,124.26l-35.22-20.33a4.34,4.34,0,0,1-1.8-3.44v-4c0-1.33.81-1.93,1.8-1.36l35.22,20.33a4.32,4.32,0,0,1,1.8,3.45v4C194.1,124.23,193.3,124.83,192.3,124.26Z"/><path class="cls-24" d="M158.86,103.16a4.28,4.28,0,0,1-1.8-3.44v-4a3.22,3.22,0,0,1,.06-.57l0,0c-1-.57-1.8,0-1.8,1.36v4a4.34,4.34,0,0,0,1.8,3.44l35.22,20.33a1.08,1.08,0,0,0,1.74-.79Z"/><path class="cls-2" d="M181.25,113.34l-21.2-12.24a1.5,1.5,0,0,1-.63-1.21h0c0-.46.28-.68.63-.48l21.2,12.24a1.5,1.5,0,0,1,.63,1.21h0C181.88,113.33,181.6,113.54,181.25,113.34Z"/><path class="cls-22" d="M192.3,147.87l-35.22-20.33a4.34,4.34,0,0,1-1.8-3.44v-4c0-1.32.81-1.93,1.8-1.36l35.22,20.34a4.28,4.28,0,0,1,1.8,3.44v4C194.1,147.84,193.3,148.45,192.3,147.87Z"/><path class="cls-24" d="M158.86,126.77a4.28,4.28,0,0,1-1.8-3.44v-4a3.22,3.22,0,0,1,.06-.57l0,0c-1-.57-1.8,0-1.8,1.36v4a4.34,4.34,0,0,0,1.8,3.44l35.22,20.33a1.08,1.08,0,0,0,1.74-.79Z"/><path class="cls-25" d="M181.25,137l-21.2-12.23a1.54,1.54,0,0,1-.63-1.22h0c0-.46.28-.68.63-.47l21.2,12.23a1.52,1.52,0,0,1,.63,1.21h0C181.88,136.94,181.6,137.15,181.25,137Z"/><path class="cls-22" d="M192.3,171.7l-35.22-20.33a4.34,4.34,0,0,1-1.8-3.44v-4c0-1.32.81-1.93,1.8-1.36l35.22,20.34a4.28,4.28,0,0,1,1.8,3.44v4C194.1,171.67,193.3,172.28,192.3,171.7Z"/><path class="cls-24" d="M158.86,150.6a4.28,4.28,0,0,1-1.8-3.44v-4a3.22,3.22,0,0,1,.06-.57l0,0c-1-.57-1.8,0-1.8,1.36v4a4.34,4.34,0,0,0,1.8,3.44L192.3,171.7a1.08,1.08,0,0,0,1.74-.79Z"/><path class="cls-26" d="M181.25,160.78l-21.2-12.23a1.54,1.54,0,0,1-.63-1.22h0c0-.46.28-.68.63-.47l21.2,12.23a1.52,1.52,0,0,1,.63,1.21h0C181.88,160.77,181.6,161,181.25,160.78Z"/><path class="cls-22" d="M192.3,195.06l-35.22-20.33a4.35,4.35,0,0,1-1.8-3.45v-4c0-1.33.81-1.94,1.8-1.36l35.22,20.33a4.31,4.31,0,0,1,1.8,3.44v4C194.1,195,193.3,195.63,192.3,195.06Z"/><path class="cls-24" d="M158.86,174a4.28,4.28,0,0,1-1.8-3.44v-4a3.22,3.22,0,0,1,.06-.57l0,0c-1-.58-1.8,0-1.8,1.36v4a4.35,4.35,0,0,0,1.8,3.45l35.22,20.33a1.08,1.08,0,0,0,1.74-.79Z"/><path class="cls-25" d="M181.25,184.14l-21.2-12.24a1.5,1.5,0,0,1-.63-1.21h0c0-.46.28-.68.63-.48l21.2,12.24a1.5,1.5,0,0,1,.63,1.21h0C181.88,184.13,181.6,184.34,181.25,184.14Z"/><polygon class="cls-27" points="149.66 64.29 153.34 66.42 153.34 81.3 149.66 79.17 149.66 64.29"/><polygon class="cls-27" points="149.66 87.83 153.34 89.96 153.34 104.84 149.66 102.71 149.66 87.83"/><polygon class="cls-27" points="149.66 111.37 153.34 113.5 153.34 128.38 149.66 126.25 149.66 111.37"/><polygon class="cls-27" points="149.66 134.91 153.34 137.04 153.34 151.91 149.66 149.79 149.66 134.91"/><polygon class="cls-27" points="149.66 158.45 153.34 160.58 153.34 175.45 149.66 173.33 149.66 158.45"/><ellipse class="cls-25" cx="184.68" cy="90.98" rx="0.61" ry="1.05" transform="translate(-20.75 104.55) rotate(-30)"/><path class="cls-26" d="M188.59,93.24c0,.48-.34.67-.75.43a1.67,1.67,0,0,1-.75-1.29c0-.48.34-.67.75-.43A1.65,1.65,0,0,1,188.59,93.24Z"/><path class="cls-25" d="M191.75,95.07c0,.47-.34.66-.75.43a1.67,1.67,0,0,1-.75-1.3c0-.47.34-.66.75-.43A1.67,1.67,0,0,1,191.75,95.07Z"/><path class="cls-26" d="M185.42,114.94c0,.48-.33.67-.74.43a1.64,1.64,0,0,1-.75-1.29c0-.47.34-.67.75-.43A1.66,1.66,0,0,1,185.42,114.94Z"/><path class="cls-25" d="M188.59,116.77c0,.47-.34.67-.75.43a1.67,1.67,0,0,1-.75-1.29c0-.48.34-.67.75-.43A1.64,1.64,0,0,1,188.59,116.77Z"/><path class="cls-2" d="M191.75,118.59c0,.48-.34.67-.75.43a1.64,1.64,0,0,1-.75-1.29c0-.47.34-.67.75-.43A1.67,1.67,0,0,1,191.75,118.59Z"/><path class="cls-2" d="M185.42,138.65c0,.47-.33.67-.74.43a1.67,1.67,0,0,1-.75-1.29c0-.48.34-.67.75-.43A1.63,1.63,0,0,1,185.42,138.65Z"/><path class="cls-26" d="M188.59,140.47c0,.48-.34.67-.75.43a1.64,1.64,0,0,1-.75-1.29c0-.47.34-.67.75-.43A1.67,1.67,0,0,1,188.59,140.47Z"/><path class="cls-2" d="M191.75,142.3c0,.47-.34.67-.75.43a1.67,1.67,0,0,1-.75-1.29c0-.48.34-.67.75-.43A1.64,1.64,0,0,1,191.75,142.3Z"/><path class="cls-2" d="M185.42,162c0,.47-.33.67-.74.43a1.67,1.67,0,0,1-.75-1.29c0-.48.34-.67.75-.43A1.63,1.63,0,0,1,185.42,162Z"/><path class="cls-25" d="M188.59,163.83c0,.48-.34.67-.75.43a1.64,1.64,0,0,1-.75-1.29c0-.47.34-.67.75-.43A1.67,1.67,0,0,1,188.59,163.83Z"/><path class="cls-25" d="M191.75,165.66c0,.47-.34.67-.75.43a1.67,1.67,0,0,1-.75-1.29c0-.48.34-.67.75-.43A1.64,1.64,0,0,1,191.75,165.66Z"/><path class="cls-2" d="M185.42,185.69c0,.47-.33.66-.74.43a1.67,1.67,0,0,1-.75-1.29c0-.48.34-.67.75-.44A1.66,1.66,0,0,1,185.42,185.69Z"/><path class="cls-26" d="M188.59,187.51c0,.48-.34.67-.75.43a1.65,1.65,0,0,1-.75-1.29c0-.48.34-.67.75-.43A1.67,1.67,0,0,1,188.59,187.51Z"/><path class="cls-25" d="M191.75,189.34c0,.47-.34.66-.75.43a1.67,1.67,0,0,1-.75-1.29c0-.48.34-.67.75-.44A1.67,1.67,0,0,1,191.75,189.34Z"/><path class="cls-22" d="M207.92,196.15V90.82l.22-.12,44-25.41V170.61l-.22.12Zm.87-104.82V194.64l42.49-24.53V66.8Z"/><path class="cls-22" d="M240.72,112.67,221,124.07c-1.32.76-2.4,0-2.4-1.82V111.31a5.77,5.77,0,0,1,2.4-4.59l19.74-11.39c1.33-.77,2.4,0,2.4,1.81v11A5.73,5.73,0,0,1,240.72,112.67Z"/><path class="cls-20" d="M241.2,95.12a3.19,3.19,0,0,1,.18,1.09v11a5.74,5.74,0,0,1-2.4,4.58l-19.74,11.4a2.5,2.5,0,0,1-.48.21,1.4,1.4,0,0,0,2.22.72l19.74-11.4a5.73,5.73,0,0,0,2.4-4.58v-11C243.12,95.59,242.3,94.78,241.2,95.12Z"/><path class="cls-2" d="M237.12,106.08c.36-.21.66,0,.66.39V109a1.47,1.47,0,0,1-.66,1.14c-.37.21-.66,0-.66-.38v-2.49A1.46,1.46,0,0,1,237.12,106.08Z"/><path class="cls-25" d="M234.28,108c.37-.21.67,0,.67.38v2.18a1.47,1.47,0,0,1-.67,1.15c-.36.21-.66,0-.66-.38v-2.19A1.47,1.47,0,0,1,234.28,108Z"/><path class="cls-26" d="M231.45,107.23c.37-.21.66,0,.66.38v4.62a1.44,1.44,0,0,1-.66,1.14c-.36.21-.66,0-.66-.38v-4.61A1.47,1.47,0,0,1,231.45,107.23Z"/><path class="cls-25" d="M228.62,106.21c.37-.21.66,0,.66.38v7.27a1.46,1.46,0,0,1-.66,1.15c-.36.21-.66,0-.66-.39v-7.27A1.47,1.47,0,0,1,228.62,106.21Z"/><path class="cls-25" d="M225.79,108.6c.37-.21.66,0,.66.39v6.51a1.44,1.44,0,0,1-.66,1.14c-.36.21-.66,0-.66-.38v-6.51A1.48,1.48,0,0,1,225.79,108.6Z"/><path class="cls-2" d="M223,113.21c.36-.21.66,0,.66.38v3.54a1.5,1.5,0,0,1-.66,1.15c-.37.21-.66,0-.66-.39v-3.53A1.46,1.46,0,0,1,223,113.21Z"/><path class="cls-26" d="M236.47,104.82c0,.42.29.59.65.38a1.46,1.46,0,0,0,.65-1.13c0-.41-.3-.58-.65-.37A1.43,1.43,0,0,0,236.47,104.82Z"/><ellipse class="cls-2" cx="237.12" cy="102.11" rx="0.92" ry="0.53" transform="translate(30.12 256.39) rotate(-60)"/><rect class="cls-2" x="309.23" y="45.94" width="3" height="58.27"/><path class="cls-5" d="M196.78,289.9,166.6,272.48c-1.85-1.07-1.62-2.94.52-4.18l29.14-16.82a8,8,0,0,1,7.23-.3l30.18,17.42c1.85,1.07,1.62,2.94-.52,4.18L204,289.6A8,8,0,0,1,196.78,289.9Z"/><path class="cls-2" d="M199.93,282.81a8.17,8.17,0,0,1-4-1h0l-30.18-17.43a3.85,3.85,0,0,1-2.11-3.29,4.63,4.63,0,0,1,2.63-3.85l29.14-16.82a9.62,9.62,0,0,1,8.94-.3l30.18,17.42a3.86,3.86,0,0,1,2.11,3.3,4.61,4.61,0,0,1-2.63,3.84l-29.14,16.83A10.07,10.07,0,0,1,199.93,282.81Zm-2.29-3.93a6.34,6.34,0,0,0,5.51-.3l29.14-16.82c.73-.43.91-.81.91-.88a1.18,1.18,0,0,0-.39-.33l-30.18-17.42a6.33,6.33,0,0,0-5.51.3L168,260.25c-.74.42-.91.81-.92.88a1.16,1.16,0,0,0,.4.33l30.18,17.42Z"/><path class="cls-23" d="M234.91,250.2h0V239.79H211.56l-8.07-4.66a8,8,0,0,0-7.23.3l-7.53,4.34H165.36v10.71a2.11,2.11,0,0,0,1.24,1.94l30.18,17.42a8,8,0,0,0,7.23-.3l29.14-16.82C234.38,252,235,251.06,234.91,250.2Z"/><path class="cls-28" d="M200.13,234.4a8.2,8.2,0,0,0-3.87,1l-7.53,4.34H165.36v10.71a2.11,2.11,0,0,0,1.24,1.94l30.18,17.42a6.58,6.58,0,0,0,3.35.72Z"/><path class="cls-25" d="M168,239.75h-2.64v10.71a2.11,2.11,0,0,0,1.24,1.94l1.4.81Z"/><path class="cls-20" d="M197.24,270.05A8.28,8.28,0,0,0,203,270V257.82h-5.78Z"/><path class="cls-29" d="M196.78,259.15,166.6,241.73c-1.85-1.07-1.62-2.94.52-4.18l29.14-16.82a8,8,0,0,1,7.23-.3l30.18,17.42c1.85,1.07,1.62,2.94-.52,4.18L204,258.85A8,8,0,0,1,196.78,259.15Z"/><path class="cls-2" d="M233.15,240,204,256.8a8,8,0,0,1-7.23.3L166.6,239.68a2.76,2.76,0,0,1-.92-.82c-.64,1-.35,2.13.92,2.87l30.18,17.42a8,8,0,0,0,7.23-.3L233.15,242c1.66-1,2.16-2.3,1.44-3.36A4,4,0,0,1,233.15,240Z"/><path class="cls-25" d="M223.81,253a2.7,2.7,0,0,1-1.22,2.11c-.68.39-1.22.08-1.22-.7a2.67,2.67,0,0,1,1.22-2.11C223.26,251.86,223.81,252.17,223.81,253Z"/><path class="cls-25" d="M227.73,250.69a2.72,2.72,0,0,1-1.22,2.11c-.67.39-1.22.07-1.22-.71a2.72,2.72,0,0,1,1.22-2.11C227.18,249.59,227.73,249.91,227.73,250.69Z"/><path class="cls-25" d="M231.65,248.42a2.7,2.7,0,0,1-1.22,2.11c-.67.39-1.22.08-1.22-.7a2.7,2.7,0,0,1,1.22-2.11C231.1,247.33,231.65,247.64,231.65,248.42Z"/><path class="cls-20" d="M198.56,248.35l-14.12-8.16c-.87-.5-.76-1.37.24-1.95l13.64-7.87a3.75,3.75,0,0,1,3.38-.14l14.12,8.15c.87.5.76,1.38-.24,2L202,248.21A3.8,3.8,0,0,1,198.56,248.35Z"/><path class="cls-25" d="M199.92,241.52l-2-1.13c-.12-.07-.1-.19,0-.27l1.88-1.09a.52.52,0,0,1,.47,0l2,1.13c.12.07.11.19,0,.27l-1.89,1.09A.5.5,0,0,1,199.92,241.52Z"/><path class="cls-23" d="M184.44,240.19l0,0,.2-.14,13.64-7.88a3.78,3.78,0,0,1,3.38-.14l14.08,8.13c.8-.57.85-1.35,0-1.81l-14.12-8.15a3.75,3.75,0,0,0-3.38.14l-13.64,7.87C183.68,238.82,183.57,239.69,184.44,240.19Z"/><path class="cls-5" d="M307.38,213,277.2,195.59c-1.85-1.07-1.62-2.93.52-4.17l29.14-16.82a8,8,0,0,1,7.22-.3l30.18,17.42c1.86,1.07,1.62,2.94-.51,4.17L314.6,212.72A8,8,0,0,1,307.38,213Z"/><path class="cls-2" d="M310.53,205.93a8.15,8.15,0,0,1-4-1h0l-30.18-17.43a3.83,3.83,0,0,1-2.11-3.29,4.63,4.63,0,0,1,2.63-3.85L306,163.58a9.62,9.62,0,0,1,8.94-.3l30.18,17.42a3.85,3.85,0,0,1,2.11,3.3,4.61,4.61,0,0,1-2.63,3.84l-29.14,16.83A10.07,10.07,0,0,1,310.53,205.93Zm-2.3-3.93a6.36,6.36,0,0,0,5.52-.3l29.14-16.83c.73-.42.91-.8.91-.87a1.18,1.18,0,0,0-.39-.33l-30.18-17.42a6.33,6.33,0,0,0-5.51.3l-29.15,16.82c-.73.42-.9.81-.91.88a1.1,1.1,0,0,0,.39.32L308.23,202Z"/><path class="cls-23" d="M345.51,173.32h0V162.91l-23.35,0-8.08-4.66a8.06,8.06,0,0,0-7.22.3l-7.53,4.35H276v10.71a2.07,2.07,0,0,0,1.24,1.93l30.18,17.43a8,8,0,0,0,7.22-.3l29.15-16.83A2.88,2.88,0,0,0,345.51,173.32Z"/><path class="cls-30" d="M310.73,157.52a8.31,8.31,0,0,0-3.87,1l-7.53,4.35H276v10.71a2.07,2.07,0,0,0,1.24,1.93l30.18,17.43a6.58,6.58,0,0,0,3.35.72Z"/><path class="cls-25" d="M278.6,162.87H276v10.71a2.07,2.07,0,0,0,1.24,1.93l1.4.82Z"/><path class="cls-20" d="M307.84,193.17a8.28,8.28,0,0,0,5.78-.07V180.94h-5.78Z"/><path class="cls-31" d="M307.38,182.27,277.2,164.84c-1.85-1.07-1.62-2.93.52-4.17l29.14-16.82a8,8,0,0,1,7.22-.3L344.26,161c1.86,1.07,1.62,2.94-.51,4.17L314.6,182A8,8,0,0,1,307.38,182.27Z"/><path class="cls-2" d="M343.75,163.09,314.6,179.92a8,8,0,0,1-7.22.3L277.2,162.79a2.6,2.6,0,0,1-.93-.82,2,2,0,0,0,.93,2.87l30.18,17.43a8,8,0,0,0,7.22-.3l29.15-16.83c1.66-1,2.16-2.3,1.44-3.35A3.94,3.94,0,0,1,343.75,163.09Z"/><path class="cls-25" d="M334.4,176.07a2.69,2.69,0,0,1-1.21,2.11c-.68.39-1.22.07-1.22-.7a2.66,2.66,0,0,1,1.22-2.11C333.86,175,334.4,175.29,334.4,176.07Z"/><path class="cls-25" d="M338.33,173.8a2.72,2.72,0,0,1-1.22,2.12c-.68.38-1.22.07-1.22-.71a2.67,2.67,0,0,1,1.22-2.11C337.78,172.71,338.33,173,338.33,173.8Z"/><path class="cls-25" d="M342.25,171.54a2.7,2.7,0,0,1-1.22,2.11c-.67.39-1.22.08-1.22-.7a2.7,2.7,0,0,1,1.22-2.11C341.7,170.45,342.25,170.76,342.25,171.54Z"/><path class="cls-20" d="M309.16,171.47,295,163.31c-.87-.5-.76-1.37.24-1.95l13.64-7.87a3.75,3.75,0,0,1,3.38-.14l14.12,8.15c.87.5.76,1.37-.24,1.95l-13.64,7.87A3.75,3.75,0,0,1,309.16,171.47Z"/><path class="cls-25" d="M310.51,164.64l-1.95-1.13c-.12-.07-.1-.19,0-.27l1.89-1.09a.52.52,0,0,1,.47,0l1.95,1.13c.12.07.11.19,0,.27L311,164.62A.52.52,0,0,1,310.51,164.64Z"/><path class="cls-23" d="M295,163.31l0,0,.2-.14,13.64-7.87a3.75,3.75,0,0,1,3.38-.14l14.08,8.13c.8-.57.84-1.35,0-1.81l-14.12-8.15a3.75,3.75,0,0,0-3.38.14l-13.64,7.87C294.28,161.94,294.17,162.81,295,163.31Z"/><path class="cls-5" d="M86.19,213,56,195.59c-1.86-1.07-1.62-2.93.51-4.17L85.67,174.6a8,8,0,0,1,7.22-.3l30.18,17.42c1.85,1.07,1.62,2.94-.52,4.17L93.41,212.72A8,8,0,0,1,86.19,213Z"/><path class="cls-2" d="M89.34,205.93a8.12,8.12,0,0,1-4-1h0L55.15,187.54A3.83,3.83,0,0,1,53,184.25a4.63,4.63,0,0,1,2.63-3.85l29.14-16.82a9.62,9.62,0,0,1,8.94-.3l30.18,17.42A3.85,3.85,0,0,1,126,184a4.61,4.61,0,0,1-2.63,3.84L94.27,204.67A10.1,10.1,0,0,1,89.34,205.93ZM87,202a6.36,6.36,0,0,0,5.52-.3l29.14-16.83c.73-.42.9-.8.91-.87a1.18,1.18,0,0,0-.39-.33L92,166.25a6.34,6.34,0,0,0-5.51.3L57.38,183.37c-.73.42-.91.81-.91.88a1.1,1.1,0,0,0,.39.32L87,202Z"/><path class="cls-23" d="M124.31,173.32h0V162.91l-23.35,0-8.07-4.66a8.06,8.06,0,0,0-7.22.3l-7.53,4.35H54.76v10.71A2.1,2.1,0,0,0,56,175.51l30.18,17.43a8,8,0,0,0,7.22-.3l29.14-16.83A2.84,2.84,0,0,0,124.31,173.32Z"/><path class="cls-32" d="M89.54,157.52a8.28,8.28,0,0,0-3.87,1l-7.53,4.35H54.76v10.71A2.1,2.1,0,0,0,56,175.51l30.18,17.43a6.58,6.58,0,0,0,3.35.72Z"/><path class="cls-25" d="M57.41,162.87H54.76v10.71A2.1,2.1,0,0,0,56,175.51l1.4.82Z"/><path class="cls-20" d="M86.65,193.17a8.28,8.28,0,0,0,5.78-.07V180.94H86.65Z"/><path class="cls-33" d="M86.19,182.27,56,164.84c-1.86-1.07-1.62-2.93.51-4.17l29.15-16.82a8,8,0,0,1,7.22-.3L123.07,161c1.85,1.07,1.62,2.94-.52,4.17L93.41,182A8,8,0,0,1,86.19,182.27Z"/><path class="cls-2" d="M122.55,163.09,93.41,179.92a8,8,0,0,1-7.22.3L56,162.79a2.6,2.6,0,0,1-.93-.82,1.94,1.94,0,0,0,.93,2.87l30.18,17.43a8,8,0,0,0,7.22-.3l29.14-16.83c1.67-1,2.17-2.3,1.45-3.35A4,4,0,0,1,122.55,163.09Z"/><path class="cls-25" d="M113.21,176.07a2.67,2.67,0,0,1-1.22,2.11c-.67.39-1.22.07-1.22-.7a2.68,2.68,0,0,1,1.22-2.11C112.67,175,113.21,175.29,113.21,176.07Z"/><path class="cls-25" d="M117.13,173.8a2.71,2.71,0,0,1-1.21,2.12c-.68.38-1.22.07-1.22-.71a2.67,2.67,0,0,1,1.22-2.11C116.59,172.71,117.13,173,117.13,173.8Z"/><path class="cls-25" d="M121.06,171.54a2.7,2.7,0,0,1-1.22,2.11c-.68.39-1.22.08-1.22-.7a2.67,2.67,0,0,1,1.22-2.11C120.51,170.45,121.06,170.76,121.06,171.54Z"/><path class="cls-20" d="M88,171.47l-14.12-8.16c-.87-.5-.76-1.37.24-1.95l13.64-7.87a3.75,3.75,0,0,1,3.38-.14l14.12,8.15c.87.5.76,1.37-.24,1.95l-13.64,7.87A3.75,3.75,0,0,1,88,171.47Z"/><path class="cls-25" d="M89.32,164.64l-1.95-1.13c-.12-.07-.11-.19,0-.27l1.89-1.09a.52.52,0,0,1,.47,0l1.95,1.13c.12.07.11.19,0,.27l-1.89,1.09A.52.52,0,0,1,89.32,164.64Z"/><path class="cls-23" d="M73.85,163.31l0,0,.2-.14,13.64-7.87a3.75,3.75,0,0,1,3.38-.14l14.08,8.13c.8-.57.84-1.35,0-1.81l-14.12-8.15a3.75,3.75,0,0,0-3.38.14l-13.64,7.87C73.09,161.94,73,162.81,73.85,163.31Z"/></svg>