<svg xmlns="http://www.w3.org/2000/svg" xmlns:xlink="http://www.w3.org/1999/xlink" viewBox="0 0 400 300"><defs><style>.cls-1{fill:none;}.cls-2{isolation:isolate;}.cls-15,.cls-16,.cls-17,.cls-23,.cls-3{mix-blend-mode:multiply;}.cls-4{clip-path:url(#clip-path);}.cls-5{fill:#a3a3a2;}.cls-6{fill:#dadada;}.cls-7{clip-path:url(#clip-path-2);}.cls-8{fill:#d9d9d9;}.cls-23,.cls-9{fill:#bdbdbc;}.cls-10{fill:#6f6f6e;}.cls-11{fill:#e9e8e8;}.cls-12,.cls-14{fill:#a2a1a1;}.cls-13{fill:#6e6e6e;}.cls-14{opacity:0.6;}.cls-14,.cls-22,.cls-30{mix-blend-mode:screen;}.cls-15{fill:#cac9c9;}.cls-16{fill:#d5d5d4;}.cls-17{fill:#e3e3e2;}.cls-18{fill:#cfcece;}.cls-19{fill:#7f8080;}.cls-20{fill:#979797;}.cls-21{fill:#4969b1;}.cls-22{fill:#5173b8;}.cls-24{fill:#ce7812;}.cls-25{fill:#f6a543;}.cls-26{fill:#f7bf31;}.cls-27{fill:#f29319;}.cls-28,.cls-30{fill:#ffda22;}.cls-29{fill:#e53112;}.cls-30{opacity:0.5;}.cls-31{fill:#010101;opacity:0.2;}.cls-32{fill:#c19b80;}.cls-33{fill:#e8c6ac;}.cls-34{fill:#141414;}.cls-35{fill:#231f20;}.cls-36{fill:#292928;}.cls-37{fill:#383736;}.cls-38{fill:#eeeded;}.cls-39{fill:#fde7da;}.cls-40{fill:#7b7a7b;}.cls-41{fill:#fff;}.cls-42{fill:#633b15;}.cls-43{fill:#6d6d6d;}.cls-44{fill:#4d4c4c;}.cls-45{fill:#969696;}.cls-46{fill:#6d6d6c;}.cls-47{fill:#6c4712;}.cls-48{fill:#8c5c13;}.cls-49{fill:#aeadad;}.cls-50{fill:#9c9b9b;}.cls-51{fill:#acb3b7;}.cls-52{fill:#5e6163;}.cls-53{fill:#8c8c8d;}.cls-54{fill:#d2d2d2;}.cls-55{fill:#323435;}.cls-56{fill:#1f1f1f;}.cls-57{fill:#4a4a4a;}.cls-58{fill:#9a9fa2;}.cls-59{fill:#6e7273;}.cls-60{fill:#9c9e9e;}.cls-61{fill:#676b6d;}.cls-62{fill:#858b8c;}.cls-63{fill:#3e2513;}</style><clipPath id="clip-path"><path id="SVGID" class="cls-1" d="M144.74,201.74c37.26-13.53,97.87-13.53,135.38,0-16.5-6-37.48-9.29-59-10C193.79,190.83,165.6,194.16,144.74,201.74Z"/></clipPath><clipPath id="clip-path-2"><path id="SVGID-2" data-name="SVGID" class="cls-1" d="M145.18,250.74c-37.51-13.53-37.71-35.47-.44-49-24.41,8.86-32.75,21.33-25.06,32.68C123.73,240.4,132.23,246.07,145.18,250.74Z"/></clipPath></defs><g class="cls-2"><g id="Layer_1" data-name="Layer 1"><g class="cls-3"><g class="cls-2"><g class="cls-2"><g class="cls-4"><g class="cls-2"><path class="cls-5" d="M144.74,201.74c18.06-6.56,41.6-9.94,65.35-10.14-23.75.2-47.29,3.58-65.35,10.14Z"/><path class="cls-6" d="M210.09,191.6h0Z"/><path class="cls-5" d="M213.11,191.59c24.24.07,48.45,3.45,67,10.15-18.56-6.7-42.77-10.08-67-10.15Z"/></g></g></g><g class="cls-2"><g class="cls-7"><g class="cls-2"><path class="cls-5" d="M145.18,250.74c-37.51-13.53-37.71-35.47-.44-49-37.27,13.53-37.07,35.47.44,49Z"/></g></g></g><path class="cls-8" d="M280.12,201.74c37.51,13.53,37.7,35.47.44,49s-97.88,13.53-135.38,0-37.71-35.47-.44-49S242.61,188.21,280.12,201.74Z"/></g></g><path class="cls-9" d="M125.39,199.22a11,11,0,0,1,.28-1.6,11.3,11.3,0,0,1,.58-1.83,13.9,13.9,0,0,1,1.89-3.31c.46-.61.87-1.06,1.2-1.45.2-.22.46-.48.71-.73a.47.47,0,0,1,.1-.1l0,0,0,0,.43-.41h0l2-1.82-.12.11h0l.11-.12.05,0,0,0,0,0a24.79,24.79,0,0,1,2-1.64c.34-.26.69-.51,1.07-.77.83-.55,1.7-1.09,2.66-1.64l.76-.42h0c15.65-8.27,40.51-11.94,64.74-12.64,29.64-1,60.55,2.56,78.45,10.45l.29.12.22.1c.5.23,1,.46,1.48.7l.14.06.09,0a43.16,43.16,0,0,1,4.25,2.38c4.24,2.71,6.61,5.41,7.36,8,0,.09.05.18.08.27v0a6.31,6.31,0,0,1,0,3.34c.83-2.8-.18-5.71-3.35-8.61l2,1.82h0l.26.24h0l.07.08,0,0h0l0,0h0l0,0,0,0a20.93,20.93,0,0,1,1.57,1.69,14.36,14.36,0,0,1,1.82,2.66,12.28,12.28,0,0,1,1.56,5.1c0,.16,0,.31,0,.47l0,.53c0,4.45-4.24,8.56-11.54,12.08-8.5,4.19-21.12,7.45-35.8,9.56a294.41,294.41,0,0,1-78.71.39c-2.42-.32-4.76-.68-7-1-26.66-4.46-42-12.42-42-20.69A10.33,10.33,0,0,1,125.39,199.22Z"/><path class="cls-10" d="M174.36,247.35c-30.3-4.07-48.18-12.39-49-21.15a12.3,12.3,0,0,0,1.55,5.46,16.4,16.4,0,0,0,4.15,5.08l1.65,1.52h0l.47.41a29.42,29.42,0,0,0,4.58,3.19c-.66-.4-1.31-.8-1.92-1.22a37.84,37.84,0,0,0,3.8,2.16c-.7-.32-1.33-.63-1.88-.94,27.8,16.42,101.34,17.53,138.2,5.13h0a57.39,57.39,0,0,0,6.12-2.34,52,52,0,0,0,5.12-2.54c.61-.34,1.14-.67,1.63-1-1.07.67-2.24,1.31-3.49,1.93,1.45-.76,2.68-1.5,3.68-2.13a28.88,28.88,0,0,0,2.73-1.88l.2-.16a28.7,28.7,0,0,1-3.12,2.24,25.91,25.91,0,0,0,4-3l-.06,0,.25-.22,2-1.82h0c3.11-3,4.89-5.76,5.27-9.88C298.12,243.42,232.18,255.13,174.36,247.35Z"/><path class="cls-11" d="M208,220.24a1.11,1.11,0,0,0,1.13-1.08v-.33a1.09,1.09,0,0,0-1.09-1.15A255.14,255.14,0,0,1,165,213.61a1.43,1.43,0,0,0-1.56.78h0a1.27,1.27,0,0,0,0,1.11,1.24,1.24,0,0,0,.88.66A261.49,261.49,0,0,0,208,220.24Z"/><path class="cls-12" d="M300.41,225.32l0-25.09c0,17.69-67.21,29.94-126,22-31-4.16-49-12.76-49-21.74l0,25.09c0,9,18,17.57,49,21.74,58.65,7.89,126.08-4.3,126.05-22Z"/><path class="cls-13" d="M140.32,218.75a1.55,1.55,0,0,1,.56.11c8.61,3.19,19.94,5.8,32.76,7.52a291.1,291.1,0,0,0,38.65,2.5c19.2,0,38.42-1.82,54.12-5.13.75-.15,1.5-.32,2.25-.49a2.3,2.3,0,0,1,.45,0,2,2,0,0,1,2,2v11.46a3.74,3.74,0,0,1-2.86,3.67c-1.28.3-2.59.6-3.91.88-15,3.15-33.52,4.89-52,4.89a281.22,281.22,0,0,1-37.23-2.4c-13.78-1.85-25.37-4.67-33.52-8.14a4.71,4.71,0,0,1-2.76-4.4V220.28a1.5,1.5,0,0,1,.46-1.09,1.59,1.59,0,0,1,1.1-.44Zm0-1a2.53,2.53,0,0,0-2.55,2.51v10.85a5.7,5.7,0,0,0,3.36,5.3c8.24,3.52,19.88,6.35,33.78,8.22a281.48,281.48,0,0,0,37.36,2.41h0c18.58,0,37.13-1.75,52.23-4.92,1.34-.28,2.65-.57,3.93-.88a4.74,4.74,0,0,0,3.63-4.63V225.17a3,3,0,0,0-3-2.94,3.05,3.05,0,0,0-.67.07l-2.23.49c-15.64,3.29-34.79,5.1-53.92,5.1h0a289,289,0,0,1-38.51-2.49c-12.86-1.73-24-4.29-32.55-7.47a2.59,2.59,0,0,0-.9-.16Z"/><path class="cls-12" d="M269.11,223.21a2.3,2.3,0,0,0-.45,0c-.75.17-1.5.34-2.25.49-15.7,3.31-34.92,5.13-54.12,5.13a291.1,291.1,0,0,1-38.65-2.5c-12.82-1.72-24.15-4.33-32.76-7.52a1.55,1.55,0,0,0-.56-.11h0a1.59,1.59,0,0,0-1.1.44,1.5,1.5,0,0,0-.46,1.09v10.85a4.71,4.71,0,0,0,2.76,4.4c8.15,3.47,19.74,6.29,33.52,8.14a281.22,281.22,0,0,0,37.23,2.4c18.52,0,37-1.74,52-4.89,1.32-.28,2.63-.58,3.91-.88a3.74,3.74,0,0,0,2.86-3.67V225.17A2,2,0,0,0,269.11,223.21Z"/><g class="cls-3"><path class="cls-8" d="M269.11,223.21a2.3,2.3,0,0,0-.45,0l-2.07.45h.13a2,2,0,0,1,2,1.95v11.46a3.75,3.75,0,0,1-2.87,3.68c-1,.24-2.12.49-3.21.72l1.69-.34c1.32-.28,2.63-.58,3.91-.88a3.74,3.74,0,0,0,2.86-3.67V225.17A2,2,0,0,0,269.11,223.21Z"/></g><path class="cls-14" d="M268.48,224.78a2,2,0,0,0-1.76-1.07h-.11l-.2,0c-15.7,3.31-34.92,5.13-54.12,5.13a291.1,291.1,0,0,1-38.65-2.5c-12.82-1.72-24.15-4.33-32.76-7.52a1.55,1.55,0,0,0-.56-.11h0a1.59,1.59,0,0,0-1.1.44,1.5,1.5,0,0,0-.46,1.09v1.48a1.49,1.49,0,0,1,.46-1.09,1.59,1.59,0,0,1,1.1-.44h0a1.55,1.55,0,0,1,.56.11c8.61,3.19,19.94,5.79,32.76,7.52a291.1,291.1,0,0,0,38.65,2.5c19.2,0,38.42-1.82,54.12-5.13C267.1,225.09,267.8,224.94,268.48,224.78Z"/><path class="cls-15" d="M264.64,219.85v25.09c21.34-4.39,35.78-11.41,35.77-19.62l0-25.09C300.39,208.42,286,215.45,264.64,219.85Z"/><path class="cls-15" d="M288.88,241.13c-1.07.67-2.24,1.31-3.49,1.93,1.45-.76,2.68-1.5,3.68-2.13a28.88,28.88,0,0,0,2.73-1.88l.2-.16a28.7,28.7,0,0,1-3.12,2.24,25.91,25.91,0,0,0,4-3l-.06,0,.25-.22,2-1.82h0c3.11-3,4.89-5.76,5.27-9.88-1,7.8-15.16,14.47-35.71,18.7l-5.72,6.39A128.86,128.86,0,0,0,276,247h0a57.39,57.39,0,0,0,6.12-2.34,52,52,0,0,0,5.12-2.54C287.86,241.77,288.39,241.44,288.88,241.13Z"/><path class="cls-16" d="M300.34,199.7c0-.16,0-.31,0-.47a12.28,12.28,0,0,0-1.56-5.1,14.36,14.36,0,0,0-1.82-2.66,20.93,20.93,0,0,0-1.57-1.69l0,0,0,0h0l0,0h0l0,0-.07-.08h0l-.26-.24h0l-2-1.82c3.17,2.9,4.18,5.81,3.35,8.61a6.31,6.31,0,0,0,0-3.34v0c0-.09-.05-.18-.08-.27-.75-2.62-3.12-5.32-7.36-8a42.21,42.21,0,0,0-4-2.27l-4.17-1.11-9.86,12.65-11.22,16.84,5,9.22,0,0c9.69-2,18-4.53,24.17-7.56,7.3-3.52,11.55-7.63,11.54-12.08Z"/><path class="cls-17" d="M129,232.55V207.62l6-10,1.08-10.56-3.37.77,0,0-.05,0-.11.12h0l.12-.11-2,1.82h0l-.43.41,0,0,0,0a.47.47,0,0,0-.1.1c-.25.25-.51.51-.71.73-.33.39-.74.84-1.2,1.45a13.9,13.9,0,0,0-1.89,3.31,11.3,11.3,0,0,0-.58,1.83,11,11,0,0,0-.28,1.6,10.33,10.33,0,0,0-.07,1.3l0,25.09a5.83,5.83,0,0,0,0,.59h0a12.3,12.3,0,0,0,1.55,5.46,16.4,16.4,0,0,0,4.15,5.08l1.65,1.52h0l.47.41c.3.26.61.52.94.77Z"/><path class="cls-18" d="M141.33,183.2c-19.36,11-3,24.22,36.44,29.53s87.2.7,106.56-10.3,3.05-24.23-36.44-29.54S160.7,172.2,141.33,183.2Z"/><path class="cls-15" d="M234,250.24a8.37,8.37,0,0,1-2.13-2.7L229,241.69l-63.95-1.35,1.94,3.77a13.06,13.06,0,0,0,3.2,4L176,253a281.68,281.68,0,0,0,62.68,1.14Z"/><path class="cls-19" d="M171.84,231.3c-.61,1.37-.48,2.36-.94,3.74l.65,7.58c.46-1.38.33-2.36.94-3.73Z"/><path class="cls-20" d="M228.35,234.11a61.87,61.87,0,0,1-5,4.3,8.53,8.53,0,0,1-5.17,1.83c-18.79.25-38.43-2-56-4.39l.7,6.27a3.34,3.34,0,0,0,2.91,2.95,366.55,366.55,0,0,0,53.07,2.76A8.46,8.46,0,0,0,224,246a60.29,60.29,0,0,0,5-4.31Z"/><path class="cls-9" d="M164.35,230.93l7.49.37a9,9,0,0,0-.61,2.36,1.33,1.33,0,0,0,.25,1,1.31,1.31,0,0,0,.91.53,350.07,350.07,0,0,0,42.6,2.07,2.93,2.93,0,0,0,1.68-.57c1.41-1,2.69-1.86,4-3l7.66.39a69.54,69.54,0,0,1-5.79,4.9,5.55,5.55,0,0,1-3.32,1.22,366.62,366.62,0,0,1-55.79-2.76,1.47,1.47,0,0,1-1.18-2A24.73,24.73,0,0,1,164.35,230.93Z"/><path class="cls-9" d="M125.39,147.14a11,11,0,0,1,.28-1.6,11.3,11.3,0,0,1,.58-1.83,13.9,13.9,0,0,1,1.89-3.31c.46-.61.87-1.06,1.2-1.45.2-.22.46-.48.71-.73l.1-.1,0,0,0,0,.43-.41h0l2-1.82-.12.11h0l.11-.12.05,0,0,0,0,0a24.79,24.79,0,0,1,2-1.64c.34-.26.69-.51,1.07-.77.83-.55,1.7-1.09,2.66-1.64l.76-.42h0c15.65-8.27,40.51-11.94,64.74-12.64,29.64-1,60.55,2.56,78.45,10.45l.29.13.22.09c.5.23,1,.46,1.48.7l.14.07.09,0a43.16,43.16,0,0,1,4.25,2.38c4.24,2.71,6.61,5.41,7.36,8,0,.08.05.17.08.26v0a6.31,6.31,0,0,1,0,3.34c.83-2.8-.18-5.71-3.35-8.61l2,1.82h0l.26.24v0a.23.23,0,0,1,.07.07l0,0h0l0,0h0l0,0,0,0a20.93,20.93,0,0,1,1.57,1.69,14.36,14.36,0,0,1,1.82,2.66,12.28,12.28,0,0,1,1.56,5.1c0,.16,0,.31,0,.47l0,.53c0,4.46-4.24,8.56-11.54,12.09-8.5,4.18-21.12,7.44-35.8,9.55a294.41,294.41,0,0,1-78.71.39c-2.42-.32-4.76-.68-7-1.05-26.66-4.46-42-12.41-42-20.69A10.33,10.33,0,0,1,125.39,147.14Z"/><path class="cls-10" d="M174.36,195.27c-30.3-4.07-48.18-12.39-49-21.15a12.3,12.3,0,0,0,1.55,5.46,16.29,16.29,0,0,0,4.15,5.08l1.65,1.52h0l.47.41a29.42,29.42,0,0,0,4.58,3.19c-.66-.4-1.31-.8-1.92-1.22a37.84,37.84,0,0,0,3.8,2.16c-.7-.32-1.33-.63-1.88-.94,27.8,16.42,101.34,17.53,138.2,5.13h0a57.39,57.39,0,0,0,6.12-2.34,52,52,0,0,0,5.12-2.54c.61-.34,1.14-.67,1.63-1-1.07.67-2.24,1.31-3.49,1.93,1.45-.76,2.68-1.5,3.68-2.13A28.88,28.88,0,0,0,291.8,187l.2-.16a28.7,28.7,0,0,1-3.12,2.24,25.91,25.91,0,0,0,4-3l-.06.05.25-.22,2-1.82h0c3.11-3,4.89-5.76,5.27-9.88C298.12,191.34,232.18,203.05,174.36,195.27Z"/><path class="cls-11" d="M208,168.16a1.11,1.11,0,0,0,1.13-1.08v-.33a1.09,1.09,0,0,0-1.09-1.15,255.26,255.26,0,0,1-43.14-4.07,1.44,1.44,0,0,0-1.56.78h0a1.27,1.27,0,0,0,0,1.11,1.23,1.23,0,0,0,.89.66A261.39,261.39,0,0,0,208,168.16Z"/><path class="cls-12" d="M300.41,173.24l0-25.09c0,17.69-67.21,29.94-126,22-31-4.16-49-12.76-49-21.74l0,25.09c0,9,18,17.57,49,21.74,58.65,7.89,126.08-4.3,126.05-22Z"/><path class="cls-13" d="M140.32,166.67a1.55,1.55,0,0,1,.56.11c8.61,3.19,19.94,5.8,32.76,7.52a291.1,291.1,0,0,0,38.65,2.5c19.2,0,38.42-1.82,54.12-5.13.75-.15,1.5-.32,2.25-.49a2.3,2.3,0,0,1,.45-.05,2,2,0,0,1,2,2v11.46a3.74,3.74,0,0,1-2.86,3.67c-1.28.31-2.59.6-3.91.88-15,3.15-33.52,4.89-52,4.89a281.22,281.22,0,0,1-37.23-2.4c-13.78-1.85-25.37-4.67-33.52-8.15a4.68,4.68,0,0,1-2.76-4.39V168.2a1.5,1.5,0,0,1,.46-1.09,1.59,1.59,0,0,1,1.1-.44Zm0-1a2.53,2.53,0,0,0-2.55,2.51v10.85a5.7,5.7,0,0,0,3.36,5.3c8.24,3.52,19.88,6.35,33.78,8.22A281.48,281.48,0,0,0,212.27,195h0c18.58,0,37.13-1.75,52.23-4.92,1.34-.28,2.65-.57,3.93-.88a4.74,4.74,0,0,0,3.63-4.63V173.09a3,3,0,0,0-3-2.94,3.05,3.05,0,0,0-.67.07l-2.23.49c-15.64,3.29-34.79,5.1-53.92,5.1h0a289,289,0,0,1-38.51-2.49c-12.86-1.73-24-4.29-32.55-7.47a2.59,2.59,0,0,0-.9-.16Z"/><path class="cls-12" d="M269.11,171.13a2.3,2.3,0,0,0-.45.05c-.75.17-1.5.34-2.25.49-15.7,3.31-34.92,5.13-54.12,5.13a291.1,291.1,0,0,1-38.65-2.5c-12.82-1.72-24.15-4.33-32.76-7.52a1.55,1.55,0,0,0-.56-.11h0a1.59,1.59,0,0,0-1.1.44,1.5,1.5,0,0,0-.46,1.09v10.85a4.68,4.68,0,0,0,2.76,4.39c8.15,3.48,19.74,6.3,33.52,8.15a281.22,281.22,0,0,0,37.23,2.4c18.52,0,37-1.74,52-4.89,1.32-.28,2.63-.57,3.91-.88a3.74,3.74,0,0,0,2.86-3.67V173.09A2,2,0,0,0,269.11,171.13Z"/><g class="cls-3"><path class="cls-8" d="M269.11,171.13a2.3,2.3,0,0,0-.45.05q-1,.24-2.07.45h.13a2,2,0,0,1,2,2V185a3.75,3.75,0,0,1-2.87,3.68c-1,.24-2.12.49-3.21.72l1.69-.34c1.32-.28,2.63-.57,3.91-.88a3.74,3.74,0,0,0,2.86-3.67V173.09A2,2,0,0,0,269.11,171.13Z"/></g><path class="cls-14" d="M268.48,172.7a2,2,0,0,0-1.76-1.07h-.11l-.2,0c-15.7,3.31-34.92,5.13-54.12,5.13a291.1,291.1,0,0,1-38.65-2.5c-12.82-1.72-24.15-4.33-32.76-7.52a1.55,1.55,0,0,0-.56-.11h0a1.59,1.59,0,0,0-1.1.44,1.5,1.5,0,0,0-.46,1.09v1.48a1.49,1.49,0,0,1,.46-1.09,1.59,1.59,0,0,1,1.1-.44h0a1.55,1.55,0,0,1,.56.11c8.61,3.19,19.94,5.79,32.76,7.52a291.1,291.1,0,0,0,38.65,2.5c19.2,0,38.42-1.82,54.12-5.13C267.1,173,267.8,172.86,268.48,172.7Z"/><path class="cls-15" d="M264.64,167.77v25.09c21.34-4.39,35.78-11.41,35.77-19.62l0-25.09C300.39,156.34,286,163.37,264.64,167.77Z"/><path class="cls-15" d="M288.88,189.05c-1.07.67-2.24,1.31-3.49,1.93,1.45-.76,2.68-1.5,3.68-2.13A28.88,28.88,0,0,0,291.8,187l.2-.16a28.7,28.7,0,0,1-3.12,2.24,25.91,25.91,0,0,0,4-3l-.06.05.25-.22,2-1.82h0c3.11-3,4.89-5.76,5.27-9.88-1,7.8-15.16,14.47-35.71,18.7l-5.72,6.39A128.86,128.86,0,0,0,276,194.91h0a57.39,57.39,0,0,0,6.12-2.34,52,52,0,0,0,5.12-2.54C287.86,189.69,288.39,189.36,288.88,189.05Z"/><path class="cls-16" d="M300.34,147.62c0-.16,0-.31,0-.47a12.28,12.28,0,0,0-1.56-5.1,14.36,14.36,0,0,0-1.82-2.66,20.93,20.93,0,0,0-1.57-1.69l0,0,0,0h0l0,0h0l0,0a.23.23,0,0,0-.07-.07v0l-.26-.24h0l-2-1.82c3.17,2.9,4.18,5.81,3.35,8.61a6.31,6.31,0,0,0,0-3.34v0c0-.09-.05-.18-.08-.26-.75-2.63-3.12-5.33-7.36-8a42.21,42.21,0,0,0-4-2.27l-4.17-1.11-9.86,12.65-11.22,16.84,5,9.22,0,0c9.69-2,18-4.53,24.17-7.55,7.3-3.53,11.55-7.63,11.54-12.09Z"/><path class="cls-17" d="M129,180.47V155.54l6-10L136.07,135l-3.37.77,0,0-.05,0-.11.12h0l.12-.11-2,1.82h0l-.43.41,0,0,0,0-.1.1c-.25.25-.51.51-.71.73-.33.39-.74.84-1.2,1.45a13.9,13.9,0,0,0-1.89,3.31,11.3,11.3,0,0,0-.58,1.83,11,11,0,0,0-.28,1.6,10.33,10.33,0,0,0-.07,1.3l0,25.09a5.83,5.83,0,0,0,0,.59h0a12.3,12.3,0,0,0,1.55,5.46,16.29,16.29,0,0,0,4.15,5.08l1.65,1.52h0l.47.41c.3.26.61.52.94.77Z"/><path class="cls-18" d="M141.33,131.12c-19.36,11-3,24.22,36.44,29.53s87.2.7,106.56-10.3,3.05-24.23-36.44-29.54S160.7,120.12,141.33,131.12Z"/><path class="cls-15" d="M234,198.16a8.37,8.37,0,0,1-2.13-2.7L229,189.61l-63.95-1.35L167,192a12.94,12.94,0,0,0,3.2,4l5.83,4.89a281.68,281.68,0,0,0,62.68,1.14Z"/><path class="cls-19" d="M171.84,179.22c-.61,1.38-.48,2.36-.94,3.74l.65,7.58c.46-1.38.33-2.36.94-3.73Z"/><path class="cls-20" d="M228.35,182a60.11,60.11,0,0,1-5,4.31,8.59,8.59,0,0,1-5.17,1.83c-18.79.25-38.43-2-56-4.39l.7,6.27a3.34,3.34,0,0,0,2.91,3,366.55,366.55,0,0,0,53.07,2.76,8.52,8.52,0,0,0,5.11-1.83,60.29,60.29,0,0,0,5-4.31Z"/><path class="cls-9" d="M164.35,178.85l7.49.37a9,9,0,0,0-.61,2.36,1.33,1.33,0,0,0,.25,1,1.31,1.31,0,0,0,.91.53A350.07,350.07,0,0,0,215,185.2a2.93,2.93,0,0,0,1.68-.57c1.41-1,2.69-1.86,4-3l7.66.38a69.81,69.81,0,0,1-5.79,4.92,5.6,5.6,0,0,1-3.32,1.21,366.62,366.62,0,0,1-55.79-2.76,1.47,1.47,0,0,1-1.18-2A24.73,24.73,0,0,1,164.35,178.85Z"/><path class="cls-21" d="M136.68,189.07h0l-.81-.51c.26.18.53.36.81.53h0a20.73,20.73,0,0,0,3,1.63C137.9,189.83,136.84,189.17,136.68,189.07Z"/><path class="cls-21" d="M292.48,186.43c-7.81,6.82-23.35,11-33.56,12.82h0c-41.82,8-104.12,4.15-124.77-11.89h0c-.16-.13-.37-.28-1-.79v6.11h0c-.16,8.22,16.24,16.11,44.58,19.92,54.09,7.27,116-4.21,114.69-20.55h0Z"/><path class="cls-21" d="M285.39,191a33.68,33.68,0,0,0,6.61-4.17A46,46,0,0,1,285.39,191Z"/><path class="cls-22" d="M208,210.61a1.11,1.11,0,0,0,1.13-1.08v-.33a1.11,1.11,0,0,0-1.09-1.16A254.11,254.11,0,0,1,165,204a1.42,1.42,0,0,0-1.56.77h0a1.24,1.24,0,0,0,.88,1.77A261.49,261.49,0,0,0,208,210.61Z"/><path class="cls-23" d="M258.92,199.25h0C217.65,207.12,156.44,203.5,135,188h0l-.42-.31-.42-.32h0c-.16-.13-.37-.28-1-.79v6.11h0a7.53,7.53,0,0,0,1.8,4.79v-6.69c.86.61,1.8,1.21,2.8,1.79-.66-.4-1.31-.8-1.92-1.21a39.92,39.92,0,0,0,3.8,2.15c-.7-.31-1.33-.63-1.88-.94,24,14.16,82,16.94,121.13,9.48v8.56c20.43-4.08,34.19-10.76,33.54-18.56h0v-5.62C284.67,193.25,269.13,197.4,258.92,199.25Z"/><path class="cls-9" d="M125.39,95.06a11,11,0,0,1,.28-1.6,11.3,11.3,0,0,1,.58-1.83,13.9,13.9,0,0,1,1.89-3.31c.46-.61.87-1.06,1.2-1.45.2-.22.46-.48.71-.73a.47.47,0,0,1,.1-.1l0,0s0,0,0,0l.43-.41h0l2-1.82-.12.11h0l.11-.12.05,0,0,0,0,0a24.79,24.79,0,0,1,2-1.64c.34-.26.69-.51,1.07-.77.83-.55,1.7-1.09,2.66-1.64l.76-.42h0C154.93,70.87,179.79,67.2,204,66.5c29.64-1,60.55,2.56,78.45,10.45l.29.13.22.09c.5.23,1,.46,1.48.7a.61.61,0,0,1,.14.07l.09,0a43.16,43.16,0,0,1,4.25,2.38c4.24,2.71,6.61,5.41,7.36,8,0,.09.05.18.08.27v0a6.31,6.31,0,0,1,0,3.34c.83-2.8-.18-5.71-3.35-8.61l2,1.82h0l.26.24v0a.23.23,0,0,1,.07.07l0,0h0l0,0h0l0,0,0,0A20.93,20.93,0,0,1,297,87.31,14.36,14.36,0,0,1,298.77,90a12.28,12.28,0,0,1,1.56,5.1c0,.16,0,.31,0,.47l0,.53c0,4.46-4.24,8.56-11.54,12.09-8.5,4.18-21.12,7.44-35.8,9.55a294.41,294.41,0,0,1-78.71.39c-2.42-.32-4.76-.68-7-1-26.66-4.46-42-12.41-42-20.69A10.33,10.33,0,0,1,125.39,95.06Z"/><path class="cls-10" d="M174.36,143.19c-30.3-4.07-48.18-12.39-49-21.15a12.3,12.3,0,0,0,1.55,5.46,16.4,16.4,0,0,0,4.15,5.08l1.65,1.52h0l.47.41a29.42,29.42,0,0,0,4.58,3.19c-.66-.4-1.31-.8-1.92-1.22a37.84,37.84,0,0,0,3.8,2.16c-.7-.31-1.33-.63-1.88-.94,27.8,16.42,101.34,17.53,138.2,5.13h0a57.39,57.39,0,0,0,6.12-2.34,52,52,0,0,0,5.12-2.54c.61-.34,1.14-.67,1.63-1-1.07.67-2.24,1.31-3.49,1.93,1.45-.76,2.68-1.5,3.68-2.13a28.88,28.88,0,0,0,2.73-1.88l.2-.16a28.7,28.7,0,0,1-3.12,2.24,25.91,25.91,0,0,0,4-3l-.06.05.25-.22,2-1.82h0c3.11-3,4.89-5.76,5.27-9.88C298.12,139.26,232.18,151,174.36,143.19Z"/><path class="cls-11" d="M208,116.08a1.11,1.11,0,0,0,1.13-1.08v-.33a1.09,1.09,0,0,0-1.09-1.15,255.26,255.26,0,0,1-43.14-4.07,1.44,1.44,0,0,0-1.56.78h0a1.27,1.27,0,0,0,0,1.11,1.23,1.23,0,0,0,.89.66A261.39,261.39,0,0,0,208,116.08Z"/><path class="cls-12" d="M300.41,121.16l0-25.09c0,17.69-67.21,29.94-126,22-31-4.16-49-12.76-49-21.74l0,25.09c0,9,18,17.57,49,21.74,58.65,7.89,126.08-4.3,126.05-22Z"/><path class="cls-13" d="M140.32,114.59a1.55,1.55,0,0,1,.56.11c8.61,3.19,19.94,5.8,32.76,7.52a291.1,291.1,0,0,0,38.65,2.5c19.2,0,38.42-1.82,54.12-5.13.75-.15,1.5-.32,2.25-.49a2.3,2.3,0,0,1,.45,0,2,2,0,0,1,2,2v11.46a3.74,3.74,0,0,1-2.86,3.67c-1.28.3-2.59.6-3.91.88-15,3.15-33.52,4.89-52,4.89a281.22,281.22,0,0,1-37.23-2.4c-13.78-1.85-25.37-4.67-33.52-8.14a4.71,4.71,0,0,1-2.76-4.4V116.12a1.5,1.5,0,0,1,.46-1.09,1.59,1.59,0,0,1,1.1-.44Zm0-1a2.53,2.53,0,0,0-2.55,2.51V127a5.7,5.7,0,0,0,3.36,5.3c8.24,3.52,19.88,6.35,33.78,8.22a281.48,281.48,0,0,0,37.36,2.41h0c18.58,0,37.13-1.75,52.23-4.92,1.34-.28,2.65-.57,3.93-.88a4.74,4.74,0,0,0,3.63-4.63V121a3,3,0,0,0-3-2.94,3.05,3.05,0,0,0-.67.07l-2.23.49c-15.64,3.29-34.79,5.1-53.92,5.1h0a289,289,0,0,1-38.51-2.49c-12.86-1.73-24-4.29-32.55-7.47a2.59,2.59,0,0,0-.9-.16Z"/><path class="cls-12" d="M269.11,119.05a2.3,2.3,0,0,0-.45,0c-.75.17-1.5.34-2.25.49-15.7,3.31-34.92,5.13-54.12,5.13a291.1,291.1,0,0,1-38.65-2.5c-12.82-1.72-24.15-4.33-32.76-7.52a1.55,1.55,0,0,0-.56-.11h0a1.59,1.59,0,0,0-1.1.44,1.5,1.5,0,0,0-.46,1.09V127a4.71,4.71,0,0,0,2.76,4.4c8.15,3.47,19.74,6.29,33.52,8.14a281.22,281.22,0,0,0,37.23,2.4c18.52,0,37-1.74,52-4.89,1.32-.28,2.63-.58,3.91-.88a3.74,3.74,0,0,0,2.86-3.67V121A2,2,0,0,0,269.11,119.05Z"/><g class="cls-3"><path class="cls-8" d="M269.11,119.05a2.3,2.3,0,0,0-.45,0q-1,.24-2.07.45h.13a2,2,0,0,1,2,2V133a3.75,3.75,0,0,1-2.87,3.68c-1,.24-2.12.49-3.21.72l1.69-.34c1.32-.28,2.63-.58,3.91-.88a3.74,3.74,0,0,0,2.86-3.67V121A2,2,0,0,0,269.11,119.05Z"/></g><path class="cls-14" d="M268.48,120.62a2,2,0,0,0-1.76-1.07h-.11l-.2,0c-15.7,3.31-34.92,5.13-54.12,5.13a291.1,291.1,0,0,1-38.65-2.5c-12.82-1.72-24.15-4.33-32.76-7.52a1.55,1.55,0,0,0-.56-.11h0a1.59,1.59,0,0,0-1.1.44,1.5,1.5,0,0,0-.46,1.09v1.48a1.49,1.49,0,0,1,.46-1.09,1.59,1.59,0,0,1,1.1-.44h0a1.55,1.55,0,0,1,.56.11c8.61,3.19,19.94,5.79,32.76,7.52a291.1,291.1,0,0,0,38.65,2.5c19.2,0,38.42-1.82,54.12-5.13C267.1,120.93,267.8,120.78,268.48,120.62Z"/><path class="cls-15" d="M264.64,115.69v25.09c21.34-4.39,35.78-11.41,35.77-19.62l0-25.09C300.39,104.27,286,111.29,264.64,115.69Z"/><path class="cls-15" d="M288.88,137c-1.07.67-2.24,1.31-3.49,1.93,1.45-.76,2.68-1.5,3.68-2.13a28.88,28.88,0,0,0,2.73-1.88l.2-.16a28.7,28.7,0,0,1-3.12,2.24,25.91,25.91,0,0,0,4-3l-.06.05.25-.22,2-1.82h0c3.11-3,4.89-5.76,5.27-9.88-1,7.8-15.16,14.47-35.71,18.7l-5.72,6.4A130.38,130.38,0,0,0,276,142.83h0a57.39,57.39,0,0,0,6.12-2.34,52,52,0,0,0,5.12-2.54C287.86,137.61,288.39,137.28,288.88,137Z"/><path class="cls-16" d="M300.34,95.54c0-.16,0-.31,0-.47a12.28,12.28,0,0,0-1.56-5.1A14.36,14.36,0,0,0,297,87.31a20.93,20.93,0,0,0-1.57-1.69l0,0,0,0h0l0,0h0l0,0a.23.23,0,0,0-.07-.07v0l-.26-.24h0l-2-1.82c3.17,2.9,4.18,5.81,3.35,8.61a6.31,6.31,0,0,0,0-3.34v0c0-.09-.05-.18-.08-.27-.75-2.62-3.12-5.32-7.36-8a42.21,42.21,0,0,0-4-2.27L280.74,77l-9.86,12.65-11.22,16.84,5,9.22,0,0c9.69-2,18-4.53,24.17-7.55,7.3-3.53,11.55-7.63,11.54-12.09Z"/><path class="cls-17" d="M129,128.39V103.46l6-10,1.08-10.56-3.37.77,0,0-.05,0-.11.12h0l.12-.11-2,1.82h0l-.43.41s0,0,0,0l0,0a.47.47,0,0,0-.1.1c-.25.25-.51.51-.71.73-.33.39-.74.84-1.2,1.45a13.9,13.9,0,0,0-1.89,3.31,11.3,11.3,0,0,0-.58,1.83,11,11,0,0,0-.28,1.6,10.33,10.33,0,0,0-.07,1.3l0,25.09a5.83,5.83,0,0,0,0,.59h0a12.3,12.3,0,0,0,1.55,5.46,16.4,16.4,0,0,0,4.15,5.08l1.65,1.52h0l.47.41c.3.26.61.52.94.77Z"/><path class="cls-18" d="M141.33,79c-19.36,11-3,24.22,36.44,29.53s87.2.7,106.56-10.3S287.38,74,247.89,68.73,160.7,68,141.33,79Z"/><path class="cls-15" d="M234,146.08a8.37,8.37,0,0,1-2.13-2.7L229,137.53l-63.95-1.35L167,140a12.94,12.94,0,0,0,3.2,4l5.83,4.89A281.67,281.67,0,0,0,238.7,150Z"/><path class="cls-19" d="M171.84,127.14c-.61,1.38-.48,2.36-.94,3.74l.65,7.58c.46-1.38.33-2.36.94-3.73Z"/><path class="cls-20" d="M228.35,130a61.87,61.87,0,0,1-5,4.3,8.59,8.59,0,0,1-5.17,1.83c-18.79.25-38.43-2-56-4.39l.7,6.27a3.34,3.34,0,0,0,2.91,2.95,366.55,366.55,0,0,0,53.07,2.76,8.46,8.46,0,0,0,5.11-1.83,60.29,60.29,0,0,0,5-4.31Z"/><path class="cls-9" d="M164.35,126.77l7.49.37a9,9,0,0,0-.61,2.36,1.33,1.33,0,0,0,.25,1,1.31,1.31,0,0,0,.91.53,350.07,350.07,0,0,0,42.6,2.07,2.93,2.93,0,0,0,1.68-.57c1.41-1,2.69-1.86,4-3l7.66.38a71.65,71.65,0,0,1-5.79,4.91,5.6,5.6,0,0,1-3.32,1.21,366.62,366.62,0,0,1-55.79-2.76,1.47,1.47,0,0,1-1.18-2A24.73,24.73,0,0,1,164.35,126.77Z"/><path class="cls-21" d="M136.68,137h0l-.81-.51c.26.18.53.36.81.53h0a19.8,19.8,0,0,0,3,1.63C137.9,137.75,136.84,137.09,136.68,137Z"/><path class="cls-21" d="M292.48,134.35c-7.81,6.82-23.35,11-33.56,12.83h0c-41.82,8-104.12,4.14-124.77-11.9h0c-.16-.13-.37-.28-1-.79v6.11h0c-.16,8.22,16.24,16.11,44.58,19.92,54.09,7.27,116-4.21,114.69-20.55h0Z"/><path class="cls-21" d="M285.39,138.9a33.22,33.22,0,0,0,6.61-4.17A45.16,45.16,0,0,1,285.39,138.9Z"/><path class="cls-22" d="M208,158.53a1.11,1.11,0,0,0,1.13-1.08v-.33a1.11,1.11,0,0,0-1.09-1.16,254.23,254.23,0,0,1-43.14-4.06,1.43,1.43,0,0,0-1.56.77h0a1.23,1.23,0,0,0,.89,1.77A261.39,261.39,0,0,0,208,158.53Z"/><path class="cls-23" d="M258.92,147.18h0C217.65,155,156.44,151.42,135,135.91h0l-.42-.31-.42-.32h0c-.16-.13-.37-.28-1-.79v6.11h0a7.53,7.53,0,0,0,1.8,4.79V138.7c.86.61,1.8,1.21,2.8,1.79-.66-.4-1.31-.8-1.92-1.21a42.19,42.19,0,0,0,3.8,2.16c-.7-.32-1.33-.64-1.88-.95,24,14.16,82,16.94,121.13,9.48v8.56c20.43-4.08,34.19-10.76,33.54-18.56h0v-5.62C284.67,141.17,269.13,145.32,258.92,147.18Z"/><path class="cls-9" d="M125.39,43a11,11,0,0,1,.28-1.6,11.3,11.3,0,0,1,.58-1.83,13.9,13.9,0,0,1,1.89-3.31c.46-.61.87-1.06,1.2-1.45.2-.22.46-.48.71-.73l.1-.1,0,0s0,0,0,0l.43-.41h0l2-1.82-.12.11h0l.11-.12.05,0,0,0,0,0a24.79,24.79,0,0,1,2-1.64c.34-.26.69-.51,1.07-.77.83-.55,1.7-1.09,2.66-1.64l.76-.42h0c15.65-8.27,40.51-11.94,64.74-12.64,29.64-1,60.55,2.56,78.45,10.45l.29.13.22.09c.5.23,1,.46,1.48.7l.14.07.09,0a43.16,43.16,0,0,1,4.25,2.38c4.24,2.71,6.61,5.41,7.36,8,0,.09.05.18.08.27v0a6.31,6.31,0,0,1,0,3.34c.83-2.8-.18-5.71-3.35-8.61l2,1.82h0l.26.24v0l.07.07,0,0h0l0,0h0l0,0,0,0A20.93,20.93,0,0,1,297,35.23a14.36,14.36,0,0,1,1.82,2.66,12.28,12.28,0,0,1,1.56,5.1c0,.16,0,.31,0,.47l0,.53c0,4.46-4.24,8.56-11.54,12.09-8.5,4.18-21.12,7.44-35.8,9.55a294.41,294.41,0,0,1-78.71.39c-2.42-.32-4.76-.68-7-1-26.66-4.46-42-12.41-42-20.69A10.33,10.33,0,0,1,125.39,43Z"/><path class="cls-10" d="M174.36,91.11c-30.3-4.07-48.18-12.39-49-21.15a12.3,12.3,0,0,0,1.55,5.46,16.4,16.4,0,0,0,4.15,5.08L132.74,82h0l.47.41a29.42,29.42,0,0,0,4.58,3.19c-.66-.4-1.31-.8-1.92-1.22a37.84,37.84,0,0,0,3.8,2.16c-.7-.31-1.33-.63-1.88-.94C165.59,102,239.13,103.15,276,90.75h0a57.39,57.39,0,0,0,6.12-2.34,52,52,0,0,0,5.12-2.54c.61-.34,1.14-.67,1.63-1-1.07.67-2.24,1.31-3.49,1.93,1.45-.76,2.68-1.5,3.68-2.13a28.88,28.88,0,0,0,2.73-1.88l.2-.16a28.7,28.7,0,0,1-3.12,2.24,25.91,25.91,0,0,0,4-3l-.06,0,.25-.22,2-1.82h0c3.11-3,4.89-5.76,5.27-9.88C298.12,87.18,232.18,98.89,174.36,91.11Z"/><path class="cls-11" d="M208,64a1.11,1.11,0,0,0,1.13-1.08v-.33a1.09,1.09,0,0,0-1.09-1.15,255.26,255.26,0,0,1-43.14-4.07,1.45,1.45,0,0,0-1.56.78h0a1.27,1.27,0,0,0,0,1.11,1.23,1.23,0,0,0,.89.66A261.39,261.39,0,0,0,208,64Z"/><path class="cls-12" d="M300.41,69.08l0-25.09c0,17.69-67.21,29.94-126,22-31-4.16-49-12.76-49-21.74l0,25.09c0,9,18,17.57,49,21.74,58.65,7.89,126.08-4.3,126.05-22Z"/><path class="cls-13" d="M140.32,62.51a1.55,1.55,0,0,1,.56.11c8.61,3.19,19.94,5.8,32.76,7.52a291.1,291.1,0,0,0,38.65,2.5c19.2,0,38.42-1.82,54.12-5.13.75-.15,1.5-.32,2.25-.49a2.3,2.3,0,0,1,.45,0,2,2,0,0,1,2,2V80.39a3.74,3.74,0,0,1-2.86,3.67c-1.28.3-2.59.6-3.91.88-15,3.15-33.52,4.89-52,4.89A281.22,281.22,0,0,1,175,87.43c-13.78-1.85-25.37-4.67-33.52-8.14a4.7,4.7,0,0,1-2.76-4.39V64a1.5,1.5,0,0,1,.46-1.09,1.59,1.59,0,0,1,1.1-.44Zm0-1A2.53,2.53,0,0,0,137.77,64V74.9a5.7,5.7,0,0,0,3.36,5.29c8.24,3.52,19.88,6.35,33.78,8.22a281.48,281.48,0,0,0,37.36,2.41h0c18.58,0,37.13-1.75,52.23-4.92,1.34-.28,2.65-.57,3.93-.88a4.74,4.74,0,0,0,3.63-4.63V68.93a3,3,0,0,0-3-2.94,3.05,3.05,0,0,0-.67.07c-.76.17-1.5.34-2.23.49-15.64,3.29-34.79,5.1-53.92,5.1h0a289,289,0,0,1-38.51-2.49c-12.86-1.73-24-4.29-32.55-7.47a2.59,2.59,0,0,0-.9-.16Z"/><path class="cls-12" d="M269.11,67a2.3,2.3,0,0,0-.45,0c-.75.17-1.5.34-2.25.49-15.7,3.31-34.92,5.13-54.12,5.13a291.1,291.1,0,0,1-38.65-2.5c-12.82-1.72-24.15-4.33-32.76-7.52a1.55,1.55,0,0,0-.56-.11h0a1.59,1.59,0,0,0-1.1.44,1.5,1.5,0,0,0-.46,1.09V74.9a4.7,4.7,0,0,0,2.76,4.39c8.15,3.47,19.74,6.29,33.52,8.14a281.22,281.22,0,0,0,37.23,2.4c18.52,0,37-1.74,52-4.89,1.32-.28,2.63-.58,3.91-.88a3.74,3.74,0,0,0,2.86-3.67V68.93A2,2,0,0,0,269.11,67Z"/><g class="cls-3"><path class="cls-8" d="M269.11,67a2.3,2.3,0,0,0-.45,0l-2.07.46h.13a2,2,0,0,1,2,2V80.88a3.75,3.75,0,0,1-2.87,3.68c-1,.24-2.12.49-3.21.72l1.69-.34c1.32-.28,2.63-.58,3.91-.88a3.74,3.74,0,0,0,2.86-3.67V68.93A2,2,0,0,0,269.11,67Z"/></g><path class="cls-14" d="M268.48,68.54a2,2,0,0,0-1.76-1.07h-.11l-.2,0c-15.7,3.31-34.92,5.13-54.12,5.13a291.1,291.1,0,0,1-38.65-2.5c-12.82-1.72-24.15-4.33-32.76-7.52a1.55,1.55,0,0,0-.56-.11h0a1.59,1.59,0,0,0-1.1.44,1.5,1.5,0,0,0-.46,1.09v1.48a1.5,1.5,0,0,1,.46-1.09,1.59,1.59,0,0,1,1.1-.44h0a1.55,1.55,0,0,1,.56.11c8.61,3.19,19.94,5.79,32.76,7.52a291.1,291.1,0,0,0,38.65,2.5c19.2,0,38.42-1.82,54.12-5.13C267.1,68.85,267.8,68.7,268.48,68.54Z"/><path class="cls-15" d="M264.64,63.61V88.7c21.34-4.39,35.78-11.41,35.77-19.62l0-25.09C300.39,52.19,286,59.21,264.64,63.61Z"/><path class="cls-15" d="M288.88,84.89c-1.07.67-2.24,1.31-3.49,1.93,1.45-.76,2.68-1.5,3.68-2.13a28.88,28.88,0,0,0,2.73-1.88l.2-.16a28.7,28.7,0,0,1-3.12,2.24,25.91,25.91,0,0,0,4-3l-.06,0,.25-.22,2-1.82h0c3.11-3,4.89-5.76,5.27-9.88-1,7.8-15.16,14.47-35.71,18.7l-5.72,6.4A130.38,130.38,0,0,0,276,90.75h0a57.39,57.39,0,0,0,6.12-2.34,52,52,0,0,0,5.12-2.54C287.86,85.53,288.39,85.2,288.88,84.89Z"/><path class="cls-16" d="M300.34,43.46c0-.16,0-.31,0-.47a12.28,12.28,0,0,0-1.56-5.1A14.36,14.36,0,0,0,297,35.23a20.93,20.93,0,0,0-1.57-1.69l0,0,0,0h0l0,0h0l0,0-.07-.07v0l-.26-.24h0l-2-1.82c3.17,2.9,4.18,5.81,3.35,8.61a6.31,6.31,0,0,0,0-3.34v0c0-.09-.05-.18-.08-.27-.75-2.62-3.12-5.32-7.36-8a42.21,42.21,0,0,0-4-2.27l-4.17-1.11-9.86,12.65L259.66,54.39l5,9.22,0,0c9.69-2,18-4.53,24.17-7.55,7.3-3.53,11.55-7.63,11.54-12.09Z"/><path class="cls-17" d="M129,76.31V51.38l6-10,1.08-10.56-3.37.78h0l-.05,0-.11.12h0l.12-.11-2,1.82h0l-.43.41s0,0,0,0l0,0-.1.1c-.25.25-.51.51-.71.73-.33.39-.74.84-1.2,1.45a13.9,13.9,0,0,0-1.89,3.31,11.3,11.3,0,0,0-.58,1.83,11,11,0,0,0-.28,1.6,10.33,10.33,0,0,0-.07,1.3l0,25.09a5.83,5.83,0,0,0,0,.59h0a12.3,12.3,0,0,0,1.55,5.46,16.4,16.4,0,0,0,4.15,5.08L132.74,82h0l.47.41c.3.26.61.52.94.77Z"/><path class="cls-18" d="M141.33,27c-19.36,11-3,24.22,36.44,29.53s87.2.7,106.56-10.3S287.38,22,247.89,16.65,160.7,16,141.33,27Z"/><path class="cls-15" d="M234,94a8.47,8.47,0,0,1-2.13-2.7L229,85.45,165.05,84.1,167,87.87a13.06,13.06,0,0,0,3.2,4L176,96.76A281.68,281.68,0,0,0,238.7,97.9Z"/><path class="cls-19" d="M171.84,75.06c-.61,1.38-.48,2.36-.94,3.74l.65,7.58c.46-1.38.33-2.36.94-3.73Z"/><path class="cls-20" d="M228.35,77.87a61.87,61.87,0,0,1-5,4.3A8.53,8.53,0,0,1,218.16,84c-18.79.25-38.43-2-56-4.39l.7,6.27a3.34,3.34,0,0,0,2.91,3,366.55,366.55,0,0,0,53.07,2.76A8.46,8.46,0,0,0,224,89.76a60.29,60.29,0,0,0,5-4.31Z"/><path class="cls-9" d="M164.35,74.69l7.49.37a9,9,0,0,0-.61,2.36,1.33,1.33,0,0,0,.25,1,1.31,1.31,0,0,0,.91.53A350.07,350.07,0,0,0,215,81a2.93,2.93,0,0,0,1.68-.57c1.41-1,2.69-1.86,4-3l7.66.38a71.65,71.65,0,0,1-5.79,4.91A5.6,5.6,0,0,1,219.24,84a366.62,366.62,0,0,1-55.79-2.76,1.47,1.47,0,0,1-1.18-2A24.73,24.73,0,0,1,164.35,74.69Z"/><path class="cls-21" d="M136.68,84.91h0l-.81-.51c.26.18.53.36.81.53h0a19.8,19.8,0,0,0,3,1.63C137.9,85.67,136.84,85,136.68,84.91Z"/><path class="cls-21" d="M292.48,82.27c-7.81,6.82-23.35,11-33.56,12.83h0c-41.82,8-104.12,4.14-124.77-11.9h0c-.16-.13-.37-.28-1-.79v6.11h0c-.16,8.22,16.24,16.11,44.58,19.92,54.09,7.27,116-4.21,114.69-20.55h0Z"/><path class="cls-21" d="M285.39,86.82A33.68,33.68,0,0,0,292,82.65,45.16,45.16,0,0,1,285.39,86.82Z"/><path class="cls-22" d="M208,106.45a1.11,1.11,0,0,0,1.13-1.08V105a1.11,1.11,0,0,0-1.09-1.16,254.23,254.23,0,0,1-43.14-4.06,1.43,1.43,0,0,0-1.56.77h0a1.23,1.23,0,0,0,.89,1.77A261.39,261.39,0,0,0,208,106.45Z"/><path class="cls-23" d="M258.92,95.1h0C217.65,103,156.44,99.34,135,83.83h0l-.42-.31-.42-.32h0c-.16-.13-.37-.28-1-.79v6.11h0a7.53,7.53,0,0,0,1.8,4.79V86.62c.86.61,1.8,1.21,2.8,1.79-.66-.4-1.31-.8-1.92-1.21a39.92,39.92,0,0,0,3.8,2.15c-.7-.31-1.33-.63-1.88-.94,24,14.16,82,16.94,121.13,9.48v8.56c20.43-4.08,34.19-10.76,33.54-18.56h0V82.27C284.67,89.09,269.13,93.24,258.92,95.1Z"/><rect class="cls-24" x="153.76" y="91.76" width="29.54" height="20.86" transform="translate(-3.78 6.51) rotate(-2.19)"/><path class="cls-24" d="M193.85,229.75l9.57-6.06a43.32,43.32,0,0,1-15.61,6.09l-9.58,6.07a43.31,43.31,0,0,0,15.62-6.1Z"/><g class="cls-2"><path class="cls-24" d="M178.23,235.85l9.58-6.07c-40-48.07-54.44-113-58.84-139.1l-9.57,6.06c4.4,26.11,18.83,91,58.83,139.11Z"/></g><g class="cls-2"><path class="cls-25" d="M162.41,86.26,172,80.19c-18.79,11.91-52.55-4.47-54.71-5.52l-9.57,6.07c2.16,1.05,35.92,17.42,54.71,5.52Z"/></g><g class="cls-2"><path class="cls-26" d="M170.14,97.63l9.57-6.06c-14.84,9.4-37.39,3.84-50.74-.89l-9.57,6.06c13.35,4.73,35.9,10.29,50.74.89Z"/></g><g class="cls-2"><path class="cls-27" d="M170.14,97.63l9.57-6.06a26.64,26.64,0,0,0,3.13-2.32l-9.57,6.07a27.72,27.72,0,0,1-3.13,2.31Z"/></g><path class="cls-28" d="M177.61,95.15a30.14,30.14,0,0,1-13.36,6.4,48.39,48.39,0,0,1-10.54,1h-.33c-.57,0-1.14,0-1.72,0l-.48,0c-.54,0-1.07-.06-1.61-.09l-.5,0c-.6,0-1.2-.1-1.8-.17a88.53,88.53,0,0,1-11.21-2h0c-2.84-.68-5.55-1.44-8.05-2.23-1.5-.48-2.93-1-4.27-1.44.07.43.15.86.22,1.3l.09.48.15.88c0,.19.07.39.1.58s.1.56.16.84.07.42.11.63.11.57.16.86l.12.64c.06.3.11.6.17.91l.12.63c.07.33.13.66.2,1l.12.61.21,1.06.12.6c.08.38.16.76.23,1.14l.12.56.27,1.28c0,.16.07.32.1.48.1.47.2.95.31,1.43,0,.12.05.25.08.37.12.57.25,1.14.38,1.73l0,.12c1,4.52,2.2,9.43,3.6,14.65v0q.3,1.09.6,2.22s0,0,0,.06c.2.74.41,1.48.62,2.23v.06c.22.76.43,1.52.65,2.29h0c2.47,8.59,5.47,17.82,9.09,27.36l0,0h0c9.1,23.94,22.13,49.8,40.65,72a43.38,43.38,0,0,0,9-2.67h0l0,0c.62-.26,1.23-.53,1.83-.82h0a45.41,45.41,0,0,0,7-4.14l.08-.06a49,49,0,0,0,4.67-3.83l0,0c.46-.42.91-.86,1.35-1.3l.21-.2,1.18-1.23.19-.21q1.35-1.46,2.61-3l.11-.14c.36-.45.72-.9,1.07-1.36l.29-.39c.3-.39.59-.79.87-1.19.11-.14.21-.28.31-.43.3-.42.6-.85.89-1.28l.22-.32c.36-.55.73-1.11,1.08-1.67h0c1.53-2.42,2.94-4.94,4.23-7.52h0l0,0,.84-1.72c.06-.13.13-.27.19-.41l.66-1.42.21-.46c.22-.5.44-1,.65-1.5,0-.11.1-.21.14-.32.27-.62.53-1.25.78-1.87,0,0,0-.07,0-.11.23-.56.46-1.13.68-1.7.06-.18.13-.35.2-.53.17-.44.33-.88.49-1.32l.22-.58.49-1.38c.05-.15.1-.3.16-.45a177.06,177.06,0,0,0,8-35.5C219.11,144.4,193.68,123.87,177.61,95.15Z"/><path class="cls-29" d="M201,155.58a11.06,11.06,0,0,1,3.25,3c2.61,3.58,3.26,8.07,1.45,10L178.5,198.33l-26.89-43.47c-2.36-3.8-2.53-8.09-.4-9.57,1.13-.79,2.7-.62,4.28.28a11.42,11.42,0,0,1,3.83,3.92l17.19,27.77,19.77-21.55C197.4,154.49,199.2,154.53,201,155.58Z"/><path class="cls-30" d="M190.65,114.55l-58.84,18.12c.11.4.22.8.34,1.2v.06c.22.76.43,1.52.65,2.29h0c.72,2.52,1.5,5.1,2.32,7.72L199,124.31C196.13,121.23,193.35,118,190.65,114.55Z"/><path class="cls-30" d="M220.75,202.08c.06-.13.13-.27.19-.41l.66-1.42.21-.46c.22-.5.44-1,.65-1.5,0-.11.1-.21.14-.32.27-.62.53-1.25.78-1.87,0,0,0-.07,0-.11.23-.56.46-1.13.68-1.7.06-.18.13-.35.2-.53l.06-.18-59,18.16q2.68,4.33,5.6,8.59l48-14.78c.3-.56.59-1.13.87-1.7l0,0Z"/><path class="cls-30" d="M207,132.57l-68.64,21.14c1.12,3.25,2.3,6.54,3.57,9.88l0,0h0q2,5.18,4.18,10.44l80.38-24.75A215.38,215.38,0,0,1,207,132.57Z"/><g class="cls-2"><path class="cls-26" d="M193.85,229.75l9.57-6.06c25.34-16.05,33.12-56.13,35.42-75.06l-9.57,6.07c-2.31,18.92-10.08,59-35.42,75.05Z"/></g><g class="cls-2"><path class="cls-26" d="M229.27,154.7l9.57-6.07c-14.5-10.13-39.93-30.66-56-59.38l-9.57,6.07c16.06,28.71,41.5,49.25,56,59.38Z"/></g><path class="cls-27" d="M240.28,150.67c-.17,4.69-3.29,93.66-61.57,98.3-60.84-67.48-70.5-163.2-71-168.23,2.66,1.29,53.24,25.82,64.78-7.84C186.88,120.25,237.61,149.15,240.28,150.67Zm-62.05,85.18c38-6.89,48.32-58.79,51-81.15-14.5-10.13-39.94-30.67-56-59.38-14.62,12.53-39.55,6.5-53.87,1.42,4.4,26.11,18.83,91,58.83,139.11Z"/><g class="cls-2"><path class="cls-25" d="M240.28,150.67l9.57-6.06c-2.67-1.52-53.4-30.43-67.8-77.77l-9.57,6.06c14.4,47.35,65.13,76.25,67.8,77.77Z"/></g><path class="cls-24" d="M202.13,241.29l9.58-6.06c35.75-22.65,38-86.67,38.14-90.62l-9.57,6.06c-.14,4-2.39,68-38.15,90.62Z"/><path class="cls-31" d="M234.41,280.42c5.93,1,18.1,5.92,17.23,11.67s-8,12.53-18.1,7.31S212.83,293.48,210,289,212.31,276.77,234.41,280.42Z"/><path class="cls-32" d="M223.8,236.08l-3-.5-1.65,3.58-.08.61-.07,4.17s-.15,3.19,2,3.57l.17,0c2.14.36,2.65-2,2.65-2l1.42-6.26C225.43,237.94,225.17,236.31,223.8,236.08Z"/><path class="cls-33" d="M222.5,238.48c.52,1.1-.54,2.55-1.48,3-.32.18.44,2.33.32,3.35a.94.94,0,0,1-1.37.83,39,39,0,0,1-.9-4.45c-.56-2.88.36-3.48,1.3-4S222,237.39,222.5,238.48Z"/><path class="cls-34" d="M219.38,238.27c3.08,3.26,5.38.6,5.38.6s.62-3.11.76-3.64c.75-3,3.55-13.2,4-17,.51-4.18.93-11.74.93-11.74s1.06-8.81-3.06-10.37c-2.36-.89-6.78.28-7,10.6-.05,2.65.15,9.84-.19,13.28-.64,6.38-1.64,16.9-1.64,16.9S218.47,237.3,219.38,238.27Z"/><path class="cls-35" d="M222.05,278.42l-.93,1.73s-7.77,2.61-8.25,2.83-1.75.67-1.65,1.66a1.06,1.06,0,0,0,.16.6,4,4,0,0,0,2.6,1.35c2.2.46,6.88-.06,6.88-.06a18.5,18.5,0,0,0,3.94-.77s1.22-.28,1.33,0a3.27,3.27,0,0,1-.09.94l2.94-1.06a8.19,8.19,0,0,0,.56-2.06l.08-4.06Z"/><path class="cls-36" d="M212.75,285.85a7.59,7.59,0,0,0,2.19.58,31.5,31.5,0,0,0,8.13-.47c.49-.09,1.68-.36,2.25-.41.21,0,.84,0,.81.19,0-.09,0,0,0,0a4.1,4.1,0,0,1-.12.94l-.76-.51s-2.26.41-2.66.53a31.74,31.74,0,0,1-8,.45,5.18,5.18,0,0,1-3.32-1.74,1.08,1.08,0,0,1-.08-.86A5.16,5.16,0,0,0,212.75,285.85Z"/><path class="cls-36" d="M226.13,285.74l3.22-1.3a11.44,11.44,0,0,1-.34,1.18l-2.94,1.07C226.08,286.59,226.11,286,226.13,285.74Z"/><path class="cls-34" d="M223.37,236.09l-3,42.21c-.27,1.72-1.31,2.29-.82,2.88,1.82,2.23,10,4.42,11.26.8l5.7-42.5Z"/><path class="cls-37" d="M248.11,287.13s.13,4.55.14,4.65c.17,2-2.2,7.2-5.61,7.54-.51,0-2.29-.11-2.29-.11s-2.33-.07-1.87-4.17c.18-1.6,1.84-8,1.84-8Z"/><path class="cls-35" d="M248.44,286s-.28,2.61-.51,6c-.14,2-2.6,6.31-5.6,6.49a9.85,9.85,0,0,1-1.44,0c-1.3-.06-3.06-.53-2.33-4.7.26-1.5,1.34-7.24,1.43-7.24Z"/><path class="cls-37" d="M231.77,237.07c.6,8.86,6.8,52.13,6.8,52.13a3.9,3.9,0,0,0,3.44,3.25,6.86,6.86,0,0,0,4.4-1,4,4,0,0,0,2.33-2.92l-3.6-53.59Z"/><path class="cls-38" d="M242.21,203s-4.22-4.85-6.21-5.54-8.28-.16-8.28-.16-3.14,7.43-3.16,7.93,2,13.63,2,13.63l10.17-5.81Z"/><path class="cls-36" d="M224.65,197c1.28-1.33,4.27-1.25,5.64-1.14-1.64,1.24-3.73,5.2-3.92,10.75a61.28,61.28,0,0,0,.93,9.64c.08-.16,5.79-10.82,7.93-12.82,2.72-2.54,3.05-4.7,3-4.7-.48-.4-.75-.61-.88-.73h0s10.62,7.07,10.31,8.82l-1.58,33.56c.06-.35,0,2.6-1.59,3.54a24.84,24.84,0,0,1-9.41,2.87c-7.65.63-13.46-5.2-13.46-5.2a2,2,0,0,1-.6-1.74l3-10.2-1.56-17.85C222,204.26,221.23,200.59,224.65,197Z"/><path class="cls-33" d="M229.69,200.37c3.12,3.08,5.47-.34,7.48-2.73l.39-8.6-7.7,2.28Z"/><path class="cls-39" d="M234.75,184.34a1.91,1.91,0,0,0-2,1.61l-.12,3.52s.06.77.71.92c1,.24,1.45-.62,1.93-1.56,0-.05.65-1.45.68-1.53C236.48,186.12,236.41,184.39,234.75,184.34Z"/><path class="cls-37" d="M226.93,245.23s1-10.8.7-14.29c-.74-9.61-.67-13.89-.67-13.89a8.19,8.19,0,0,0,.57-.84s-.06,7.67.63,14.75c.34,3.51-.76,14.47-.76,14.47A3.23,3.23,0,0,0,226.93,245.23Z"/><path class="cls-37" d="M229.18,205.61a2,2,0,0,0,.06-.91l-.18-1.12,1.66-2.37.77.18.33,2.75-1.07,1a1.9,1.9,0,0,0-.51,1.11l-1,7.8-1.9,2.23-.93-3.17Z"/><path class="cls-40" d="M228.85,197.37l.43-1.25a11.15,11.15,0,0,0-3.51,3.21,37,37,0,0,0-1.62,3.41,1.54,1.54,0,0,0,.31,1.73l1.24,1.65-1.2,1.29a1.2,1.2,0,0,0-.12,1.59l3,7.48s-.34-4.89-.39-7.84A28.4,28.4,0,0,1,228.85,197.37Z"/><path class="cls-41" d="M230.79,200.85c.43.36.08.84-.16,1.16l-1.55,2c-.49.6-.68-.1-.68-.75l.16-4.75c.37-3,1.34-2.56,1.34-2.56a1.64,1.64,0,0,1,.06.89C229.85,197.89,229.32,199.61,230.79,200.85Z"/><path class="cls-41" d="M237.27,195.38a2,2,0,0,1-.41,1.26c-1.76,2.55-5.46,4.33-5.46,4.33-.5.18-.49.42-.43,1.26l.4,3.08c.06.81.48.74.81.41,0,0,3.31-2.7,4.25-3.61,2.2-2.15,2.25-2,1.51-4.82A5.78,5.78,0,0,0,237.27,195.38Z"/><path class="cls-40" d="M238,197.29l1.17,1.5a5.71,5.71,0,0,1,.42.62c.23.56-1.65,2.73-2.35,6.22-.21,1.05-.7,1.36-1.49,1.39l-2.77.25.81,1.45c.51.55,0,1.21-.46,1.65a79.6,79.6,0,0,0-6.33,6.74,32.23,32.23,0,0,1,4.87-10.78C233.32,204.12,238,197.29,238,197.29Z"/><path class="cls-33" d="M247.9,245.53c0,1.15-1.62,1.86-2.67,1.83-.36,0-1,2.77-2.53,2.63,0,0,0-.75.12-2.07a2.76,2.76,0,0,1,.58-2c1.88-2,2.1-2.43,3.15-2.4S247.93,244.38,247.9,245.53Z"/><path class="cls-33" d="M248.63,242.84l-3,.43-.85,2,.36,2.27a2.09,2.09,0,0,1-.33,1.39c-.17.31-.49.84-.49.84s-.08,2.3,1.65,1.8a2.24,2.24,0,0,0,1-.63c.75-.12,2-.47,2.85-.66,1.93-.44,1.39-2.74,1.39-2.74l-.3-2.27C250.71,244,250,242.64,248.63,242.84Z"/><path class="cls-37" d="M248.2,245.62a4,4,0,0,0,2-.4,2,2,0,0,0,1.1-1.47c.18-2.91.68-15.85.3-19.45-.42-4-1.88-12.81-1.88-12.81s-1.33-7.46-5.66-6.91c-3.61.46-3.65,5-3.25,8.17.32,2.49,1.67,10.69,2.19,14.05,1,6.42,1.33,17.25,1.33,17.25A5.3,5.3,0,0,0,248.2,245.62Z"/><path class="cls-33" d="M232.06,179.39h0l6.49.23-.25,11.71c-.12.8-.11,1.53-.26,2.2a3.23,3.23,0,0,1-1.46,2.09,28.25,28.25,0,0,1-2.43,2.07,4.91,4.91,0,0,1-3,1.22c-.56-.1-2.3-.74-2.3-.74-1.25-.58-1.46-1.25-1.91-2.66-.2-.63-1.24-11.2-1.24-11.2l.09-3.95Z"/><path class="cls-42" d="M226.54,178.59c-1.85,1-1.63,3.34-1.46,4a15.19,15.19,0,0,0,.62,2.13s0-.92,0-1.84c0-1.38,1.42-1.08,2-.66a24.19,24.19,0,0,0,3.2,1.64c.73.45.43.12.5-.42,0-.12,0-.83,0-.83s1.82.9,2.25,1.22c1.9,1.38,1.64,5.1,1.77,5.1.56,0,.52-.26.69-.83,0,0,.13-2.64,2.26-1.55,1.13.57,0,3.14-.11,3.29l-.27,3.79c0,.05,3.18-4.81,3.52-5.55,3.29-7.24-2-14.84-9.5-12.44A44.45,44.45,0,0,0,226.54,178.59Z"/><polygon class="cls-43" points="224.16 185.75 223.99 185.65 223.99 185.4 224.16 185.5 224.16 185.75"/><path class="cls-44" d="M224.33,185.67l-.08,0v.1l.09,0a.05.05,0,0,0,0,0v-.09S224.35,185.66,224.33,185.67Z"/><g class="cls-2"><path class="cls-45" d="M224.25,185.71v.1a.14.14,0,0,1-.11,0l0,0v-.1a0,0,0,0,0,0,0,.11.11,0,0,0,.11,0Z"/></g><path class="cls-46" d="M224.34,185.61s0,0,0,.06l-.08,0a.11.11,0,0,1-.11,0,0,0,0,0,1,0-.07l.08,0A.13.13,0,0,1,224.34,185.61Z"/><path class="cls-47" d="M239.76,186.6a.2.2,0,0,1,.22,0l1.66.94c.12.07,0,.35-.13.45a.82.82,0,0,1-.79.07l-1.19-.68a.24.24,0,0,1-.1-.2.61.61,0,0,1,.09-.3,0,0,0,0,1,0,0A.59.59,0,0,1,239.76,186.6Z"/><path class="cls-48" d="M239.82,186.48a.27.27,0,0,0-.23,0,.81.81,0,0,0-.23.25,0,0,0,0,0,0,0,.71.71,0,0,0-.08.29.22.22,0,0,0,.1.21l.16.09a.24.24,0,0,1-.1-.2.61.61,0,0,1,.09-.3,0,0,0,0,1,0,0,.59.59,0,0,1,.23-.24.2.2,0,0,1,.22,0Z"/><polygon class="cls-49" points="233.2 190.51 233.04 190.41 239.35 186.77 239.52 186.86 233.2 190.51"/><polygon class="cls-43" points="233.21 190.75 233.04 190.66 233.04 190.41 233.2 190.51 233.21 190.75"/><path class="cls-50" d="M239.52,186.86a.61.61,0,0,0-.09.3l-6.23,3.6v-.25Z"/><path class="cls-43" d="M229,189.23l-.18.09a.11.11,0,0,1-.17-.09l-.07-.63a.14.14,0,0,1,.15-.16l.14,0Z"/><path class="cls-51" d="M228.13,187.65a.24.24,0,0,0-.1.22v.66l.11-.07v-.65a.23.23,0,0,1,.1-.22Z"/><path class="cls-52" d="M228.37,187.45c-.3-.17-.54,0-.54.31v.63l.2.14v-.66c0-.21.15-.3.34-.19a.73.73,0,0,1,.34.59l.2.11A1.18,1.18,0,0,0,228.37,187.45Z"/><path class="cls-51" d="M228.72,187.58a.8.8,0,0,0-.23-.19.36.36,0,0,0-.38,0l-.12.07a.38.38,0,0,1,.38,0,.91.91,0,0,1,.24.2,1.38,1.38,0,0,1,.2.33l.12-.07A1.15,1.15,0,0,0,228.72,187.58Z"/><path class="cls-53" d="M227.87,188.8l.12-.49-.12-.07c-.15.66-.18.56,0,.68C227.87,188.91,227.86,188.86,227.87,188.8Z"/><path class="cls-54" d="M228.13,188.06s0,0,0,0-.08,0-.13.06h0a.22.22,0,0,0-.08.13l.13.08a.27.27,0,0,1,.25-.2Z"/><path class="cls-43" d="M228.2,188.12c.06,0,.09,0,.07.12-.14.61-.12.65-.32.69s-.1,0-.08-.13C228,188.21,228,188.16,228.2,188.12Z"/><path class="cls-52" d="M228.14,188.43a0,0,0,0,0,0,0l0,0a.05.05,0,0,0,0,0,.06.06,0,0,0,0,0s0,0,0,.05h0s0,0,0,0v0l0-.05,0,0s0,0,0,0Z"/><path class="cls-55" d="M228.12,188.45s.07,0,.07,0a.14.14,0,0,1-.07.12s-.06,0-.06,0A.15.15,0,0,1,228.12,188.45Z"/><path class="cls-56" d="M227.47,186.43l-2.92-1.69a.36.36,0,0,0-.38,0l-.17.09a.41.41,0,0,1,.38,0l2.93,1.69a1.15,1.15,0,0,1,.53.93v.28a1.59,1.59,0,0,1-.64,1.43l.16-.1a1.54,1.54,0,0,0,.65-1.42v-.29A1.16,1.16,0,0,0,227.47,186.43Z"/><path class="cls-57" d="M227.31,186.52a1.15,1.15,0,0,1,.53.93v.28c0,1.41-1,2-2.23,1.27l-.58-.33a2.64,2.64,0,0,1-1.19-2.06v-1.47c0-.34.24-.48.53-.31Z"/><path class="cls-56" d="M232.31,189.22l-2.92-1.69a.41.41,0,0,0-.38,0l-.17.1a.36.36,0,0,1,.38,0l2.93,1.69a1.18,1.18,0,0,1,.53.92v1.47a.83.83,0,0,1-.35.76l.16-.09a.83.83,0,0,0,.35-.77v-1.46A1.17,1.17,0,0,0,232.31,189.22Z"/><path class="cls-57" d="M232.15,189.32a1.18,1.18,0,0,1,.53.92v1.47c0,.75-.54,1.06-1.2.68l-.58-.33a4.86,4.86,0,0,1-2.21-3.84v-.29c0-.34.24-.47.53-.3Z"/><path class="cls-51" d="M227.63,187.72a.06.06,0,0,0-.07,0l0,0a.06.06,0,0,1,.07,0,.2.2,0,0,1,.09.16s0,0,0,0l0,0a.06.06,0,0,0,0-.06A.19.19,0,0,0,227.63,187.72Z"/><path class="cls-58" d="M227.59,187.74a.2.2,0,0,1,.09.16.06.06,0,0,1-.09,0,.2.2,0,0,1-.09-.16C227.5,187.73,227.54,187.71,227.59,187.74Z"/><path class="cls-51" d="M228.93,188.32h-.07l0,0a.06.06,0,0,1,.07,0,.17.17,0,0,1,.09.15.06.06,0,0,1,0,.06l0,0a.06.06,0,0,0,0-.06A.2.2,0,0,0,228.93,188.32Z"/><path class="cls-58" d="M228.89,188.35a.17.17,0,0,1,.09.15c0,.06,0,.08-.09.05a.19.19,0,0,1-.1-.15C228.79,188.34,228.84,188.32,228.89,188.35Z"/><polygon class="cls-59" points="232.84 190.84 232.71 190.77 233.05 190.63 233.18 190.71 232.84 190.84"/><path class="cls-44" d="M233.16,190.6l-.08,0v.09l.08,0,0,0v-.1S233.18,190.59,233.16,190.6Z"/><g class="cls-2"><path class="cls-45" d="M233.08,190.64v.09a.1.1,0,0,1-.12,0l0,0v-.09s0,0,0,0a.14.14,0,0,0,.11,0Z"/></g><path class="cls-46" d="M233.17,190.53s0,.05,0,.07l-.08,0a.14.14,0,0,1-.11,0,0,0,0,0,1,0-.07l.09,0A.14.14,0,0,1,233.17,190.53Z"/><path class="cls-60" d="M232.7,190.55l-.24-.13v.52l.24.13Z"/><polygon class="cls-61" points="233.18 190.34 233.05 190.27 232.68 190.41 232.6 190.37 232.46 190.42 232.7 190.55 233.18 190.34"/><polygon class="cls-62" points="233.18 190.34 233.18 190.5 232.84 190.65 232.84 190.84 233.18 190.71 233.18 190.86 232.7 191.07 232.7 190.55 233.18 190.34"/><path class="cls-60" d="M223.89,185.66l-.24-.13v.52l.24.14Z"/><polygon class="cls-61" points="224.03 185.6 223.84 185.51 223.85 185.46 223.65 185.53 223.89 185.66 224.03 185.6"/><polygon class="cls-62" points="224.03 185.6 224.03 186.13 223.89 186.19 223.89 185.66 224.03 185.6"/><path class="cls-13" d="M232.2,190.48a1.29,1.29,0,0,0-.66-1.13l-1.93-1.08,2.16,3.11a.24.24,0,0,0,.43-.13Z"/><path class="cls-13" d="M227.27,187.57a1.31,1.31,0,0,0-.66-1.13l-1.93-1.08,2.16,3.11a.24.24,0,0,0,.43-.13Z"/><path class="cls-33" d="M238,186c-1.68-.05-2,2.74-2,2.74l0,2.19a1,1,0,0,0,.69.88c.94.23,1.42-.35,1.88-1.25l.65-1.48C239.67,187.91,239.56,186,238,186Z"/><path class="cls-31" d="M99.19,244.29c5.93,1,18.1,5.92,17.23,11.66s-8,12.53-18.1,7.31-20.72-5.92-23.5-10.44S77.08,240.63,99.19,244.29Z"/><path class="cls-32" d="M88.57,199.94l-3-.5L83.93,203l-.08.62-.07,4.16s-.16,3.2,2,3.57l.17,0c2.13.36,2.64-2,2.64-2L90,203.14C90.21,201.8,89.94,200.18,88.57,199.94Z"/><path class="cls-33" d="M87.28,202.35c.51,1.09-.54,2.55-1.48,3-.33.17.44,2.33.32,3.35a1,1,0,0,1-1.38.83,41.53,41.53,0,0,1-.9-4.46c-.56-2.88.36-3.48,1.3-4S86.76,201.25,87.28,202.35Z"/><path class="cls-34" d="M84.16,202.13c3.08,3.27,5.38.61,5.38.61s.62-3.12.75-3.64c.76-3,3.56-13.2,4-17,.51-4.18.94-11.74.94-11.74s1.06-8.81-3.07-10.36c-2.35-.89-6.77.27-7,10.59-.06,2.66.15,9.84-.2,13.28-.64,6.39-1.64,16.91-1.64,16.91S83.25,201.16,84.16,202.13Z"/><path class="cls-35" d="M90.19,243.77l-.75,1.83S82,249,81.54,249.27s-1.67.85-1.46,1.83a1.14,1.14,0,0,0,.21.59A4.1,4.1,0,0,0,83,252.75a31.4,31.4,0,0,0,6.83-.79,17.86,17.86,0,0,0,3.83-1.18s1.19-.41,1.33-.16a3.36,3.36,0,0,1,0,.95l2.82-1.37a7.76,7.76,0,0,0,.33-2.11L97.83,244Z"/><path class="cls-36" d="M81.73,252.15a7.36,7.36,0,0,0,2.23.34,31.5,31.5,0,0,0,8-1.32c.48-.15,1.63-.55,2.19-.65.21,0,.84-.08.83.1,0-.09,0,0,0,0a4.28,4.28,0,0,1,0,.95l-.81-.43s-2.19.65-2.58.8a31.86,31.86,0,0,1-7.88,1.3,5.19,5.19,0,0,1-3.48-1.38,1.07,1.07,0,0,1-.18-.85A5.33,5.33,0,0,0,81.73,252.15Z"/><path class="cls-36" d="M95,250.62,98.08,249a11.74,11.74,0,0,1-.21,1.21l-2.81,1.37C95.06,251.47,95,250.87,95,250.62Z"/><path class="cls-34" d="M87,201.54l1.44,42.3c-.09,1.73-1.06,2.41-.51,2.95,2,2,10.41,3.33,11.28-.4l1.18-42.87Z"/><path class="cls-37" d="M108.57,251.07s-.24,4.53-.24,4.64c0,2-2.79,7-6.21,7a22.79,22.79,0,0,1-2.27-.29s-2.32-.26-1.52-4.31c.3-1.58,2.49-7.84,2.49-7.84Z"/><path class="cls-35" d="M109,250s-.5,2.58-1,5.94c-.31,2-3.11,6.08-6.12,6a9.11,9.11,0,0,1-1.43-.15c-1.29-.16-3-.77-1.93-4.87.38-1.47,1.93-7.1,2-7.1Z"/><path class="cls-37" d="M96.41,199.82c-.13,8.88,2.48,52.52,2.48,52.52a3.9,3.9,0,0,0,3.17,3.52,6.81,6.81,0,0,0,4.47-.65,3.91,3.91,0,0,0,2.55-2.71l.84-53.7Z"/><path class="cls-38" d="M107,166.9s-4.22-4.85-6.2-5.55-8.29-.15-8.29-.15-3.14,7.43-3.15,7.93,2,13.62,2,13.62l10.17-5.81Z"/><path class="cls-36" d="M89.43,160.9c1.27-1.33,4.26-1.25,5.63-1.15-1.64,1.25-3.73,5.21-3.92,10.76a61.11,61.11,0,0,0,.93,9.63c.09-.16,5.8-10.82,7.94-12.82,2.71-2.53,3-4.7,3-4.7l-.88-.72h0s10.63,7.08,10.31,8.82l-1.58,33.56c.06-.35.05,2.6-1.58,3.54a24.76,24.76,0,0,1-9.42,2.88c-7.65.62-13.46-5.21-13.46-5.21a2,2,0,0,1-.59-1.74l3-10.2-1.57-17.84C86.79,168.13,86,164.46,89.43,160.9Z"/><path class="cls-33" d="M94.47,164.23c3.11,3.08,5.47-.33,7.48-2.73l.38-8.6-7.7,2.28Z"/><path class="cls-39" d="M99.53,148.2a1.92,1.92,0,0,0-2,1.62l-.12,3.51a1.06,1.06,0,0,0,.71.93c1,.24,1.46-.62,1.94-1.56,0-.06.64-1.45.68-1.53C101.26,150,101.19,148.25,99.53,148.2Z"/><path class="cls-37" d="M91.7,209.1s1-10.81.7-14.29c-.73-9.61-.67-13.9-.67-13.9a6.77,6.77,0,0,0,.58-.84s-.06,7.68.63,14.75c.34,3.51-.77,14.47-.77,14.47A2.72,2.72,0,0,0,91.7,209.1Z"/><path class="cls-37" d="M94,169.47a1.92,1.92,0,0,0,.05-.9l-.17-1.13,1.65-2.37.77.18L96.6,168l-1.07,1a1.82,1.82,0,0,0-.51,1.11l-1,7.8-1.9,2.22L91.18,177Z"/><path class="cls-40" d="M93.62,161.24l.43-1.25a10.92,10.92,0,0,0-3.5,3.21,35.25,35.25,0,0,0-1.63,3.4,1.55,1.55,0,0,0,.32,1.74L90.47,170l-1.19,1.29a1.21,1.21,0,0,0-.12,1.6l3,7.48s-.34-4.9-.38-7.84A28.46,28.46,0,0,1,93.62,161.24Z"/><path class="cls-41" d="M95.57,164.71c.43.36.08.84-.17,1.17l-1.54,2c-.5.61-.69-.09-.68-.75l.16-4.74c.37-3,1.33-2.56,1.33-2.56a1.66,1.66,0,0,1,.07.88C94.62,161.75,94.09,163.47,95.57,164.71Z"/><path class="cls-41" d="M102.05,159.25a2.08,2.08,0,0,1-.42,1.25c-1.76,2.56-5.46,4.34-5.46,4.34-.5.17-.48.41-.43,1.25l.41,3.08c0,.81.47.74.8.42,0,0,3.32-2.7,4.25-3.62,2.2-2.14,2.25-2,1.51-4.82A5.68,5.68,0,0,0,102.05,159.25Z"/><path class="cls-40" d="M102.76,161.15l1.17,1.5a5.14,5.14,0,0,1,.42.63c.23.56-1.65,2.72-2.34,6.21-.21,1.06-.71,1.36-1.5,1.4l-2.77.25.81,1.45c.51.55,0,1.21-.46,1.64A79.08,79.08,0,0,0,91.76,181a32.49,32.49,0,0,1,4.87-10.79C98.1,168,102.76,161.15,102.76,161.15Z"/><path class="cls-33" d="M112.67,209.39c0,1.16-1.61,1.86-2.66,1.83-.37,0-1,2.78-2.54,2.63,0,0,0-.75.12-2.06a2.8,2.8,0,0,1,.59-2c1.88-2,2.1-2.43,3.15-2.4S112.7,208.24,112.67,209.39Z"/><path class="cls-33" d="M113.4,206.7l-3,.43-.84,2,.35,2.26a2.15,2.15,0,0,1-.32,1.4l-.49.83s-.08,2.3,1.65,1.8a2.2,2.2,0,0,0,1-.62c.76-.13,2-.48,2.85-.67,1.93-.43,1.39-2.73,1.39-2.73l-.3-2.27C115.48,207.89,114.78,206.51,113.4,206.7Z"/><path class="cls-37" d="M113,209.48a4,4,0,0,0,2-.39,2,2,0,0,0,1.1-1.48c.17-2.91.68-15.84.29-19.45-.42-3.95-1.88-12.8-1.88-12.8s-1.32-7.47-5.66-6.91c-3.61.46-3.65,5-3.25,8.16.32,2.49,1.68,10.7,2.19,14.06,1,6.42,1.33,17.25,1.33,17.25A5.36,5.36,0,0,0,113,209.48Z"/><path class="cls-33" d="M96.83,143.26h0l6.49.22-.25,11.72c-.11.79-.1,1.52-.25,2.2a3.31,3.31,0,0,1-1.46,2.08,27.3,27.3,0,0,1-2.44,2.07,4.88,4.88,0,0,1-3,1.23c-.57-.11-2.31-.74-2.31-.74-1.24-.58-1.45-1.26-1.9-2.66-.2-.63-1.25-11.21-1.25-11.21l.1-3.94Z"/><path class="cls-63" d="M91.32,142.46c-1.85,1-1.64,3.33-1.47,4a9.37,9.37,0,0,0,.63,2.12s0-.91,0-1.84c0-1.37,1.42-1.07,2-.66a22.33,22.33,0,0,0,3.21,1.64c.72.45.42.12.49-.41,0-.12,0-.84,0-.84s1.81.9,2.25,1.22c1.89,1.39,1.64,5.11,1.77,5.1.56,0,.51-.26.69-.82,0,0,.12-2.65,2.26-1.56,1.12.57,0,3.14-.12,3.29l-.26,3.79c0,.05,3.18-4.81,3.52-5.55,3.28-7.24-2-14.84-9.5-12.43A43.11,43.11,0,0,0,91.32,142.46Z"/><polygon class="cls-43" points="88.93 149.61 88.77 149.51 88.77 149.26 88.93 149.36 88.93 149.61"/><path class="cls-44" d="M89.11,149.54l-.08,0v.09l.08,0s0,0,0,0v-.1A.05.05,0,0,1,89.11,149.54Z"/><g class="cls-2"><path class="cls-45" d="M89,149.58v.09a.13.13,0,0,1-.12,0s0,0,0,0v-.09s0,0,0,0a.16.16,0,0,0,.12,0Z"/></g><path class="cls-46" d="M89.11,149.47a0,0,0,0,1,0,.07l-.08,0a.16.16,0,0,1-.12,0s0,0,0-.07l.08,0A.14.14,0,0,1,89.11,149.47Z"/><path class="cls-47" d="M104.53,150.46a.27.27,0,0,1,.23,0l1.65.94c.12.07,0,.35-.13.45a.79.79,0,0,1-.79.07l-1.19-.67a.23.23,0,0,1-.09-.21.55.55,0,0,1,.08-.29s0,0,0,0A.76.76,0,0,1,104.53,150.46Z"/><path class="cls-48" d="M104.6,150.35a.22.22,0,0,0-.23,0,.59.59,0,0,0-.23.24v0a.64.64,0,0,0-.09.3.24.24,0,0,0,.1.2l.16.1a.23.23,0,0,1-.09-.21.55.55,0,0,1,.08-.29s0,0,0,0a.76.76,0,0,1,.23-.24.27.27,0,0,1,.23,0Z"/><polygon class="cls-49" points="97.98 154.37 97.81 154.28 104.13 150.63 104.29 150.73 97.98 154.37"/><polygon class="cls-43" points="97.98 154.62 97.81 154.53 97.81 154.28 97.98 154.37 97.98 154.62"/><path class="cls-50" d="M104.29,150.73a.55.55,0,0,0-.08.29L98,154.62v-.25Z"/><path class="cls-43" d="M93.73,153.1l-.18.09a.12.12,0,0,1-.17-.1l-.06-.63a.13.13,0,0,1,.14-.15h.15Z"/><path class="cls-51" d="M92.9,151.52a.23.23,0,0,0-.1.22v.66l.12-.08v-.65a.25.25,0,0,1,.1-.22Z"/><path class="cls-52" d="M93.14,151.32c-.29-.17-.53,0-.53.3v.64l.19.14v-.66c0-.22.16-.31.34-.2a.77.77,0,0,1,.35.59l.19.11A1.16,1.16,0,0,0,93.14,151.32Z"/><path class="cls-51" d="M93.5,151.45a1.11,1.11,0,0,0-.24-.2.41.41,0,0,0-.38,0l-.12.07a.36.36,0,0,1,.38,0,.91.91,0,0,1,.24.2,1.18,1.18,0,0,1,.21.32l.11-.06A1.21,1.21,0,0,0,93.5,151.45Z"/><path class="cls-53" d="M92.65,152.67l.11-.5-.12-.07c-.15.66-.18.57,0,.69A.1.1,0,0,1,92.65,152.67Z"/><path class="cls-54" d="M92.9,151.92h-.05c-.12,0-.07,0-.13.06h0a.46.46,0,0,0-.08.13l.13.08c0-.14.21-.21.25-.19Z"/><path class="cls-43" d="M93,152c.06,0,.1,0,.08.13-.14.61-.12.64-.33.68-.06,0-.09,0-.07-.12C92.79,152.07,92.76,152,93,152Z"/><path class="cls-52" d="M92.91,152.29h0l0,0,0,0a.09.09,0,0,0,0,0,.05.05,0,0,0,0,0l0,0,0,0a.07.07,0,0,1,0-.05s0,0,0,0l0,0h0Z"/><path class="cls-55" d="M92.9,152.31s.06,0,.06,0a.15.15,0,0,1-.06.11s-.07,0-.07,0A.14.14,0,0,1,92.9,152.31Z"/><path class="cls-56" d="M92.25,150.29l-2.93-1.69a.41.41,0,0,0-.38,0l-.16.1a.36.36,0,0,1,.38,0l2.92,1.69a1.16,1.16,0,0,1,.54.92v.29A1.55,1.55,0,0,1,92,153l.16-.1a1.54,1.54,0,0,0,.65-1.42v-.28A1.2,1.2,0,0,0,92.25,150.29Z"/><path class="cls-57" d="M92.08,150.39a1.16,1.16,0,0,1,.54.92v.29c0,1.41-1,2-2.23,1.27l-.58-.34a2.59,2.59,0,0,1-1.19-2.06V149c0-.34.24-.47.54-.3Z"/><path class="cls-56" d="M97.09,153.08l-2.93-1.68a.36.36,0,0,0-.38,0l-.16.09a.38.38,0,0,1,.38,0l2.92,1.69a1.16,1.16,0,0,1,.54.92v1.47a.83.83,0,0,1-.35.77l.17-.1a.86.86,0,0,0,.35-.77V154A1.22,1.22,0,0,0,97.09,153.08Z"/><path class="cls-57" d="M96.92,153.18a1.16,1.16,0,0,1,.54.92v1.47c0,.76-.54,1.06-1.2.68l-.58-.33a4.92,4.92,0,0,1-2.21-3.84v-.28c0-.34.24-.48.54-.31Z"/><path class="cls-51" d="M92.4,151.58a.07.07,0,0,0-.06,0l0,0h.06a.2.2,0,0,1,.09.16.08.08,0,0,1,0,.06l0,0s0,0,0,0A.2.2,0,0,0,92.4,151.58Z"/><path class="cls-58" d="M92.36,151.6a.2.2,0,0,1,.09.16c0,.06,0,.08-.09.05a.2.2,0,0,1-.09-.15C92.27,151.6,92.31,151.57,92.36,151.6Z"/><path class="cls-51" d="M93.7,152.19a0,0,0,0,0-.06,0l0,0s0,0,.06,0a.2.2,0,0,1,.09.16.09.09,0,0,1,0,.06l0,0a.08.08,0,0,0,0-.06A.17.17,0,0,0,93.7,152.19Z"/><path class="cls-58" d="M93.66,152.21a.2.2,0,0,1,.09.16.06.06,0,0,1-.09,0,.2.2,0,0,1-.09-.16C93.57,152.2,93.61,152.18,93.66,152.21Z"/><polygon class="cls-59" points="97.62 154.71 97.49 154.64 97.82 154.5 97.95 154.57 97.62 154.71"/><path class="cls-44" d="M97.94,154.46l-.08,0v.1l.08,0a0,0,0,0,0,0,0v-.09Z"/><g class="cls-2"><path class="cls-45" d="M97.86,154.5v.1a.14.14,0,0,1-.11,0s0,0,0,0v-.09l0,0a.13.13,0,0,0,.12,0Z"/></g><path class="cls-46" d="M97.94,154.39a0,0,0,0,1,0,.07l-.08,0a.13.13,0,0,1-.12,0s0-.05,0-.06l.08,0A.11.11,0,0,1,97.94,154.39Z"/><path class="cls-60" d="M97.47,154.42l-.24-.14v.52l.24.13Z"/><polygon class="cls-61" points="97.95 154.21 97.82 154.13 97.45 154.28 97.38 154.23 97.23 154.28 97.47 154.41 97.95 154.21"/><polygon class="cls-62" points="97.95 154.21 97.95 154.36 97.62 154.51 97.62 154.71 97.95 154.57 97.95 154.73 97.47 154.94 97.47 154.41 97.95 154.21"/><path class="cls-60" d="M88.67,149.53l-.25-.13v.52l.24.13C88.67,149.87,88.67,149.76,88.67,149.53Z"/><polygon class="cls-61" points="88.81 149.47 88.62 149.37 88.62 149.33 88.42 149.4 88.67 149.53 88.81 149.47"/><polygon class="cls-62" points="88.81 149.47 88.8 149.99 88.66 150.05 88.67 149.53 88.81 149.47"/><path class="cls-13" d="M97,154.34a1.29,1.29,0,0,0-.66-1.13l-1.92-1.08,2.15,3.12a.24.24,0,0,0,.43-.14Z"/><path class="cls-13" d="M92,151.43a1.29,1.29,0,0,0-.66-1.13l-1.92-1.08,2.15,3.12a.24.24,0,0,0,.43-.14Z"/><path class="cls-33" d="M102.74,149.82c-1.68,0-2,2.74-2,2.74l0,2.19a1,1,0,0,0,.69.89c1,.22,1.43-.35,1.88-1.26,0,0,.62-1.39.65-1.47C104.44,151.77,104.33,149.87,102.74,149.82Z"/></g></g></svg>