<svg id="Layer_1" data-name="Layer 1" xmlns="http://www.w3.org/2000/svg" viewBox="0 0 400 300"><defs><style>.cls-1{fill:#ebebeb;}.cls-2{fill:#f0f0f0;}.cls-3{fill:#e0e0e0;}.cls-4{fill:#fbfbfb;}.cls-5{fill:#f5f4f5;}.cls-6{fill:#e6e6e6;}.cls-13,.cls-7{fill:#fff;}.cls-16,.cls-8{fill:#4b6fb5;}.cls-9{fill:#263239;}.cls-10{fill:#923c39;}.cls-11{fill:#74160f;}.cls-12,.cls-16{opacity:0.2;}.cls-13,.cls-14{opacity:0.5;}.cls-15{opacity:0.3;}</style></defs><rect class="cls-1" x="25.69" y="248" width="348.89" height="0.17"/><rect class="cls-1" x="257.43" y="252.75" width="68.1" height="0.17"/><rect class="cls-1" x="227.35" y="256.78" width="32.56" height="0.17"/><rect class="cls-1" x="326.23" y="259.23" width="13.39" height="0.17"/><rect class="cls-1" x="113.94" y="256.87" width="64.56" height="0.17"/><rect class="cls-1" x="93.84" y="256.87" width="13.89" height="0.17"/><rect class="cls-1" x="66.02" y="253.92" width="22.93" height="0.17"/><path class="cls-1" d="M191.07,216.88H56.33a4,4,0,0,1-4-4V23.49a4,4,0,0,1,4-4H191.07a4,4,0,0,1,4,4v189.4A4,4,0,0,1,191.07,216.88ZM56.33,19.69a3.81,3.81,0,0,0-3.81,3.8v189.4a3.82,3.82,0,0,0,3.81,3.81H191.07a3.82,3.82,0,0,0,3.81-3.81V23.49a3.81,3.81,0,0,0-3.81-3.8Z"/><path class="cls-1" d="M342,216.88H207.26a4,4,0,0,1-4-4V23.49a4,4,0,0,1,4-4H342a4,4,0,0,1,4,4v189.4A4,4,0,0,1,342,216.88ZM207.26,19.69a3.81,3.81,0,0,0-3.81,3.8v189.4a3.82,3.82,0,0,0,3.81,3.81H342a3.82,3.82,0,0,0,3.81-3.81V23.49a3.81,3.81,0,0,0-3.81-3.8Z"/><polygon class="cls-2" points="298.57 241.57 87.81 241.57 75.25 98.61 286.01 98.61 298.57 241.57"/><polygon class="cls-3" points="84.09 246.13 87.81 241.57 75.25 98.61 71.53 103.23 84.09 246.13"/><path class="cls-4" d="M90.6,236.15,79,104.45a2.38,2.38,0,0,1,2.37-2.58H280.86a2.37,2.37,0,0,1,2.36,2.17L294.8,235.73a2.37,2.37,0,0,1-2.37,2.58H93A2.37,2.37,0,0,1,90.6,236.15Z"/><polygon class="cls-3" points="117.44 241.57 85.68 241.57 83.44 248 115.19 248 117.44 241.57"/><polygon class="cls-5" points="117.44 241.57 326.23 241.57 323.98 248 115.19 248 117.44 241.57"/><polygon class="cls-3" points="203.42 241.57 243.44 241.57 243.01 245.78 202.99 245.78 203.42 241.57"/><path class="cls-3" d="M264.06,89.23h50.57c4.19,27.74-15.19,50.57-42.93,50.57A56.4,56.4,0,0,1,245.39,133Z"/><path class="cls-1" d="M264.06,89.23l26.66-38.74a63.15,63.15,0,0,1,15.95,17.37,57,57,0,0,1,8,21.37Z"/><path class="cls-6" d="M264.06,89.23l-7.63-50.57a54.49,54.49,0,0,1,17.75,3.05,61.24,61.24,0,0,1,16.54,8.78Z"/><path class="cls-2" d="M264.06,89.23,245.39,133c-17-9-29.17-25.75-31.89-43.79-4.19-27.74,15.18-50.57,42.93-50.57Z"/><path class="cls-1" d="M201.64,179.47H246.5a43.94,43.94,0,0,1,.22,11.61,39.07,39.07,0,0,1-2.85,10.82Z"/><path class="cls-3" d="M201.64,179.47l1.12-44.18a54.06,54.06,0,0,1,28.89,15.34,52.76,52.76,0,0,1,14.85,28.84Z"/><path class="cls-2" d="M201.64,179.47,161.8,194.81a49.94,49.94,0,0,1-5-15.34c-3.72-24.61,13.47-44.86,38.08-44.86a47.19,47.19,0,0,1,7.9.68Z"/><path class="cls-7" d="M201.64,179.47l42.23,22.43c-5.91,13.86-19.45,22.43-35.46,22.43-18.81,0-37.5-11.84-46.61-29.52Z"/><ellipse id="_Path_" data-name="&lt;Path&gt;" class="cls-5" cx="200.13" cy="271.61" rx="135.29" ry="7.9"/><path class="cls-7" d="M193.57,148.21H130.71a8,8,0,0,1-7.84-7.26l-3.15-38.64a6.62,6.62,0,0,1,6.67-7.26h62.85a8,8,0,0,1,7.84,7.26L200.23,141A6.62,6.62,0,0,1,193.57,148.21Z"/><path class="cls-8" d="M193.57,148.51H130.71a8.33,8.33,0,0,1-8.14-7.53l-3.15-38.65a6.91,6.91,0,0,1,7-7.58h62.85a8.33,8.33,0,0,1,8.14,7.53l3.15,38.65a7,7,0,0,1-1.8,5.36A6.93,6.93,0,0,1,193.57,148.51ZM126.39,95.36a6.31,6.31,0,0,0-6.37,6.92l3.15,38.65a7.72,7.72,0,0,0,7.54,7h62.86a6.31,6.31,0,0,0,6.36-6.92l-3.15-38.65a7.72,7.72,0,0,0-7.54-7Z"/><path class="cls-3" d="M176.51,136.92a19.51,19.51,0,0,1-9.24,5.6l-1-3a16.8,16.8,0,0,0,12.28-17.91,20.2,20.2,0,0,0-6.5-13.11l2-2.18C183.09,114.73,184.21,128.53,176.51,136.92Z"/><path class="cls-9" d="M174,106.34l-2,2.18a20,20,0,0,0-13.55-5.42,17,17,0,0,0-12.66,5.43l-2.36-2.19A19.91,19.91,0,0,1,158.21,100,23.48,23.48,0,0,1,174,106.34Z"/><path class="cls-8" d="M167.27,142.52a22.9,22.9,0,0,1-21.34-5.6c-9.07-8.39-10.19-22.19-2.49-30.58l2.36,2.19a17.13,17.13,0,0,0-4.36,13.1,20.49,20.49,0,0,0,20,18.53,18.4,18.4,0,0,0,4.75-.62Z"/><rect class="cls-8" x="102.91" y="32.58" width="5.04" height="0.6"/><rect class="cls-8" x="86.55" y="32.58" width="11.47" height="0.6"/><path class="cls-7" d="M151.39,88.13H88.54a8,8,0,0,1-7.85-7.25L77.55,42.23A6.6,6.6,0,0,1,84.21,35h62.85a8,8,0,0,1,7.85,7.25l3.14,38.65A6.6,6.6,0,0,1,151.39,88.13Z"/><path class="cls-8" d="M151.39,88.43H88.54a8.33,8.33,0,0,1-8.15-7.53L77.25,42.26a6.91,6.91,0,0,1,7-7.58h62.85a8.33,8.33,0,0,1,8.15,7.53l3.14,38.64a6.91,6.91,0,0,1-7,7.58ZM84.21,35.28a6.31,6.31,0,0,0-6.36,6.93L81,80.85a7.71,7.71,0,0,0,7.54,7h62.85a6.29,6.29,0,0,0,6.36-6.93L154.6,42.26a7.71,7.71,0,0,0-7.54-7Z"/><polygon class="cls-3" points="83.23 46.07 116.54 46.07 116.27 42.78 82.97 42.78 83.23 46.07"/><polygon class="cls-8" points="149.85 46.07 116.54 46.07 116.27 42.78 149.58 42.78 149.85 46.07"/><polygon class="cls-3" points="83.93 54.63 93.43 54.63 93.16 51.34 83.66 51.34 83.93 54.63"/><polygon class="cls-8" points="150.54 54.63 93.43 54.63 93.16 51.34 150.28 51.34 150.54 54.63"/><polygon class="cls-3" points="84.63 63.2 114.27 63.2 114.01 59.91 84.36 59.91 84.63 63.2"/><polygon class="cls-8" points="151.24 63.2 114.27 63.2 114.01 59.91 150.97 59.91 151.24 63.2"/><polygon class="cls-3" points="85.33 71.77 135.92 71.77 135.66 68.48 85.06 68.48 85.33 71.77"/><polygon class="cls-8" points="151.94 71.77 135.92 71.77 135.66 68.48 151.67 68.48 151.94 71.77"/><polygon class="cls-3" points="86.02 80.33 109.42 80.33 109.16 77.04 85.75 77.04 86.02 80.33"/><polygon class="cls-8" points="152.64 80.33 109.42 80.33 109.16 77.04 152.37 77.04 152.64 80.33"/><path class="cls-7" d="M237.31,88.13H174.46a8,8,0,0,1-7.84-7.25l-3.15-38.65A6.6,6.6,0,0,1,170.13,35H233a8,8,0,0,1,7.84,7.25L244,80.88A6.61,6.61,0,0,1,237.31,88.13Z"/><path class="cls-8" d="M237.31,88.43H174.46a8.32,8.32,0,0,1-8.14-7.53l-3.15-38.64a6.91,6.91,0,0,1,7-7.58H233a8.33,8.33,0,0,1,8.14,7.53l3.15,38.64a7,7,0,0,1-1.8,5.36A6.91,6.91,0,0,1,237.31,88.43ZM170.13,35.28a6.33,6.33,0,0,0-4.72,2,6.4,6.4,0,0,0-1.64,4.9l3.15,38.64a7.72,7.72,0,0,0,7.54,7h62.85a6.31,6.31,0,0,0,6.36-6.93l-3.14-38.64a7.72,7.72,0,0,0-7.54-7Z"/><polygon class="cls-3" points="205.81 80.33 204.7 80.33 201.64 42.78 202.75 42.78 205.81 80.33"/><polygon class="cls-8" points="207.48 64.73 200.48 64.73 199.29 50.05 206.29 50.05 207.48 64.73"/><polygon class="cls-3" points="192.03 80.33 190.92 80.33 187.86 42.78 188.97 42.78 192.03 80.33"/><polygon class="cls-8" points="193.97 67.99 186.97 67.99 185.92 55.13 192.92 55.13 193.97 67.99"/><polygon class="cls-3" points="178.25 80.33 177.14 80.33 174.09 42.78 175.2 42.78 178.25 80.33"/><polygon class="cls-9" points="179.33 57.41 172.33 57.41 171.61 48.58 178.61 48.58 179.33 57.41"/><polygon class="cls-3" points="219.58 80.33 218.47 80.33 215.42 42.78 216.53 42.78 219.58 80.33"/><polygon class="cls-9" points="221.94 73.06 214.94 73.06 213.06 50.05 220.06 50.05 221.94 73.06"/><polygon class="cls-3" points="233.36 80.33 232.25 80.33 229.19 42.78 230.3 42.78 233.36 80.33"/><polygon class="cls-8" points="235.94 75.81 228.94 75.81 227.44 57.39 234.44 57.39 235.94 75.81"/><path class="cls-7" d="M170.05,207.79H107.2a8,8,0,0,1-7.84-7.26l-3.15-38.64a6.61,6.61,0,0,1,6.66-7.26h62.86a8.05,8.05,0,0,1,7.84,7.26l3.14,38.64A6.6,6.6,0,0,1,170.05,207.79Z"/><path class="cls-8" d="M170.05,208.09H107.2a8.32,8.32,0,0,1-8.14-7.53l-3.15-38.65a6.91,6.91,0,0,1,7-7.58h62.86a8.33,8.33,0,0,1,8.14,7.53L177,200.51a6.91,6.91,0,0,1-7,7.58Zm-67.18-53.15a6.29,6.29,0,0,0-6.36,6.92l3.15,38.65a7.71,7.71,0,0,0,7.54,7h62.85a6.29,6.29,0,0,0,6.36-6.92l-3.14-38.65a7.72,7.72,0,0,0-7.54-7Z"/><polygon class="cls-8" points="111.38 180.29 124.92 195.94 140.46 171.98 150.06 184.36 152.41 180.74 168.11 199.56 107.8 199.54 111.38 180.29"/><polygon class="cls-3" points="156.6 181.26 150.3 194.74 130.22 162.86 120.77 183.1 117.73 178.29 107.8 199.56 168.11 199.53 156.6 181.26"/><path class="cls-8" d="M285.88,92.16c1.68,3.15,3.12,6.27,4.48,9.52a85.38,85.38,0,0,1,3.51,10c.25.87.46,1.76.66,2.66a9.28,9.28,0,0,1,.17,3.78,18.38,18.38,0,0,1-2.07,5.78,39,39,0,0,1-6.53,8.69,2,2,0,0,1-3.16-2.29l.05-.09a70,70,0,0,0,4-8.83,13.68,13.68,0,0,0,.87-4,3.92,3.92,0,0,0-.06-.66.68.68,0,0,0-.06-.2l-.13-.41c-.23-.75-.47-1.51-.75-2.26-1.06-3-2.36-6.08-3.72-9.09s-2.81-6.07-4.24-9l0-.06a4,4,0,0,1,7-3.61Z"/><path class="cls-10" d="M283.7,129.94,280.37,131l3.91,4.59a7.57,7.57,0,0,0,2.06-3.26,1.6,1.6,0,0,0-.63-1.74l-.56-.4A1.63,1.63,0,0,0,283.7,129.94Z"/><polygon class="cls-10" points="275.78 133.82 279.98 137.15 284.28 135.58 280.37 130.99 275.78 133.82"/><path class="cls-9" d="M261.44,68.82c-.09.41-.38.7-.65.64s-.42-.43-.33-.84.37-.71.64-.65S261.52,68.4,261.44,68.82Z"/><path class="cls-11" d="M261.1,69.53a15,15,0,0,1-2.69,3.13,2.43,2.43,0,0,0,1.9.77Z"/><path class="cls-9" d="M263.41,66.83a.27.27,0,0,0,.17-.06.24.24,0,0,0,0-.35,2.42,2.42,0,0,0-2.1-.82.23.23,0,0,0-.2.28.25.25,0,0,0,.28.21h0a1.94,1.94,0,0,1,1.66.66A.27.27,0,0,0,263.41,66.83Z"/><path class="cls-10" d="M272.9,76.33c-.75,3.82-1.2,9.11,1.47,11.66,0,0-1,3.88-8.14,3.88-7.81,0-3.76-3.4-3.76-3.4,3.25-1,3.22-4.7,2.48-7.67Z"/><path class="cls-8" d="M261.1,87.87s1.14-2.7,2.3-3.16S272,83,273.68,84.1s2.85,4.52,2.85,4.52Z"/><path class="cls-8" d="M268.93,266.54c-.67,0-1.32-.09-1.54-.39a.49.49,0,0,1,0-.54.67.67,0,0,1,.4-.29c.86-.24,2.69.8,2.77.85a.12.12,0,0,1,0,.23A10,10,0,0,1,268.93,266.54Zm-.83-1a.88.88,0,0,0-.24,0,.4.4,0,0,0-.24.17c-.09.16-.06.23,0,.28.25.33,1.57.34,2.54.2A5.8,5.8,0,0,0,268.1,265.53Z"/><path class="cls-8" d="M270.51,266.4h-.05c-.64-.28-1.88-1.41-1.79-2,0-.14.12-.32.46-.35a.91.91,0,0,1,.69.21,3.6,3.6,0,0,1,.81,2,.17.17,0,0,1-.05.12Zm-1.28-2.12h-.07c-.23,0-.24.11-.24.14-.06.35.79,1.24,1.43,1.62a2.91,2.91,0,0,0-.69-1.61A.69.69,0,0,0,269.23,264.28Z"/><polygon class="cls-10" points="276.25 266.28 271.03 266.28 270.51 254.18 275.73 254.18 276.25 266.28"/><path class="cls-9" d="M271.06,265.67h5.7a.46.46,0,0,1,.45.36l1,4.64a.76.76,0,0,1-.75.93c-2.06,0-5-.16-7.62-.16-3,0-3.39.17-6.93.17-2.15,0-2.74-2.17-1.84-2.37,4.08-.89,5.17-1,8.7-3.16A2.42,2.42,0,0,1,271.06,265.67Z"/><path class="cls-9" d="M283.72,88c4.9,1.12,8.13,14.33,8.13,14.33l-8.18,6.14a15.61,15.61,0,0,1-6.06-9C275.93,92.92,278.72,86.86,283.72,88Z"/><path class="cls-12" d="M279.53,97.2a17,17,0,0,1,4.58,11l-.43.34a15.64,15.64,0,0,1-6.07-9c-.1-.39-.19-.78-.26-1.17Z"/><rect class="cls-8" x="266.04" y="114.46" width="42.7" height="31.76" transform="translate(-27.85 115.96) rotate(-21.78)"/><rect class="cls-13" x="266.06" y="114.57" width="42.07" height="31.76" transform="translate(-27.91 115.86) rotate(-21.78)"/><g class="cls-14"><rect class="cls-8" x="265.51" y="124.32" width="3.98" height="2.82" transform="translate(-27.56 108.25) rotate(-21.78)"/><rect class="cls-8" x="271.62" y="121.88" width="3.98" height="2.82" transform="translate(-26.21 110.34) rotate(-21.78)"/><rect class="cls-8" x="277.72" y="119.44" width="3.98" height="2.82" transform="translate(-24.87 112.43) rotate(-21.78)"/><rect class="cls-8" x="283.83" y="117" width="3.98" height="2.82" transform="translate(-23.53 114.53) rotate(-21.78)"/><rect class="cls-8" x="289.94" y="114.55" width="3.98" height="2.82" transform="translate(-22.19 116.62) rotate(-21.78)"/><rect class="cls-8" x="296.05" y="112.11" width="3.98" height="2.82" transform="translate(-20.85 118.72) rotate(-21.78)"/><rect class="cls-8" x="267.24" y="128.65" width="3.98" height="2.82" transform="matrix(0.93, -0.37, 0.37, 0.93, -29.04, 109.2)"/><rect class="cls-8" x="273.35" y="126.21" width="3.98" height="2.82" transform="translate(-27.7 111.29) rotate(-21.78)"/><rect class="cls-8" x="279.45" y="123.77" width="3.98" height="2.82" transform="matrix(0.93, -0.37, 0.37, 0.93, -26.36, 113.38)"/><rect class="cls-8" x="285.56" y="121.32" width="3.98" height="2.82" transform="translate(-25.01 115.48) rotate(-21.78)"/><rect class="cls-8" x="291.67" y="118.88" width="3.98" height="2.82" transform="translate(-23.67 117.57) rotate(-21.78)"/><rect class="cls-8" x="297.78" y="116.44" width="3.98" height="2.82" transform="translate(-22.33 119.66) rotate(-21.78)"/><rect class="cls-8" x="268.97" y="132.98" width="3.98" height="2.82" transform="translate(-30.52 110.15) rotate(-21.78)"/><rect class="cls-8" x="275.08" y="130.54" width="3.98" height="2.82" transform="translate(-29.18 112.24) rotate(-21.78)"/><rect class="cls-8" x="281.18" y="128.09" width="3.98" height="2.82" transform="translate(-27.84 114.34) rotate(-21.78)"/><rect class="cls-8" x="287.29" y="125.65" width="3.98" height="2.82" transform="translate(-26.5 116.43) rotate(-21.78)"/><rect class="cls-8" x="293.4" y="123.21" width="3.98" height="2.82" transform="translate(-25.16 118.53) rotate(-21.78)"/><rect class="cls-8" x="299.51" y="120.77" width="3.98" height="2.82" transform="translate(-23.81 120.62) rotate(-21.78)"/><rect class="cls-8" x="270.7" y="137.31" width="3.98" height="2.82" transform="translate(-32.01 111.1) rotate(-21.78)"/><rect class="cls-8" x="276.81" y="134.86" width="3.98" height="2.82" transform="translate(-30.66 113.19) rotate(-21.78)"/><rect class="cls-8" x="282.91" y="132.42" width="3.98" height="2.82" transform="translate(-29.32 115.28) rotate(-21.78)"/><rect class="cls-8" x="289.02" y="129.98" width="3.98" height="2.82" transform="translate(-27.98 117.38) rotate(-21.78)"/><rect class="cls-8" x="295.13" y="127.54" width="3.98" height="2.82" transform="translate(-26.64 119.47) rotate(-21.78)"/><rect class="cls-8" x="301.24" y="125.1" width="3.98" height="2.82" transform="translate(-25.3 121.56) rotate(-21.78)"/><rect class="cls-8" x="272.43" y="141.64" width="3.98" height="2.82" transform="translate(-33.49 112.05) rotate(-21.78)"/><rect class="cls-8" x="278.54" y="139.19" width="3.98" height="2.82" transform="translate(-32.15 114.15) rotate(-21.78)"/><rect class="cls-8" x="284.64" y="136.75" width="3.98" height="2.82" transform="matrix(0.93, -0.37, 0.37, 0.93, -30.81, 116.24)"/><rect class="cls-8" x="290.75" y="134.31" width="3.98" height="2.82" transform="translate(-29.46 118.33) rotate(-21.78)"/><rect class="cls-8" x="296.86" y="131.87" width="3.98" height="2.82" transform="translate(-28.12 120.43) rotate(-21.78)"/><rect class="cls-8" x="302.97" y="129.43" width="3.98" height="2.82" transform="translate(-26.78 122.51) rotate(-21.78)"/><rect class="cls-8" x="274.16" y="145.96" width="3.98" height="2.82" transform="translate(-34.97 113) rotate(-21.78)"/><rect class="cls-8" x="280.27" y="143.52" width="3.98" height="2.82" transform="translate(-33.63 115.1) rotate(-21.78)"/><rect class="cls-8" x="286.37" y="141.08" width="3.98" height="2.82" transform="translate(-32.29 117.19) rotate(-21.78)"/><rect class="cls-8" x="292.48" y="138.64" width="3.98" height="2.82" transform="translate(-30.95 119.28) rotate(-21.78)"/><rect class="cls-8" x="298.59" y="136.2" width="3.98" height="2.82" transform="translate(-29.6 121.37) rotate(-21.78)"/><rect class="cls-8" x="304.7" y="133.76" width="3.98" height="2.82" transform="translate(-28.26 123.47) rotate(-21.78)"/></g><path class="cls-7" d="M298,117a1.09,1.09,0,0,1,.62-1.43A1.1,1.1,0,1,1,298,117Z"/><path class="cls-7" d="M297.12,132.45a1.11,1.11,0,1,1,1.44.62A1.1,1.1,0,0,1,297.12,132.45Z"/><path class="cls-7" d="M283.18,133a1.11,1.11,0,1,1,1.44.61A1.11,1.11,0,0,1,283.18,133Z"/><path class="cls-7" d="M274.42,146.55a1.11,1.11,0,0,1,2.06-.82,1.11,1.11,0,0,1-2.06.82Z"/><path class="cls-7" d="M275.45,146.55a.36.36,0,0,1-.22-.07.41.41,0,0,1-.12-.57l8.75-13.54a.4.4,0,0,1,.33-.18l13.57-.54.9-15.06a.41.41,0,0,1,.43-.39.42.42,0,0,1,.39.44l-.92,15.43a.4.4,0,0,1-.39.38l-13.74.55-8.64,13.36A.4.4,0,0,1,275.45,146.55Z"/><path class="cls-9" d="M252.79,93.25c-1.07,5.64-1.74,17.23,1.36,40.17h27.94c-.51-4-2.5-25.2,1.63-45.41a73,73,0,0,0-9.35-1.18,104.37,104.37,0,0,0-11.87,0c-1.31.12-2.6.31-3.74.51A7.4,7.4,0,0,0,252.79,93.25Z"/><path class="cls-12" d="M257.18,101.94l-5.24.42c-.19,6.79.28,16.69,2.22,31.06h.25C257.55,123.07,261.73,108.28,257.18,101.94Z"/><polygon class="cls-12" points="270.51 254.18 270.77 260.42 276 260.42 275.73 254.18 270.51 254.18"/><path class="cls-10" d="M275.38,70.74c-1.34,5-1.87,8-5,10.09-4.65,3.13-10.43-.47-10.61-5.77-.17-4.78,2.05-12.16,7.43-13.17A7.06,7.06,0,0,1,275.38,70.74Z"/><path class="cls-9" d="M263.66,70.77l-2.71.71,2.52-6.55a7.41,7.41,0,0,1-.23-5.05,1.48,1.48,0,0,1,1.38-1c5.63-.11,11.51,3,14.47,5.43a1.47,1.47,0,0,1,.33,1.9,16.7,16.7,0,0,1-2.55,3c-.05,1.84-3.05,10.12-4.71,11s-4.82.56-5.66-1S262.8,75.72,263.66,70.77Z"/><path class="cls-10" d="M266.17,70.88a5.87,5.87,0,0,1-2,3.17c-1.33,1-2.37.08-2.32-1.46s.8-3.6,2.29-4S266.52,69.36,266.17,70.88Z"/><path class="cls-8" d="M313.93,264.74c0-.67.08-1.32.38-1.54a.49.49,0,0,1,.54,0,.6.6,0,0,1,.3.39c.24.87-.79,2.7-.83,2.78a.14.14,0,0,1-.13.06.13.13,0,0,1-.1-.1A8.52,8.52,0,0,1,313.93,264.74Zm1-.83a.88.88,0,0,0,0-.24.33.33,0,0,0-.18-.24c-.15-.09-.23-.06-.27,0-.34.25-.34,1.57-.19,2.54A5.79,5.79,0,0,0,314.94,263.91Z"/><path class="cls-8" d="M314.08,266.32a.08.08,0,0,1,0-.05c.27-.64,1.4-1.89,2-1.8.14,0,.31.12.35.46a1,1,0,0,1-.21.69,3.61,3.61,0,0,1-2,.82.12.12,0,0,1-.11-.05A.11.11,0,0,1,314.08,266.32Zm2.11-1.29V265c0-.23-.11-.24-.14-.24-.36-.06-1.24.79-1.62,1.44a2.92,2.92,0,0,0,1.61-.7A.63.63,0,0,0,316.19,265Z"/><polygon class="cls-10" points="314.16 266.35 309.07 266.71 306.2 254.52 311.3 254.16 314.16 266.35"/><path class="cls-9" d="M314.15,265.18l-5.68-.5a.46.46,0,0,0-.48.32l-1.44,4.53a.76.76,0,0,0,.67,1c2,.15,5,.29,7.6.52,3,.26,1.06.26,4.59.57,2.14.19,2.92-1.92,2-2.19-4-1.25-4.72-2.12-6.1-3.72A1.77,1.77,0,0,0,314.15,265.18Z"/><polygon class="cls-12" points="306.21 254.53 307.68 260.81 312.78 260.45 311.31 254.16 306.21 254.53"/><path class="cls-8" d="M264.06,133.42s12,40.12,16.58,55c5,16.31,24,70.41,24,70.41l9.21-2s-13-46.48-18.41-69.23c-4.14-17.47-13.33-54.17-13.33-54.17Z"/><path class="cls-9" d="M303,256s.91,3.6.91,3.6L315,258.4l-.06-3.29Z"/><path class="cls-15" d="M270.72,152c6.65.87,9.29,24,10.29,37.64l-.38-1.23c-2.48-8.13-7.19-23.8-11-36.34A2.42,2.42,0,0,1,270.72,152Z"/><path class="cls-8" d="M254.15,133.42s4,39.08,5.77,55c1.8,16.55,8.58,70.81,8.58,70.81h8.85s-1.07-53.27-1.43-69.54c-.39-17.74-3.4-56.25-3.4-56.25Z"/><path class="cls-9" d="M267.13,255.69c-.05,0,.49,3.67.49,3.67h10.77l.29-3.28Z"/><path class="cls-9" d="M216.37,170.18a15.66,15.66,0,1,0,4.89-21.59A15.65,15.65,0,0,0,216.37,170.18Zm24.39-15.38a13.18,13.18,0,1,1-18.17-4.12A13.18,13.18,0,0,1,240.76,154.8Z"/><path class="cls-16" d="M241.39,164.5a12.08,12.08,0,1,1-9.11-14.45A12.07,12.07,0,0,1,241.39,164.5Z"/><path class="cls-9" d="M243.29,151.58l1.47,2.33a.77.77,0,0,1-.24,1.05h0a.76.76,0,0,1-1-.24L242,152.39a.76.76,0,0,1,.23-1h0A.76.76,0,0,1,243.29,151.58Z"/><path class="cls-9" d="M252.78,145c-1.69,1.15-3.38,2.33-5,3.55s-3.31,2.45-4.91,3.76a1,1,0,0,0-.28,1.24,1,1,0,0,0,1.38.51c1.88-.88,3.7-1.84,5.51-2.81s3.61-2,5.38-3q2.26-1.32,4.51-2.69a.9.9,0,0,0,.29-1.25l-1.21-1.92a.91.91,0,0,0-1.26-.28C255.69,143,254.23,144,252.78,145Z"/><path class="cls-8" d="M260.57,95.2c-.86,4.19-1.78,8.37-2.73,12.53L255,120.19c-.94,4.06-1.74,8.18-2.47,12.36l-2.2,12.56v0a2,2,0,0,1-3.91-.27c-.15-4.36-.09-8.68.16-13a128.54,128.54,0,0,1,1.37-13c.68-4.27,1.44-8.49,2.26-12.71s1.7-8.41,2.67-12.59a4,4,0,0,1,7.74,1.68Z"/><path class="cls-10" d="M249.68,144a1.42,1.42,0,0,0-1.38-.41l-1.14.27a1.44,1.44,0,0,0-1.09,1.21l-.33,2.52a3.23,3.23,0,0,0,.44,2.08l1.55,2.58a1.75,1.75,0,0,0,1.77.65l1.62-.34a1.76,1.76,0,0,0,1.31-2.26L252,149A8.07,8.07,0,0,0,249.68,144Z"/><path class="cls-9" d="M266,92.78c2.54,6.74-6.24,16.34-6.24,16.34l-11.12-3.67s.85-9.19,4.71-14.37C258.12,84.67,264.07,87.65,266,92.78Z"/></svg>