<svg id="Layer_1" data-name="Layer 1" xmlns="http://www.w3.org/2000/svg" viewBox="0 0 400 300"><path d="M47.14,57S83.63,25,128.49,40.24s79.83,84.4,123.17,86.68,83.63-21.29,117.84-.76,40.3,109.48-25.09,118.6-101.88-23.57-130-22-96.56,35.74-150.54,20.53S-38.78,123.12,47.14,57Z" style="fill:#e8f3fd"/><g style="opacity:0.46"><path d="M291,81.19H135a2.51,2.51,0,0,1-2.43-3.14L147.11,22.1a2.49,2.49,0,0,1,2.42-1.87h156A2.5,2.5,0,0,1,308,23.36l-14.56,56A2.5,2.5,0,0,1,291,81.19Z" style="fill:#c2d8f1"/><line x1="156.36" y1="32.2" x2="210.65" y2="32.2" style="fill:none;stroke:#acc0e4;stroke-linecap:round;stroke-linejoin:round;stroke-width:3.44553px"/><line x1="152.19" y1="57.25" x2="206.47" y2="57.25" style="fill:none;stroke:#acc0e4;stroke-linecap:round;stroke-linejoin:round;stroke-width:3.44553px"/><line x1="175.01" y1="47.78" x2="229.3" y2="47.78" style="fill:none;stroke:#acc0e4;stroke-linecap:round;stroke-linejoin:round;stroke-width:3.44553px"/><line x1="154.97" y1="40.55" x2="171.26" y2="40.55" style="fill:none;stroke:#acc0e4;stroke-linecap:round;stroke-linejoin:round;stroke-width:3.44553px"/><line x1="152.74" y1="47.78" x2="169.03" y2="47.78" style="fill:none;stroke:#acc0e4;stroke-linecap:round;stroke-linejoin:round;stroke-width:3.44553px"/><line x1="219.27" y1="32.2" x2="238.62" y2="32.2" style="fill:none;stroke:#acc0e4;stroke-linecap:round;stroke-linejoin:round;stroke-width:3.44553px"/><path d="M228.75,69H199.87a.22.22,0,0,1-.22-.28l1.29-5a.23.23,0,0,1,.22-.17h28.89a.22.22,0,0,1,.21.28l-1.29,5A.23.23,0,0,1,228.75,69Z" style="fill:none;stroke:#85addd;stroke-miterlimit:10;stroke-width:1.1485100000000001px"/><path d="M192.85,69H164a.22.22,0,0,1-.22-.28l1.29-5a.23.23,0,0,1,.22-.17h28.89a.22.22,0,0,1,.21.28l-1.29,5A.22.22,0,0,1,192.85,69Z" style="fill:none;stroke:#85addd;stroke-miterlimit:10;stroke-width:1.1485100000000001px"/><path d="M279.53,61.8c-1.48-2-7.49-3.41-9.15-5.38-.84-1-.84-2.88-.64-4.47a6.22,6.22,0,0,0,1.37-1.11A27.13,27.13,0,0,0,272.74,48a.94.94,0,0,0,.69.29c.79,0,3.79-4.11,3-5.06-.44-.54-1.15-.07-1.68.43.79-1.82,1.35-3.22,1.35-3.22h0c.07-.23.14-.46.2-.69,1.19-4.78-1.71-8.65-6.49-8.65A11.81,11.81,0,0,0,259,39.73c-.06.23-.1.46-.14.69h0s-.14,1.4-.25,3.22c-.28-.5-.77-1-1.48-.43-1.24.95-.28,5,.5,5.06a1.52,1.52,0,0,0,.83-.29,17.32,17.32,0,0,0,.2,2.86,3.5,3.5,0,0,0,1.1,1.36,9.67,9.67,0,0,1-2.78,4.22c-2.64,2-9.36,3.41-11.83,5.38-2.21,1.77-4.19,7-4.57,8h39.59C280.26,68.76,280.86,63.57,279.53,61.8Z" style="fill:#91b9e4"/></g><path d="M263.83,125.73h-156a2.51,2.51,0,0,1-2.43-3.14L120,66.64a2.49,2.49,0,0,1,2.42-1.87h156a2.49,2.49,0,0,1,2.42,3.13l-14.56,55.95A2.5,2.5,0,0,1,263.83,125.73Z" style="fill:none;stroke:#7193cc;stroke-miterlimit:10;stroke-width:1.1485100000000001px"/><path d="M260.9,121.55h-156a2.5,2.5,0,0,1-2.42-3.13l14.56-56a2.52,2.52,0,0,1,2.43-1.87h156a2.51,2.51,0,0,1,2.42,3.14l-14.56,56A2.52,2.52,0,0,1,260.9,121.55Z" style="fill:#a9c2e7"/><line x1="153.86" y1="121.55" x2="231.94" y2="121.55" style="fill:none;stroke:#7193cc;stroke-miterlimit:10;stroke-width:1.1485100000000001px"/><line x1="132.15" y1="60.59" x2="198.12" y2="60.59" style="fill:none;stroke:#7193cc;stroke-miterlimit:10;stroke-width:1.1485100000000001px"/><path d="M248.31,113.2H213.23a2.21,2.21,0,0,1-2.19-2.92l8.85-35.49a4,4,0,0,1,3.65-2.93h35.08a2.21,2.21,0,0,1,2.19,2.93L252,110.28A4,4,0,0,1,248.31,113.2Z" style="fill:#baddf6"/><path d="M231.1,113.34,234.16,101l-5-2.13s-9.38,3.43-10.17,4.26-4,7.88-5.11,10.18Z" style="fill:#003f61"/><path d="M248.46,113.34c.08-2.3.29-9.48,0-10.18s-8.05-4.26-8.05-4.26l-6.1,2.13-3.07,12.31Z" style="fill:#003f61"/><polygon points="234.27 113.34 239.08 102.69 228.75 103.28 227.74 113.34 234.27 113.34" style="fill:#bebecf"/><polygon points="231 96.65 228.75 98.07 227.27 101.62 226.89 106.47 230.05 105.17 232.51 108.13 235.79 105.41 237.81 107.3 240.85 100.79 240.32 96.77 239.04 96.18 231 96.65" style="fill:#dddfe8"/><path d="M231.69,87.33a1.43,1.43,0,0,0-2.31-.57c-1.55,1.14.27,5.55,1.39,4.22A5.78,5.78,0,0,0,231.69,87.33Z" style="fill:#f18c75"/><path d="M242.72,87.24s1.48-1.82,2.59-.8-2.54,5.68-3.14,4.43S242.72,87.24,242.72,87.24Z" style="fill:#f18c75"/><path d="M239.27,100.09l1.59-8.41-9.17.8-2,7.89s1.61,3.74,3.32,5.39C233,105.76,238.32,101.16,239.27,100.09Z" style="fill:#f08678"/><path d="M246.71,83.85c-.34,1-1.18,1.27-1.25,1.87a5.89,5.89,0,0,1-1,2.73,4.59,4.59,0,0,1-.89.76s-7.86,2.22-11.86-.85a6.89,6.89,0,0,1,0-2.55c.28-1.38-.39-1.62.38-2.3a2.56,2.56,0,0,0,1-2.05A3.25,3.25,0,0,1,234,79c.79-.76,1.51-.51,2.29-1.19,0,0,1.14-1.93,2.66-2.15s4.71-1,6.61,1.32,1,4.38,1.57,5.11S246.71,83.85,246.71,83.85Z" style="fill:#713336"/><path d="M231.62,85.88s-3.71,10.23,3.28,11c6.18.14,8.38-7.4,9.26-11.27s.34-7.91-4.61-7.78S232.17,83.59,231.62,85.88Z" style="fill:#f5a890"/><path d="M233.57,82.22a1.88,1.88,0,0,1,0,1.64c-.42.83-1.57,1.15-1.75,2.24s-.67,3.36-1,3.46-.09-2.22,0-3a13.36,13.36,0,0,1,2.29-6.16c1.65-2.08,2.67-3,5.6-3.44s5.17.76,6,2.55-.49,6.35-.49,6.35.2-2.16-.53-2.67-1.32-.89-1.2-1.19-2.33.78-4.77,0-3.23-.43-3.64-.18A1.48,1.48,0,0,0,233.57,82.22Z" style="fill:#713336"/><path d="M226.65,101.74c-.06.24-3.41,8.23-3.41,8.23l2.94,1.48-.83,1.65" style="fill:none;stroke:#1d2c50;stroke-miterlimit:10;stroke-width:0.48838499999999996px"/><path d="M241.15,101.74c-.06.24-.69,8.23-.69,8.23l-3.68,1.48v1.65" style="fill:none;stroke:#1d2c50;stroke-miterlimit:10;stroke-width:0.48838499999999996px"/><path d="M248.31,113.2H213.23a2.21,2.21,0,0,1-2.19-2.92l8.85-35.49a4,4,0,0,1,3.65-2.93h35.08a2.21,2.21,0,0,1,2.19,2.93L252,110.28A4,4,0,0,1,248.31,113.2Z" style="fill:none;stroke:#fff;stroke-miterlimit:10;stroke-width:1.1485100000000001px"/><line x1="126.3" y1="73.95" x2="180.58" y2="73.95" style="fill:none;stroke:#7b9ed3;stroke-linecap:round;stroke-linejoin:round;stroke-width:3.44553px"/><line x1="122.12" y1="99" x2="176.41" y2="99" style="fill:none;stroke:#7b9ed3;stroke-linecap:round;stroke-linejoin:round;stroke-width:3.44553px"/><line x1="144.95" y1="89.54" x2="199.23" y2="89.54" style="fill:none;stroke:#7b9ed3;stroke-linecap:round;stroke-linejoin:round;stroke-width:3.44553px"/><line x1="124.91" y1="82.3" x2="141.19" y2="82.3" style="fill:none;stroke:#7b9ed3;stroke-linecap:round;stroke-linejoin:round;stroke-width:3.44553px"/><line x1="122.68" y1="89.54" x2="138.97" y2="89.54" style="fill:none;stroke:#7b9ed3;stroke-linecap:round;stroke-linejoin:round;stroke-width:3.44553px"/><line x1="189.21" y1="73.95" x2="208.56" y2="73.95" style="fill:none;stroke:#7b9ed3;stroke-linecap:round;stroke-linejoin:round;stroke-width:3.44553px"/><path d="M198.69,110.76H169.8a.22.22,0,0,1-.21-.28l1.29-5a.21.21,0,0,1,.21-.16H200a.22.22,0,0,1,.22.27l-1.29,5A.23.23,0,0,1,198.69,110.76Z" style="fill:none;stroke:#7193cc;stroke-miterlimit:10;stroke-width:1.1485100000000001px"/><path d="M162.78,110.76H133.89a.22.22,0,0,1-.21-.28l1.29-5a.21.21,0,0,1,.21-.16h28.89a.22.22,0,0,1,.22.27l-1.29,5A.23.23,0,0,1,162.78,110.76Z" style="fill:none;stroke:#7193cc;stroke-miterlimit:10;stroke-width:1.1485100000000001px"/><line x1="196.03" y1="54.33" x2="229.85" y2="54.33" style="fill:none;stroke:#7193cc;stroke-miterlimit:10;stroke-width:1.1485100000000001px"/><path d="M262.57,201.44h-156a2.5,2.5,0,0,1-2.42-3.13l14.56-55.95a2.51,2.51,0,0,1,2.43-1.88h156a2.51,2.51,0,0,1,2.42,3.14L265,199.57A2.52,2.52,0,0,1,262.57,201.44Z" style="fill:#c2d8f1"/><line x1="127.97" y1="152.45" x2="182.25" y2="152.45" style="fill:none;stroke:#acc0e4;stroke-linecap:round;stroke-linejoin:round;stroke-width:3.44553px"/><line x1="123.79" y1="177.5" x2="178.08" y2="177.5" style="fill:none;stroke:#acc0e4;stroke-linecap:round;stroke-linejoin:round;stroke-width:3.44553px"/><line x1="146.62" y1="168.04" x2="200.9" y2="168.04" style="fill:none;stroke:#acc0e4;stroke-linecap:round;stroke-linejoin:round;stroke-width:3.44553px"/><line x1="126.58" y1="160.8" x2="142.86" y2="160.8" style="fill:none;stroke:#acc0e4;stroke-linecap:round;stroke-linejoin:round;stroke-width:3.44553px"/><line x1="124.35" y1="168.04" x2="140.64" y2="168.04" style="fill:none;stroke:#acc0e4;stroke-linecap:round;stroke-linejoin:round;stroke-width:3.44553px"/><line x1="190.88" y1="152.45" x2="210.23" y2="152.45" style="fill:none;stroke:#acc0e4;stroke-linecap:round;stroke-linejoin:round;stroke-width:3.44553px"/><path d="M200.36,189.26H171.47a.22.22,0,0,1-.21-.28l1.29-5a.21.21,0,0,1,.21-.16h28.89a.22.22,0,0,1,.22.27l-1.29,5A.23.23,0,0,1,200.36,189.26Z" style="fill:none;stroke:#85addd;stroke-miterlimit:10;stroke-width:1.1485100000000001px"/><path d="M164.45,189.26H135.56a.22.22,0,0,1-.21-.28l1.29-5a.21.21,0,0,1,.21-.16h28.89a.22.22,0,0,1,.22.27l-1.29,5A.23.23,0,0,1,164.45,189.26Z" style="fill:none;stroke:#85addd;stroke-miterlimit:10;stroke-width:1.1485100000000001px"/><path d="M251.14,182.06c-1.48-2-7.49-3.41-9.15-5.38-.85-1-.85-2.88-.65-4.48a6,6,0,0,0,1.38-1.1,25.8,25.8,0,0,0,1.62-2.87.92.92,0,0,0,.69.29c.79,0,3.8-4.11,3-5.06-.44-.54-1.16-.07-1.69.43.8-1.82,1.36-3.21,1.36-3.21h0c.07-.23.14-.46.2-.7,1.19-4.77-1.72-8.65-6.5-8.65s-9.61,3.88-10.8,8.65c-.06.24-.11.47-.15.7h0s-.13,1.39-.25,3.21c-.28-.5-.76-1-1.47-.43-1.25.95-.28,5,.49,5.06a1.5,1.5,0,0,0,.84-.29,17.59,17.59,0,0,0,.19,2.87,3.63,3.63,0,0,0,1.11,1.36,9.73,9.73,0,0,1-2.78,4.22c-2.64,2-9.37,3.4-11.83,5.38-2.22,1.77-4.19,6.95-4.57,8h39.59C251.86,189,252.47,183.83,251.14,182.06Z" style="fill:#91b9e4"/><g style="opacity:0.46"><path d="M246.43,276.05h-156A2.51,2.51,0,0,1,88,272.91l14.57-56a2.51,2.51,0,0,1,2.42-1.88H261a2.51,2.51,0,0,1,2.43,3.14l-14.57,56A2.49,2.49,0,0,1,246.43,276.05Z" style="fill:#c2d8f1"/><line x1="111.82" y1="227.05" x2="166.11" y2="227.05" style="fill:none;stroke:#acc0e4;stroke-linecap:round;stroke-linejoin:round;stroke-width:3.44553px"/><line x1="107.65" y1="252.11" x2="161.93" y2="252.11" style="fill:none;stroke:#acc0e4;stroke-linecap:round;stroke-linejoin:round;stroke-width:3.44553px"/><line x1="130.48" y1="242.64" x2="184.76" y2="242.64" style="fill:none;stroke:#acc0e4;stroke-linecap:round;stroke-linejoin:round;stroke-width:3.44553px"/><line x1="110.43" y1="235.41" x2="126.72" y2="235.41" style="fill:none;stroke:#acc0e4;stroke-linecap:round;stroke-linejoin:round;stroke-width:3.44553px"/><line x1="108.21" y1="242.64" x2="124.49" y2="242.64" style="fill:none;stroke:#acc0e4;stroke-linecap:round;stroke-linejoin:round;stroke-width:3.44553px"/><line x1="174.74" y1="227.05" x2="194.08" y2="227.05" style="fill:none;stroke:#acc0e4;stroke-linecap:round;stroke-linejoin:round;stroke-width:3.44553px"/><path d="M184.22,263.86H155.33a.22.22,0,0,1-.22-.28l1.29-5a.24.24,0,0,1,.22-.16h28.89a.22.22,0,0,1,.21.28l-1.29,5A.21.21,0,0,1,184.22,263.86Z" style="fill:none;stroke:#85addd;stroke-miterlimit:10;stroke-width:1.1485100000000001px"/><path d="M148.31,263.86H119.42a.22.22,0,0,1-.22-.28l1.29-5a.24.24,0,0,1,.22-.16H149.6a.22.22,0,0,1,.21.28l-1.29,5A.21.21,0,0,1,148.31,263.86Z" style="fill:none;stroke:#85addd;stroke-miterlimit:10;stroke-width:1.1485100000000001px"/><path d="M235,256.66c-1.48-2-7.49-3.41-9.15-5.38-.84-1-.84-2.88-.64-4.47a6.22,6.22,0,0,0,1.37-1.11,28.19,28.19,0,0,0,1.63-2.86,1,1,0,0,0,.69.28c.79,0,3.79-4.11,3-5.05-.45-.54-1.16-.08-1.69.43.79-1.82,1.35-3.22,1.35-3.22h0a6,6,0,0,0,.2-.69c1.19-4.78-1.71-8.65-6.49-8.65a11.81,11.81,0,0,0-10.81,8.65c-.06.23-.1.46-.14.69h0s-.14,1.4-.25,3.22c-.28-.51-.76-1-1.48-.43-1.24.94-.28,5,.5,5.05a1.5,1.5,0,0,0,.83-.28,17.41,17.41,0,0,0,.2,2.86,3.45,3.45,0,0,0,1.11,1.36,9.82,9.82,0,0,1-2.78,4.22c-2.65,2-9.37,3.41-11.84,5.38-2.21,1.77-4.19,6.95-4.56,8h39.58C235.72,263.61,236.32,258.43,235,256.66Z" style="fill:#91b9e4"/></g><line x1="215.24" y1="276.33" x2="243.08" y2="276.33" style="fill:none;stroke:#7193cc;stroke-miterlimit:10;stroke-width:1.1485100000000001px"/><line x1="120.59" y1="201.72" x2="186.84" y2="201.72" style="fill:none;stroke:#7193cc;stroke-miterlimit:10;stroke-width:1.1485100000000001px"/><line x1="202.02" y1="201.72" x2="218.16" y2="201.72" style="fill:none;stroke:#7193cc;stroke-miterlimit:10;stroke-width:1.1485100000000001px"/><path d="M271.75,140.76h5.59a2.44,2.44,0,0,1,2.34,3.17l-2.37,7.69" style="fill:none;stroke:#7193cc;stroke-miterlimit:10;stroke-width:1.1485100000000001px"/><path d="M94.51,42.38H91.65a1,1,0,0,1-1-1.3l.71-2.85A1.77,1.77,0,0,1,93,36.93h2.86a1,1,0,0,1,1,1.3l-.71,2.85A1.78,1.78,0,0,1,94.51,42.38Z" style="fill:#c2d8f1"/><path d="M92.42,50.75H89.56a1,1,0,0,1-1-1.3l.71-2.85a1.78,1.78,0,0,1,1.62-1.3h2.86a1,1,0,0,1,1,1.3L94,49.45A1.77,1.77,0,0,1,92.42,50.75Z" style="fill:#edf3fc"/><path d="M101.5,50.75H98.65a1,1,0,0,1-1-1.3l.72-2.85A1.76,1.76,0,0,1,100,45.3h2.85a1,1,0,0,1,1,1.3l-.72,2.85A1.76,1.76,0,0,1,101.5,50.75Z" style="fill:#c2d8f1"/><path d="M110.59,50.75h-2.86a1,1,0,0,1-1-1.3l.71-2.85a1.77,1.77,0,0,1,1.62-1.3H112a1,1,0,0,1,1,1.3l-.71,2.85A1.78,1.78,0,0,1,110.59,50.75Z" style="fill:#edf3fc"/><path d="M90.28,59.31H87.43a1,1,0,0,1-1-1.29l.71-2.86a1.77,1.77,0,0,1,1.62-1.3h2.85a1,1,0,0,1,1,1.3L91.91,58A1.78,1.78,0,0,1,90.28,59.31Z" style="fill:#edf3fc"/><path d="M88,68.46H85.15a1,1,0,0,1-1-1.3l.72-2.85A1.76,1.76,0,0,1,86.51,63h2.85a1,1,0,0,1,1,1.3l-.72,2.85A1.76,1.76,0,0,1,88,68.46Z" style="fill:#edf3fc"/><path d="M99.37,59.31H96.51a1,1,0,0,1-1-1.29l.71-2.86a1.77,1.77,0,0,1,1.62-1.3h2.86a1,1,0,0,1,1,1.3L101,58A1.78,1.78,0,0,1,99.37,59.31Z" style="fill:#edf3fc"/><path d="M95.39,75.27H92.53a1,1,0,0,1-1-1.29l.71-2.86a1.78,1.78,0,0,1,1.62-1.3h2.86a1,1,0,0,1,1,1.3L97,74A1.78,1.78,0,0,1,95.39,75.27Z" style="fill:#c2d8f1"/><path d="M140.3,25.76h-.05l-.13,0h0c-.29,0-.59,0-.89,0-8.47,0-17,6.78-19.29,15.21l-.1.4h0l0,.13-.06.26h0c-1.85,8.54,3.63,15.34,12.4,15,8-.32,16.07-6.71,18.48-14.62C153.23,33.49,148.49,26.33,140.3,25.76Zm5.83,16C144.44,47.41,138.68,52,133,52.14c-6.1.19-9.91-4.55-8.65-10.5l.17-.71h0c1.62-5.9,7.63-10.64,13.57-10.64.31,0,.61,0,.9,0C144.66,30.81,147.93,35.8,146.13,41.79Z" style="fill:#ebedf8"/><path d="M139.46,28.4h0a1.73,1.73,0,0,0,1.19,2.22c4.63,1.22,7.1,5.79,5.48,11.17C144.44,47.41,138.68,52,133,52.14s-9.23-3.75-8.87-9a1.69,1.69,0,0,0-1.79-1.85h0A3.08,3.08,0,0,0,119.42,44c-.5,7.43,4.76,13,12.73,12.69S148.22,50,150.63,42.08c2.31-7.64-1.19-14.16-7.76-15.9A3,3,0,0,0,139.46,28.4Z" style="fill:#a9c2e7"/><path d="M178.85,24.2h-.2c-.29,0-.57,0-.87,0-8.56,0-17.23,6.94-19.36,15.5s3.07,15.51,11.63,15.51c.3,0,.59,0,.88,0h.21c8.15-.55,16.14-7.18,18.24-15.32,0,0,0-.09,0-.14C191.46,31.46,186.77,24.75,178.85,24.2ZM172,50.55h0c-.18,0-.36,0-.54,0h-.19c-6,0-9.7-4.89-8.2-10.93s7.62-10.92,13.65-10.92h.19l.53,0h0c5.58.39,8.88,5.12,7.44,10.89l0,.14A15,15,0,0,1,172,50.55Z" style="fill:#fff"/><path d="M184.14,41.7a15.3,15.3,0,0,1-10.81,8.68,3.18,3.18,0,0,0-2.46,2.25h0A1.77,1.77,0,0,0,173,54.88a21.73,21.73,0,0,0,15.4-12.37,1.79,1.79,0,0,0-1.57-2.72h0A3.17,3.17,0,0,0,184.14,41.7Z" style="fill:#c2d8f1"/><path d="M137.73,78.75H108.84a.23.23,0,0,1-.22-.28l1.3-5a.21.21,0,0,1,.21-.17H139a.23.23,0,0,1,.22.28l-1.3,5A.21.21,0,0,1,137.73,78.75Z" style="fill:#edf3fc"/><ellipse cx="264.23" cy="93.3" rx="14.53" ry="11.33" transform="translate(4.42 198.27) rotate(-41.45)" style="fill:#7b9ed3"/><path d="M283.19,107.08a4.79,4.79,0,0,1-4.38,3.51,2.66,2.66,0,0,1-2.64-3.51,4.79,4.79,0,0,1,4.39-3.51A2.65,2.65,0,0,1,283.19,107.08Z" style="fill:#7b9ed3"/><path d="M260.92,99.82a1.23,1.23,0,0,1-1-.47l-3.31-4.41a1.69,1.69,0,0,1,.56-2.23,1.56,1.56,0,0,1,2.23,0l2.47,3.3,8.86-7.09a1.58,1.58,0,0,1,2.23,0,1.69,1.69,0,0,1-.56,2.23l-10.25,8.2A2,2,0,0,1,260.92,99.82Z" style="fill:#fff"/></svg>