<svg xmlns="http://www.w3.org/2000/svg" viewBox="0 0 478.574 424.811">
  <defs/>
  <g data-name="Group 5265">
    <path fill="none" stroke="#3498db" stroke-linecap="round" stroke-linejoin="round" stroke-width="3" d="M89.847 350.49H69.466m-8.507 0h-3.562" data-name="Path 3678"/>
    <path fill="none" stroke="#ccecff" stroke-miterlimit="10" stroke-width="5" d="M235.379 257.254c-9.6 0-17.213-2.572-24.735-8.805-16.919-14.056-19.193-22.074-25.525-41.373-.592-1.884-2.671-3.069-5.144-6.929-4.946-7.62-8.014-23.954-3.065-25.735 4.055-1.188 4.055-1.483 3.856-5.939-1.582-12.47-2.572-13.758-1.781-29 .791-15.833 12.072-27.416 23.943-36.424a41.075 41.075 0 016.432-4.055c9.5-5.048 7.716-6.038 9.1-6.038 1.288-.6.791 6.432 8.511.394 8.706-5.836 11.179-4.75 12.562-4.154 1.089.493 1.089 3.363 4.651 6.929s2.969 3.264 8.01 5.641a94.644 94.644 0 0010 3.562c14.939 4.949 28.491 17.518 30.567 35.037 1.781 14.552-1.579 22.765-2.572 28.111-.2 4.456-1.188 4.75 2.87 5.939 4.945 1.781 1.88 18.114-3.065 25.735-2.476 3.86-4.552 5.045-5.144 6.929-6.336 19.3-8.607 27.317-25.529 41.373-7.22 6.038-14.538 8.607-23.939 8.805z" data-name="Path 3679"/>
    <path fill="none" stroke="#3498db" stroke-linecap="round" stroke-linejoin="round" stroke-width="3" d="M414.644 249.045a34.942 34.942 0 01-26.71 11.977c-10.487 0-20.381-4.452-26.614-11.977l-27.8 6.535s-7.319.99-7.319 8.411c0 1.682-.1 4.651-.1 8.213l8.117 1.784s12.956 1.682 12.956 14.744c0 5.346 0 17.621.1 30.584 9.7 4.257 23.053 7.819 40.663 7.819 44.619 0 62.031-22.662 62.031-22.662s-.2-32.862-.2-40.482c0-7.422-7.422-8.411-7.422-8.411z" data-name="Path 3680"/>
    <path fill="none" stroke="#3498db" stroke-linecap="round" stroke-linejoin="round" stroke-width="3" d="M403.169 233.205c-.986 20.292 25.525 19 26.714 4.552.493-5.247-2.079-6.829-2.079-6.829s-1.086 6.535-5.836 4.85c0 0-3.658-1.284-.89-7.024s12.661-20.094 11.477-42.859c-1.189-21.477-21.371-40.383-42.639-41.766-10.984-.7-26.122 5.939-25.128 19.5 0 0-18.8-3.959-20.779 19.991a65.665 65.665 0 0010.388 40.979s4.452 5.84.592 9.107c0 0-4.353 2.668-6.329-3.963a12.744 12.744 0 00-.99 12.772c1.976 4.158 6.727 6.134 11.477 6.432 6.925.4 14.049-3.367 15.433-10.689a6.011 6.011 0 01.493-1.188 67.258 67.258 0 01-9.6-9.5c-4.548-5.839-8.408-8.018-2.966-24.348 5.439-16.433.592-19.3 2.076-26.824 1.387-7.521 11.774-6.237 11.774-6.237-1.88-3.562-8.01-3.363-8.01-3.363a5.44 5.44 0 016.329-5.545c4.751.4 5.538 4.555 5.144 8.511-2.969 30.29 20.878 23.461 29.58 34.742 4.552 5.843 4.85 14.155-.986 22.765a36.293 36.293 0 01-5.247 5.939z" data-name="Path 3681"/>
    <path fill="none" stroke="#3498db" stroke-linecap="round" stroke-linejoin="round" stroke-width="3" d="M368.348 166.792s6.13-.2 8.01 3.363c0 0-10.387-1.284-11.774 6.237-1.483 7.521 3.363 10.391-2.076 26.824-5.442 16.33-1.582 18.508 2.966 24.348s12.96 12.47 17.515 15.042c3.558 1.983 4.945 1.387 7.911-.294 2.97-1.784 12.566-7.723 17.515-15.046 5.836-8.61 5.538-16.922.986-22.765-8.7-11.282-32.55-4.452-29.58-34.742.394-3.956-.394-8.113-5.144-8.511a5.44 5.44 0 00-6.329 5.545z" data-name="Path 3682"/>
    <path fill="none" stroke="#3498db" stroke-linecap="round" stroke-linejoin="round" stroke-width="3" d="M54.033 147.887s.99 12.47 45.708 4.75c0 0 27.207-2.178 31.56 19.7a58.356 58.356 0 01-4.551 27.714s-5.836-8.71-6.531-22.372c0 0-24.635 12.275-47.883-3.165 0 0-2.572 14.251-9.5 20.686 0 0-4.85-11.285-2.969-23.063 0 0-9-7.024-5.836-24.248z" data-name="Path 3683"/>
    <path fill="none" stroke="#3498db" stroke-linecap="round" stroke-linejoin="round" stroke-width="3" d="M129.123 194.109a2.66 2.66 0 011.583.5c1.188.493-.592 20.484-6.627 20.881-9.7 36.523-48.28 38.5-57.976 0-6.034-.4-7.617-20.981-6.332-21.577a2.246 2.246 0 012.079-.3" data-name="Path 3684"/>
    <path fill="none" stroke="#3498db" stroke-linecap="round" stroke-linejoin="round" stroke-width="3" d="M121.209 249.045c-6.233 7.525-16.124 11.977-26.611 11.977-10.586 0-20.481-4.452-26.714-11.977l-29.878 6.535s-7.418.99-7.418 8.411c0 7.62-.2 40.482-.2 40.482s19.587 22.662 64.209 22.662a115.575 115.575 0 0028.094-3.363c.1-14.45.1-29.1.1-35.04 0-13.062 12.963-14.744 12.963-14.744l22.755-5.048v-4.949c0-7.422-7.422-8.411-7.422-8.411z" data-name="Path 3685"/>
    <path fill="none" stroke="#ccecff" stroke-linecap="round" stroke-linejoin="round" stroke-width="5" d="M281.68 262.401c-10.88 13.265-28.3 21.084-46.7 21.084s-35.714-7.819-46.694-21.084l-52.532 11.583s-12.963 1.682-12.963 14.744c0 13.364-.2 70.872-.2 70.872s34.231 39.687 112.386 39.687c78.258 0 112.489-39.687 112.489-39.687s-.3-57.508-.3-70.872c0-13.062-12.956-14.744-12.956-14.744z" data-name="Path 3686"/>
    <path fill="#87c9f5" fill-rule="evenodd" stroke="#ccecff" stroke-miterlimit="10" stroke-width="5" d="M234.982 422.311a62.615 62.615 0 10-62.588-62.616 62.737 62.737 0 0062.588 62.616z" data-name="Path 3687"/>
    <path fill="none" stroke="#ccecff" stroke-linecap="round" stroke-linejoin="round" stroke-width="8" d="M204.03 368.217l19.42 16.178 40.781-46.105" data-name="Path 3688"/>
    <path fill="none" stroke="#ccecff" stroke-linecap="round" stroke-linejoin="round" stroke-width="3" d="M179.482 174.015s5.836-.1 7.716 8.514" data-name="Path 3689"/>
    <path fill="none" stroke="#ccecff" stroke-linecap="round" stroke-linejoin="round" stroke-width="3" d="M290.882 174.015s-6.137-.394-8.014 7.425" data-name="Path 3690"/>
    <path fill="none" stroke="#ccecff" stroke-linecap="round" stroke-linejoin="round" stroke-width="5" d="M202.928 103.048c-11.87 9.007-23.152 20.591-23.943 36.424-.791 15.244.2 16.532 1.781 29 .2 3.562.2 4.456-1.88 5.247.2.1.4.2.6.294 0 0 3.757 0 6.134 4.257-1.288-12.076-3.76-60.079 17.015-47.411 5.243 3.168 31.659 21.875 31.659 21.875l-7.223-19.6 36.906 10.888 7.716-16.135s7.12 2.079 11.572 12.275c4.254 9.6 1.682 32.858-.1 39.986 2.278-6.531 7.72-6.138 7.72-6.138l.493-.195c-2.079-.891-1.384-1.685-1.189-5.346.994-5.346 4.353-13.559 2.572-28.111-2.075-17.518-15.627-30.088-30.567-35.037a94.618 94.618 0 01-10-3.562c-5.041-2.377-4.449-2.079-8.011-5.641s-3.562-6.435-4.651-6.929c-1.383-.6-3.856-1.682-12.562 4.154-7.72 6.038-7.223-.99-8.511-.394-1.383 0 .4.99-9.1 6.038a41.075 41.075 0 00-6.432 4.055z" data-name="Path 3691"/>
    <path fill="none" stroke="#3498db" stroke-linecap="round" stroke-linejoin="round" stroke-width="3" d="M359.444 360.586h90.327m14.641 0h12.662" data-name="Path 3692"/>
    <path fill="none" stroke="#3498db" stroke-linecap="round" stroke-linejoin="round" stroke-width="3" d="M125.959 385.335h-24.734m-11.576 0H78.963m-11.477 0H1.5" data-name="Path 3693"/>
    <path fill="none" stroke="#3498db" stroke-linecap="round" stroke-linejoin="round" stroke-width="3" d="M360.529 394.738a9.354 9.354 0 100-18.707 9.354 9.354 0 000 18.707z" data-name="Path 3694"/>
    <path fill="none" stroke="#87c9f5" stroke-miterlimit="10" stroke-width="3" d="M347.964 120.075l-.89-5.839 4.153-4.161a2.151 2.151 0 00-1.185-3.761l-5.836-.99-2.671-5.148a2.157 2.157 0 00-3.956-.1l-2.771 5.247-5.74.99a2.177 2.177 0 00-1.287 3.762l4.158 4.158-.89 5.74a2.153 2.153 0 003.168 2.377l5.339-2.572 5.147 2.572a2.174 2.174 0 003.261-2.275z" data-name="Path 3695"/>
    <path fill="none" stroke="#3498db" stroke-linecap="round" stroke-linejoin="round" stroke-width="3" d="M158.508 238.943a4.7 4.7 0 10-4.651-4.647 4.793 4.793 0 004.651 4.647z" data-name="Path 3696"/>
    <path fill="none" stroke="#87c9f5" stroke-miterlimit="10" stroke-width="3" d="M38.601 359.103l-.89-5.84 4.158-4.158a2.152 2.152 0 00-1.189-3.76l-5.836-.99-2.671-5.247a2.184 2.184 0 00-3.959 0l-2.771 5.247-5.737.89a2.184 2.184 0 00-1.288 3.761l4.158 4.257-.89 5.74a2.152 2.152 0 003.165 2.377l5.343-2.671 5.144 2.671a2.174 2.174 0 003.264-2.277z" data-name="Path 3697"/>
    <path fill="none" stroke="#87c9f5" stroke-linecap="round" stroke-linejoin="round" stroke-width="3" d="M112.698 69.299v-2.572c0-3.267 2.87-4.952 6.034-6.042l8.9-3.065 1.781 1.384 4.254 3.565 4.353-3.565 1.583-1.284 9.1 2.966c3.164 1.089 6.034 2.774 6.034 6.042V69.3" data-name="Path 3698"/>
    <path fill="none" stroke="#87c9f5" stroke-linecap="round" stroke-linejoin="round" stroke-width="3" d="M133.674 53.562a12.917 12.917 0 10-12.86-12.867 12.922 12.922 0 0012.86 12.867z" data-name="Path 3699"/>
    <path fill="none" stroke="#87c9f5" stroke-linecap="round" stroke-linejoin="round" stroke-width="3" d="M133.678 87.115a34.3 34.3 0 10-34.231-34.348 34.421 34.421 0 0034.231 34.348z" data-name="Path 3700"/>
    <g fill="none" stroke="#87c9f5" stroke-linecap="round" stroke-linejoin="round" stroke-width="3" data-name="Group 5268">
      <g data-name="Group 5267">
        <path d="M134.169 10.803v7.721" data-name="Line 748"/>
        <path d="M134.169 10.802a4.651 4.651 0 10-4.648-4.651 4.646 4.646 0 004.648 4.651z" data-name="Path 3701"/>
      </g>
      <path d="M175.721 53.264h-7.715" data-name="Line 749"/>
      <path d="M185.02 53.264a4.649 4.649 0 11-4.647-4.651 4.644 4.644 0 014.647 4.651z" data-name="Path 3702"/>
      <path d="M133.28 94.736v-7.622" data-name="Line 750"/>
      <path d="M133.278 104.141a4.73 4.73 0 01-4.747-4.655 4.815 4.815 0 014.747-4.75 4.732 4.732 0 014.651 4.75 4.648 4.648 0 01-4.651 4.655z" data-name="Path 3703"/>
      <path d="M91.728 52.374h7.715" data-name="Line 751"/>
      <path d="M82.425 52.373a4.652 4.652 0 119.3 0 4.651 4.651 0 01-9.3 0z" data-name="Path 3704"/>
    </g>
    <g fill="#87c9f5" data-name="Group 5266">
      <path d="M156.727 27.331l2.475-2.472 2.472 2.474-2.475 2.473z" data-name="Rectangle 818"/>
      <path d="M161.672 22.384l2.474-2.474 2.474 2.474-2.474 2.474z" data-name="Rectangle 819"/>
      <path d="M168.795 15.259l-2.175 2.177 2.375 2.476 2.274-2.178z" data-name="Path 3705"/>
      <path d="M156.727 78.306l2.472-2.475 2.475 2.473-2.472 2.474z" data-name="Rectangle 820"/>
      <path d="M166.619 83.156l-2.474 2.474-2.474-2.474 2.474-2.377z" data-name="Path 3706"/>
      <path d="M171.269 87.905l-2.274-2.276-2.375 2.473 2.175 2.179z" data-name="Path 3707"/>
      <path d="M105.776 78.305l2.474-2.473 2.473 2.473-2.474 2.474z" data-name="Rectangle 821"/>
      <path d="M103.302 85.63l-2.474-2.375 2.474-2.475 2.474 2.377z" data-name="Path 3708"/>
      <path d="M98.653 90.282l2.176-2.179-2.474-2.473-2.176 2.276z" data-name="Path 3709"/>
      <path d="M105.777 27.333l2.473-2.474 2.474 2.474-2.473 2.473z" data-name="Rectangle 822"/>
      <path d="M100.829 22.384l2.474-2.474 2.474 2.474-2.474 2.474z" data-name="Rectangle 823"/>
      <path d="M96.179 17.731l2.475-2.473 2.176 2.177-2.475 2.473z" data-name="Rectangle 824"/>
    </g>
    <path fill="none" stroke="#3498db" stroke-linecap="round" stroke-linejoin="round" stroke-width="3" d="M208.469 68.605V55.244" data-name="Line 752"/>
    <path fill="none" stroke="#3498db" stroke-linecap="round" stroke-linejoin="round" stroke-width="3" d="M201.84 61.974h13.257" data-name="Line 753"/>
  </g>
</svg>