<?xml version="1.0" encoding="utf-8"?>
<!-- Generator: Adobe Illustrator 25.2.3, SVG Export Plug-In . SVG Version: 6.00 Build 0)  -->
<svg version="1.1" id="Layer_1" xmlns="http://www.w3.org/2000/svg" xmlns:xlink="http://www.w3.org/1999/xlink" x="0px" y="0px"
	 viewBox="0 0 297 297" style="enable-background:new 0 0 297 297;" xml:space="preserve">
<style type="text/css">
	.st0{fill:#7BC9D2;}
</style>
<g>
	<path class="st0" d="M114.8,182.9l6.5-3.7c2.6-1.5,3.5-4.9,2-7.5L111,150.4c-1-1.8-2.9-2.8-4.8-2.8c-0.9,0-1.9,0.2-2.7,0.7L97,152
		c-0.9,0.5-1.8,0.7-2.7,0.7c-2.9,0-5.5-2.3-5.5-5.5v-7.5c0-3-2.5-5.5-5.5-5.5H58.8c-3,0-5.5,2.5-5.5,5.5v7.5c0,3.2-2.6,5.5-5.5,5.5
		c-0.9,0-1.9-0.2-2.7-0.7l-6.5-3.7c-0.9-0.5-1.8-0.7-2.7-0.7c-1.9,0-3.8,1-4.8,2.8l-12.2,21.2c-1.5,2.6-0.6,6,2,7.5l6.5,3.7
		c3.7,2.1,3.7,7.4,0,9.5l-6.5,3.7c-2.6,1.5-3.5,4.9-2,7.5L31,224.9c1,1.8,2.9,2.8,4.8,2.8c0.9,0,1.9-0.2,2.7-0.7l6.5-3.7
		c0.9-0.5,1.8-0.7,2.7-0.7c2.9,0,5.5,2.3,5.5,5.5v7.5c0,3,2.5,5.5,5.5,5.5h24.5c3,0,5.5-2.5,5.5-5.5v-7.5c0-3.2,2.6-5.5,5.5-5.5
		c0.9,0,1.9,0.2,2.7,0.7l6.5,3.7c0.9,0.5,1.8,0.7,2.7,0.7c1.9,0,3.8-1,4.8-2.8l12.2-21.2c1.5-2.6,0.6-6-2-7.5l-6.5-3.7
		C111.1,190.3,111.1,185,114.8,182.9z M71,204c-9,0-16.3-7.3-16.3-16.3S62,171.4,71,171.4s16.3,7.3,16.3,16.3S80.1,204,71,204z"/>
	<path class="st0" d="M110.6,31.2c-3-3-7.7-3-10.7,0s-3,7.7,0,10.7l13.5,13.5c-49.7,2.5-89.9,41.5-94.3,90.7l1.1-1.9
		c3.2-5.5,9.2-9,15.6-9c0.1,0,0.3,0,0.4,0c8.5-35.4,39.4-62.2,76.9-64.6L99.9,83.8c-3,3-3,7.7,0,10.7c1.5,1.5,3.4,2.2,5.3,2.2
		s3.9-0.7,5.3-2.2l26.3-26.3c1.4-1.4,2.2-3.3,2.2-5.3c0-2-0.8-3.9-2.2-5.3C136.9,57.5,110.6,31.2,110.6,31.2z"/>
	<path class="st0" d="M206.1,69.9c16.8,0,30.5-13.7,30.5-30.5S222.9,8.9,206.1,8.9s-30.5,13.7-30.5,30.5S189.4,69.9,206.1,69.9
		L206.1,69.9z"/>
	<path class="st0" d="M265.5,152v-41.9c0-11.6-7.4-21.9-18.5-25.5h-0.1l-16-2.6c-1.4-0.4-2.8,0.3-3.3,1.7l-18.3,50.2
		c-1.1,2.9-5.1,2.9-6.2,0l-18.3-50.2c-0.4-1.1-1.4-1.8-2.5-1.8c-0.3,0-16.9,2.8-16.9,2.8c-11.1,3.7-18.5,14-18.5,25.6V152
		c0,6.3,5.1,11.3,11.3,11.3h96C260.4,163.4,265.5,158.3,265.5,152z"/>
	<path class="st0" d="M279,162.1c-0.6,8.7-7.7,14-16.4,14.6c-6.6,38-38.7,67.3-77.9,69.7l13.2-13.2c3-3,3-7.7,0-10.7s-7.7-3-10.7,0
		l-26.3,26.3c-3,3-3,7.7,0,10.7l26.3,26.3c1.5,1.5,3.4,2.2,5.3,2.2s3.9-0.7,5.3-2.2c3-3,3-7.7,0-10.7l-13.5-13.5
		C236.9,259,279,215.3,279,162.1L279,162.1z"/>
	<path class="st0" d="M212.8,81.4c-0.7-0.8-1.7-1.1-2.8-1.1h-7.7c-1,0-2.1,0.4-2.8,1.1c-1.1,1.2-1.2,2.9-0.5,4.2l4.1,6.2l-1.9,16.4
		l3.8,10.2c0.4,1,1.8,1,2.2,0l3.8-10.2l-1.9-16.4l4.1-6.2C214,84.3,213.9,82.6,212.8,81.4z"/>
</g>
</svg>
