<?xml version="1.0" encoding="utf-8"?>
<!-- Generator: Adobe Illustrator 25.2.3, SVG Export Plug-In . SVG Version: 6.00 Build 0)  -->
<svg version="1.1" id="Capa_1" xmlns="http://www.w3.org/2000/svg" xmlns:xlink="http://www.w3.org/1999/xlink" x="0px" y="0px"
	 viewBox="0 0 520.1 520.1" style="enable-background:new 0 0 520.1 520.1;" xml:space="preserve">
<style type="text/css">
	.st0{fill:#7BC9D2;}
</style>
<g>
	<g>
		<circle class="st0" cx="103.2" cy="66.8" r="55.8"/>
		<path class="st0" d="M416.8,11c30.8,0,55.8,25,55.8,55.8s-25,55.8-55.8,55.8S361,97.6,361,66.8S386,11,416.8,11z"/>
		<path class="st0" d="M458.7,116.8c-11,10.3-25.7,16.6-41.9,16.6c-16.2,0-30.9-6.3-41.9-16.6c-23.8,6.3-42.7,24.5-50,47.9
			c-20.5-3.8-42.4-5.8-65-5.8s-44.4,2.1-65,5.8c-7.3-23.3-26.2-41.6-50-47.9c-11,10.2-25.7,16.6-41.9,16.6s-30.9-6.3-41.9-16.6
			c-30.6,8.1-53.2,35.9-53.2,69v57.9l0.1,0.9l4,1.2c12.4,3.9,24.3,6.8,35.6,9.2c-5.2,11.2-8.1,23-8.1,35.1
			c0,52.6,52.1,98,127.1,118.9c-2.8,7.6-4.3,15.8-4.3,24.3v57.9l0.1,0.9l4,1.2C204,505,236.6,509,263.5,509
			c52.5,0,82.9-15,84.8-15.9l3.7-1.9h0.4v-57.9c0-8.1-1.4-15.9-3.9-23.2c77.3-20.4,131.3-66.5,131.3-120.1c0-11.6-2.6-22.8-7.3-33.5
			c21.6-4.5,33.7-10.4,34.9-11l3.7-1.9h0.4v-57.9C511.9,152.7,489.3,124.8,458.7,116.8z M465,290.1c0,47.4-50.5,88.3-122.6,106.3
			c-9.5-15.5-24.7-27.2-42.8-32c-11,10.2-25.7,16.6-41.9,16.6s-30.9-6.3-41.9-16.6c-17.7,4.7-32.6,15.9-42.2,31
			C103.6,376.9,55,336.7,55,290.1c0-11.2,2.9-22.1,8.2-32.4c16.8,2.6,32.3,3.7,46.2,3.7c52.5,0,82.9-15,84.8-15.9l3.7-1.9h0.4v-57.9
			c0-2.1-0.1-4.2-0.3-6.3c19.6-3.5,40.4-5.4,62-5.4c21.6,0,42.4,1.9,62,5.4c-0.2,2.1-0.3,4.2-0.3,6.3v57.9l0.1,0.9l4,1.2
			c37.6,11.7,70.2,15.7,97.1,15.7c12.9,0,24.4-0.9,34.6-2.3C462.4,269,465,279.4,465,290.1z"/>
		<circle class="st0" cx="257.7" cy="314.4" r="55.8"/>
	</g>
</g>
</svg>
