<?xml version="1.0" encoding="utf-8"?>
<!-- Generator: Adobe Illustrator 25.2.3, SVG Export Plug-In . SVG Version: 6.00 Build 0)  -->
<svg version="1.1" id="Layer_1" xmlns="http://www.w3.org/2000/svg" xmlns:xlink="http://www.w3.org/1999/xlink" x="0px" y="0px"
	 viewBox="0 0 512 512" style="enable-background:new 0 0 512 512;" xml:space="preserve">
<style type="text/css">
	.st0{fill:#7BC9D2;}
	.st1{fill:#002659;}
	.st2{fill:#39326C;}
	.st3{fill:#5F55AE;}
	.st4{fill:#918EDD;}
</style>
<path class="st0" d="M418.8,285.3c-2.4,6.9-5.2,13.6-8.4,20.2l27.9,45.4l-51.9,55.6H256V14.7h43.2l12.4,52.2
	c6.9,2.4,13.6,5.2,20.2,8.4l45.7-28.1l61.1,61.1l-28.1,45.7c3.2,6.6,6,13.3,8.4,20.2l52.2,12.4v86.3L418.8,285.3z"/>
<path class="st0" d="M256,14.7v391.8H130.8l-57.5-55.1l28.3-45.9c-3.2-6.6-6-13.3-8.4-20.2L41,272.9v-86.3l52.2-12.4
	c2.4-6.9,5.2-13.6,8.4-20.2l-28.1-45.7l61.1-61.1l45.7,28.1c6.6-3.2,13.3-6,20.2-8.4l12.4-52.2H256z"/>
<path class="st1" d="M404.1,433.9v63.4H256V301.4h15.6c45.4,0,87.1,22.8,111.6,61.1C396.9,383.8,404.1,408.5,404.1,433.9z"/>
<path class="st2" d="M256,301.4v195.9H107.9v-63.4c0-25.4,7.2-50.1,20.9-71.4c24.5-38.3,66.2-61.1,111.6-61.1H256z"/>
<path class="st3" d="M351,233.9c0,52.4-42.6,95-95,95V138.9C308.4,138.9,351,181.5,351,233.9z"/>
<path class="st4" d="M256,138.9v189.9c-52.4,0-95-42.6-95-95C161,181.5,203.6,138.9,256,138.9z"/>
</svg>
