<?xml version="1.0" encoding="utf-8"?>
<!-- Generator: Adobe Illustrator 25.2.3, SVG Export Plug-In . SVG Version: 6.00 Build 0)  -->
<svg version="1.1" id="Layer_1" xmlns="http://www.w3.org/2000/svg" xmlns:xlink="http://www.w3.org/1999/xlink" x="0px" y="0px"
	 viewBox="0 0 1199 1192" style="enable-background:new 0 0 1199 1192;" xml:space="preserve">
<style type="text/css">
	.st0{fill:#E7F3FD;}
	.st1{fill:#CDE0F5;}
	.st2{opacity:0.5;fill:#A3C5E9;enable-background:new    ;}
	.st3{fill:#FFFFFF;}
	.st4{fill:#313C60;}
	.st5{fill:#4577BB;}
	.st6{fill:#3F6CAC;}
	.st7{fill:#F19A5A;}
	.st8{fill:#A5DAEE;}
	.st9{fill:#97D0E0;}
	.st10{fill:#E38540;}
	.st11{fill:#F5DD95;}
	.st12{fill:#ABCCED;}
	.st13{fill:#95BAE3;}
	.st14{fill:#77A0D5;}
	.st15{fill:#2F5C9B;}
	.st16{fill:#6791C9;}
	.st17{fill:#EE726A;}
	.st18{fill:#D54B41;}
	.st19{fill:#F2E5DE;}
	.st20{fill:#A86B49;}
	.st21{fill:#7B4F35;}
	.st22{fill:#74B570;}
	.st23{fill:#9ECD98;}
	.st24{opacity:0.5;fill:#FFFFFF;enable-background:new    ;}
	.st25{fill:#96BBE4;}
	.st26{fill:#A3C5E9;}
	.st27{fill:#F39993;}
	.st28{fill:#1D1D1B;}
	.st29{font-family:'ArialMT';}
	.st30{font-size:12.91px;}
	.st31{clip-path:url(#SVGID_2_);}
	.st32{fill:#F6B6B4;}
</style>
<path class="st0" d="M136.9,294c179.7-65.9,362.3-7.6,486.2,119.3s383.8-87.6,521.6,39.1c94.1,86.5,51,308.8-78,405
	c-175.3,130.9-828.5,134.8-936.9,89.9c-185.2-76.7-1.2-218.8-87.6-355.1C-59.9,431.5,57.5,323.1,136.9,294z"/>
<path class="st1" d="M1148.3,909.4c-89.9-4.3-395.9,3-489,5.9s-201.1-3.8-257.2-13.6s-380.4,0.8-365.7,27.1s144.5,11.8,291.7,22.3
	s478.2-1.3,552.8,0s143.1-2.7,239.3-7.9S1200.4,911.9,1148.3,909.4z"/>
<path class="st2" d="M953.2,330.3c0.4-3.2,0.5-6.4,0.5-9.6c0-1.7-0.1-3.4-0.2-5.1l-16-5.1c-1-6.5-2.9-12.9-5.7-18.9l10.6-12.9
	c-2.5-4.3-5.3-8.3-8.4-12.1l-16,5.1c-4.7-4.7-10-8.8-15.8-12l0.9-16.6c-4.5-2-9.2-3.7-14-4.9l-9.9,13.5c-6.6-1.1-13.3-1.3-20-0.5
	l-9.2-14c-4.8,1-9.6,2.4-14.2,4.1V258c-6,2.9-11.5,6.7-16.5,11.2l-15.7-6c-3.3,3.6-6.3,7.5-9,11.6l9.9,13.4
	c-3.1,5.9-5.4,12.1-6.7,18.6l-16.2,4.3c-0.4,3.2-0.5,6.4-0.5,9.6c0,1.7,0.1,3.4,0.2,5.1l16,5.1c1,6.6,2.9,12.9,5.7,18.9l-10.6,12.9
	c2.4,4.3,5.3,8.3,8.4,12.1l16-5.2c4.7,4.7,10,8.8,15.8,12l-0.9,16.6c4.5,2,9.2,3.7,14,4.9l9.9-13.5c6.6,1.1,13.3,1.3,20,0.5l9.2,14
	c4.8-1,9.6-2.3,14.2-4.1v-16.6c6-2.9,11.5-6.7,16.5-11.2l15.7,6c3.3-3.6,6.3-7.5,9-11.6l-9.9-13.4c3.1-5.9,5.4-12.1,6.7-18.6
	L953.2,330.3z M867.5,354.1c-18.5-0.2-33.2-15.4-33-33.8c0.2-18.5,15.4-33.2,33.8-33c18.3,0.2,33,15.1,33,33.4
	C901.2,339.3,886.1,354.2,867.5,354.1z"/>
<path class="st3" d="M913.7,359.3c-0.4,0-0.8-0.1-1.1-0.4c-0.7-0.6-0.8-1.7-0.3-2.4c0,0,0,0,0,0c12.6-15,16.4-35.5,10-54
	c-0.3-0.9,0.2-1.9,1-2.2c0,0,0,0,0,0c0.9-0.3,1.9,0.2,2.2,1.1c6.8,19.6,2.8,41.4-10.6,57.3C914.7,359.1,914.2,359.3,913.7,359.3z"/>
<path class="st3" d="M908.8,280.4c-0.4,0-0.9-0.2-1.2-0.5c-5.6-5.2-12.3-9.3-19.5-11.9c-0.9-0.3-1.3-1.3-1-2.2c0,0,0,0,0,0
	c0.3-0.9,1.3-1.3,2.2-1c7.7,2.7,14.7,7,20.7,12.6c0.7,0.6,0.7,1.7,0.1,2.4c0,0,0,0,0,0C909.7,280.3,909.2,280.5,908.8,280.4z"/>
<path class="st3" d="M854.4,266.5c-0.8,0-1.5-0.5-1.7-1.3c-0.2-0.9,0.3-1.9,1.2-2.1c0,0,0,0,0,0c4.8-1.2,9.8-1.8,14.8-1.8
	c0.9,0,1.7,0.8,1.7,1.7s-0.8,1.7-1.7,1.7l0,0c-4.7,0-9.4,0.6-13.9,1.7C854.7,266.5,854.5,266.5,854.4,266.5z"/>
<rect x="276.5" y="237.5" class="st2" width="538.9" height="319.8"/>
<rect x="302.7" y="245.3" class="st3" width="507" height="293.6"/>
<path class="st4" d="M735.1,397c24.2-22.7,65.5-22.2,64.6,12.4s2,37.9,12,56c34.5,63-41.1,59.3-72.7,61.3s-29-56.6-23.4-89.2
	S728,403.7,735.1,397z"/>
<path class="st5" d="M746.3,595.4c-7.7,64.3-21.8,111.8-23.4,142.2s-7.8,150.4-7.8,150.4s17.2-1.2,18.8-3.8s32.4-70.2,30.8-112
	s30.8-105.4,30.8-105.4l-7.8-62.4L746.3,595.4z"/>
<path class="st6" d="M753.8,623.4l-12.1,5c-3.3,20.4-7,38.7-10.2,55c19.3,12.3,29.2,53.3,33.5,78.4c2.2-28.1,15.6-62,23.9-80.7
	L753.8,623.4z"/>
<path class="st5" d="M809.7,588.9c0,0,26.1,32.9,25.3,70.2c-1.2,56.8-7.5,73,3.4,132.6c4.3,23.3-9.4,99.4-9.4,99.4s-11.7,0.9-18-2.2
	c0.5-5.6-7.5-96.6-23.3-138.4c-7.6-20.2-18.3-77-24.1-109.5s-6.8-39.2-4.7-39.2S809.7,588.9,809.7,588.9z"/>
<path class="st7" d="M661,497.5c0,0,1.2-17-0.7-22.3s-17.9-9.9-17.9-9.9s-0.7,24.3,0.9,27.3s11.2,11.5,11.2,11.5L661,497.5z"/>
<path class="st8" d="M751.1,485.1c-36.7,39-48.7,55.5-51.5,55.5c-8.7-15.2-37.6-47.3-37.6-47.3l-12.3,7.8c0,0,28.5,73.6,46.6,74.4
	s55-25.4,55.4-28.4S751.1,485.1,751.1,485.1z"/>
<path class="st9" d="M712.8,571.6c18-7.2,38.5-22.3,38.9-24.6c0.5-3-0.6-61.9-0.6-61.9c-8,8.5-15,16-21,22.7
	C723.5,532,723.9,558.3,712.8,571.6z"/>
<path class="st8" d="M788.4,459.4c0,0,35.1,17.4,42.8,48.2s-15,68.8-17.8,89.1s-66.9,23.9-66.9,2.1c0-20.8-16.1-65-15.2-76.3
	c2.1-26.4,41.2-58.8,41.2-58.8L788.4,459.4z"/>
<path class="st7" d="M778.2,419.6l15.1,45.9c0,0-16.1,12.3-43.7,41.8c1.1-19.7,17.7-41.1,17.7-41.1l-11.4-43.4L778.2,419.6z"/>
<path class="st10" d="M785.2,441l-7-21.4l-22.2,3.3l11.4,43.4c0,0-1.1,1.8-2.8,4.5C774.8,463.6,782,453,785.2,441z"/>
<path class="st7" d="M769.9,429.9c-4.1,14.6-19.8,22.7-31,19.6s-13.6-16-9.5-30.6s16.4-24,27.6-21S773.9,415.3,769.9,429.9z"/>
<path class="st8" d="M743.7,578.3c4.9,30.6-13.2,96-13.2,96s10.8,2.4,43.2-0.7s46.7-35,51.6-35.9s7.4,29.7,9.8,32.2
	s2.8-38.7-3.5-54.8c-11.2-28.6-9-40.8-4.8-58.2C834.1,526,743.7,578.3,743.7,578.3z"/>
<path class="st5" d="M715.9,873c2.9,11.7-2.8,21-10.6,27.8c-6.3,5.5-25.5,7.8-24.6,10.6s23.7,3.6,31.4,2.5s9.8-4.8,19.3-4.8
	c6.2,0,7.4-5,4.6-11.2s-3.8-9.7-1.2-15.2S715.9,873,715.9,873z"/>
<path class="st5" d="M829.7,873c-0.5,12.2-1.9,21.2,1.1,26.9c11.7,9.6,21.4,20.6,17.7,21.3c-17.7,3.6-24.4-6.8-34.4-9.8
	c-12.3-3.7,1.2-18.9-3.7-38.4c-2.7-10.8,18.5-8.2,18.5-8.2L829.7,873z"/>
<path class="st9" d="M834.1,624.9c-0.6-3.4-1.4-6.8-2.6-10c-11.2-28.6-9-40.8-4.8-58.2c0.3-1.2,0.4-2.4,0.4-3.6
	c0.9-3.1,1.8-6.2,2.6-9.4l-3.8-33.8l-27.3-32c-20.5,29.6-6.6,66.5-9.7,86.8S751.5,611,751.5,611l1.1,7.2
	c1.6,9.9,10.9,16.8,20.8,15.4c14.1-1.9,32.7-5.8,40.9-13.4C822.4,612.9,829.4,618.5,834.1,624.9z"/>
<path class="st7" d="M759.6,609.8c0,0-15.1,4.2-16.9,5.2s-2.8,5.9-2.8,5.9s-8.7,7.4-5.3,10.1s9.2,9.3,17.1,6.2
	c4.8-1.9,8.5-19.3,11.7-19.5S759.6,609.8,759.6,609.8z"/>
<path class="st8" d="M802.4,474.1c16.2,0.5,30.9,29.3,36,54.3s10.5,60.5,10.5,60.5s-26.8,20.9-53.3,27c-23.1,5.3-34.9,7.4-34.9,7.4
	l-4.7-13l55.3-32.1c0,0-20.3-37.9-22.4-66.5S790.1,473.8,802.4,474.1z"/>
<polygon class="st11" points="651.8,485 611.4,493 606.3,467.7 646.7,459.7 "/>
<path class="st7" d="M651.2,495.5c0.6-10.5-4.7-24.8-7.7-24.7s0.9,9.4-0.7,15.6C642,489.7,651.2,495.5,651.2,495.5z"/>
<path class="st4" d="M732.3,402.5c0.9,28.7,34.8,26.5,44.1,24.7s-11.3,60.5,6.4,64.1c13,2.6,10.1-17.4,24.5-16.1
	c6.4,0.6,12.8,10.3,12.8,10.3c-0.8-4-2.9-7.6-5.8-10.3c-4.9-4.3-17.7-31-21-50s-26.1-31.4-32.9-31.8s-23.2,7.2-23.2,7.2L732.3,402.5
	z"/>
<path class="st4" d="M782.5,497.9c-0.5,0-0.9-0.1-1.4-0.2c-5.7-1.2-8.4-7.1-8.7-18.5c-0.2-9.8,1.5-22.4,3.2-35.7
	c0.7-5.4,1.4-11,2-16.3c0.1-0.5,0.5-0.8,1-0.7c0.5,0.1,0.8,0.5,0.7,0.9c-0.6,5.4-1.3,11-2,16.4c-3.4,25.8-6.5,50.1,4.1,52.4
	c0.3,0.1,0.7,0.1,1,0.1c6.1,0,11.7-11.8,14.9-23.3c0.1-0.4,0.6-0.7,1-0.6c0.4,0.1,0.7,0.6,0.6,1
	C796.8,480.9,791.1,497.9,782.5,497.9z"/>
<path class="st4" d="M780.2,504.5c-1.9,0-3.7-0.8-5-2.2c-11.6-12.1-0.1-72.7,0.4-75.2c0.1-0.5,0.5-0.8,1-0.7c0,0,0,0,0,0
	c0.5,0.1,0.8,0.5,0.7,1c0,0,0,0,0,0c-0.1,0.6-11.8,62.3-0.8,73.8c1.2,1.3,2.9,1.9,4.6,1.6c6-0.8,9.5-8.8,12.5-15.9
	c3-6.9,5.8-13.4,10.7-13.2c0.5,0,0.9,0.3,0.9,0.8s-0.3,0.9-0.8,0.9c-0.1,0-0.1,0-0.2,0h-0.1c-3.7,0-6.3,5.9-9,12.2
	c-3.2,7.5-6.9,16-13.9,16.9C780.9,504.5,780.6,504.5,780.2,504.5z"/>
<path class="st7" d="M777.7,432.8c-2.4,3-6.1,4.1-8.4,2.4s-2.1-5.6,0.3-8.6s6.1-4.1,8.4-2.4S780.1,429.7,777.7,432.8z"/>
<path class="st4" d="M514.1,539c8.3,16.4,1.4,35.2-14.9,41.9s-34.3,2.9-42.6-13.5s-2.1-36,13.7-43.8S505.9,522.6,514.1,539z"/>
<path class="st4" d="M469.5,582.8c-1.8,0-5.4-0.6-10-4.7c-4-3.8-6.7-8.8-7.6-14.2c-1.4-7.4-0.5-16,2.8-25.3c0.2-0.4,0.6-0.7,1.1-0.5
	c0.4,0.2,0.7,0.6,0.5,1.1c0,0,0,0,0,0c-3.2,9.1-4.1,17.4-2.7,24.5c0.8,5.1,3.3,9.7,7,13.3c5.8,5.1,9.7,4.2,9.8,4.2
	c0.4-0.1,0.9,0.2,1,0.6c0.1,0.4-0.1,0.9-0.6,1C470.4,582.8,469.9,582.8,469.5,582.8z"/>
<path class="st12" d="M494.8,602.7c9.4,2.1,21.3,28,27.2,44.5s15.8,37.5,22.4,43.9s49.4,21.4,49.4,21.4s-105.9,0.2-103.7,0
	S494.8,602.7,494.8,602.7z"/>
<path class="st13" d="M551,704.2c-5.8-0.8-26.7,1.8-17.8-1.8s7.7-8.4,7.7-8.4s-12.6,10.4-14.9,1.3c-2-7.9-2.7-35.6-10.2-63.5
	c-6.1-13.8-14.2-27.6-21-29.1c0,0-0.2,9.8-0.6,23.5c2.6,30.4,7,75.1,8.1,86.3c14,0,37.5,0,57.2,0l13.1-0.6
	C572.5,711.9,556.8,705,551,704.2z"/>
<path class="st12" d="M460.2,596.9c0,0-30,16.5-37,20.1s19.6,106.8,25.5,111.2s57.9,0.8,63.9-4.8s-4.5-22.7,0.6-57
	s-15.6-63.9-18.3-63.8s-20.1-5.7-20.1-5.7L460.2,596.9z"/>
<path class="st13" d="M448.7,728.2c5.9,4.4,43.1,4.5,59-0.3c1.8-0.5,9.9-3.8,10.1-6.8c-1.9-0.4-9.5,0.5-12.6-0.2
	c-10.7-2.4-16.6-15.5-16.6-15.5s-5.9-2.1-19.1-7.6s-7.8-22.2-8.1-29.6s-13-31.5-37-49.7l-2.2,1C420.5,636.2,443.2,724.1,448.7,728.2
	z"/>
<path class="st14" d="M654.7,647.2h-72.2l-32.9,69.1h79.5l29.8-62.6c1.1-2.3,0.1-5-2.2-6.1C656,647.3,655.3,647.2,654.7,647.2z"/>
<path class="st6" d="M553.9,717.3h-43.4c-2.7,0-4.8-2.2-4.8-4.8s2.2-4.8,4.8-4.8l0,0h40.3l27.3-58c1.2-2.4,4-3.5,6.5-2.3
	c2.4,1.1,3.5,3.9,2.4,6.4c0,0,0,0,0,0l-28.6,60.8C557.5,716.2,555.8,717.3,553.9,717.3z"/>
<path class="st7" d="M478.6,702.5c18.8,3.5,23.5,7.8,33.7,9.4c11.7,1.8,10.3,4.4,1.6,4.4s-30.4,0.3-37.8-1.3
	S478.6,702.5,478.6,702.5z"/>
<path class="st12" d="M420.9,618.9c-14.4,45.6-34.9,97.4-31.6,97.4s86.2,3.3,89.4,0.5s2.3-13.3,1.9-14.7s-47.1-9.6-47.1-9.6
	s6.1-11.8,8.5-35S423.6,610.3,420.9,618.9z"/>
<path class="st7" d="M471.1,557.3l-11.6,42c0,0,19.6,30.3,25.1,27.6s-3-24.6-3-27.6s8.4-33.8,8.4-33.8L471.1,557.3z"/>
<path class="st10" d="M482,601.4c-0.2-0.7-0.3-1.4-0.4-2.1c0-3,8.4-33.8,8.4-33.8l-18.8-8.2l-3.9,13.9
	C469.8,582.3,474.8,592.6,482,601.4z"/>
<path class="st7" d="M514.7,556.6c2.2,12.2,0.8,28.4-10.2,32.5s-24.1-3.8-29.5-17.6s-0.8-28.4,10.2-32.5S512,542,514.7,556.6z"/>
<path class="st7" d="M477.6,563.4c1.5,4.2,0.2,8.6-3,9.7s-7-1.4-8.5-5.7s-0.2-8.6,3-9.7S476.1,559.2,477.6,563.4z"/>
<path class="st4" d="M514.8,541.3c-3.7,28.6-38.9,24.9-38.9,24.9s-7.2-9.4-10.5-4.5s4.5-29,24.7-30
	C496.7,531.3,514.8,541.3,514.8,541.3z"/>
<ellipse class="st4" cx="460" cy="529.2" rx="19" ry="17.6"/>
<polygon class="st15" points="422.1,924 426.5,924 454.6,795.3 445,795.3 "/>
<polygon class="st15" points="557.5,924 553.1,924 520.4,790.8 530,790.8 "/>
<path class="st15" d="M471.8,800.1c-17.4,0-28.5-3.1-35.5-9.9c-8.7-8.4-10.5-21.4-10.6-38.4c0-13.4-0.3-22.1-1.1-29.1
	c-0.3-2.7,1.7-5.1,4.4-5.4c2.7-0.3,5.1,1.7,5.4,4.4c0.8,7.4,1.1,16.4,1.1,30.1c0,17.2,2.2,26.3,7.6,31.5s15.5,7.5,32.4,7.1
	c12.3-0.3,24.5-1.8,36.5-4.4c11.8-2.4,20.4-4.1,30.6,0.7c2.4,1.1,3.4,4,2.3,6.4c0,0,0,0,0,0.1c-1.2,2.4-4.1,3.4-6.5,2.3
	c-7.2-3.4-13.3-2.2-24.4,0c-12.6,2.8-25.4,4.3-38.2,4.7C474.4,800.1,473.1,800.1,471.8,800.1z"/>
<path class="st15" d="M432.2,716.9l26.7,1.1l-7.1,72.8c0,0-19.9-12.5-19.6-26S432.2,716.9,432.2,716.9z"/>
<path class="st7" d="M563.9,723.6c22.6-3.4,30.2-2.3,44,23.1s32.2,71.1,42.8,77c15.9,8.9,21.2,30.7,27.7,29.7s10.8,1.9,3.6,7.7
	s-18.5,10.8-22.5,9.8s-7-17.8-17.2-23.2s-7.2-9.9-6.5-14.7s-30-27-53-54.6c-14.1-16.8-21.4-28-22.5-38.1
	C559.7,734.6,560.9,728.7,563.9,723.6z"/>
<path class="st10" d="M619.9,815.7c-5.2-13.1-10.5-34.8-15.4-54.7c-7-28.3-14.4-35-19.1-38c-5.7-1.4-12.3-0.8-21.5,0.6
	c-3,5-4.3,10.9-3.6,16.7c1.1,10.1,8.3,21.2,22.5,38.1C595,792.9,609.2,806,619.9,815.7z"/>
<path class="st15" d="M570.8,746c0,0-6,44.8-11.6,49.3c-4,3.3-6.8,3.5-9.6-9.9s4.3-63.2,4.3-63.2L570.8,746z"/>
<polygon class="st7" points="566,770.2 510.5,779.4 541.8,735 565.7,730.2 580,733.4 "/>
<path class="st15" d="M635.9,833c-1.8,7.2-1.6,12.5,1.5,15.1s15,22.4,15,22.4l3.7-0.5l-8.5-18.1L635.9,833z"/>
<path class="st15" d="M659.6,871c3.9,1,15.4-3.9,22.5-9.8s2.9-8.7-3.6-7.7c-0.4,0.1-0.7,0-1.1,0c-3.3,7.2-14,12.6-17.5,5
	s-18.2-22.6-24.1-25.8c0,0.1,0,0.2,0,0.3c-0.7,4.8-3.8,9.3,6.5,14.7S655.7,869.9,659.6,871z"/>
<path class="st10" d="M450.5,725.4c-19.7,35-6.2,57.2,17.7,59.4s61.8-2.1,83.8-20.2s40.2-37.2,37.6-40.1S450.5,725.4,450.5,725.4z"
	/>
<path class="st7" d="M562.3,751.5c4-12,8.7-21.2,17.7-21.3c9.5-0.2,15.3,4.7,15.7,20c0.5,18.2,1.1,78.6,0.3,105.5
	c-0.6,20.3,5.3,26.8,4.8,48c-0.4,16,16.8,7.9,10.2,16.2c-4.6,5.7-18.2,3.8-26.6,2.8c-7.5-0.9,3.9-23-6.5-28.9
	c-8.8-5.1-9-13.3-3.4-19.5s0.6-24.6-3.1-37.5s-9.5-26.8-13.3-57.3C557.1,770.8,559.9,758.8,562.3,751.5z"/>
<path class="st15" d="M605.2,913.4c-3.1,1-6.2,1.7-9.4,1.9c-6.2,0.2-8.1-6.5-8.5-15.7c-0.4-8-6.2-20.6-12.3-25.7
	c-0.1,0.1-0.2,0.3-0.3,0.4c-5.6,6.2-5.4,14.5,3.4,19.5c10.3,5.9-1,28,6.5,28.9c8.4,1.1,22,2.9,26.6-2.8
	C615.4,914.5,610,914.1,605.2,913.4z"/>
<path class="st15" d="M576,872c0,0-9,9.3-8.2,13.2s3.6,13.7,4.1,21.3s0.9,16.3,0.9,16.3s3.3,0,3.5-0.9s2.1-30.8,2.1-30.8L576,872z"
	/>
<path class="st14" d="M441,722.2c0,0-11.7,49,3.1,62.6s76.1,1.4,90.6,0.6c9.8-0.6,19.3,11.2,19.3,11.2s-6.8-27.4-2.2-49.5
	s12.2-23.6,12.2-23.6l-10-1.4L441,722.2z"/>
<path class="st12" d="M438.4,709.4c5,10.5-5.4,28.6-1.8,33.8s24.5,0.7,38.1-10.1s39.5-13.2,39.5-13.2L438.4,709.4z"/>
<path class="st15" d="M459.5,798.8c41.3,1.5,84.8,0.8,84.8-5.3s-1.9-10.4-33.9-7.9s-53.7,5.8-63.4,3.7S459.5,798.8,459.5,798.8z"/>
<path class="st15" d="M318.7,716.3h580.7c2.8,0,5.2,2.3,5.2,5.2v0.8c0,2.8-2.3,5.2-5.2,5.2H318.7c-2.8,0-5.2-2.3-5.2-5.2v-0.8
	C313.5,718.6,315.8,716.3,318.7,716.3z"/>
<path class="st7" d="M977.4,567.4c4,13.9-5.8,28.3-16.5,31.3s-18.5-6.5-22.5-20.4s1.5-27.7,12.2-30.7S973.4,553.5,977.4,567.4z"/>
<path class="st7" d="M917,837.5c0,0,27.6,42.3,31.3,44.2s13,2.3,9.5,9.2s-4.9,34.1-8.2,35.4s-31.2,4.6-27,0s6.8-2.3,8.9-10.6
	s5.1-23.9,1.1-27.2s-28.2-32.2-28.2-32.2L917,837.5z"/>
<path class="st7" d="M778.1,855.7c0,0-33.5,54.6-39.8,59.5s-26.7,12.3-9.9,13.5s24.8-5.5,35.4-8.6s23.6-4.9,18.6-12.9
	s-2.9-25.4,7.8-36.4S778.1,855.7,778.1,855.7z"/>
<path class="st16" d="M949.3,729c0,0-83-2.2-116,24.5c-19.3,28.8-65.8,114-69.5,123.3c2.5,2.5,16.5,6.9,22.7,6.3
	c18.3-21.6,42.5-40.2,52.2-57.2c11.9-20.9,15.5-31.3,34.8-33.1s62.7-8,75.8-8S949.3,729,949.3,729z"/>
<polygon class="st15" points="1021.7,928.9 1017.3,928.9 986.1,800.2 995.7,800.2 "/>
<polygon class="st15" points="891.3,928.9 895.7,928.9 931.5,795.7 921.9,795.7 "/>
<path class="st14" d="M996.6,723.4l-48.3,8.2c0,0-64.2,0.6-93.5,6c-26.7,4.9-30.6,34.9,0,76.1c17.4,23.4,32.1,42.1,62.2,63.2
	c7.6-5.5,10.6-7.6,12.7-21c-2.2-3-7.8-21.4-9.5-25c-16.6-34.4-38.8-46.8-39.1-50.2c3.7-6,98.7,31.2,117.6,9.3
	C1016.6,769.1,996.6,723.4,996.6,723.4z"/>
<path class="st17" d="M998.6,615.4c-13.3-2-26.9,1.3-37.8,9.3C950.2,635.4,938.3,653,939,682c0.9,36.8-5.8,39.2,1.2,49.3
	c29.2,11.9,79,63,67.3,8.2c-8.5-39.7,18.6-69.2-3.3-113.2C1002.4,622.7,1000.2,619.2,998.6,615.4z"/>
<path class="st18" d="M939,695.8c-0.6,19.2-3.3,24.8-1.2,30.9c11.9,1.2,33.6,5.9,39,13.4c6.2,8.6,12.4,9.8,9.5,3.5
	s-10.6-15.3,1.2-46.2s17.4-51.8,5.8-73.2L939,695.8z"/>
<path class="st7" d="M998.6,615.4c-7.8-18.3-9.8-38.9-9.8-38.9l-20.5,6c0,0,11.7,25.8,0.5,35c-2.8,2.3-5.5,4.7-8,7.2
	C971.7,616.8,985.3,613.4,998.6,615.4z"/>
<path class="st10" d="M989.5,581.4l-4.3-3.8l-16.7,4.9v0.1c0.4,0.9,4.7,10.7,5.2,20.2c5-3,10.4-7.9,16.7-16.4
	C989.9,584.5,989.7,582.8,989.5,581.4z"/>
<path class="st7" d="M984.2,621.2c-21.1,7.3-18.8,29.3-38.2,61.7c-10.1,16.8-19.4,16.5-19.4,16.5c-17.4-0.1-34.8-1.2-52.1-3.3
	c-17.9-2.2-19,3.1-6.6,7.5c25,8.8,51,18.4,72,16.1s56.8-55.2,58.7-68.9C1001.2,631.8,994.8,617.5,984.2,621.2z"/>
<path class="st15" d="M973.3,805c-1.3,0-2.7,0-4,0c-12.9-0.3-25.7-1.9-38.2-4.7c-11.1-2.2-17.2-3.5-24.4,0c-2.4,1.1-5.3,0.1-6.5-2.3
	c-1.2-2.4-0.2-5.2,2.2-6.4c0,0,0,0,0.1,0c10.2-4.8,18.7-3.1,30.6-0.7c12,2.6,24.2,4.1,36.5,4.5c18.3,0.5,29.6-2.3,35.3-8.6
	c5.1-5.6,6.6-15,4.8-29.4c-0.6-4.9-1.3-9-1.8-12.6c-1.6-10.1-2.6-16.8-1.3-27c1.2-9.6,4.4-22.4,11.9-47.2c0.8-2.6,3.5-4,6.1-3.2
	c2.6,0.7,4,3.4,3.3,5.9c0,0,0,0,0,0.1c-13.9,46.4-13.2,50.9-10.2,70c0.6,3.7,1.2,7.8,1.9,12.8c2.3,17.5,0,29.3-7.2,37.1
	C1004.7,801.3,992.7,805,973.3,805z"/>
<path class="st18" d="M780.4,901.7c-22.2,10.8-34.2,16.9-41.4,16.3c-1.7-0.1-3.1-0.3-4.2-0.5c-7.9,4.6-20.6,10.1-6.3,11.2
	c16.8,1.2,24.8-5.5,35.4-8.6s23.6-4.9,18.6-12.9C781.4,905.5,780.7,903.7,780.4,901.7z"/>
<path class="st18" d="M950.8,882.6c-0.5,17.4-3,34.7-13.8,37.9c-2.5,0.8-5.2,1-7.8,0.7c-1.7,2.1-3.8,2.1-6.5,5.1
	c-4.2,4.6,23.8,1.4,27,0s4.7-28.5,8.2-35.4C960.7,885.2,955,883.9,950.8,882.6z"/>
<path class="st14" d="M865,717.3h-70.7c-1.9,0-3.6-1.1-4.4-2.8l-28.6-60.8c-1.1-2.4-0.1-5.2,2.3-6.4c0,0,0,0,0.1,0
	c2.4-1.1,5.3-0.1,6.5,2.3l27.3,58H865c2.7,0,4.8,2.2,4.8,4.8S867.7,717.3,865,717.3L865,717.3z"/>
<path class="st7" d="M879.8,696.7c-14.3-0.2-28.5-8.6-35.5-7.4s-30,17-27.1,17.6s21.1-8.7,21.7-8.9s4.5,6.5,14.3,8.9
	s0.1-7.2,30.2,1.8C903.1,714.6,879.8,696.7,879.8,696.7z"/>
<path class="st19" d="M996.5,598.7l2.1,16.7c0,0-18.5,1.1-27.7,6.2s-22.8,19.9-22.8,19.9l11.1-18.9l1.6-12.1L996.5,598.7z"/>
<path class="st19" d="M988.6,619.2c-13.7-2.5-20.1,9.6-29,29.5s-24.1,43.9-27.1,47s-50.9,0-50.9,0s-1.5,13.7,0,15.3s9.7,1.4,9.7,1.4
	s3.3,2.6,6.4,4.7s29.4,6,41.6,5.3s23.4-1.6,25-3.5s35-52.6,37.1-70.8S995.6,620.5,988.6,619.2z"/>
<path class="st4" d="M948.1,535.7c-26,1.2-21.9,39.8-21.9,39.8s6.7,2,20.9-0.2c-1.1-4.1-0.6-14.7-0.6-14.7c0.9,4.7,2.1,9.3,3.7,13.8
	c3,1.4,6.4,0.2,12.1-1.2c3,12.3,11.3,17.5,17,19.2c6.3,2,13,4.3,20.4,0.6s3.3-41.3-0.6-48.9c-5.9-11.4-15.8-21.5-32.9-16.2
	C960,530.1,954,532.7,948.1,535.7z"/>
<path class="st4" d="M993.3,581.6l10.6,15.3c0,0-11.8,29,22.5,42.2c26.8,10.3,23.6,28.5,11.5,46.7s7.2,34.2,7.2,34.2s2.9-20.2,29-24
	c35.5-5.2,45.6-52.3,19-75.9c-21.9-19.5-28.6-3.3-43.5-20.8s-42.9-5.7-42.9-5.7l-10.2-14.9L993.3,581.6z"/>
<path class="st4" d="M1105.4,667.5c-0.1,0-0.3,0-0.4-0.1c-0.4-0.2-0.6-0.7-0.3-1.1c0,0,0,0,0,0c8.9-16.2,1.6-35.7-2-41
	c-0.4-0.6-0.8-1.1-1.2-1.7c-3.6-5.6-8.1-12.5-32-16.8c-5.7-1-10.4-4.4-15.3-8c-10.2-7.4-21.8-15.8-47-4.4c-0.4,0.2-0.9,0.1-1.2-0.3
	c0,0,0-0.1,0-0.1c-0.2-0.4,0-0.9,0.4-1.1c0,0,0,0,0,0c26.1-11.8,38.1-3.1,48.7,4.5c4.8,3.5,9.3,6.7,14.6,7.7
	c24.7,4.4,29.4,11.7,33.2,17.5c0.4,0.6,0.8,1.2,1.1,1.7c2.2,3.2,5,9.8,6.1,17.4c1,6.6,1.1,16.3-3.9,25.4
	C1106,667.3,1105.7,667.5,1105.4,667.5z"/>
<path class="st4" d="M987.6,597.2c-1.8,0-3.7-0.2-5.5-0.4c-9-1.3-21.2-6.4-22.2-35c0-0.5,0.3-0.9,0.8-0.9c0,0,0,0,0,0
	c0.5,0,0.8,0.3,0.9,0.8c0,0,0,0,0,0c0.4,11.8,2.8,20.6,7.1,26c3.3,4.1,7.6,6.5,13.6,7.4c8.5,1.2,14.1-0.3,16.7-4.6
	c0.2-0.4,0.8-0.5,1.2-0.3c0.4,0.2,0.5,0.7,0.3,1.1c0,0,0,0,0,0C998.2,595.2,993.8,597.2,987.6,597.2z"/>
<path class="st9" d="M177.1,617.5c-30.1,17-72.1,87.8-63.2,99.4s56.4-18.8,56.4-18.8L177.1,617.5z"/>
<path class="st4" d="M233.4,535.3c-11.5-0.3-7.2-8.8-20.5-5.4c-7,1.8-1.8,4.6-10.9,3.7s-13.5-1.8-14.6,4s-1.7,7.7-6,8.6
	s-6.3,8.6,0,13.8s3.2,7.4,1.9,11.7s3.4,4.6,5.9,8.6s-2.4,4.8,1.4,8.2c2.5,2.1,5.7,3.2,8.9,3.2l15.7-29.7L233.4,535.3z"/>
<path class="st15" d="M467.9,892.1c0,0,16.8,0.5,29.8-4.6s21.9-12.9,19.6-3.7s-13,25-22.4,26.5S482.4,922,477.2,922
	s-12.6-11.7-25.6-17.5C439.7,899.2,467.9,892.1,467.9,892.1z"/>
<path class="st15" d="M335.8,890.5c5.3,6.7,11.9,12.2,19.3,16.3c12.7,6.9,27.3,10.2,18.2,13.3s-22.3,5.6-35.3,1.8
	c-9.1-2.6-19.7-3.2-22.5-7.4s3.3-14.9,0.8-30.8C314.3,871.2,335.8,890.5,335.8,890.5z"/>
<path class="st6" d="M257.2,736.1c0,0,97.1,35.9,105,46s110,101.6,110,108.3s-17.4,19-17.4,19s-87.6-53.1-109.3-80.1
	s-74.8-40-103-42.5S257.2,736.1,257.2,736.1z"/>
<path class="st5" d="M261,736.1c0,0,66.5-2.5,80.8,0s45.6,2.4,25.1,59.6c-16.1,44.8-21.4,101.5-21.4,101.5l-31.9,7.8
	c0,0,1.2-101.9,16.4-129.1c-20.2,3.3-40.1,7.7-59.7,13.3c-52.4,14.8-81.1,7.4-81.1,7.4l-7.8-27L261,736.1z"/>
<polygon class="st20" points="205.4,566.5 189.2,614 209.7,627.3 221.4,586.3 "/>
<path class="st21" d="M211.6,620.8l9.8-34.5l-15.9-19.8l-5.9,17.3C201.6,599.5,206.5,612.5,211.6,620.8z"/>
<path class="st20" d="M246.9,574.6c0.5,14.4-6.6,26.9-18,28s-21.8-9.6-23.2-24s6.6-26.9,18-28S246,551.8,246.9,574.6z"/>
<path class="st8" d="M181.4,612.6c-49.9,33.3-18.8,87-7.9,126.3c9.3,33.5,9,53.7,10.4,53.7s35.7-5.1,55.2-22.6
	c11.8-10.6,22.8-22.1,32.8-34.4c0,0-25.1-4.4-33.2-36.5c-4.2-16.3-2.3-25.1-11.8-50.9S181.4,612.6,181.4,612.6z"/>
<path class="st8" d="M181.4,612.6l5.3-12.9c0,0,16.9,11,23.7,16.3s10.9,6.5,10.9,6.5s2.4,18.5,0.9,16.8
	C202.2,618,181.4,612.6,181.4,612.6z"/>
<polygon class="st15" points="159.3,928.9 163.7,928.9 194.9,800.2 185.3,800.2 "/>
<polygon class="st15" points="289.7,928.9 285.4,928.9 249.5,795.7 259.1,795.7 "/>
<path class="st15" d="M207.8,805c-17.4,0-28.5-3.1-35.5-9.9c-8.7-8.4-10.6-21.4-10.6-38.4c-0.1-35.7-2.1-43.1-12.2-64.8
	c-1.1-2.4-0.1-5.2,2.3-6.4c0,0,0,0,0.1,0c2.4-1.1,5.3-0.1,6.5,2.4c10.8,23,13.1,31.5,13.1,68.9c0,17.2,2.2,26.3,7.6,31.5
	s15.5,7.5,32.4,7.1c12.3-0.3,24.5-1.8,36.5-4.4c11.9-2.4,20.4-4.1,30.6,0.7c2.4,1.1,3.4,4,2.3,6.4c0,0,0,0,0,0.1
	c-1.2,2.4-4.1,3.4-6.5,2.3c-7.2-3.4-13.3-2.2-24.4,0c-12.6,2.8-25.4,4.3-38.2,4.7C210.4,805,209.1,805,207.8,805z"/>
<path class="st6" d="M423.2,716.7h-70.7c-2.7,0-4.8-2.2-4.8-4.8s2.2-4.8,4.8-4.8h67.6l27.3-58c1.2-2.4,4-3.5,6.5-2.3
	c2.4,1.1,3.5,3.9,2.4,6.3c0,0,0,0,0,0.1l-28.6,60.8C426.8,715.6,425.1,716.7,423.2,716.7z"/>
<path class="st9" d="M183.2,661c0,0,12.4,37.4,27.8,52.9s46.3,20.7,56,20.1c-7.7-3.1-22.4-11.8-28.3-34.9
	c-4.2-16.3-2.3-25.1-11.8-50.9c-7-19.1-28.7-29.5-39.4-33.6c13.4,9.5,30.1,25.1,35.2,37C228.4,664.8,183.2,661,183.2,661z"/>
<path class="st20" d="M354.7,693.8c0,0,21.4-9.7,23.8-8.8s26.1,15.1,26.1,17.5s-21-8.8-21-8.8s2.3,6.1,0.9,9.1s-17.5,3-32,2
	S354.7,693.8,354.7,693.8z"/>
<path class="st8" d="M183.9,632.1c-19.8,40,48,80.5,88.2,84.2s88-9.4,88-9.4l-5.4-13c0,0-80.6-10.4-82.6-11.8
	S191.2,617.4,183.9,632.1z"/>
<path class="st20" d="M209.6,567.9c1.8,4.8,0.5,9.7-3,11s-7.8-1.5-9.6-6.2s-0.5-9.7,3-11S207.8,563.1,209.6,567.9z"/>
<path class="st4" d="M246.9,537.4c5.5-2.2,11.6-4.7,9.7,4.5c-0.8,4,0,2.9,1.5,6.5s-3.6,6.6-5.3,8.6s2.4,4.3-0.9,6.7s-7.7-0.9-10.8,0
	c-9.2,2.7-8.1-4.4-13.2-5.9s-7.7-1.3-8.7,2s3.6,14-0.3,13s-4.8,7.7-5.9,12.6s-3.8-3.4-3.6-9c0.3-8.6-1.9-12.2-5.1-14.6
	s-4.6-24.3,10.9-25.1s15.6-2.3,22.3-3.7S244.4,538.5,246.9,537.4z"/>
<path class="st22" d="M1117.5,787.7c9.9,8.9,5.6,17.9-1.7,34.5s-8.6,77.8-8.6,77.8l6-0.8c0,0-0.9-63,7.3-80s11.6-25.5,18.9-20
	S1117.5,787.7,1117.5,787.7z"/>
<path class="st23" d="M1112.1,776.1c1.2-5.3,8.3-11,17.9-15.9c-1.4,7.8-6,20.6-1.3,23.2c6.3,3.5,0.6-14.3,3.1-24.1
	c9.4-4.5,19.4-7.7,29.7-9.6c0,0,0,0.1,0,0.1c-5.6,14-12.9,19.6-9.9,21.7c2.3,1.6,9.7-14.6,19.4-22.9c7.3-0.4,13.5,0.6,17.2,3.5
	c5.7,4.4,9.5,8.3,3.8,21.8c-3.7,2.5-7.9,4-12.4,4.4c-12.9,1.3-19,1.7-9.9,6c4.4,2.1,11.8-0.1,17.9-1.5c-2,3.6-4.3,7.6-7.3,12.2
	c-1.7,2.7-3.7,5.3-6,7.6c-4.2,0.8-7.8,0.8-9.7,0c-6-2.5-21.5-10.6-25.4-7.2s28.7,5.4,26.4,13.9c-15.8,9-33.8,4.7-37-3.5
	C1124.3,794.7,1108.5,792,1112.1,776.1z"/>
<path class="st22" d="M1144.7,836.6c-17.2-12.8-34.9-0.8-43.9,12.8s-2.6,44.2-2.6,44.2s3.4,0,3.4-1.3s-9.5-36.2,12.9-51.9
	c14-9.8,24.1-5.1,25.4-0.4s-5.6,13.2-5.6,13.2L1144.7,836.6z"/>
<path class="st23" d="M1105.1,810.4c17.2,0,22.8,26.4,18.1,41.7s-11.1,43.8-11.1,43.8l-4.3-4.2c0,0,16.4-40,12.5-57.8
	s-13.3-20.8-15.1-20.8S1105.1,810.4,1105.1,810.4z"/>
<path class="st22" d="M1119.5,852.2c1.2-1.6,2.7-2.9,4.5-3.8c-0.2,1.2-0.5,2.4-0.9,3.6c-2.2,7-4.7,16.7-6.8,25.2
	c-0.2-1.1-0.5-2.8-0.9-5.4c-0.1-0.6-0.2-1.3-0.2-2C1116.9,864.1,1118.4,858.2,1119.5,852.2z"/>
<path class="st23" d="M1124.2,852.3c32.7-13.6,15.5-32.3,44.3-20c2,0.9,4.5,3.1,7,6.1c-3,0.9-6.1,1.1-9.1,0.7
	c-8.6-1.3-5.6,5.5,8.6,7.2c2.3,0.2,4.5,0.7,6.7,1.4c6.8,12.8,9.8,29.7-4.5,35.6c-3.3,1.2-6.7,1.9-10.2,2.1
	c-4.4-3.5,1.1-23.5-5.7-20.8c-6.6,2.7,2,17.2,0.9,20.9c-6.9-0.2-13.7-1.1-20.4-2.8c-2.7-1.5-4.8-3.5-5.4-6.1
	c-2.2-8.9,12-14.5,12.5-22.1c0.4-7-5.2,15.5-20,18.8C1115.3,867.1,1108.9,858.7,1124.2,852.3z"/>
<path class="st23" d="M1100.9,828.2c3.4-7.2-5.6-8.9-5.2-3.4c0.4,4.9,0.4,16.8-4.7,20c-10.5-1.3-20.6-4.6-29.7-9.8
	c-0.1-0.8,0-1.5,0.4-2.2c3.9-7.7,28.8-14,21.1-16.6c-6.2-2-17,10-25.7,16c-5.2-3.9-8.7-8.6-8.7-13.8c0-7.1,8.7-15.1,19.9-18.9
	c5.1,0.5,9.8,3.2,17.1,7.3c10.8,6.1,8.3-3.7-1.9-9.6c9.7,0.4,18.6,5.2,24.2,13.1c0,0-0.6,3.8,3.5,9.7c11.2,16.1-1.7,25.5-17.1,24.9
	C1094.9,840.9,1098.5,833.2,1100.9,828.2z"/>
<path class="st22" d="M1143.6,835.9c8.4,6.4,17.8,13.9,29.2,19s9.2,21.7,9.2,21.7s1.7-14.4-7.8-19.3s-15.9-10.8-23.2-11.9
	c-3.8-0.5-7.6-1.3-11.3-2.3c0,0,2.3-4.5,1-6.2S1143.6,835.9,1143.6,835.9z"/>
<path class="st22" d="M1185.1,760.4c-30.8,8.1-53.4,27.6-57.6,32.3s-4.2,6-4.2,6l3.2,6l1.5-0.8c0,0-2.5-5.1,4-11.7
	c11.2-11.4,24.9-20.4,34.2-24.4S1185.1,760.4,1185.1,760.4z"/>
<path class="st14" d="M1107.7,928.9h-3.4c-10.7,0-19.3-8.7-19.3-19.3v-22.4l0,0h42.1l0,0v22.4C1127,920.2,1118.4,928.9,1107.7,928.9
	C1107.7,928.9,1107.7,928.9,1107.7,928.9z"/>
<rect x="1084.9" y="892" class="st3" width="42.1" height="2.9"/>
<rect x="1084.9" y="897.3" class="st3" width="42.1" height="1.7"/>
<path class="st11" d="M600.9,329.3c0-31.5-25.7-57.1-57.4-57.5c-31.9-0.4-58.5,25-59,56.6c-0.3,14.8,5.3,29.1,15.4,39.9
	c4.5,4.8,7,11.1,7,17.7v25.8c0.1,16.8,13.9,30.4,30.7,30.3h10.2c16.8,0.1,30.5-13.5,30.7-30.3v-25.8c0-6.6,2.6-13,7.1-17.8
	C595.4,357.6,600.9,343.7,600.9,329.3z"/>
<path class="st24" d="M592.8,333.1c0-27.1-22.1-49.1-49.4-49.5s-50.3,21.5-50.7,48.7c-0.2,12.7,4.5,25,13.2,34.3
	c3.9,4.1,6,9.6,6,15.2V404c0.1,14.5,11.9,26.1,26.4,26.1h8.8c14.5,0.1,26.3-11.6,26.4-26.1v-22.1c0-5.7,2.2-11.2,6.1-15.3
	C588.1,357.5,592.8,345.5,592.8,333.1z"/>
<path class="st25" d="M551.3,396.2h-19.2c-0.9,0-1.6-0.7-1.7-1.6c0-0.4-3.6-36.9-20.2-47.2c-0.8-0.5-1.1-1.5-0.6-2.4c0,0,0,0,0,0
	c0.5-0.8,1.6-1,2.4-0.5c16.1,10,20.7,40.8,21.6,48.2h15.8c-0.1-4.6,0.4-9.3,1.5-13.8c2-8.5,6.8-21.3,18.7-34.1
	c0.7-0.7,1.7-0.7,2.5-0.1c0.7,0.6,0.8,1.7,0.1,2.4c0,0,0,0,0,0c-21.7,23.4-19.3,46.9-19.3,47.1c0.1,0.5-0.1,1-0.4,1.3
	C552.2,396,551.8,396.2,551.3,396.2z"/>
<path class="st25" d="M565.7,349.9c-6.5,0-15.3-4.5-24.6-9.5c-12,6.3-23.2,12-29.5,8.2c-2.9-1.8-4.4-5.2-4.3-10.6
	c0-5,1.5-8.4,4.3-10.1c6.3-3.7,17.5,2.2,29.5,8.5c12.2-6.4,23.6-12.4,29.9-8.6c2.8,1.7,4.2,5.1,4.1,10.2c-0.1,5.3-1.6,8.9-4.6,10.6
	C569,349.5,567.4,349.9,565.7,349.9z M544.8,338.5c9.6,5,19.6,9.8,24,7.3c1.8-1.1,2.8-3.6,2.9-7.7c0-3.8-0.8-6.2-2.5-7.2
	C564.9,328.3,554.5,333.4,544.8,338.5L544.8,338.5z M516.3,330.3c-1,0-2,0.2-2.9,0.7c-1.7,1-2.6,3.4-2.6,7.1c0,4,0.9,6.5,2.6,7.6
	c4.3,2.6,14.3-2.2,24-7.2C529.6,334.4,521.4,330.3,516.3,330.3L516.3,330.3z"/>
<path class="st25" d="M537.6,435H549c3.9,0,7,3.2,7,7v1.1c0,3.9-3.2,7-7,7h-11.4c-3.9,0-7-3.2-7-7v-1.1
	C530.6,438.2,533.7,435,537.6,435z"/>
<path class="st25" d="M505.2,393.1v18.2c0,17.5,14.5,31.8,32.1,31.8h10.7c17.6,0.1,32-14.1,32.1-31.8v-18.2H505.2z"/>
<path class="st26" d="M506.3,390.2H580c2.2,0,4,1.8,4,4v0.6c0,2.2-1.8,4-4,4h-73.7c-2.2,0-4-1.8-4-4v-0.6
	C502.3,392,504.1,390.2,506.3,390.2z"/>
<path class="st26" d="M580.2,405.4l-72.9,8.9c-2.3,0.3-4.4-1.3-4.7-3.6l-0.1-0.5c-0.3-2.3,1.4-4.3,3.6-4.6l72.9-8.9
	c2.3-0.3,4.4,1.3,4.7,3.6l0.1,0.5C584.1,403.1,582.4,405.2,580.2,405.4z"/>
<path class="st26" d="M580.2,418l-72.9,8.9c-2.3,0.3-4.4-1.3-4.7-3.6l-0.1-0.5c-0.3-2.3,1.4-4.3,3.6-4.6l72.9-8.9
	c2.3-0.3,4.4,1.3,4.7,3.6l0.1,0.5C584.1,415.7,582.4,417.7,580.2,418z"/>
<path class="st26" d="M575.7,431.5l-60.7,7.4c-2.1,0.3-4-1.2-4.3-3.3l-0.1-1.1c-0.2-2.1,1.3-4,3.3-4.2l60.7-7.4
	c2.1-0.3,4,1.2,4.3,3.3l0.1,1.1C579.3,429.4,577.8,431.3,575.7,431.5C575.7,431.5,575.7,431.5,575.7,431.5z"/>
<path class="st26" d="M1101,447.9h39.1c0,21.2-17.7,38.6-39.1,38.6s-39.1-17.4-39.1-38.6s17.7-38.6,39.1-38.6V447.9z"/>
<path class="st27" d="M1146.7,442.4c-0.1-21.5-17.6-38.8-39.1-38.6v38.6H1146.7z"/>
<path class="st27" d="M1068.5,442.4c0.1,21.5,17.6,38.8,39.1,38.6C1086.1,481.1,1068.5,463.6,1068.5,442.4z"/>
<path class="st27" d="M1107.6,403.8c-21.5-0.1-39,17.2-39.1,38.6C1068.5,421.2,1086.1,403.8,1107.6,403.8z"/>
<path class="st27" d="M1107.6,481.1c21.5,0.1,39-17.2,39.1-38.6C1146.7,463.6,1129,481.1,1107.6,481.1z"/>
<rect x="335.6" y="422.3" class="st26" width="8.5" height="24.4"/>
<rect x="445" y="430.2" class="st26" width="8.5" height="16.5"/>
<rect x="371.8" y="389.6" class="st26" width="8.5" height="57.1"/>
<rect x="389.9" y="421" class="st26" width="8.5" height="25.7"/>
<rect x="408" y="413.8" class="st26" width="8.5" height="33"/>
<rect x="353.7" y="406.2" class="st26" width="8.5" height="40.5"/>
<text transform="matrix(1.01 0 0 1 426.1299 405.9404)" class="st28 st29 st30">L</text>
<text transform="matrix(1.01 0 0 1 426.1299 421.4297)" class="st28 st29 st30">o</text>
<text transform="matrix(1.01 0 0 1 426.1299 436.9297)" class="st28 st29 st30">r</text>
<g>
	<defs>
		<path id="SVGID_1_" d="M63.1,299.9c-27.4,0-49.6,21.9-49.6,49s22.2,49,49.6,49s49.6-21.9,49.6-49S90.5,299.9,63.1,299.9z
			 M63.1,374.8c-14.3-0.2-25.8-11.9-25.6-26.2c0.2-14.3,11.9-25.8,26.2-25.6c14.2,0.2,25.6,11.7,25.6,25.9
			C89.3,363.3,77.5,374.9,63.1,374.8z"/>
	</defs>
	<clipPath id="SVGID_2_">
		<use xlink:href="#SVGID_1_"  style="overflow:visible;"/>
	</clipPath>
	<g class="st31">
		<path class="st8" d="M107.9,375.9l-44.8-27.1L55,400.1C75.9,403.4,96.7,393.8,107.9,375.9z"/>
		<path class="st23" d="M108,375.8l0.3-0.5c9.4-15.6,9.9-35,1.2-51.1c-15.9,8.2-6.4,3.2-46.3,24.5C108,376,101,371.8,108,375.8z"/>
		<path class="st26" d="M13.9,330.9l49.2,17.9l46.2-24.7C87.7,284.7,29.5,289.4,13.9,330.9z"/>
		<path class="st27" d="M55,400.1l8.1-51.3l-49.2-17.9C2.2,361.9,22.9,395.1,55,400.1z"/>
		<path class="st3" d="M10.6,339.4c0.9,0,1.7,0.2,2.5,0.6c0.4-2.3,1-4.7,1.8-6.9l26.7,9.7l0,0c0-1.2,0.4-2.3,1.2-3.2l-2.7-1l-24-8.7
			c1.9-4.6,4.5-9,7.7-12.9c-1.1-0.4-2.1-1.2-2.7-2.2c-3.5,4.2-6.3,8.9-8.3,13.9l0,0l-0.6,1.6l-0.6,1.6l0,0c-0.9,2.5-1.5,5-2,7.6
			C10,339.4,10.3,339.4,10.6,339.4z"/>
		<path class="st0" d="M111.6,324.9L111.6,324.9l-0.8-1.5c0,0,0-0.1,0-0.1l-0.7-1.3l0,0c-5.1-8.8-12.6-16-21.7-20.7
			c-19.6-9.9-43.2-7.4-60.2,6.5c1,0.6,1.8,1.6,2.2,2.7c8.3-6.8,18.6-10.9,29.3-11.6c19.1-1.5,37.4,8.1,47.1,24.6l-13.7,7.3
			l-13.4,7.1l-16.3,8.7l-0.4,0.2l-1.4-0.9l-0.1,0.5l-9.6-3.5c0,1.2-0.5,2.3-1.3,3.2l10.3,3.8l-7.6,48.1
			c-14.4-2.7-26.9-11.5-34.3-24.2c-4.4-7.4-6.8-15.9-6.9-24.5c-0.5,0.2-1.1,0.3-1.7,0.3c-0.6,0-1.2-0.1-1.8-0.3
			c0.1,9.3,2.7,18.3,7.4,26.3c8,13.5,21.4,22.9,36.8,25.8l0,0l1.7,0.3l1.7,0.3l0,0c2.2,0.3,4.5,0.4,6.7,0.4
			c18.2,0,35.2-9.1,45.4-24.3l0,0l0.3-0.5l0.6-0.9c0,0,0.2-0.3,0.2-0.4v-0.1l0,0l0.6-0.9l0,0C119.1,359.8,119.7,340.9,111.6,324.9z
			 M57,398.6l7.4-47l19.3,11.7l15.1,9.1l6.7,4C94.8,392.4,76.1,401,57,398.6z M107.3,373.5l-0.3-0.2c-1.8-1.1-2.6-1.5-6.3-3.7
			l-34.1-20.6l28.3-15.1c4.2-2.2,5.9-3.1,10.1-5.3l3.6-1.9C116,341.5,115.5,359.1,107.3,373.5z"/>
	</g>
</g>
<path class="st26" d="M211.2,291.3H345c4.5,0,8.2,3.7,8.2,8.2v50.7c0,4.5-3.7,8.2-8.2,8.2H211.2c-4.5,0-8.2-3.7-8.2-8.2v-50.7
	C203.1,294.9,206.7,291.3,211.2,291.3z"/>
<path class="st3" d="M213.8,308.9h128.7c3.6,0,6.6,3,6.6,6.6v33.1c0,3.6-3,6.6-6.6,6.6H213.8c-3.6,0-6.6-3-6.6-6.6v-33.1
	C207.2,311.9,210.1,308.9,213.8,308.9z"/>
<path class="st3" d="M211.7,296.2h1c1.3,0,2.4,1.1,2.4,2.4v0.4c0,1.3-1.1,2.4-2.4,2.4h-1c-1.3,0-2.4-1.1-2.4-2.4v-0.4
	C209.2,297.3,210.3,296.2,211.7,296.2z"/>
<path class="st3" d="M222.4,296.2h1c1.3,0,2.4,1.1,2.4,2.4v0.4c0,1.3-1.1,2.4-2.4,2.4h-1c-1.3,0-2.4-1.1-2.4-2.4v-0.4
	C219.9,297.3,221,296.2,222.4,296.2z"/>
<path class="st3" d="M233.1,296.2h1c1.3,0,2.4,1.1,2.4,2.4v0.4c0,1.3-1.1,2.4-2.4,2.4h-1c-1.3,0-2.4-1.1-2.4-2.4v-0.4
	C230.6,297.3,231.7,296.2,233.1,296.2z"/>
<path class="st26" d="M343.3,319h-75.1c-1.2,0.1-2.3-0.8-2.4-2.1c-0.1-1.2,0.8-2.3,2.1-2.4c0.1,0,0.2,0,0.3,0h75.1
	c1.2-0.1,2.3,0.8,2.4,2.1c0.1,1.2-0.8,2.3-2.1,2.4C343.5,319,343.4,319,343.3,319L343.3,319z"/>
<path class="st26" d="M286.9,353.3h-75.1c-1.2,0-2.2-1-2.2-2.2s1-2.2,2.2-2.2h75.1c1.2,0,2.2,1,2.2,2.2S288.1,353.3,286.9,353.3
	L286.9,353.3z"/>
<path class="st26" d="M294.2,348.8h5.2c1.1,0,2.1,0.9,2.1,2.1v0.3c0,1.1-0.9,2.1-2.1,2.1h-5.2c-1.1,0-2.1-0.9-2.1-2.1v-0.3
	C292.2,349.8,293.1,348.8,294.2,348.8z"/>
<path class="st26" d="M305.9,348.8h5.2c1.1,0,2.1,0.9,2.1,2.1v0.3c0,1.1-0.9,2.1-2.1,2.1h-5.2c-1.1,0-2.1-0.9-2.1-2.1v-0.3
	C303.9,349.8,304.8,348.8,305.9,348.8z"/>
<path class="st26" d="M344.1,328.7H219.7c-0.8,0.1-1.6-0.5-1.7-1.3c-0.1-0.8,0.5-1.6,1.3-1.7c0.1,0,0.2,0,0.3,0h124.3
	c0.8-0.1,1.6,0.5,1.7,1.3s-0.5,1.6-1.3,1.7C344.3,328.7,344.2,328.7,344.1,328.7z"/>
<path class="st26" d="M344.1,335.2H219.7c-0.8,0.1-1.6-0.5-1.7-1.3c-0.1-0.8,0.5-1.6,1.3-1.7c0.1,0,0.2,0,0.3,0h124.3
	c0.8-0.1,1.6,0.5,1.7,1.3s-0.5,1.6-1.3,1.7C344.3,335.2,344.2,335.2,344.1,335.2z"/>
<path class="st32" d="M719.2,315.6H655v-36.9h48.2l15.9,15.7L719.2,315.6z"/>
<polygon class="st27" points="702.1,278.7 702.1,298.4 719.2,298.4 719.2,294.6 703.2,278.8 "/>
<polygon class="st32" points="703.3,278.7 703.3,294.6 719.2,294.6 "/>
<path class="st3" d="M690.8,292.6h-28.6c-0.6,0-1.1-0.5-1.1-1.1c0-0.6,0.5-1.1,1.1-1.1c0,0,0,0,0,0h28.6c0.6,0,1.1,0.5,1.1,1.1
	C692,292.1,691.5,292.6,690.8,292.6C690.8,292.6,690.8,292.6,690.8,292.6z"/>
<path class="st3" d="M690.8,298.3h-28.6c-0.6,0-1.1-0.5-1.1-1.1c0-0.6,0.5-1.1,1.1-1.1c0,0,0,0,0,0h28.6c0.6,0,1.1,0.5,1.1,1.1
	C692,297.8,691.5,298.3,690.8,298.3C690.8,298.3,690.8,298.3,690.8,298.3z"/>
<path class="st3" d="M690.8,304.3h-28.6c-0.6,0-1.1-0.5-1.1-1.1c0-0.6,0.5-1.1,1.1-1.1c0,0,0,0,0,0h28.6c0.6,0,1.1,0.5,1.1,1.1
	C692,303.8,691.5,304.3,690.8,304.3C690.8,304.3,690.8,304.3,690.8,304.3z"/>
<ellipse class="st6" cx="685.2" cy="281.5" rx="1.9" ry="1.9"/>
<path class="st26" d="M435,301.1l-21.2-4c-0.6-0.1-0.9-0.6-0.8-1.2c0.1-0.6,0.6-0.9,1.2-0.8l21.2,4c0.5,0.1,0.9,0.6,0.8,1.1
	c0,0,0,0.1,0,0.1C436.1,300.9,435.6,301.2,435,301.1z"/>
<path class="st26" d="M434,306.4l-21.2-4c-0.6-0.1-0.9-0.6-0.8-1.2c0.1-0.6,0.6-0.9,1.2-0.8l21.2,4c0.5,0.1,0.9,0.6,0.8,1.1
	c0,0,0,0.1,0,0.1C435.1,306.1,434.6,306.5,434,306.4z"/>
<path class="st26" d="M432.9,311.8l-21.2-4c-0.5-0.1-0.9-0.6-0.8-1.1c0,0,0-0.1,0-0.1c0.1-0.5,0.6-0.9,1.1-0.8c0,0,0.1,0,0.1,0
	l21.2,4c0.6,0.1,0.9,0.6,0.8,1.2C434,311.5,433.5,311.8,432.9,311.8L432.9,311.8z"/>
<path class="st6" d="M420.6,279.3c-0.2,0.9-1.1,1.5-2,1.4c-0.9-0.2-1.5-1.1-1.4-2c0,0,0,0,0,0c0.2-0.9,1.1-1.6,2-1.4
	S420.9,278.4,420.6,279.3L420.6,279.3z"/>
<path class="st26" d="M748.8,367.3l-61.9-6.5l4.1-38.3l49.1,5.1l11.5,14L748.8,367.3z"/>
<polygon class="st3" points="739.1,330.4 693,325.6 689.6,357.9 746.9,363.9 748.9,344.9 737.7,343.8 "/>
<path class="st26" d="M732.9,342.1L703,339c-0.7-0.1-1.2-0.7-1.1-1.3c0,0,0,0,0,0c0.1-0.7,0.7-1.2,1.4-1.1l29.9,3.1
	c0.7,0,1.2,0.6,1.2,1.3c0,0.7-0.6,1.2-1.3,1.2C733,342.1,732.9,342.1,732.9,342.1L732.9,342.1z"/>
<path class="st26" d="M732.2,348.6l-29.8-3.1c-0.7,0-1.2-0.6-1.2-1.3c0-0.7,0.6-1.2,1.3-1.2c0.1,0,0.1,0,0.2,0l29.8,3.1
	c0.7,0.1,1.2,0.7,1.1,1.3c0,0,0,0,0,0C733.5,348.2,732.9,348.7,732.2,348.6z"/>
<path class="st26" d="M731.5,355.4l-29.9-3.1c-0.7,0-1.2-0.6-1.2-1.3c0-0.7,0.6-1.2,1.3-1.2c0.1,0,0.1,0,0.2,0l29.9,3.1
	c0.7,0.1,1.2,0.7,1.1,1.3c0,0,0,0,0,0C732.8,355,732.2,355.5,731.5,355.4z"/>
<ellipse class="st6" cx="714.1" cy="331.4" rx="1.9" ry="1.9"/>
<path class="st23" d="M1056.4,301.5c0.1,11.8-9.3,21.5-21.1,21.6c-11.8,0.1-21.5-9.3-21.6-21.1s9.3-21.5,21.1-21.6
	c0.1,0,0.2,0,0.2,0C1046.7,280.2,1056.3,289.7,1056.4,301.5C1056.4,301.4,1056.4,301.4,1056.4,301.5z"/>
<path class="st3" d="M1032.9,308.7L1032.9,308.7c-0.3,0-0.6-0.1-0.7-0.4l-5.8-6.5c-0.4-0.4-0.4-1,0-1.4c0,0,0,0,0.1,0
	c0.4-0.4,1.1-0.3,1.5,0.1l5.1,5.7l11.6-11.2c0.4-0.4,1-0.4,1.4-0.1c0,0,0,0,0.1,0.1c0.4,0.4,0.4,1,0,1.4c0,0,0,0,0,0l-12.4,12
	C1033.5,308.6,1033.2,308.7,1032.9,308.7z"/>
<path class="st26" d="M184.3,497.5H82.5c-9.1,0-16.5-7.4-16.5-16.5v-21.9c0-9.1,7.4-16.5,16.5-16.5h101.8c9.1,0,16.5,7.4,16.5,16.5
	V481C200.8,490.1,193.4,497.5,184.3,497.5z"/>
<path class="st26" d="M184.5,489.2v30.3l-35.3-34.9C149.2,484.6,183.8,489.2,184.5,489.2z"/>
<path class="st3" d="M179.9,492.1H87c-7.7,0-14-6.3-14-14v-16c0-7.7,6.3-14,14-14h92.9c7.7,0,14,6.3,14,14v16
	C193.8,485.8,187.6,492.1,179.9,492.1z"/>
<path class="st26" d="M128.1,459h54.6c1.3,0,2.4-1.1,2.4-2.4c0-1.3-1.1-2.4-2.4-2.4l0,0h-54.6c-1.3,0-2.4,1.1-2.4,2.4
	C125.7,457.9,126.7,459,128.1,459z"/>
<path class="st26" d="M183.8,468H82.4c-0.7,0-1.2-0.6-1.2-1.2v-0.2c0-0.7,0.6-1.2,1.2-1.2h101.4c0.7,0,1.2,0.6,1.2,1.2v0.2
	C185,467.5,184.4,468,183.8,468z"/>
<path class="st26" d="M183.8,473.2H82.4c-0.7,0-1.2-0.6-1.2-1.2v-0.2c0-0.7,0.6-1.2,1.2-1.2h101.4c0.7,0,1.2,0.6,1.2,1.2v0.2
	C185,472.6,184.4,473.2,183.8,473.2z"/>
<path class="st26" d="M987.6,459.2h-2c-2.6,0-4.7-2.1-4.7-4.7v-0.7c0-2.6,2.1-4.7,4.7-4.7h2c2.6,0,4.7,2.1,4.7,4.7v0.7
	C992.3,457.1,990.2,459.2,987.6,459.2z"/>
<path class="st26" d="M966.9,459.2h-2c-2.6,0-4.7-2.1-4.7-4.7v-0.7c0-2.6,2.1-4.7,4.7-4.7h2c2.6,0,4.7,2.1,4.7,4.7v0.7
	C971.6,457.1,969.5,459.2,966.9,459.2z"/>
<path class="st26" d="M946.1,459.2h-2c-2.6,0-4.7-2.1-4.7-4.7v-0.7c0-2.6,2.1-4.7,4.7-4.7h2c2.6,0,4.7,2.1,4.7,4.7v0.7
	C950.9,457.1,948.8,459.2,946.1,459.2z"/>
</svg>
