<svg id="Layer_1" data-name="Layer 1" xmlns="http://www.w3.org/2000/svg" viewBox="0 0 400 300"><defs><style>.cls-1{fill:#1db096;}</style></defs><path class="cls-1" d="M291.1,108.57a50,50,0,1,0-50-50A50.08,50.08,0,0,0,291.1,108.57Zm0-91a40.94,40.94,0,1,1-40.93,40.93A41,41,0,0,1,291.1,17.61Z"/><path class="cls-1" d="M295.65,72.19h-9.1A4.55,4.55,0,0,1,282,67.64h-9.1a13.66,13.66,0,0,0,13.64,13.64v9.1h9.1v-9.1a13.65,13.65,0,1,0,0-27.29h-9.1a4.55,4.55,0,0,1,0-9.09h9.1a4.55,4.55,0,0,1,4.55,4.55h9.1A13.67,13.67,0,0,0,295.65,35.8V26.7h-9.1v9.1a13.65,13.65,0,0,0,0,27.29h9.1a4.55,4.55,0,1,1,0,9.1Z"/><path class="cls-1" d="M318.39,227.67v-19a27.29,27.29,0,1,0-54.58,0v19a13.62,13.62,0,0,0-9.09,12.81v36.39a13.66,13.66,0,0,0,13.64,13.64h45.48a13.66,13.66,0,0,0,13.65-13.64V240.48A13.63,13.63,0,0,0,318.39,227.67ZM291.1,190.45a18.21,18.21,0,0,1,18.2,18.19v18.19H272.91V208.64A18.21,18.21,0,0,1,291.1,190.45Zm27.29,86.42a4.55,4.55,0,0,1-4.55,4.54H268.36a4.55,4.55,0,0,1-4.55-4.54V240.48a4.55,4.55,0,0,1,4.55-4.55h45.48a4.55,4.55,0,0,1,4.55,4.55Z"/><path class="cls-1" d="M291.1,240.48a13.61,13.61,0,0,0-4.55,26.45v9.93h9.1v-9.93a13.61,13.61,0,0,0-4.55-26.45Zm0,18.19a4.55,4.55,0,1,1,4.55-4.55A4.55,4.55,0,0,1,291.1,258.67Z"/><path class="cls-1" d="M168.3,254.12H141v27.29h-9.1V226.83H104.62v54.58h-9.1V245H68.23v36.38H59.14v9.1H177.39v-9.1H168.3Zm-18.2,9.1h9.1v18.19h-9.1Zm-36.38-27.29h9.09v45.48h-9.09ZM77.33,254.12h9.1v27.29h-9.1Z"/><path class="cls-1" d="M88.07,99.57l5.58,4.89a16.66,16.66,0,0,0,21.94,0l5.58-4.88A84.79,84.79,0,0,0,150.1,35.8V31.26h-4.55a9.11,9.11,0,0,1-9.09-9.1,9.42,9.42,0,0,1,.18-1.78l.7-3.52-3.26-1.5c-.6-.29-15-6.85-29.46-6.85s-28.87,6.56-29.47,6.85l-3.26,1.5.71,3.52a9.42,9.42,0,0,1,.18,1.78,9.11,9.11,0,0,1-9.1,9.1H59.14V35.8A84.75,84.75,0,0,0,88.07,99.58ZM81.88,22.42a73.81,73.81,0,0,1,18.19-4.54V35.8h9.1V17.88a74.3,74.3,0,0,1,18.19,4.54,18.24,18.24,0,0,0,13.55,17.33,75.64,75.64,0,0,1-25.73,53l-5.58,4.88c-.13.11-.3.15-.43.25v-53h-9.1v53c-.13-.1-.3-.14-.43-.25l-5.58-4.89a75.58,75.58,0,0,1-25.73-53A18.25,18.25,0,0,0,81.88,22.41Z"/><path class="cls-1" d="M200.13,181.35a4.55,4.55,0,1,1-4.54-4.55,4.55,4.55,0,0,1,4.54,4.55"/><path class="cls-1" d="M191,122.22h9.09V167.7H191Z"/><path class="cls-1" d="M134.88,123a68.36,68.36,0,0,0-4.18,10.14l-12.44,4V171l12.44,4a67.49,67.49,0,0,0,4.18,10.14l-6,11.59,24,24,11.59-6A68.59,68.59,0,0,0,174.63,219l4,12.43h33.93l4-12.43a67.49,67.49,0,0,0,10.14-4.18l11.6,6,24-24-6-11.6A69.19,69.19,0,0,0,260.47,175l12.44-4V137.1l-12.44-4A68.36,68.36,0,0,0,256.29,123l6-11.59-24-24-11.59,6a68.36,68.36,0,0,0-10.14-4.18l-4-12.44H178.62l-4,12.43a69.65,69.65,0,0,0-10.14,4.18l-11.6-6-24,24Zm3.86,15A58.89,58.89,0,0,1,144,125.23l1.19-2.13-5.14-10,14.61-14.61,10,5.14,2.14-1.19a58.71,58.71,0,0,1,12.72-5.25l2.35-.66,3.42-10.71h20.66l3.43,10.71,2.35.66a58.71,58.71,0,0,1,12.72,5.25l2.14,1.19,10-5.14,14.6,14.61-5.13,10,1.19,2.14A58.48,58.48,0,0,1,252.43,138l.67,2.35,10.71,3.42v20.66l-10.72,3.43-.66,2.35a59,59,0,0,1-5.24,12.72L246,185l5.13,10-14.6,14.61-10-5.14-2.13,1.2a59.49,59.49,0,0,1-12.72,5.24l-2.35.66-3.43,10.72H185.26l-3.43-10.72-2.35-.66a59.28,59.28,0,0,1-12.72-5.24l-2.13-1.2-10,5.14L140,195l5.14-10L144,182.89a59,59,0,0,1-5.24-12.72l-.66-2.35-10.72-3.43V143.74l10.71-3.43Z"/><path class="cls-1" d="M145.55,184.82a19.29,19.29,0,0,0,19.27,19.27h61.53a19.28,19.28,0,0,0,17.24-27.89l-1.71-3.42a49.43,49.43,0,0,0,3.74-18.72,50,50,0,1,0-100.07,0,49.44,49.44,0,0,0,3.75,18.72l-1.71,3.42a19.24,19.24,0,0,0-2,8.62ZM226.35,195H164.82a10.18,10.18,0,0,1-9.1-14.72l30.77-61.53a10.17,10.17,0,0,1,18.19,0l30.76,61.53A10.16,10.16,0,0,1,226.35,195Zm10.17-40.93a40,40,0,0,1-.63,6.76l-21.56-43.11a40.94,40.94,0,0,1,22.19,36.35Zm-81.87,0a40.94,40.94,0,0,1,22.19-36.35l-21.56,43.12A40.31,40.31,0,0,1,154.65,154.06Z"/><path class="cls-1" d="M286.55,117.67h9.1v54.58h-9.1Z"/><path class="cls-1" d="M100.07,117.67h9.1V217.74h-9.1Z"/><path class="cls-1" d="M177.39,258.67h68.23v9.1H177.39Z"/><path class="cls-1" d="M154.65,58.54H232v9.1H154.65Z"/></svg>